<svg xmlns="http://www.w3.org/2000/svg" width="208" height="78" fill="none">
  <mask id="path-1-outside-1_42:132" width="207" height="77" x=".385" y=".144" fill="#000" maskUnits="userSpaceOnUse">
    <path fill="#fff" d="M.385.144h207v77h-207z"/>
    <path d="m33.48 28 .736-6.992h-2.928v-2.64h3.2l.464-4.416h-3.664v-2.64h3.936l.72-6.992h2.671l-.736 6.992h3.6l.736-6.992h2.656l-.72 6.992h2.928v2.64h-3.2l-.463 4.416h3.664v2.64h-3.936L42.408 28H39.75l.72-6.992h-3.6L36.151 28H33.48Zm3.664-9.632h3.6l.464-4.416h-3.6l-.464 4.416ZM52.544 28V10.592h3.344V28h-3.344Zm1.68-20.8c-1.472 0-2.208-.64-2.208-1.92 0-.608.186-1.083.56-1.424.373-.352.922-.528 1.648-.528.725 0 1.274.176 1.648.528.373.341.56.816.56 1.424 0 1.28-.736 1.92-2.209 1.92Zm13.858 21.104c-1.269 0-2.431-.288-3.487-.864-1.046-.576-1.883-1.493-2.512-2.752-.63-1.27-.944-2.95-.944-5.04 0-3.104.762-5.435 2.287-6.992 1.537-1.557 3.776-2.336 6.72-2.336.448 0 .897.021 1.344.064.449.032.86.075 1.233.128V2.144h3.344V28h-2.832l-.209-1.872h-.191c-.512.65-1.174 1.179-1.984 1.584-.811.395-1.734.592-2.769.592Zm.865-2.8c.703 0 1.391-.15 2.063-.448.672-.299 1.243-.768 1.712-1.408V13.232a8.59 8.59 0 0 0-1.231-.192c-.47-.053-.928-.08-1.376-.08-1.846 0-3.238.501-4.176 1.504-.94.992-1.408 2.63-1.408 4.912 0 1.579.186 2.816.56 3.712.373.885.89 1.51 1.552 1.872.671.363 1.44.544 2.303.544Zm24.373 2.72c-.683 0-1.237-.192-1.664-.576-.416-.395-.624-.928-.624-1.6s.203-1.205.608-1.6c.416-.395.976-.592 1.68-.592s1.259.203 1.664.608c.416.405.624.933.624 1.584 0 .661-.208 1.19-.624 1.584-.416.395-.97.592-1.664.592Zm14.528.096c-2.614 0-4.624-.72-6.032-2.16-1.398-1.45-2.096-3.733-2.096-6.848 0-3.136.757-5.419 2.272-6.848 1.514-1.43 3.669-2.144 6.464-2.144.629 0 1.253.037 1.872.112.629.075 1.226.181 1.792.32v2.752a13.699 13.699 0 0 0-3.264-.416c-1.931 0-3.36.47-4.288 1.408-.928.928-1.392 2.517-1.392 4.768 0 2.293.437 3.915 1.312 4.864.874.939 2.16 1.408 3.856 1.408.544 0 1.12-.048 1.728-.144a16.87 16.87 0 0 0 2.048-.512v2.736a12.96 12.96 0 0 1-4.272.704Zm8.945-.32V2.144h3.344V28h-3.344Zm13.908.288c-1.685 0-3.008-.432-3.968-1.296-.949-.864-1.424-2.043-1.424-3.536 0-1.547.518-2.757 1.552-3.632 1.046-.875 2.726-1.413 5.04-1.616l3.632-.368v-1.104c0-1.461-.352-2.453-1.056-2.976-.704-.533-1.797-.8-3.28-.8-.661 0-1.408.059-2.24.176a14.27 14.27 0 0 0-2.464.576v-2.624a14.562 14.562 0 0 1 2.576-.576 19.606 19.606 0 0 1 2.64-.192c1.59 0 2.907.208 3.952.624 1.056.405 1.84 1.088 2.352 2.048.523.96.784 2.272.784 3.936V28h-2.768l-.24-1.872h-.192a5.175 5.175 0 0 1-2.128 1.616 7 7 0 0 1-2.768.544Zm-2.048-5.136c0 1.792.998 2.688 2.992 2.688.683 0 1.36-.139 2.032-.416.683-.277 1.302-.741 1.856-1.392V19.92l-3.344.336c-1.258.128-2.165.432-2.72.912-.544.48-.816 1.141-.816 1.984Zm20.538 5.168c-1.856 0-3.541-.24-5.056-.72v-2.576c1.654.49 3.334.736 5.041.736 1.397 0 2.4-.224 3.008-.672.618-.448.927-1.077.927-1.888 0-.683-.181-1.2-.543-1.552-.352-.363-.95-.635-1.793-.816l-2.495-.496c-1.611-.32-2.769-.88-3.473-1.68-.693-.8-1.039-1.845-1.039-3.136 0-1.525.597-2.773 1.792-3.744 1.194-.97 3.034-1.456 5.519-1.456.768 0 1.51.048 2.224.144.726.085 1.409.213 2.049.384v2.576a16.14 16.14 0 0 0-4.192-.544c-1.601 0-2.704.25-3.312.752-.608.49-.912 1.093-.912 1.808 0 .597.165 1.088.496 1.472.341.373.933.656 1.776.848l2.496.48c1.589.33 2.746.875 3.472 1.632.736.757 1.104 1.819 1.104 3.184 0 1.632-.608 2.917-1.824 3.856-1.206.939-2.961 1.408-5.265 1.408Zm16.413 0c-1.856 0-3.541-.24-5.056-.72v-2.576a17.62 17.62 0 0 0 5.04.736c1.397 0 2.4-.224 3.008-.672.619-.448.928-1.077.928-1.888 0-.683-.181-1.2-.544-1.552-.352-.363-.949-.635-1.792-.816l-2.496-.496c-1.611-.32-2.768-.88-3.472-1.68-.693-.8-1.04-1.845-1.04-3.136 0-1.525.597-2.773 1.792-3.744 1.195-.97 3.035-1.456 5.52-1.456a16.7 16.7 0 0 1 2.224.144 14.54 14.54 0 0 1 2.048.384v2.576a16.14 16.14 0 0 0-4.192-.544c-1.6 0-2.704.25-3.312.752-.608.49-.912 1.093-.912 1.808 0 .597.165 1.088.496 1.472.341.373.933.656 1.776.848l2.496.48c1.589.33 2.747.875 3.472 1.632.736.757 1.104 1.819 1.104 3.184 0 1.632-.608 2.917-1.824 3.856-1.205.939-2.96 1.408-5.264 1.408ZM2.385 75.04V42.144h8.529v2.704H5.73v27.488h5.12v2.704H2.386Zm16.285-6.752c-1.685 0-3.008-.432-3.968-1.296-.95-.864-1.424-2.043-1.424-3.536 0-1.547.517-2.757 1.552-3.632 1.045-.875 2.725-1.413 5.04-1.616l3.632-.368v-1.104c0-1.461-.352-2.453-1.056-2.976-.704-.533-1.797-.8-3.28-.8-.661 0-1.408.059-2.24.176a14.27 14.27 0 0 0-2.464.576v-2.624a14.542 14.542 0 0 1 2.576-.576 19.599 19.599 0 0 1 2.64-.192c1.59 0 2.907.208 3.952.624 1.056.405 1.84 1.088 2.352 2.048.523.96.784 2.272.784 3.936V68h-2.768l-.24-1.872h-.192a5.18 5.18 0 0 1-2.128 1.616 7.002 7.002 0 0 1-2.768.544Zm-2.048-5.136c0 1.792.997 2.688 2.992 2.688.683 0 1.36-.139 2.032-.416.683-.277 1.301-.741 1.856-1.392V59.92l-3.344.336c-1.259.128-2.165.432-2.72.912-.544.48-.816 1.141-.816 1.984Zm23.082 5.152c-1.877 0-3.333-.475-4.368-1.424-1.024-.95-1.536-2.47-1.536-4.56v-9.024h-3.136v-2.704H33.8l.576-6.272h2.768v6.272h5.184v2.704h-5.184v8.48c0 1.387.272 2.352.816 2.896.555.544 1.403.816 2.544.816.576 0 1.254-.085 2.032-.256v2.752c-.938.213-1.882.32-2.832.32Zm13.038 0c-1.878 0-3.334-.475-4.368-1.424-1.024-.95-1.536-2.47-1.536-4.56v-9.024h-3.136v-2.704h3.136l.576-6.272h2.768v6.272h5.184v2.704h-5.184v8.48c0 1.387.272 2.352.816 2.896.554.544 1.402.816 2.544.816.576 0 1.253-.085 2.032-.256v2.752c-.939.213-1.883.32-2.832.32ZM59.787 68V50.592h2.768l.272 2.304h.176a5.364 5.364 0 0 1 2.16-1.872 6.402 6.402 0 0 1 2.784-.624c.48 0 .944.043 1.392.128v3.056a6.295 6.295 0 0 0-.784-.08 9.455 9.455 0 0 0-.784-.032c-.821 0-1.67.187-2.544.56a4.692 4.692 0 0 0-2.096 1.664V68h-3.344Zm10.848 7.04v-2.704h5.136V44.848h-5.184v-2.704H79.1V75.04h-8.464Zm16.829-6.816c-.683 0-1.238-.192-1.664-.576-.416-.395-.624-.928-.624-1.6s.202-1.205.608-1.6c.416-.395.976-.592 1.68-.592s1.258.203 1.664.608c.416.405.624.933.624 1.584 0 .661-.208 1.19-.624 1.584-.416.395-.97.592-1.664.592Zm0-13.488c-.683 0-1.238-.192-1.664-.576-.416-.395-.624-.928-.624-1.6s.202-1.205.608-1.6c.416-.395.976-.592 1.68-.592s1.258.203 1.664.608c.416.405.624.933.624 1.584 0 .661-.208 1.19-.624 1.584-.416.395-.97.592-1.664.592Zm9.443 13.488c-.682 0-1.237-.192-1.663-.576-.416-.395-.624-.928-.624-1.6s.202-1.205.608-1.6c.416-.395.976-.592 1.68-.592s1.258.203 1.663.608c.416.405.624.933.624 1.584 0 .661-.207 1.19-.623 1.584-.416.395-.971.592-1.665.592Zm0-13.488c-.682 0-1.237-.192-1.663-.576-.416-.395-.624-.928-.624-1.6s.202-1.205.608-1.6c.416-.395.976-.592 1.68-.592s1.258.203 1.663.608c.416.405.624.933.624 1.584 0 .661-.207 1.19-.623 1.584-.416.395-.971.592-1.665.592Zm7.78 20.304V50.592h2.832l.224 1.904h.176c.512-.65 1.174-1.173 1.984-1.568.811-.405 1.734-.608 2.768-.608 1.259 0 2.411.283 3.456.848 1.056.565 1.899 1.483 2.528 2.752.64 1.259.96 2.944.96 5.056 0 3.104-.768 5.435-2.304 6.992-1.525 1.557-3.76 2.336-6.704 2.336-.448 0-.896-.021-1.344-.064a17.709 17.709 0 0 1-1.232-.128v6.928h-3.344Zm5.952-9.376c1.846 0 3.238-.496 4.176-1.488.939-.992 1.408-2.635 1.408-4.928 0-1.59-.192-2.827-.576-3.712-.373-.896-.896-1.52-1.568-1.872-.661-.363-1.418-.544-2.272-.544-.704 0-1.392.15-2.064.448-.672.299-1.242.768-1.712 1.408v10.416c.352.085.763.155 1.232.208.47.043.928.064 1.376.064Zm18.675 2.624c-1.686 0-3.008-.432-3.968-1.296-.95-.864-1.424-2.043-1.424-3.536 0-1.547.517-2.757 1.552-3.632 1.045-.875 2.725-1.413 5.04-1.616l3.632-.368v-1.104c0-1.461-.352-2.453-1.056-2.976-.704-.533-1.798-.8-3.28-.8-.662 0-1.408.059-2.24.176-.832.117-1.654.31-2.464.576v-2.624a14.522 14.522 0 0 1 2.576-.576 19.583 19.583 0 0 1 2.64-.192c1.589 0 2.906.208 3.952.624 1.056.405 1.84 1.088 2.352 2.048.522.96.784 2.272.784 3.936V68h-2.768l-.24-1.872h-.192a5.181 5.181 0 0 1-2.128 1.616 7.004 7.004 0 0 1-2.768.544Zm-2.048-5.136c0 1.792.997 2.688 2.992 2.688a5.29 5.29 0 0 0 2.032-.416c.682-.277 1.301-.741 1.856-1.392V59.92l-3.344.336c-1.259.128-2.166.432-2.72.912-.544.48-.816 1.141-.816 1.984ZM143.356 68V50.592h2.768l.272 2.304h.176a5.36 5.36 0 0 1 2.16-1.872 6.404 6.404 0 0 1 2.784-.624c.48 0 .944.043 1.392.128v3.056a6.288 6.288 0 0 0-.784-.08 9.447 9.447 0 0 0-.784-.032c-.821 0-1.669.187-2.544.56a4.691 4.691 0 0 0-2.096 1.664V68h-3.344Zm21.032.32c-2.89 0-5.056-.704-6.496-2.112-1.44-1.419-2.16-3.723-2.16-6.912 0-3.008.656-5.253 1.968-6.736 1.312-1.493 3.11-2.24 5.392-2.24 2.24 0 3.963.747 5.168 2.24 1.206 1.493 1.808 3.765 1.808 6.816v.96h-10.96c.064 1.963.55 3.344 1.456 4.144.907.8 2.326 1.2 4.256 1.2.662 0 1.355-.053 2.08-.16a22.433 22.433 0 0 0 2.272-.496v2.624c-.864.235-1.685.405-2.464.512-.778.107-1.552.16-2.32.16Zm-1.328-15.712c-1.205 0-2.16.416-2.864 1.248-.693.821-1.061 2.277-1.104 4.368h7.808c-.032-2.08-.378-3.536-1.04-4.368-.661-.832-1.594-1.248-2.8-1.248ZM175.087 68V50.592h2.784l.24 1.904h.192c1.419-1.45 3.2-2.176 5.344-2.176 1.11 0 2.091.208 2.944.624.864.416 1.542 1.093 2.032 2.032.491.928.736 2.17.736 3.728V68h-3.344V56.88c0-1.355-.293-2.299-.88-2.832-.586-.533-1.386-.8-2.4-.8-.714 0-1.472.16-2.272.48-.789.31-1.466.832-2.032 1.568V68h-3.344Zm27.186.304c-1.877 0-3.333-.475-4.368-1.424-1.024-.95-1.536-2.47-1.536-4.56v-9.024h-3.136v-2.704h3.136l.576-6.272h2.768v6.272h5.184v2.704h-5.184v8.48c0 1.387.272 2.352.816 2.896.555.544 1.403.816 2.544.816.576 0 1.253-.085 2.032-.256v2.752c-.939.213-1.883.32-2.832.32Z"/>
  </mask>
  <path fill="#fff" d="m33.48 28 .736-6.992h-2.928v-2.64h3.2l.464-4.416h-3.664v-2.64h3.936l.72-6.992h2.671l-.736 6.992h3.6l.736-6.992h2.656l-.72 6.992h2.928v2.64h-3.2l-.463 4.416h3.664v2.64h-3.936L42.408 28H39.75l.72-6.992h-3.6L36.151 28H33.48Zm3.664-9.632h3.6l.464-4.416h-3.6l-.464 4.416ZM52.544 28V10.592h3.344V28h-3.344Zm1.68-20.8c-1.472 0-2.208-.64-2.208-1.92 0-.608.186-1.083.56-1.424.373-.352.922-.528 1.648-.528.725 0 1.274.176 1.648.528.373.341.56.816.56 1.424 0 1.28-.736 1.92-2.209 1.92Zm13.858 21.104c-1.269 0-2.431-.288-3.487-.864-1.046-.576-1.883-1.493-2.512-2.752-.63-1.27-.944-2.95-.944-5.04 0-3.104.762-5.435 2.287-6.992 1.537-1.557 3.776-2.336 6.72-2.336.448 0 .897.021 1.344.064.449.032.86.075 1.233.128V2.144h3.344V28h-2.832l-.209-1.872h-.191c-.512.65-1.174 1.179-1.984 1.584-.811.395-1.734.592-2.769.592Zm.865-2.8c.703 0 1.391-.15 2.063-.448.672-.299 1.243-.768 1.712-1.408V13.232a8.59 8.59 0 0 0-1.231-.192c-.47-.053-.928-.08-1.376-.08-1.846 0-3.238.501-4.176 1.504-.94.992-1.408 2.63-1.408 4.912 0 1.579.186 2.816.56 3.712.373.885.89 1.51 1.552 1.872.671.363 1.44.544 2.303.544Zm24.373 2.72c-.683 0-1.237-.192-1.664-.576-.416-.395-.624-.928-.624-1.6s.203-1.205.608-1.6c.416-.395.976-.592 1.68-.592s1.259.203 1.664.608c.416.405.624.933.624 1.584 0 .661-.208 1.19-.624 1.584-.416.395-.97.592-1.664.592Zm14.528.096c-2.614 0-4.624-.72-6.032-2.16-1.398-1.45-2.096-3.733-2.096-6.848 0-3.136.757-5.419 2.272-6.848 1.514-1.43 3.669-2.144 6.464-2.144.629 0 1.253.037 1.872.112.629.075 1.226.181 1.792.32v2.752a13.699 13.699 0 0 0-3.264-.416c-1.931 0-3.36.47-4.288 1.408-.928.928-1.392 2.517-1.392 4.768 0 2.293.437 3.915 1.312 4.864.874.939 2.16 1.408 3.856 1.408.544 0 1.12-.048 1.728-.144a16.87 16.87 0 0 0 2.048-.512v2.736a12.96 12.96 0 0 1-4.272.704Zm8.945-.32V2.144h3.344V28h-3.344Zm13.908.288c-1.685 0-3.008-.432-3.968-1.296-.949-.864-1.424-2.043-1.424-3.536 0-1.547.518-2.757 1.552-3.632 1.046-.875 2.726-1.413 5.04-1.616l3.632-.368v-1.104c0-1.461-.352-2.453-1.056-2.976-.704-.533-1.797-.8-3.28-.8-.661 0-1.408.059-2.24.176a14.27 14.27 0 0 0-2.464.576v-2.624a14.562 14.562 0 0 1 2.576-.576 19.606 19.606 0 0 1 2.64-.192c1.59 0 2.907.208 3.952.624 1.056.405 1.84 1.088 2.352 2.048.523.96.784 2.272.784 3.936V28h-2.768l-.24-1.872h-.192a5.175 5.175 0 0 1-2.128 1.616 7 7 0 0 1-2.768.544Zm-2.048-5.136c0 1.792.998 2.688 2.992 2.688.683 0 1.36-.139 2.032-.416.683-.277 1.302-.741 1.856-1.392V19.92l-3.344.336c-1.258.128-2.165.432-2.72.912-.544.48-.816 1.141-.816 1.984Zm20.538 5.168c-1.856 0-3.541-.24-5.056-.72v-2.576c1.654.49 3.334.736 5.041.736 1.397 0 2.4-.224 3.008-.672.618-.448.927-1.077.927-1.888 0-.683-.181-1.2-.543-1.552-.352-.363-.95-.635-1.793-.816l-2.495-.496c-1.611-.32-2.769-.88-3.473-1.68-.693-.8-1.039-1.845-1.039-3.136 0-1.525.597-2.773 1.792-3.744 1.194-.97 3.034-1.456 5.519-1.456.768 0 1.51.048 2.224.144.726.085 1.409.213 2.049.384v2.576a16.14 16.14 0 0 0-4.192-.544c-1.601 0-2.704.25-3.312.752-.608.49-.912 1.093-.912 1.808 0 .597.165 1.088.496 1.472.341.373.933.656 1.776.848l2.496.48c1.589.33 2.746.875 3.472 1.632.736.757 1.104 1.819 1.104 3.184 0 1.632-.608 2.917-1.824 3.856-1.206.939-2.961 1.408-5.265 1.408Zm16.413 0c-1.856 0-3.541-.24-5.056-.72v-2.576a17.62 17.62 0 0 0 5.04.736c1.397 0 2.4-.224 3.008-.672.619-.448.928-1.077.928-1.888 0-.683-.181-1.2-.544-1.552-.352-.363-.949-.635-1.792-.816l-2.496-.496c-1.611-.32-2.768-.88-3.472-1.68-.693-.8-1.04-1.845-1.04-3.136 0-1.525.597-2.773 1.792-3.744 1.195-.97 3.035-1.456 5.52-1.456a16.7 16.7 0 0 1 2.224.144 14.54 14.54 0 0 1 2.048.384v2.576a16.14 16.14 0 0 0-4.192-.544c-1.6 0-2.704.25-3.312.752-.608.49-.912 1.093-.912 1.808 0 .597.165 1.088.496 1.472.341.373.933.656 1.776.848l2.496.48c1.589.33 2.747.875 3.472 1.632.736.757 1.104 1.819 1.104 3.184 0 1.632-.608 2.917-1.824 3.856-1.205.939-2.96 1.408-5.264 1.408ZM2.385 75.04V42.144h8.529v2.704H5.73v27.488h5.12v2.704H2.386Zm16.285-6.752c-1.685 0-3.008-.432-3.968-1.296-.95-.864-1.424-2.043-1.424-3.536 0-1.547.517-2.757 1.552-3.632 1.045-.875 2.725-1.413 5.04-1.616l3.632-.368v-1.104c0-1.461-.352-2.453-1.056-2.976-.704-.533-1.797-.8-3.28-.8-.661 0-1.408.059-2.24.176a14.27 14.27 0 0 0-2.464.576v-2.624a14.542 14.542 0 0 1 2.576-.576 19.599 19.599 0 0 1 2.64-.192c1.59 0 2.907.208 3.952.624 1.056.405 1.84 1.088 2.352 2.048.523.96.784 2.272.784 3.936V68h-2.768l-.24-1.872h-.192a5.18 5.18 0 0 1-2.128 1.616 7.002 7.002 0 0 1-2.768.544Zm-2.048-5.136c0 1.792.997 2.688 2.992 2.688.683 0 1.36-.139 2.032-.416.683-.277 1.301-.741 1.856-1.392V59.92l-3.344.336c-1.259.128-2.165.432-2.72.912-.544.48-.816 1.141-.816 1.984Zm23.082 5.152c-1.877 0-3.333-.475-4.368-1.424-1.024-.95-1.536-2.47-1.536-4.56v-9.024h-3.136v-2.704H33.8l.576-6.272h2.768v6.272h5.184v2.704h-5.184v8.48c0 1.387.272 2.352.816 2.896.555.544 1.403.816 2.544.816.576 0 1.254-.085 2.032-.256v2.752c-.938.213-1.882.32-2.832.32Zm13.038 0c-1.878 0-3.334-.475-4.368-1.424-1.024-.95-1.536-2.47-1.536-4.56v-9.024h-3.136v-2.704h3.136l.576-6.272h2.768v6.272h5.184v2.704h-5.184v8.48c0 1.387.272 2.352.816 2.896.554.544 1.402.816 2.544.816.576 0 1.253-.085 2.032-.256v2.752c-.939.213-1.883.32-2.832.32ZM59.787 68V50.592h2.768l.272 2.304h.176a5.364 5.364 0 0 1 2.16-1.872 6.402 6.402 0 0 1 2.784-.624c.48 0 .944.043 1.392.128v3.056a6.295 6.295 0 0 0-.784-.08 9.455 9.455 0 0 0-.784-.032c-.821 0-1.67.187-2.544.56a4.692 4.692 0 0 0-2.096 1.664V68h-3.344Zm10.848 7.04v-2.704h5.136V44.848h-5.184v-2.704H79.1V75.04h-8.464Zm16.829-6.816c-.683 0-1.238-.192-1.664-.576-.416-.395-.624-.928-.624-1.6s.202-1.205.608-1.6c.416-.395.976-.592 1.68-.592s1.258.203 1.664.608c.416.405.624.933.624 1.584 0 .661-.208 1.19-.624 1.584-.416.395-.97.592-1.664.592Zm0-13.488c-.683 0-1.238-.192-1.664-.576-.416-.395-.624-.928-.624-1.6s.202-1.205.608-1.6c.416-.395.976-.592 1.68-.592s1.258.203 1.664.608c.416.405.624.933.624 1.584 0 .661-.208 1.19-.624 1.584-.416.395-.97.592-1.664.592Zm9.443 13.488c-.682 0-1.237-.192-1.663-.576-.416-.395-.624-.928-.624-1.6s.202-1.205.608-1.6c.416-.395.976-.592 1.68-.592s1.258.203 1.663.608c.416.405.624.933.624 1.584 0 .661-.207 1.19-.623 1.584-.416.395-.971.592-1.665.592Zm0-13.488c-.682 0-1.237-.192-1.663-.576-.416-.395-.624-.928-.624-1.6s.202-1.205.608-1.6c.416-.395.976-.592 1.68-.592s1.258.203 1.663.608c.416.405.624.933.624 1.584 0 .661-.207 1.19-.623 1.584-.416.395-.971.592-1.665.592Zm7.78 20.304V50.592h2.832l.224 1.904h.176c.512-.65 1.174-1.173 1.984-1.568.811-.405 1.734-.608 2.768-.608 1.259 0 2.411.283 3.456.848 1.056.565 1.899 1.483 2.528 2.752.64 1.259.96 2.944.96 5.056 0 3.104-.768 5.435-2.304 6.992-1.525 1.557-3.76 2.336-6.704 2.336-.448 0-.896-.021-1.344-.064a17.709 17.709 0 0 1-1.232-.128v6.928h-3.344Zm5.952-9.376c1.846 0 3.238-.496 4.176-1.488.939-.992 1.408-2.635 1.408-4.928 0-1.59-.192-2.827-.576-3.712-.373-.896-.896-1.52-1.568-1.872-.661-.363-1.418-.544-2.272-.544-.704 0-1.392.15-2.064.448-.672.299-1.242.768-1.712 1.408v10.416c.352.085.763.155 1.232.208.47.043.928.064 1.376.064Zm18.675 2.624c-1.686 0-3.008-.432-3.968-1.296-.95-.864-1.424-2.043-1.424-3.536 0-1.547.517-2.757 1.552-3.632 1.045-.875 2.725-1.413 5.04-1.616l3.632-.368v-1.104c0-1.461-.352-2.453-1.056-2.976-.704-.533-1.798-.8-3.28-.8-.662 0-1.408.059-2.24.176-.832.117-1.654.31-2.464.576v-2.624a14.522 14.522 0 0 1 2.576-.576 19.583 19.583 0 0 1 2.64-.192c1.589 0 2.906.208 3.952.624 1.056.405 1.84 1.088 2.352 2.048.522.96.784 2.272.784 3.936V68h-2.768l-.24-1.872h-.192a5.181 5.181 0 0 1-2.128 1.616 7.004 7.004 0 0 1-2.768.544Zm-2.048-5.136c0 1.792.997 2.688 2.992 2.688a5.29 5.29 0 0 0 2.032-.416c.682-.277 1.301-.741 1.856-1.392V59.92l-3.344.336c-1.259.128-2.166.432-2.72.912-.544.48-.816 1.141-.816 1.984ZM143.356 68V50.592h2.768l.272 2.304h.176a5.36 5.36 0 0 1 2.16-1.872 6.404 6.404 0 0 1 2.784-.624c.48 0 .944.043 1.392.128v3.056a6.288 6.288 0 0 0-.784-.08 9.447 9.447 0 0 0-.784-.032c-.821 0-1.669.187-2.544.56a4.691 4.691 0 0 0-2.096 1.664V68h-3.344Zm21.032.32c-2.89 0-5.056-.704-6.496-2.112-1.44-1.419-2.16-3.723-2.16-6.912 0-3.008.656-5.253 1.968-6.736 1.312-1.493 3.11-2.24 5.392-2.24 2.24 0 3.963.747 5.168 2.24 1.206 1.493 1.808 3.765 1.808 6.816v.96h-10.96c.064 1.963.55 3.344 1.456 4.144.907.8 2.326 1.2 4.256 1.2.662 0 1.355-.053 2.08-.16a22.433 22.433 0 0 0 2.272-.496v2.624c-.864.235-1.685.405-2.464.512-.778.107-1.552.16-2.32.16Zm-1.328-15.712c-1.205 0-2.16.416-2.864 1.248-.693.821-1.061 2.277-1.104 4.368h7.808c-.032-2.08-.378-3.536-1.04-4.368-.661-.832-1.594-1.248-2.8-1.248ZM175.087 68V50.592h2.784l.24 1.904h.192c1.419-1.45 3.2-2.176 5.344-2.176 1.11 0 2.091.208 2.944.624.864.416 1.542 1.093 2.032 2.032.491.928.736 2.17.736 3.728V68h-3.344V56.88c0-1.355-.293-2.299-.88-2.832-.586-.533-1.386-.8-2.4-.8-.714 0-1.472.16-2.272.48-.789.31-1.466.832-2.032 1.568V68h-3.344Zm27.186.304c-1.877 0-3.333-.475-4.368-1.424-1.024-.95-1.536-2.47-1.536-4.56v-9.024h-3.136v-2.704h3.136l.576-6.272h2.768v6.272h5.184v2.704h-5.184v8.48c0 1.387.272 2.352.816 2.896.555.544 1.403.816 2.544.816.576 0 1.253-.085 2.032-.256v2.752c-.939.213-1.883.32-2.832.32Z"/>
  <path stroke="#40BFEF" stroke-width="4" d="m33.48 28 .736-6.992h-2.928v-2.64h3.2l.464-4.416h-3.664v-2.64h3.936l.72-6.992h2.671l-.736 6.992h3.6l.736-6.992h2.656l-.72 6.992h2.928v2.64h-3.2l-.463 4.416h3.664v2.64h-3.936L42.408 28H39.75l.72-6.992h-3.6L36.151 28H33.48Zm3.664-9.632h3.6l.464-4.416h-3.6l-.464 4.416ZM52.544 28V10.592h3.344V28h-3.344Zm1.68-20.8c-1.472 0-2.208-.64-2.208-1.92 0-.608.186-1.083.56-1.424.373-.352.922-.528 1.648-.528.725 0 1.274.176 1.648.528.373.341.56.816.56 1.424 0 1.28-.736 1.92-2.209 1.92Zm13.858 21.104c-1.269 0-2.431-.288-3.487-.864-1.046-.576-1.883-1.493-2.512-2.752-.63-1.27-.944-2.95-.944-5.04 0-3.104.762-5.435 2.287-6.992 1.537-1.557 3.776-2.336 6.72-2.336.448 0 .897.021 1.344.064.449.032.86.075 1.233.128V2.144h3.344V28h-2.832l-.209-1.872h-.191c-.512.65-1.174 1.179-1.984 1.584-.811.395-1.734.592-2.769.592Zm.865-2.8c.703 0 1.391-.15 2.063-.448.672-.299 1.243-.768 1.712-1.408V13.232a8.59 8.59 0 0 0-1.231-.192c-.47-.053-.928-.08-1.376-.08-1.846 0-3.238.501-4.176 1.504-.94.992-1.408 2.63-1.408 4.912 0 1.579.186 2.816.56 3.712.373.885.89 1.51 1.552 1.872.671.363 1.44.544 2.303.544Zm24.373 2.72c-.683 0-1.237-.192-1.664-.576-.416-.395-.624-.928-.624-1.6s.203-1.205.608-1.6c.416-.395.976-.592 1.68-.592s1.259.203 1.664.608c.416.405.624.933.624 1.584 0 .661-.208 1.19-.624 1.584-.416.395-.97.592-1.664.592Zm14.528.096c-2.614 0-4.624-.72-6.032-2.16-1.398-1.45-2.096-3.733-2.096-6.848 0-3.136.757-5.419 2.272-6.848 1.514-1.43 3.669-2.144 6.464-2.144.629 0 1.253.037 1.872.112.629.075 1.226.181 1.792.32v2.752a13.699 13.699 0 0 0-3.264-.416c-1.931 0-3.36.47-4.288 1.408-.928.928-1.392 2.517-1.392 4.768 0 2.293.437 3.915 1.312 4.864.874.939 2.16 1.408 3.856 1.408.544 0 1.12-.048 1.728-.144a16.87 16.87 0 0 0 2.048-.512v2.736a12.96 12.96 0 0 1-4.272.704Zm8.945-.32V2.144h3.344V28h-3.344Zm13.908.288c-1.685 0-3.008-.432-3.968-1.296-.949-.864-1.424-2.043-1.424-3.536 0-1.547.518-2.757 1.552-3.632 1.046-.875 2.726-1.413 5.04-1.616l3.632-.368v-1.104c0-1.461-.352-2.453-1.056-2.976-.704-.533-1.797-.8-3.28-.8-.661 0-1.408.059-2.24.176a14.27 14.27 0 0 0-2.464.576v-2.624a14.562 14.562 0 0 1 2.576-.576 19.606 19.606 0 0 1 2.64-.192c1.59 0 2.907.208 3.952.624 1.056.405 1.84 1.088 2.352 2.048.523.96.784 2.272.784 3.936V28h-2.768l-.24-1.872h-.192a5.175 5.175 0 0 1-2.128 1.616 7 7 0 0 1-2.768.544Zm-2.048-5.136c0 1.792.998 2.688 2.992 2.688.683 0 1.36-.139 2.032-.416.683-.277 1.302-.741 1.856-1.392V19.92l-3.344.336c-1.258.128-2.165.432-2.72.912-.544.48-.816 1.141-.816 1.984Zm20.538 5.168c-1.856 0-3.541-.24-5.056-.72v-2.576c1.654.49 3.334.736 5.041.736 1.397 0 2.4-.224 3.008-.672.618-.448.927-1.077.927-1.888 0-.683-.181-1.2-.543-1.552-.352-.363-.95-.635-1.793-.816l-2.495-.496c-1.611-.32-2.769-.88-3.473-1.68-.693-.8-1.039-1.845-1.039-3.136 0-1.525.597-2.773 1.792-3.744 1.194-.97 3.034-1.456 5.519-1.456.768 0 1.51.048 2.224.144.726.085 1.409.213 2.049.384v2.576a16.14 16.14 0 0 0-4.192-.544c-1.601 0-2.704.25-3.312.752-.608.49-.912 1.093-.912 1.808 0 .597.165 1.088.496 1.472.341.373.933.656 1.776.848l2.496.48c1.589.33 2.746.875 3.472 1.632.736.757 1.104 1.819 1.104 3.184 0 1.632-.608 2.917-1.824 3.856-1.206.939-2.961 1.408-5.265 1.408Zm16.413 0c-1.856 0-3.541-.24-5.056-.72v-2.576a17.62 17.62 0 0 0 5.04.736c1.397 0 2.4-.224 3.008-.672.619-.448.928-1.077.928-1.888 0-.683-.181-1.2-.544-1.552-.352-.363-.949-.635-1.792-.816l-2.496-.496c-1.611-.32-2.768-.88-3.472-1.68-.693-.8-1.04-1.845-1.04-3.136 0-1.525.597-2.773 1.792-3.744 1.195-.97 3.035-1.456 5.52-1.456a16.7 16.7 0 0 1 2.224.144 14.54 14.54 0 0 1 2.048.384v2.576a16.14 16.14 0 0 0-4.192-.544c-1.6 0-2.704.25-3.312.752-.608.49-.912 1.093-.912 1.808 0 .597.165 1.088.496 1.472.341.373.933.656 1.776.848l2.496.48c1.589.33 2.747.875 3.472 1.632.736.757 1.104 1.819 1.104 3.184 0 1.632-.608 2.917-1.824 3.856-1.205.939-2.96 1.408-5.264 1.408ZM2.385 75.04V42.144h8.529v2.704H5.73v27.488h5.12v2.704H2.386Zm16.285-6.752c-1.685 0-3.008-.432-3.968-1.296-.95-.864-1.424-2.043-1.424-3.536 0-1.547.517-2.757 1.552-3.632 1.045-.875 2.725-1.413 5.04-1.616l3.632-.368v-1.104c0-1.461-.352-2.453-1.056-2.976-.704-.533-1.797-.8-3.28-.8-.661 0-1.408.059-2.24.176a14.27 14.27 0 0 0-2.464.576v-2.624a14.542 14.542 0 0 1 2.576-.576 19.599 19.599 0 0 1 2.64-.192c1.59 0 2.907.208 3.952.624 1.056.405 1.84 1.088 2.352 2.048.523.96.784 2.272.784 3.936V68h-2.768l-.24-1.872h-.192a5.18 5.18 0 0 1-2.128 1.616 7.002 7.002 0 0 1-2.768.544Zm-2.048-5.136c0 1.792.997 2.688 2.992 2.688.683 0 1.36-.139 2.032-.416.683-.277 1.301-.741 1.856-1.392V59.92l-3.344.336c-1.259.128-2.165.432-2.72.912-.544.48-.816 1.141-.816 1.984Zm23.082 5.152c-1.877 0-3.333-.475-4.368-1.424-1.024-.95-1.536-2.47-1.536-4.56v-9.024h-3.136v-2.704H33.8l.576-6.272h2.768v6.272h5.184v2.704h-5.184v8.48c0 1.387.272 2.352.816 2.896.555.544 1.403.816 2.544.816.576 0 1.254-.085 2.032-.256v2.752c-.938.213-1.882.32-2.832.32Zm13.038 0c-1.878 0-3.334-.475-4.368-1.424-1.024-.95-1.536-2.47-1.536-4.56v-9.024h-3.136v-2.704h3.136l.576-6.272h2.768v6.272h5.184v2.704h-5.184v8.48c0 1.387.272 2.352.816 2.896.554.544 1.402.816 2.544.816.576 0 1.253-.085 2.032-.256v2.752c-.939.213-1.883.32-2.832.32ZM59.787 68V50.592h2.768l.272 2.304h.176a5.364 5.364 0 0 1 2.16-1.872 6.402 6.402 0 0 1 2.784-.624c.48 0 .944.043 1.392.128v3.056a6.295 6.295 0 0 0-.784-.08 9.455 9.455 0 0 0-.784-.032c-.821 0-1.67.187-2.544.56a4.692 4.692 0 0 0-2.096 1.664V68h-3.344Zm10.848 7.04v-2.704h5.136V44.848h-5.184v-2.704H79.1V75.04h-8.464Zm16.829-6.816c-.683 0-1.238-.192-1.664-.576-.416-.395-.624-.928-.624-1.6s.202-1.205.608-1.6c.416-.395.976-.592 1.68-.592s1.258.203 1.664.608c.416.405.624.933.624 1.584 0 .661-.208 1.19-.624 1.584-.416.395-.97.592-1.664.592Zm0-13.488c-.683 0-1.238-.192-1.664-.576-.416-.395-.624-.928-.624-1.6s.202-1.205.608-1.6c.416-.395.976-.592 1.68-.592s1.258.203 1.664.608c.416.405.624.933.624 1.584 0 .661-.208 1.19-.624 1.584-.416.395-.97.592-1.664.592Zm9.443 13.488c-.682 0-1.237-.192-1.663-.576-.416-.395-.624-.928-.624-1.6s.202-1.205.608-1.6c.416-.395.976-.592 1.68-.592s1.258.203 1.663.608c.416.405.624.933.624 1.584 0 .661-.207 1.19-.623 1.584-.416.395-.971.592-1.665.592Zm0-13.488c-.682 0-1.237-.192-1.663-.576-.416-.395-.624-.928-.624-1.6s.202-1.205.608-1.6c.416-.395.976-.592 1.68-.592s1.258.203 1.663.608c.416.405.624.933.624 1.584 0 .661-.207 1.19-.623 1.584-.416.395-.971.592-1.665.592Zm7.78 20.304V50.592h2.832l.224 1.904h.176c.512-.65 1.174-1.173 1.984-1.568.811-.405 1.734-.608 2.768-.608 1.259 0 2.411.283 3.456.848 1.056.565 1.899 1.483 2.528 2.752.64 1.259.96 2.944.96 5.056 0 3.104-.768 5.435-2.304 6.992-1.525 1.557-3.76 2.336-6.704 2.336-.448 0-.896-.021-1.344-.064a17.709 17.709 0 0 1-1.232-.128v6.928h-3.344Zm5.952-9.376c1.846 0 3.238-.496 4.176-1.488.939-.992 1.408-2.635 1.408-4.928 0-1.59-.192-2.827-.576-3.712-.373-.896-.896-1.52-1.568-1.872-.661-.363-1.418-.544-2.272-.544-.704 0-1.392.15-2.064.448-.672.299-1.242.768-1.712 1.408v10.416c.352.085.763.155 1.232.208.47.043.928.064 1.376.064Zm18.675 2.624c-1.686 0-3.008-.432-3.968-1.296-.95-.864-1.424-2.043-1.424-3.536 0-1.547.517-2.757 1.552-3.632 1.045-.875 2.725-1.413 5.04-1.616l3.632-.368v-1.104c0-1.461-.352-2.453-1.056-2.976-.704-.533-1.798-.8-3.28-.8-.662 0-1.408.059-2.24.176-.832.117-1.654.31-2.464.576v-2.624a14.522 14.522 0 0 1 2.576-.576 19.583 19.583 0 0 1 2.64-.192c1.589 0 2.906.208 3.952.624 1.056.405 1.84 1.088 2.352 2.048.522.96.784 2.272.784 3.936V68h-2.768l-.24-1.872h-.192a5.181 5.181 0 0 1-2.128 1.616 7.004 7.004 0 0 1-2.768.544Zm-2.048-5.136c0 1.792.997 2.688 2.992 2.688a5.29 5.29 0 0 0 2.032-.416c.682-.277 1.301-.741 1.856-1.392V59.92l-3.344.336c-1.259.128-2.166.432-2.72.912-.544.48-.816 1.141-.816 1.984ZM143.356 68V50.592h2.768l.272 2.304h.176a5.36 5.36 0 0 1 2.16-1.872 6.404 6.404 0 0 1 2.784-.624c.48 0 .944.043 1.392.128v3.056a6.288 6.288 0 0 0-.784-.08 9.447 9.447 0 0 0-.784-.032c-.821 0-1.669.187-2.544.56a4.691 4.691 0 0 0-2.096 1.664V68h-3.344Zm21.032.32c-2.89 0-5.056-.704-6.496-2.112-1.44-1.419-2.16-3.723-2.16-6.912 0-3.008.656-5.253 1.968-6.736 1.312-1.493 3.11-2.24 5.392-2.24 2.24 0 3.963.747 5.168 2.24 1.206 1.493 1.808 3.765 1.808 6.816v.96h-10.96c.064 1.963.55 3.344 1.456 4.144.907.8 2.326 1.2 4.256 1.2.662 0 1.355-.053 2.08-.16a22.433 22.433 0 0 0 2.272-.496v2.624c-.864.235-1.685.405-2.464.512-.778.107-1.552.16-2.32.16Zm-1.328-15.712c-1.205 0-2.16.416-2.864 1.248-.693.821-1.061 2.277-1.104 4.368h7.808c-.032-2.08-.378-3.536-1.04-4.368-.661-.832-1.594-1.248-2.8-1.248ZM175.087 68V50.592h2.784l.24 1.904h.192c1.419-1.45 3.2-2.176 5.344-2.176 1.11 0 2.091.208 2.944.624.864.416 1.542 1.093 2.032 2.032.491.928.736 2.17.736 3.728V68h-3.344V56.88c0-1.355-.293-2.299-.88-2.832-.586-.533-1.386-.8-2.4-.8-.714 0-1.472.16-2.272.48-.789.31-1.466.832-2.032 1.568V68h-3.344Zm27.186.304c-1.877 0-3.333-.475-4.368-1.424-1.024-.95-1.536-2.47-1.536-4.56v-9.024h-3.136v-2.704h3.136l.576-6.272h2.768v6.272h5.184v2.704h-5.184v8.48c0 1.387.272 2.352.816 2.896.555.544 1.403.816 2.544.816.576 0 1.253-.085 2.032-.256v2.752c-.939.213-1.883.32-2.832.32Z" mask="url(#path-1-outside-1_42:132)"/>
</svg>
