<svg xmlns="http://www.w3.org/2000/svg" width="235" height="78" fill="none">
  <mask id="path-1-outside-1_42:131" width="234" height="78" x=".993" y=".144" fill="#000" maskUnits="userSpaceOnUse">
    <path fill="#fff" d="M.993.144h234v78h-234z"/>
    <path d="M17.921 35.36c-4.82 0-8.517-1.253-11.088-3.76-2.56-2.496-3.84-6.47-3.84-11.92 0-3.616.56-6.576 1.68-8.88 1.131-2.315 2.758-4.021 4.88-5.12 2.134-1.099 4.71-1.648 7.728-1.648 4.555 0 8.038 1.21 10.448 3.632 2.411 2.41 3.616 6.096 3.616 11.056 0 2.325-.272 4.192-.816 5.6-.533 1.397-1.269 2.41-2.208 3.04-.928.619-1.984.928-3.168.928-1.056 0-1.93-.203-2.624-.608a3.696 3.696 0 0 1-1.52-1.728h-.224c-.49.79-1.178 1.376-2.064 1.76a7.08 7.08 0 0 1-2.848.576c-1.674 0-2.992-.427-3.952-1.28-.96-.864-1.44-2.048-1.44-3.552 0-1.547.518-2.752 1.552-3.616 1.035-.864 2.688-1.397 4.96-1.6l3.712-.4V16.8c0-1.44-.346-2.416-1.04-2.928-.693-.523-1.754-.784-3.184-.784-.672 0-1.418.07-2.24.208-.82.128-1.632.33-2.432.608l.016-2.624c.758-.267 1.595-.47 2.512-.608.928-.15 1.808-.224 2.64-.224 2.336 0 4.086.475 5.248 1.424 1.174.939 1.76 2.624 1.76 5.056v6.72c0 .832.15 1.43.448 1.792.31.363.768.544 1.376.544.555 0 1.062-.213 1.52-.64.47-.427.843-1.152 1.12-2.176.278-1.035.416-2.47.416-4.304 0-4.448-.965-7.643-2.896-9.584-1.93-1.952-4.826-2.928-8.688-2.928-2.549 0-4.688.443-6.416 1.328-1.728.885-3.029 2.304-3.904 4.256-.874 1.952-1.312 4.523-1.312 7.712 0 3.232.448 5.83 1.344 7.792.896 1.963 2.251 3.387 4.064 4.272 1.814.885 4.102 1.328 6.864 1.328 1.131 0 2.235-.075 3.312-.224a28.05 28.05 0 0 0 3.312-.672v2.336c-1.024.277-2.096.49-3.216.64a23.84 23.84 0 0 1-3.408.24Zm-4.096-12.24c0 .896.262 1.568.784 2.016.523.448 1.264.672 2.224.672.651 0 1.328-.139 2.032-.416.704-.277 1.318-.741 1.84-1.392v-4.128l-3.44.368c-1.194.128-2.069.427-2.624.896-.544.459-.816 1.12-.816 1.984Zm27.995-.64v-5.328h-5.055v-2.624h5.056V9.2h2.768v5.328h5.056v2.624h-5.056v5.328H41.82ZM55.71 28V2.144h3.343V28H55.71Zm15.059 7.36c-.843 0-1.739-.064-2.688-.192a15.594 15.594 0 0 1-2.656-.56v-2.72c.917.277 1.803.48 2.656.608.864.139 1.685.208 2.464.208 1.824 0 3.163-.379 4.016-1.136.864-.757 1.296-2.053 1.296-3.888v-1.52h-.176c-.523.608-1.184 1.099-1.984 1.472-.79.373-1.701.56-2.736.56a6.685 6.685 0 0 1-3.312-.848c-1.013-.576-1.83-1.488-2.448-2.736-.619-1.259-.928-2.912-.928-4.96 0-6.219 3.05-9.328 9.152-9.328.97 0 1.968.075 2.992.224a17.33 17.33 0 0 1 2.784.624V27.12c0 2.933-.704 5.04-2.112 6.32-1.397 1.28-3.504 1.92-6.32 1.92Zm1.312-9.968c.693 0 1.376-.139 2.048-.416a4.211 4.211 0 0 0 1.728-1.296v-10.4a8.262 8.262 0 0 0-1.248-.224 10.78 10.78 0 0 0-1.456-.096c-1.781 0-3.141.496-4.08 1.488-.939.992-1.408 2.624-1.408 4.896 0 1.579.187 2.805.56 3.68.384.875.907 1.488 1.568 1.84.661.352 1.424.528 2.288.528Zm13.362 7.792c.363-.917.656-1.776.88-2.576.235-.8.38-1.6.432-2.4-.618-.043-1.12-.256-1.504-.64-.373-.395-.56-.907-.56-1.536 0-.672.203-1.2.608-1.584.406-.395.95-.592 1.632-.592 1.558 0 2.336.955 2.336 2.864 0 1.163-.176 2.304-.528 3.424a13.628 13.628 0 0 1-1.36 3.04h-1.936ZM104.234 28V10.592h2.784l.24 1.904h.192c1.419-1.45 3.2-2.176 5.344-2.176 1.109 0 2.091.208 2.944.624.864.416 1.541 1.093 2.032 2.032.491.928.736 2.17.736 3.728V28h-3.344V16.88c0-1.355-.293-2.299-.88-2.832-.587-.533-1.387-.8-2.4-.8-.715 0-1.472.16-2.272.48-.789.31-1.467.832-2.032 1.568V28h-3.344Zm27.058.32c-2.357 0-4.24-.72-5.648-2.16-1.397-1.45-2.096-3.728-2.096-6.832 0-3.115.693-5.392 2.08-6.832 1.387-1.45 3.275-2.176 5.664-2.176s4.277.725 5.664 2.176c1.387 1.44 2.08 3.712 2.08 6.816 0 3.093-.704 5.37-2.112 6.832-1.397 1.45-3.275 2.176-5.632 2.176Zm0-2.64c.896 0 1.669-.192 2.32-.576.651-.395 1.152-1.05 1.504-1.968.352-.928.528-2.192.528-3.792 0-1.621-.176-2.896-.528-3.824-.352-.928-.853-1.584-1.504-1.968-.651-.395-1.424-.592-2.32-.592-.896 0-1.669.197-2.32.592-.651.384-1.152 1.035-1.504 1.952-.352.917-.528 2.176-.528 3.776 0 1.621.176 2.896.528 3.824.352.928.853 1.59 1.504 1.984.651.395 1.424.592 2.32.592Zm19.509 2.624c-1.877 0-3.333-.475-4.368-1.424-1.024-.95-1.536-2.47-1.536-4.56v-9.024h-3.136v-2.704h3.136l.576-6.272h2.768v6.272h5.184v2.704h-5.184v8.48c0 1.387.272 2.352.816 2.896.555.544 1.403.816 2.544.816.576 0 1.253-.085 2.032-.256v2.752c-.939.213-1.883.32-2.832.32Zm30.777 7.056c-4.822 0-8.518-1.253-11.088-3.76-2.56-2.496-3.84-6.47-3.84-11.92 0-3.616.56-6.576 1.68-8.88 1.13-2.315 2.757-4.021 4.88-5.12 2.133-1.099 4.709-1.648 7.728-1.648 4.554 0 8.037 1.21 10.448 3.632 2.41 2.41 3.616 6.096 3.616 11.056 0 2.325-.272 4.192-.816 5.6-.534 1.397-1.27 2.41-2.208 3.04-.928.619-1.984.928-3.168.928-1.056 0-1.931-.203-2.624-.608a3.69 3.69 0 0 1-1.52-1.728h-.224c-.491.79-1.179 1.376-2.064 1.76a7.083 7.083 0 0 1-2.848.576c-1.675 0-2.992-.427-3.952-1.28-.96-.864-1.44-2.048-1.44-3.552 0-1.547.517-2.752 1.552-3.616 1.034-.864 2.688-1.397 4.96-1.6l3.712-.4V16.8c0-1.44-.347-2.416-1.04-2.928-.694-.523-1.755-.784-3.184-.784-.672 0-1.419.07-2.24.208-.822.128-1.632.33-2.432.608l.016-2.624c.757-.267 1.594-.47 2.512-.608.928-.15 1.808-.224 2.64-.224 2.336 0 4.085.475 5.248 1.424 1.173.939 1.76 2.624 1.76 5.056v6.72c0 .832.149 1.43.448 1.792.309.363.768.544 1.376.544.554 0 1.061-.213 1.52-.64.469-.427.842-1.152 1.12-2.176.277-1.035.416-2.47.416-4.304 0-4.448-.966-7.643-2.896-9.584-1.931-1.952-4.827-2.928-8.688-2.928-2.55 0-4.688.443-6.416 1.328-1.728.885-3.03 2.304-3.904 4.256-.875 1.952-1.312 4.523-1.312 7.712 0 3.232.448 5.83 1.344 7.792.896 1.963 2.25 3.387 4.064 4.272 1.813.885 4.101 1.328 6.864 1.328 1.13 0 2.234-.075 3.312-.224a28.075 28.075 0 0 0 3.312-.672v2.336c-1.024.277-2.096.49-3.216.64-1.11.16-2.246.24-3.408.24Zm-4.096-12.24c0 .896.261 1.568.784 2.016.522.448 1.264.672 2.224.672.65 0 1.328-.139 2.032-.416.704-.277 1.317-.741 1.84-1.392v-4.128l-3.44.368c-1.195.128-2.07.427-2.624.896-.544.459-.816 1.12-.816 1.984ZM200.453 28V10.592h3.344V28h-3.344Zm1.68-20.8c-1.472 0-2.208-.64-2.208-1.92 0-.608.187-1.083.56-1.424.373-.352.923-.528 1.648-.528.725 0 1.275.176 1.648.528.373.341.56.816.56 1.424 0 1.28-.736 1.92-2.208 1.92Zm15.571 21.12c-2.891 0-5.056-.704-6.496-2.112-1.44-1.419-2.16-3.723-2.16-6.912 0-3.008.656-5.253 1.968-6.736 1.312-1.493 3.109-2.24 5.392-2.24 2.24 0 3.963.747 5.168 2.24 1.205 1.493 1.808 3.765 1.808 6.816v.96h-10.96c.064 1.963.549 3.344 1.456 4.144.907.8 2.325 1.2 4.256 1.2.661 0 1.355-.053 2.08-.16a22.493 22.493 0 0 0 2.272-.496v2.624c-.864.235-1.685.405-2.464.512-.779.107-1.552.16-2.32.16Zm-1.328-15.712c-1.205 0-2.16.416-2.864 1.248-.693.821-1.061 2.277-1.104 4.368h7.808c-.032-2.08-.379-3.536-1.04-4.368-.661-.832-1.595-1.248-2.8-1.248Zm12.155 20.576c.363-.917.656-1.776.88-2.576.235-.8.379-1.6.432-2.4-.619-.043-1.12-.256-1.504-.64-.373-.395-.56-.907-.56-1.536 0-.672.203-1.2.608-1.584.405-.395.949-.592 1.632-.592 1.557 0 2.336.955 2.336 2.864 0 1.163-.176 2.304-.528 3.424a13.614 13.614 0 0 1-1.36 3.04h-1.936ZM24.118 75.36c-4.821 0-8.517-1.253-11.088-3.76-2.56-2.496-3.84-6.47-3.84-11.92 0-3.616.56-6.576 1.68-8.88 1.13-2.315 2.758-4.021 4.88-5.12 2.134-1.099 4.71-1.648 7.728-1.648 4.555 0 8.038 1.21 10.448 3.632 2.41 2.41 3.616 6.096 3.616 11.056 0 2.325-.272 4.192-.816 5.6-.533 1.397-1.27 2.41-2.208 3.04-.928.619-1.984.928-3.168.928-1.056 0-1.93-.203-2.624-.608a3.696 3.696 0 0 1-1.52-1.728h-.224c-.49.79-1.178 1.376-2.064 1.76a7.08 7.08 0 0 1-2.848.576c-1.674 0-2.992-.427-3.952-1.28-.96-.864-1.44-2.048-1.44-3.552 0-1.547.518-2.752 1.552-3.616 1.035-.864 2.688-1.397 4.96-1.6l3.712-.4V56.8c0-1.44-.346-2.416-1.04-2.928-.693-.523-1.754-.784-3.184-.784-.672 0-1.418.07-2.24.208a13.99 13.99 0 0 0-2.432.608l.016-2.624a13.75 13.75 0 0 1 2.512-.608c.928-.15 1.808-.224 2.64-.224 2.336 0 4.086.475 5.248 1.424 1.174.939 1.76 2.624 1.76 5.056v6.72c0 .832.15 1.43.448 1.792.31.363.768.544 1.376.544.555 0 1.062-.213 1.52-.64.47-.427.843-1.152 1.12-2.176.278-1.035.416-2.47.416-4.304 0-4.448-.965-7.643-2.896-9.584-1.93-1.952-4.826-2.928-8.688-2.928-2.55 0-4.688.443-6.416 1.328-1.728.885-3.03 2.304-3.904 4.256-.874 1.952-1.312 4.523-1.312 7.712 0 3.232.448 5.83 1.344 7.792.896 1.963 2.25 3.387 4.064 4.272 1.814.885 4.102 1.328 6.864 1.328 1.13 0 2.235-.075 3.312-.224a28.05 28.05 0 0 0 3.312-.672v2.336c-1.024.277-2.096.49-3.216.64-1.11.16-2.245.24-3.408.24Zm-4.096-12.24c0 .896.262 1.568.784 2.016.523.448 1.264.672 2.224.672.65 0 1.328-.139 2.032-.416.704-.277 1.318-.741 1.84-1.392v-4.128l-3.44.368c-1.194.128-2.07.427-2.624.896-.544.459-.816 1.12-.816 1.984ZM42.993 68V50.592h2.785l.24 1.92h.191c1.302-1.461 2.96-2.192 4.976-2.192.96 0 1.82.192 2.576.576.768.373 1.371.987 1.808 1.84.8-.875 1.664-1.493 2.592-1.856.94-.373 1.851-.56 2.736-.56 1.046 0 1.974.208 2.785.624.81.416 1.45 1.093 1.92 2.032.469.928.703 2.17.703 3.728V68h-3.328V56.864c0-1.365-.282-2.31-.847-2.832-.555-.523-1.265-.784-2.129-.784-.607 0-1.253.144-1.935.432-.683.277-1.28.768-1.793 1.472.054.448.08.933.08 1.456V68h-3.28V56.864c0-1.365-.266-2.31-.8-2.832-.533-.523-1.232-.784-2.096-.784-.66 0-1.343.165-2.047.496-.705.33-1.302.87-1.793 1.616V68h-3.344Zm36.121.32c-2.358 0-4.24-.72-5.648-2.16-1.398-1.45-2.096-3.728-2.096-6.832 0-3.115.693-5.392 2.08-6.832 1.386-1.45 3.274-2.176 5.664-2.176 2.39 0 4.277.725 5.664 2.176 1.386 1.44 2.08 3.712 2.08 6.816 0 3.093-.704 5.37-2.112 6.832-1.398 1.45-3.275 2.176-5.632 2.176Zm0-2.64c.896 0 1.67-.192 2.32-.576.65-.395 1.152-1.05 1.504-1.968.352-.928.528-2.192.528-3.792 0-1.621-.176-2.896-.528-3.824-.352-.928-.854-1.584-1.504-1.968-.65-.395-1.424-.592-2.32-.592-.896 0-1.67.197-2.32.592-.65.384-1.152 1.035-1.504 1.952-.352.917-.528 2.176-.528 3.776 0 1.621.176 2.896.528 3.824.352.928.853 1.59 1.504 1.984.65.395 1.424.592 2.32.592Zm18.668 2.624c-.97 0-1.957-.07-2.96-.208a17.034 17.034 0 0 1-2.816-.624V42.144h3.344v10.208h.176a5.854 5.854 0 0 1 1.968-1.472c.8-.373 1.717-.56 2.752-.56 1.216 0 2.331.288 3.344.864 1.013.576 1.824 1.499 2.432 2.768.608 1.259.912 2.928.912 5.008 0 6.24-3.051 9.355-9.152 9.344Zm.272-2.624c1.803 0 3.168-.496 4.096-1.488.928-1.003 1.392-2.65 1.392-4.944 0-1.59-.192-2.827-.576-3.712-.373-.885-.896-1.504-1.568-1.856-.661-.363-1.419-.544-2.272-.544a5.37 5.37 0 0 0-2.064.416 4.234 4.234 0 0 0-1.712 1.296v10.48c.352.096.763.181 1.232.256.48.064.97.096 1.472.096ZM112.075 68V50.592h3.344V68h-3.344Zm1.68-20.8c-1.472 0-2.208-.64-2.208-1.92 0-.608.186-1.083.56-1.424.373-.352.922-.528 1.648-.528.725 0 1.274.176 1.648.528.373.341.56.816.56 1.424 0 1.28-.736 1.92-2.208 1.92ZM121.55 68V42.144h3.344V68h-3.344Zm17.22.32c-2.891 0-5.056-.704-6.496-2.112-1.44-1.419-2.16-3.723-2.16-6.912 0-3.008.656-5.253 1.968-6.736 1.312-1.493 3.109-2.24 5.392-2.24 2.24 0 3.962.747 5.168 2.24 1.205 1.493 1.808 3.765 1.808 6.816v.96h-10.96c.064 1.963.549 3.344 1.456 4.144.906.8 2.325 1.2 4.256 1.2.661 0 1.354-.053 2.08-.16a22.552 22.552 0 0 0 2.272-.496v2.624c-.864.235-1.686.405-2.464.512-.779.107-1.552.16-2.32.16Zm-1.328-15.712c-1.206 0-2.16.416-2.864 1.248-.694.821-1.062 2.277-1.104 4.368h7.808c-.032-2.08-.379-3.536-1.04-4.368-.662-.832-1.595-1.248-2.8-1.248Zm12.155 20.576c.362-.917.656-1.776.88-2.576.234-.8.378-1.6.432-2.4-.619-.043-1.12-.256-1.504-.64-.374-.395-.56-.907-.56-1.536 0-.672.202-1.2.608-1.584.405-.395.949-.592 1.632-.592 1.557 0 2.336.955 2.336 2.864 0 1.163-.176 2.304-.528 3.424a13.66 13.66 0 0 1-1.36 3.04h-1.936Zm33.046 2.176c-4.821 0-8.517-1.253-11.088-3.76-2.56-2.496-3.84-6.47-3.84-11.92 0-3.616.56-6.576 1.68-8.88 1.131-2.315 2.758-4.021 4.88-5.12 2.134-1.099 4.71-1.648 7.728-1.648 4.555 0 8.038 1.21 10.448 3.632 2.411 2.41 3.616 6.096 3.616 11.056 0 2.325-.272 4.192-.816 5.6-.533 1.397-1.269 2.41-2.208 3.04-.928.619-1.984.928-3.168.928-1.056 0-1.93-.203-2.624-.608a3.702 3.702 0 0 1-1.52-1.728h-.224c-.49.79-1.178 1.376-2.064 1.76a7.076 7.076 0 0 1-2.848.576c-1.674 0-2.992-.427-3.952-1.28-.96-.864-1.44-2.048-1.44-3.552 0-1.547.518-2.752 1.552-3.616 1.035-.864 2.688-1.397 4.96-1.6l3.712-.4V56.8c0-1.44-.346-2.416-1.04-2.928-.693-.523-1.754-.784-3.184-.784-.672 0-1.418.07-2.24.208-.821.128-1.632.33-2.432.608l.016-2.624c.758-.267 1.595-.47 2.512-.608.928-.15 1.808-.224 2.64-.224 2.336 0 4.086.475 5.248 1.424 1.174.939 1.76 2.624 1.76 5.056v6.72c0 .832.15 1.43.448 1.792.31.363.768.544 1.376.544.555 0 1.062-.213 1.52-.64.47-.427.843-1.152 1.12-2.176.278-1.035.416-2.47.416-4.304 0-4.448-.965-7.643-2.896-9.584-1.93-1.952-4.826-2.928-8.688-2.928-2.549 0-4.688.443-6.416 1.328-1.728.885-3.029 2.304-3.904 4.256-.874 1.952-1.312 4.523-1.312 7.712 0 3.232.448 5.83 1.344 7.792.896 1.963 2.251 3.387 4.064 4.272 1.814.885 4.102 1.328 6.864 1.328 1.131 0 2.235-.075 3.312-.224a27.993 27.993 0 0 0 3.312-.672v2.336c-1.024.277-2.096.49-3.216.64a23.84 23.84 0 0 1-3.408.24Zm-4.096-12.24c0 .896.262 1.568.784 2.016.523.448 1.264.672 2.224.672.651 0 1.328-.139 2.032-.416.704-.277 1.318-.741 1.84-1.392v-4.128l-3.44.368c-1.194.128-2.069.427-2.624.896-.544.459-.816 1.12-.816 1.984ZM199.032 68l6.24-8.768-6.128-8.64h3.744l4.4 6.224 4.4-6.224h3.632l-6.112 8.592L215.496 68h-3.744l-4.528-6.416L202.68 68h-3.648Zm24.27 0V48.4l-5.696 4.032v-3.264l6.928-4.928h2.176V68h-3.408Z"/>
  </mask>
  <path fill="#fff" d="M17.921 35.36c-4.82 0-8.517-1.253-11.088-3.76-2.56-2.496-3.84-6.47-3.84-11.92 0-3.616.56-6.576 1.68-8.88 1.131-2.315 2.758-4.021 4.88-5.12 2.134-1.099 4.71-1.648 7.728-1.648 4.555 0 8.038 1.21 10.448 3.632 2.411 2.41 3.616 6.096 3.616 11.056 0 2.325-.272 4.192-.816 5.6-.533 1.397-1.269 2.41-2.208 3.04-.928.619-1.984.928-3.168.928-1.056 0-1.93-.203-2.624-.608a3.696 3.696 0 0 1-1.52-1.728h-.224c-.49.79-1.178 1.376-2.064 1.76a7.08 7.08 0 0 1-2.848.576c-1.674 0-2.992-.427-3.952-1.28-.96-.864-1.44-2.048-1.44-3.552 0-1.547.518-2.752 1.552-3.616 1.035-.864 2.688-1.397 4.96-1.6l3.712-.4V16.8c0-1.44-.346-2.416-1.04-2.928-.693-.523-1.754-.784-3.184-.784-.672 0-1.418.07-2.24.208-.82.128-1.632.33-2.432.608l.016-2.624c.758-.267 1.595-.47 2.512-.608.928-.15 1.808-.224 2.64-.224 2.336 0 4.086.475 5.248 1.424 1.174.939 1.76 2.624 1.76 5.056v6.72c0 .832.15 1.43.448 1.792.31.363.768.544 1.376.544.555 0 1.062-.213 1.52-.64.47-.427.843-1.152 1.12-2.176.278-1.035.416-2.47.416-4.304 0-4.448-.965-7.643-2.896-9.584-1.93-1.952-4.826-2.928-8.688-2.928-2.549 0-4.688.443-6.416 1.328-1.728.885-3.029 2.304-3.904 4.256-.874 1.952-1.312 4.523-1.312 7.712 0 3.232.448 5.83 1.344 7.792.896 1.963 2.251 3.387 4.064 4.272 1.814.885 4.102 1.328 6.864 1.328 1.131 0 2.235-.075 3.312-.224a28.05 28.05 0 0 0 3.312-.672v2.336c-1.024.277-2.096.49-3.216.64a23.84 23.84 0 0 1-3.408.24Zm-4.096-12.24c0 .896.262 1.568.784 2.016.523.448 1.264.672 2.224.672.651 0 1.328-.139 2.032-.416.704-.277 1.318-.741 1.84-1.392v-4.128l-3.44.368c-1.194.128-2.069.427-2.624.896-.544.459-.816 1.12-.816 1.984Zm27.995-.64v-5.328h-5.055v-2.624h5.056V9.2h2.768v5.328h5.056v2.624h-5.056v5.328H41.82ZM55.71 28V2.144h3.343V28H55.71Zm15.059 7.36c-.843 0-1.739-.064-2.688-.192a15.594 15.594 0 0 1-2.656-.56v-2.72c.917.277 1.803.48 2.656.608.864.139 1.685.208 2.464.208 1.824 0 3.163-.379 4.016-1.136.864-.757 1.296-2.053 1.296-3.888v-1.52h-.176c-.523.608-1.184 1.099-1.984 1.472-.79.373-1.701.56-2.736.56a6.685 6.685 0 0 1-3.312-.848c-1.013-.576-1.83-1.488-2.448-2.736-.619-1.259-.928-2.912-.928-4.96 0-6.219 3.05-9.328 9.152-9.328.97 0 1.968.075 2.992.224a17.33 17.33 0 0 1 2.784.624V27.12c0 2.933-.704 5.04-2.112 6.32-1.397 1.28-3.504 1.92-6.32 1.92Zm1.312-9.968c.693 0 1.376-.139 2.048-.416a4.211 4.211 0 0 0 1.728-1.296v-10.4a8.262 8.262 0 0 0-1.248-.224 10.78 10.78 0 0 0-1.456-.096c-1.781 0-3.141.496-4.08 1.488-.939.992-1.408 2.624-1.408 4.896 0 1.579.187 2.805.56 3.68.384.875.907 1.488 1.568 1.84.661.352 1.424.528 2.288.528Zm13.362 7.792c.363-.917.656-1.776.88-2.576.235-.8.38-1.6.432-2.4-.618-.043-1.12-.256-1.504-.64-.373-.395-.56-.907-.56-1.536 0-.672.203-1.2.608-1.584.406-.395.95-.592 1.632-.592 1.558 0 2.336.955 2.336 2.864 0 1.163-.176 2.304-.528 3.424a13.628 13.628 0 0 1-1.36 3.04h-1.936ZM104.234 28V10.592h2.784l.24 1.904h.192c1.419-1.45 3.2-2.176 5.344-2.176 1.109 0 2.091.208 2.944.624.864.416 1.541 1.093 2.032 2.032.491.928.736 2.17.736 3.728V28h-3.344V16.88c0-1.355-.293-2.299-.88-2.832-.587-.533-1.387-.8-2.4-.8-.715 0-1.472.16-2.272.48-.789.31-1.467.832-2.032 1.568V28h-3.344Zm27.058.32c-2.357 0-4.24-.72-5.648-2.16-1.397-1.45-2.096-3.728-2.096-6.832 0-3.115.693-5.392 2.08-6.832 1.387-1.45 3.275-2.176 5.664-2.176s4.277.725 5.664 2.176c1.387 1.44 2.08 3.712 2.08 6.816 0 3.093-.704 5.37-2.112 6.832-1.397 1.45-3.275 2.176-5.632 2.176Zm0-2.64c.896 0 1.669-.192 2.32-.576.651-.395 1.152-1.05 1.504-1.968.352-.928.528-2.192.528-3.792 0-1.621-.176-2.896-.528-3.824-.352-.928-.853-1.584-1.504-1.968-.651-.395-1.424-.592-2.32-.592-.896 0-1.669.197-2.32.592-.651.384-1.152 1.035-1.504 1.952-.352.917-.528 2.176-.528 3.776 0 1.621.176 2.896.528 3.824.352.928.853 1.59 1.504 1.984.651.395 1.424.592 2.32.592Zm19.509 2.624c-1.877 0-3.333-.475-4.368-1.424-1.024-.95-1.536-2.47-1.536-4.56v-9.024h-3.136v-2.704h3.136l.576-6.272h2.768v6.272h5.184v2.704h-5.184v8.48c0 1.387.272 2.352.816 2.896.555.544 1.403.816 2.544.816.576 0 1.253-.085 2.032-.256v2.752c-.939.213-1.883.32-2.832.32Zm30.777 7.056c-4.822 0-8.518-1.253-11.088-3.76-2.56-2.496-3.84-6.47-3.84-11.92 0-3.616.56-6.576 1.68-8.88 1.13-2.315 2.757-4.021 4.88-5.12 2.133-1.099 4.709-1.648 7.728-1.648 4.554 0 8.037 1.21 10.448 3.632 2.41 2.41 3.616 6.096 3.616 11.056 0 2.325-.272 4.192-.816 5.6-.534 1.397-1.27 2.41-2.208 3.04-.928.619-1.984.928-3.168.928-1.056 0-1.931-.203-2.624-.608a3.69 3.69 0 0 1-1.52-1.728h-.224c-.491.79-1.179 1.376-2.064 1.76a7.083 7.083 0 0 1-2.848.576c-1.675 0-2.992-.427-3.952-1.28-.96-.864-1.44-2.048-1.44-3.552 0-1.547.517-2.752 1.552-3.616 1.034-.864 2.688-1.397 4.96-1.6l3.712-.4V16.8c0-1.44-.347-2.416-1.04-2.928-.694-.523-1.755-.784-3.184-.784-.672 0-1.419.07-2.24.208-.822.128-1.632.33-2.432.608l.016-2.624c.757-.267 1.594-.47 2.512-.608.928-.15 1.808-.224 2.64-.224 2.336 0 4.085.475 5.248 1.424 1.173.939 1.76 2.624 1.76 5.056v6.72c0 .832.149 1.43.448 1.792.309.363.768.544 1.376.544.554 0 1.061-.213 1.52-.64.469-.427.842-1.152 1.12-2.176.277-1.035.416-2.47.416-4.304 0-4.448-.966-7.643-2.896-9.584-1.931-1.952-4.827-2.928-8.688-2.928-2.55 0-4.688.443-6.416 1.328-1.728.885-3.03 2.304-3.904 4.256-.875 1.952-1.312 4.523-1.312 7.712 0 3.232.448 5.83 1.344 7.792.896 1.963 2.25 3.387 4.064 4.272 1.813.885 4.101 1.328 6.864 1.328 1.13 0 2.234-.075 3.312-.224a28.075 28.075 0 0 0 3.312-.672v2.336c-1.024.277-2.096.49-3.216.64-1.11.16-2.246.24-3.408.24Zm-4.096-12.24c0 .896.261 1.568.784 2.016.522.448 1.264.672 2.224.672.65 0 1.328-.139 2.032-.416.704-.277 1.317-.741 1.84-1.392v-4.128l-3.44.368c-1.195.128-2.07.427-2.624.896-.544.459-.816 1.12-.816 1.984ZM200.453 28V10.592h3.344V28h-3.344Zm1.68-20.8c-1.472 0-2.208-.64-2.208-1.92 0-.608.187-1.083.56-1.424.373-.352.923-.528 1.648-.528.725 0 1.275.176 1.648.528.373.341.56.816.56 1.424 0 1.28-.736 1.92-2.208 1.92Zm15.571 21.12c-2.891 0-5.056-.704-6.496-2.112-1.44-1.419-2.16-3.723-2.16-6.912 0-3.008.656-5.253 1.968-6.736 1.312-1.493 3.109-2.24 5.392-2.24 2.24 0 3.963.747 5.168 2.24 1.205 1.493 1.808 3.765 1.808 6.816v.96h-10.96c.064 1.963.549 3.344 1.456 4.144.907.8 2.325 1.2 4.256 1.2.661 0 1.355-.053 2.08-.16a22.493 22.493 0 0 0 2.272-.496v2.624c-.864.235-1.685.405-2.464.512-.779.107-1.552.16-2.32.16Zm-1.328-15.712c-1.205 0-2.16.416-2.864 1.248-.693.821-1.061 2.277-1.104 4.368h7.808c-.032-2.08-.379-3.536-1.04-4.368-.661-.832-1.595-1.248-2.8-1.248Zm12.155 20.576c.363-.917.656-1.776.88-2.576.235-.8.379-1.6.432-2.4-.619-.043-1.12-.256-1.504-.64-.373-.395-.56-.907-.56-1.536 0-.672.203-1.2.608-1.584.405-.395.949-.592 1.632-.592 1.557 0 2.336.955 2.336 2.864 0 1.163-.176 2.304-.528 3.424a13.614 13.614 0 0 1-1.36 3.04h-1.936ZM24.118 75.36c-4.821 0-8.517-1.253-11.088-3.76-2.56-2.496-3.84-6.47-3.84-11.92 0-3.616.56-6.576 1.68-8.88 1.13-2.315 2.758-4.021 4.88-5.12 2.134-1.099 4.71-1.648 7.728-1.648 4.555 0 8.038 1.21 10.448 3.632 2.41 2.41 3.616 6.096 3.616 11.056 0 2.325-.272 4.192-.816 5.6-.533 1.397-1.27 2.41-2.208 3.04-.928.619-1.984.928-3.168.928-1.056 0-1.93-.203-2.624-.608a3.696 3.696 0 0 1-1.52-1.728h-.224c-.49.79-1.178 1.376-2.064 1.76a7.08 7.08 0 0 1-2.848.576c-1.674 0-2.992-.427-3.952-1.28-.96-.864-1.44-2.048-1.44-3.552 0-1.547.518-2.752 1.552-3.616 1.035-.864 2.688-1.397 4.96-1.6l3.712-.4V56.8c0-1.44-.346-2.416-1.04-2.928-.693-.523-1.754-.784-3.184-.784-.672 0-1.418.07-2.24.208a13.99 13.99 0 0 0-2.432.608l.016-2.624a13.75 13.75 0 0 1 2.512-.608c.928-.15 1.808-.224 2.64-.224 2.336 0 4.086.475 5.248 1.424 1.174.939 1.76 2.624 1.76 5.056v6.72c0 .832.15 1.43.448 1.792.31.363.768.544 1.376.544.555 0 1.062-.213 1.52-.64.47-.427.843-1.152 1.12-2.176.278-1.035.416-2.47.416-4.304 0-4.448-.965-7.643-2.896-9.584-1.93-1.952-4.826-2.928-8.688-2.928-2.55 0-4.688.443-6.416 1.328-1.728.885-3.03 2.304-3.904 4.256-.874 1.952-1.312 4.523-1.312 7.712 0 3.232.448 5.83 1.344 7.792.896 1.963 2.25 3.387 4.064 4.272 1.814.885 4.102 1.328 6.864 1.328 1.13 0 2.235-.075 3.312-.224a28.05 28.05 0 0 0 3.312-.672v2.336c-1.024.277-2.096.49-3.216.64-1.11.16-2.245.24-3.408.24Zm-4.096-12.24c0 .896.262 1.568.784 2.016.523.448 1.264.672 2.224.672.65 0 1.328-.139 2.032-.416.704-.277 1.318-.741 1.84-1.392v-4.128l-3.44.368c-1.194.128-2.07.427-2.624.896-.544.459-.816 1.12-.816 1.984ZM42.993 68V50.592h2.785l.24 1.92h.191c1.302-1.461 2.96-2.192 4.976-2.192.96 0 1.82.192 2.576.576.768.373 1.371.987 1.808 1.84.8-.875 1.664-1.493 2.592-1.856.94-.373 1.851-.56 2.736-.56 1.046 0 1.974.208 2.785.624.81.416 1.45 1.093 1.92 2.032.469.928.703 2.17.703 3.728V68h-3.328V56.864c0-1.365-.282-2.31-.847-2.832-.555-.523-1.265-.784-2.129-.784-.607 0-1.253.144-1.935.432-.683.277-1.28.768-1.793 1.472.054.448.08.933.08 1.456V68h-3.28V56.864c0-1.365-.266-2.31-.8-2.832-.533-.523-1.232-.784-2.096-.784-.66 0-1.343.165-2.047.496-.705.33-1.302.87-1.793 1.616V68h-3.344Zm36.121.32c-2.358 0-4.24-.72-5.648-2.16-1.398-1.45-2.096-3.728-2.096-6.832 0-3.115.693-5.392 2.08-6.832 1.386-1.45 3.274-2.176 5.664-2.176 2.39 0 4.277.725 5.664 2.176 1.386 1.44 2.08 3.712 2.08 6.816 0 3.093-.704 5.37-2.112 6.832-1.398 1.45-3.275 2.176-5.632 2.176Zm0-2.64c.896 0 1.67-.192 2.32-.576.65-.395 1.152-1.05 1.504-1.968.352-.928.528-2.192.528-3.792 0-1.621-.176-2.896-.528-3.824-.352-.928-.854-1.584-1.504-1.968-.65-.395-1.424-.592-2.32-.592-.896 0-1.67.197-2.32.592-.65.384-1.152 1.035-1.504 1.952-.352.917-.528 2.176-.528 3.776 0 1.621.176 2.896.528 3.824.352.928.853 1.59 1.504 1.984.65.395 1.424.592 2.32.592Zm18.668 2.624c-.97 0-1.957-.07-2.96-.208a17.034 17.034 0 0 1-2.816-.624V42.144h3.344v10.208h.176a5.854 5.854 0 0 1 1.968-1.472c.8-.373 1.717-.56 2.752-.56 1.216 0 2.331.288 3.344.864 1.013.576 1.824 1.499 2.432 2.768.608 1.259.912 2.928.912 5.008 0 6.24-3.051 9.355-9.152 9.344Zm.272-2.624c1.803 0 3.168-.496 4.096-1.488.928-1.003 1.392-2.65 1.392-4.944 0-1.59-.192-2.827-.576-3.712-.373-.885-.896-1.504-1.568-1.856-.661-.363-1.419-.544-2.272-.544a5.37 5.37 0 0 0-2.064.416 4.234 4.234 0 0 0-1.712 1.296v10.48c.352.096.763.181 1.232.256.48.064.97.096 1.472.096ZM112.075 68V50.592h3.344V68h-3.344Zm1.68-20.8c-1.472 0-2.208-.64-2.208-1.92 0-.608.186-1.083.56-1.424.373-.352.922-.528 1.648-.528.725 0 1.274.176 1.648.528.373.341.56.816.56 1.424 0 1.28-.736 1.92-2.208 1.92ZM121.55 68V42.144h3.344V68h-3.344Zm17.22.32c-2.891 0-5.056-.704-6.496-2.112-1.44-1.419-2.16-3.723-2.16-6.912 0-3.008.656-5.253 1.968-6.736 1.312-1.493 3.109-2.24 5.392-2.24 2.24 0 3.962.747 5.168 2.24 1.205 1.493 1.808 3.765 1.808 6.816v.96h-10.96c.064 1.963.549 3.344 1.456 4.144.906.8 2.325 1.2 4.256 1.2.661 0 1.354-.053 2.08-.16a22.552 22.552 0 0 0 2.272-.496v2.624c-.864.235-1.686.405-2.464.512-.779.107-1.552.16-2.32.16Zm-1.328-15.712c-1.206 0-2.16.416-2.864 1.248-.694.821-1.062 2.277-1.104 4.368h7.808c-.032-2.08-.379-3.536-1.04-4.368-.662-.832-1.595-1.248-2.8-1.248Zm12.155 20.576c.362-.917.656-1.776.88-2.576.234-.8.378-1.6.432-2.4-.619-.043-1.12-.256-1.504-.64-.374-.395-.56-.907-.56-1.536 0-.672.202-1.2.608-1.584.405-.395.949-.592 1.632-.592 1.557 0 2.336.955 2.336 2.864 0 1.163-.176 2.304-.528 3.424a13.66 13.66 0 0 1-1.36 3.04h-1.936Zm33.046 2.176c-4.821 0-8.517-1.253-11.088-3.76-2.56-2.496-3.84-6.47-3.84-11.92 0-3.616.56-6.576 1.68-8.88 1.131-2.315 2.758-4.021 4.88-5.12 2.134-1.099 4.71-1.648 7.728-1.648 4.555 0 8.038 1.21 10.448 3.632 2.411 2.41 3.616 6.096 3.616 11.056 0 2.325-.272 4.192-.816 5.6-.533 1.397-1.269 2.41-2.208 3.04-.928.619-1.984.928-3.168.928-1.056 0-1.93-.203-2.624-.608a3.702 3.702 0 0 1-1.52-1.728h-.224c-.49.79-1.178 1.376-2.064 1.76a7.076 7.076 0 0 1-2.848.576c-1.674 0-2.992-.427-3.952-1.28-.96-.864-1.44-2.048-1.44-3.552 0-1.547.518-2.752 1.552-3.616 1.035-.864 2.688-1.397 4.96-1.6l3.712-.4V56.8c0-1.44-.346-2.416-1.04-2.928-.693-.523-1.754-.784-3.184-.784-.672 0-1.418.07-2.24.208-.821.128-1.632.33-2.432.608l.016-2.624c.758-.267 1.595-.47 2.512-.608.928-.15 1.808-.224 2.64-.224 2.336 0 4.086.475 5.248 1.424 1.174.939 1.76 2.624 1.76 5.056v6.72c0 .832.15 1.43.448 1.792.31.363.768.544 1.376.544.555 0 1.062-.213 1.52-.64.47-.427.843-1.152 1.12-2.176.278-1.035.416-2.47.416-4.304 0-4.448-.965-7.643-2.896-9.584-1.93-1.952-4.826-2.928-8.688-2.928-2.549 0-4.688.443-6.416 1.328-1.728.885-3.029 2.304-3.904 4.256-.874 1.952-1.312 4.523-1.312 7.712 0 3.232.448 5.83 1.344 7.792.896 1.963 2.251 3.387 4.064 4.272 1.814.885 4.102 1.328 6.864 1.328 1.131 0 2.235-.075 3.312-.224a27.993 27.993 0 0 0 3.312-.672v2.336c-1.024.277-2.096.49-3.216.64a23.84 23.84 0 0 1-3.408.24Zm-4.096-12.24c0 .896.262 1.568.784 2.016.523.448 1.264.672 2.224.672.651 0 1.328-.139 2.032-.416.704-.277 1.318-.741 1.84-1.392v-4.128l-3.44.368c-1.194.128-2.069.427-2.624.896-.544.459-.816 1.12-.816 1.984ZM199.032 68l6.24-8.768-6.128-8.64h3.744l4.4 6.224 4.4-6.224h3.632l-6.112 8.592L215.496 68h-3.744l-4.528-6.416L202.68 68h-3.648Zm24.27 0V48.4l-5.696 4.032v-3.264l6.928-4.928h2.176V68h-3.408Z"/>
  <path stroke="#40BFEF" stroke-width="4" d="M17.921 35.36c-4.82 0-8.517-1.253-11.088-3.76-2.56-2.496-3.84-6.47-3.84-11.92 0-3.616.56-6.576 1.68-8.88 1.131-2.315 2.758-4.021 4.88-5.12 2.134-1.099 4.71-1.648 7.728-1.648 4.555 0 8.038 1.21 10.448 3.632 2.411 2.41 3.616 6.096 3.616 11.056 0 2.325-.272 4.192-.816 5.6-.533 1.397-1.269 2.41-2.208 3.04-.928.619-1.984.928-3.168.928-1.056 0-1.93-.203-2.624-.608a3.696 3.696 0 0 1-1.52-1.728h-.224c-.49.79-1.178 1.376-2.064 1.76a7.08 7.08 0 0 1-2.848.576c-1.674 0-2.992-.427-3.952-1.28-.96-.864-1.44-2.048-1.44-3.552 0-1.547.518-2.752 1.552-3.616 1.035-.864 2.688-1.397 4.96-1.6l3.712-.4V16.8c0-1.44-.346-2.416-1.04-2.928-.693-.523-1.754-.784-3.184-.784-.672 0-1.418.07-2.24.208-.82.128-1.632.33-2.432.608l.016-2.624c.758-.267 1.595-.47 2.512-.608.928-.15 1.808-.224 2.64-.224 2.336 0 4.086.475 5.248 1.424 1.174.939 1.76 2.624 1.76 5.056v6.72c0 .832.15 1.43.448 1.792.31.363.768.544 1.376.544.555 0 1.062-.213 1.52-.64.47-.427.843-1.152 1.12-2.176.278-1.035.416-2.47.416-4.304 0-4.448-.965-7.643-2.896-9.584-1.93-1.952-4.826-2.928-8.688-2.928-2.549 0-4.688.443-6.416 1.328-1.728.885-3.029 2.304-3.904 4.256-.874 1.952-1.312 4.523-1.312 7.712 0 3.232.448 5.83 1.344 7.792.896 1.963 2.251 3.387 4.064 4.272 1.814.885 4.102 1.328 6.864 1.328 1.131 0 2.235-.075 3.312-.224a28.05 28.05 0 0 0 3.312-.672v2.336c-1.024.277-2.096.49-3.216.64a23.84 23.84 0 0 1-3.408.24Zm-4.096-12.24c0 .896.262 1.568.784 2.016.523.448 1.264.672 2.224.672.651 0 1.328-.139 2.032-.416.704-.277 1.318-.741 1.84-1.392v-4.128l-3.44.368c-1.194.128-2.069.427-2.624.896-.544.459-.816 1.12-.816 1.984Zm27.995-.64v-5.328h-5.055v-2.624h5.056V9.2h2.768v5.328h5.056v2.624h-5.056v5.328H41.82ZM55.71 28V2.144h3.343V28H55.71Zm15.059 7.36c-.843 0-1.739-.064-2.688-.192a15.594 15.594 0 0 1-2.656-.56v-2.72c.917.277 1.803.48 2.656.608.864.139 1.685.208 2.464.208 1.824 0 3.163-.379 4.016-1.136.864-.757 1.296-2.053 1.296-3.888v-1.52h-.176c-.523.608-1.184 1.099-1.984 1.472-.79.373-1.701.56-2.736.56a6.685 6.685 0 0 1-3.312-.848c-1.013-.576-1.83-1.488-2.448-2.736-.619-1.259-.928-2.912-.928-4.96 0-6.219 3.05-9.328 9.152-9.328.97 0 1.968.075 2.992.224a17.33 17.33 0 0 1 2.784.624V27.12c0 2.933-.704 5.04-2.112 6.32-1.397 1.28-3.504 1.92-6.32 1.92Zm1.312-9.968c.693 0 1.376-.139 2.048-.416a4.211 4.211 0 0 0 1.728-1.296v-10.4a8.262 8.262 0 0 0-1.248-.224 10.78 10.78 0 0 0-1.456-.096c-1.781 0-3.141.496-4.08 1.488-.939.992-1.408 2.624-1.408 4.896 0 1.579.187 2.805.56 3.68.384.875.907 1.488 1.568 1.84.661.352 1.424.528 2.288.528Zm13.362 7.792c.363-.917.656-1.776.88-2.576.235-.8.38-1.6.432-2.4-.618-.043-1.12-.256-1.504-.64-.373-.395-.56-.907-.56-1.536 0-.672.203-1.2.608-1.584.406-.395.95-.592 1.632-.592 1.558 0 2.336.955 2.336 2.864 0 1.163-.176 2.304-.528 3.424a13.628 13.628 0 0 1-1.36 3.04h-1.936ZM104.234 28V10.592h2.784l.24 1.904h.192c1.419-1.45 3.2-2.176 5.344-2.176 1.109 0 2.091.208 2.944.624.864.416 1.541 1.093 2.032 2.032.491.928.736 2.17.736 3.728V28h-3.344V16.88c0-1.355-.293-2.299-.88-2.832-.587-.533-1.387-.8-2.4-.8-.715 0-1.472.16-2.272.48-.789.31-1.467.832-2.032 1.568V28h-3.344Zm27.058.32c-2.357 0-4.24-.72-5.648-2.16-1.397-1.45-2.096-3.728-2.096-6.832 0-3.115.693-5.392 2.08-6.832 1.387-1.45 3.275-2.176 5.664-2.176s4.277.725 5.664 2.176c1.387 1.44 2.08 3.712 2.08 6.816 0 3.093-.704 5.37-2.112 6.832-1.397 1.45-3.275 2.176-5.632 2.176Zm0-2.64c.896 0 1.669-.192 2.32-.576.651-.395 1.152-1.05 1.504-1.968.352-.928.528-2.192.528-3.792 0-1.621-.176-2.896-.528-3.824-.352-.928-.853-1.584-1.504-1.968-.651-.395-1.424-.592-2.32-.592-.896 0-1.669.197-2.32.592-.651.384-1.152 1.035-1.504 1.952-.352.917-.528 2.176-.528 3.776 0 1.621.176 2.896.528 3.824.352.928.853 1.59 1.504 1.984.651.395 1.424.592 2.32.592Zm19.509 2.624c-1.877 0-3.333-.475-4.368-1.424-1.024-.95-1.536-2.47-1.536-4.56v-9.024h-3.136v-2.704h3.136l.576-6.272h2.768v6.272h5.184v2.704h-5.184v8.48c0 1.387.272 2.352.816 2.896.555.544 1.403.816 2.544.816.576 0 1.253-.085 2.032-.256v2.752c-.939.213-1.883.32-2.832.32Zm30.777 7.056c-4.822 0-8.518-1.253-11.088-3.76-2.56-2.496-3.84-6.47-3.84-11.92 0-3.616.56-6.576 1.68-8.88 1.13-2.315 2.757-4.021 4.88-5.12 2.133-1.099 4.709-1.648 7.728-1.648 4.554 0 8.037 1.21 10.448 3.632 2.41 2.41 3.616 6.096 3.616 11.056 0 2.325-.272 4.192-.816 5.6-.534 1.397-1.27 2.41-2.208 3.04-.928.619-1.984.928-3.168.928-1.056 0-1.931-.203-2.624-.608a3.69 3.69 0 0 1-1.52-1.728h-.224c-.491.79-1.179 1.376-2.064 1.76a7.083 7.083 0 0 1-2.848.576c-1.675 0-2.992-.427-3.952-1.28-.96-.864-1.44-2.048-1.44-3.552 0-1.547.517-2.752 1.552-3.616 1.034-.864 2.688-1.397 4.96-1.6l3.712-.4V16.8c0-1.44-.347-2.416-1.04-2.928-.694-.523-1.755-.784-3.184-.784-.672 0-1.419.07-2.24.208-.822.128-1.632.33-2.432.608l.016-2.624c.757-.267 1.594-.47 2.512-.608.928-.15 1.808-.224 2.64-.224 2.336 0 4.085.475 5.248 1.424 1.173.939 1.76 2.624 1.76 5.056v6.72c0 .832.149 1.43.448 1.792.309.363.768.544 1.376.544.554 0 1.061-.213 1.52-.64.469-.427.842-1.152 1.12-2.176.277-1.035.416-2.47.416-4.304 0-4.448-.966-7.643-2.896-9.584-1.931-1.952-4.827-2.928-8.688-2.928-2.55 0-4.688.443-6.416 1.328-1.728.885-3.03 2.304-3.904 4.256-.875 1.952-1.312 4.523-1.312 7.712 0 3.232.448 5.83 1.344 7.792.896 1.963 2.25 3.387 4.064 4.272 1.813.885 4.101 1.328 6.864 1.328 1.13 0 2.234-.075 3.312-.224a28.075 28.075 0 0 0 3.312-.672v2.336c-1.024.277-2.096.49-3.216.64-1.11.16-2.246.24-3.408.24Zm-4.096-12.24c0 .896.261 1.568.784 2.016.522.448 1.264.672 2.224.672.65 0 1.328-.139 2.032-.416.704-.277 1.317-.741 1.84-1.392v-4.128l-3.44.368c-1.195.128-2.07.427-2.624.896-.544.459-.816 1.12-.816 1.984ZM200.453 28V10.592h3.344V28h-3.344Zm1.68-20.8c-1.472 0-2.208-.64-2.208-1.92 0-.608.187-1.083.56-1.424.373-.352.923-.528 1.648-.528.725 0 1.275.176 1.648.528.373.341.56.816.56 1.424 0 1.28-.736 1.92-2.208 1.92Zm15.571 21.12c-2.891 0-5.056-.704-6.496-2.112-1.44-1.419-2.16-3.723-2.16-6.912 0-3.008.656-5.253 1.968-6.736 1.312-1.493 3.109-2.24 5.392-2.24 2.24 0 3.963.747 5.168 2.24 1.205 1.493 1.808 3.765 1.808 6.816v.96h-10.96c.064 1.963.549 3.344 1.456 4.144.907.8 2.325 1.2 4.256 1.2.661 0 1.355-.053 2.08-.16a22.493 22.493 0 0 0 2.272-.496v2.624c-.864.235-1.685.405-2.464.512-.779.107-1.552.16-2.32.16Zm-1.328-15.712c-1.205 0-2.16.416-2.864 1.248-.693.821-1.061 2.277-1.104 4.368h7.808c-.032-2.08-.379-3.536-1.04-4.368-.661-.832-1.595-1.248-2.8-1.248Zm12.155 20.576c.363-.917.656-1.776.88-2.576.235-.8.379-1.6.432-2.4-.619-.043-1.12-.256-1.504-.64-.373-.395-.56-.907-.56-1.536 0-.672.203-1.2.608-1.584.405-.395.949-.592 1.632-.592 1.557 0 2.336.955 2.336 2.864 0 1.163-.176 2.304-.528 3.424a13.614 13.614 0 0 1-1.36 3.04h-1.936ZM24.118 75.36c-4.821 0-8.517-1.253-11.088-3.76-2.56-2.496-3.84-6.47-3.84-11.92 0-3.616.56-6.576 1.68-8.88 1.13-2.315 2.758-4.021 4.88-5.12 2.134-1.099 4.71-1.648 7.728-1.648 4.555 0 8.038 1.21 10.448 3.632 2.41 2.41 3.616 6.096 3.616 11.056 0 2.325-.272 4.192-.816 5.6-.533 1.397-1.27 2.41-2.208 3.04-.928.619-1.984.928-3.168.928-1.056 0-1.93-.203-2.624-.608a3.696 3.696 0 0 1-1.52-1.728h-.224c-.49.79-1.178 1.376-2.064 1.76a7.08 7.08 0 0 1-2.848.576c-1.674 0-2.992-.427-3.952-1.28-.96-.864-1.44-2.048-1.44-3.552 0-1.547.518-2.752 1.552-3.616 1.035-.864 2.688-1.397 4.96-1.6l3.712-.4V56.8c0-1.44-.346-2.416-1.04-2.928-.693-.523-1.754-.784-3.184-.784-.672 0-1.418.07-2.24.208a13.99 13.99 0 0 0-2.432.608l.016-2.624a13.75 13.75 0 0 1 2.512-.608c.928-.15 1.808-.224 2.64-.224 2.336 0 4.086.475 5.248 1.424 1.174.939 1.76 2.624 1.76 5.056v6.72c0 .832.15 1.43.448 1.792.31.363.768.544 1.376.544.555 0 1.062-.213 1.52-.64.47-.427.843-1.152 1.12-2.176.278-1.035.416-2.47.416-4.304 0-4.448-.965-7.643-2.896-9.584-1.93-1.952-4.826-2.928-8.688-2.928-2.55 0-4.688.443-6.416 1.328-1.728.885-3.03 2.304-3.904 4.256-.874 1.952-1.312 4.523-1.312 7.712 0 3.232.448 5.83 1.344 7.792.896 1.963 2.25 3.387 4.064 4.272 1.814.885 4.102 1.328 6.864 1.328 1.13 0 2.235-.075 3.312-.224a28.05 28.05 0 0 0 3.312-.672v2.336c-1.024.277-2.096.49-3.216.64-1.11.16-2.245.24-3.408.24Zm-4.096-12.24c0 .896.262 1.568.784 2.016.523.448 1.264.672 2.224.672.65 0 1.328-.139 2.032-.416.704-.277 1.318-.741 1.84-1.392v-4.128l-3.44.368c-1.194.128-2.07.427-2.624.896-.544.459-.816 1.12-.816 1.984ZM42.993 68V50.592h2.785l.24 1.92h.191c1.302-1.461 2.96-2.192 4.976-2.192.96 0 1.82.192 2.576.576.768.373 1.371.987 1.808 1.84.8-.875 1.664-1.493 2.592-1.856.94-.373 1.851-.56 2.736-.56 1.046 0 1.974.208 2.785.624.81.416 1.45 1.093 1.92 2.032.469.928.703 2.17.703 3.728V68h-3.328V56.864c0-1.365-.282-2.31-.847-2.832-.555-.523-1.265-.784-2.129-.784-.607 0-1.253.144-1.935.432-.683.277-1.28.768-1.793 1.472.054.448.08.933.08 1.456V68h-3.28V56.864c0-1.365-.266-2.31-.8-2.832-.533-.523-1.232-.784-2.096-.784-.66 0-1.343.165-2.047.496-.705.33-1.302.87-1.793 1.616V68h-3.344Zm36.121.32c-2.358 0-4.24-.72-5.648-2.16-1.398-1.45-2.096-3.728-2.096-6.832 0-3.115.693-5.392 2.08-6.832 1.386-1.45 3.274-2.176 5.664-2.176 2.39 0 4.277.725 5.664 2.176 1.386 1.44 2.08 3.712 2.08 6.816 0 3.093-.704 5.37-2.112 6.832-1.398 1.45-3.275 2.176-5.632 2.176Zm0-2.64c.896 0 1.67-.192 2.32-.576.65-.395 1.152-1.05 1.504-1.968.352-.928.528-2.192.528-3.792 0-1.621-.176-2.896-.528-3.824-.352-.928-.854-1.584-1.504-1.968-.65-.395-1.424-.592-2.32-.592-.896 0-1.67.197-2.32.592-.65.384-1.152 1.035-1.504 1.952-.352.917-.528 2.176-.528 3.776 0 1.621.176 2.896.528 3.824.352.928.853 1.59 1.504 1.984.65.395 1.424.592 2.32.592Zm18.668 2.624c-.97 0-1.957-.07-2.96-.208a17.034 17.034 0 0 1-2.816-.624V42.144h3.344v10.208h.176a5.854 5.854 0 0 1 1.968-1.472c.8-.373 1.717-.56 2.752-.56 1.216 0 2.331.288 3.344.864 1.013.576 1.824 1.499 2.432 2.768.608 1.259.912 2.928.912 5.008 0 6.24-3.051 9.355-9.152 9.344Zm.272-2.624c1.803 0 3.168-.496 4.096-1.488.928-1.003 1.392-2.65 1.392-4.944 0-1.59-.192-2.827-.576-3.712-.373-.885-.896-1.504-1.568-1.856-.661-.363-1.419-.544-2.272-.544a5.37 5.37 0 0 0-2.064.416 4.234 4.234 0 0 0-1.712 1.296v10.48c.352.096.763.181 1.232.256.48.064.97.096 1.472.096ZM112.075 68V50.592h3.344V68h-3.344Zm1.68-20.8c-1.472 0-2.208-.64-2.208-1.92 0-.608.186-1.083.56-1.424.373-.352.922-.528 1.648-.528.725 0 1.274.176 1.648.528.373.341.56.816.56 1.424 0 1.28-.736 1.92-2.208 1.92ZM121.55 68V42.144h3.344V68h-3.344Zm17.22.32c-2.891 0-5.056-.704-6.496-2.112-1.44-1.419-2.16-3.723-2.16-6.912 0-3.008.656-5.253 1.968-6.736 1.312-1.493 3.109-2.24 5.392-2.24 2.24 0 3.962.747 5.168 2.24 1.205 1.493 1.808 3.765 1.808 6.816v.96h-10.96c.064 1.963.549 3.344 1.456 4.144.906.8 2.325 1.2 4.256 1.2.661 0 1.354-.053 2.08-.16a22.552 22.552 0 0 0 2.272-.496v2.624c-.864.235-1.686.405-2.464.512-.779.107-1.552.16-2.32.16Zm-1.328-15.712c-1.206 0-2.16.416-2.864 1.248-.694.821-1.062 2.277-1.104 4.368h7.808c-.032-2.08-.379-3.536-1.04-4.368-.662-.832-1.595-1.248-2.8-1.248Zm12.155 20.576c.362-.917.656-1.776.88-2.576.234-.8.378-1.6.432-2.4-.619-.043-1.12-.256-1.504-.64-.374-.395-.56-.907-.56-1.536 0-.672.202-1.2.608-1.584.405-.395.949-.592 1.632-.592 1.557 0 2.336.955 2.336 2.864 0 1.163-.176 2.304-.528 3.424a13.66 13.66 0 0 1-1.36 3.04h-1.936Zm33.046 2.176c-4.821 0-8.517-1.253-11.088-3.76-2.56-2.496-3.84-6.47-3.84-11.92 0-3.616.56-6.576 1.68-8.88 1.131-2.315 2.758-4.021 4.88-5.12 2.134-1.099 4.71-1.648 7.728-1.648 4.555 0 8.038 1.21 10.448 3.632 2.411 2.41 3.616 6.096 3.616 11.056 0 2.325-.272 4.192-.816 5.6-.533 1.397-1.269 2.41-2.208 3.04-.928.619-1.984.928-3.168.928-1.056 0-1.93-.203-2.624-.608a3.702 3.702 0 0 1-1.52-1.728h-.224c-.49.79-1.178 1.376-2.064 1.76a7.076 7.076 0 0 1-2.848.576c-1.674 0-2.992-.427-3.952-1.28-.96-.864-1.44-2.048-1.44-3.552 0-1.547.518-2.752 1.552-3.616 1.035-.864 2.688-1.397 4.96-1.6l3.712-.4V56.8c0-1.44-.346-2.416-1.04-2.928-.693-.523-1.754-.784-3.184-.784-.672 0-1.418.07-2.24.208-.821.128-1.632.33-2.432.608l.016-2.624c.758-.267 1.595-.47 2.512-.608.928-.15 1.808-.224 2.64-.224 2.336 0 4.086.475 5.248 1.424 1.174.939 1.76 2.624 1.76 5.056v6.72c0 .832.15 1.43.448 1.792.31.363.768.544 1.376.544.555 0 1.062-.213 1.52-.64.47-.427.843-1.152 1.12-2.176.278-1.035.416-2.47.416-4.304 0-4.448-.965-7.643-2.896-9.584-1.93-1.952-4.826-2.928-8.688-2.928-2.549 0-4.688.443-6.416 1.328-1.728.885-3.029 2.304-3.904 4.256-.874 1.952-1.312 4.523-1.312 7.712 0 3.232.448 5.83 1.344 7.792.896 1.963 2.251 3.387 4.064 4.272 1.814.885 4.102 1.328 6.864 1.328 1.131 0 2.235-.075 3.312-.224a27.993 27.993 0 0 0 3.312-.672v2.336c-1.024.277-2.096.49-3.216.64a23.84 23.84 0 0 1-3.408.24Zm-4.096-12.24c0 .896.262 1.568.784 2.016.523.448 1.264.672 2.224.672.651 0 1.328-.139 2.032-.416.704-.277 1.318-.741 1.84-1.392v-4.128l-3.44.368c-1.194.128-2.069.427-2.624.896-.544.459-.816 1.12-.816 1.984ZM199.032 68l6.24-8.768-6.128-8.64h3.744l4.4 6.224 4.4-6.224h3.632l-6.112 8.592L215.496 68h-3.744l-4.528-6.416L202.68 68h-3.648Zm24.27 0V48.4l-5.696 4.032v-3.264l6.928-4.928h2.176V68h-3.408Z" mask="url(#path-1-outside-1_42:131)"/>
</svg>
