<svg xmlns="http://www.w3.org/2000/svg" width="172" height="78" fill="none">
  <mask id="path-1-outside-1_42:129" width="171" height="78" x=".568" y=".144" fill="#000" maskUnits="userSpaceOnUse">
    <path fill="#fff" d="M.568.144h171v78h-171z"/>
    <path d="m16.448 22.64-12.88-5.264v-3.072l12.88-5.264v2.72L6.24 15.824l10.208 4.096v2.72Zm13.84 5.68c-2.89 0-5.056-.704-6.496-2.112-1.44-1.419-2.16-3.723-2.16-6.912 0-3.008.656-5.253 1.968-6.736 1.312-1.493 3.11-2.24 5.392-2.24 2.24 0 3.963.747 5.168 2.24 1.206 1.493 1.808 3.765 1.808 6.816v.96h-10.96c.064 1.963.55 3.344 1.456 4.144.907.8 2.326 1.2 4.256 1.2.662 0 1.355-.053 2.08-.16a22.514 22.514 0 0 0 2.272-.496v2.624c-.864.235-1.685.405-2.464.512-.778.107-1.552.16-2.32.16ZM28.96 12.608c-1.205 0-2.16.416-2.864 1.248-.693.821-1.061 2.277-1.104 4.368H32.8c-.032-2.08-.378-3.536-1.04-4.368-.661-.832-1.594-1.248-2.8-1.248ZM45.435 28.32c-1.856 0-3.541-.24-5.056-.72v-2.576c1.654.49 3.334.736 5.04.736 1.398 0 2.4-.224 3.008-.672.619-.448.928-1.077.928-1.888 0-.683-.181-1.2-.544-1.552-.352-.363-.95-.635-1.792-.816l-2.496-.496c-1.61-.32-2.768-.88-3.472-1.68-.693-.8-1.04-1.845-1.04-3.136 0-1.525.598-2.773 1.792-3.744 1.195-.97 3.035-1.456 5.52-1.456.768 0 1.51.048 2.224.144a14.53 14.53 0 0 1 2.048.384v2.576a16.137 16.137 0 0 0-4.192-.544c-1.6 0-2.704.25-3.312.752-.608.49-.912 1.093-.912 1.808 0 .597.166 1.088.496 1.472.342.373.934.656 1.776.848l2.496.48c1.59.33 2.747.875 3.472 1.632.736.757 1.104 1.819 1.104 3.184 0 1.632-.608 2.917-1.824 3.856-1.205.939-2.96 1.408-5.264 1.408ZM57.4 28V2.144h3.344V28H57.4Zm9.411-7.632v-2.784h9.313v2.784H66.81Zm19.503 7.92c-1.686 0-3.008-.432-3.968-1.296-.95-.864-1.424-2.043-1.424-3.536 0-1.547.517-2.757 1.552-3.632 1.045-.875 2.725-1.413 5.04-1.616l3.632-.368v-1.104c0-1.461-.352-2.453-1.056-2.976-.704-.533-1.798-.8-3.28-.8-.662 0-1.408.059-2.24.176-.832.117-1.654.31-2.464.576v-2.624a14.54 14.54 0 0 1 2.576-.576 19.599 19.599 0 0 1 2.64-.192c1.59 0 2.906.208 3.952.624 1.056.405 1.84 1.088 2.352 2.048.522.96.784 2.272.784 3.936V28h-2.768l-.24-1.872h-.192a5.18 5.18 0 0 1-2.128 1.616 7.003 7.003 0 0 1-2.768.544Zm-2.048-5.136c0 1.792.997 2.688 2.992 2.688.682 0 1.36-.139 2.032-.416.682-.277 1.301-.741 1.856-1.392V19.92l-3.344.336c-1.259.128-2.166.432-2.72.912-.544.48-.816 1.141-.816 1.984ZM104.196 28V8.4L98.5 12.432V9.168l6.928-4.928h2.176V28h-3.408Zm13.787 0V8.4l-5.696 4.032V9.168l6.928-4.928h2.176V28h-3.408Zm16.94.304c-1.877 0-3.333-.475-4.368-1.424-1.024-.95-1.536-2.47-1.536-4.56v-9.024h-3.136v-2.704h3.136l.576-6.272h2.768v6.272h5.184v2.704h-5.184v8.48c0 1.387.272 2.352.816 2.896.555.544 1.403.816 2.544.816.576 0 1.253-.085 2.032-.256v2.752c-.939.213-1.883.32-2.832.32ZM145.414 28l-6.448-17.408h3.536l5.072 14.576 5.184-14.576h3.328L147.03 35.04h-3.296l2.624-7.04h-.944Zm14.372-7.632v-2.784h9.312v2.784h-9.312ZM38.981 75.36c-.842 0-1.738-.064-2.688-.192a15.594 15.594 0 0 1-2.656-.56v-2.72c.918.277 1.803.48 2.656.608.864.139 1.686.208 2.464.208 1.824 0 3.163-.379 4.016-1.136.864-.757 1.296-2.053 1.296-3.888v-1.52h-.176c-.522.608-1.184 1.099-1.984 1.472-.789.373-1.701.56-2.736.56a6.685 6.685 0 0 1-3.312-.848c-1.013-.576-1.829-1.488-2.448-2.736-.618-1.259-.928-2.912-.928-4.96 0-6.219 3.051-9.328 9.152-9.328.971 0 1.968.075 2.992.224a17.33 17.33 0 0 1 2.784.624V67.12c0 2.933-.704 5.04-2.112 6.32-1.397 1.28-3.504 1.92-6.32 1.92Zm1.312-9.968c.694 0 1.376-.139 2.048-.416a4.214 4.214 0 0 0 1.728-1.296v-10.4a8.262 8.262 0 0 0-1.248-.224 10.77 10.77 0 0 0-1.456-.096c-1.781 0-3.141.496-4.08 1.488-.938.992-1.408 2.624-1.408 4.896 0 1.579.187 2.805.56 3.68.384.875.907 1.488 1.568 1.84.662.352 1.424.528 2.288.528ZM53.528 68V50.592h2.768l.272 2.304h.176a5.364 5.364 0 0 1 2.16-1.872 6.401 6.401 0 0 1 2.784-.624c.48 0 .944.043 1.392.128v3.056a6.277 6.277 0 0 0-.784-.08 9.411 9.411 0 0 0-.784-.032c-.822 0-1.67.187-2.544.56a4.69 4.69 0 0 0-2.096 1.664V68h-3.344Zm20.12.32c-2.357 0-4.24-.72-5.648-2.16-1.397-1.45-2.096-3.728-2.096-6.832 0-3.115.694-5.392 2.08-6.832 1.387-1.45 3.275-2.176 5.664-2.176 2.39 0 4.278.725 5.664 2.176 1.387 1.44 2.08 3.712 2.08 6.816 0 3.093-.704 5.37-2.112 6.832-1.397 1.45-3.275 2.176-5.632 2.176Zm0-2.64c.896 0 1.67-.192 2.32-.576.65-.395 1.152-1.05 1.504-1.968.352-.928.528-2.192.528-3.792 0-1.621-.176-2.896-.528-3.824-.352-.928-.853-1.584-1.504-1.968-.65-.395-1.424-.592-2.32-.592-.896 0-1.67.197-2.32.592-.65.384-1.152 1.035-1.504 1.952-.352.917-.528 2.176-.528 3.776 0 1.621.176 2.896.528 3.824.352.928.853 1.59 1.504 1.984.65.395 1.424.592 2.32.592Zm18.506 2.608c-1.099 0-2.08-.203-2.944-.608-.853-.416-1.525-1.088-2.016-2.016-.49-.928-.736-2.165-.736-3.712v-11.36h3.344V61.76c0 1.355.293 2.293.88 2.816.597.523 1.37.784 2.32.784.704 0 1.446-.16 2.224-.48.79-.32 1.462-.837 2.016-1.552V50.592h3.328V68h-2.784l-.224-1.856h-.176a7.232 7.232 0 0 1-2.416 1.616 7.551 7.551 0 0 1-2.816.528Zm14.518 6.752V50.592h2.832l.224 1.904h.176c.512-.65 1.173-1.173 1.984-1.568.81-.405 1.733-.608 2.768-.608 1.258 0 2.41.283 3.456.848 1.056.565 1.898 1.483 2.528 2.752.64 1.259.96 2.944.96 5.056 0 3.104-.768 5.435-2.304 6.992-1.526 1.557-3.76 2.336-6.704 2.336-.448 0-.896-.021-1.344-.064a17.645 17.645 0 0 1-1.232-.128v6.928h-3.344Zm5.952-9.376c1.845 0 3.237-.496 4.176-1.488.938-.992 1.408-2.635 1.408-4.928 0-1.59-.192-2.827-.576-3.712-.374-.896-.896-1.52-1.568-1.872-.662-.363-1.419-.544-2.272-.544-.704 0-1.392.15-2.064.448-.672.299-1.243.768-1.712 1.408v10.416c.352.085.762.155 1.232.208.469.043.928.064 1.376.064Zm14.178-3.024v-2.72l10.224-4.096-10.224-4.064v-2.72l12.88 5.264v3.072l-12.88 5.264Z"/>
  </mask>
  <path fill="#fff" d="m16.448 22.64-12.88-5.264v-3.072l12.88-5.264v2.72L6.24 15.824l10.208 4.096v2.72Zm13.84 5.68c-2.89 0-5.056-.704-6.496-2.112-1.44-1.419-2.16-3.723-2.16-6.912 0-3.008.656-5.253 1.968-6.736 1.312-1.493 3.11-2.24 5.392-2.24 2.24 0 3.963.747 5.168 2.24 1.206 1.493 1.808 3.765 1.808 6.816v.96h-10.96c.064 1.963.55 3.344 1.456 4.144.907.8 2.326 1.2 4.256 1.2.662 0 1.355-.053 2.08-.16a22.514 22.514 0 0 0 2.272-.496v2.624c-.864.235-1.685.405-2.464.512-.778.107-1.552.16-2.32.16ZM28.96 12.608c-1.205 0-2.16.416-2.864 1.248-.693.821-1.061 2.277-1.104 4.368H32.8c-.032-2.08-.378-3.536-1.04-4.368-.661-.832-1.594-1.248-2.8-1.248ZM45.435 28.32c-1.856 0-3.541-.24-5.056-.72v-2.576c1.654.49 3.334.736 5.04.736 1.398 0 2.4-.224 3.008-.672.619-.448.928-1.077.928-1.888 0-.683-.181-1.2-.544-1.552-.352-.363-.95-.635-1.792-.816l-2.496-.496c-1.61-.32-2.768-.88-3.472-1.68-.693-.8-1.04-1.845-1.04-3.136 0-1.525.598-2.773 1.792-3.744 1.195-.97 3.035-1.456 5.52-1.456.768 0 1.51.048 2.224.144a14.53 14.53 0 0 1 2.048.384v2.576a16.137 16.137 0 0 0-4.192-.544c-1.6 0-2.704.25-3.312.752-.608.49-.912 1.093-.912 1.808 0 .597.166 1.088.496 1.472.342.373.934.656 1.776.848l2.496.48c1.59.33 2.747.875 3.472 1.632.736.757 1.104 1.819 1.104 3.184 0 1.632-.608 2.917-1.824 3.856-1.205.939-2.96 1.408-5.264 1.408ZM57.4 28V2.144h3.344V28H57.4Zm9.411-7.632v-2.784h9.313v2.784H66.81Zm19.503 7.92c-1.686 0-3.008-.432-3.968-1.296-.95-.864-1.424-2.043-1.424-3.536 0-1.547.517-2.757 1.552-3.632 1.045-.875 2.725-1.413 5.04-1.616l3.632-.368v-1.104c0-1.461-.352-2.453-1.056-2.976-.704-.533-1.798-.8-3.28-.8-.662 0-1.408.059-2.24.176-.832.117-1.654.31-2.464.576v-2.624a14.54 14.54 0 0 1 2.576-.576 19.599 19.599 0 0 1 2.64-.192c1.59 0 2.906.208 3.952.624 1.056.405 1.84 1.088 2.352 2.048.522.96.784 2.272.784 3.936V28h-2.768l-.24-1.872h-.192a5.18 5.18 0 0 1-2.128 1.616 7.003 7.003 0 0 1-2.768.544Zm-2.048-5.136c0 1.792.997 2.688 2.992 2.688.682 0 1.36-.139 2.032-.416.682-.277 1.301-.741 1.856-1.392V19.92l-3.344.336c-1.259.128-2.166.432-2.72.912-.544.48-.816 1.141-.816 1.984ZM104.196 28V8.4L98.5 12.432V9.168l6.928-4.928h2.176V28h-3.408Zm13.787 0V8.4l-5.696 4.032V9.168l6.928-4.928h2.176V28h-3.408Zm16.94.304c-1.877 0-3.333-.475-4.368-1.424-1.024-.95-1.536-2.47-1.536-4.56v-9.024h-3.136v-2.704h3.136l.576-6.272h2.768v6.272h5.184v2.704h-5.184v8.48c0 1.387.272 2.352.816 2.896.555.544 1.403.816 2.544.816.576 0 1.253-.085 2.032-.256v2.752c-.939.213-1.883.32-2.832.32ZM145.414 28l-6.448-17.408h3.536l5.072 14.576 5.184-14.576h3.328L147.03 35.04h-3.296l2.624-7.04h-.944Zm14.372-7.632v-2.784h9.312v2.784h-9.312ZM38.981 75.36c-.842 0-1.738-.064-2.688-.192a15.594 15.594 0 0 1-2.656-.56v-2.72c.918.277 1.803.48 2.656.608.864.139 1.686.208 2.464.208 1.824 0 3.163-.379 4.016-1.136.864-.757 1.296-2.053 1.296-3.888v-1.52h-.176c-.522.608-1.184 1.099-1.984 1.472-.789.373-1.701.56-2.736.56a6.685 6.685 0 0 1-3.312-.848c-1.013-.576-1.829-1.488-2.448-2.736-.618-1.259-.928-2.912-.928-4.96 0-6.219 3.051-9.328 9.152-9.328.971 0 1.968.075 2.992.224a17.33 17.33 0 0 1 2.784.624V67.12c0 2.933-.704 5.04-2.112 6.32-1.397 1.28-3.504 1.92-6.32 1.92Zm1.312-9.968c.694 0 1.376-.139 2.048-.416a4.214 4.214 0 0 0 1.728-1.296v-10.4a8.262 8.262 0 0 0-1.248-.224 10.77 10.77 0 0 0-1.456-.096c-1.781 0-3.141.496-4.08 1.488-.938.992-1.408 2.624-1.408 4.896 0 1.579.187 2.805.56 3.68.384.875.907 1.488 1.568 1.84.662.352 1.424.528 2.288.528ZM53.528 68V50.592h2.768l.272 2.304h.176a5.364 5.364 0 0 1 2.16-1.872 6.401 6.401 0 0 1 2.784-.624c.48 0 .944.043 1.392.128v3.056a6.277 6.277 0 0 0-.784-.08 9.411 9.411 0 0 0-.784-.032c-.822 0-1.67.187-2.544.56a4.69 4.69 0 0 0-2.096 1.664V68h-3.344Zm20.12.32c-2.357 0-4.24-.72-5.648-2.16-1.397-1.45-2.096-3.728-2.096-6.832 0-3.115.694-5.392 2.08-6.832 1.387-1.45 3.275-2.176 5.664-2.176 2.39 0 4.278.725 5.664 2.176 1.387 1.44 2.08 3.712 2.08 6.816 0 3.093-.704 5.37-2.112 6.832-1.397 1.45-3.275 2.176-5.632 2.176Zm0-2.64c.896 0 1.67-.192 2.32-.576.65-.395 1.152-1.05 1.504-1.968.352-.928.528-2.192.528-3.792 0-1.621-.176-2.896-.528-3.824-.352-.928-.853-1.584-1.504-1.968-.65-.395-1.424-.592-2.32-.592-.896 0-1.67.197-2.32.592-.65.384-1.152 1.035-1.504 1.952-.352.917-.528 2.176-.528 3.776 0 1.621.176 2.896.528 3.824.352.928.853 1.59 1.504 1.984.65.395 1.424.592 2.32.592Zm18.506 2.608c-1.099 0-2.08-.203-2.944-.608-.853-.416-1.525-1.088-2.016-2.016-.49-.928-.736-2.165-.736-3.712v-11.36h3.344V61.76c0 1.355.293 2.293.88 2.816.597.523 1.37.784 2.32.784.704 0 1.446-.16 2.224-.48.79-.32 1.462-.837 2.016-1.552V50.592h3.328V68h-2.784l-.224-1.856h-.176a7.232 7.232 0 0 1-2.416 1.616 7.551 7.551 0 0 1-2.816.528Zm14.518 6.752V50.592h2.832l.224 1.904h.176c.512-.65 1.173-1.173 1.984-1.568.81-.405 1.733-.608 2.768-.608 1.258 0 2.41.283 3.456.848 1.056.565 1.898 1.483 2.528 2.752.64 1.259.96 2.944.96 5.056 0 3.104-.768 5.435-2.304 6.992-1.526 1.557-3.76 2.336-6.704 2.336-.448 0-.896-.021-1.344-.064a17.645 17.645 0 0 1-1.232-.128v6.928h-3.344Zm5.952-9.376c1.845 0 3.237-.496 4.176-1.488.938-.992 1.408-2.635 1.408-4.928 0-1.59-.192-2.827-.576-3.712-.374-.896-.896-1.52-1.568-1.872-.662-.363-1.419-.544-2.272-.544-.704 0-1.392.15-2.064.448-.672.299-1.243.768-1.712 1.408v10.416c.352.085.762.155 1.232.208.469.043.928.064 1.376.064Zm14.178-3.024v-2.72l10.224-4.096-10.224-4.064v-2.72l12.88 5.264v3.072l-12.88 5.264Z"/>
  <path stroke="#40BFEF" stroke-width="4" d="m16.448 22.64-12.88-5.264v-3.072l12.88-5.264v2.72L6.24 15.824l10.208 4.096v2.72Zm13.84 5.68c-2.89 0-5.056-.704-6.496-2.112-1.44-1.419-2.16-3.723-2.16-6.912 0-3.008.656-5.253 1.968-6.736 1.312-1.493 3.11-2.24 5.392-2.24 2.24 0 3.963.747 5.168 2.24 1.206 1.493 1.808 3.765 1.808 6.816v.96h-10.96c.064 1.963.55 3.344 1.456 4.144.907.8 2.326 1.2 4.256 1.2.662 0 1.355-.053 2.08-.16a22.514 22.514 0 0 0 2.272-.496v2.624c-.864.235-1.685.405-2.464.512-.778.107-1.552.16-2.32.16ZM28.96 12.608c-1.205 0-2.16.416-2.864 1.248-.693.821-1.061 2.277-1.104 4.368H32.8c-.032-2.08-.378-3.536-1.04-4.368-.661-.832-1.594-1.248-2.8-1.248ZM45.435 28.32c-1.856 0-3.541-.24-5.056-.72v-2.576c1.654.49 3.334.736 5.04.736 1.398 0 2.4-.224 3.008-.672.619-.448.928-1.077.928-1.888 0-.683-.181-1.2-.544-1.552-.352-.363-.95-.635-1.792-.816l-2.496-.496c-1.61-.32-2.768-.88-3.472-1.68-.693-.8-1.04-1.845-1.04-3.136 0-1.525.598-2.773 1.792-3.744 1.195-.97 3.035-1.456 5.52-1.456.768 0 1.51.048 2.224.144a14.53 14.53 0 0 1 2.048.384v2.576a16.137 16.137 0 0 0-4.192-.544c-1.6 0-2.704.25-3.312.752-.608.49-.912 1.093-.912 1.808 0 .597.166 1.088.496 1.472.342.373.934.656 1.776.848l2.496.48c1.59.33 2.747.875 3.472 1.632.736.757 1.104 1.819 1.104 3.184 0 1.632-.608 2.917-1.824 3.856-1.205.939-2.96 1.408-5.264 1.408ZM57.4 28V2.144h3.344V28H57.4Zm9.411-7.632v-2.784h9.313v2.784H66.81Zm19.503 7.92c-1.686 0-3.008-.432-3.968-1.296-.95-.864-1.424-2.043-1.424-3.536 0-1.547.517-2.757 1.552-3.632 1.045-.875 2.725-1.413 5.04-1.616l3.632-.368v-1.104c0-1.461-.352-2.453-1.056-2.976-.704-.533-1.798-.8-3.28-.8-.662 0-1.408.059-2.24.176-.832.117-1.654.31-2.464.576v-2.624a14.54 14.54 0 0 1 2.576-.576 19.599 19.599 0 0 1 2.64-.192c1.59 0 2.906.208 3.952.624 1.056.405 1.84 1.088 2.352 2.048.522.96.784 2.272.784 3.936V28h-2.768l-.24-1.872h-.192a5.18 5.18 0 0 1-2.128 1.616 7.003 7.003 0 0 1-2.768.544Zm-2.048-5.136c0 1.792.997 2.688 2.992 2.688.682 0 1.36-.139 2.032-.416.682-.277 1.301-.741 1.856-1.392V19.92l-3.344.336c-1.259.128-2.166.432-2.72.912-.544.48-.816 1.141-.816 1.984ZM104.196 28V8.4L98.5 12.432V9.168l6.928-4.928h2.176V28h-3.408Zm13.787 0V8.4l-5.696 4.032V9.168l6.928-4.928h2.176V28h-3.408Zm16.94.304c-1.877 0-3.333-.475-4.368-1.424-1.024-.95-1.536-2.47-1.536-4.56v-9.024h-3.136v-2.704h3.136l.576-6.272h2.768v6.272h5.184v2.704h-5.184v8.48c0 1.387.272 2.352.816 2.896.555.544 1.403.816 2.544.816.576 0 1.253-.085 2.032-.256v2.752c-.939.213-1.883.32-2.832.32ZM145.414 28l-6.448-17.408h3.536l5.072 14.576 5.184-14.576h3.328L147.03 35.04h-3.296l2.624-7.04h-.944Zm14.372-7.632v-2.784h9.312v2.784h-9.312ZM38.981 75.36c-.842 0-1.738-.064-2.688-.192a15.594 15.594 0 0 1-2.656-.56v-2.72c.918.277 1.803.48 2.656.608.864.139 1.686.208 2.464.208 1.824 0 3.163-.379 4.016-1.136.864-.757 1.296-2.053 1.296-3.888v-1.52h-.176c-.522.608-1.184 1.099-1.984 1.472-.789.373-1.701.56-2.736.56a6.685 6.685 0 0 1-3.312-.848c-1.013-.576-1.829-1.488-2.448-2.736-.618-1.259-.928-2.912-.928-4.96 0-6.219 3.051-9.328 9.152-9.328.971 0 1.968.075 2.992.224a17.33 17.33 0 0 1 2.784.624V67.12c0 2.933-.704 5.04-2.112 6.32-1.397 1.28-3.504 1.92-6.32 1.92Zm1.312-9.968c.694 0 1.376-.139 2.048-.416a4.214 4.214 0 0 0 1.728-1.296v-10.4a8.262 8.262 0 0 0-1.248-.224 10.77 10.77 0 0 0-1.456-.096c-1.781 0-3.141.496-4.08 1.488-.938.992-1.408 2.624-1.408 4.896 0 1.579.187 2.805.56 3.68.384.875.907 1.488 1.568 1.84.662.352 1.424.528 2.288.528ZM53.528 68V50.592h2.768l.272 2.304h.176a5.364 5.364 0 0 1 2.16-1.872 6.401 6.401 0 0 1 2.784-.624c.48 0 .944.043 1.392.128v3.056a6.277 6.277 0 0 0-.784-.08 9.411 9.411 0 0 0-.784-.032c-.822 0-1.67.187-2.544.56a4.69 4.69 0 0 0-2.096 1.664V68h-3.344Zm20.12.32c-2.357 0-4.24-.72-5.648-2.16-1.397-1.45-2.096-3.728-2.096-6.832 0-3.115.694-5.392 2.08-6.832 1.387-1.45 3.275-2.176 5.664-2.176 2.39 0 4.278.725 5.664 2.176 1.387 1.44 2.08 3.712 2.08 6.816 0 3.093-.704 5.37-2.112 6.832-1.397 1.45-3.275 2.176-5.632 2.176Zm0-2.64c.896 0 1.67-.192 2.32-.576.65-.395 1.152-1.05 1.504-1.968.352-.928.528-2.192.528-3.792 0-1.621-.176-2.896-.528-3.824-.352-.928-.853-1.584-1.504-1.968-.65-.395-1.424-.592-2.32-.592-.896 0-1.67.197-2.32.592-.65.384-1.152 1.035-1.504 1.952-.352.917-.528 2.176-.528 3.776 0 1.621.176 2.896.528 3.824.352.928.853 1.59 1.504 1.984.65.395 1.424.592 2.32.592Zm18.506 2.608c-1.099 0-2.08-.203-2.944-.608-.853-.416-1.525-1.088-2.016-2.016-.49-.928-.736-2.165-.736-3.712v-11.36h3.344V61.76c0 1.355.293 2.293.88 2.816.597.523 1.37.784 2.32.784.704 0 1.446-.16 2.224-.48.79-.32 1.462-.837 2.016-1.552V50.592h3.328V68h-2.784l-.224-1.856h-.176a7.232 7.232 0 0 1-2.416 1.616 7.551 7.551 0 0 1-2.816.528Zm14.518 6.752V50.592h2.832l.224 1.904h.176c.512-.65 1.173-1.173 1.984-1.568.81-.405 1.733-.608 2.768-.608 1.258 0 2.41.283 3.456.848 1.056.565 1.898 1.483 2.528 2.752.64 1.259.96 2.944.96 5.056 0 3.104-.768 5.435-2.304 6.992-1.526 1.557-3.76 2.336-6.704 2.336-.448 0-.896-.021-1.344-.064a17.645 17.645 0 0 1-1.232-.128v6.928h-3.344Zm5.952-9.376c1.845 0 3.237-.496 4.176-1.488.938-.992 1.408-2.635 1.408-4.928 0-1.59-.192-2.827-.576-3.712-.374-.896-.896-1.52-1.568-1.872-.662-.363-1.419-.544-2.272-.544-.704 0-1.392.15-2.064.448-.672.299-1.243.768-1.712 1.408v10.416c.352.085.762.155 1.232.208.469.043.928.064 1.376.064Zm14.178-3.024v-2.72l10.224-4.096-10.224-4.064v-2.72l12.88 5.264v3.072l-12.88 5.264Z" mask="url(#path-1-outside-1_42:129)"/>
</svg>
