<svg width="37" height="17" viewBox="0 0 37 17" fill="none" xmlns="http://www.w3.org/2000/svg">
<title>Toggle direction</title>
<path d="M6.45312 9.85931H2.7793V16.1865H0.706055V0.545837H5.88379C7.64551 0.545837 8.99902 0.946879 9.94434 1.74896C10.8968 2.55105 11.373 3.71836 11.373 5.25092C11.373 6.22487 11.1081 7.07351 10.5781 7.79681C10.0553 8.52012 9.32487 9.06081 8.38672 9.41888L12.0605 16.0576V16.1865H9.84766L6.45312 9.85931ZM2.7793 8.17279H5.94824C6.97233 8.17279 7.78516 7.90782 8.38672 7.37787C8.99544 6.84792 9.2998 6.13894 9.2998 5.25092C9.2998 4.28412 9.00977 3.54291 8.42969 3.02728C7.85677 2.51166 7.02604 2.25026 5.9375 2.2431H2.7793V8.17279ZM24.2207 2.2431H19.1934V16.1865H17.1416V2.2431H12.125V0.545837H24.2207V2.2431ZM28.6143 14.4999H36.0264V16.1865H26.541V0.545837H28.6143V14.4999Z"/>
</svg>
