<svg width="24" height="24" viewBox="0 0 24 24" fill="none" xmlns="http://www.w3.org/2000/svg">
<title>Toggle settings visibility</title>
<mask id="path-1-inside-1_138_34">
<path d="M13.3018 0.631579L13.9474 3.05592L14.0456 3.41447L14.4281 3.51316C16.0246 3.91118 17.4807 4.69737 18.6386 5.7829L18.9158 6.04605L19.2982 5.94408L21.8491 5.25987L23.1544 7.375L21.2386 9.10855L20.9509 9.36842L21.0561 9.72697C21.2737 10.4934 21.3825 11.2566 21.3825 12C21.3825 12.7434 21.2737 13.5066 21.0561 14.273L20.9509 14.6316L21.2386 14.8914L23.1544 16.625L21.8491 18.7401L19.2982 18.0559L18.9158 17.9539L18.6386 18.2171C17.4807 19.3026 16.0246 20.0888 14.4281 20.4868L14.0456 20.5855L13.9474 20.9441L13.3018 23.3684H10.6982L10.0526 20.9441L9.95439 20.5855L9.57193 20.4868C7.97544 20.0888 6.5193 19.3026 5.3614 18.2171L5.08421 17.9539L4.70175 18.0559L2.15088 18.7401L0.845614 16.625L2.7614 14.8914L3.04912 14.6316L2.94386 14.273C2.72632 13.5066 2.61754 12.7434 2.61754 12C2.61754 11.2566 2.72632 10.4934 2.94386 9.72697L3.04912 9.36842L2.7614 9.10855L0.845614 7.375L2.15088 5.25987L4.70175 5.94408L5.08421 6.04605L5.3614 5.7829C6.5193 4.69737 7.97544 3.91118 9.57193 3.51316L9.95439 3.41447L10.0526 3.05592L10.6982 0.631579H13.3018ZM12 17.3454C15.1439 17.3454 17.7018 14.9474 17.7018 12C17.7018 9.05263 15.1439 6.65461 12 6.65461C8.85614 6.65461 6.29825 9.05263 6.29825 12C6.29825 14.9474 8.85614 17.3454 12 17.3454ZM13.8281 0H10.1719L9.39649 2.90132C7.66667 3.33553 6.11579 4.18092 4.88421 5.33553L1.82807 4.51645L0 7.48355L2.29474 9.5625C2.07368 10.3421 1.94386 11.1546 1.94386 12C1.94386 12.8454 2.07018 13.6579 2.29474 14.4375L0 16.5164L1.82807 19.4836L4.88421 18.6645C6.11579 19.8191 7.66667 20.6645 9.39649 21.0987L10.1719 24H13.8281L14.6035 21.0987C16.3333 20.6645 17.8842 19.8191 19.1158 18.6645L22.1719 19.4836L24 16.5164L21.7053 14.4375C21.9263 13.6579 22.0561 12.8454 22.0561 12C22.0561 11.1579 21.9298 10.3421 21.7053 9.56579L24 7.48684L22.1719 4.51645L19.1158 5.33553C17.8842 4.18421 16.3333 3.33882 14.6035 2.90132L13.8281 0ZM12 16.7138C9.22456 16.7138 6.97193 14.602 6.97193 12C6.97193 9.39803 9.22456 7.28618 12 7.28618C14.7754 7.28618 17.0281 9.39803 17.0281 12C17.0281 14.602 14.7754 16.7138 12 16.7138Z"/>
</mask>
<path d="M13.3018 0.631579L13.9474 3.05592L14.0456 3.41447L14.4281 3.51316C16.0246 3.91118 17.4807 4.69737 18.6386 5.7829L18.9158 6.04605L19.2982 5.94408L21.8491 5.25987L23.1544 7.375L21.2386 9.10855L20.9509 9.36842L21.0561 9.72697C21.2737 10.4934 21.3825 11.2566 21.3825 12C21.3825 12.7434 21.2737 13.5066 21.0561 14.273L20.9509 14.6316L21.2386 14.8914L23.1544 16.625L21.8491 18.7401L19.2982 18.0559L18.9158 17.9539L18.6386 18.2171C17.4807 19.3026 16.0246 20.0888 14.4281 20.4868L14.0456 20.5855L13.9474 20.9441L13.3018 23.3684H10.6982L10.0526 20.9441L9.95439 20.5855L9.57193 20.4868C7.97544 20.0888 6.5193 19.3026 5.3614 18.2171L5.08421 17.9539L4.70175 18.0559L2.15088 18.7401L0.845614 16.625L2.7614 14.8914L3.04912 14.6316L2.94386 14.273C2.72632 13.5066 2.61754 12.7434 2.61754 12C2.61754 11.2566 2.72632 10.4934 2.94386 9.72697L3.04912 9.36842L2.7614 9.10855L0.845614 7.375L2.15088 5.25987L4.70175 5.94408L5.08421 6.04605L5.3614 5.7829C6.5193 4.69737 7.97544 3.91118 9.57193 3.51316L9.95439 3.41447L10.0526 3.05592L10.6982 0.631579H13.3018ZM12 17.3454C15.1439 17.3454 17.7018 14.9474 17.7018 12C17.7018 9.05263 15.1439 6.65461 12 6.65461C8.85614 6.65461 6.29825 9.05263 6.29825 12C6.29825 14.9474 8.85614 17.3454 12 17.3454ZM13.8281 0H10.1719L9.39649 2.90132C7.66667 3.33553 6.11579 4.18092 4.88421 5.33553L1.82807 4.51645L0 7.48355L2.29474 9.5625C2.07368 10.3421 1.94386 11.1546 1.94386 12C1.94386 12.8454 2.07018 13.6579 2.29474 14.4375L0 16.5164L1.82807 19.4836L4.88421 18.6645C6.11579 19.8191 7.66667 20.6645 9.39649 21.0987L10.1719 24H13.8281L14.6035 21.0987C16.3333 20.6645 17.8842 19.8191 19.1158 18.6645L22.1719 19.4836L24 16.5164L21.7053 14.4375C21.9263 13.6579 22.0561 12.8454 22.0561 12C22.0561 11.1579 21.9298 10.3421 21.7053 9.56579L24 7.48684L22.1719 4.51645L19.1158 5.33553C17.8842 4.18421 16.3333 3.33882 14.6035 2.90132L13.8281 0ZM12 16.7138C9.22456 16.7138 6.97193 14.602 6.97193 12C6.97193 9.39803 9.22456 7.28618 12 7.28618C14.7754 7.28618 17.0281 9.39803 17.0281 12C17.0281 14.602 14.7754 16.7138 12 16.7138Z"/>
<path d="M13.3018 0.631579L14.2681 0.374243L14.0703 -0.368421H13.3018V0.631579ZM13.9474 3.05592L12.981 3.31326L12.9829 3.32019L13.9474 3.05592ZM14.0456 3.41447L13.0812 3.67874L13.2344 4.23791L13.7958 4.38276L14.0456 3.41447ZM14.4281 3.51316L14.1782 4.48148L14.1862 4.48346L14.4281 3.51316ZM18.6386 5.7829L19.3271 5.05765L19.3225 5.05336L18.6386 5.7829ZM18.9158 6.04605L18.2273 6.77128L18.6329 7.1564L19.1734 7.0123L18.9158 6.04605ZM19.2982 5.94408L19.5559 6.91032L19.5573 6.90994L19.2982 5.94408ZM21.8491 5.25987L22.7001 4.73471L22.3091 4.10113L21.5901 4.29401L21.8491 5.25987ZM23.1544 7.375L23.8253 8.11649L24.4425 7.55809L24.0054 6.84984L23.1544 7.375ZM21.2386 9.10855L21.9089 9.85067L21.9096 9.85005L21.2386 9.10855ZM20.9509 9.36842L20.2806 8.62631L19.8144 9.04737L19.9914 9.65011L20.9509 9.36842ZM21.0561 9.72697L22.0182 9.45391L22.0156 9.44528L21.0561 9.72697ZM21.0561 14.273L22.0157 14.5547L22.0181 14.5461L21.0561 14.273ZM20.9509 14.6316L19.9914 14.3499L19.8144 14.9526L20.2806 15.3737L20.9509 14.6316ZM21.2386 14.8914L21.9096 14.15L21.9089 14.1493L21.2386 14.8914ZM23.1544 16.625L24.0054 17.1502L24.4425 16.4419L23.8253 15.8835L23.1544 16.625ZM21.8491 18.7401L21.5901 19.706L22.3091 19.8989L22.7001 19.2653L21.8491 18.7401ZM19.2982 18.0559L19.5573 17.0901L19.5559 17.0897L19.2982 18.0559ZM18.9158 17.9539L19.1734 16.9877L18.6329 16.8436L18.2273 17.2287L18.9158 17.9539ZM18.6386 18.2171L19.3226 18.9467L19.3271 18.9423L18.6386 18.2171ZM14.4281 20.4868L14.1862 19.5165L14.1782 19.5186L14.4281 20.4868ZM14.0456 20.5855L13.7958 19.6172L13.2344 19.7621L13.0812 20.3213L14.0456 20.5855ZM13.9474 20.9441L12.9829 20.6798L12.981 20.6867L13.9474 20.9441ZM13.3018 23.3684V24.3684H14.0703L14.2681 23.6258L13.3018 23.3684ZM10.6982 23.3684L9.73192 23.6258L9.9297 24.3684H10.6982V23.3684ZM10.0526 20.9441L11.019 20.6867L11.0171 20.6798L10.0526 20.9441ZM9.95439 20.5855L10.9188 20.3213L10.7656 19.7621L10.2042 19.6172L9.95439 20.5855ZM9.57193 20.4868L9.82178 19.5185L9.81384 19.5165L9.57193 20.4868ZM5.3614 18.2171L4.67288 18.9423L4.67746 18.9466L5.3614 18.2171ZM5.08421 17.9539L5.77272 17.2287L5.36706 16.8436L4.82658 16.9877L5.08421 17.9539ZM4.70175 18.0559L4.44413 17.0897L4.44269 17.0901L4.70175 18.0559ZM2.15088 18.7401L1.29987 19.2653L1.69086 19.8989L2.40994 19.706L2.15088 18.7401ZM0.845614 16.625L0.174654 15.8835L-0.442454 16.4419L-0.00538949 17.1502L0.845614 16.625ZM2.7614 14.8914L2.09113 14.1493L2.09044 14.15L2.7614 14.8914ZM3.04912 14.6316L3.7194 15.3737L4.18558 14.9526L4.00863 14.3499L3.04912 14.6316ZM2.94386 14.273L1.98182 14.5461L1.98435 14.5547L2.94386 14.273ZM2.94386 9.72697L1.98432 9.44527L1.98186 9.45393L2.94386 9.72697ZM3.04912 9.36842L4.00863 9.65011L4.18558 9.04737L3.7194 8.62631L3.04912 9.36842ZM2.7614 9.10855L2.09044 9.85005L2.09113 9.85066L2.7614 9.10855ZM0.845614 7.375L-0.00538936 6.84984L-0.442454 7.55809L0.174654 8.11649L0.845614 7.375ZM2.15088 5.25987L2.40994 4.29401L1.69086 4.10113L1.29987 4.73471L2.15088 5.25987ZM4.70175 5.94408L4.44269 6.90994L4.44413 6.91032L4.70175 5.94408ZM5.08421 6.04605L4.82658 7.0123L5.36706 7.1564L5.77272 6.77128L5.08421 6.04605ZM5.3614 5.7829L4.67745 5.05334L4.6729 5.05767L5.3614 5.7829ZM9.57193 3.51316L9.81385 4.48349L9.82177 4.48144L9.57193 3.51316ZM9.95439 3.41447L10.2042 4.38276L10.7656 4.23791L10.9188 3.67874L9.95439 3.41447ZM10.0526 3.05592L11.0171 3.32019L11.019 3.31326L10.0526 3.05592ZM10.6982 0.631579V-0.368421H9.9297L9.73192 0.374243L10.6982 0.631579ZM13.8281 0L14.7942 -0.258208L14.5959 -1H13.8281V0ZM10.1719 0V-1H9.4041L9.20584 -0.258208L10.1719 0ZM9.39649 2.90132L9.63995 3.87123L10.2106 3.72797L10.3626 3.15952L9.39649 2.90132ZM4.88421 5.33553L4.62534 6.30144L5.16247 6.44539L5.56815 6.06506L4.88421 5.33553ZM1.82807 4.51645L2.08694 3.55054L1.36743 3.3577L0.976688 3.9919L1.82807 4.51645ZM0 7.48355L-0.851382 6.95901L-1.28735 7.66662L-0.671403 8.22465L0 7.48355ZM2.29474 9.5625L3.25681 9.83529L3.42613 9.23814L2.96614 8.82141L2.29474 9.5625ZM2.29474 14.4375L2.96614 15.1786L3.42827 14.7599L3.25567 14.1607L2.29474 14.4375ZM0 16.5164L-0.671403 15.7754L-1.28735 16.3334L-0.851382 17.041L0 16.5164ZM1.82807 19.4836L0.976688 20.0081L1.36743 20.6423L2.08694 20.4495L1.82807 19.4836ZM4.88421 18.6645L5.56815 17.9349L5.16247 17.5546L4.62534 17.6986L4.88421 18.6645ZM9.39649 21.0987L10.3626 20.8405L10.2106 20.272L9.63995 20.1288L9.39649 21.0987ZM10.1719 24L9.20584 24.2582L9.4041 25H10.1719V24ZM13.8281 24V25H14.5959L14.7942 24.2582L13.8281 24ZM14.6035 21.0987L14.36 20.1288L13.7893 20.272L13.6374 20.8405L14.6035 21.0987ZM19.1158 18.6645L19.3747 17.6986L18.8375 17.5546L18.4318 17.9349L19.1158 18.6645ZM22.1719 19.4836L21.9131 20.4495L22.6326 20.6423L23.0233 20.0081L22.1719 19.4836ZM24 16.5164L24.8514 17.041L25.2874 16.3334L24.6714 15.7754L24 16.5164ZM21.7053 14.4375L20.7432 14.1647L20.5739 14.7619L21.0339 15.1786L21.7053 14.4375ZM21.7053 9.56579L21.0339 8.8247L20.5712 9.24389L20.7446 9.84366L21.7053 9.56579ZM24 7.48684L24.6714 8.22793L25.287 7.67019L24.8516 6.96272L24 7.48684ZM22.1719 4.51645L23.0236 3.99232L22.6329 3.3576L21.9131 3.55054L22.1719 4.51645ZM19.1158 5.33553L18.4329 6.06604L18.8384 6.44515L19.3747 6.30144L19.1158 5.33553ZM14.6035 2.90132L13.6374 3.15952L13.789 3.72681L14.3583 3.87079L14.6035 2.90132ZM12.3354 0.888915L12.981 3.31326L14.9137 2.79858L14.2681 0.374243L12.3354 0.888915ZM12.9829 3.32019L13.0812 3.67874L15.0101 3.15021L14.9118 2.79166L12.9829 3.32019ZM13.7958 4.38276L14.1782 4.48144L14.6779 2.54487L14.2955 2.44619L13.7958 4.38276ZM14.1862 4.48346C15.6228 4.84163 16.9253 5.54743 17.9547 6.51243L19.3225 5.05336C18.0361 3.84731 16.4263 2.98074 14.67 2.54286L14.1862 4.48346ZM17.9501 6.50812L18.2273 6.77128L19.6043 5.32082L19.3271 5.05767L17.9501 6.50812ZM19.1734 7.0123L19.5559 6.91032L19.0406 4.97784L18.6582 5.07981L19.1734 7.0123ZM19.5573 6.90994L22.1082 6.22573L21.5901 4.29401L19.0392 4.97822L19.5573 6.90994ZM20.9981 5.78503L22.3034 7.90016L24.0054 6.84984L22.7001 4.73471L20.9981 5.78503ZM22.4834 6.63351L20.5676 8.36706L21.9096 9.85005L23.8253 8.11649L22.4834 6.63351ZM20.5683 8.36644L20.2806 8.62631L21.6212 10.1105L21.9089 9.85066L20.5683 8.36644ZM19.9914 9.65011L20.0966 10.0087L22.0156 9.44528L21.9104 9.08673L19.9914 9.65011ZM20.0941 10C20.288 10.683 20.3825 11.3543 20.3825 12H22.3825C22.3825 11.1589 22.2594 10.3039 22.0181 9.45393L20.0941 10ZM20.3825 12C20.3825 12.6457 20.288 13.317 20.0941 14L22.0181 14.5461C22.2594 13.6961 22.3825 12.8411 22.3825 12H20.3825ZM20.0966 13.9913L19.9914 14.3499L21.9104 14.9133L22.0156 14.5547L20.0966 13.9913ZM20.2806 15.3737L20.5683 15.6336L21.9089 14.1493L21.6212 13.8895L20.2806 15.3737ZM20.5676 15.6329L22.4834 17.3665L23.8253 15.8835L21.9096 14.15L20.5676 15.6329ZM22.3034 16.0998L20.9981 18.215L22.7001 19.2653L24.0054 17.1502L22.3034 16.0998ZM22.1082 17.7743L19.5573 17.0901L19.0392 19.0218L21.5901 19.706L22.1082 17.7743ZM19.5559 17.0897L19.1734 16.9877L18.6582 18.9202L19.0406 19.0222L19.5559 17.0897ZM18.2273 17.2287L17.9501 17.4919L19.3271 18.9423L19.6043 18.6792L18.2273 17.2287ZM17.9547 17.4876C16.9253 18.4526 15.6228 19.1584 14.1862 19.5165L14.67 21.4571C16.4263 21.0193 18.0361 20.1527 19.3225 18.9466L17.9547 17.4876ZM14.1782 19.5186L13.7958 19.6172L14.2955 21.5538L14.6779 21.4551L14.1782 19.5186ZM13.0812 20.3213L12.9829 20.6798L14.9118 21.2083L15.0101 20.8498L13.0812 20.3213ZM12.981 20.6867L12.3354 23.1111L14.2681 23.6258L14.9137 21.2014L12.981 20.6867ZM13.3018 22.3684H10.6982V24.3684H13.3018V22.3684ZM11.6646 23.1111L11.019 20.6867L9.08631 21.2014L9.73192 23.6258L11.6646 23.1111ZM11.0171 20.6798L10.9188 20.3213L8.98994 20.8498L9.08818 21.2083L11.0171 20.6798ZM10.2042 19.6172L9.82177 19.5186L9.32209 21.4551L9.70454 21.5538L10.2042 19.6172ZM9.81384 19.5165C8.3772 19.1584 7.07468 18.4526 6.04534 17.4876L4.67746 18.9466C5.96392 20.1527 7.57368 21.0193 9.33002 21.4571L9.81384 19.5165ZM6.04991 17.4919L5.77272 17.2287L4.3957 18.6792L4.6729 18.9423L6.04991 17.4919ZM4.82658 16.9877L4.44413 17.0897L4.95938 19.0222L5.34184 18.9202L4.82658 16.9877ZM4.44269 17.0901L1.89181 17.7743L2.40994 19.706L4.96082 19.0218L4.44269 17.0901ZM3.00188 18.215L1.69662 16.0998L-0.00538949 17.1502L1.29987 19.2653L3.00188 18.215ZM1.51657 17.3665L3.43236 15.6329L2.09044 14.15L0.174654 15.8835L1.51657 17.3665ZM3.43168 15.6336L3.7194 15.3737L2.37885 13.8895L2.09113 14.1493L3.43168 15.6336ZM4.00863 14.3499L3.90337 13.9913L1.98435 14.5547L2.08962 14.9133L4.00863 14.3499ZM3.90586 14C3.71202 13.317 3.61754 12.6457 3.61754 12H1.61754C1.61754 12.8411 1.74061 13.6961 1.98186 14.5461L3.90586 14ZM3.61754 12C3.61754 11.3543 3.71202 10.683 3.90586 10L1.98186 9.45393C1.74061 10.3039 1.61754 11.1589 1.61754 12H3.61754ZM3.90337 10.0087L4.00863 9.65011L2.08962 9.08673L1.98435 9.44529L3.90337 10.0087ZM3.7194 8.62631L3.43168 8.36644L2.09113 9.85066L2.37885 10.1105L3.7194 8.62631ZM3.43236 8.36706L1.51657 6.63351L0.174654 8.11649L2.09044 9.85005L3.43236 8.36706ZM1.69662 7.90016L3.00188 5.78503L1.29987 4.73471L-0.00538936 6.84984L1.69662 7.90016ZM1.89181 6.22573L4.44269 6.90994L4.96082 4.97822L2.40994 4.29401L1.89181 6.22573ZM4.44413 6.91032L4.82658 7.0123L5.34184 5.07981L4.95938 4.97784L4.44413 6.91032ZM5.77272 6.77128L6.04991 6.50812L4.6729 5.05767L4.3957 5.32082L5.77272 6.77128ZM6.04534 6.51243C7.07468 5.54743 8.3772 4.84163 9.81384 4.48346L9.33002 2.54286C7.57368 2.98074 5.96392 3.84731 4.67746 5.05336L6.04534 6.51243ZM9.82177 4.48144L10.2042 4.38276L9.70454 2.44619L9.32209 2.54487L9.82177 4.48144ZM10.9188 3.67874L11.0171 3.32019L9.08818 2.79166L8.98994 3.15021L10.9188 3.67874ZM11.019 3.31326L11.6646 0.888915L9.73192 0.374243L9.08631 2.79858L11.019 3.31326ZM10.6982 1.63158H13.3018V-0.368421H10.6982V1.63158ZM12 18.3454C15.6344 18.3454 18.7018 15.5595 18.7018 12H16.7018C16.7018 14.3353 14.6533 16.3454 12 16.3454V18.3454ZM18.7018 12C18.7018 8.44053 15.6344 5.65461 12 5.65461V7.65461C14.6533 7.65461 16.7018 9.66473 16.7018 12H18.7018ZM12 5.65461C8.36563 5.65461 5.29825 8.44053 5.29825 12H7.29825C7.29825 9.66473 9.34665 7.65461 12 7.65461V5.65461ZM5.29825 12C5.29825 15.5595 8.36563 18.3454 12 18.3454V16.3454C9.34665 16.3454 7.29825 14.3353 7.29825 12H5.29825ZM13.8281 -1H10.1719V1H13.8281V-1ZM9.20584 -0.258208L8.4304 2.64311L10.3626 3.15952L11.138 0.258208L9.20584 -0.258208ZM9.15303 1.9314C7.26332 2.40575 5.55956 3.33166 4.20027 4.60599L5.56815 6.06506C6.67202 5.03019 8.07001 4.2653 9.63995 3.87123L9.15303 1.9314ZM5.14309 4.36962L2.08694 3.55054L1.5692 5.48236L4.62534 6.30144L5.14309 4.36962ZM0.976688 3.9919L-0.851382 6.95901L0.851382 8.0081L2.67945 5.04099L0.976688 3.9919ZM-0.671403 8.22465L1.62333 10.3036L2.96614 8.82141L0.671403 6.74246L-0.671403 8.22465ZM1.33266 9.28971C1.08974 10.1464 0.94386 11.051 0.94386 12H2.94386C2.94386 11.2582 3.05763 10.5378 3.25681 9.83529L1.33266 9.28971ZM0.94386 12C0.94386 12.9464 1.08544 13.852 1.33381 14.7143L3.25567 14.1607C3.05491 13.4637 2.94386 12.7444 2.94386 12H0.94386ZM1.62333 13.6964L-0.671403 15.7754L0.671403 17.2575L2.96614 15.1786L1.62333 13.6964ZM-0.851382 17.041L0.976688 20.0081L2.67945 18.959L0.851382 15.9919L-0.851382 17.041ZM2.08694 20.4495L5.14309 19.6304L4.62534 17.6986L1.5692 18.5176L2.08694 20.4495ZM4.20027 19.394C5.55956 20.6683 7.26332 21.5943 9.15303 22.0686L9.63995 20.1288C8.07001 19.7347 6.67202 18.9698 5.56815 17.9349L4.20027 19.394ZM8.4304 21.3569L9.20584 24.2582L11.138 23.7418L10.3626 20.8405L8.4304 21.3569ZM10.1719 25H13.8281V23H10.1719V25ZM14.7942 24.2582L15.5696 21.3569L13.6374 20.8405L12.862 23.7418L14.7942 24.2582ZM14.847 22.0686C16.7367 21.5943 18.4404 20.6683 19.7997 19.394L18.4318 17.9349C17.328 18.9698 15.93 19.7347 14.36 20.1288L14.847 22.0686ZM18.8569 19.6304L21.9131 20.4495L22.4308 18.5176L19.3747 17.6986L18.8569 19.6304ZM23.0233 20.0081L24.8514 17.041L23.1486 15.9919L21.3205 18.959L23.0233 20.0081ZM24.6714 15.7754L22.3767 13.6964L21.0339 15.1786L23.3286 17.2575L24.6714 15.7754ZM22.6673 14.7103C22.9103 13.8536 23.0561 12.949 23.0561 12H21.0561C21.0561 12.7418 20.9424 13.4622 20.7432 14.1647L22.6673 14.7103ZM23.0561 12C23.0561 11.0573 22.9147 10.148 22.6659 9.28792L20.7446 9.84366C20.945 10.5362 21.0561 11.2585 21.0561 12H23.0561ZM22.3767 10.3069L24.6714 8.22793L23.3286 6.74575L21.0339 8.8247L22.3767 10.3069ZM24.8516 6.96272L23.0236 3.99232L21.3203 5.04057L23.1484 8.01097L24.8516 6.96272ZM21.9131 3.55054L18.8569 4.36962L19.3747 6.30144L22.4308 5.48236L21.9131 3.55054ZM19.7987 4.60502C18.4398 3.33473 16.737 2.40943 14.8487 1.93184L14.3583 3.87079C15.9296 4.2682 17.3286 5.03369 18.4329 6.06604L19.7987 4.60502ZM15.5696 2.64311L14.7942 -0.258208L12.862 0.258208L13.6374 3.15952L15.5696 2.64311ZM12 15.7138C9.71507 15.7138 7.97193 13.9899 7.97193 12H5.97193C5.97193 15.2141 8.73405 17.7138 12 17.7138V15.7138ZM7.97193 12C7.97193 10.0101 9.71507 8.28618 12 8.28618V6.28618C8.73405 6.28618 5.97193 8.78593 5.97193 12H7.97193ZM12 8.28618C14.2849 8.28618 16.0281 10.0101 16.0281 12H18.0281C18.0281 8.78593 15.2659 6.28618 12 6.28618V8.28618ZM16.0281 12C16.0281 13.9899 14.2849 15.7138 12 15.7138V17.7138C15.2659 17.7138 18.0281 15.2141 18.0281 12H16.0281Z" mask="url(#path-1-inside-1_138_34)"/>
</svg>
