<svg width="25" height="25" viewBox="0 0 25 25" fill="none" xmlns="http://www.w3.org/2000/svg">
<path d="M12.4454 0.301875C12.4205 0.306407 12.3956 0.313203 12.3729 0.32C12.1033 0.381172 11.913 0.623594 11.9198 0.9V4.38C11.9175 4.58844 12.0263 4.78328 12.2075 4.88977C12.3888 4.99398 12.6108 4.99398 12.7921 4.88977C12.9733 4.78328 13.0821 4.58844 13.0798 4.38V0.9C13.0866 0.732344 13.0186 0.571485 12.8986 0.458203C12.7762 0.342657 12.6108 0.286016 12.4454 0.301875ZM4.18043 3.70938C3.96293 3.74789 3.78848 3.90648 3.7273 4.11719C3.66613 4.33016 3.72957 4.55672 3.89043 4.70625L6.35543 7.17125C6.4959 7.34344 6.72019 7.42274 6.9377 7.37289C7.15293 7.32305 7.32285 7.15313 7.37269 6.93789C7.42254 6.72039 7.34324 6.49609 7.17105 6.35563L4.70605 3.89063C4.58598 3.76148 4.41152 3.69578 4.2348 3.70938C4.21668 3.70938 4.19855 3.70938 4.18043 3.70938ZM20.6379 3.70938C20.5065 3.7275 20.3842 3.7932 20.2936 3.89063L17.8286 6.35563C17.6564 6.49609 17.5771 6.72039 17.6269 6.93789C17.6768 7.15313 17.8467 7.32305 18.0619 7.37289C18.2794 7.42274 18.5037 7.34344 18.6442 7.17125L21.1092 4.70625C21.2904 4.53406 21.3425 4.26445 21.2361 4.03789C21.1273 3.80906 20.8871 3.67766 20.6379 3.70938ZM12.4454 6.7C12.4273 6.70453 12.4092 6.71133 12.3911 6.71813C12.3548 6.72039 12.3186 6.72719 12.2823 6.73625C12.2755 6.74305 12.271 6.74758 12.2642 6.75438C9.18746 6.88578 6.6998 9.39156 6.6998 12.5C6.6998 15.6923 9.30754 18.3 12.4998 18.3C15.6921 18.3 18.2998 15.6923 18.2998 12.5C18.2998 9.40289 15.8325 6.90617 12.7717 6.75438C12.7513 6.75438 12.7377 6.73625 12.7173 6.73625C12.6584 6.71359 12.5972 6.70227 12.5361 6.7C12.5247 6.7 12.5111 6.7 12.4998 6.7C12.4817 6.7 12.4636 6.7 12.4454 6.7ZM12.4636 7.86C12.4749 7.86 12.4885 7.86 12.4998 7.86C12.5179 7.86 12.5361 7.86 12.5542 7.86C15.0917 7.88945 17.1398 9.9557 17.1398 12.5C17.1398 15.0647 15.0645 17.14 12.4998 17.14C9.93738 17.14 7.8598 15.0647 7.8598 12.5C7.8598 9.94891 9.91699 7.88039 12.4636 7.86ZM0.736679 11.92C0.417226 11.9653 0.192929 12.2621 0.238242 12.5816C0.283554 12.901 0.580351 13.1253 0.899804 13.08H4.3798C4.58824 13.0823 4.78309 12.9735 4.88957 12.7923C4.99379 12.611 4.99379 12.389 4.88957 12.2077C4.78309 12.0265 4.58824 11.9177 4.3798 11.92H0.899804C0.881679 11.92 0.863554 11.92 0.845429 11.92C0.827304 11.92 0.809179 11.92 0.791054 11.92C0.772929 11.92 0.754804 11.92 0.736679 11.92ZM20.4567 11.92C20.1372 11.9653 19.9129 12.2621 19.9582 12.5816C20.0036 12.901 20.3004 13.1253 20.6198 13.08H24.0998C24.3082 13.0823 24.5031 12.9735 24.6096 12.7923C24.7138 12.611 24.7138 12.389 24.6096 12.2077C24.5031 12.0265 24.3082 11.9177 24.0998 11.92H20.6198C20.6017 11.92 20.5836 11.92 20.5654 11.92C20.5473 11.92 20.5292 11.92 20.5111 11.92C20.4929 11.92 20.4748 11.92 20.4567 11.92ZM6.6998 17.6475C6.5684 17.6656 6.44605 17.7313 6.35543 17.8287L3.89043 20.2937C3.71824 20.4342 3.63894 20.6585 3.68879 20.876C3.73863 21.0912 3.90855 21.2612 4.12379 21.311C4.34129 21.3609 4.56559 21.2816 4.70605 21.1094L7.17105 18.6444C7.34324 18.479 7.39535 18.223 7.30246 18.0032C7.21184 17.7834 6.99207 17.643 6.75418 17.6475C6.73605 17.6475 6.71793 17.6475 6.6998 17.6475ZM18.1186 17.6475C17.9011 17.686 17.7266 17.8446 17.6654 18.0553C17.6043 18.2683 17.6677 18.4948 17.8286 18.6444L20.2936 21.1094C20.434 21.2816 20.6583 21.3609 20.8758 21.311C21.0911 21.2612 21.261 21.0912 21.3108 20.876C21.3607 20.6585 21.2814 20.4342 21.1092 20.2937L18.6442 17.8287C18.5354 17.7132 18.3859 17.6498 18.2273 17.6475C18.2092 17.6475 18.1911 17.6475 18.1729 17.6475C18.1548 17.6475 18.1367 17.6475 18.1186 17.6475ZM12.4454 20.0219C12.4205 20.0264 12.3956 20.0332 12.3729 20.04C12.1033 20.1012 11.913 20.3436 11.9198 20.62V24.1C11.9175 24.3084 12.0263 24.5033 12.2075 24.6098C12.3888 24.714 12.6108 24.714 12.7921 24.6098C12.9733 24.5033 13.0821 24.3084 13.0798 24.1V20.62C13.0866 20.4523 13.0186 20.2915 12.8986 20.1782C12.7762 20.0627 12.6108 20.006 12.4454 20.0219Z"/>
</svg>
