<svg width="22" height="33" viewBox="0 0 30 33" fill="white" xmlns="http://www.w3.org/2000/svg">
  <path d="M11.1244 27.7083C3.8327 29.8958 3.8327 24.0624 0.916016 23.3333L11.1244 27.7083ZM21.3327 32.0833V26.4396C21.3874 25.7442 21.2933 25.0451 21.0571 24.3888C20.8206 23.7326 20.4474 23.1341 19.9618 22.6333C24.5411 22.1228 29.3536 20.3874 29.3536 12.4249C29.3532 10.3888 28.5698 8.43084 27.1661 6.95618C27.8309 5.17483 27.7839 3.20587 27.0349 1.45826C27.0349 1.45826 25.314 0.947845 21.3327 3.61659C17.9902 2.7107 14.4668 2.7107 11.1244 3.61659C7.14311 0.947845 5.42227 1.45826 5.42227 1.45826C4.67324 3.20587 4.62623 5.17483 5.29102 6.95618C3.87662 8.44178 3.09262 10.4175 3.10352 12.4687C3.10352 20.3728 7.91602 22.1083 12.4952 22.6771C12.0154 23.1728 11.6454 23.7641 11.4092 24.4122C11.173 25.0606 11.0759 25.7512 11.1244 26.4396V32.0833H21.3327Z" stroke="white" stroke-linecap="round" stroke-linejoin="round"/>
</svg>
