<svg version="1.1" id="esl-logo" xmlns="http://www.w3.org/2000/svg" xmlns:xlink="http://www.w3.org/1999/xlink"
     viewBox="0 0 400 400" enable-background="new 0 0 400 400" xml:space="preserve">
  <symbol id="esl-logo-star" viewBox="-4.5 -4.5 9 9" stroke-width="0.3">
    <polygon points="0,4.5 0.32,1.45 0.96,2.41 0.64,0.96 2.25,2.25 0.96,0.64 2.41,0.96 1.45,0.32 4.5,0 1.45,-0.32 2.41,-0.96 0.96,-0.64 2.25,-2.25 0.64,-0.96 0.96,-2.41 0.32,-1.45 0,-4.5 -0.32,-1.45 -0.96,-2.41 -0.64,-0.96 -2.25,-2.25 -0.96,-0.64 -2.41,-0.96 -1.45,-0.32 -4.5,0 -1.45,0.32 -2.41,0.96 -0.96,0.64 -2.25,2.25 -0.64,0.96 -0.96,2.41 -0.32,1.45 	"/>
  </symbol>

  <g id="esl-logo-shield" class="shield">
	  <path id="esl-logo-shield-main" fill="none" stroke="#C6361A" stroke-miterlimit="10" d="M200.05,294.75c-0.3,0-0.6,0-0.9-0.1 c-0.7-0.2-73.1-17-73.1-96.9v-56.3c0-1.8,1.1-3.5,2.8-4.1l69.6-26.3c1-0.4,2.1-0.4,3.1,0l69.6,26.3c1.7,0.6,2.8,2.3,2.8,4.1v56.3 c0,79.9-72.3,96.8-73.1,96.9C200.65,294.75,200.35,294.75,200.05,294.75L200.05,294.75z"/>
    <path id="esl-logo-shield-main-right" fill="none" stroke="#FF5D24" stroke-miterlimit="10" d="M200.05,110.75v184 c0.3,0,0.6,0,0.9-0.1c0.7-0.2,73.1-17,73.1-96.9v-56.3c0-1.8-1.1-3.5-2.8-4.1l-69.6-26.3 C201.05,110.85,200.55,110.75,200.05,110.75L200.05,110.75z"/>
    <path id="esl-logo-shield-inner" fill="none" stroke="#C6361A" stroke-miterlimit="10" d="M200.05,283.05c-0.3,0-0.5,0-0.8-0.1 c-0.6-0.2-63.8-14.8-63.8-84.6v-49.1c0-1.6,1-3.1,2.4-3.6l60.8-23c0.9-0.3,1.8-0.3,2.7,0l60.8,23c1.5,0.5,2.4,2,2.4,3.6v49.1 c0,69.8-63.1,84.5-63.8,84.6C200.55,283.05,200.35,283.05,200.05,283.05L200.05,283.05z"/>
    <path id="esl-logo-shield-inner-right" fill="none" stroke="#FF5D24" stroke-miterlimit="10" d="M200.05,122.45v160.7 c0.3,0,0.5,0,0.8-0.1c0.6-0.2,63.8-14.8,63.8-84.6v-49.1c0-1.6-1-3.1-2.4-3.6l-60.8-23C200.95,122.55,200.45,122.45,200.05,122.45 L200.05,122.45z"/>

    <g id="esl-logo-shield-stars" fill="#FF5D24">
			<use xlink:href="#esl-logo-star" width="9" height="9" x="-4.5" y="-4.5" transform="matrix(1 0 0 -1 200 283.2)"/>
      <use xlink:href="#esl-logo-star" width="9" height="9" x="-4.5" y="-4.5" transform="matrix(1 0 0 -1 200 295.25)"/>
      <use xlink:href="#esl-logo-star" width="9" height="9" x="-4.5" y="-4.5" transform="matrix(1 0 0 -1 160.75 275.05)"/>
      <use xlink:href="#esl-logo-star" width="9" height="9" x="-4.5" y="-4.5" transform="matrix(1 0 0 -1 131.3063 232.05)"/>
      <use xlink:href="#esl-logo-star" width="9" height="9" x="-4.5" y="-4.5" transform="matrix(1 0 0 -1 200.05 122.45)"/>
      <use xlink:href="#esl-logo-star" width="9" height="9" x="-4.5" y="-4.5" transform="matrix(1 0 0 -1 274.05 191.25)"/>
      <use xlink:href="#esl-logo-star" width="9" height="9" x="-4.5" y="-4.5" transform="matrix(1 0 0 -1 268.65 232.1)"/>
      <use xlink:href="#esl-logo-star" width="9" height="9" x="-4.5" y="-4.5" transform="matrix(1 0 0 -1 238.85 275.05)"/>
      <use xlink:href="#esl-logo-star" width="9" height="9" x="-4.5" y="-4.5" transform="matrix(1 0 0 -1 199.9 110.75)"/>
      <use xlink:href="#esl-logo-star" width="9" height="9" x="-4.5" y="-4.5" transform="matrix(1 0 0 -1 273.95 139.2)"/>
      <use xlink:href="#esl-logo-star" width="9" height="9" x="-4.5" y="-4.5" transform="matrix(1 0 0 -1 263.85 146.95)"/>
      <use xlink:href="#esl-logo-star" width="9" height="9" x="-4.5" y="-4.5" transform="matrix(1 0 0 -1 200 200)"/>
      <use xlink:href="#esl-logo-star" width="9" height="9" x="-4.5" y="-4.5" transform="matrix(1 0 0 -1 125.95 191.25)"/>
      <use xlink:href="#esl-logo-star" width="9" height="9" x="-4.5" y="-4.5" transform="matrix(1 0 0 -1 136.05 146.95)"/>
      <use xlink:href="#esl-logo-star" width="9" height="9" x="-4.5" y="-4.5" transform="matrix(1 0 0 -1 126.05 138.9)"/>
	  </g>
  </g>

  <g id="esl-logo-wrenches" class="wrenches">
	  <g id="esl-logo-wrench-right" class="w-r">
		  <path id="esl-logo-wrench-right-main" fill="none" stroke="#FFFFFF" stroke-miterlimit="10" d="M291.71,121.67 c-4.7-4.7-12.3-4.7-17,0l-37.7,37.7c-11.6-4.9-25.6-2.7-35.1,6.8c-6.9,6.9-10,16.1-9.3,25.1l15.8-15.8l23.2,6.2l6.2,23.2 l-15.8,15.8c9,0.7,18.2-2.4,25.1-9.3c9.5-9.5,11.8-23.5,6.8-35.1l37.7-37.7C296.41,133.97,296.41,126.37,291.71,121.67 L291.71,121.67z"/>

      <g id="esl-logo-wrench-right-stars" fill="#FFFFFF">
				<use xlink:href="#esl-logo-star" width="9" height="9" x="-4.5" y="-4.5" transform="matrix(1 0 0 -1 237.75 204.8021)"/>
        <use xlink:href="#esl-logo-star" width="9" height="9" x="-4.5" y="-4.5" transform="matrix(1 0 0 -1 250.3125 207.7688)"/>
        <use xlink:href="#esl-logo-star" width="9" height="9" x="-4.5" y="-4.5" transform="matrix(1 0 0 -1 253.9125 176.7688)"/>
        <use xlink:href="#esl-logo-star" width="9" height="9" x="-4.5" y="-4.5" transform="matrix(1 0 0 -1 220.8125 220.7688)"/>
        <use xlink:href="#esl-logo-star" width="9" height="9" x="-4.5" y="-4.5" transform="matrix(1 0 0 -1 291.4375 121.3563)"/>
        <use xlink:href="#esl-logo-star" width="9" height="9" x="-4.5" y="-4.5" transform="matrix(1 0 0 -1 231.5906 181.6938)"/>
        <use xlink:href="#esl-logo-star" width="9" height="9" x="-4.5" y="-4.5" transform="matrix(1 0 0 -1 208.4125 175.4187)"/>
        <use xlink:href="#esl-logo-star" width="9" height="9" x="-4.5" y="-4.5" transform="matrix(1 0 0 -1 205.0313 163.3)"/>
        <use xlink:href="#esl-logo-star" width="9" height="9" x="-4.5" y="-4.5" transform="matrix(1 0 0 -1 192.5625 191.0305)"/>
        <use xlink:href="#esl-logo-star" width="9" height="9" x="-4.5" y="-4.5" transform="matrix(1 0 0 -1 237.4125 158.9188)"/>
		  </g>
	  </g>

    <g id="esl-logo-wrench-left" class="w-l">
      <path id="esl-logo-wrench-left-main" fill="none" stroke="#FFFFFF" stroke-miterlimit="10" d="M108.29,278.33 c4.7,4.7,12.3,4.7,17,0l37.7-37.7c11.6,4.9,25.6,2.7,35.1-6.8c6.9-6.9,10-16.1,9.3-25.1l-15.8,15.8l-23.2-6.2l-6.2-23.2l15.8-15.8 c-9-0.7-18.2,2.4-25.1,9.3c-9.5,9.5-11.8,23.5-6.8,35.1l-37.7,37.7C103.59,266.03,103.59,273.63,108.29,278.33L108.29,278.33z"/>

      <g id="esl-logo-wrench-left-stars" fill="#FFFFFF">
				<use xlink:href="#esl-logo-star" width="9" height="9" x="-4.5" y="-4.5" transform="matrix(-1 0 0 1 162.25 195.1979)"/>
        <use xlink:href="#esl-logo-star" width="9" height="9" x="-4.5" y="-4.5" transform="matrix(-1 0 0 1 149.6875 192.2312)"/>
        <use xlink:href="#esl-logo-star" width="9" height="9" x="-4.5" y="-4.5" transform="matrix(-1 0 0 1 146.0875 223.2312)"/>
        <use xlink:href="#esl-logo-star" width="9" height="9" x="-4.5" y="-4.5" transform="matrix(-1 0 0 1 179.1875 179.2312)"/>
        <use xlink:href="#esl-logo-star" width="9" height="9" x="-4.5" y="-4.5" transform="matrix(-1 0 0 1 108.5625 278.6437)"/>
        <use xlink:href="#esl-logo-star" width="9" height="9" x="-4.5" y="-4.5" transform="matrix(-1 0 0 1 168.4094 218.3062)"/>
        <use xlink:href="#esl-logo-star" width="9" height="9" x="-4.5" y="-4.5" transform="matrix(-1 0 0 1 191.5875 224.5813)"/>
        <use xlink:href="#esl-logo-star" width="9" height="9" x="-4.5" y="-4.5" transform="matrix(-1 0 0 1 194.9687 236.7)"/>
        <use xlink:href="#esl-logo-star" width="9" height="9" x="-4.5" y="-4.5" transform="matrix(-1 0 0 1 207.4375 208.9695)"/>
        <use xlink:href="#esl-logo-star" width="9" height="9" x="-4.5" y="-4.5" transform="matrix(-1 0 0 1 162.5875 241.0812)"/>
		  </g>
	  </g>
  </g>

  <g id="esl-logo-border">
    <polygon id="esl-logo-border-inner" fill="none" stroke="#98C6FF" stroke-miterlimit="10" points="200,41.43 120.72,62.68 62.68,120.72 41.43,200 62.68,279.28 120.72,337.32 200,358.57 279.28,337.32 337.32,279.28 358.57,200 337.32,120.72 279.28,62.68"/>
    <polygon id="esl-logo-border-outer" fill="none" stroke="#7BD0D3" stroke-miterlimit="10" points="245.55,30 154.45,30 75.55,75.55 30,154.45 30,245.55 75.55,324.45 154.45,370 245.55,370 324.45,324.45 370,245.55 370,154.45 324.45,75.55 	"/>

    <g id="esl-logo-border-outer-stars" fill="#98C6FF">
			<use xlink:href="#esl-logo-star" width="9" height="9" x="-4.5" y="-4.5" transform="matrix(0.9694 0 0 -0.9694 30.3621 154.5613)"/>
      <use xlink:href="#esl-logo-star" width="9" height="9" x="-4.5" y="-4.5" transform="matrix(0.9694 0 0 -0.9694 75.8513 75.7907)"/>
      <use xlink:href="#esl-logo-star" width="9" height="9" x="-4.5" y="-4.5" transform="matrix(0.9694 0 0 -0.9694 30.3621 245.4691)"/>
      <use xlink:href="#esl-logo-star" width="9" height="9" x="-4.5" y="-4.5" transform="matrix(0.9694 0 0 -0.9694 75.8597 324.2177)"/>
      <use xlink:href="#esl-logo-star" width="9" height="9" x="-4.5" y="-4.5" transform="matrix(0.9694 0 0 -0.9694 154.6007 369.6379)"/>
      <use xlink:href="#esl-logo-star" width="9" height="9" x="-4.5" y="-4.5" transform="matrix(0.9694 0 0 -0.9694 245.51 369.6379)"/>
      <use xlink:href="#esl-logo-star" width="9" height="9" x="-4.5" y="-4.5" transform="matrix(0.9694 0 0 -0.9694 324.1992 324.1537)"/>
      <use xlink:href="#esl-logo-star" width="9" height="9" x="-4.5" y="-4.5" transform="matrix(0.9694 0 0 -0.9694 369.6379 245.431)"/>
      <use xlink:href="#esl-logo-star" width="9" height="9" x="-4.5" y="-4.5" transform="matrix(0.9694 0 0 -0.9694 369.6379 154.5814)"/>
      <use xlink:href="#esl-logo-star" width="9" height="9" x="-4.5" y="-4.5" transform="matrix(0.9694 0 0 -0.9694 324.1762 75.83)"/>
      <use xlink:href="#esl-logo-star" width="9" height="9" x="-4.5" y="-4.5" transform="matrix(0.9694 0 0 -0.9694 245.4394 30.3621)"/>
      <use xlink:href="#esl-logo-star" width="9" height="9" x="-4.5" y="-4.5" transform="matrix(0.9694 0 0 -0.9694 154.5007 30.3621)"/>
	  </g>

    <g id="esl-logo-border-inner-stars" fill="#98C6FF">
			<use xlink:href="#esl-logo-star"  width="9" height="9" x="-4.5" y="-4.5" transform="matrix(0.9882 0 0 -0.9882 41.4623 200)"/>
      <use xlink:href="#esl-logo-star"  width="9" height="9" x="-4.5" y="-4.5" transform="matrix(0.9882 0 0 -0.9882 358.5689 200)"/>
      <use xlink:href="#esl-logo-star"  width="9" height="9" x="-4.5" y="-4.5" transform="matrix(0.9882 0 0 -0.9882 337.342 120.7311)"/>
      <use xlink:href="#esl-logo-star"  width="9" height="9" x="-4.5" y="-4.5" transform="matrix(0.9882 0 0 -0.9882 200.0002 358.5595)"/>
      <use xlink:href="#esl-logo-star"  width="9" height="9" x="-4.5" y="-4.5" transform="matrix(0.9882 0 0 -0.9882 62.7284 279.239)"/>
      <use xlink:href="#esl-logo-star"  width="9" height="9" x="-4.5" y="-4.5" transform="matrix(0.9882 0 0 -0.9882 120.7148 337.2759)"/>
      <use xlink:href="#esl-logo-star"  width="9" height="9" x="-4.5" y="-4.5" transform="matrix(0.9882 0 0 -0.9882 279.2918 337.2883)"/>
      <use xlink:href="#esl-logo-star"  width="9" height="9" x="-4.5" y="-4.5" transform="matrix(0.9882 0 0 -0.9882 337.3204 279.2751)"/>
      <use xlink:href="#esl-logo-star"  width="9" height="9" x="-4.5" y="-4.5" transform="matrix(0.9882 0 0 -0.9882 62.7387 120.7516)"/>
      <use xlink:href="#esl-logo-star"  width="9" height="9" x="-4.5" y="-4.5" transform="matrix(0.9882 0 0 -0.9882 200.0002 41.4416)"/>
      <use xlink:href="#esl-logo-star"  width="9" height="9" x="-4.5" y="-4.5" transform="matrix(0.9882 0 0 -0.9882 279.2692 62.7076)"/>
      <use xlink:href="#esl-logo-star"  width="9" height="9" x="-4.5" y="-4.5" transform="matrix(0.9882 0 0 -0.9882 120.7467 62.7076)"/>
	  </g>
  </g>
</svg>
