<?xml version="1.0" encoding="utf-8"?>
<svg xmlns="http://www.w3.org/2000/svg" viewBox="0 0 400 400" fill="#fff">
  <g class="shield">
    <path class="s-l" fill="#C6361A" fill-rule="evenodd" d="M200 292c-.3 0-.6 0-.9-.1-.7-.2-73.1-17-73.1-96.9v-56.3c0-1.8 1.1-3.5 2.8-4.1l69.6-26.3c1-.4 2.1-.4 3.1 0l69.6 26.3c1.7.6 2.8 2.3 2.8 4.1V195c0 79.9-72.3 96.8-73.1 96.9-.2.1-.5.1-.8.1z" />
    <path class="s-r" fill="#FF5D24" fill-rule="evenodd" clip-rule="evenodd" d="M200 108v184c.3 0 .6 0 .9-.1.7-.2 73.1-17 73.1-96.9v-56.3c0-1.8-1.1-3.5-2.8-4.1l-69.6-26.3c-.6-.2-1.1-.3-1.6-.3z" />
  </g>
  <g class="wrenches">
    <path class="w-l" fill-rule="evenodd" d="M207.7 207.3l-15.8 15.8-23.2-6.2-6.2-23.2 15.8-15.8c-9-.7-18.2 2.4-25.1 9.3-9.5 9.5-11.8 23.5-6.8 35.1L108.6 260c-4.7 4.7-4.7 12.3 0 17s12.3 4.7 17 0l37.7-37.7c11.6 4.9 25.6 2.7 35.1-6.8 6.9-6.9 10-16.2 9.3-25.2z" clip-rule="evenodd" />
    <path class="w-r" fill-rule="evenodd" d="M292 122.6c-4.7-4.7-12.3-4.7-17 0l-37.7 37.7c-11.6-4.9-25.6-2.7-35.1 6.8-6.9 6.9-10 16.1-9.3 25.1l15.8-15.8 23.2 6.2 6.2 23.2-15.8 15.8c9 .7 18.2-2.4 25.1-9.3 9.5-9.5 11.8-23.5 6.8-35.1l37.7-37.7c4.8-4.6 4.8-12.2.1-16.9z" clip-rule="evenodd" />
  </g>
  <path class="border" d="M199.5 39.5c-88.4 0-160 71.6-160 160s71.6 160 160 160 160-71.6 160-160-71.6-160-160-160zm0 308c-81.7 0-148-66.3-148-148s66.3-148 148-148 148 66.3 148 148-66.3 148-148 148z" />
</svg>
