<svg viewBox="0 0 65 60" fill="none" xmlns="http://www.w3.org/2000/svg"><path d="m41.68 29.282-.072-.125a2.091 2.091 0 0 0-2.352-.974l-.14.037-.101-.102-2.152-2.151a.922.922 0 0 0-1.303 0m6.12 3.315-6.12-3.315m6.12 3.315h.145m-.144 0h.144m-6.266-3.315a.922.922 0 0 0 0 1.303m0-1.303v1.303m0 0 2.152 2.152M35.56 27.27l2.151 2.152m4.114-.14h9.098a.922.922 0 0 1 0 1.844h-9.242l-.072.124a2.091 2.091 0 0 1-3.833-1.587l.037-.14m4.012-.241-4.012.242m0 0-.102-.102m.102.102-.102-.102" fill="#0097E7" stroke="#0097E7" stroke-width=".5"/><path d="M39.797 7c-7.618 0-14.389 3.69-18.622 9.375H10.5c-.647 0-.5.478-.5 1.125s-.147 1.22.5 1.22h9.14a23.081 23.081 0 0 0-1.804 3.987c-.023-.001-.047-.004-.071-.004H4.172c-.647 0-.672.65-.672 1.297 0 .647.025 1.047.672 1.047h13a23.117 23.117 0 0 0-.55 3.985l.878-3.985c-.647 0-.878 4.51-.878 5.156 0 .648-.098 3.005.55 3.005l-.55-1.833a23.042 23.042 0 0 0 3.018 10.313H4.172c-.647 0-.672.665-.672 1.312s.025 1.032.672 1.032h17.003c4.233 5.685 11.004 9.375 18.622 9.375C52.59 53.407 63 42.998 63 30.204 63 17.408 52.59 7 39.797 7Zm0 44.063c-11.502 0-20.86-9.358-20.86-20.86 0-11.502 9.357-20.86 20.86-20.86 11.502 0 20.86 9.358 20.86 20.86 0 11.503-9.358 20.86-20.86 20.86Z" fill="#0097E7" stroke="#0097E7" stroke-width=".5"/><path d="M39.144 40.679a.933.933 0 0 1 .653-.27.93.93 0 0 1 .652.27.93.93 0 0 1 .27.652.93.93 0 0 1-.27.651.932.932 0 0 1-.652.27.936.936 0 0 1-.653-.27.93.93 0 0 1-.269-.651.93.93 0 0 1 .269-.652ZM39.145 18.425a.926.926 0 0 0-.27.651c0 .243.098.481.27.652.171.171.41.27.652.27a.93.93 0 0 0 .652-.27.93.93 0 0 0 .27-.652.931.931 0 0 0-.27-.651m-1.304 0-.177-.177c.218-.218.52-.344.829-.344.308 0 .61.126.828.344l-.176.177m-1.304 0a.929.929 0 0 1 .652-.27c.242 0 .48.099.652.27m-1.304 0h1.304M28.018 29.552a.93.93 0 0 1 .652-.27.93.93 0 0 1 .652.27.93.93 0 0 1 .27.652.93.93 0 0 1-.27.651.93.93 0 0 1-.652.27.93.93 0 0 1-.652-.27.93.93 0 0 1-.27-.651.93.93 0 0 1 .27-.652ZM10.5 37.454H4.172a.421.421 0 0 1-.24-.055.294.294 0 0 1-.106-.146c-.066-.167-.076-.417-.076-.752 0-.338.01-.567.073-.715.027-.064.06-.1.1-.125a.477.477 0 0 1 .249-.051H10.5c.134 0 .186.026.204.039.012.009.03.027.044.091.016.07.019.166.015.302l-.005.135c-.004.1-.008.212-.008.324 0 .11.004.222.008.324l.005.143c.004.142 0 .247-.015.328-.016.076-.038.103-.054.116-.017.014-.065.042-.194.042Z" fill="#0097E7" stroke="#0097E7" stroke-width=".5"/></svg>
