<svg  viewBox="0 0 60 60" fill="none" xmlns="http://www.w3.org/2000/svg"><path d="M15.852 15.13V13.54l1.48.574A11.025 11.025 0 0 1 24.38 24.4V25.858l.708-.325c1.821-.835 2.875-2.232 3.357-3.896.477-1.645.392-3.532-.009-5.39-.768-3.559-2.817-7.826-6.049-12.674L20.627.935l2.114.705c.908.303.948.316 1.183.392 7.91 2.55 14.54 7.359 16.03 15.305l.174.932.67-.67 2.305-2.306.055.073c.214.285.501.672.838 1.153.672.961 1.54 2.3 2.4 3.947 1.719 3.298 3.39 7.813 3.39 13.002 0 11.167-9.04 20.249-20.143 20.249-11.104 0-20.143-9.082-20.143-20.249 0-5.197 1.815-7.814 3.46-10.189l.003-.003.013-.018c.742-1.072 1.467-2.118 2-3.383.54-1.282.876-2.772.876-4.745Zm14.71.658.488-.106-.488.106c1.036 4.8-.15 7.884-1.868 9.77-1.745 1.916-4.082 2.646-5.403 2.647h-1.088V24.4c0-2.82-1.37-5.448-3.565-7.095l-.666-.5-.128.823c-.481 3.112-1.827 5.06-3.093 6.887l.41.285-.41-.285-.012.017c-.76 1.097-1.533 2.212-2.108 3.607-.582 1.41-.955 3.088-.955 5.328 0 9.963 8.056 18.073 17.967 18.073 9.91 0 17.966-8.11 17.966-18.073 0-4.72-1.61-9.834-4.447-14.296l-.334-.526-.441.44-4.305 4.305v-2.696c0-6.585-3.75-11.708-10.743-14.997l-1.426-.67.778 1.37c1.985 3.494 3.277 6.64 3.87 9.39Z" fill="#0097E7" stroke="#0097E7"/></svg>
