<svg xmlns="http://www.w3.org/2000/svg" xml:space="preserve" fill="#fff" stroke="#fff" viewBox="-564.38 -564.38 2085.34 2085.34"><path stroke="#0082CA" stroke-linecap="round" stroke-linejoin="round" stroke-width="91.83" d="M872.23 488.12a14.22 14.22 0 0 0-22.57-8.03L682.53 609.88a14.22 14.22 0 0 0 3.96 24.63l60.38 21.46a320.72 320.72 0 0 1-97.65 96.93 317.55 317.55 0 0 1-120.93 45.62V334.25h160.3a50 50 0 0 0 0-100h-58.1a165.64 165.64 0 0 0 14.38-67.67C644.87 74.73 570.14 0 478.29 0S311.7 74.73 311.7 166.58c0 24.08 5.14 46.98 14.38 67.67h-58.11a50 50 0 0 0 0 100h160.3v464.27a317.55 317.55 0 0 1-120.92-45.62 320.72 320.72 0 0 1-97.65-96.93l60.38-21.47a14.22 14.22 0 0 0 3.96-24.62L106.92 480.09a14.22 14.22 0 0 0-22.57 8.03L36.67 694.28a14.22 14.22 0 0 0 18.61 16.6l58.27-20.72a420.57 420.57 0 0 0 140.2 147.16 417.52 417.52 0 0 0 174.54 62.13v7.13a50 50 0 0 0 100 0v-7.13c62-7.4 121.56-28.5 174.53-62.13a420.6 420.6 0 0 0 140.21-147.16l58.26 20.72a14.22 14.22 0 0 0 18.62-16.6l-47.68-206.16zM478.29 100a66.65 66.65 0 0 1 66.58 66.58 66.65 66.65 0 0 1-66.58 66.58 66.66 66.66 0 0 1-66.58-66.58A66.66 66.66 0 0 1 478.29 100z"/><path d="M872.23 488.12a14.22 14.22 0 0 0-22.57-8.03L682.53 609.88a14.22 14.22 0 0 0 3.96 24.63l60.38 21.46a320.72 320.72 0 0 1-97.65 96.93 317.55 317.55 0 0 1-120.93 45.62V334.25h160.3a50 50 0 0 0 0-100h-58.1a165.64 165.64 0 0 0 14.38-67.67C644.87 74.73 570.14 0 478.29 0S311.7 74.73 311.7 166.58c0 24.08 5.14 46.98 14.38 67.67h-58.11a50 50 0 0 0 0 100h160.3v464.27a317.55 317.55 0 0 1-120.92-45.62 320.72 320.72 0 0 1-97.65-96.93l60.38-21.47a14.22 14.22 0 0 0 3.96-24.62L106.92 480.09a14.22 14.22 0 0 0-22.57 8.03L36.67 694.28a14.22 14.22 0 0 0 18.61 16.6l58.27-20.72a420.57 420.57 0 0 0 140.2 147.16 417.52 417.52 0 0 0 174.54 62.13v7.13a50 50 0 0 0 100 0v-7.13c62-7.4 121.56-28.5 174.53-62.13a420.6 420.6 0 0 0 140.21-147.16l58.26 20.72a14.22 14.22 0 0 0 18.62-16.6l-47.68-206.16zM478.29 100a66.65 66.65 0 0 1 66.58 66.58 66.65 66.65 0 0 1-66.58 66.58 66.66 66.66 0 0 1-66.58-66.58A66.66 66.66 0 0 1 478.29 100z"/></svg>
