<svg xmlns="http://www.w3.org/2000/svg" fill="none" viewBox="0 0 325 63">
  <g fill="#0082CA" stroke="#fff" stroke-linecap="round" stroke-linejoin="round" stroke-width=".959">
    <path d="M108 1H32a4 4 0 0 0-4 4v53a4 4 0 0 0 4 4h76a4 4 0 0 0 4-4V5a4 4 0 0 0-4-4Z"/>
    <path
      d="M76.058 23.875H61.01c-1.187 0-2.15.759-2.15 1.694v11.862c0 .935.963 1.694 2.15 1.694h15.047c1.187 0 2.15-.759 2.15-1.694V25.569c0-.935-.963-1.694-2.15-1.694h.001Z"/>
    <path
      d="m78.208 34.04-5.374-4.235-11.823 9.32m3.759-9.32c.891 0 1.613-.569 1.613-1.27 0-.702-.722-1.271-1.612-1.271-.89 0-1.612.569-1.612 1.27 0 .702.721 1.271 1.612 1.271h-.001Z"/>
    <path
      d="M292.282 1h-76.071c-2.189 0-3.964 1.79-3.964 4v53c0 2.21 1.775 4 3.964 4h76.071c2.19 0 3.965-1.79 3.965-4V5c0-2.21-1.775-4-3.965-4Z"/>
    <path
      d="M262.147 23.875H247.1c-1.187 0-2.15.759-2.15 1.694v11.862c0 .935.963 1.694 2.15 1.694h15.047c1.187 0 2.149-.759 2.149-1.694V25.569c0-.935-.962-1.694-2.149-1.694Z"/>
    <path
      d="m264.296 34.04-5.373-4.235-11.823 9.32m3.76-9.32c.89 0 1.612-.569 1.612-1.27 0-.702-.722-1.271-1.612-1.271-.891 0-1.612.569-1.612 1.27 0 .702.721 1.271 1.612 1.271Z"/>
    <path d="M200.955 1h-76.753a4 4 0 0 0-4 4v53a4 4 0 0 0 4 4h76.753a4 4 0 0 0 4-4V5a4 4 0 0 0-4-4Z"/>
    <path
      d="M169.102 23.875h-15.047c-1.187 0-2.149.759-2.149 1.694v11.862c0 .935.962 1.694 2.149 1.694h15.047c1.187 0 2.15-.759 2.15-1.694V25.569c0-.935-.963-1.694-2.15-1.694Z"/>
    <path
      d="m171.252 34.04-5.374-4.235-11.822 9.32m3.759-9.32c.891 0 1.612-.569 1.612-1.27 0-.702-.721-1.271-1.612-1.271-.89 0-1.612.569-1.612 1.27 0 .702.722 1.271 1.612 1.271Z"/>
  </g>
  <path fill="#DAE3FE"
        d="M19.105 16.347 7.993 32.576l11.382 16.131c1.145 1.62 2.285 2.42 1.168 4.051-1.117 1.631-5.224 1.666-6.368.044L1.873 35.522c-1.144-1.62-1.166-4.249-.05-5.88l11.765-17.4c1.116-1.632 5.223-1.666 6.367-.043 1.116 1.62.267 2.517-.85 4.148Zm285.79-1 11.112 16.229-11.382 16.131c-1.145 1.62-2.285 2.42-1.168 4.051 1.117 1.631 5.224 1.666 6.368.044l12.302-17.28c1.144-1.62 1.166-4.249.05-5.88l-11.765-17.4c-1.116-1.632-5.223-1.666-6.367-.043-1.116 1.62-.267 2.517.85 4.148Z"/>
</svg>
