<svg fill="none" xmlns="http://www.w3.org/2000/svg" viewBox="0 0 265 132"><g clip-path="url(#a)"><path d="M261 .5H4C2.067.5.5 2.067.5 4v124c0 1.933 1.567 3.5 3.5 3.5h257c1.933 0 3.5-1.567 3.5-3.5V4c0-1.933-1.567-3.5-3.5-3.5Z" stroke="#0082CA"/><path d="M256 13h-1c-.552 0-1 .4477-1 1v105c0 .552.448 1 1 1h1c.552 0 1-.448 1-1V14c0-.5523-.448-1-1-1Z" fill="#ADD1FA"/><path d="M256 25h-1c-.552 0-1 .4477-1 1v51c0 .5523.448 1 1 1h1c.552 0 1-.4477 1-1V26c0-.5523-.448-1-1-1Z" fill="#0082CA"/><path d="M238 13.5H22c-1.933 0-3.5 1.567-3.5 3.5s1.567 3.5 3.5 3.5h216c1.933 0 3.5-1.567 3.5-3.5s-1.567-3.5-3.5-3.5ZM238 27.5H22c-1.933 0-3.5 1.567-3.5 3.5s1.567 3.5 3.5 3.5h216c1.933 0 3.5-1.567 3.5-3.5s-1.567-3.5-3.5-3.5ZM238 41.5H22c-1.933 0-3.5 1.567-3.5 3.5s1.567 3.5 3.5 3.5h216c1.933 0 3.5-1.567 3.5-3.5s-1.567-3.5-3.5-3.5ZM237 97.5H21c-1.933 0-3.5 1.567-3.5 3.5s1.567 3.5 3.5 3.5h216c1.933 0 3.5-1.567 3.5-3.5s-1.567-3.5-3.5-3.5ZM238 55.5H22c-1.933 0-3.5 1.567-3.5 3.5s1.567 3.5 3.5 3.5h216c1.933 0 3.5-1.567 3.5-3.5s-1.567-3.5-3.5-3.5ZM237 111.5H21c-1.933 0-3.5 1.567-3.5 3.5s1.567 3.5 3.5 3.5h216c1.933 0 3.5-1.567 3.5-3.5s-1.567-3.5-3.5-3.5ZM238 69.5H22c-1.933 0-3.5 1.567-3.5 3.5s1.567 3.5 3.5 3.5h216c1.933 0 3.5-1.567 3.5-3.5s-1.567-3.5-3.5-3.5ZM238 83.5H22c-1.933 0-3.5 1.567-3.5 3.5s1.567 3.5 3.5 3.5h216c1.933 0 3.5-1.567 3.5-3.5s-1.567-3.5-3.5-3.5Z" fill="#ADD1FA"/><g filter="url(#b)"><path d="M176.27 88.28c-.28-.36-.63-1.09-1.24-2-.35-.5-1.21-1.45-1.47-1.94-.187-.2978-.242-.6604-.15-1 .157-.6458.77-1.0742 1.43-1 .511.1026.98.353 1.35.72.258.2432.496.5074.71.79.16.2.2.28.38.51.18.23.3.46.21.12-.07-.5-.19-1.34-.36-2.09-.13-.57-.16-.66-.28-1.09-.12-.43-.19-.79-.32-1.28-.119-.4814-.212-.9688-.28-1.46-.126-.6283-.034-1.2808.26-1.85.349-.3286.862-.4154 1.3-.22.441.3253.769.7796.94 1.3.262.6404.437 1.3131.52 2 .16 1 .47 2.46.48 2.76 0-.37-.07-1.15 0-1.5.069-.3649.323-.6677.67-.8.298-.0914.613-.1119.92-.06.31.0648.585.2431.77.5.232.5834.36 1.2026.38 1.83.027-.5494.121-1.0935.28-1.62.167-.2355.411-.4052.69-.48.331-.0605.669-.0605 1 0 .271.0906.508.2615.68.49.212.5303.34 1.0903.38 1.66 0 .14.07-.39.29-.74.114-.3394.401-.592.752-.6627.351-.0707.713.0513.95.32s.312.6433.198.9827v2.26c-.036.5852-.117 1.1668-.24 1.74-.174.5071-.416.9882-.72 1.43-.486.54-.887 1.1502-1.19 1.81-.075.3278-.109.6638-.1 1-.001.3106.039.62.12.92-.409.0432-.821.0432-1.23 0-.39-.06-.87-.84-1-1.08-.064-.1289-.196-.2103-.34-.2103-.144 0-.276.0814-.34.2103-.22.38-.71 1.07-1.05 1.11-.67.08-2.05 0-3.14 0 0 0 .18-1-.23-1.36-.41-.36-.83-.78-1.14-1.06l-.84-.96Z" fill="#fff"/><path clip-rule="evenodd" d="M176.27 88.28c-.28-.36-.63-1.09-1.24-2-.35-.5-1.21-1.45-1.47-1.94-.187-.2978-.242-.6604-.15-1 .157-.6458.77-1.0742 1.43-1 .511.1026.98.353 1.35.72.258.2432.496.5074.71.79.16.2.2.28.38.51.18.23.3.46.21.12-.07-.5-.19-1.34-.36-2.09-.13-.57-.16-.66-.28-1.09-.12-.43-.19-.79-.32-1.28-.119-.4814-.212-.9688-.28-1.46-.126-.6283-.034-1.2808.26-1.85.349-.3286.862-.4154 1.3-.22.441.3253.769.7796.94 1.3.262.6404.437 1.3131.52 2 .16 1 .47 2.46.48 2.76 0-.37-.07-1.15 0-1.5.069-.3649.323-.6677.67-.8.298-.0914.613-.1119.92-.06.31.0648.585.2431.77.5.232.5834.36 1.2026.38 1.83.027-.5494.121-1.0935.28-1.62.167-.2355.411-.4052.69-.48.331-.0605.669-.0605 1 0 .271.0906.508.2615.68.49.212.5303.34 1.0903.38 1.66 0 .14.07-.39.29-.74.114-.3394.401-.592.752-.6627.351-.0707.713.0513.95.32s.312.6433.198.9827v2.26c-.036.5852-.117 1.1668-.24 1.74-.174.5071-.416.9882-.72 1.43-.486.54-.887 1.1502-1.19 1.81-.075.3278-.109.6638-.1 1-.001.3106.039.62.12.92-.409.0432-.821.0432-1.23 0-.39-.06-.87-.84-1-1.08-.064-.1289-.196-.2103-.34-.2103-.144 0-.276.0814-.34.2103-.22.38-.71 1.07-1.05 1.11-.67.08-2.05 0-3.14 0 0 0 .18-1-.23-1.36-.41-.36-.83-.78-1.14-1.06l-.84-.96Z" stroke="#000" stroke-width=".75" stroke-linecap="round" stroke-linejoin="round"/><path d="M184.75 88.8259v-3.4518c0-.2066-.168-.3741-.375-.3741s-.375.1675-.375.3741v3.4518c0 .2066.168.3741.375.3741s.375-.1675.375-.3741ZM182.77 88.8246l-.02-3.4535c-.001-.2062-.17-.3723-.377-.3711-.207.0012-.374.1693-.373.3754l.02 3.4535c.001.2061.17.3723.377.3711.207-.0012.374-.1693.373-.3754ZM180 85.379l.02 3.4464c.001.2081.17.3758.377.3746.207-.0012.374-.1709.373-.379l-.02-3.4464c-.001-.2081-.17-.3758-.377-.3746-.207.0012-.374.1709-.373.379Z" fill="#000"/></g></g><defs><filter id="b" x="172.191" y="76.0118" width="16.7461" height="17.8588" filterUnits="userSpaceOnUse" color-interpolation-filters="sRGB"><feFlood flood-opacity="0" result="BackgroundImageFix"/><feColorMatrix in="SourceAlpha" values="0 0 0 0 0 0 0 0 0 0 0 0 0 0 0 0 0 0 127 0" result="hardAlpha"/><feOffset dy="1"/><feGaussianBlur stdDeviation=".4"/><feColorMatrix values="0 0 0 0 0 0 0 0 0 0 0 0 0 0 0 0 0 0 0.5 0"/><feBlend in2="BackgroundImageFix" result="effect1_dropShadow_401_130"/><feBlend in="SourceGraphic" in2="effect1_dropShadow_401_130" result="shape"/></filter><clipPath id="a"><path fill="#fff" d="M0 0h265v132H0z"/></clipPath></defs></svg>