<svg width="265" height="154" fill="none" xmlns="http://www.w3.org/2000/svg"><path fill="#0082CA" d="M0 0h265v40H0z"/><rect x=".5" y="45.5" width="264" height="108" rx="3.5" stroke="#DAE3FE"/><rect x="20.5" y="57.5" width="224" height="7" rx="3.5" fill="#DAE3FE" stroke="#DAE3FE"/><rect x="20.5" y="69.5" width="223" height="7" rx="3.5" fill="#DAE3FE" stroke="#DAE3FE"/><rect x="20.5" y="81.5" width="223" height="7" rx="3.5" fill="#DAE3FE" stroke="#DAE3FE"/><rect x="20.5" y="93.5" width="223" height="7" rx="3.5" fill="#DAE3FE" stroke="#DAE3FE"/><rect x="20.5" y="105.5" width="223" height="7" rx="3.5" fill="#DAE3FE" stroke="#DAE3FE"/><rect x="20.5" y="117.5" width="223" height="7" rx="3.5" fill="#DAE3FE" stroke="#DAE3FE"/><rect x="20.5" y="129.5" width="223" height="7" rx="3.5" fill="#DAE3FE" stroke="#DAE3FE"/><path d="m244.669 17.866 3.333 3.535 3.333-3.535a.821.821 0 0 1 1.211 0 .947.947 0 0 1 0 1.285l-3.943 4.182a.821.821 0 0 1-1.211 0l-3.943-4.182a.947.947 0 0 1 0-1.285.839.839 0 0 1 1.22 0Z" fill="#fff"/></svg>
