<svg width="282" height="158" fill="none" xmlns="http://www.w3.org/2000/svg"><rect x=".5" y=".5" width="281" height="157" rx="7.5" fill="#0082CA" stroke="#DAE3FE"/><path d="m30 138-12 6.928v-13.856L30 138Z" fill="#fff"/><rect x="110" y="136" width="155" height="4" rx="2" fill="#fff" fill-opacity=".36"/><rect x="110" y="136" width="66" height="4" rx="2" fill="#fff"/><path d="M42.753 142h4.588v-.781h-3.38v-.057l1.633-1.747c1.25-1.339 1.62-1.964 1.62-2.77 0-1.122-.91-2.017-2.188-2.017-1.275 0-2.245.866-2.245 2.145h.838c0-.828.537-1.378 1.378-1.378.788 0 1.392.483 1.392 1.25 0 .671-.394 1.168-1.236 2.088l-2.4 2.628V142Zm7.18-.93c.351 0 .639-.288.639-.64a.641.641 0 0 0-.64-.639.641.641 0 0 0-.639.639c0 .352.288.64.64.64Zm0-3.679c.351 0 .639-.288.639-.64a.641.641 0 0 0-.64-.639.641.641 0 0 0-.639.639c0 .352.288.64.64.64Zm5.185-2.664h-.88l-1.819 1.208v.895l1.776-1.179h.043V142h.88v-7.273Zm4.964 7.372c1.605 0 2.528-1.36 2.528-3.735 0-2.358-.937-3.736-2.528-3.736-1.59 0-2.528 1.378-2.528 3.736 0 2.375.923 3.735 2.528 3.735Zm0-.781c-1.058 0-1.676-1.062-1.676-2.954 0-1.89.625-2.969 1.676-2.969s1.676 1.079 1.676 2.969c0 1.892-.618 2.954-1.676 2.954Zm10.276-6.932h-.767l-2.344 8.708h.767l2.344-8.708Zm4.62 6.123h3.424V142h.838v-1.491h.995v-.782h-.995v-5h-1.065l-3.196 5.057v.725Zm3.424-.782h-2.471v-.057l2.414-3.821h.057v3.878Zm4.288 1.343c.352 0 .64-.288.64-.64a.641.641 0 0 0-.64-.639.641.641 0 0 0-.639.639c0 .352.288.64.64.64Zm0-3.679c.352 0 .64-.288.64-.64a.641.641 0 0 0-.64-.639.641.641 0 0 0-.639.639c0 .352.288.64.64.64Zm5.001 4.708c1.605 0 2.529-1.36 2.529-3.735 0-2.358-.938-3.736-2.529-3.736-1.59 0-2.528 1.378-2.528 3.736 0 2.375.923 3.735 2.528 3.735Zm0-.781c-1.058 0-1.676-1.062-1.676-2.954 0-1.89.625-2.969 1.676-2.969 1.052 0 1.677 1.079 1.677 2.969 0 1.892-.618 2.954-1.677 2.954Zm6.75.781c1.605 0 2.529-1.36 2.529-3.735 0-2.358-.938-3.736-2.529-3.736-1.59 0-2.528 1.378-2.528 3.736 0 2.375.923 3.735 2.528 3.735Zm0-.781c-1.058 0-1.676-1.062-1.676-2.954 0-1.89.625-2.969 1.676-2.969 1.052 0 1.677 1.079 1.677 2.969 0 1.892-.618 2.954-1.677 2.954Z" fill="#fff"/></svg>
