<svg width="245" height="161" viewBox="0 0 245 161" fill="none" xmlns="http://www.w3.org/2000/svg"><rect width="245" height="161" rx="4" fill="#0082CA"/><path d="M126.666 67h-23.333a3.333 3.333 0 0 0-3.334 3.333v23.334A3.333 3.333 0 0 0 103.334 97h23.333A3.334 3.334 0 0 0 130 93.667V70.333A3.334 3.334 0 0 0 126.666 67Z" stroke="#fff" stroke-width=".959" stroke-linecap="round" stroke-linejoin="round"/><path d="M109.164 78.664a2.5 2.5 0 1 0 0-5 2.5 2.5 0 0 0 0 5ZM130.001 86.997l-8.334-8.333-18.333 18.333" stroke="#fff" stroke-width=".959" stroke-linecap="round" stroke-linejoin="round"/></svg>
