<svg viewBox="0 0 282 40" fill="none" xmlns="http://www.w3.org/2000/svg"><path d="M8 .5h266a7.5 7.5 0 0 1 7.5 7.5v24a7.5 7.5 0 0 1-7.5 7.5H8A7.5 7.5 0 0 1 .5 32V8A7.5 7.5 0 0 1 8 .5Z" fill="#0082CA" stroke="#DAE3FE"/><path d="m57.669 16.866 3.333 3.535 3.333-3.535a.822.822 0 0 1 1.211 0 .947.947 0 0 1 0 1.285l-3.943 4.182a.822.822 0 0 1-1.211 0l-3.943-4.182a.947.947 0 0 1 0-1.285.839.839 0 0 1 1.22 0ZM156.669 16.866l3.333 3.535 3.333-3.535a.821.821 0 0 1 1.211 0 .947.947 0 0 1 0 1.285l-3.943 4.182a.821.821 0 0 1-1.211 0l-3.943-4.182a.947.947 0 0 1 0-1.285.839.839 0 0 1 1.22 0ZM251.669 16.866l3.333 3.535 3.333-3.535a.821.821 0 0 1 1.211 0 .947.947 0 0 1 0 1.285l-3.943 4.182a.821.821 0 0 1-1.211 0l-3.943-4.182a.947.947 0 0 1 0-1.285.839.839 0 0 1 1.22 0ZM10.88 15.727V23h.824v-5.526h.072L14.048 23h.796l2.272-5.526h.072V23h.823v-7.273h-1.05l-2.472 6.037h-.086l-2.471-6.037H10.88ZM20.278 23h4.446v-.781h-3.565v-2.472h3.281v-.781h-3.281v-2.457h3.508v-.782h-4.389V23Zm12.244-7.273h-.867v5.725h-.07l-3.978-5.725h-.852V23h.88v-5.71h.071L31.67 23h.852v-7.273Zm7.035 0v4.745c0 1.065-.732 1.832-1.946 1.832-1.215 0-1.946-.767-1.946-1.832v-4.745h-.881v4.816c0 1.491 1.115 2.585 2.827 2.585 1.711 0 2.826-1.094 2.826-2.585v-4.816h-.88Zm8.88 0h-.88l-1.818 1.208v.895l1.775-1.18h.043V23h.88v-7.273ZM110.881 15.727V23h.824v-5.526h.071L114.048 23h.796l2.272-5.526h.072V23h.823v-7.273h-1.051l-2.471 6.037h-.086l-2.471-6.037h-1.051ZM120.277 23h4.446v-.781h-3.565v-2.472h3.281v-.781h-3.281v-2.457h3.508v-.782h-4.389V23Zm12.244-7.273h-.867v5.725h-.071l-3.977-5.725h-.852V23h.88v-5.71h.071l3.964 5.71h.852v-7.273Zm7.035 0v4.745c0 1.065-.732 1.832-1.946 1.832-1.215 0-1.946-.767-1.946-1.832v-4.745h-.881v4.816c0 1.491 1.115 2.585 2.827 2.585 1.711 0 2.826-1.094 2.826-2.585v-4.816h-.88ZM145.88 23h4.588v-.781h-3.381v-.057l1.634-1.747c1.25-1.339 1.619-1.964 1.619-2.77 0-1.122-.909-2.017-2.187-2.017-1.275 0-2.245.866-2.245 2.145h.838c0-.828.536-1.378 1.378-1.378.788 0 1.392.483 1.392 1.25 0 .671-.394 1.168-1.236 2.088l-2.4 2.628V23ZM204.881 15.727V23h.824v-5.526h.071L208.048 23h.796l2.272-5.526h.072V23h.823v-7.273h-1.051l-2.471 6.037h-.086l-2.471-6.037h-1.051ZM214.277 23h4.446v-.781h-3.565v-2.472h3.281v-.781h-3.281v-2.457h3.508v-.782h-4.389V23Zm12.244-7.273h-.867v5.725h-.071l-3.977-5.725h-.852V23h.88v-5.71h.071l3.964 5.71h.852v-7.273Zm7.035 0v4.745c0 1.065-.732 1.832-1.946 1.832-1.215 0-1.946-.767-1.946-1.832v-4.745h-.881v4.816c0 1.491 1.115 2.585 2.827 2.585 1.711 0 2.826-1.094 2.826-2.585v-4.816h-.88Zm8.781 7.372c1.41 0 2.458-.884 2.458-2.073 0-.924-.547-1.595-1.464-1.748v-.056c.736-.224 1.194-.828 1.194-1.648 0-1.03-.814-1.946-2.159-1.946-1.258 0-2.302.774-2.344 1.918h.852c.032-.725.721-1.151 1.477-1.151.803 0 1.321.486 1.321 1.221 0 .768-.6 1.265-1.463 1.265h-.582v.78h.582c1.105 0 1.719.562 1.719 1.365 0 .77-.671 1.292-1.605 1.292-.842 0-1.509-.433-1.563-1.136h-.894c.053 1.143 1.061 1.917 2.471 1.917Z" fill="#fff"/></svg>
