<svg viewBox="0 0 250 165" fill="none" xmlns="http://www.w3.org/2000/svg"><rect x=".456" y=".456" width="249.088" height="163.321" rx="3.193" stroke="#0082CA" stroke-width=".912"/><rect x="45.621" y="44.709" width="190.693" height="14.598" rx="7.299" fill="#DAE3FE"/><rect x="12.774" y="14.598" width="190.693" height="18.248" rx="7.299" fill="#0082CA"/><rect x="45.621" y="71.168" width="159.672" height="14.598" rx="7.299" fill="#DAE3FE"/><rect x="45.621" y="97.627" width="138.686" height="14.598" rx="7.299" fill="#DAE3FE"/><rect x="45.621" y="124.088" width="177.007" height="14.598" rx="7.299" fill="#DAE3FE"/><g clip-path="url(#a)"><rect x="13.686" y="47.446" width="12.774" height="12.774" rx=".912" stroke="#C8D0DF" stroke-width="1.825"/></g><g clip-path="url(#b)"><rect x="13.686" y="72.993" width="12.774" height="12.774" rx=".912" stroke="#C8D0DF" stroke-width="1.825"/></g><g clip-path="url(#c)"><rect x="13.686" y="98.539" width="12.774" height="12.774" rx=".912" stroke="#C8D0DF" stroke-width="1.825"/></g><g clip-path="url(#d)"><rect x="13.686" y="124.088" width="12.774" height="12.774" rx=".912" stroke="#C8D0DF" stroke-width="1.825"/></g><defs><clipPath id="a"><path fill="#fff" transform="translate(12.774 46.533)" d="M0 0h14.598v14.598H0z"/></clipPath><clipPath id="b"><path fill="#fff" transform="translate(12.774 72.08)" d="M0 0h14.598v14.598H0z"/></clipPath><clipPath id="c"><path fill="#fff" transform="translate(12.774 97.627)" d="M0 0h14.598v14.598H0z"/></clipPath><clipPath id="d"><path fill="#fff" transform="translate(12.774 123.176)" d="M0 0h14.598v14.598H0z"/></clipPath></defs></svg>
