<svg xmlns="http://www.w3.org/2000/svg" width="185" height="38" fill="none">
  <mask id="path-1-outside-1_42:122" width="184" height="37" x=".38" y=".144" fill="#000" maskUnits="userSpaceOnUse">
    <path fill="#fff" d="M.38.144h184v37H.38z"/>
    <path d="M16.26 22.64 3.38 17.376v-3.072L16.26 9.04v2.72L6.052 15.824 16.26 19.92v2.72Zm13.84 5.68c-2.89 0-5.055-.704-6.495-2.112-1.44-1.419-2.16-3.723-2.16-6.912 0-3.008.656-5.253 1.968-6.736 1.312-1.493 3.11-2.24 5.392-2.24 2.24 0 3.962.747 5.168 2.24 1.205 1.493 1.808 3.765 1.808 6.816v.96H24.82c.064 1.963.55 3.344 1.456 4.144.906.8 2.325 1.2 4.256 1.2.661 0 1.354-.053 2.08-.16a22.487 22.487 0 0 0 2.272-.496v2.624c-.864.235-1.686.405-2.464.512a17.07 17.07 0 0 1-2.32.16Zm-1.327-15.712c-1.206 0-2.16.416-2.864 1.248-.694.821-1.062 2.277-1.104 4.368h7.808c-.032-2.08-.379-3.536-1.04-4.368-.662-.832-1.595-1.248-2.8-1.248ZM45.248 28.32c-1.856 0-3.542-.24-5.056-.72v-2.576c1.653.49 3.333.736 5.04.736 1.397 0 2.4-.224 3.008-.672.618-.448.928-1.077.928-1.888 0-.683-.182-1.2-.544-1.552-.352-.363-.95-.635-1.792-.816l-2.496-.496c-1.61-.32-2.768-.88-3.472-1.68-.694-.8-1.04-1.845-1.04-3.136 0-1.525.597-2.773 1.792-3.744 1.194-.97 3.034-1.456 5.52-1.456.768 0 1.51.048 2.224.144a14.53 14.53 0 0 1 2.048.384v2.576a16.137 16.137 0 0 0-4.192-.544c-1.6 0-2.704.25-3.312.752-.608.49-.912 1.093-.912 1.808 0 .597.165 1.088.496 1.472.341.373.933.656 1.776.848l2.496.48c1.59.33 2.746.875 3.472 1.632.736.757 1.104 1.819 1.104 3.184 0 1.632-.608 2.917-1.824 3.856-1.206.939-2.96 1.408-5.264 1.408ZM57.212 28V2.144h3.344V28h-3.344Zm9.412-7.632v-2.784h9.312v2.784h-9.312ZM82.006 35.04V10.592h2.832l.224 1.904h.176c.512-.65 1.173-1.173 1.984-1.568.81-.405 1.733-.608 2.768-.608 1.259 0 2.41.283 3.456.848 1.056.565 1.899 1.483 2.528 2.752.64 1.259.96 2.944.96 5.056 0 3.104-.768 5.435-2.304 6.992-1.525 1.557-3.76 2.336-6.704 2.336-.448 0-.896-.021-1.344-.064a17.664 17.664 0 0 1-1.232-.128v6.928h-3.344Zm5.952-9.376c1.845 0 3.237-.496 4.176-1.488.939-.992 1.408-2.635 1.408-4.928 0-1.59-.192-2.827-.576-3.712-.373-.896-.896-1.52-1.568-1.872-.661-.363-1.419-.544-2.272-.544-.704 0-1.392.15-2.064.448-.672.299-1.243.768-1.712 1.408v10.416c.352.085.763.155 1.232.208.47.043.928.064 1.376.064Zm18.674 2.624c-1.685 0-3.008-.432-3.968-1.296-.949-.864-1.424-2.043-1.424-3.536 0-1.547.518-2.757 1.552-3.632 1.046-.875 2.726-1.413 5.04-1.616l3.633-.368v-1.104c0-1.461-.352-2.453-1.056-2.976-.704-.533-1.798-.8-3.281-.8-.661 0-1.408.059-2.24.176a14.27 14.27 0 0 0-2.464.576v-2.624a14.562 14.562 0 0 1 2.576-.576 19.606 19.606 0 0 1 2.64-.192c1.59 0 2.907.208 3.952.624 1.056.405 1.84 1.088 2.352 2.048.523.96.785 2.272.785 3.936V28h-2.769l-.24-1.872h-.192a5.175 5.175 0 0 1-2.128 1.616 7 7 0 0 1-2.768.544Zm-2.048-5.136c0 1.792.998 2.688 2.992 2.688.683 0 1.36-.139 2.032-.416.683-.277 1.302-.741 1.857-1.392V19.92l-3.345.336c-1.258.128-2.165.432-2.72.912-.544.48-.816 1.141-.816 1.984ZM120.675 28V10.592h2.784l.24 1.904h.192c1.418-1.45 3.2-2.176 5.344-2.176 1.109 0 2.09.208 2.944.624.864.416 1.541 1.093 2.032 2.032.49.928.736 2.17.736 3.728V28h-3.344V16.88c0-1.355-.294-2.299-.88-2.832-.587-.533-1.387-.8-2.4-.8-.715 0-1.472.16-2.272.48-.79.31-1.467.832-2.032 1.568V28h-3.344Zm27.97.32c-2.891 0-5.057-.704-6.497-2.112-1.44-1.419-2.16-3.723-2.16-6.912 0-3.008.656-5.253 1.968-6.736 1.312-1.493 3.11-2.24 5.392-2.24 2.24 0 3.963.747 5.168 2.24 1.206 1.493 1.809 3.765 1.809 6.816v.96h-10.96c.064 1.963.549 3.344 1.455 4.144.907.8 2.326 1.2 4.257 1.2.661 0 1.354-.053 2.08-.16a22.476 22.476 0 0 0 2.271-.496v2.624c-.864.235-1.685.405-2.463.512-.779.107-1.552.16-2.32.16Zm-1.329-15.712c-1.205 0-2.16.416-2.864 1.248-.693.821-1.061 2.277-1.104 4.368h7.809c-.032-2.08-.379-3.536-1.04-4.368-.662-.832-1.595-1.248-2.801-1.248ZM159.343 28V2.144h3.345V28h-3.345Zm9.412-5.36v-2.72l10.224-4.096-10.224-4.064V9.04l12.88 5.264v3.072l-12.88 5.264Z"/>
  </mask>
  <path fill="#fff" d="M16.26 22.64 3.38 17.376v-3.072L16.26 9.04v2.72L6.052 15.824 16.26 19.92v2.72Zm13.84 5.68c-2.89 0-5.055-.704-6.495-2.112-1.44-1.419-2.16-3.723-2.16-6.912 0-3.008.656-5.253 1.968-6.736 1.312-1.493 3.11-2.24 5.392-2.24 2.24 0 3.962.747 5.168 2.24 1.205 1.493 1.808 3.765 1.808 6.816v.96H24.82c.064 1.963.55 3.344 1.456 4.144.906.8 2.325 1.2 4.256 1.2.661 0 1.354-.053 2.08-.16a22.487 22.487 0 0 0 2.272-.496v2.624c-.864.235-1.686.405-2.464.512a17.07 17.07 0 0 1-2.32.16Zm-1.327-15.712c-1.206 0-2.16.416-2.864 1.248-.694.821-1.062 2.277-1.104 4.368h7.808c-.032-2.08-.379-3.536-1.04-4.368-.662-.832-1.595-1.248-2.8-1.248ZM45.248 28.32c-1.856 0-3.542-.24-5.056-.72v-2.576c1.653.49 3.333.736 5.04.736 1.397 0 2.4-.224 3.008-.672.618-.448.928-1.077.928-1.888 0-.683-.182-1.2-.544-1.552-.352-.363-.95-.635-1.792-.816l-2.496-.496c-1.61-.32-2.768-.88-3.472-1.68-.694-.8-1.04-1.845-1.04-3.136 0-1.525.597-2.773 1.792-3.744 1.194-.97 3.034-1.456 5.52-1.456.768 0 1.51.048 2.224.144a14.53 14.53 0 0 1 2.048.384v2.576a16.137 16.137 0 0 0-4.192-.544c-1.6 0-2.704.25-3.312.752-.608.49-.912 1.093-.912 1.808 0 .597.165 1.088.496 1.472.341.373.933.656 1.776.848l2.496.48c1.59.33 2.746.875 3.472 1.632.736.757 1.104 1.819 1.104 3.184 0 1.632-.608 2.917-1.824 3.856-1.206.939-2.96 1.408-5.264 1.408ZM57.212 28V2.144h3.344V28h-3.344Zm9.412-7.632v-2.784h9.312v2.784h-9.312ZM82.006 35.04V10.592h2.832l.224 1.904h.176c.512-.65 1.173-1.173 1.984-1.568.81-.405 1.733-.608 2.768-.608 1.259 0 2.41.283 3.456.848 1.056.565 1.899 1.483 2.528 2.752.64 1.259.96 2.944.96 5.056 0 3.104-.768 5.435-2.304 6.992-1.525 1.557-3.76 2.336-6.704 2.336-.448 0-.896-.021-1.344-.064a17.664 17.664 0 0 1-1.232-.128v6.928h-3.344Zm5.952-9.376c1.845 0 3.237-.496 4.176-1.488.939-.992 1.408-2.635 1.408-4.928 0-1.59-.192-2.827-.576-3.712-.373-.896-.896-1.52-1.568-1.872-.661-.363-1.419-.544-2.272-.544-.704 0-1.392.15-2.064.448-.672.299-1.243.768-1.712 1.408v10.416c.352.085.763.155 1.232.208.47.043.928.064 1.376.064Zm18.674 2.624c-1.685 0-3.008-.432-3.968-1.296-.949-.864-1.424-2.043-1.424-3.536 0-1.547.518-2.757 1.552-3.632 1.046-.875 2.726-1.413 5.04-1.616l3.633-.368v-1.104c0-1.461-.352-2.453-1.056-2.976-.704-.533-1.798-.8-3.281-.8-.661 0-1.408.059-2.24.176a14.27 14.27 0 0 0-2.464.576v-2.624a14.562 14.562 0 0 1 2.576-.576 19.606 19.606 0 0 1 2.64-.192c1.59 0 2.907.208 3.952.624 1.056.405 1.84 1.088 2.352 2.048.523.96.785 2.272.785 3.936V28h-2.769l-.24-1.872h-.192a5.175 5.175 0 0 1-2.128 1.616 7 7 0 0 1-2.768.544Zm-2.048-5.136c0 1.792.998 2.688 2.992 2.688.683 0 1.36-.139 2.032-.416.683-.277 1.302-.741 1.857-1.392V19.92l-3.345.336c-1.258.128-2.165.432-2.72.912-.544.48-.816 1.141-.816 1.984ZM120.675 28V10.592h2.784l.24 1.904h.192c1.418-1.45 3.2-2.176 5.344-2.176 1.109 0 2.09.208 2.944.624.864.416 1.541 1.093 2.032 2.032.49.928.736 2.17.736 3.728V28h-3.344V16.88c0-1.355-.294-2.299-.88-2.832-.587-.533-1.387-.8-2.4-.8-.715 0-1.472.16-2.272.48-.79.31-1.467.832-2.032 1.568V28h-3.344Zm27.97.32c-2.891 0-5.057-.704-6.497-2.112-1.44-1.419-2.16-3.723-2.16-6.912 0-3.008.656-5.253 1.968-6.736 1.312-1.493 3.11-2.24 5.392-2.24 2.24 0 3.963.747 5.168 2.24 1.206 1.493 1.809 3.765 1.809 6.816v.96h-10.96c.064 1.963.549 3.344 1.455 4.144.907.8 2.326 1.2 4.257 1.2.661 0 1.354-.053 2.08-.16a22.476 22.476 0 0 0 2.271-.496v2.624c-.864.235-1.685.405-2.463.512-.779.107-1.552.16-2.32.16Zm-1.329-15.712c-1.205 0-2.16.416-2.864 1.248-.693.821-1.061 2.277-1.104 4.368h7.809c-.032-2.08-.379-3.536-1.04-4.368-.662-.832-1.595-1.248-2.801-1.248ZM159.343 28V2.144h3.345V28h-3.345Zm9.412-5.36v-2.72l10.224-4.096-10.224-4.064V9.04l12.88 5.264v3.072l-12.88 5.264Z"/>
  <path stroke="#0097E7" stroke-width="4" d="M16.26 22.64 3.38 17.376v-3.072L16.26 9.04v2.72L6.052 15.824 16.26 19.92v2.72Zm13.84 5.68c-2.89 0-5.055-.704-6.495-2.112-1.44-1.419-2.16-3.723-2.16-6.912 0-3.008.656-5.253 1.968-6.736 1.312-1.493 3.11-2.24 5.392-2.24 2.24 0 3.962.747 5.168 2.24 1.205 1.493 1.808 3.765 1.808 6.816v.96H24.82c.064 1.963.55 3.344 1.456 4.144.906.8 2.325 1.2 4.256 1.2.661 0 1.354-.053 2.08-.16a22.487 22.487 0 0 0 2.272-.496v2.624c-.864.235-1.686.405-2.464.512a17.07 17.07 0 0 1-2.32.16Zm-1.327-15.712c-1.206 0-2.16.416-2.864 1.248-.694.821-1.062 2.277-1.104 4.368h7.808c-.032-2.08-.379-3.536-1.04-4.368-.662-.832-1.595-1.248-2.8-1.248ZM45.248 28.32c-1.856 0-3.542-.24-5.056-.72v-2.576c1.653.49 3.333.736 5.04.736 1.397 0 2.4-.224 3.008-.672.618-.448.928-1.077.928-1.888 0-.683-.182-1.2-.544-1.552-.352-.363-.95-.635-1.792-.816l-2.496-.496c-1.61-.32-2.768-.88-3.472-1.68-.694-.8-1.04-1.845-1.04-3.136 0-1.525.597-2.773 1.792-3.744 1.194-.97 3.034-1.456 5.52-1.456.768 0 1.51.048 2.224.144a14.53 14.53 0 0 1 2.048.384v2.576a16.137 16.137 0 0 0-4.192-.544c-1.6 0-2.704.25-3.312.752-.608.49-.912 1.093-.912 1.808 0 .597.165 1.088.496 1.472.341.373.933.656 1.776.848l2.496.48c1.59.33 2.746.875 3.472 1.632.736.757 1.104 1.819 1.104 3.184 0 1.632-.608 2.917-1.824 3.856-1.206.939-2.96 1.408-5.264 1.408ZM57.212 28V2.144h3.344V28h-3.344Zm9.412-7.632v-2.784h9.312v2.784h-9.312ZM82.006 35.04V10.592h2.832l.224 1.904h.176c.512-.65 1.173-1.173 1.984-1.568.81-.405 1.733-.608 2.768-.608 1.259 0 2.41.283 3.456.848 1.056.565 1.899 1.483 2.528 2.752.64 1.259.96 2.944.96 5.056 0 3.104-.768 5.435-2.304 6.992-1.525 1.557-3.76 2.336-6.704 2.336-.448 0-.896-.021-1.344-.064a17.664 17.664 0 0 1-1.232-.128v6.928h-3.344Zm5.952-9.376c1.845 0 3.237-.496 4.176-1.488.939-.992 1.408-2.635 1.408-4.928 0-1.59-.192-2.827-.576-3.712-.373-.896-.896-1.52-1.568-1.872-.661-.363-1.419-.544-2.272-.544-.704 0-1.392.15-2.064.448-.672.299-1.243.768-1.712 1.408v10.416c.352.085.763.155 1.232.208.47.043.928.064 1.376.064Zm18.674 2.624c-1.685 0-3.008-.432-3.968-1.296-.949-.864-1.424-2.043-1.424-3.536 0-1.547.518-2.757 1.552-3.632 1.046-.875 2.726-1.413 5.04-1.616l3.633-.368v-1.104c0-1.461-.352-2.453-1.056-2.976-.704-.533-1.798-.8-3.281-.8-.661 0-1.408.059-2.24.176a14.27 14.27 0 0 0-2.464.576v-2.624a14.562 14.562 0 0 1 2.576-.576 19.606 19.606 0 0 1 2.64-.192c1.59 0 2.907.208 3.952.624 1.056.405 1.84 1.088 2.352 2.048.523.96.785 2.272.785 3.936V28h-2.769l-.24-1.872h-.192a5.175 5.175 0 0 1-2.128 1.616 7 7 0 0 1-2.768.544Zm-2.048-5.136c0 1.792.998 2.688 2.992 2.688.683 0 1.36-.139 2.032-.416.683-.277 1.302-.741 1.857-1.392V19.92l-3.345.336c-1.258.128-2.165.432-2.72.912-.544.48-.816 1.141-.816 1.984ZM120.675 28V10.592h2.784l.24 1.904h.192c1.418-1.45 3.2-2.176 5.344-2.176 1.109 0 2.09.208 2.944.624.864.416 1.541 1.093 2.032 2.032.49.928.736 2.17.736 3.728V28h-3.344V16.88c0-1.355-.294-2.299-.88-2.832-.587-.533-1.387-.8-2.4-.8-.715 0-1.472.16-2.272.48-.79.31-1.467.832-2.032 1.568V28h-3.344Zm27.97.32c-2.891 0-5.057-.704-6.497-2.112-1.44-1.419-2.16-3.723-2.16-6.912 0-3.008.656-5.253 1.968-6.736 1.312-1.493 3.11-2.24 5.392-2.24 2.24 0 3.963.747 5.168 2.24 1.206 1.493 1.809 3.765 1.809 6.816v.96h-10.96c.064 1.963.549 3.344 1.455 4.144.907.8 2.326 1.2 4.257 1.2.661 0 1.354-.053 2.08-.16a22.476 22.476 0 0 0 2.271-.496v2.624c-.864.235-1.685.405-2.463.512-.779.107-1.552.16-2.32.16Zm-1.329-15.712c-1.205 0-2.16.416-2.864 1.248-.693.821-1.061 2.277-1.104 4.368h7.809c-.032-2.08-.379-3.536-1.04-4.368-.662-.832-1.595-1.248-2.801-1.248ZM159.343 28V2.144h3.345V28h-3.345Zm9.412-5.36v-2.72l10.224-4.096-10.224-4.064V9.04l12.88 5.264v3.072l-12.88 5.264Z" mask="url(#path-1-outside-1_42:122)"/>
</svg>
