<svg xmlns="http://www.w3.org/2000/svg" width="167" height="31" fill="none">
  <mask id="path-1-outside-1_42:118" width="167" height="31" x=".336" y=".144" fill="#000" maskUnits="userSpaceOnUse">
    <path fill="#fff" d="M.336.144h167v31h-167z"/>
    <path d="m16.216 22.64-12.88-5.264v-3.072l12.88-5.264v2.72L6.008 15.824l10.208 4.096v2.72Zm13.841 5.68c-2.89 0-5.056-.704-6.496-2.112-1.44-1.419-2.16-3.723-2.16-6.912 0-3.008.656-5.253 1.968-6.736 1.312-1.493 3.11-2.24 5.392-2.24 2.24 0 3.963.747 5.168 2.24 1.205 1.493 1.808 3.765 1.808 6.816v.96h-10.96c.064 1.963.55 3.344 1.456 4.144.907.8 2.325 1.2 4.256 1.2.661 0 1.355-.053 2.08-.16a22.514 22.514 0 0 0 2.272-.496v2.624c-.864.235-1.685.405-2.464.512-.779.107-1.552.16-2.32.16Zm-1.328-15.712c-1.205 0-2.16.416-2.864 1.248-.693.821-1.061 2.277-1.104 4.368h7.808c-.032-2.08-.379-3.536-1.04-4.368-.661-.832-1.595-1.248-2.8-1.248ZM45.204 28.32c-1.856 0-3.541-.24-5.056-.72v-2.576c1.653.49 3.333.736 5.04.736 1.397 0 2.4-.224 3.008-.672.619-.448.928-1.077.928-1.888 0-.683-.181-1.2-.544-1.552-.352-.363-.95-.635-1.792-.816l-2.496-.496c-1.61-.32-2.768-.88-3.472-1.68-.693-.8-1.04-1.845-1.04-3.136 0-1.525.597-2.773 1.792-3.744 1.195-.97 3.035-1.456 5.52-1.456.768 0 1.51.048 2.224.144a14.53 14.53 0 0 1 2.048.384v2.576a16.138 16.138 0 0 0-4.192-.544c-1.6 0-2.704.25-3.312.752-.608.49-.912 1.093-.912 1.808 0 .597.165 1.088.496 1.472.341.373.933.656 1.776.848l2.496.48c1.59.33 2.747.875 3.472 1.632.736.757 1.104 1.819 1.104 3.184 0 1.632-.608 2.917-1.824 3.856-1.205.939-2.96 1.408-5.264 1.408ZM57.168 28V2.144h3.344V28h-3.344Zm9.412-7.632v-2.784h9.312v2.784H66.58Zm22.124 7.936c-1.877 0-3.333-.475-4.368-1.424-1.024-.95-1.536-2.47-1.536-4.56v-9.024h-3.136v-2.704H82.8l.576-6.272h2.768v6.272h5.184v2.704h-5.184v8.48c0 1.387.272 2.352.816 2.896.555.544 1.403.816 2.544.816.576 0 1.253-.085 2.032-.256v2.752c-.939.213-1.883.32-2.832.32Zm11.51-.016c-1.686 0-3.008-.432-3.968-1.296-.95-.864-1.424-2.043-1.424-3.536 0-1.547.517-2.757 1.552-3.632 1.045-.875 2.725-1.413 5.04-1.616l3.632-.368v-1.104c0-1.461-.352-2.453-1.056-2.976-.704-.533-1.798-.8-3.28-.8-.662 0-1.408.059-2.24.176-.832.117-1.654.31-2.464.576v-2.624a14.54 14.54 0 0 1 2.576-.576 19.594 19.594 0 0 1 2.64-.192c1.589 0 2.906.208 3.952.624 1.056.405 1.84 1.088 2.352 2.048.522.96.784 2.272.784 3.936V28h-2.768l-.24-1.872h-.192a5.182 5.182 0 0 1-2.128 1.616 7.006 7.006 0 0 1-2.768.544Zm-2.048-5.136c0 1.792.997 2.688 2.992 2.688a5.29 5.29 0 0 0 2.032-.416c.682-.277 1.301-.741 1.856-1.392V19.92l-3.344.336c-1.259.128-2.166.432-2.72.912-.544.48-.816 1.141-.816 1.984Zm21.866 5.152c-.971 0-1.957-.07-2.96-.208a17.032 17.032 0 0 1-2.816-.624V2.144h3.344v10.208h.176a5.86 5.86 0 0 1 1.968-1.472c.8-.373 1.717-.56 2.752-.56 1.216 0 2.331.288 3.344.864 1.013.576 1.824 1.499 2.432 2.768.608 1.259.912 2.928.912 5.008 0 6.24-3.051 9.355-9.152 9.344Zm.272-2.624c1.803 0 3.168-.496 4.096-1.488.928-1.003 1.392-2.65 1.392-4.944 0-1.59-.192-2.827-.576-3.712-.373-.885-.896-1.504-1.568-1.856-.661-.363-1.419-.544-2.272-.544a5.37 5.37 0 0 0-2.064.416 4.231 4.231 0 0 0-1.712 1.296v10.48c.352.096.763.181 1.232.256.48.064.971.096 1.472.096Zm18.562 2.64c-1.856 0-3.541-.24-5.056-.72v-2.576c1.654.49 3.334.736 5.04.736 1.398 0 2.4-.224 3.008-.672.619-.448.928-1.077.928-1.888 0-.683-.181-1.2-.544-1.552-.352-.363-.949-.635-1.792-.816l-2.496-.496c-1.61-.32-2.768-.88-3.472-1.68-.693-.8-1.04-1.845-1.04-3.136 0-1.525.598-2.773 1.792-3.744 1.195-.97 3.035-1.456 5.52-1.456.768 0 1.51.048 2.224.144.726.085 1.408.213 2.048.384v2.576a16.134 16.134 0 0 0-4.192-.544c-1.6 0-2.704.25-3.312.752-.608.49-.912 1.093-.912 1.808 0 .597.166 1.088.496 1.472.342.373.934.656 1.776.848l2.496.48c1.59.33 2.747.875 3.472 1.632.736.757 1.104 1.819 1.104 3.184 0 1.632-.608 2.917-1.824 3.856-1.205.939-2.96 1.408-5.264 1.408Zm11.933-5.68v-2.72l10.224-4.096-10.224-4.064V9.04l12.88 5.264v3.072l-12.88 5.264Z"/>
  </mask>
  <path fill="#fff" d="m16.216 22.64-12.88-5.264v-3.072l12.88-5.264v2.72L6.008 15.824l10.208 4.096v2.72Zm13.841 5.68c-2.89 0-5.056-.704-6.496-2.112-1.44-1.419-2.16-3.723-2.16-6.912 0-3.008.656-5.253 1.968-6.736 1.312-1.493 3.11-2.24 5.392-2.24 2.24 0 3.963.747 5.168 2.24 1.205 1.493 1.808 3.765 1.808 6.816v.96h-10.96c.064 1.963.55 3.344 1.456 4.144.907.8 2.325 1.2 4.256 1.2.661 0 1.355-.053 2.08-.16a22.514 22.514 0 0 0 2.272-.496v2.624c-.864.235-1.685.405-2.464.512-.779.107-1.552.16-2.32.16Zm-1.328-15.712c-1.205 0-2.16.416-2.864 1.248-.693.821-1.061 2.277-1.104 4.368h7.808c-.032-2.08-.379-3.536-1.04-4.368-.661-.832-1.595-1.248-2.8-1.248ZM45.204 28.32c-1.856 0-3.541-.24-5.056-.72v-2.576c1.653.49 3.333.736 5.04.736 1.397 0 2.4-.224 3.008-.672.619-.448.928-1.077.928-1.888 0-.683-.181-1.2-.544-1.552-.352-.363-.95-.635-1.792-.816l-2.496-.496c-1.61-.32-2.768-.88-3.472-1.68-.693-.8-1.04-1.845-1.04-3.136 0-1.525.597-2.773 1.792-3.744 1.195-.97 3.035-1.456 5.52-1.456.768 0 1.51.048 2.224.144a14.53 14.53 0 0 1 2.048.384v2.576a16.138 16.138 0 0 0-4.192-.544c-1.6 0-2.704.25-3.312.752-.608.49-.912 1.093-.912 1.808 0 .597.165 1.088.496 1.472.341.373.933.656 1.776.848l2.496.48c1.59.33 2.747.875 3.472 1.632.736.757 1.104 1.819 1.104 3.184 0 1.632-.608 2.917-1.824 3.856-1.205.939-2.96 1.408-5.264 1.408ZM57.168 28V2.144h3.344V28h-3.344Zm9.412-7.632v-2.784h9.312v2.784H66.58Zm22.124 7.936c-1.877 0-3.333-.475-4.368-1.424-1.024-.95-1.536-2.47-1.536-4.56v-9.024h-3.136v-2.704H82.8l.576-6.272h2.768v6.272h5.184v2.704h-5.184v8.48c0 1.387.272 2.352.816 2.896.555.544 1.403.816 2.544.816.576 0 1.253-.085 2.032-.256v2.752c-.939.213-1.883.32-2.832.32Zm11.51-.016c-1.686 0-3.008-.432-3.968-1.296-.95-.864-1.424-2.043-1.424-3.536 0-1.547.517-2.757 1.552-3.632 1.045-.875 2.725-1.413 5.04-1.616l3.632-.368v-1.104c0-1.461-.352-2.453-1.056-2.976-.704-.533-1.798-.8-3.28-.8-.662 0-1.408.059-2.24.176-.832.117-1.654.31-2.464.576v-2.624a14.54 14.54 0 0 1 2.576-.576 19.594 19.594 0 0 1 2.64-.192c1.589 0 2.906.208 3.952.624 1.056.405 1.84 1.088 2.352 2.048.522.96.784 2.272.784 3.936V28h-2.768l-.24-1.872h-.192a5.182 5.182 0 0 1-2.128 1.616 7.006 7.006 0 0 1-2.768.544Zm-2.048-5.136c0 1.792.997 2.688 2.992 2.688a5.29 5.29 0 0 0 2.032-.416c.682-.277 1.301-.741 1.856-1.392V19.92l-3.344.336c-1.259.128-2.166.432-2.72.912-.544.48-.816 1.141-.816 1.984Zm21.866 5.152c-.971 0-1.957-.07-2.96-.208a17.032 17.032 0 0 1-2.816-.624V2.144h3.344v10.208h.176a5.86 5.86 0 0 1 1.968-1.472c.8-.373 1.717-.56 2.752-.56 1.216 0 2.331.288 3.344.864 1.013.576 1.824 1.499 2.432 2.768.608 1.259.912 2.928.912 5.008 0 6.24-3.051 9.355-9.152 9.344Zm.272-2.624c1.803 0 3.168-.496 4.096-1.488.928-1.003 1.392-2.65 1.392-4.944 0-1.59-.192-2.827-.576-3.712-.373-.885-.896-1.504-1.568-1.856-.661-.363-1.419-.544-2.272-.544a5.37 5.37 0 0 0-2.064.416 4.231 4.231 0 0 0-1.712 1.296v10.48c.352.096.763.181 1.232.256.48.064.971.096 1.472.096Zm18.562 2.64c-1.856 0-3.541-.24-5.056-.72v-2.576c1.654.49 3.334.736 5.04.736 1.398 0 2.4-.224 3.008-.672.619-.448.928-1.077.928-1.888 0-.683-.181-1.2-.544-1.552-.352-.363-.949-.635-1.792-.816l-2.496-.496c-1.61-.32-2.768-.88-3.472-1.68-.693-.8-1.04-1.845-1.04-3.136 0-1.525.598-2.773 1.792-3.744 1.195-.97 3.035-1.456 5.52-1.456.768 0 1.51.048 2.224.144.726.085 1.408.213 2.048.384v2.576a16.134 16.134 0 0 0-4.192-.544c-1.6 0-2.704.25-3.312.752-.608.49-.912 1.093-.912 1.808 0 .597.166 1.088.496 1.472.342.373.934.656 1.776.848l2.496.48c1.59.33 2.747.875 3.472 1.632.736.757 1.104 1.819 1.104 3.184 0 1.632-.608 2.917-1.824 3.856-1.205.939-2.96 1.408-5.264 1.408Zm11.933-5.68v-2.72l10.224-4.096-10.224-4.064V9.04l12.88 5.264v3.072l-12.88 5.264Z"/>
  <path stroke="#0097E7" stroke-width="4" d="m16.216 22.64-12.88-5.264v-3.072l12.88-5.264v2.72L6.008 15.824l10.208 4.096v2.72Zm13.841 5.68c-2.89 0-5.056-.704-6.496-2.112-1.44-1.419-2.16-3.723-2.16-6.912 0-3.008.656-5.253 1.968-6.736 1.312-1.493 3.11-2.24 5.392-2.24 2.24 0 3.963.747 5.168 2.24 1.205 1.493 1.808 3.765 1.808 6.816v.96h-10.96c.064 1.963.55 3.344 1.456 4.144.907.8 2.325 1.2 4.256 1.2.661 0 1.355-.053 2.08-.16a22.514 22.514 0 0 0 2.272-.496v2.624c-.864.235-1.685.405-2.464.512-.779.107-1.552.16-2.32.16Zm-1.328-15.712c-1.205 0-2.16.416-2.864 1.248-.693.821-1.061 2.277-1.104 4.368h7.808c-.032-2.08-.379-3.536-1.04-4.368-.661-.832-1.595-1.248-2.8-1.248ZM45.204 28.32c-1.856 0-3.541-.24-5.056-.72v-2.576c1.653.49 3.333.736 5.04.736 1.397 0 2.4-.224 3.008-.672.619-.448.928-1.077.928-1.888 0-.683-.181-1.2-.544-1.552-.352-.363-.95-.635-1.792-.816l-2.496-.496c-1.61-.32-2.768-.88-3.472-1.68-.693-.8-1.04-1.845-1.04-3.136 0-1.525.597-2.773 1.792-3.744 1.195-.97 3.035-1.456 5.52-1.456.768 0 1.51.048 2.224.144a14.53 14.53 0 0 1 2.048.384v2.576a16.138 16.138 0 0 0-4.192-.544c-1.6 0-2.704.25-3.312.752-.608.49-.912 1.093-.912 1.808 0 .597.165 1.088.496 1.472.341.373.933.656 1.776.848l2.496.48c1.59.33 2.747.875 3.472 1.632.736.757 1.104 1.819 1.104 3.184 0 1.632-.608 2.917-1.824 3.856-1.205.939-2.96 1.408-5.264 1.408ZM57.168 28V2.144h3.344V28h-3.344Zm9.412-7.632v-2.784h9.312v2.784H66.58Zm22.124 7.936c-1.877 0-3.333-.475-4.368-1.424-1.024-.95-1.536-2.47-1.536-4.56v-9.024h-3.136v-2.704H82.8l.576-6.272h2.768v6.272h5.184v2.704h-5.184v8.48c0 1.387.272 2.352.816 2.896.555.544 1.403.816 2.544.816.576 0 1.253-.085 2.032-.256v2.752c-.939.213-1.883.32-2.832.32Zm11.51-.016c-1.686 0-3.008-.432-3.968-1.296-.95-.864-1.424-2.043-1.424-3.536 0-1.547.517-2.757 1.552-3.632 1.045-.875 2.725-1.413 5.04-1.616l3.632-.368v-1.104c0-1.461-.352-2.453-1.056-2.976-.704-.533-1.798-.8-3.28-.8-.662 0-1.408.059-2.24.176-.832.117-1.654.31-2.464.576v-2.624a14.54 14.54 0 0 1 2.576-.576 19.594 19.594 0 0 1 2.64-.192c1.589 0 2.906.208 3.952.624 1.056.405 1.84 1.088 2.352 2.048.522.96.784 2.272.784 3.936V28h-2.768l-.24-1.872h-.192a5.182 5.182 0 0 1-2.128 1.616 7.006 7.006 0 0 1-2.768.544Zm-2.048-5.136c0 1.792.997 2.688 2.992 2.688a5.29 5.29 0 0 0 2.032-.416c.682-.277 1.301-.741 1.856-1.392V19.92l-3.344.336c-1.259.128-2.166.432-2.72.912-.544.48-.816 1.141-.816 1.984Zm21.866 5.152c-.971 0-1.957-.07-2.96-.208a17.032 17.032 0 0 1-2.816-.624V2.144h3.344v10.208h.176a5.86 5.86 0 0 1 1.968-1.472c.8-.373 1.717-.56 2.752-.56 1.216 0 2.331.288 3.344.864 1.013.576 1.824 1.499 2.432 2.768.608 1.259.912 2.928.912 5.008 0 6.24-3.051 9.355-9.152 9.344Zm.272-2.624c1.803 0 3.168-.496 4.096-1.488.928-1.003 1.392-2.65 1.392-4.944 0-1.59-.192-2.827-.576-3.712-.373-.885-.896-1.504-1.568-1.856-.661-.363-1.419-.544-2.272-.544a5.37 5.37 0 0 0-2.064.416 4.231 4.231 0 0 0-1.712 1.296v10.48c.352.096.763.181 1.232.256.48.064.971.096 1.472.096Zm18.562 2.64c-1.856 0-3.541-.24-5.056-.72v-2.576c1.654.49 3.334.736 5.04.736 1.398 0 2.4-.224 3.008-.672.619-.448.928-1.077.928-1.888 0-.683-.181-1.2-.544-1.552-.352-.363-.949-.635-1.792-.816l-2.496-.496c-1.61-.32-2.768-.88-3.472-1.68-.693-.8-1.04-1.845-1.04-3.136 0-1.525.598-2.773 1.792-3.744 1.195-.97 3.035-1.456 5.52-1.456.768 0 1.51.048 2.224.144.726.085 1.408.213 2.048.384v2.576a16.134 16.134 0 0 0-4.192-.544c-1.6 0-2.704.25-3.312.752-.608.49-.912 1.093-.912 1.808 0 .597.166 1.088.496 1.472.342.373.934.656 1.776.848l2.496.48c1.59.33 2.747.875 3.472 1.632.736.757 1.104 1.819 1.104 3.184 0 1.632-.608 2.917-1.824 3.856-1.205.939-2.96 1.408-5.264 1.408Zm11.933-5.68v-2.72l10.224-4.096-10.224-4.064V9.04l12.88 5.264v3.072l-12.88 5.264Z" mask="url(#path-1-outside-1_42:118)"/>
</svg>
