<svg xmlns="http://www.w3.org/2000/svg" width="191" height="31" fill="none">
  <mask id="path-1-outside-1_42:128" width="191" height="31" x=".174" y=".144" fill="#000" maskUnits="userSpaceOnUse">
    <path fill="#fff" d="M.174.144h191v31h-191z"/>
    <path d="m16.054 22.64-12.88-5.264v-3.072l12.88-5.264v2.72L5.846 15.824l10.208 4.096v2.72Zm13.841 5.68c-2.891 0-5.056-.704-6.496-2.112-1.44-1.419-2.16-3.723-2.16-6.912 0-3.008.656-5.253 1.968-6.736 1.312-1.493 3.109-2.24 5.392-2.24 2.24 0 3.962.747 5.168 2.24 1.205 1.493 1.808 3.765 1.808 6.816v.96h-10.96c.064 1.963.549 3.344 1.456 4.144.906.8 2.325 1.2 4.256 1.2.66 0 1.354-.053 2.08-.16a22.526 22.526 0 0 0 2.272-.496v2.624c-.864.235-1.686.405-2.464.512-.78.107-1.552.16-2.32.16Zm-1.328-15.712c-1.206 0-2.16.416-2.864 1.248-.694.821-1.062 2.277-1.104 4.368h7.808c-.032-2.08-.38-3.536-1.04-4.368-.662-.832-1.595-1.248-2.8-1.248ZM45.042 28.32c-1.856 0-3.542-.24-5.056-.72v-2.576c1.653.49 3.333.736 5.04.736 1.397 0 2.4-.224 3.008-.672.618-.448.928-1.077.928-1.888 0-.683-.182-1.2-.544-1.552-.352-.363-.95-.635-1.792-.816l-2.496-.496c-1.611-.32-2.768-.88-3.472-1.68-.694-.8-1.04-1.845-1.04-3.136 0-1.525.597-2.773 1.792-3.744 1.194-.97 3.034-1.456 5.52-1.456a16.7 16.7 0 0 1 2.224.144c.725.085 1.408.213 2.048.384v2.576a16.138 16.138 0 0 0-4.192-.544c-1.6 0-2.704.25-3.312.752-.608.49-.912 1.093-.912 1.808 0 .597.165 1.088.496 1.472.34.373.933.656 1.776.848l2.496.48c1.589.33 2.746.875 3.472 1.632.736.757 1.104 1.819 1.104 3.184 0 1.632-.608 2.917-1.824 3.856-1.206.939-2.96 1.408-5.264 1.408ZM57.006 28V2.144h3.344V28h-3.344Zm9.412-7.632v-2.784h9.312v2.784h-9.312Zm19.83 7.952c-1.856 0-3.541-.24-5.056-.72v-2.576c1.653.49 3.333.736 5.04.736 1.397 0 2.4-.224 3.008-.672.619-.448.928-1.077.928-1.888 0-.683-.181-1.2-.544-1.552-.352-.363-.95-.635-1.792-.816l-2.496-.496c-1.61-.32-2.768-.88-3.472-1.68-.694-.8-1.04-1.845-1.04-3.136 0-1.525.597-2.773 1.792-3.744 1.195-.97 3.034-1.456 5.52-1.456.768 0 1.51.048 2.224.144a14.53 14.53 0 0 1 2.048.384v2.576a16.138 16.138 0 0 0-4.192-.544c-1.6 0-2.704.25-3.312.752-.608.49-.912 1.093-.912 1.808 0 .597.165 1.088.496 1.472.341.373.933.656 1.776.848l2.496.48c1.59.33 2.746.875 3.472 1.632.736.757 1.104 1.819 1.104 3.184 0 1.632-.608 2.917-1.824 3.856-1.206.939-2.96 1.408-5.264 1.408Zm19.74 0c-2.89 0-5.056-.704-6.496-2.112-1.44-1.419-2.16-3.723-2.16-6.912 0-3.008.656-5.253 1.968-6.736 1.312-1.493 3.11-2.24 5.392-2.24 2.24 0 3.963.747 5.168 2.24 1.206 1.493 1.808 3.765 1.808 6.816v.96h-10.96c.064 1.963.55 3.344 1.456 4.144.907.8 2.326 1.2 4.256 1.2.662 0 1.355-.053 2.08-.16a22.46 22.46 0 0 0 2.272-.496v2.624c-.864.235-1.685.405-2.464.512a17.08 17.08 0 0 1-2.32.16Zm-1.328-15.712c-1.205 0-2.16.416-2.864 1.248-.693.821-1.061 2.277-1.104 4.368h7.808c-.032-2.08-.378-3.536-1.04-4.368-.661-.832-1.594-1.248-2.8-1.248ZM116.687 28V2.144h3.344V28h-3.344Zm17.22.32c-2.891 0-5.056-.704-6.496-2.112-1.44-1.419-2.16-3.723-2.16-6.912 0-3.008.656-5.253 1.968-6.736 1.312-1.493 3.109-2.24 5.392-2.24 2.24 0 3.963.747 5.168 2.24 1.205 1.493 1.808 3.765 1.808 6.816v.96h-10.96c.064 1.963.549 3.344 1.456 4.144.907.8 2.325 1.2 4.256 1.2.661 0 1.355-.053 2.08-.16a22.52 22.52 0 0 0 2.272-.496v2.624c-.864.235-1.685.405-2.464.512-.779.107-1.552.16-2.32.16Zm-1.328-15.712c-1.205 0-2.16.416-2.864 1.248-.693.821-1.061 2.277-1.104 4.368h7.808c-.032-2.08-.379-3.536-1.04-4.368-.661-.832-1.595-1.248-2.8-1.248Zm19.275 15.712c-2.613 0-4.624-.72-6.032-2.16-1.397-1.45-2.096-3.733-2.096-6.848 0-3.136.757-5.419 2.272-6.848 1.515-1.43 3.669-2.144 6.464-2.144.629 0 1.253.037 1.872.112.629.075 1.227.181 1.792.32v2.752a13.694 13.694 0 0 0-3.264-.416c-1.931 0-3.36.47-4.288 1.408-.928.928-1.392 2.517-1.392 4.768 0 2.293.437 3.915 1.312 4.864.875.939 2.16 1.408 3.856 1.408.544 0 1.12-.048 1.728-.144a16.842 16.842 0 0 0 2.048-.512v2.736a12.96 12.96 0 0 1-4.272.704Zm16.094-.016c-1.877 0-3.333-.475-4.368-1.424-1.024-.95-1.536-2.47-1.536-4.56v-9.024h-3.136v-2.704h3.136l.576-6.272h2.768v6.272h5.184v2.704h-5.184v8.48c0 1.387.272 2.352.816 2.896.555.544 1.403.816 2.544.816.576 0 1.253-.085 2.032-.256v2.752c-.939.213-1.883.32-2.832.32Zm7.014-5.664v-2.72l10.224-4.096-10.224-4.064V9.04l12.88 5.264v3.072l-12.88 5.264Z"/>
  </mask>
  <path fill="#fff" d="m16.054 22.64-12.88-5.264v-3.072l12.88-5.264v2.72L5.846 15.824l10.208 4.096v2.72Zm13.841 5.68c-2.891 0-5.056-.704-6.496-2.112-1.44-1.419-2.16-3.723-2.16-6.912 0-3.008.656-5.253 1.968-6.736 1.312-1.493 3.109-2.24 5.392-2.24 2.24 0 3.962.747 5.168 2.24 1.205 1.493 1.808 3.765 1.808 6.816v.96h-10.96c.064 1.963.549 3.344 1.456 4.144.906.8 2.325 1.2 4.256 1.2.66 0 1.354-.053 2.08-.16a22.526 22.526 0 0 0 2.272-.496v2.624c-.864.235-1.686.405-2.464.512-.78.107-1.552.16-2.32.16Zm-1.328-15.712c-1.206 0-2.16.416-2.864 1.248-.694.821-1.062 2.277-1.104 4.368h7.808c-.032-2.08-.38-3.536-1.04-4.368-.662-.832-1.595-1.248-2.8-1.248ZM45.042 28.32c-1.856 0-3.542-.24-5.056-.72v-2.576c1.653.49 3.333.736 5.04.736 1.397 0 2.4-.224 3.008-.672.618-.448.928-1.077.928-1.888 0-.683-.182-1.2-.544-1.552-.352-.363-.95-.635-1.792-.816l-2.496-.496c-1.611-.32-2.768-.88-3.472-1.68-.694-.8-1.04-1.845-1.04-3.136 0-1.525.597-2.773 1.792-3.744 1.194-.97 3.034-1.456 5.52-1.456a16.7 16.7 0 0 1 2.224.144c.725.085 1.408.213 2.048.384v2.576a16.138 16.138 0 0 0-4.192-.544c-1.6 0-2.704.25-3.312.752-.608.49-.912 1.093-.912 1.808 0 .597.165 1.088.496 1.472.34.373.933.656 1.776.848l2.496.48c1.589.33 2.746.875 3.472 1.632.736.757 1.104 1.819 1.104 3.184 0 1.632-.608 2.917-1.824 3.856-1.206.939-2.96 1.408-5.264 1.408ZM57.006 28V2.144h3.344V28h-3.344Zm9.412-7.632v-2.784h9.312v2.784h-9.312Zm19.83 7.952c-1.856 0-3.541-.24-5.056-.72v-2.576c1.653.49 3.333.736 5.04.736 1.397 0 2.4-.224 3.008-.672.619-.448.928-1.077.928-1.888 0-.683-.181-1.2-.544-1.552-.352-.363-.95-.635-1.792-.816l-2.496-.496c-1.61-.32-2.768-.88-3.472-1.68-.694-.8-1.04-1.845-1.04-3.136 0-1.525.597-2.773 1.792-3.744 1.195-.97 3.034-1.456 5.52-1.456.768 0 1.51.048 2.224.144a14.53 14.53 0 0 1 2.048.384v2.576a16.138 16.138 0 0 0-4.192-.544c-1.6 0-2.704.25-3.312.752-.608.49-.912 1.093-.912 1.808 0 .597.165 1.088.496 1.472.341.373.933.656 1.776.848l2.496.48c1.59.33 2.746.875 3.472 1.632.736.757 1.104 1.819 1.104 3.184 0 1.632-.608 2.917-1.824 3.856-1.206.939-2.96 1.408-5.264 1.408Zm19.74 0c-2.89 0-5.056-.704-6.496-2.112-1.44-1.419-2.16-3.723-2.16-6.912 0-3.008.656-5.253 1.968-6.736 1.312-1.493 3.11-2.24 5.392-2.24 2.24 0 3.963.747 5.168 2.24 1.206 1.493 1.808 3.765 1.808 6.816v.96h-10.96c.064 1.963.55 3.344 1.456 4.144.907.8 2.326 1.2 4.256 1.2.662 0 1.355-.053 2.08-.16a22.46 22.46 0 0 0 2.272-.496v2.624c-.864.235-1.685.405-2.464.512a17.08 17.08 0 0 1-2.32.16Zm-1.328-15.712c-1.205 0-2.16.416-2.864 1.248-.693.821-1.061 2.277-1.104 4.368h7.808c-.032-2.08-.378-3.536-1.04-4.368-.661-.832-1.594-1.248-2.8-1.248ZM116.687 28V2.144h3.344V28h-3.344Zm17.22.32c-2.891 0-5.056-.704-6.496-2.112-1.44-1.419-2.16-3.723-2.16-6.912 0-3.008.656-5.253 1.968-6.736 1.312-1.493 3.109-2.24 5.392-2.24 2.24 0 3.963.747 5.168 2.24 1.205 1.493 1.808 3.765 1.808 6.816v.96h-10.96c.064 1.963.549 3.344 1.456 4.144.907.8 2.325 1.2 4.256 1.2.661 0 1.355-.053 2.08-.16a22.52 22.52 0 0 0 2.272-.496v2.624c-.864.235-1.685.405-2.464.512-.779.107-1.552.16-2.32.16Zm-1.328-15.712c-1.205 0-2.16.416-2.864 1.248-.693.821-1.061 2.277-1.104 4.368h7.808c-.032-2.08-.379-3.536-1.04-4.368-.661-.832-1.595-1.248-2.8-1.248Zm19.275 15.712c-2.613 0-4.624-.72-6.032-2.16-1.397-1.45-2.096-3.733-2.096-6.848 0-3.136.757-5.419 2.272-6.848 1.515-1.43 3.669-2.144 6.464-2.144.629 0 1.253.037 1.872.112.629.075 1.227.181 1.792.32v2.752a13.694 13.694 0 0 0-3.264-.416c-1.931 0-3.36.47-4.288 1.408-.928.928-1.392 2.517-1.392 4.768 0 2.293.437 3.915 1.312 4.864.875.939 2.16 1.408 3.856 1.408.544 0 1.12-.048 1.728-.144a16.842 16.842 0 0 0 2.048-.512v2.736a12.96 12.96 0 0 1-4.272.704Zm16.094-.016c-1.877 0-3.333-.475-4.368-1.424-1.024-.95-1.536-2.47-1.536-4.56v-9.024h-3.136v-2.704h3.136l.576-6.272h2.768v6.272h5.184v2.704h-5.184v8.48c0 1.387.272 2.352.816 2.896.555.544 1.403.816 2.544.816.576 0 1.253-.085 2.032-.256v2.752c-.939.213-1.883.32-2.832.32Zm7.014-5.664v-2.72l10.224-4.096-10.224-4.064V9.04l12.88 5.264v3.072l-12.88 5.264Z"/>
  <path stroke="#0097E7" stroke-width="4" d="m16.054 22.64-12.88-5.264v-3.072l12.88-5.264v2.72L5.846 15.824l10.208 4.096v2.72Zm13.841 5.68c-2.891 0-5.056-.704-6.496-2.112-1.44-1.419-2.16-3.723-2.16-6.912 0-3.008.656-5.253 1.968-6.736 1.312-1.493 3.109-2.24 5.392-2.24 2.24 0 3.962.747 5.168 2.24 1.205 1.493 1.808 3.765 1.808 6.816v.96h-10.96c.064 1.963.549 3.344 1.456 4.144.906.8 2.325 1.2 4.256 1.2.66 0 1.354-.053 2.08-.16a22.526 22.526 0 0 0 2.272-.496v2.624c-.864.235-1.686.405-2.464.512-.78.107-1.552.16-2.32.16Zm-1.328-15.712c-1.206 0-2.16.416-2.864 1.248-.694.821-1.062 2.277-1.104 4.368h7.808c-.032-2.08-.38-3.536-1.04-4.368-.662-.832-1.595-1.248-2.8-1.248ZM45.042 28.32c-1.856 0-3.542-.24-5.056-.72v-2.576c1.653.49 3.333.736 5.04.736 1.397 0 2.4-.224 3.008-.672.618-.448.928-1.077.928-1.888 0-.683-.182-1.2-.544-1.552-.352-.363-.95-.635-1.792-.816l-2.496-.496c-1.611-.32-2.768-.88-3.472-1.68-.694-.8-1.04-1.845-1.04-3.136 0-1.525.597-2.773 1.792-3.744 1.194-.97 3.034-1.456 5.52-1.456a16.7 16.7 0 0 1 2.224.144c.725.085 1.408.213 2.048.384v2.576a16.138 16.138 0 0 0-4.192-.544c-1.6 0-2.704.25-3.312.752-.608.49-.912 1.093-.912 1.808 0 .597.165 1.088.496 1.472.34.373.933.656 1.776.848l2.496.48c1.589.33 2.746.875 3.472 1.632.736.757 1.104 1.819 1.104 3.184 0 1.632-.608 2.917-1.824 3.856-1.206.939-2.96 1.408-5.264 1.408ZM57.006 28V2.144h3.344V28h-3.344Zm9.412-7.632v-2.784h9.312v2.784h-9.312Zm19.83 7.952c-1.856 0-3.541-.24-5.056-.72v-2.576c1.653.49 3.333.736 5.04.736 1.397 0 2.4-.224 3.008-.672.619-.448.928-1.077.928-1.888 0-.683-.181-1.2-.544-1.552-.352-.363-.95-.635-1.792-.816l-2.496-.496c-1.61-.32-2.768-.88-3.472-1.68-.694-.8-1.04-1.845-1.04-3.136 0-1.525.597-2.773 1.792-3.744 1.195-.97 3.034-1.456 5.52-1.456.768 0 1.51.048 2.224.144a14.53 14.53 0 0 1 2.048.384v2.576a16.138 16.138 0 0 0-4.192-.544c-1.6 0-2.704.25-3.312.752-.608.49-.912 1.093-.912 1.808 0 .597.165 1.088.496 1.472.341.373.933.656 1.776.848l2.496.48c1.59.33 2.746.875 3.472 1.632.736.757 1.104 1.819 1.104 3.184 0 1.632-.608 2.917-1.824 3.856-1.206.939-2.96 1.408-5.264 1.408Zm19.74 0c-2.89 0-5.056-.704-6.496-2.112-1.44-1.419-2.16-3.723-2.16-6.912 0-3.008.656-5.253 1.968-6.736 1.312-1.493 3.11-2.24 5.392-2.24 2.24 0 3.963.747 5.168 2.24 1.206 1.493 1.808 3.765 1.808 6.816v.96h-10.96c.064 1.963.55 3.344 1.456 4.144.907.8 2.326 1.2 4.256 1.2.662 0 1.355-.053 2.08-.16a22.46 22.46 0 0 0 2.272-.496v2.624c-.864.235-1.685.405-2.464.512a17.08 17.08 0 0 1-2.32.16Zm-1.328-15.712c-1.205 0-2.16.416-2.864 1.248-.693.821-1.061 2.277-1.104 4.368h7.808c-.032-2.08-.378-3.536-1.04-4.368-.661-.832-1.594-1.248-2.8-1.248ZM116.687 28V2.144h3.344V28h-3.344Zm17.22.32c-2.891 0-5.056-.704-6.496-2.112-1.44-1.419-2.16-3.723-2.16-6.912 0-3.008.656-5.253 1.968-6.736 1.312-1.493 3.109-2.24 5.392-2.24 2.24 0 3.963.747 5.168 2.24 1.205 1.493 1.808 3.765 1.808 6.816v.96h-10.96c.064 1.963.549 3.344 1.456 4.144.907.8 2.325 1.2 4.256 1.2.661 0 1.355-.053 2.08-.16a22.52 22.52 0 0 0 2.272-.496v2.624c-.864.235-1.685.405-2.464.512-.779.107-1.552.16-2.32.16Zm-1.328-15.712c-1.205 0-2.16.416-2.864 1.248-.693.821-1.061 2.277-1.104 4.368h7.808c-.032-2.08-.379-3.536-1.04-4.368-.661-.832-1.595-1.248-2.8-1.248Zm19.275 15.712c-2.613 0-4.624-.72-6.032-2.16-1.397-1.45-2.096-3.733-2.096-6.848 0-3.136.757-5.419 2.272-6.848 1.515-1.43 3.669-2.144 6.464-2.144.629 0 1.253.037 1.872.112.629.075 1.227.181 1.792.32v2.752a13.694 13.694 0 0 0-3.264-.416c-1.931 0-3.36.47-4.288 1.408-.928.928-1.392 2.517-1.392 4.768 0 2.293.437 3.915 1.312 4.864.875.939 2.16 1.408 3.856 1.408.544 0 1.12-.048 1.728-.144a16.842 16.842 0 0 0 2.048-.512v2.736a12.96 12.96 0 0 1-4.272.704Zm16.094-.016c-1.877 0-3.333-.475-4.368-1.424-1.024-.95-1.536-2.47-1.536-4.56v-9.024h-3.136v-2.704h3.136l.576-6.272h2.768v6.272h5.184v2.704h-5.184v8.48c0 1.387.272 2.352.816 2.896.555.544 1.403.816 2.544.816.576 0 1.253-.085 2.032-.256v2.752c-.939.213-1.883.32-2.832.32Zm7.014-5.664v-2.72l10.224-4.096-10.224-4.064V9.04l12.88 5.264v3.072l-12.88 5.264Z" mask="url(#path-1-outside-1_42:128)"/>
</svg>
