<svg xmlns="http://www.w3.org/2000/svg" width="173" height="31" fill="none">
  <mask id="path-1-outside-1_42:121" width="172" height="31" x=".677" y=".144" fill="#000" maskUnits="userSpaceOnUse">
    <path fill="#fff" d="M.677.144h172v31h-172z"/>
    <path d="m16.557 22.64-12.88-5.264v-3.072l12.88-5.264v2.72L6.35 15.824l10.208 4.096v2.72Zm13.841 5.68c-2.891 0-5.056-.704-6.496-2.112-1.44-1.419-2.16-3.723-2.16-6.912 0-3.008.656-5.253 1.968-6.736 1.312-1.493 3.109-2.24 5.392-2.24 2.24 0 3.962.747 5.168 2.24 1.205 1.493 1.808 3.765 1.808 6.816v.96h-10.96c.064 1.963.549 3.344 1.456 4.144.906.8 2.325 1.2 4.256 1.2.661 0 1.354-.053 2.08-.16a22.487 22.487 0 0 0 2.272-.496v2.624c-.864.235-1.686.405-2.464.512a17.07 17.07 0 0 1-2.32.16ZM29.07 12.608c-1.206 0-2.16.416-2.864 1.248-.694.821-1.062 2.277-1.104 4.368h7.808c-.032-2.08-.379-3.536-1.04-4.368-.662-.832-1.595-1.248-2.8-1.248ZM45.545 28.32c-1.856 0-3.542-.24-5.056-.72v-2.576c1.653.49 3.333.736 5.04.736 1.397 0 2.4-.224 3.008-.672.618-.448.928-1.077.928-1.888 0-.683-.182-1.2-.544-1.552-.352-.363-.95-.635-1.792-.816l-2.496-.496c-1.611-.32-2.768-.88-3.472-1.68-.694-.8-1.04-1.845-1.04-3.136 0-1.525.597-2.773 1.792-3.744 1.194-.97 3.034-1.456 5.52-1.456a16.7 16.7 0 0 1 2.224.144 14.53 14.53 0 0 1 2.048.384v2.576a16.138 16.138 0 0 0-4.192-.544c-1.6 0-2.704.25-3.312.752-.608.49-.912 1.093-.912 1.808 0 .597.165 1.088.496 1.472.341.373.933.656 1.776.848l2.496.48c1.589.33 2.746.875 3.472 1.632.736.757 1.104 1.819 1.104 3.184 0 1.632-.608 2.917-1.824 3.856-1.206.939-2.96 1.408-5.264 1.408ZM57.51 28V2.144h3.343V28H57.51Zm9.41-7.632v-2.784h9.313v2.784H66.92Zm19.503 7.92c-1.685 0-3.008-.432-3.968-1.296-.95-.864-1.424-2.043-1.424-3.536 0-1.547.517-2.757 1.552-3.632 1.046-.875 2.725-1.413 5.04-1.616l3.632-.368v-1.104c0-1.461-.352-2.453-1.056-2.976-.704-.533-1.797-.8-3.28-.8-.661 0-1.408.059-2.24.176a14.27 14.27 0 0 0-2.464.576v-2.624a14.544 14.544 0 0 1 2.576-.576 19.599 19.599 0 0 1 2.64-.192c1.59 0 2.907.208 3.952.624 1.056.405 1.84 1.088 2.352 2.048.523.96.784 2.272.784 3.936V28h-2.768l-.24-1.872h-.192a5.179 5.179 0 0 1-2.128 1.616 7.002 7.002 0 0 1-2.768.544Zm-2.048-5.136c0 1.792.998 2.688 2.992 2.688.683 0 1.36-.139 2.032-.416.683-.277 1.302-.741 1.856-1.392V19.92l-3.344.336c-1.258.128-2.165.432-2.72.912-.544.48-.816 1.141-.816 1.984ZM100.465 28V2.144h3.344V28h-3.344Zm17.22.32c-2.891 0-5.056-.704-6.496-2.112-1.44-1.419-2.16-3.723-2.16-6.912 0-3.008.656-5.253 1.968-6.736 1.312-1.493 3.109-2.24 5.392-2.24 2.24 0 3.963.747 5.168 2.24 1.205 1.493 1.808 3.765 1.808 6.816v.96h-10.96c.064 1.963.549 3.344 1.456 4.144.907.8 2.325 1.2 4.256 1.2.661 0 1.355-.053 2.08-.16a22.493 22.493 0 0 0 2.272-.496v2.624c-.864.235-1.685.405-2.464.512-.779.107-1.552.16-2.32.16Zm-1.328-15.712c-1.205 0-2.16.416-2.864 1.248-.693.821-1.061 2.277-1.104 4.368h7.808c-.032-2.08-.379-3.536-1.04-4.368-.661-.832-1.595-1.248-2.8-1.248ZM128.384 28V10.592h2.768l.272 2.304h.176a5.36 5.36 0 0 1 2.16-1.872 6.404 6.404 0 0 1 2.784-.624c.48 0 .944.043 1.392.128v3.056a6.288 6.288 0 0 0-.784-.08 9.447 9.447 0 0 0-.784-.032c-.821 0-1.669.187-2.544.56a4.691 4.691 0 0 0-2.096 1.664V28h-3.344Zm21.061.304c-1.877 0-3.333-.475-4.368-1.424-1.024-.95-1.536-2.47-1.536-4.56v-9.024h-3.136v-2.704h3.136l.576-6.272h2.768v6.272h5.184v2.704h-5.184v8.48c0 1.387.272 2.352.816 2.896.555.544 1.403.816 2.544.816.576 0 1.253-.085 2.032-.256v2.752c-.939.213-1.883.32-2.832.32Zm7.013-5.664v-2.72l10.224-4.096-10.224-4.064V9.04l12.88 5.264v3.072l-12.88 5.264Z"/>
  </mask>
  <path fill="#fff" d="m16.557 22.64-12.88-5.264v-3.072l12.88-5.264v2.72L6.35 15.824l10.208 4.096v2.72Zm13.841 5.68c-2.891 0-5.056-.704-6.496-2.112-1.44-1.419-2.16-3.723-2.16-6.912 0-3.008.656-5.253 1.968-6.736 1.312-1.493 3.109-2.24 5.392-2.24 2.24 0 3.962.747 5.168 2.24 1.205 1.493 1.808 3.765 1.808 6.816v.96h-10.96c.064 1.963.549 3.344 1.456 4.144.906.8 2.325 1.2 4.256 1.2.661 0 1.354-.053 2.08-.16a22.487 22.487 0 0 0 2.272-.496v2.624c-.864.235-1.686.405-2.464.512a17.07 17.07 0 0 1-2.32.16ZM29.07 12.608c-1.206 0-2.16.416-2.864 1.248-.694.821-1.062 2.277-1.104 4.368h7.808c-.032-2.08-.379-3.536-1.04-4.368-.662-.832-1.595-1.248-2.8-1.248ZM45.545 28.32c-1.856 0-3.542-.24-5.056-.72v-2.576c1.653.49 3.333.736 5.04.736 1.397 0 2.4-.224 3.008-.672.618-.448.928-1.077.928-1.888 0-.683-.182-1.2-.544-1.552-.352-.363-.95-.635-1.792-.816l-2.496-.496c-1.611-.32-2.768-.88-3.472-1.68-.694-.8-1.04-1.845-1.04-3.136 0-1.525.597-2.773 1.792-3.744 1.194-.97 3.034-1.456 5.52-1.456a16.7 16.7 0 0 1 2.224.144 14.53 14.53 0 0 1 2.048.384v2.576a16.138 16.138 0 0 0-4.192-.544c-1.6 0-2.704.25-3.312.752-.608.49-.912 1.093-.912 1.808 0 .597.165 1.088.496 1.472.341.373.933.656 1.776.848l2.496.48c1.589.33 2.746.875 3.472 1.632.736.757 1.104 1.819 1.104 3.184 0 1.632-.608 2.917-1.824 3.856-1.206.939-2.96 1.408-5.264 1.408ZM57.51 28V2.144h3.343V28H57.51Zm9.41-7.632v-2.784h9.313v2.784H66.92Zm19.503 7.92c-1.685 0-3.008-.432-3.968-1.296-.95-.864-1.424-2.043-1.424-3.536 0-1.547.517-2.757 1.552-3.632 1.046-.875 2.725-1.413 5.04-1.616l3.632-.368v-1.104c0-1.461-.352-2.453-1.056-2.976-.704-.533-1.797-.8-3.28-.8-.661 0-1.408.059-2.24.176a14.27 14.27 0 0 0-2.464.576v-2.624a14.544 14.544 0 0 1 2.576-.576 19.599 19.599 0 0 1 2.64-.192c1.59 0 2.907.208 3.952.624 1.056.405 1.84 1.088 2.352 2.048.523.96.784 2.272.784 3.936V28h-2.768l-.24-1.872h-.192a5.179 5.179 0 0 1-2.128 1.616 7.002 7.002 0 0 1-2.768.544Zm-2.048-5.136c0 1.792.998 2.688 2.992 2.688.683 0 1.36-.139 2.032-.416.683-.277 1.302-.741 1.856-1.392V19.92l-3.344.336c-1.258.128-2.165.432-2.72.912-.544.48-.816 1.141-.816 1.984ZM100.465 28V2.144h3.344V28h-3.344Zm17.22.32c-2.891 0-5.056-.704-6.496-2.112-1.44-1.419-2.16-3.723-2.16-6.912 0-3.008.656-5.253 1.968-6.736 1.312-1.493 3.109-2.24 5.392-2.24 2.24 0 3.963.747 5.168 2.24 1.205 1.493 1.808 3.765 1.808 6.816v.96h-10.96c.064 1.963.549 3.344 1.456 4.144.907.8 2.325 1.2 4.256 1.2.661 0 1.355-.053 2.08-.16a22.493 22.493 0 0 0 2.272-.496v2.624c-.864.235-1.685.405-2.464.512-.779.107-1.552.16-2.32.16Zm-1.328-15.712c-1.205 0-2.16.416-2.864 1.248-.693.821-1.061 2.277-1.104 4.368h7.808c-.032-2.08-.379-3.536-1.04-4.368-.661-.832-1.595-1.248-2.8-1.248ZM128.384 28V10.592h2.768l.272 2.304h.176a5.36 5.36 0 0 1 2.16-1.872 6.404 6.404 0 0 1 2.784-.624c.48 0 .944.043 1.392.128v3.056a6.288 6.288 0 0 0-.784-.08 9.447 9.447 0 0 0-.784-.032c-.821 0-1.669.187-2.544.56a4.691 4.691 0 0 0-2.096 1.664V28h-3.344Zm21.061.304c-1.877 0-3.333-.475-4.368-1.424-1.024-.95-1.536-2.47-1.536-4.56v-9.024h-3.136v-2.704h3.136l.576-6.272h2.768v6.272h5.184v2.704h-5.184v8.48c0 1.387.272 2.352.816 2.896.555.544 1.403.816 2.544.816.576 0 1.253-.085 2.032-.256v2.752c-.939.213-1.883.32-2.832.32Zm7.013-5.664v-2.72l10.224-4.096-10.224-4.064V9.04l12.88 5.264v3.072l-12.88 5.264Z"/>
  <path stroke="#0097E7" stroke-width="4" d="m16.557 22.64-12.88-5.264v-3.072l12.88-5.264v2.72L6.35 15.824l10.208 4.096v2.72Zm13.841 5.68c-2.891 0-5.056-.704-6.496-2.112-1.44-1.419-2.16-3.723-2.16-6.912 0-3.008.656-5.253 1.968-6.736 1.312-1.493 3.109-2.24 5.392-2.24 2.24 0 3.962.747 5.168 2.24 1.205 1.493 1.808 3.765 1.808 6.816v.96h-10.96c.064 1.963.549 3.344 1.456 4.144.906.8 2.325 1.2 4.256 1.2.661 0 1.354-.053 2.08-.16a22.487 22.487 0 0 0 2.272-.496v2.624c-.864.235-1.686.405-2.464.512a17.07 17.07 0 0 1-2.32.16ZM29.07 12.608c-1.206 0-2.16.416-2.864 1.248-.694.821-1.062 2.277-1.104 4.368h7.808c-.032-2.08-.379-3.536-1.04-4.368-.662-.832-1.595-1.248-2.8-1.248ZM45.545 28.32c-1.856 0-3.542-.24-5.056-.72v-2.576c1.653.49 3.333.736 5.04.736 1.397 0 2.4-.224 3.008-.672.618-.448.928-1.077.928-1.888 0-.683-.182-1.2-.544-1.552-.352-.363-.95-.635-1.792-.816l-2.496-.496c-1.611-.32-2.768-.88-3.472-1.68-.694-.8-1.04-1.845-1.04-3.136 0-1.525.597-2.773 1.792-3.744 1.194-.97 3.034-1.456 5.52-1.456a16.7 16.7 0 0 1 2.224.144 14.53 14.53 0 0 1 2.048.384v2.576a16.138 16.138 0 0 0-4.192-.544c-1.6 0-2.704.25-3.312.752-.608.49-.912 1.093-.912 1.808 0 .597.165 1.088.496 1.472.341.373.933.656 1.776.848l2.496.48c1.589.33 2.746.875 3.472 1.632.736.757 1.104 1.819 1.104 3.184 0 1.632-.608 2.917-1.824 3.856-1.206.939-2.96 1.408-5.264 1.408ZM57.51 28V2.144h3.343V28H57.51Zm9.41-7.632v-2.784h9.313v2.784H66.92Zm19.503 7.92c-1.685 0-3.008-.432-3.968-1.296-.95-.864-1.424-2.043-1.424-3.536 0-1.547.517-2.757 1.552-3.632 1.046-.875 2.725-1.413 5.04-1.616l3.632-.368v-1.104c0-1.461-.352-2.453-1.056-2.976-.704-.533-1.797-.8-3.28-.8-.661 0-1.408.059-2.24.176a14.27 14.27 0 0 0-2.464.576v-2.624a14.544 14.544 0 0 1 2.576-.576 19.599 19.599 0 0 1 2.64-.192c1.59 0 2.907.208 3.952.624 1.056.405 1.84 1.088 2.352 2.048.523.96.784 2.272.784 3.936V28h-2.768l-.24-1.872h-.192a5.179 5.179 0 0 1-2.128 1.616 7.002 7.002 0 0 1-2.768.544Zm-2.048-5.136c0 1.792.998 2.688 2.992 2.688.683 0 1.36-.139 2.032-.416.683-.277 1.302-.741 1.856-1.392V19.92l-3.344.336c-1.258.128-2.165.432-2.72.912-.544.48-.816 1.141-.816 1.984ZM100.465 28V2.144h3.344V28h-3.344Zm17.22.32c-2.891 0-5.056-.704-6.496-2.112-1.44-1.419-2.16-3.723-2.16-6.912 0-3.008.656-5.253 1.968-6.736 1.312-1.493 3.109-2.24 5.392-2.24 2.24 0 3.963.747 5.168 2.24 1.205 1.493 1.808 3.765 1.808 6.816v.96h-10.96c.064 1.963.549 3.344 1.456 4.144.907.8 2.325 1.2 4.256 1.2.661 0 1.355-.053 2.08-.16a22.493 22.493 0 0 0 2.272-.496v2.624c-.864.235-1.685.405-2.464.512-.779.107-1.552.16-2.32.16Zm-1.328-15.712c-1.205 0-2.16.416-2.864 1.248-.693.821-1.061 2.277-1.104 4.368h7.808c-.032-2.08-.379-3.536-1.04-4.368-.661-.832-1.595-1.248-2.8-1.248ZM128.384 28V10.592h2.768l.272 2.304h.176a5.36 5.36 0 0 1 2.16-1.872 6.404 6.404 0 0 1 2.784-.624c.48 0 .944.043 1.392.128v3.056a6.288 6.288 0 0 0-.784-.08 9.447 9.447 0 0 0-.784-.032c-.821 0-1.669.187-2.544.56a4.691 4.691 0 0 0-2.096 1.664V28h-3.344Zm21.061.304c-1.877 0-3.333-.475-4.368-1.424-1.024-.95-1.536-2.47-1.536-4.56v-9.024h-3.136v-2.704h3.136l.576-6.272h2.768v6.272h5.184v2.704h-5.184v8.48c0 1.387.272 2.352.816 2.896.555.544 1.403.816 2.544.816.576 0 1.253-.085 2.032-.256v2.752c-.939.213-1.883.32-2.832.32Zm7.013-5.664v-2.72l10.224-4.096-10.224-4.064V9.04l12.88 5.264v3.072l-12.88 5.264Z" mask="url(#path-1-outside-1_42:121)"/>
</svg>
