<svg xmlns="http://www.w3.org/2000/svg" width="189" height="78" fill="none">
  <mask id="path-1-outside-1_42:119" width="189" height="78" x=".786" y=".144" fill="#000" maskUnits="userSpaceOnUse">
    <path fill="#fff" d="M.786.144h189v78h-189z"/>
    <path d="m72.232 22.64-12.88-5.264v-3.072l12.88-5.264v2.72l-10.208 4.064 10.208 4.096v2.72Zm13.841 5.68c-2.891 0-5.056-.704-6.496-2.112-1.44-1.419-2.16-3.723-2.16-6.912 0-3.008.656-5.253 1.968-6.736 1.312-1.493 3.109-2.24 5.392-2.24 2.24 0 3.962.747 5.168 2.24 1.205 1.493 1.808 3.765 1.808 6.816v.96h-10.96c.064 1.963.549 3.344 1.456 4.144.906.8 2.325 1.2 4.256 1.2.661 0 1.354-.053 2.08-.16a22.514 22.514 0 0 0 2.272-.496v2.624c-.864.235-1.686.405-2.464.512-.779.107-1.552.16-2.32.16Zm-1.328-15.712c-1.206 0-2.16.416-2.864 1.248-.694.821-1.062 2.277-1.104 4.368h7.808c-.032-2.08-.379-3.536-1.04-4.368-.662-.832-1.595-1.248-2.8-1.248ZM101.22 28.32c-1.856 0-3.542-.24-5.056-.72v-2.576a17.63 17.63 0 0 0 5.04.736c1.397 0 2.4-.224 3.008-.672.618-.448.928-1.077.928-1.888 0-.683-.182-1.2-.544-1.552-.352-.363-.95-.635-1.792-.816l-2.496-.496c-1.611-.32-2.768-.88-3.472-1.68-.694-.8-1.04-1.845-1.04-3.136 0-1.525.597-2.773 1.792-3.744 1.194-.97 3.034-1.456 5.52-1.456a16.7 16.7 0 0 1 2.224.144 14.54 14.54 0 0 1 2.048.384v2.576a16.14 16.14 0 0 0-4.192-.544c-1.6 0-2.704.25-3.312.752-.608.49-.912 1.093-.912 1.808 0 .597.165 1.088.496 1.472.341.373.933.656 1.776.848l2.496.48c1.589.33 2.746.875 3.472 1.632.736.757 1.104 1.819 1.104 3.184 0 1.632-.608 2.917-1.824 3.856-1.206.939-2.96 1.408-5.264 1.408Zm11.964-.32V2.144h3.344V28h-3.344Zm9.412-7.632v-2.784h9.312v2.784h-9.312ZM11.826 68.304c-1.877 0-3.333-.475-4.368-1.424-1.024-.95-1.536-2.47-1.536-4.56v-9.024H2.786v-2.704h3.136l.576-6.272h2.768v6.272h5.184v2.704H9.266v8.48c0 1.387.272 2.352.816 2.896.555.544 1.403.816 2.544.816.576 0 1.254-.085 2.032-.256v2.752c-.938.213-1.883.32-2.832.32Zm13.722.016c-2.357 0-4.24-.72-5.648-2.16-1.397-1.45-2.096-3.728-2.096-6.832 0-3.115.694-5.392 2.08-6.832 1.387-1.45 3.275-2.176 5.664-2.176 2.39 0 4.278.725 5.664 2.176 1.387 1.44 2.08 3.712 2.08 6.816 0 3.093-.704 5.37-2.112 6.832-1.397 1.45-3.274 2.176-5.632 2.176Zm0-2.64c.896 0 1.67-.192 2.32-.576.65-.395 1.152-1.05 1.504-1.968.352-.928.528-2.192.528-3.792 0-1.621-.176-2.896-.528-3.824-.352-.928-.853-1.584-1.504-1.968-.65-.395-1.424-.592-2.32-.592-.896 0-1.67.197-2.32.592-.65.384-1.152 1.035-1.504 1.952-.352.917-.528 2.176-.528 3.776 0 1.621.176 2.896.528 3.824.352.928.854 1.59 1.504 1.984.65.395 1.424.592 2.32.592Zm18.758 9.68c-.842 0-1.738-.064-2.688-.192a15.594 15.594 0 0 1-2.656-.56v-2.72c.918.277 1.803.48 2.656.608.864.139 1.686.208 2.464.208 1.824 0 3.163-.379 4.016-1.136.864-.757 1.296-2.053 1.296-3.888v-1.52h-.176c-.522.608-1.184 1.099-1.984 1.472-.789.373-1.701.56-2.736.56a6.685 6.685 0 0 1-3.312-.848c-1.013-.576-1.829-1.488-2.448-2.736-.618-1.259-.928-2.912-.928-4.96 0-6.219 3.051-9.328 9.152-9.328.971 0 1.968.075 2.992.224a17.33 17.33 0 0 1 2.784.624V67.12c0 2.933-.704 5.04-2.112 6.32-1.397 1.28-3.504 1.92-6.32 1.92Zm1.312-9.968c.694 0 1.376-.139 2.048-.416a4.213 4.213 0 0 0 1.728-1.296v-10.4a8.262 8.262 0 0 0-1.248-.224 10.758 10.758 0 0 0-1.456-.096c-1.78 0-3.141.496-4.08 1.488-.938.992-1.408 2.624-1.408 4.896 0 1.579.187 2.805.56 3.68.384.875.907 1.488 1.568 1.84.662.352 1.424.528 2.288.528Zm18.851 9.968c-.843 0-1.739-.064-2.688-.192a15.594 15.594 0 0 1-2.656-.56v-2.72c.917.277 1.803.48 2.656.608.864.139 1.685.208 2.464.208 1.824 0 3.163-.379 4.016-1.136.864-.757 1.296-2.053 1.296-3.888v-1.52h-.176c-.523.608-1.184 1.099-1.984 1.472-.79.373-1.701.56-2.736.56a6.685 6.685 0 0 1-3.312-.848c-1.013-.576-1.83-1.488-2.448-2.736-.619-1.259-.928-2.912-.928-4.96 0-6.219 3.05-9.328 9.152-9.328.97 0 1.968.075 2.992.224a17.33 17.33 0 0 1 2.784.624V67.12c0 2.933-.704 5.04-2.112 6.32-1.397 1.28-3.504 1.92-6.32 1.92Zm1.312-9.968c.693 0 1.376-.139 2.048-.416a4.213 4.213 0 0 0 1.728-1.296v-10.4a8.262 8.262 0 0 0-1.248-.224 10.78 10.78 0 0 0-1.456-.096c-1.781 0-3.141.496-4.08 1.488-.939.992-1.408 2.624-1.408 4.896 0 1.579.187 2.805.56 3.68.384.875.907 1.488 1.568 1.84.661.352 1.424.528 2.288.528ZM79.015 68V42.144h3.344V68h-3.344Zm17.22.32c-2.89 0-5.056-.704-6.496-2.112-1.44-1.419-2.16-3.723-2.16-6.912 0-3.008.656-5.253 1.968-6.736 1.312-1.493 3.11-2.24 5.392-2.24 2.24 0 3.963.747 5.168 2.24 1.205 1.493 1.808 3.765 1.808 6.816v.96h-10.96c.064 1.963.55 3.344 1.456 4.144.907.8 2.326 1.2 4.256 1.2.662 0 1.355-.053 2.08-.16a22.495 22.495 0 0 0 2.272-.496v2.624a19.57 19.57 0 0 1-2.464.512c-.779.107-1.552.16-2.32.16Zm-1.328-15.712c-1.205 0-2.16.416-2.864 1.248-.693.821-1.061 2.277-1.104 4.368h7.808c-.032-2.08-.379-3.536-1.04-4.368-.661-.832-1.594-1.248-2.8-1.248Zm16.366 15.68c-1.685 0-3.008-.432-3.968-1.296-.949-.864-1.424-2.043-1.424-3.536 0-1.547.517-2.757 1.552-3.632 1.045-.875 2.725-1.413 5.04-1.616l3.632-.368v-1.104c0-1.461-.352-2.453-1.056-2.976-.704-.533-1.797-.8-3.28-.8-.661 0-1.408.059-2.24.176a14.27 14.27 0 0 0-2.464.576v-2.624a14.542 14.542 0 0 1 2.576-.576 19.606 19.606 0 0 1 2.64-.192c1.589 0 2.907.208 3.952.624 1.056.405 1.84 1.088 2.352 2.048.523.96.784 2.272.784 3.936V68h-2.768l-.24-1.872h-.192a5.182 5.182 0 0 1-2.128 1.616 7.003 7.003 0 0 1-2.768.544Zm-2.048-5.136c0 1.792.997 2.688 2.992 2.688.683 0 1.36-.139 2.032-.416.683-.277 1.301-.741 1.856-1.392V59.92l-3.344.336c-1.259.128-2.165.432-2.72.912-.544.48-.816 1.141-.816 1.984Zm21.866 5.152c-.97 0-1.957-.07-2.96-.208a17.055 17.055 0 0 1-2.816-.624V42.144h3.344v10.208h.176a5.86 5.86 0 0 1 1.968-1.472c.8-.373 1.718-.56 2.752-.56 1.216 0 2.331.288 3.344.864 1.014.576 1.824 1.499 2.432 2.768.608 1.259.912 2.928.912 5.008 0 6.24-3.05 9.355-9.152 9.344Zm.272-2.624c1.803 0 3.168-.496 4.096-1.488.928-1.003 1.392-2.65 1.392-4.944 0-1.59-.192-2.827-.576-3.712-.373-.885-.896-1.504-1.568-1.856-.661-.363-1.418-.544-2.272-.544a5.37 5.37 0 0 0-2.064.416 4.238 4.238 0 0 0-1.712 1.296v10.48c.352.096.763.181 1.232.256.48.064.971.096 1.472.096ZM145.447 68V42.144h3.344V68h-3.344Zm17.219.32c-2.89 0-5.056-.704-6.496-2.112-1.44-1.419-2.16-3.723-2.16-6.912 0-3.008.656-5.253 1.968-6.736 1.312-1.493 3.11-2.24 5.392-2.24 2.24 0 3.963.747 5.168 2.24 1.206 1.493 1.808 3.765 1.808 6.816v.96h-10.96c.064 1.963.55 3.344 1.456 4.144.907.8 2.326 1.2 4.256 1.2.662 0 1.355-.053 2.08-.16a22.46 22.46 0 0 0 2.272-.496v2.624a19.56 19.56 0 0 1-2.464.512 17.08 17.08 0 0 1-2.32.16Zm-1.328-15.712c-1.205 0-2.16.416-2.864 1.248-.693.821-1.061 2.277-1.104 4.368h7.808c-.032-2.08-.378-3.536-1.04-4.368-.661-.832-1.594-1.248-2.8-1.248Zm11.995 10.032v-2.72l10.224-4.096-10.224-4.064v-2.72l12.88 5.264v3.072l-12.88 5.264Z"/>
  </mask>
  <path fill="#fff" d="m72.232 22.64-12.88-5.264v-3.072l12.88-5.264v2.72l-10.208 4.064 10.208 4.096v2.72Zm13.841 5.68c-2.891 0-5.056-.704-6.496-2.112-1.44-1.419-2.16-3.723-2.16-6.912 0-3.008.656-5.253 1.968-6.736 1.312-1.493 3.109-2.24 5.392-2.24 2.24 0 3.962.747 5.168 2.24 1.205 1.493 1.808 3.765 1.808 6.816v.96h-10.96c.064 1.963.549 3.344 1.456 4.144.906.8 2.325 1.2 4.256 1.2.661 0 1.354-.053 2.08-.16a22.514 22.514 0 0 0 2.272-.496v2.624c-.864.235-1.686.405-2.464.512-.779.107-1.552.16-2.32.16Zm-1.328-15.712c-1.206 0-2.16.416-2.864 1.248-.694.821-1.062 2.277-1.104 4.368h7.808c-.032-2.08-.379-3.536-1.04-4.368-.662-.832-1.595-1.248-2.8-1.248ZM101.22 28.32c-1.856 0-3.542-.24-5.056-.72v-2.576a17.63 17.63 0 0 0 5.04.736c1.397 0 2.4-.224 3.008-.672.618-.448.928-1.077.928-1.888 0-.683-.182-1.2-.544-1.552-.352-.363-.95-.635-1.792-.816l-2.496-.496c-1.611-.32-2.768-.88-3.472-1.68-.694-.8-1.04-1.845-1.04-3.136 0-1.525.597-2.773 1.792-3.744 1.194-.97 3.034-1.456 5.52-1.456a16.7 16.7 0 0 1 2.224.144 14.54 14.54 0 0 1 2.048.384v2.576a16.14 16.14 0 0 0-4.192-.544c-1.6 0-2.704.25-3.312.752-.608.49-.912 1.093-.912 1.808 0 .597.165 1.088.496 1.472.341.373.933.656 1.776.848l2.496.48c1.589.33 2.746.875 3.472 1.632.736.757 1.104 1.819 1.104 3.184 0 1.632-.608 2.917-1.824 3.856-1.206.939-2.96 1.408-5.264 1.408Zm11.964-.32V2.144h3.344V28h-3.344Zm9.412-7.632v-2.784h9.312v2.784h-9.312ZM11.826 68.304c-1.877 0-3.333-.475-4.368-1.424-1.024-.95-1.536-2.47-1.536-4.56v-9.024H2.786v-2.704h3.136l.576-6.272h2.768v6.272h5.184v2.704H9.266v8.48c0 1.387.272 2.352.816 2.896.555.544 1.403.816 2.544.816.576 0 1.254-.085 2.032-.256v2.752c-.938.213-1.883.32-2.832.32Zm13.722.016c-2.357 0-4.24-.72-5.648-2.16-1.397-1.45-2.096-3.728-2.096-6.832 0-3.115.694-5.392 2.08-6.832 1.387-1.45 3.275-2.176 5.664-2.176 2.39 0 4.278.725 5.664 2.176 1.387 1.44 2.08 3.712 2.08 6.816 0 3.093-.704 5.37-2.112 6.832-1.397 1.45-3.274 2.176-5.632 2.176Zm0-2.64c.896 0 1.67-.192 2.32-.576.65-.395 1.152-1.05 1.504-1.968.352-.928.528-2.192.528-3.792 0-1.621-.176-2.896-.528-3.824-.352-.928-.853-1.584-1.504-1.968-.65-.395-1.424-.592-2.32-.592-.896 0-1.67.197-2.32.592-.65.384-1.152 1.035-1.504 1.952-.352.917-.528 2.176-.528 3.776 0 1.621.176 2.896.528 3.824.352.928.854 1.59 1.504 1.984.65.395 1.424.592 2.32.592Zm18.758 9.68c-.842 0-1.738-.064-2.688-.192a15.594 15.594 0 0 1-2.656-.56v-2.72c.918.277 1.803.48 2.656.608.864.139 1.686.208 2.464.208 1.824 0 3.163-.379 4.016-1.136.864-.757 1.296-2.053 1.296-3.888v-1.52h-.176c-.522.608-1.184 1.099-1.984 1.472-.789.373-1.701.56-2.736.56a6.685 6.685 0 0 1-3.312-.848c-1.013-.576-1.829-1.488-2.448-2.736-.618-1.259-.928-2.912-.928-4.96 0-6.219 3.051-9.328 9.152-9.328.971 0 1.968.075 2.992.224a17.33 17.33 0 0 1 2.784.624V67.12c0 2.933-.704 5.04-2.112 6.32-1.397 1.28-3.504 1.92-6.32 1.92Zm1.312-9.968c.694 0 1.376-.139 2.048-.416a4.213 4.213 0 0 0 1.728-1.296v-10.4a8.262 8.262 0 0 0-1.248-.224 10.758 10.758 0 0 0-1.456-.096c-1.78 0-3.141.496-4.08 1.488-.938.992-1.408 2.624-1.408 4.896 0 1.579.187 2.805.56 3.68.384.875.907 1.488 1.568 1.84.662.352 1.424.528 2.288.528Zm18.851 9.968c-.843 0-1.739-.064-2.688-.192a15.594 15.594 0 0 1-2.656-.56v-2.72c.917.277 1.803.48 2.656.608.864.139 1.685.208 2.464.208 1.824 0 3.163-.379 4.016-1.136.864-.757 1.296-2.053 1.296-3.888v-1.52h-.176c-.523.608-1.184 1.099-1.984 1.472-.79.373-1.701.56-2.736.56a6.685 6.685 0 0 1-3.312-.848c-1.013-.576-1.83-1.488-2.448-2.736-.619-1.259-.928-2.912-.928-4.96 0-6.219 3.05-9.328 9.152-9.328.97 0 1.968.075 2.992.224a17.33 17.33 0 0 1 2.784.624V67.12c0 2.933-.704 5.04-2.112 6.32-1.397 1.28-3.504 1.92-6.32 1.92Zm1.312-9.968c.693 0 1.376-.139 2.048-.416a4.213 4.213 0 0 0 1.728-1.296v-10.4a8.262 8.262 0 0 0-1.248-.224 10.78 10.78 0 0 0-1.456-.096c-1.781 0-3.141.496-4.08 1.488-.939.992-1.408 2.624-1.408 4.896 0 1.579.187 2.805.56 3.68.384.875.907 1.488 1.568 1.84.661.352 1.424.528 2.288.528ZM79.015 68V42.144h3.344V68h-3.344Zm17.22.32c-2.89 0-5.056-.704-6.496-2.112-1.44-1.419-2.16-3.723-2.16-6.912 0-3.008.656-5.253 1.968-6.736 1.312-1.493 3.11-2.24 5.392-2.24 2.24 0 3.963.747 5.168 2.24 1.205 1.493 1.808 3.765 1.808 6.816v.96h-10.96c.064 1.963.55 3.344 1.456 4.144.907.8 2.326 1.2 4.256 1.2.662 0 1.355-.053 2.08-.16a22.495 22.495 0 0 0 2.272-.496v2.624a19.57 19.57 0 0 1-2.464.512c-.779.107-1.552.16-2.32.16Zm-1.328-15.712c-1.205 0-2.16.416-2.864 1.248-.693.821-1.061 2.277-1.104 4.368h7.808c-.032-2.08-.379-3.536-1.04-4.368-.661-.832-1.594-1.248-2.8-1.248Zm16.366 15.68c-1.685 0-3.008-.432-3.968-1.296-.949-.864-1.424-2.043-1.424-3.536 0-1.547.517-2.757 1.552-3.632 1.045-.875 2.725-1.413 5.04-1.616l3.632-.368v-1.104c0-1.461-.352-2.453-1.056-2.976-.704-.533-1.797-.8-3.28-.8-.661 0-1.408.059-2.24.176a14.27 14.27 0 0 0-2.464.576v-2.624a14.542 14.542 0 0 1 2.576-.576 19.606 19.606 0 0 1 2.64-.192c1.589 0 2.907.208 3.952.624 1.056.405 1.84 1.088 2.352 2.048.523.96.784 2.272.784 3.936V68h-2.768l-.24-1.872h-.192a5.182 5.182 0 0 1-2.128 1.616 7.003 7.003 0 0 1-2.768.544Zm-2.048-5.136c0 1.792.997 2.688 2.992 2.688.683 0 1.36-.139 2.032-.416.683-.277 1.301-.741 1.856-1.392V59.92l-3.344.336c-1.259.128-2.165.432-2.72.912-.544.48-.816 1.141-.816 1.984Zm21.866 5.152c-.97 0-1.957-.07-2.96-.208a17.055 17.055 0 0 1-2.816-.624V42.144h3.344v10.208h.176a5.86 5.86 0 0 1 1.968-1.472c.8-.373 1.718-.56 2.752-.56 1.216 0 2.331.288 3.344.864 1.014.576 1.824 1.499 2.432 2.768.608 1.259.912 2.928.912 5.008 0 6.24-3.05 9.355-9.152 9.344Zm.272-2.624c1.803 0 3.168-.496 4.096-1.488.928-1.003 1.392-2.65 1.392-4.944 0-1.59-.192-2.827-.576-3.712-.373-.885-.896-1.504-1.568-1.856-.661-.363-1.418-.544-2.272-.544a5.37 5.37 0 0 0-2.064.416 4.238 4.238 0 0 0-1.712 1.296v10.48c.352.096.763.181 1.232.256.48.064.971.096 1.472.096ZM145.447 68V42.144h3.344V68h-3.344Zm17.219.32c-2.89 0-5.056-.704-6.496-2.112-1.44-1.419-2.16-3.723-2.16-6.912 0-3.008.656-5.253 1.968-6.736 1.312-1.493 3.11-2.24 5.392-2.24 2.24 0 3.963.747 5.168 2.24 1.206 1.493 1.808 3.765 1.808 6.816v.96h-10.96c.064 1.963.55 3.344 1.456 4.144.907.8 2.326 1.2 4.256 1.2.662 0 1.355-.053 2.08-.16a22.46 22.46 0 0 0 2.272-.496v2.624a19.56 19.56 0 0 1-2.464.512 17.08 17.08 0 0 1-2.32.16Zm-1.328-15.712c-1.205 0-2.16.416-2.864 1.248-.693.821-1.061 2.277-1.104 4.368h7.808c-.032-2.08-.378-3.536-1.04-4.368-.661-.832-1.594-1.248-2.8-1.248Zm11.995 10.032v-2.72l10.224-4.096-10.224-4.064v-2.72l12.88 5.264v3.072l-12.88 5.264Z"/>
  <path stroke="#0097E7" stroke-width="4" d="m72.232 22.64-12.88-5.264v-3.072l12.88-5.264v2.72l-10.208 4.064 10.208 4.096v2.72Zm13.841 5.68c-2.891 0-5.056-.704-6.496-2.112-1.44-1.419-2.16-3.723-2.16-6.912 0-3.008.656-5.253 1.968-6.736 1.312-1.493 3.109-2.24 5.392-2.24 2.24 0 3.962.747 5.168 2.24 1.205 1.493 1.808 3.765 1.808 6.816v.96h-10.96c.064 1.963.549 3.344 1.456 4.144.906.8 2.325 1.2 4.256 1.2.661 0 1.354-.053 2.08-.16a22.514 22.514 0 0 0 2.272-.496v2.624c-.864.235-1.686.405-2.464.512-.779.107-1.552.16-2.32.16Zm-1.328-15.712c-1.206 0-2.16.416-2.864 1.248-.694.821-1.062 2.277-1.104 4.368h7.808c-.032-2.08-.379-3.536-1.04-4.368-.662-.832-1.595-1.248-2.8-1.248ZM101.22 28.32c-1.856 0-3.542-.24-5.056-.72v-2.576a17.63 17.63 0 0 0 5.04.736c1.397 0 2.4-.224 3.008-.672.618-.448.928-1.077.928-1.888 0-.683-.182-1.2-.544-1.552-.352-.363-.95-.635-1.792-.816l-2.496-.496c-1.611-.32-2.768-.88-3.472-1.68-.694-.8-1.04-1.845-1.04-3.136 0-1.525.597-2.773 1.792-3.744 1.194-.97 3.034-1.456 5.52-1.456a16.7 16.7 0 0 1 2.224.144 14.54 14.54 0 0 1 2.048.384v2.576a16.14 16.14 0 0 0-4.192-.544c-1.6 0-2.704.25-3.312.752-.608.49-.912 1.093-.912 1.808 0 .597.165 1.088.496 1.472.341.373.933.656 1.776.848l2.496.48c1.589.33 2.746.875 3.472 1.632.736.757 1.104 1.819 1.104 3.184 0 1.632-.608 2.917-1.824 3.856-1.206.939-2.96 1.408-5.264 1.408Zm11.964-.32V2.144h3.344V28h-3.344Zm9.412-7.632v-2.784h9.312v2.784h-9.312ZM11.826 68.304c-1.877 0-3.333-.475-4.368-1.424-1.024-.95-1.536-2.47-1.536-4.56v-9.024H2.786v-2.704h3.136l.576-6.272h2.768v6.272h5.184v2.704H9.266v8.48c0 1.387.272 2.352.816 2.896.555.544 1.403.816 2.544.816.576 0 1.254-.085 2.032-.256v2.752c-.938.213-1.883.32-2.832.32Zm13.722.016c-2.357 0-4.24-.72-5.648-2.16-1.397-1.45-2.096-3.728-2.096-6.832 0-3.115.694-5.392 2.08-6.832 1.387-1.45 3.275-2.176 5.664-2.176 2.39 0 4.278.725 5.664 2.176 1.387 1.44 2.08 3.712 2.08 6.816 0 3.093-.704 5.37-2.112 6.832-1.397 1.45-3.274 2.176-5.632 2.176Zm0-2.64c.896 0 1.67-.192 2.32-.576.65-.395 1.152-1.05 1.504-1.968.352-.928.528-2.192.528-3.792 0-1.621-.176-2.896-.528-3.824-.352-.928-.853-1.584-1.504-1.968-.65-.395-1.424-.592-2.32-.592-.896 0-1.67.197-2.32.592-.65.384-1.152 1.035-1.504 1.952-.352.917-.528 2.176-.528 3.776 0 1.621.176 2.896.528 3.824.352.928.854 1.59 1.504 1.984.65.395 1.424.592 2.32.592Zm18.758 9.68c-.842 0-1.738-.064-2.688-.192a15.594 15.594 0 0 1-2.656-.56v-2.72c.918.277 1.803.48 2.656.608.864.139 1.686.208 2.464.208 1.824 0 3.163-.379 4.016-1.136.864-.757 1.296-2.053 1.296-3.888v-1.52h-.176c-.522.608-1.184 1.099-1.984 1.472-.789.373-1.701.56-2.736.56a6.685 6.685 0 0 1-3.312-.848c-1.013-.576-1.829-1.488-2.448-2.736-.618-1.259-.928-2.912-.928-4.96 0-6.219 3.051-9.328 9.152-9.328.971 0 1.968.075 2.992.224a17.33 17.33 0 0 1 2.784.624V67.12c0 2.933-.704 5.04-2.112 6.32-1.397 1.28-3.504 1.92-6.32 1.92Zm1.312-9.968c.694 0 1.376-.139 2.048-.416a4.213 4.213 0 0 0 1.728-1.296v-10.4a8.262 8.262 0 0 0-1.248-.224 10.758 10.758 0 0 0-1.456-.096c-1.78 0-3.141.496-4.08 1.488-.938.992-1.408 2.624-1.408 4.896 0 1.579.187 2.805.56 3.68.384.875.907 1.488 1.568 1.84.662.352 1.424.528 2.288.528Zm18.851 9.968c-.843 0-1.739-.064-2.688-.192a15.594 15.594 0 0 1-2.656-.56v-2.72c.917.277 1.803.48 2.656.608.864.139 1.685.208 2.464.208 1.824 0 3.163-.379 4.016-1.136.864-.757 1.296-2.053 1.296-3.888v-1.52h-.176c-.523.608-1.184 1.099-1.984 1.472-.79.373-1.701.56-2.736.56a6.685 6.685 0 0 1-3.312-.848c-1.013-.576-1.83-1.488-2.448-2.736-.619-1.259-.928-2.912-.928-4.96 0-6.219 3.05-9.328 9.152-9.328.97 0 1.968.075 2.992.224a17.33 17.33 0 0 1 2.784.624V67.12c0 2.933-.704 5.04-2.112 6.32-1.397 1.28-3.504 1.92-6.32 1.92Zm1.312-9.968c.693 0 1.376-.139 2.048-.416a4.213 4.213 0 0 0 1.728-1.296v-10.4a8.262 8.262 0 0 0-1.248-.224 10.78 10.78 0 0 0-1.456-.096c-1.781 0-3.141.496-4.08 1.488-.939.992-1.408 2.624-1.408 4.896 0 1.579.187 2.805.56 3.68.384.875.907 1.488 1.568 1.84.661.352 1.424.528 2.288.528ZM79.015 68V42.144h3.344V68h-3.344Zm17.22.32c-2.89 0-5.056-.704-6.496-2.112-1.44-1.419-2.16-3.723-2.16-6.912 0-3.008.656-5.253 1.968-6.736 1.312-1.493 3.11-2.24 5.392-2.24 2.24 0 3.963.747 5.168 2.24 1.205 1.493 1.808 3.765 1.808 6.816v.96h-10.96c.064 1.963.55 3.344 1.456 4.144.907.8 2.326 1.2 4.256 1.2.662 0 1.355-.053 2.08-.16a22.495 22.495 0 0 0 2.272-.496v2.624a19.57 19.57 0 0 1-2.464.512c-.779.107-1.552.16-2.32.16Zm-1.328-15.712c-1.205 0-2.16.416-2.864 1.248-.693.821-1.061 2.277-1.104 4.368h7.808c-.032-2.08-.379-3.536-1.04-4.368-.661-.832-1.594-1.248-2.8-1.248Zm16.366 15.68c-1.685 0-3.008-.432-3.968-1.296-.949-.864-1.424-2.043-1.424-3.536 0-1.547.517-2.757 1.552-3.632 1.045-.875 2.725-1.413 5.04-1.616l3.632-.368v-1.104c0-1.461-.352-2.453-1.056-2.976-.704-.533-1.797-.8-3.28-.8-.661 0-1.408.059-2.24.176a14.27 14.27 0 0 0-2.464.576v-2.624a14.542 14.542 0 0 1 2.576-.576 19.606 19.606 0 0 1 2.64-.192c1.589 0 2.907.208 3.952.624 1.056.405 1.84 1.088 2.352 2.048.523.96.784 2.272.784 3.936V68h-2.768l-.24-1.872h-.192a5.182 5.182 0 0 1-2.128 1.616 7.003 7.003 0 0 1-2.768.544Zm-2.048-5.136c0 1.792.997 2.688 2.992 2.688.683 0 1.36-.139 2.032-.416.683-.277 1.301-.741 1.856-1.392V59.92l-3.344.336c-1.259.128-2.165.432-2.72.912-.544.48-.816 1.141-.816 1.984Zm21.866 5.152c-.97 0-1.957-.07-2.96-.208a17.055 17.055 0 0 1-2.816-.624V42.144h3.344v10.208h.176a5.86 5.86 0 0 1 1.968-1.472c.8-.373 1.718-.56 2.752-.56 1.216 0 2.331.288 3.344.864 1.014.576 1.824 1.499 2.432 2.768.608 1.259.912 2.928.912 5.008 0 6.24-3.05 9.355-9.152 9.344Zm.272-2.624c1.803 0 3.168-.496 4.096-1.488.928-1.003 1.392-2.65 1.392-4.944 0-1.59-.192-2.827-.576-3.712-.373-.885-.896-1.504-1.568-1.856-.661-.363-1.418-.544-2.272-.544a5.37 5.37 0 0 0-2.064.416 4.238 4.238 0 0 0-1.712 1.296v10.48c.352.096.763.181 1.232.256.48.064.971.096 1.472.096ZM145.447 68V42.144h3.344V68h-3.344Zm17.219.32c-2.89 0-5.056-.704-6.496-2.112-1.44-1.419-2.16-3.723-2.16-6.912 0-3.008.656-5.253 1.968-6.736 1.312-1.493 3.11-2.24 5.392-2.24 2.24 0 3.963.747 5.168 2.24 1.206 1.493 1.808 3.765 1.808 6.816v.96h-10.96c.064 1.963.55 3.344 1.456 4.144.907.8 2.326 1.2 4.256 1.2.662 0 1.355-.053 2.08-.16a22.46 22.46 0 0 0 2.272-.496v2.624a19.56 19.56 0 0 1-2.464.512 17.08 17.08 0 0 1-2.32.16Zm-1.328-15.712c-1.205 0-2.16.416-2.864 1.248-.693.821-1.061 2.277-1.104 4.368h7.808c-.032-2.08-.378-3.536-1.04-4.368-.661-.832-1.594-1.248-2.8-1.248Zm11.995 10.032v-2.72l10.224-4.096-10.224-4.064v-2.72l12.88 5.264v3.072l-12.88 5.264Z" mask="url(#path-1-outside-1_42:119)"/>
</svg>
