<svg xmlns="http://www.w3.org/2000/svg" width="193" height="38" fill="none">
  <mask id="path-1-outside-1_42:124" width="194" height="38" x="-.167" y=".144" fill="#000" maskUnits="userSpaceOnUse">
    <path fill="#fff" d="M-.167.144h194v38h-194z"/>
    <path d="m15.713 22.64-12.88-5.264v-3.072l12.88-5.264v2.72L5.505 15.824l10.208 4.096v2.72Zm13.841 5.68c-2.89 0-5.056-.704-6.496-2.112-1.44-1.419-2.16-3.723-2.16-6.912 0-3.008.656-5.253 1.968-6.736 1.312-1.493 3.11-2.24 5.392-2.24 2.24 0 3.963.747 5.168 2.24 1.205 1.493 1.808 3.765 1.808 6.816v.96h-10.96c.064 1.963.55 3.344 1.456 4.144.907.8 2.325 1.2 4.256 1.2.661 0 1.354-.053 2.08-.16a22.526 22.526 0 0 0 2.272-.496v2.624c-.864.235-1.685.405-2.464.512-.779.107-1.552.16-2.32.16Zm-1.328-15.712c-1.206 0-2.16.416-2.864 1.248-.693.821-1.061 2.277-1.104 4.368h7.808c-.032-2.08-.379-3.536-1.04-4.368-.662-.832-1.595-1.248-2.8-1.248ZM44.7 28.32c-1.855 0-3.54-.24-5.055-.72v-2.576c1.653.49 3.333.736 5.04.736 1.397 0 2.4-.224 3.008-.672.619-.448.928-1.077.928-1.888 0-.683-.181-1.2-.544-1.552-.352-.363-.95-.635-1.792-.816l-2.496-.496c-1.61-.32-2.768-.88-3.472-1.68-.694-.8-1.04-1.845-1.04-3.136 0-1.525.597-2.773 1.792-3.744 1.194-.97 3.034-1.456 5.52-1.456.768 0 1.51.048 2.224.144.725.085 1.408.213 2.048.384v2.576a16.138 16.138 0 0 0-4.192-.544c-1.6 0-2.704.25-3.312.752-.608.49-.912 1.093-.912 1.808 0 .597.165 1.088.496 1.472.341.373.933.656 1.776.848l2.496.48c1.59.33 2.746.875 3.472 1.632.736.757 1.104 1.819 1.104 3.184 0 1.632-.608 2.917-1.824 3.856-1.206.939-2.96 1.408-5.264 1.408ZM56.665 28V2.144h3.344V28h-3.344Zm9.412-7.632v-2.784h9.312v2.784h-9.312ZM81.46 28V10.592h3.343V28H81.46Zm1.68-20.8c-1.473 0-2.209-.64-2.209-1.92 0-.608.187-1.083.56-1.424.374-.352.923-.528 1.648-.528.726 0 1.275.176 1.648.528.373.341.56.816.56 1.424 0 1.28-.736 1.92-2.208 1.92ZM90.934 28V10.592h2.784l.24 1.92h.192c1.301-1.461 2.96-2.192 4.976-2.192.96 0 1.819.192 2.576.576.768.373 1.371.987 1.808 1.84.8-.875 1.664-1.493 2.592-1.856.939-.373 1.851-.56 2.736-.56 1.045 0 1.973.208 2.784.624.811.416 1.451 1.093 1.92 2.032.469.928.704 2.17.704 3.728V28h-3.328V16.864c0-1.365-.283-2.31-.848-2.832-.555-.523-1.264-.784-2.128-.784-.608 0-1.253.144-1.936.432-.683.277-1.28.768-1.792 1.472.053.448.08.933.08 1.456V28h-3.28V16.864c0-1.365-.267-2.31-.8-2.832-.533-.523-1.232-.784-2.096-.784-.661 0-1.344.165-2.048.496-.704.33-1.301.87-1.792 1.616V28h-3.344Zm33.72.288c-1.685 0-3.008-.432-3.968-1.296-.949-.864-1.424-2.043-1.424-3.536 0-1.547.518-2.757 1.552-3.632 1.046-.875 2.726-1.413 5.04-1.616l3.632-.368v-1.104c0-1.461-.352-2.453-1.056-2.976-.704-.533-1.797-.8-3.28-.8-.661 0-1.408.059-2.24.176a14.27 14.27 0 0 0-2.464.576v-2.624a14.562 14.562 0 0 1 2.576-.576 19.606 19.606 0 0 1 2.64-.192c1.59 0 2.907.208 3.952.624 1.056.405 1.84 1.088 2.352 2.048.523.96.784 2.272.784 3.936V28h-2.768l-.24-1.872h-.192a5.176 5.176 0 0 1-2.128 1.616 7.003 7.003 0 0 1-2.768.544Zm-2.048-5.136c0 1.792.998 2.688 2.992 2.688.683 0 1.36-.139 2.032-.416.683-.277 1.302-.741 1.856-1.392V19.92l-3.344.336c-1.258.128-2.165.432-2.72.912-.544.48-.816 1.141-.816 1.984Zm21.707 12.208c-.843 0-1.739-.064-2.688-.192a15.587 15.587 0 0 1-2.656-.56v-2.72c.917.277 1.802.48 2.656.608.864.139 1.685.208 2.464.208 1.824 0 3.162-.379 4.016-1.136.864-.757 1.296-2.053 1.296-3.888v-1.52h-.176c-.523.608-1.184 1.099-1.984 1.472-.79.373-1.702.56-2.736.56a6.683 6.683 0 0 1-3.312-.848c-1.014-.576-1.83-1.488-2.448-2.736-.619-1.259-.928-2.912-.928-4.96 0-6.219 3.05-9.328 9.152-9.328.97 0 1.968.075 2.992.224a17.33 17.33 0 0 1 2.784.624V27.12c0 2.933-.704 5.04-2.112 6.32-1.398 1.28-3.504 1.92-6.32 1.92Zm1.312-9.968c.693 0 1.376-.139 2.048-.416a4.222 4.222 0 0 0 1.728-1.296v-10.4a8.262 8.262 0 0 0-1.248-.224 10.78 10.78 0 0 0-1.456-.096c-1.782 0-3.142.496-4.08 1.488-.939.992-1.408 2.624-1.408 4.896 0 1.579.186 2.805.56 3.68.384.875.906 1.488 1.568 1.84.661.352 1.424.528 2.288.528Zm21.01 2.928c-2.891 0-5.056-.704-6.496-2.112-1.44-1.419-2.16-3.723-2.16-6.912 0-3.008.656-5.253 1.968-6.736 1.312-1.493 3.109-2.24 5.392-2.24 2.24 0 3.963.747 5.168 2.24 1.205 1.493 1.808 3.765 1.808 6.816v.96h-10.96c.064 1.963.549 3.344 1.456 4.144.907.8 2.325 1.2 4.256 1.2.661 0 1.355-.053 2.08-.16a22.52 22.52 0 0 0 2.272-.496v2.624c-.864.235-1.685.405-2.464.512-.779.107-1.552.16-2.32.16Zm-1.328-15.712c-1.205 0-2.16.416-2.864 1.248-.693.821-1.061 2.277-1.104 4.368h7.808c-.032-2.08-.379-3.536-1.04-4.368-.661-.832-1.595-1.248-2.8-1.248Zm11.995 10.032v-2.72l10.224-4.096-10.224-4.064V9.04l12.88 5.264v3.072l-12.88 5.264Z"/>
  </mask>
  <path fill="#fff" d="m15.713 22.64-12.88-5.264v-3.072l12.88-5.264v2.72L5.505 15.824l10.208 4.096v2.72Zm13.841 5.68c-2.89 0-5.056-.704-6.496-2.112-1.44-1.419-2.16-3.723-2.16-6.912 0-3.008.656-5.253 1.968-6.736 1.312-1.493 3.11-2.24 5.392-2.24 2.24 0 3.963.747 5.168 2.24 1.205 1.493 1.808 3.765 1.808 6.816v.96h-10.96c.064 1.963.55 3.344 1.456 4.144.907.8 2.325 1.2 4.256 1.2.661 0 1.354-.053 2.08-.16a22.526 22.526 0 0 0 2.272-.496v2.624c-.864.235-1.685.405-2.464.512-.779.107-1.552.16-2.32.16Zm-1.328-15.712c-1.206 0-2.16.416-2.864 1.248-.693.821-1.061 2.277-1.104 4.368h7.808c-.032-2.08-.379-3.536-1.04-4.368-.662-.832-1.595-1.248-2.8-1.248ZM44.7 28.32c-1.855 0-3.54-.24-5.055-.72v-2.576c1.653.49 3.333.736 5.04.736 1.397 0 2.4-.224 3.008-.672.619-.448.928-1.077.928-1.888 0-.683-.181-1.2-.544-1.552-.352-.363-.95-.635-1.792-.816l-2.496-.496c-1.61-.32-2.768-.88-3.472-1.68-.694-.8-1.04-1.845-1.04-3.136 0-1.525.597-2.773 1.792-3.744 1.194-.97 3.034-1.456 5.52-1.456.768 0 1.51.048 2.224.144.725.085 1.408.213 2.048.384v2.576a16.138 16.138 0 0 0-4.192-.544c-1.6 0-2.704.25-3.312.752-.608.49-.912 1.093-.912 1.808 0 .597.165 1.088.496 1.472.341.373.933.656 1.776.848l2.496.48c1.59.33 2.746.875 3.472 1.632.736.757 1.104 1.819 1.104 3.184 0 1.632-.608 2.917-1.824 3.856-1.206.939-2.96 1.408-5.264 1.408ZM56.665 28V2.144h3.344V28h-3.344Zm9.412-7.632v-2.784h9.312v2.784h-9.312ZM81.46 28V10.592h3.343V28H81.46Zm1.68-20.8c-1.473 0-2.209-.64-2.209-1.92 0-.608.187-1.083.56-1.424.374-.352.923-.528 1.648-.528.726 0 1.275.176 1.648.528.373.341.56.816.56 1.424 0 1.28-.736 1.92-2.208 1.92ZM90.934 28V10.592h2.784l.24 1.92h.192c1.301-1.461 2.96-2.192 4.976-2.192.96 0 1.819.192 2.576.576.768.373 1.371.987 1.808 1.84.8-.875 1.664-1.493 2.592-1.856.939-.373 1.851-.56 2.736-.56 1.045 0 1.973.208 2.784.624.811.416 1.451 1.093 1.92 2.032.469.928.704 2.17.704 3.728V28h-3.328V16.864c0-1.365-.283-2.31-.848-2.832-.555-.523-1.264-.784-2.128-.784-.608 0-1.253.144-1.936.432-.683.277-1.28.768-1.792 1.472.053.448.08.933.08 1.456V28h-3.28V16.864c0-1.365-.267-2.31-.8-2.832-.533-.523-1.232-.784-2.096-.784-.661 0-1.344.165-2.048.496-.704.33-1.301.87-1.792 1.616V28h-3.344Zm33.72.288c-1.685 0-3.008-.432-3.968-1.296-.949-.864-1.424-2.043-1.424-3.536 0-1.547.518-2.757 1.552-3.632 1.046-.875 2.726-1.413 5.04-1.616l3.632-.368v-1.104c0-1.461-.352-2.453-1.056-2.976-.704-.533-1.797-.8-3.28-.8-.661 0-1.408.059-2.24.176a14.27 14.27 0 0 0-2.464.576v-2.624a14.562 14.562 0 0 1 2.576-.576 19.606 19.606 0 0 1 2.64-.192c1.59 0 2.907.208 3.952.624 1.056.405 1.84 1.088 2.352 2.048.523.96.784 2.272.784 3.936V28h-2.768l-.24-1.872h-.192a5.176 5.176 0 0 1-2.128 1.616 7.003 7.003 0 0 1-2.768.544Zm-2.048-5.136c0 1.792.998 2.688 2.992 2.688.683 0 1.36-.139 2.032-.416.683-.277 1.302-.741 1.856-1.392V19.92l-3.344.336c-1.258.128-2.165.432-2.72.912-.544.48-.816 1.141-.816 1.984Zm21.707 12.208c-.843 0-1.739-.064-2.688-.192a15.587 15.587 0 0 1-2.656-.56v-2.72c.917.277 1.802.48 2.656.608.864.139 1.685.208 2.464.208 1.824 0 3.162-.379 4.016-1.136.864-.757 1.296-2.053 1.296-3.888v-1.52h-.176c-.523.608-1.184 1.099-1.984 1.472-.79.373-1.702.56-2.736.56a6.683 6.683 0 0 1-3.312-.848c-1.014-.576-1.83-1.488-2.448-2.736-.619-1.259-.928-2.912-.928-4.96 0-6.219 3.05-9.328 9.152-9.328.97 0 1.968.075 2.992.224a17.33 17.33 0 0 1 2.784.624V27.12c0 2.933-.704 5.04-2.112 6.32-1.398 1.28-3.504 1.92-6.32 1.92Zm1.312-9.968c.693 0 1.376-.139 2.048-.416a4.222 4.222 0 0 0 1.728-1.296v-10.4a8.262 8.262 0 0 0-1.248-.224 10.78 10.78 0 0 0-1.456-.096c-1.782 0-3.142.496-4.08 1.488-.939.992-1.408 2.624-1.408 4.896 0 1.579.186 2.805.56 3.68.384.875.906 1.488 1.568 1.84.661.352 1.424.528 2.288.528Zm21.01 2.928c-2.891 0-5.056-.704-6.496-2.112-1.44-1.419-2.16-3.723-2.16-6.912 0-3.008.656-5.253 1.968-6.736 1.312-1.493 3.109-2.24 5.392-2.24 2.24 0 3.963.747 5.168 2.24 1.205 1.493 1.808 3.765 1.808 6.816v.96h-10.96c.064 1.963.549 3.344 1.456 4.144.907.8 2.325 1.2 4.256 1.2.661 0 1.355-.053 2.08-.16a22.52 22.52 0 0 0 2.272-.496v2.624c-.864.235-1.685.405-2.464.512-.779.107-1.552.16-2.32.16Zm-1.328-15.712c-1.205 0-2.16.416-2.864 1.248-.693.821-1.061 2.277-1.104 4.368h7.808c-.032-2.08-.379-3.536-1.04-4.368-.661-.832-1.595-1.248-2.8-1.248Zm11.995 10.032v-2.72l10.224-4.096-10.224-4.064V9.04l12.88 5.264v3.072l-12.88 5.264Z"/>
  <path stroke="#0097E7" stroke-width="4" d="m15.713 22.64-12.88-5.264v-3.072l12.88-5.264v2.72L5.505 15.824l10.208 4.096v2.72Zm13.841 5.68c-2.89 0-5.056-.704-6.496-2.112-1.44-1.419-2.16-3.723-2.16-6.912 0-3.008.656-5.253 1.968-6.736 1.312-1.493 3.11-2.24 5.392-2.24 2.24 0 3.963.747 5.168 2.24 1.205 1.493 1.808 3.765 1.808 6.816v.96h-10.96c.064 1.963.55 3.344 1.456 4.144.907.8 2.325 1.2 4.256 1.2.661 0 1.354-.053 2.08-.16a22.526 22.526 0 0 0 2.272-.496v2.624c-.864.235-1.685.405-2.464.512-.779.107-1.552.16-2.32.16Zm-1.328-15.712c-1.206 0-2.16.416-2.864 1.248-.693.821-1.061 2.277-1.104 4.368h7.808c-.032-2.08-.379-3.536-1.04-4.368-.662-.832-1.595-1.248-2.8-1.248ZM44.7 28.32c-1.855 0-3.54-.24-5.055-.72v-2.576c1.653.49 3.333.736 5.04.736 1.397 0 2.4-.224 3.008-.672.619-.448.928-1.077.928-1.888 0-.683-.181-1.2-.544-1.552-.352-.363-.95-.635-1.792-.816l-2.496-.496c-1.61-.32-2.768-.88-3.472-1.68-.694-.8-1.04-1.845-1.04-3.136 0-1.525.597-2.773 1.792-3.744 1.194-.97 3.034-1.456 5.52-1.456.768 0 1.51.048 2.224.144.725.085 1.408.213 2.048.384v2.576a16.138 16.138 0 0 0-4.192-.544c-1.6 0-2.704.25-3.312.752-.608.49-.912 1.093-.912 1.808 0 .597.165 1.088.496 1.472.341.373.933.656 1.776.848l2.496.48c1.59.33 2.746.875 3.472 1.632.736.757 1.104 1.819 1.104 3.184 0 1.632-.608 2.917-1.824 3.856-1.206.939-2.96 1.408-5.264 1.408ZM56.665 28V2.144h3.344V28h-3.344Zm9.412-7.632v-2.784h9.312v2.784h-9.312ZM81.46 28V10.592h3.343V28H81.46Zm1.68-20.8c-1.473 0-2.209-.64-2.209-1.92 0-.608.187-1.083.56-1.424.374-.352.923-.528 1.648-.528.726 0 1.275.176 1.648.528.373.341.56.816.56 1.424 0 1.28-.736 1.92-2.208 1.92ZM90.934 28V10.592h2.784l.24 1.92h.192c1.301-1.461 2.96-2.192 4.976-2.192.96 0 1.819.192 2.576.576.768.373 1.371.987 1.808 1.84.8-.875 1.664-1.493 2.592-1.856.939-.373 1.851-.56 2.736-.56 1.045 0 1.973.208 2.784.624.811.416 1.451 1.093 1.92 2.032.469.928.704 2.17.704 3.728V28h-3.328V16.864c0-1.365-.283-2.31-.848-2.832-.555-.523-1.264-.784-2.128-.784-.608 0-1.253.144-1.936.432-.683.277-1.28.768-1.792 1.472.053.448.08.933.08 1.456V28h-3.28V16.864c0-1.365-.267-2.31-.8-2.832-.533-.523-1.232-.784-2.096-.784-.661 0-1.344.165-2.048.496-.704.33-1.301.87-1.792 1.616V28h-3.344Zm33.72.288c-1.685 0-3.008-.432-3.968-1.296-.949-.864-1.424-2.043-1.424-3.536 0-1.547.518-2.757 1.552-3.632 1.046-.875 2.726-1.413 5.04-1.616l3.632-.368v-1.104c0-1.461-.352-2.453-1.056-2.976-.704-.533-1.797-.8-3.28-.8-.661 0-1.408.059-2.24.176a14.27 14.27 0 0 0-2.464.576v-2.624a14.562 14.562 0 0 1 2.576-.576 19.606 19.606 0 0 1 2.64-.192c1.59 0 2.907.208 3.952.624 1.056.405 1.84 1.088 2.352 2.048.523.96.784 2.272.784 3.936V28h-2.768l-.24-1.872h-.192a5.176 5.176 0 0 1-2.128 1.616 7.003 7.003 0 0 1-2.768.544Zm-2.048-5.136c0 1.792.998 2.688 2.992 2.688.683 0 1.36-.139 2.032-.416.683-.277 1.302-.741 1.856-1.392V19.92l-3.344.336c-1.258.128-2.165.432-2.72.912-.544.48-.816 1.141-.816 1.984Zm21.707 12.208c-.843 0-1.739-.064-2.688-.192a15.587 15.587 0 0 1-2.656-.56v-2.72c.917.277 1.802.48 2.656.608.864.139 1.685.208 2.464.208 1.824 0 3.162-.379 4.016-1.136.864-.757 1.296-2.053 1.296-3.888v-1.52h-.176c-.523.608-1.184 1.099-1.984 1.472-.79.373-1.702.56-2.736.56a6.683 6.683 0 0 1-3.312-.848c-1.014-.576-1.83-1.488-2.448-2.736-.619-1.259-.928-2.912-.928-4.96 0-6.219 3.05-9.328 9.152-9.328.97 0 1.968.075 2.992.224a17.33 17.33 0 0 1 2.784.624V27.12c0 2.933-.704 5.04-2.112 6.32-1.398 1.28-3.504 1.92-6.32 1.92Zm1.312-9.968c.693 0 1.376-.139 2.048-.416a4.222 4.222 0 0 0 1.728-1.296v-10.4a8.262 8.262 0 0 0-1.248-.224 10.78 10.78 0 0 0-1.456-.096c-1.782 0-3.142.496-4.08 1.488-.939.992-1.408 2.624-1.408 4.896 0 1.579.186 2.805.56 3.68.384.875.906 1.488 1.568 1.84.661.352 1.424.528 2.288.528Zm21.01 2.928c-2.891 0-5.056-.704-6.496-2.112-1.44-1.419-2.16-3.723-2.16-6.912 0-3.008.656-5.253 1.968-6.736 1.312-1.493 3.109-2.24 5.392-2.24 2.24 0 3.963.747 5.168 2.24 1.205 1.493 1.808 3.765 1.808 6.816v.96h-10.96c.064 1.963.549 3.344 1.456 4.144.907.8 2.325 1.2 4.256 1.2.661 0 1.355-.053 2.08-.16a22.52 22.52 0 0 0 2.272-.496v2.624c-.864.235-1.685.405-2.464.512-.779.107-1.552.16-2.32.16Zm-1.328-15.712c-1.205 0-2.16.416-2.864 1.248-.693.821-1.061 2.277-1.104 4.368h7.808c-.032-2.08-.379-3.536-1.04-4.368-.661-.832-1.595-1.248-2.8-1.248Zm11.995 10.032v-2.72l10.224-4.096-10.224-4.064V9.04l12.88 5.264v3.072l-12.88 5.264Z" mask="url(#path-1-outside-1_42:124)"/>
</svg>
