<svg xmlns="http://www.w3.org/2000/svg" width="157" height="71" fill="none">
  <mask id="path-1-outside-1_42:127" width="156" height="71" x=".783" y=".144" fill="#000" maskUnits="userSpaceOnUse">
    <path fill="#fff" d="M.783.144h156v71h-156z"/>
    <path d="m55.107 22.64-12.88-5.264v-3.072l12.88-5.264v2.72L44.9 15.824l10.208 4.096v2.72Zm13.841 5.68c-2.891 0-5.056-.704-6.496-2.112-1.44-1.419-2.16-3.723-2.16-6.912 0-3.008.656-5.253 1.968-6.736 1.312-1.493 3.109-2.24 5.392-2.24 2.24 0 3.962.747 5.168 2.24 1.205 1.493 1.808 3.765 1.808 6.816v.96h-10.96c.064 1.963.549 3.344 1.456 4.144.906.8 2.325 1.2 4.256 1.2.661 0 1.354-.053 2.08-.16a22.52 22.52 0 0 0 2.272-.496v2.624c-.864.235-1.686.405-2.464.512-.779.107-1.552.16-2.32.16ZM67.62 12.608c-1.206 0-2.16.416-2.864 1.248-.694.821-1.062 2.277-1.104 4.368h7.808c-.032-2.08-.379-3.536-1.04-4.368-.662-.832-1.595-1.248-2.8-1.248ZM84.095 28.32c-1.856 0-3.542-.24-5.056-.72v-2.576c1.653.49 3.333.736 5.04.736 1.397 0 2.4-.224 3.008-.672.618-.448.928-1.077.928-1.888 0-.683-.182-1.2-.544-1.552-.352-.363-.95-.635-1.792-.816l-2.496-.496c-1.611-.32-2.768-.88-3.472-1.68-.694-.8-1.04-1.845-1.04-3.136 0-1.525.597-2.773 1.792-3.744 1.194-.97 3.034-1.456 5.52-1.456a16.7 16.7 0 0 1 2.224.144c.725.085 1.408.213 2.048.384v2.576a16.138 16.138 0 0 0-4.192-.544c-1.6 0-2.704.25-3.312.752-.608.49-.912 1.093-.912 1.808 0 .597.165 1.088.496 1.472.341.373.933.656 1.776.848l2.496.48c1.589.33 2.746.875 3.472 1.632.736.757 1.104 1.819 1.104 3.184 0 1.632-.608 2.917-1.824 3.856-1.206.939-2.96 1.408-5.264 1.408ZM96.06 28V2.144h3.343V28H96.06Zm9.411-7.632v-2.784h9.312v2.784h-9.312ZM8.207 68.32c-1.856 0-3.541-.24-5.056-.72v-2.576c1.654.49 3.334.736 5.04.736 1.398 0 2.4-.224 3.008-.672.619-.448.928-1.077.928-1.888 0-.683-.181-1.2-.544-1.552-.352-.363-.95-.635-1.792-.816l-2.496-.496c-1.61-.32-2.768-.88-3.472-1.68-.693-.8-1.04-1.845-1.04-3.136 0-1.525.598-2.773 1.792-3.744 1.195-.97 3.035-1.456 5.52-1.456.768 0 1.51.048 2.224.144.725.085 1.408.213 2.048.384v2.576a16.138 16.138 0 0 0-4.192-.544c-1.6 0-2.704.25-3.312.752-.608.49-.912 1.093-.912 1.808 0 .597.166 1.088.496 1.472.342.373.934.656 1.776.848l2.496.48c1.59.33 2.747.875 3.472 1.632.736.757 1.104 1.819 1.104 3.184 0 1.632-.608 2.917-1.824 3.856-1.205.939-2.96 1.408-5.264 1.408Zm19.213 0c-2.614 0-4.624-.72-6.032-2.16-1.398-1.45-2.096-3.733-2.096-6.848 0-3.136.757-5.419 2.272-6.848 1.514-1.43 3.669-2.144 6.464-2.144.629 0 1.253.037 1.872.112.629.075 1.226.181 1.792.32v2.752a13.69 13.69 0 0 0-3.264-.416c-1.931 0-3.36.47-4.288 1.408-.928.928-1.392 2.517-1.392 4.768 0 2.293.437 3.915 1.312 4.864.874.939 2.16 1.408 3.856 1.408.544 0 1.12-.048 1.728-.144a16.87 16.87 0 0 0 2.048-.512v2.736c-1.355.47-2.779.704-4.272.704Zm8.79-.32V50.592h2.767l.272 2.304h.176a5.364 5.364 0 0 1 2.16-1.872 6.402 6.402 0 0 1 2.784-.624c.48 0 .944.043 1.392.128v3.056a6.275 6.275 0 0 0-.784-.08 9.41 9.41 0 0 0-.784-.032c-.821 0-1.67.187-2.544.56a4.69 4.69 0 0 0-2.096 1.664V68H36.21Zm20.12.32c-2.358 0-4.24-.72-5.648-2.16-1.398-1.45-2.096-3.728-2.096-6.832 0-3.115.693-5.392 2.08-6.832 1.386-1.45 3.274-2.176 5.664-2.176 2.389 0 4.277.725 5.663 2.176 1.387 1.44 2.08 3.712 2.08 6.816 0 3.093-.703 5.37-2.111 6.832-1.398 1.45-3.275 2.176-5.633 2.176Zm0-2.64c.895 0 1.669-.192 2.32-.576.65-.395 1.151-1.05 1.504-1.968.351-.928.527-2.192.527-3.792 0-1.621-.175-2.896-.527-3.824-.353-.928-.854-1.584-1.505-1.968-.65-.395-1.424-.592-2.32-.592-.895 0-1.669.197-2.32.592-.65.384-1.151 1.035-1.504 1.952-.352.917-.528 2.176-.528 3.776 0 1.621.177 2.896.529 3.824.352.928.853 1.59 1.504 1.984.65.395 1.424.592 2.32.592ZM69.284 68V42.144h3.344V68h-3.344Zm9.444 0V42.144h3.344V68h-3.344Zm15.22.304c-.971 0-1.958-.07-2.96-.208a17.032 17.032 0 0 1-2.816-.624V42.144h3.344v10.208h.176a5.854 5.854 0 0 1 1.968-1.472c.8-.373 1.717-.56 2.752-.56 1.216 0 2.33.288 3.344.864 1.013.576 1.824 1.499 2.432 2.768.608 1.259.912 2.928.912 5.008 0 6.24-3.051 9.355-9.152 9.344Zm.272-2.624c1.802 0 3.168-.496 4.096-1.488.928-1.003 1.392-2.65 1.392-4.944 0-1.59-.192-2.827-.576-3.712-.374-.885-.896-1.504-1.568-1.856-.662-.363-1.419-.544-2.272-.544a5.37 5.37 0 0 0-2.064.416 4.233 4.233 0 0 0-1.712 1.296v10.48c.352.096.762.181 1.232.256.48.064.97.096 1.472.096Zm18.578 2.608c-1.685 0-3.008-.432-3.968-1.296-.949-.864-1.424-2.043-1.424-3.536 0-1.547.518-2.757 1.552-3.632 1.046-.875 2.726-1.413 5.04-1.616l3.632-.368v-1.104c0-1.461-.352-2.453-1.056-2.976-.704-.533-1.797-.8-3.28-.8-.661 0-1.408.059-2.24.176a14.27 14.27 0 0 0-2.464.576v-2.624a14.562 14.562 0 0 1 2.576-.576 19.606 19.606 0 0 1 2.64-.192c1.59 0 2.907.208 3.952.624 1.056.405 1.84 1.088 2.352 2.048.523.96.784 2.272.784 3.936V68h-2.768l-.24-1.872h-.192a5.176 5.176 0 0 1-2.128 1.616 7.003 7.003 0 0 1-2.768.544Zm-2.048-5.136c0 1.792.998 2.688 2.992 2.688.683 0 1.36-.139 2.032-.416.683-.277 1.302-.741 1.856-1.392V59.92l-3.344.336c-1.258.128-2.165.432-2.72.912-.544.48-.816 1.141-.816 1.984ZM126.84 68V50.592h2.768l.272 2.304h.176a5.373 5.373 0 0 1 2.16-1.872A6.404 6.404 0 0 1 135 50.4c.48 0 .944.043 1.392.128v3.056a6.27 6.27 0 0 0-.784-.08 9.404 9.404 0 0 0-.784-.032c-.821 0-1.669.187-2.544.56a4.696 4.696 0 0 0-2.096 1.664V68h-3.344Zm13.568-5.36v-2.72l10.224-4.096-10.224-4.064v-2.72l12.88 5.264v3.072l-12.88 5.264Z"/>
  </mask>
  <path fill="#fff" d="m55.107 22.64-12.88-5.264v-3.072l12.88-5.264v2.72L44.9 15.824l10.208 4.096v2.72Zm13.841 5.68c-2.891 0-5.056-.704-6.496-2.112-1.44-1.419-2.16-3.723-2.16-6.912 0-3.008.656-5.253 1.968-6.736 1.312-1.493 3.109-2.24 5.392-2.24 2.24 0 3.962.747 5.168 2.24 1.205 1.493 1.808 3.765 1.808 6.816v.96h-10.96c.064 1.963.549 3.344 1.456 4.144.906.8 2.325 1.2 4.256 1.2.661 0 1.354-.053 2.08-.16a22.52 22.52 0 0 0 2.272-.496v2.624c-.864.235-1.686.405-2.464.512-.779.107-1.552.16-2.32.16ZM67.62 12.608c-1.206 0-2.16.416-2.864 1.248-.694.821-1.062 2.277-1.104 4.368h7.808c-.032-2.08-.379-3.536-1.04-4.368-.662-.832-1.595-1.248-2.8-1.248ZM84.095 28.32c-1.856 0-3.542-.24-5.056-.72v-2.576c1.653.49 3.333.736 5.04.736 1.397 0 2.4-.224 3.008-.672.618-.448.928-1.077.928-1.888 0-.683-.182-1.2-.544-1.552-.352-.363-.95-.635-1.792-.816l-2.496-.496c-1.611-.32-2.768-.88-3.472-1.68-.694-.8-1.04-1.845-1.04-3.136 0-1.525.597-2.773 1.792-3.744 1.194-.97 3.034-1.456 5.52-1.456a16.7 16.7 0 0 1 2.224.144c.725.085 1.408.213 2.048.384v2.576a16.138 16.138 0 0 0-4.192-.544c-1.6 0-2.704.25-3.312.752-.608.49-.912 1.093-.912 1.808 0 .597.165 1.088.496 1.472.341.373.933.656 1.776.848l2.496.48c1.589.33 2.746.875 3.472 1.632.736.757 1.104 1.819 1.104 3.184 0 1.632-.608 2.917-1.824 3.856-1.206.939-2.96 1.408-5.264 1.408ZM96.06 28V2.144h3.343V28H96.06Zm9.411-7.632v-2.784h9.312v2.784h-9.312ZM8.207 68.32c-1.856 0-3.541-.24-5.056-.72v-2.576c1.654.49 3.334.736 5.04.736 1.398 0 2.4-.224 3.008-.672.619-.448.928-1.077.928-1.888 0-.683-.181-1.2-.544-1.552-.352-.363-.95-.635-1.792-.816l-2.496-.496c-1.61-.32-2.768-.88-3.472-1.68-.693-.8-1.04-1.845-1.04-3.136 0-1.525.598-2.773 1.792-3.744 1.195-.97 3.035-1.456 5.52-1.456.768 0 1.51.048 2.224.144.725.085 1.408.213 2.048.384v2.576a16.138 16.138 0 0 0-4.192-.544c-1.6 0-2.704.25-3.312.752-.608.49-.912 1.093-.912 1.808 0 .597.166 1.088.496 1.472.342.373.934.656 1.776.848l2.496.48c1.59.33 2.747.875 3.472 1.632.736.757 1.104 1.819 1.104 3.184 0 1.632-.608 2.917-1.824 3.856-1.205.939-2.96 1.408-5.264 1.408Zm19.213 0c-2.614 0-4.624-.72-6.032-2.16-1.398-1.45-2.096-3.733-2.096-6.848 0-3.136.757-5.419 2.272-6.848 1.514-1.43 3.669-2.144 6.464-2.144.629 0 1.253.037 1.872.112.629.075 1.226.181 1.792.32v2.752a13.69 13.69 0 0 0-3.264-.416c-1.931 0-3.36.47-4.288 1.408-.928.928-1.392 2.517-1.392 4.768 0 2.293.437 3.915 1.312 4.864.874.939 2.16 1.408 3.856 1.408.544 0 1.12-.048 1.728-.144a16.87 16.87 0 0 0 2.048-.512v2.736c-1.355.47-2.779.704-4.272.704Zm8.79-.32V50.592h2.767l.272 2.304h.176a5.364 5.364 0 0 1 2.16-1.872 6.402 6.402 0 0 1 2.784-.624c.48 0 .944.043 1.392.128v3.056a6.275 6.275 0 0 0-.784-.08 9.41 9.41 0 0 0-.784-.032c-.821 0-1.67.187-2.544.56a4.69 4.69 0 0 0-2.096 1.664V68H36.21Zm20.12.32c-2.358 0-4.24-.72-5.648-2.16-1.398-1.45-2.096-3.728-2.096-6.832 0-3.115.693-5.392 2.08-6.832 1.386-1.45 3.274-2.176 5.664-2.176 2.389 0 4.277.725 5.663 2.176 1.387 1.44 2.08 3.712 2.08 6.816 0 3.093-.703 5.37-2.111 6.832-1.398 1.45-3.275 2.176-5.633 2.176Zm0-2.64c.895 0 1.669-.192 2.32-.576.65-.395 1.151-1.05 1.504-1.968.351-.928.527-2.192.527-3.792 0-1.621-.175-2.896-.527-3.824-.353-.928-.854-1.584-1.505-1.968-.65-.395-1.424-.592-2.32-.592-.895 0-1.669.197-2.32.592-.65.384-1.151 1.035-1.504 1.952-.352.917-.528 2.176-.528 3.776 0 1.621.177 2.896.529 3.824.352.928.853 1.59 1.504 1.984.65.395 1.424.592 2.32.592ZM69.284 68V42.144h3.344V68h-3.344Zm9.444 0V42.144h3.344V68h-3.344Zm15.22.304c-.971 0-1.958-.07-2.96-.208a17.032 17.032 0 0 1-2.816-.624V42.144h3.344v10.208h.176a5.854 5.854 0 0 1 1.968-1.472c.8-.373 1.717-.56 2.752-.56 1.216 0 2.33.288 3.344.864 1.013.576 1.824 1.499 2.432 2.768.608 1.259.912 2.928.912 5.008 0 6.24-3.051 9.355-9.152 9.344Zm.272-2.624c1.802 0 3.168-.496 4.096-1.488.928-1.003 1.392-2.65 1.392-4.944 0-1.59-.192-2.827-.576-3.712-.374-.885-.896-1.504-1.568-1.856-.662-.363-1.419-.544-2.272-.544a5.37 5.37 0 0 0-2.064.416 4.233 4.233 0 0 0-1.712 1.296v10.48c.352.096.762.181 1.232.256.48.064.97.096 1.472.096Zm18.578 2.608c-1.685 0-3.008-.432-3.968-1.296-.949-.864-1.424-2.043-1.424-3.536 0-1.547.518-2.757 1.552-3.632 1.046-.875 2.726-1.413 5.04-1.616l3.632-.368v-1.104c0-1.461-.352-2.453-1.056-2.976-.704-.533-1.797-.8-3.28-.8-.661 0-1.408.059-2.24.176a14.27 14.27 0 0 0-2.464.576v-2.624a14.562 14.562 0 0 1 2.576-.576 19.606 19.606 0 0 1 2.64-.192c1.59 0 2.907.208 3.952.624 1.056.405 1.84 1.088 2.352 2.048.523.96.784 2.272.784 3.936V68h-2.768l-.24-1.872h-.192a5.176 5.176 0 0 1-2.128 1.616 7.003 7.003 0 0 1-2.768.544Zm-2.048-5.136c0 1.792.998 2.688 2.992 2.688.683 0 1.36-.139 2.032-.416.683-.277 1.302-.741 1.856-1.392V59.92l-3.344.336c-1.258.128-2.165.432-2.72.912-.544.48-.816 1.141-.816 1.984ZM126.84 68V50.592h2.768l.272 2.304h.176a5.373 5.373 0 0 1 2.16-1.872A6.404 6.404 0 0 1 135 50.4c.48 0 .944.043 1.392.128v3.056a6.27 6.27 0 0 0-.784-.08 9.404 9.404 0 0 0-.784-.032c-.821 0-1.669.187-2.544.56a4.696 4.696 0 0 0-2.096 1.664V68h-3.344Zm13.568-5.36v-2.72l10.224-4.096-10.224-4.064v-2.72l12.88 5.264v3.072l-12.88 5.264Z"/>
  <path stroke="#0097E7" stroke-width="4" d="m55.107 22.64-12.88-5.264v-3.072l12.88-5.264v2.72L44.9 15.824l10.208 4.096v2.72Zm13.841 5.68c-2.891 0-5.056-.704-6.496-2.112-1.44-1.419-2.16-3.723-2.16-6.912 0-3.008.656-5.253 1.968-6.736 1.312-1.493 3.109-2.24 5.392-2.24 2.24 0 3.962.747 5.168 2.24 1.205 1.493 1.808 3.765 1.808 6.816v.96h-10.96c.064 1.963.549 3.344 1.456 4.144.906.8 2.325 1.2 4.256 1.2.661 0 1.354-.053 2.08-.16a22.52 22.52 0 0 0 2.272-.496v2.624c-.864.235-1.686.405-2.464.512-.779.107-1.552.16-2.32.16ZM67.62 12.608c-1.206 0-2.16.416-2.864 1.248-.694.821-1.062 2.277-1.104 4.368h7.808c-.032-2.08-.379-3.536-1.04-4.368-.662-.832-1.595-1.248-2.8-1.248ZM84.095 28.32c-1.856 0-3.542-.24-5.056-.72v-2.576c1.653.49 3.333.736 5.04.736 1.397 0 2.4-.224 3.008-.672.618-.448.928-1.077.928-1.888 0-.683-.182-1.2-.544-1.552-.352-.363-.95-.635-1.792-.816l-2.496-.496c-1.611-.32-2.768-.88-3.472-1.68-.694-.8-1.04-1.845-1.04-3.136 0-1.525.597-2.773 1.792-3.744 1.194-.97 3.034-1.456 5.52-1.456a16.7 16.7 0 0 1 2.224.144c.725.085 1.408.213 2.048.384v2.576a16.138 16.138 0 0 0-4.192-.544c-1.6 0-2.704.25-3.312.752-.608.49-.912 1.093-.912 1.808 0 .597.165 1.088.496 1.472.341.373.933.656 1.776.848l2.496.48c1.589.33 2.746.875 3.472 1.632.736.757 1.104 1.819 1.104 3.184 0 1.632-.608 2.917-1.824 3.856-1.206.939-2.96 1.408-5.264 1.408ZM96.06 28V2.144h3.343V28H96.06Zm9.411-7.632v-2.784h9.312v2.784h-9.312ZM8.207 68.32c-1.856 0-3.541-.24-5.056-.72v-2.576c1.654.49 3.334.736 5.04.736 1.398 0 2.4-.224 3.008-.672.619-.448.928-1.077.928-1.888 0-.683-.181-1.2-.544-1.552-.352-.363-.95-.635-1.792-.816l-2.496-.496c-1.61-.32-2.768-.88-3.472-1.68-.693-.8-1.04-1.845-1.04-3.136 0-1.525.598-2.773 1.792-3.744 1.195-.97 3.035-1.456 5.52-1.456.768 0 1.51.048 2.224.144.725.085 1.408.213 2.048.384v2.576a16.138 16.138 0 0 0-4.192-.544c-1.6 0-2.704.25-3.312.752-.608.49-.912 1.093-.912 1.808 0 .597.166 1.088.496 1.472.342.373.934.656 1.776.848l2.496.48c1.59.33 2.747.875 3.472 1.632.736.757 1.104 1.819 1.104 3.184 0 1.632-.608 2.917-1.824 3.856-1.205.939-2.96 1.408-5.264 1.408Zm19.213 0c-2.614 0-4.624-.72-6.032-2.16-1.398-1.45-2.096-3.733-2.096-6.848 0-3.136.757-5.419 2.272-6.848 1.514-1.43 3.669-2.144 6.464-2.144.629 0 1.253.037 1.872.112.629.075 1.226.181 1.792.32v2.752a13.69 13.69 0 0 0-3.264-.416c-1.931 0-3.36.47-4.288 1.408-.928.928-1.392 2.517-1.392 4.768 0 2.293.437 3.915 1.312 4.864.874.939 2.16 1.408 3.856 1.408.544 0 1.12-.048 1.728-.144a16.87 16.87 0 0 0 2.048-.512v2.736c-1.355.47-2.779.704-4.272.704Zm8.79-.32V50.592h2.767l.272 2.304h.176a5.364 5.364 0 0 1 2.16-1.872 6.402 6.402 0 0 1 2.784-.624c.48 0 .944.043 1.392.128v3.056a6.275 6.275 0 0 0-.784-.08 9.41 9.41 0 0 0-.784-.032c-.821 0-1.67.187-2.544.56a4.69 4.69 0 0 0-2.096 1.664V68H36.21Zm20.12.32c-2.358 0-4.24-.72-5.648-2.16-1.398-1.45-2.096-3.728-2.096-6.832 0-3.115.693-5.392 2.08-6.832 1.386-1.45 3.274-2.176 5.664-2.176 2.389 0 4.277.725 5.663 2.176 1.387 1.44 2.08 3.712 2.08 6.816 0 3.093-.703 5.37-2.111 6.832-1.398 1.45-3.275 2.176-5.633 2.176Zm0-2.64c.895 0 1.669-.192 2.32-.576.65-.395 1.151-1.05 1.504-1.968.351-.928.527-2.192.527-3.792 0-1.621-.175-2.896-.527-3.824-.353-.928-.854-1.584-1.505-1.968-.65-.395-1.424-.592-2.32-.592-.895 0-1.669.197-2.32.592-.65.384-1.151 1.035-1.504 1.952-.352.917-.528 2.176-.528 3.776 0 1.621.177 2.896.529 3.824.352.928.853 1.59 1.504 1.984.65.395 1.424.592 2.32.592ZM69.284 68V42.144h3.344V68h-3.344Zm9.444 0V42.144h3.344V68h-3.344Zm15.22.304c-.971 0-1.958-.07-2.96-.208a17.032 17.032 0 0 1-2.816-.624V42.144h3.344v10.208h.176a5.854 5.854 0 0 1 1.968-1.472c.8-.373 1.717-.56 2.752-.56 1.216 0 2.33.288 3.344.864 1.013.576 1.824 1.499 2.432 2.768.608 1.259.912 2.928.912 5.008 0 6.24-3.051 9.355-9.152 9.344Zm.272-2.624c1.802 0 3.168-.496 4.096-1.488.928-1.003 1.392-2.65 1.392-4.944 0-1.59-.192-2.827-.576-3.712-.374-.885-.896-1.504-1.568-1.856-.662-.363-1.419-.544-2.272-.544a5.37 5.37 0 0 0-2.064.416 4.233 4.233 0 0 0-1.712 1.296v10.48c.352.096.762.181 1.232.256.48.064.97.096 1.472.096Zm18.578 2.608c-1.685 0-3.008-.432-3.968-1.296-.949-.864-1.424-2.043-1.424-3.536 0-1.547.518-2.757 1.552-3.632 1.046-.875 2.726-1.413 5.04-1.616l3.632-.368v-1.104c0-1.461-.352-2.453-1.056-2.976-.704-.533-1.797-.8-3.28-.8-.661 0-1.408.059-2.24.176a14.27 14.27 0 0 0-2.464.576v-2.624a14.562 14.562 0 0 1 2.576-.576 19.606 19.606 0 0 1 2.64-.192c1.59 0 2.907.208 3.952.624 1.056.405 1.84 1.088 2.352 2.048.523.96.784 2.272.784 3.936V68h-2.768l-.24-1.872h-.192a5.176 5.176 0 0 1-2.128 1.616 7.003 7.003 0 0 1-2.768.544Zm-2.048-5.136c0 1.792.998 2.688 2.992 2.688.683 0 1.36-.139 2.032-.416.683-.277 1.302-.741 1.856-1.392V59.92l-3.344.336c-1.258.128-2.165.432-2.72.912-.544.48-.816 1.141-.816 1.984ZM126.84 68V50.592h2.768l.272 2.304h.176a5.373 5.373 0 0 1 2.16-1.872A6.404 6.404 0 0 1 135 50.4c.48 0 .944.043 1.392.128v3.056a6.27 6.27 0 0 0-.784-.08 9.404 9.404 0 0 0-.784-.032c-.821 0-1.669.187-2.544.56a4.696 4.696 0 0 0-2.096 1.664V68h-3.344Zm13.568-5.36v-2.72l10.224-4.096-10.224-4.064v-2.72l12.88 5.264v3.072l-12.88 5.264Z" mask="url(#path-1-outside-1_42:127)"/>
</svg>
