<svg xmlns="http://www.w3.org/2000/svg" width="199" height="38" fill="none">
  <mask id="path-1-outside-1_42:126" width="198" height="37" x=".505" y=".144" fill="#000" maskUnits="userSpaceOnUse">
    <path fill="#fff" d="M.505.144h198v37h-198z"/>
    <path d="m16.385 22.64-12.88-5.264v-3.072l12.88-5.264v2.72L6.177 15.824l10.208 4.096v2.72Zm13.841 5.68c-2.89 0-5.056-.704-6.496-2.112-1.44-1.419-2.16-3.723-2.16-6.912 0-3.008.656-5.253 1.968-6.736 1.312-1.493 3.11-2.24 5.392-2.24 2.24 0 3.962.747 5.168 2.24 1.205 1.493 1.808 3.765 1.808 6.816v.96h-10.96c.064 1.963.55 3.344 1.456 4.144.906.8 2.325 1.2 4.256 1.2.661 0 1.354-.053 2.08-.16a22.522 22.522 0 0 0 2.272-.496v2.624c-.864.235-1.686.405-2.464.512-.779.107-1.552.16-2.32.16Zm-1.328-15.712c-1.206 0-2.16.416-2.864 1.248-.694.821-1.062 2.277-1.104 4.368h7.808c-.032-2.08-.379-3.536-1.04-4.368-.662-.832-1.595-1.248-2.8-1.248ZM45.373 28.32c-1.856 0-3.542-.24-5.056-.72v-2.576c1.653.49 3.333.736 5.04.736 1.397 0 2.4-.224 3.008-.672.618-.448.928-1.077.928-1.888 0-.683-.182-1.2-.544-1.552-.352-.363-.95-.635-1.792-.816l-2.496-.496c-1.61-.32-2.768-.88-3.472-1.68-.694-.8-1.04-1.845-1.04-3.136 0-1.525.597-2.773 1.792-3.744 1.194-.97 3.034-1.456 5.52-1.456.768 0 1.51.048 2.224.144a14.53 14.53 0 0 1 2.048.384v2.576a16.137 16.137 0 0 0-4.192-.544c-1.6 0-2.704.25-3.312.752-.608.49-.912 1.093-.912 1.808 0 .597.165 1.088.496 1.472.341.373.933.656 1.776.848l2.496.48c1.59.33 2.746.875 3.472 1.632.736.757 1.104 1.819 1.104 3.184 0 1.632-.608 2.917-1.824 3.856-1.206.939-2.96 1.408-5.264 1.408ZM57.337 28V2.144h3.344V28h-3.344Zm9.412-7.632v-2.784h9.312v2.784h-9.312ZM82.131 35.04V10.592h2.832l.224 1.904h.176c.512-.65 1.173-1.173 1.984-1.568.81-.405 1.733-.608 2.768-.608 1.259 0 2.41.283 3.456.848 1.056.565 1.899 1.483 2.528 2.752.64 1.259.96 2.944.96 5.056 0 3.104-.768 5.435-2.304 6.992-1.525 1.557-3.76 2.336-6.704 2.336-.448 0-.896-.021-1.344-.064a17.664 17.664 0 0 1-1.232-.128v6.928h-3.344Zm5.952-9.376c1.845 0 3.237-.496 4.176-1.488.939-.992 1.408-2.635 1.408-4.928 0-1.59-.192-2.827-.576-3.712-.373-.896-.896-1.52-1.568-1.872-.661-.363-1.419-.544-2.272-.544-.704 0-1.392.15-2.064.448-.672.299-1.243.768-1.712 1.408v10.416c.352.085.763.155 1.232.208.47.043.928.064 1.376.064Zm21.231 2.656c-2.358 0-4.24-.72-5.648-2.16-1.398-1.45-2.096-3.728-2.096-6.832 0-3.115.693-5.392 2.08-6.832 1.386-1.45 3.274-2.176 5.664-2.176 2.389 0 4.277.725 5.664 2.176 1.386 1.44 2.08 3.712 2.08 6.816 0 3.093-.704 5.37-2.112 6.832-1.398 1.45-3.275 2.176-5.632 2.176Zm0-2.64c.896 0 1.669-.192 2.32-.576.65-.395 1.152-1.05 1.504-1.968.352-.928.528-2.192.528-3.792 0-1.621-.176-2.896-.528-3.824-.352-.928-.854-1.584-1.504-1.968-.651-.395-1.424-.592-2.32-.592-.896 0-1.67.197-2.32.592-.651.384-1.152 1.035-1.504 1.952-.352.917-.528 2.176-.528 3.776 0 1.621.176 2.896.528 3.824.352.928.853 1.59 1.504 1.984.65.395 1.424.592 2.32.592Zm12.986 9.36V10.592h2.832l.224 1.904h.176c.512-.65 1.173-1.173 1.984-1.568.81-.405 1.733-.608 2.768-.608 1.258 0 2.41.283 3.456.848 1.056.565 1.898 1.483 2.528 2.752.64 1.259.96 2.944.96 5.056 0 3.104-.768 5.435-2.304 6.992-1.526 1.557-3.76 2.336-6.704 2.336-.448 0-.896-.021-1.344-.064a17.645 17.645 0 0 1-1.232-.128v6.928H122.3Zm5.952-9.376c1.845 0 3.237-.496 4.176-1.488.938-.992 1.408-2.635 1.408-4.928 0-1.59-.192-2.827-.576-3.712-.374-.896-.896-1.52-1.568-1.872-.662-.363-1.419-.544-2.272-.544-.704 0-1.392.15-2.064.448-.672.299-1.243.768-1.712 1.408v10.416c.352.085.762.155 1.232.208.469.043.928.064 1.376.064Zm19.73 2.624c-1.098 0-2.08-.203-2.944-.608-.853-.416-1.525-1.088-2.016-2.016-.49-.928-.736-2.165-.736-3.712v-11.36h3.344V21.76c0 1.355.294 2.293.88 2.816.598.523 1.371.784 2.32.784.704 0 1.446-.16 2.224-.48.79-.32 1.462-.837 2.016-1.552V10.592h3.328V28h-2.784l-.224-1.856h-.176a7.226 7.226 0 0 1-2.416 1.616 7.55 7.55 0 0 1-2.816.528ZM162.5 35.04V10.592h2.832l.224 1.904h.176c.512-.65 1.173-1.173 1.984-1.568.81-.405 1.733-.608 2.768-.608 1.258 0 2.41.283 3.456.848 1.056.565 1.898 1.483 2.528 2.752.64 1.259.96 2.944.96 5.056 0 3.104-.768 5.435-2.304 6.992-1.526 1.557-3.76 2.336-6.704 2.336-.448 0-.896-.021-1.344-.064a17.645 17.645 0 0 1-1.232-.128v6.928H162.5Zm5.952-9.376c1.845 0 3.237-.496 4.176-1.488.938-.992 1.408-2.635 1.408-4.928 0-1.59-.192-2.827-.576-3.712-.374-.896-.896-1.52-1.568-1.872-.662-.363-1.419-.544-2.272-.544-.704 0-1.392.15-2.064.448-.672.299-1.243.768-1.712 1.408v10.416c.352.085.762.155 1.232.208.469.043.928.064 1.376.064Zm14.178-3.024v-2.72l10.224-4.096-10.224-4.064V9.04l12.88 5.264v3.072l-12.88 5.264Z"/>
  </mask>
  <path fill="#fff" d="m16.385 22.64-12.88-5.264v-3.072l12.88-5.264v2.72L6.177 15.824l10.208 4.096v2.72Zm13.841 5.68c-2.89 0-5.056-.704-6.496-2.112-1.44-1.419-2.16-3.723-2.16-6.912 0-3.008.656-5.253 1.968-6.736 1.312-1.493 3.11-2.24 5.392-2.24 2.24 0 3.962.747 5.168 2.24 1.205 1.493 1.808 3.765 1.808 6.816v.96h-10.96c.064 1.963.55 3.344 1.456 4.144.906.8 2.325 1.2 4.256 1.2.661 0 1.354-.053 2.08-.16a22.522 22.522 0 0 0 2.272-.496v2.624c-.864.235-1.686.405-2.464.512-.779.107-1.552.16-2.32.16Zm-1.328-15.712c-1.206 0-2.16.416-2.864 1.248-.694.821-1.062 2.277-1.104 4.368h7.808c-.032-2.08-.379-3.536-1.04-4.368-.662-.832-1.595-1.248-2.8-1.248ZM45.373 28.32c-1.856 0-3.542-.24-5.056-.72v-2.576c1.653.49 3.333.736 5.04.736 1.397 0 2.4-.224 3.008-.672.618-.448.928-1.077.928-1.888 0-.683-.182-1.2-.544-1.552-.352-.363-.95-.635-1.792-.816l-2.496-.496c-1.61-.32-2.768-.88-3.472-1.68-.694-.8-1.04-1.845-1.04-3.136 0-1.525.597-2.773 1.792-3.744 1.194-.97 3.034-1.456 5.52-1.456.768 0 1.51.048 2.224.144a14.53 14.53 0 0 1 2.048.384v2.576a16.137 16.137 0 0 0-4.192-.544c-1.6 0-2.704.25-3.312.752-.608.49-.912 1.093-.912 1.808 0 .597.165 1.088.496 1.472.341.373.933.656 1.776.848l2.496.48c1.59.33 2.746.875 3.472 1.632.736.757 1.104 1.819 1.104 3.184 0 1.632-.608 2.917-1.824 3.856-1.206.939-2.96 1.408-5.264 1.408ZM57.337 28V2.144h3.344V28h-3.344Zm9.412-7.632v-2.784h9.312v2.784h-9.312ZM82.131 35.04V10.592h2.832l.224 1.904h.176c.512-.65 1.173-1.173 1.984-1.568.81-.405 1.733-.608 2.768-.608 1.259 0 2.41.283 3.456.848 1.056.565 1.899 1.483 2.528 2.752.64 1.259.96 2.944.96 5.056 0 3.104-.768 5.435-2.304 6.992-1.525 1.557-3.76 2.336-6.704 2.336-.448 0-.896-.021-1.344-.064a17.664 17.664 0 0 1-1.232-.128v6.928h-3.344Zm5.952-9.376c1.845 0 3.237-.496 4.176-1.488.939-.992 1.408-2.635 1.408-4.928 0-1.59-.192-2.827-.576-3.712-.373-.896-.896-1.52-1.568-1.872-.661-.363-1.419-.544-2.272-.544-.704 0-1.392.15-2.064.448-.672.299-1.243.768-1.712 1.408v10.416c.352.085.763.155 1.232.208.47.043.928.064 1.376.064Zm21.231 2.656c-2.358 0-4.24-.72-5.648-2.16-1.398-1.45-2.096-3.728-2.096-6.832 0-3.115.693-5.392 2.08-6.832 1.386-1.45 3.274-2.176 5.664-2.176 2.389 0 4.277.725 5.664 2.176 1.386 1.44 2.08 3.712 2.08 6.816 0 3.093-.704 5.37-2.112 6.832-1.398 1.45-3.275 2.176-5.632 2.176Zm0-2.64c.896 0 1.669-.192 2.32-.576.65-.395 1.152-1.05 1.504-1.968.352-.928.528-2.192.528-3.792 0-1.621-.176-2.896-.528-3.824-.352-.928-.854-1.584-1.504-1.968-.651-.395-1.424-.592-2.32-.592-.896 0-1.67.197-2.32.592-.651.384-1.152 1.035-1.504 1.952-.352.917-.528 2.176-.528 3.776 0 1.621.176 2.896.528 3.824.352.928.853 1.59 1.504 1.984.65.395 1.424.592 2.32.592Zm12.986 9.36V10.592h2.832l.224 1.904h.176c.512-.65 1.173-1.173 1.984-1.568.81-.405 1.733-.608 2.768-.608 1.258 0 2.41.283 3.456.848 1.056.565 1.898 1.483 2.528 2.752.64 1.259.96 2.944.96 5.056 0 3.104-.768 5.435-2.304 6.992-1.526 1.557-3.76 2.336-6.704 2.336-.448 0-.896-.021-1.344-.064a17.645 17.645 0 0 1-1.232-.128v6.928H122.3Zm5.952-9.376c1.845 0 3.237-.496 4.176-1.488.938-.992 1.408-2.635 1.408-4.928 0-1.59-.192-2.827-.576-3.712-.374-.896-.896-1.52-1.568-1.872-.662-.363-1.419-.544-2.272-.544-.704 0-1.392.15-2.064.448-.672.299-1.243.768-1.712 1.408v10.416c.352.085.762.155 1.232.208.469.043.928.064 1.376.064Zm19.73 2.624c-1.098 0-2.08-.203-2.944-.608-.853-.416-1.525-1.088-2.016-2.016-.49-.928-.736-2.165-.736-3.712v-11.36h3.344V21.76c0 1.355.294 2.293.88 2.816.598.523 1.371.784 2.32.784.704 0 1.446-.16 2.224-.48.79-.32 1.462-.837 2.016-1.552V10.592h3.328V28h-2.784l-.224-1.856h-.176a7.226 7.226 0 0 1-2.416 1.616 7.55 7.55 0 0 1-2.816.528ZM162.5 35.04V10.592h2.832l.224 1.904h.176c.512-.65 1.173-1.173 1.984-1.568.81-.405 1.733-.608 2.768-.608 1.258 0 2.41.283 3.456.848 1.056.565 1.898 1.483 2.528 2.752.64 1.259.96 2.944.96 5.056 0 3.104-.768 5.435-2.304 6.992-1.526 1.557-3.76 2.336-6.704 2.336-.448 0-.896-.021-1.344-.064a17.645 17.645 0 0 1-1.232-.128v6.928H162.5Zm5.952-9.376c1.845 0 3.237-.496 4.176-1.488.938-.992 1.408-2.635 1.408-4.928 0-1.59-.192-2.827-.576-3.712-.374-.896-.896-1.52-1.568-1.872-.662-.363-1.419-.544-2.272-.544-.704 0-1.392.15-2.064.448-.672.299-1.243.768-1.712 1.408v10.416c.352.085.762.155 1.232.208.469.043.928.064 1.376.064Zm14.178-3.024v-2.72l10.224-4.096-10.224-4.064V9.04l12.88 5.264v3.072l-12.88 5.264Z"/>
  <path stroke="#0097E7" stroke-width="4" d="m16.385 22.64-12.88-5.264v-3.072l12.88-5.264v2.72L6.177 15.824l10.208 4.096v2.72Zm13.841 5.68c-2.89 0-5.056-.704-6.496-2.112-1.44-1.419-2.16-3.723-2.16-6.912 0-3.008.656-5.253 1.968-6.736 1.312-1.493 3.11-2.24 5.392-2.24 2.24 0 3.962.747 5.168 2.24 1.205 1.493 1.808 3.765 1.808 6.816v.96h-10.96c.064 1.963.55 3.344 1.456 4.144.906.8 2.325 1.2 4.256 1.2.661 0 1.354-.053 2.08-.16a22.522 22.522 0 0 0 2.272-.496v2.624c-.864.235-1.686.405-2.464.512-.779.107-1.552.16-2.32.16Zm-1.328-15.712c-1.206 0-2.16.416-2.864 1.248-.694.821-1.062 2.277-1.104 4.368h7.808c-.032-2.08-.379-3.536-1.04-4.368-.662-.832-1.595-1.248-2.8-1.248ZM45.373 28.32c-1.856 0-3.542-.24-5.056-.72v-2.576c1.653.49 3.333.736 5.04.736 1.397 0 2.4-.224 3.008-.672.618-.448.928-1.077.928-1.888 0-.683-.182-1.2-.544-1.552-.352-.363-.95-.635-1.792-.816l-2.496-.496c-1.61-.32-2.768-.88-3.472-1.68-.694-.8-1.04-1.845-1.04-3.136 0-1.525.597-2.773 1.792-3.744 1.194-.97 3.034-1.456 5.52-1.456.768 0 1.51.048 2.224.144a14.53 14.53 0 0 1 2.048.384v2.576a16.137 16.137 0 0 0-4.192-.544c-1.6 0-2.704.25-3.312.752-.608.49-.912 1.093-.912 1.808 0 .597.165 1.088.496 1.472.341.373.933.656 1.776.848l2.496.48c1.59.33 2.746.875 3.472 1.632.736.757 1.104 1.819 1.104 3.184 0 1.632-.608 2.917-1.824 3.856-1.206.939-2.96 1.408-5.264 1.408ZM57.337 28V2.144h3.344V28h-3.344Zm9.412-7.632v-2.784h9.312v2.784h-9.312ZM82.131 35.04V10.592h2.832l.224 1.904h.176c.512-.65 1.173-1.173 1.984-1.568.81-.405 1.733-.608 2.768-.608 1.259 0 2.41.283 3.456.848 1.056.565 1.899 1.483 2.528 2.752.64 1.259.96 2.944.96 5.056 0 3.104-.768 5.435-2.304 6.992-1.525 1.557-3.76 2.336-6.704 2.336-.448 0-.896-.021-1.344-.064a17.664 17.664 0 0 1-1.232-.128v6.928h-3.344Zm5.952-9.376c1.845 0 3.237-.496 4.176-1.488.939-.992 1.408-2.635 1.408-4.928 0-1.59-.192-2.827-.576-3.712-.373-.896-.896-1.52-1.568-1.872-.661-.363-1.419-.544-2.272-.544-.704 0-1.392.15-2.064.448-.672.299-1.243.768-1.712 1.408v10.416c.352.085.763.155 1.232.208.47.043.928.064 1.376.064Zm21.231 2.656c-2.358 0-4.24-.72-5.648-2.16-1.398-1.45-2.096-3.728-2.096-6.832 0-3.115.693-5.392 2.08-6.832 1.386-1.45 3.274-2.176 5.664-2.176 2.389 0 4.277.725 5.664 2.176 1.386 1.44 2.08 3.712 2.08 6.816 0 3.093-.704 5.37-2.112 6.832-1.398 1.45-3.275 2.176-5.632 2.176Zm0-2.64c.896 0 1.669-.192 2.32-.576.65-.395 1.152-1.05 1.504-1.968.352-.928.528-2.192.528-3.792 0-1.621-.176-2.896-.528-3.824-.352-.928-.854-1.584-1.504-1.968-.651-.395-1.424-.592-2.32-.592-.896 0-1.67.197-2.32.592-.651.384-1.152 1.035-1.504 1.952-.352.917-.528 2.176-.528 3.776 0 1.621.176 2.896.528 3.824.352.928.853 1.59 1.504 1.984.65.395 1.424.592 2.32.592Zm12.986 9.36V10.592h2.832l.224 1.904h.176c.512-.65 1.173-1.173 1.984-1.568.81-.405 1.733-.608 2.768-.608 1.258 0 2.41.283 3.456.848 1.056.565 1.898 1.483 2.528 2.752.64 1.259.96 2.944.96 5.056 0 3.104-.768 5.435-2.304 6.992-1.526 1.557-3.76 2.336-6.704 2.336-.448 0-.896-.021-1.344-.064a17.645 17.645 0 0 1-1.232-.128v6.928H122.3Zm5.952-9.376c1.845 0 3.237-.496 4.176-1.488.938-.992 1.408-2.635 1.408-4.928 0-1.59-.192-2.827-.576-3.712-.374-.896-.896-1.52-1.568-1.872-.662-.363-1.419-.544-2.272-.544-.704 0-1.392.15-2.064.448-.672.299-1.243.768-1.712 1.408v10.416c.352.085.762.155 1.232.208.469.043.928.064 1.376.064Zm19.73 2.624c-1.098 0-2.08-.203-2.944-.608-.853-.416-1.525-1.088-2.016-2.016-.49-.928-.736-2.165-.736-3.712v-11.36h3.344V21.76c0 1.355.294 2.293.88 2.816.598.523 1.371.784 2.32.784.704 0 1.446-.16 2.224-.48.79-.32 1.462-.837 2.016-1.552V10.592h3.328V28h-2.784l-.224-1.856h-.176a7.226 7.226 0 0 1-2.416 1.616 7.55 7.55 0 0 1-2.816.528ZM162.5 35.04V10.592h2.832l.224 1.904h.176c.512-.65 1.173-1.173 1.984-1.568.81-.405 1.733-.608 2.768-.608 1.258 0 2.41.283 3.456.848 1.056.565 1.898 1.483 2.528 2.752.64 1.259.96 2.944.96 5.056 0 3.104-.768 5.435-2.304 6.992-1.526 1.557-3.76 2.336-6.704 2.336-.448 0-.896-.021-1.344-.064a17.645 17.645 0 0 1-1.232-.128v6.928H162.5Zm5.952-9.376c1.845 0 3.237-.496 4.176-1.488.938-.992 1.408-2.635 1.408-4.928 0-1.59-.192-2.827-.576-3.712-.374-.896-.896-1.52-1.568-1.872-.662-.363-1.419-.544-2.272-.544-.704 0-1.392.15-2.064.448-.672.299-1.243.768-1.712 1.408v10.416c.352.085.762.155 1.232.208.469.043.928.064 1.376.064Zm14.178-3.024v-2.72l10.224-4.096-10.224-4.064V9.04l12.88 5.264v3.072l-12.88 5.264Z" mask="url(#path-1-outside-1_42:126)"/>
</svg>
