<svg xmlns="http://www.w3.org/2000/svg" width="207" height="38" fill="none">
  <mask id="path-1-outside-1_42:120" width="207" height="38" x=".062" y=".144" fill="#000" maskUnits="userSpaceOnUse">
    <path fill="#fff" d="M.062.144h207v38h-207z"/>
    <path d="m15.941 22.64-12.88-5.264v-3.072l12.88-5.264v2.72L5.734 15.824 15.94 19.92v2.72Zm13.841 5.68c-2.89 0-5.056-.704-6.496-2.112-1.44-1.419-2.16-3.723-2.16-6.912 0-3.008.656-5.253 1.968-6.736 1.312-1.493 3.11-2.24 5.392-2.24 2.24 0 3.963.747 5.168 2.24 1.205 1.493 1.808 3.765 1.808 6.816v.96h-10.96c.064 1.963.55 3.344 1.456 4.144.907.8 2.325 1.2 4.256 1.2.661 0 1.355-.053 2.08-.16a22.487 22.487 0 0 0 2.272-.496v2.624c-.864.235-1.685.405-2.464.512a17.07 17.07 0 0 1-2.32.16Zm-1.328-15.712c-1.205 0-2.16.416-2.864 1.248-.693.821-1.061 2.277-1.104 4.368h7.808c-.032-2.08-.379-3.536-1.04-4.368-.661-.832-1.595-1.248-2.8-1.248ZM44.929 28.32c-1.856 0-3.541-.24-5.056-.72v-2.576c1.653.49 3.333.736 5.04.736 1.397 0 2.4-.224 3.008-.672.619-.448.928-1.077.928-1.888 0-.683-.181-1.2-.544-1.552-.352-.363-.95-.635-1.792-.816l-2.496-.496c-1.61-.32-2.768-.88-3.472-1.68-.693-.8-1.04-1.845-1.04-3.136 0-1.525.597-2.773 1.792-3.744 1.195-.97 3.035-1.456 5.52-1.456.768 0 1.51.048 2.224.144a14.53 14.53 0 0 1 2.048.384v2.576a16.138 16.138 0 0 0-4.192-.544c-1.6 0-2.704.25-3.312.752-.608.49-.912 1.093-.912 1.808 0 .597.165 1.088.496 1.472.341.373.933.656 1.776.848l2.496.48c1.59.33 2.747.875 3.472 1.632.736.757 1.104 1.819 1.104 3.184 0 1.632-.608 2.917-1.824 3.856-1.205.939-2.96 1.408-5.264 1.408ZM56.894 28V2.144h3.343V28h-3.343Zm9.411-7.632v-2.784h9.312v2.784h-9.312Zm22.125 7.936c-1.878 0-3.334-.475-4.369-1.424-1.024-.95-1.536-2.47-1.536-4.56v-9.024H79.39v-2.704h3.136l.576-6.272h2.768v6.272h5.184v2.704H85.87v8.48c0 1.387.272 2.352.816 2.896.555.544 1.403.816 2.544.816.576 0 1.254-.085 2.032-.256v2.752c-.938.213-1.882.32-2.832.32ZM95.475 28V10.592h2.768l.272 2.304h.176a5.363 5.363 0 0 1 2.16-1.872 6.397 6.397 0 0 1 2.784-.624c.48 0 .944.043 1.392.128v3.056a6.308 6.308 0 0 0-.784-.08 9.465 9.465 0 0 0-.784-.032c-.822 0-1.67.187-2.544.56a4.69 4.69 0 0 0-2.096 1.664V28h-3.344Zm13.756 0V10.592h3.344V28h-3.344Zm1.68-20.8c-1.472 0-2.208-.64-2.208-1.92 0-.608.187-1.083.56-1.424.373-.352.923-.528 1.648-.528.725 0 1.275.176 1.648.528.373.341.56.816.56 1.424 0 1.28-.736 1.92-2.208 1.92Zm13.411 28.16c-.843 0-1.739-.064-2.688-.192a15.587 15.587 0 0 1-2.656-.56v-2.72c.917.277 1.803.48 2.656.608.864.139 1.685.208 2.464.208 1.824 0 3.163-.379 4.016-1.136.864-.757 1.296-2.053 1.296-3.888v-1.52h-.176c-.523.608-1.184 1.099-1.984 1.472-.789.373-1.701.56-2.736.56a6.683 6.683 0 0 1-3.312-.848c-1.013-.576-1.829-1.488-2.448-2.736-.619-1.259-.928-2.912-.928-4.96 0-6.219 3.051-9.328 9.152-9.328.971 0 1.968.075 2.992.224a17.33 17.33 0 0 1 2.784.624V27.12c0 2.933-.704 5.04-2.112 6.32-1.397 1.28-3.504 1.92-6.32 1.92Zm1.312-9.968c.693 0 1.376-.139 2.048-.416a4.207 4.207 0 0 0 1.728-1.296v-10.4a8.262 8.262 0 0 0-1.248-.224 10.769 10.769 0 0 0-1.456-.096c-1.781 0-3.141.496-4.08 1.488-.939.992-1.408 2.624-1.408 4.896 0 1.579.187 2.805.56 3.68.384.875.907 1.488 1.568 1.84.661.352 1.424.528 2.288.528Zm18.851 9.968c-.843 0-1.739-.064-2.688-.192a15.587 15.587 0 0 1-2.656-.56v-2.72c.917.277 1.802.48 2.656.608.864.139 1.685.208 2.464.208 1.824 0 3.162-.379 4.016-1.136.864-.757 1.296-2.053 1.296-3.888v-1.52h-.176c-.523.608-1.184 1.099-1.984 1.472-.79.373-1.702.56-2.736.56a6.683 6.683 0 0 1-3.312-.848c-1.014-.576-1.83-1.488-2.448-2.736-.619-1.259-.928-2.912-.928-4.96 0-6.219 3.05-9.328 9.152-9.328.97 0 1.968.075 2.992.224a17.33 17.33 0 0 1 2.784.624V27.12c0 2.933-.704 5.04-2.112 6.32-1.398 1.28-3.504 1.92-6.32 1.92Zm1.312-9.968c.693 0 1.376-.139 2.048-.416a4.22 4.22 0 0 0 1.728-1.296v-10.4a8.262 8.262 0 0 0-1.248-.224 10.78 10.78 0 0 0-1.456-.096c-1.782 0-3.142.496-4.08 1.488-.939.992-1.408 2.624-1.408 4.896 0 1.579.186 2.805.56 3.68.384.875.906 1.488 1.568 1.84.661.352 1.424.528 2.288.528Zm21.01 2.928c-2.891 0-5.056-.704-6.496-2.112-1.44-1.419-2.16-3.723-2.16-6.912 0-3.008.656-5.253 1.968-6.736 1.312-1.493 3.109-2.24 5.392-2.24 2.24 0 3.963.747 5.168 2.24 1.205 1.493 1.808 3.765 1.808 6.816v.96h-10.96c.064 1.963.549 3.344 1.456 4.144.907.8 2.325 1.2 4.256 1.2.661 0 1.355-.053 2.08-.16a22.493 22.493 0 0 0 2.272-.496v2.624c-.864.235-1.685.405-2.464.512-.779.107-1.552.16-2.32.16Zm-1.328-15.712c-1.205 0-2.16.416-2.864 1.248-.693.821-1.061 2.277-1.104 4.368h7.808c-.032-2.08-.379-3.536-1.04-4.368-.661-.832-1.595-1.248-2.8-1.248ZM177.506 28V10.592h2.768l.272 2.304h.176a5.36 5.36 0 0 1 2.16-1.872 6.404 6.404 0 0 1 2.784-.624c.48 0 .944.043 1.392.128v3.056a6.288 6.288 0 0 0-.784-.08 9.447 9.447 0 0 0-.784-.032c-.821 0-1.669.187-2.544.56a4.691 4.691 0 0 0-2.096 1.664V28h-3.344Zm13.568-5.36v-2.72l10.224-4.096-10.224-4.064V9.04l12.88 5.264v3.072l-12.88 5.264Z"/>
  </mask>
  <path fill="#fff" d="m15.941 22.64-12.88-5.264v-3.072l12.88-5.264v2.72L5.734 15.824 15.94 19.92v2.72Zm13.841 5.68c-2.89 0-5.056-.704-6.496-2.112-1.44-1.419-2.16-3.723-2.16-6.912 0-3.008.656-5.253 1.968-6.736 1.312-1.493 3.11-2.24 5.392-2.24 2.24 0 3.963.747 5.168 2.24 1.205 1.493 1.808 3.765 1.808 6.816v.96h-10.96c.064 1.963.55 3.344 1.456 4.144.907.8 2.325 1.2 4.256 1.2.661 0 1.355-.053 2.08-.16a22.487 22.487 0 0 0 2.272-.496v2.624c-.864.235-1.685.405-2.464.512a17.07 17.07 0 0 1-2.32.16Zm-1.328-15.712c-1.205 0-2.16.416-2.864 1.248-.693.821-1.061 2.277-1.104 4.368h7.808c-.032-2.08-.379-3.536-1.04-4.368-.661-.832-1.595-1.248-2.8-1.248ZM44.929 28.32c-1.856 0-3.541-.24-5.056-.72v-2.576c1.653.49 3.333.736 5.04.736 1.397 0 2.4-.224 3.008-.672.619-.448.928-1.077.928-1.888 0-.683-.181-1.2-.544-1.552-.352-.363-.95-.635-1.792-.816l-2.496-.496c-1.61-.32-2.768-.88-3.472-1.68-.693-.8-1.04-1.845-1.04-3.136 0-1.525.597-2.773 1.792-3.744 1.195-.97 3.035-1.456 5.52-1.456.768 0 1.51.048 2.224.144a14.53 14.53 0 0 1 2.048.384v2.576a16.138 16.138 0 0 0-4.192-.544c-1.6 0-2.704.25-3.312.752-.608.49-.912 1.093-.912 1.808 0 .597.165 1.088.496 1.472.341.373.933.656 1.776.848l2.496.48c1.59.33 2.747.875 3.472 1.632.736.757 1.104 1.819 1.104 3.184 0 1.632-.608 2.917-1.824 3.856-1.205.939-2.96 1.408-5.264 1.408ZM56.894 28V2.144h3.343V28h-3.343Zm9.411-7.632v-2.784h9.312v2.784h-9.312Zm22.125 7.936c-1.878 0-3.334-.475-4.369-1.424-1.024-.95-1.536-2.47-1.536-4.56v-9.024H79.39v-2.704h3.136l.576-6.272h2.768v6.272h5.184v2.704H85.87v8.48c0 1.387.272 2.352.816 2.896.555.544 1.403.816 2.544.816.576 0 1.254-.085 2.032-.256v2.752c-.938.213-1.882.32-2.832.32ZM95.475 28V10.592h2.768l.272 2.304h.176a5.363 5.363 0 0 1 2.16-1.872 6.397 6.397 0 0 1 2.784-.624c.48 0 .944.043 1.392.128v3.056a6.308 6.308 0 0 0-.784-.08 9.465 9.465 0 0 0-.784-.032c-.822 0-1.67.187-2.544.56a4.69 4.69 0 0 0-2.096 1.664V28h-3.344Zm13.756 0V10.592h3.344V28h-3.344Zm1.68-20.8c-1.472 0-2.208-.64-2.208-1.92 0-.608.187-1.083.56-1.424.373-.352.923-.528 1.648-.528.725 0 1.275.176 1.648.528.373.341.56.816.56 1.424 0 1.28-.736 1.92-2.208 1.92Zm13.411 28.16c-.843 0-1.739-.064-2.688-.192a15.587 15.587 0 0 1-2.656-.56v-2.72c.917.277 1.803.48 2.656.608.864.139 1.685.208 2.464.208 1.824 0 3.163-.379 4.016-1.136.864-.757 1.296-2.053 1.296-3.888v-1.52h-.176c-.523.608-1.184 1.099-1.984 1.472-.789.373-1.701.56-2.736.56a6.683 6.683 0 0 1-3.312-.848c-1.013-.576-1.829-1.488-2.448-2.736-.619-1.259-.928-2.912-.928-4.96 0-6.219 3.051-9.328 9.152-9.328.971 0 1.968.075 2.992.224a17.33 17.33 0 0 1 2.784.624V27.12c0 2.933-.704 5.04-2.112 6.32-1.397 1.28-3.504 1.92-6.32 1.92Zm1.312-9.968c.693 0 1.376-.139 2.048-.416a4.207 4.207 0 0 0 1.728-1.296v-10.4a8.262 8.262 0 0 0-1.248-.224 10.769 10.769 0 0 0-1.456-.096c-1.781 0-3.141.496-4.08 1.488-.939.992-1.408 2.624-1.408 4.896 0 1.579.187 2.805.56 3.68.384.875.907 1.488 1.568 1.84.661.352 1.424.528 2.288.528Zm18.851 9.968c-.843 0-1.739-.064-2.688-.192a15.587 15.587 0 0 1-2.656-.56v-2.72c.917.277 1.802.48 2.656.608.864.139 1.685.208 2.464.208 1.824 0 3.162-.379 4.016-1.136.864-.757 1.296-2.053 1.296-3.888v-1.52h-.176c-.523.608-1.184 1.099-1.984 1.472-.79.373-1.702.56-2.736.56a6.683 6.683 0 0 1-3.312-.848c-1.014-.576-1.83-1.488-2.448-2.736-.619-1.259-.928-2.912-.928-4.96 0-6.219 3.05-9.328 9.152-9.328.97 0 1.968.075 2.992.224a17.33 17.33 0 0 1 2.784.624V27.12c0 2.933-.704 5.04-2.112 6.32-1.398 1.28-3.504 1.92-6.32 1.92Zm1.312-9.968c.693 0 1.376-.139 2.048-.416a4.22 4.22 0 0 0 1.728-1.296v-10.4a8.262 8.262 0 0 0-1.248-.224 10.78 10.78 0 0 0-1.456-.096c-1.782 0-3.142.496-4.08 1.488-.939.992-1.408 2.624-1.408 4.896 0 1.579.186 2.805.56 3.68.384.875.906 1.488 1.568 1.84.661.352 1.424.528 2.288.528Zm21.01 2.928c-2.891 0-5.056-.704-6.496-2.112-1.44-1.419-2.16-3.723-2.16-6.912 0-3.008.656-5.253 1.968-6.736 1.312-1.493 3.109-2.24 5.392-2.24 2.24 0 3.963.747 5.168 2.24 1.205 1.493 1.808 3.765 1.808 6.816v.96h-10.96c.064 1.963.549 3.344 1.456 4.144.907.8 2.325 1.2 4.256 1.2.661 0 1.355-.053 2.08-.16a22.493 22.493 0 0 0 2.272-.496v2.624c-.864.235-1.685.405-2.464.512-.779.107-1.552.16-2.32.16Zm-1.328-15.712c-1.205 0-2.16.416-2.864 1.248-.693.821-1.061 2.277-1.104 4.368h7.808c-.032-2.08-.379-3.536-1.04-4.368-.661-.832-1.595-1.248-2.8-1.248ZM177.506 28V10.592h2.768l.272 2.304h.176a5.36 5.36 0 0 1 2.16-1.872 6.404 6.404 0 0 1 2.784-.624c.48 0 .944.043 1.392.128v3.056a6.288 6.288 0 0 0-.784-.08 9.447 9.447 0 0 0-.784-.032c-.821 0-1.669.187-2.544.56a4.691 4.691 0 0 0-2.096 1.664V28h-3.344Zm13.568-5.36v-2.72l10.224-4.096-10.224-4.064V9.04l12.88 5.264v3.072l-12.88 5.264Z"/>
  <path stroke="#40BFEF" stroke-width="4" d="m15.941 22.64-12.88-5.264v-3.072l12.88-5.264v2.72L5.734 15.824 15.94 19.92v2.72Zm13.841 5.68c-2.89 0-5.056-.704-6.496-2.112-1.44-1.419-2.16-3.723-2.16-6.912 0-3.008.656-5.253 1.968-6.736 1.312-1.493 3.11-2.24 5.392-2.24 2.24 0 3.963.747 5.168 2.24 1.205 1.493 1.808 3.765 1.808 6.816v.96h-10.96c.064 1.963.55 3.344 1.456 4.144.907.8 2.325 1.2 4.256 1.2.661 0 1.355-.053 2.08-.16a22.487 22.487 0 0 0 2.272-.496v2.624c-.864.235-1.685.405-2.464.512a17.07 17.07 0 0 1-2.32.16Zm-1.328-15.712c-1.205 0-2.16.416-2.864 1.248-.693.821-1.061 2.277-1.104 4.368h7.808c-.032-2.08-.379-3.536-1.04-4.368-.661-.832-1.595-1.248-2.8-1.248ZM44.929 28.32c-1.856 0-3.541-.24-5.056-.72v-2.576c1.653.49 3.333.736 5.04.736 1.397 0 2.4-.224 3.008-.672.619-.448.928-1.077.928-1.888 0-.683-.181-1.2-.544-1.552-.352-.363-.95-.635-1.792-.816l-2.496-.496c-1.61-.32-2.768-.88-3.472-1.68-.693-.8-1.04-1.845-1.04-3.136 0-1.525.597-2.773 1.792-3.744 1.195-.97 3.035-1.456 5.52-1.456.768 0 1.51.048 2.224.144a14.53 14.53 0 0 1 2.048.384v2.576a16.138 16.138 0 0 0-4.192-.544c-1.6 0-2.704.25-3.312.752-.608.49-.912 1.093-.912 1.808 0 .597.165 1.088.496 1.472.341.373.933.656 1.776.848l2.496.48c1.59.33 2.747.875 3.472 1.632.736.757 1.104 1.819 1.104 3.184 0 1.632-.608 2.917-1.824 3.856-1.205.939-2.96 1.408-5.264 1.408ZM56.894 28V2.144h3.343V28h-3.343Zm9.411-7.632v-2.784h9.312v2.784h-9.312Zm22.125 7.936c-1.878 0-3.334-.475-4.369-1.424-1.024-.95-1.536-2.47-1.536-4.56v-9.024H79.39v-2.704h3.136l.576-6.272h2.768v6.272h5.184v2.704H85.87v8.48c0 1.387.272 2.352.816 2.896.555.544 1.403.816 2.544.816.576 0 1.254-.085 2.032-.256v2.752c-.938.213-1.882.32-2.832.32ZM95.475 28V10.592h2.768l.272 2.304h.176a5.363 5.363 0 0 1 2.16-1.872 6.397 6.397 0 0 1 2.784-.624c.48 0 .944.043 1.392.128v3.056a6.308 6.308 0 0 0-.784-.08 9.465 9.465 0 0 0-.784-.032c-.822 0-1.67.187-2.544.56a4.69 4.69 0 0 0-2.096 1.664V28h-3.344Zm13.756 0V10.592h3.344V28h-3.344Zm1.68-20.8c-1.472 0-2.208-.64-2.208-1.92 0-.608.187-1.083.56-1.424.373-.352.923-.528 1.648-.528.725 0 1.275.176 1.648.528.373.341.56.816.56 1.424 0 1.28-.736 1.92-2.208 1.92Zm13.411 28.16c-.843 0-1.739-.064-2.688-.192a15.587 15.587 0 0 1-2.656-.56v-2.72c.917.277 1.803.48 2.656.608.864.139 1.685.208 2.464.208 1.824 0 3.163-.379 4.016-1.136.864-.757 1.296-2.053 1.296-3.888v-1.52h-.176c-.523.608-1.184 1.099-1.984 1.472-.789.373-1.701.56-2.736.56a6.683 6.683 0 0 1-3.312-.848c-1.013-.576-1.829-1.488-2.448-2.736-.619-1.259-.928-2.912-.928-4.96 0-6.219 3.051-9.328 9.152-9.328.971 0 1.968.075 2.992.224a17.33 17.33 0 0 1 2.784.624V27.12c0 2.933-.704 5.04-2.112 6.32-1.397 1.28-3.504 1.92-6.32 1.92Zm1.312-9.968c.693 0 1.376-.139 2.048-.416a4.207 4.207 0 0 0 1.728-1.296v-10.4a8.262 8.262 0 0 0-1.248-.224 10.769 10.769 0 0 0-1.456-.096c-1.781 0-3.141.496-4.08 1.488-.939.992-1.408 2.624-1.408 4.896 0 1.579.187 2.805.56 3.68.384.875.907 1.488 1.568 1.84.661.352 1.424.528 2.288.528Zm18.851 9.968c-.843 0-1.739-.064-2.688-.192a15.587 15.587 0 0 1-2.656-.56v-2.72c.917.277 1.802.48 2.656.608.864.139 1.685.208 2.464.208 1.824 0 3.162-.379 4.016-1.136.864-.757 1.296-2.053 1.296-3.888v-1.52h-.176c-.523.608-1.184 1.099-1.984 1.472-.79.373-1.702.56-2.736.56a6.683 6.683 0 0 1-3.312-.848c-1.014-.576-1.83-1.488-2.448-2.736-.619-1.259-.928-2.912-.928-4.96 0-6.219 3.05-9.328 9.152-9.328.97 0 1.968.075 2.992.224a17.33 17.33 0 0 1 2.784.624V27.12c0 2.933-.704 5.04-2.112 6.32-1.398 1.28-3.504 1.92-6.32 1.92Zm1.312-9.968c.693 0 1.376-.139 2.048-.416a4.22 4.22 0 0 0 1.728-1.296v-10.4a8.262 8.262 0 0 0-1.248-.224 10.78 10.78 0 0 0-1.456-.096c-1.782 0-3.142.496-4.08 1.488-.939.992-1.408 2.624-1.408 4.896 0 1.579.186 2.805.56 3.68.384.875.906 1.488 1.568 1.84.661.352 1.424.528 2.288.528Zm21.01 2.928c-2.891 0-5.056-.704-6.496-2.112-1.44-1.419-2.16-3.723-2.16-6.912 0-3.008.656-5.253 1.968-6.736 1.312-1.493 3.109-2.24 5.392-2.24 2.24 0 3.963.747 5.168 2.24 1.205 1.493 1.808 3.765 1.808 6.816v.96h-10.96c.064 1.963.549 3.344 1.456 4.144.907.8 2.325 1.2 4.256 1.2.661 0 1.355-.053 2.08-.16a22.493 22.493 0 0 0 2.272-.496v2.624c-.864.235-1.685.405-2.464.512-.779.107-1.552.16-2.32.16Zm-1.328-15.712c-1.205 0-2.16.416-2.864 1.248-.693.821-1.061 2.277-1.104 4.368h7.808c-.032-2.08-.379-3.536-1.04-4.368-.661-.832-1.595-1.248-2.8-1.248ZM177.506 28V10.592h2.768l.272 2.304h.176a5.36 5.36 0 0 1 2.16-1.872 6.404 6.404 0 0 1 2.784-.624c.48 0 .944.043 1.392.128v3.056a6.288 6.288 0 0 0-.784-.08 9.447 9.447 0 0 0-.784-.032c-.821 0-1.669.187-2.544.56a4.691 4.691 0 0 0-2.096 1.664V28h-3.344Zm13.568-5.36v-2.72l10.224-4.096-10.224-4.064V9.04l12.88 5.264v3.072l-12.88 5.264Z" mask="url(#path-1-outside-1_42:120)"/>
</svg>
