<svg xmlns="http://www.w3.org/2000/svg" width="176" height="71" fill="none">
  <mask id="path-1-outside-1_42:123" width="175" height="71" x=".683" y=".144" fill="#000" maskUnits="userSpaceOnUse">
    <path fill="#fff" d="M.683.144h175v71h-175z"/>
    <path d="m65.232 22.64-12.88-5.264v-3.072l12.88-5.264v2.72l-10.208 4.064 10.208 4.096v2.72Zm13.841 5.68c-2.891 0-5.056-.704-6.496-2.112-1.44-1.419-2.16-3.723-2.16-6.912 0-3.008.656-5.253 1.968-6.736 1.312-1.493 3.109-2.24 5.392-2.24 2.24 0 3.962.747 5.168 2.24 1.205 1.493 1.808 3.765 1.808 6.816v.96h-10.96c.064 1.963.549 3.344 1.456 4.144.906.8 2.325 1.2 4.256 1.2.66 0 1.354-.053 2.08-.16a22.493 22.493 0 0 0 2.272-.496v2.624c-.864.235-1.686.405-2.464.512-.78.107-1.552.16-2.32.16Zm-1.328-15.712c-1.206 0-2.16.416-2.864 1.248-.694.821-1.062 2.277-1.104 4.368h7.808c-.032-2.08-.38-3.536-1.04-4.368-.662-.832-1.595-1.248-2.8-1.248ZM94.22 28.32c-1.856 0-3.542-.24-5.056-.72v-2.576c1.653.49 3.333.736 5.04.736 1.397 0 2.4-.224 3.008-.672.618-.448.928-1.077.928-1.888 0-.683-.182-1.2-.544-1.552-.352-.363-.95-.635-1.792-.816l-2.496-.496c-1.611-.32-2.768-.88-3.472-1.68-.694-.8-1.04-1.845-1.04-3.136 0-1.525.597-2.773 1.792-3.744 1.194-.97 3.034-1.456 5.52-1.456a16.7 16.7 0 0 1 2.224.144c.725.085 1.408.213 2.048.384v2.576a16.143 16.143 0 0 0-4.192-.544c-1.6 0-2.704.25-3.312.752-.608.49-.912 1.093-.912 1.808 0 .597.165 1.088.496 1.472.34.373.933.656 1.776.848l2.496.48c1.589.33 2.746.875 3.472 1.632.736.757 1.104 1.819 1.104 3.184 0 1.632-.608 2.917-1.824 3.856-1.206.939-2.96 1.408-5.264 1.408Zm11.964-.32V2.144h3.344V28h-3.344Zm9.412-7.632v-2.784h9.312v2.784h-9.312ZM5.819 68V53.296H2.683v-2.704h3.136V48.4c0-2.123.57-3.75 1.712-4.88 1.152-1.13 2.843-1.696 5.072-1.696.821 0 1.627.064 2.416.192v2.72a12.48 12.48 0 0 0-2.016-.176c-1.323 0-2.299.288-2.928.864-.63.565-.944 1.504-.944 2.816v2.352h5.2v2.704h-5.2V68H5.819Zm18.904.32c-2.357 0-4.24-.72-5.648-2.16-1.397-1.45-2.096-3.728-2.096-6.832 0-3.115.693-5.392 2.08-6.832 1.387-1.45 3.275-2.176 5.664-2.176 2.39 0 4.277.725 5.664 2.176 1.387 1.44 2.08 3.712 2.08 6.816 0 3.093-.704 5.37-2.112 6.832-1.397 1.45-3.275 2.176-5.632 2.176Zm0-2.64c.896 0 1.67-.192 2.32-.576.65-.395 1.152-1.05 1.504-1.968.352-.928.528-2.192.528-3.792 0-1.621-.176-2.896-.528-3.824-.352-.928-.853-1.584-1.504-1.968-.65-.395-1.424-.592-2.32-.592-.896 0-1.67.197-2.32.592-.65.384-1.152 1.035-1.504 1.952-.352.917-.528 2.176-.528 3.776 0 1.621.176 2.896.528 3.824.352.928.853 1.59 1.504 1.984.65.395 1.424.592 2.32.592Zm20.007 2.64c-2.358 0-4.24-.72-5.649-2.16-1.397-1.45-2.096-3.728-2.096-6.832 0-3.115.694-5.392 2.08-6.832 1.387-1.45 3.275-2.176 5.664-2.176 2.39 0 4.278.725 5.664 2.176 1.387 1.44 2.08 3.712 2.08 6.816 0 3.093-.704 5.37-2.112 6.832-1.397 1.45-3.274 2.176-5.632 2.176Zm0-2.64c.895 0 1.669-.192 2.32-.576.65-.395 1.151-1.05 1.503-1.968.352-.928.528-2.192.528-3.792 0-1.621-.176-2.896-.528-3.824-.352-.928-.853-1.584-1.504-1.968-.65-.395-1.424-.592-2.32-.592-.896 0-1.669.197-2.32.592-.65.384-1.152 1.035-1.504 1.952-.352.917-.528 2.176-.528 3.776 0 1.621.176 2.896.528 3.824.352.928.854 1.59 1.504 1.984.651.395 1.424.592 2.32.592Zm19.509 2.624c-1.878 0-3.334-.475-4.368-1.424-1.024-.95-1.536-2.47-1.536-4.56v-9.024h-3.136v-2.704h3.136l.576-6.272h2.768v6.272h5.184v2.704h-5.184v8.48c0 1.387.272 2.352.816 2.896.554.544 1.402.816 2.544.816.576 0 1.253-.085 2.032-.256v2.752c-.939.213-1.883.32-2.832.32ZM71.284 68V50.592h2.784l.24 1.904h.192c1.419-1.45 3.2-2.176 5.344-2.176 1.11 0 2.09.208 2.944.624.864.416 1.541 1.093 2.032 2.032.49.928.736 2.17.736 3.728V68h-3.344V56.88c0-1.355-.293-2.299-.88-2.832-.587-.533-1.387-.8-2.4-.8-.715 0-1.472.16-2.272.48-.79.31-1.467.832-2.032 1.568V68h-3.344Zm27.058.32c-2.358 0-4.24-.72-5.648-2.16-1.398-1.45-2.096-3.728-2.096-6.832 0-3.115.693-5.392 2.08-6.832 1.386-1.45 3.275-2.176 5.664-2.176s4.277.725 5.664 2.176c1.387 1.44 2.08 3.712 2.08 6.816 0 3.093-.704 5.37-2.112 6.832-1.397 1.45-3.275 2.176-5.632 2.176Zm0-2.64c.896 0 1.669-.192 2.32-.576.651-.395 1.152-1.05 1.504-1.968.352-.928.528-2.192.528-3.792 0-1.621-.176-2.896-.528-3.824-.352-.928-.853-1.584-1.504-1.968-.651-.395-1.424-.592-2.32-.592-.896 0-1.67.197-2.32.592-.65.384-1.152 1.035-1.504 1.952-.352.917-.528 2.176-.528 3.776 0 1.621.176 2.896.528 3.824.352.928.853 1.59 1.504 1.984.65.395 1.424.592 2.32.592Zm19.509 2.624c-1.877 0-3.333-.475-4.368-1.424-1.024-.95-1.536-2.47-1.536-4.56v-9.024h-3.136v-2.704h3.136l.576-6.272h2.768v6.272h5.184v2.704h-5.184v8.48c0 1.387.272 2.352.816 2.896.555.544 1.403.816 2.544.816.576 0 1.253-.085 2.032-.256v2.752c-.939.213-1.883.32-2.832.32Zm14.634.016c-2.891 0-5.056-.704-6.496-2.112-1.44-1.419-2.16-3.723-2.16-6.912 0-3.008.656-5.253 1.968-6.736 1.312-1.493 3.109-2.24 5.392-2.24 2.24 0 3.963.747 5.168 2.24 1.205 1.493 1.808 3.765 1.808 6.816v.96h-10.96c.064 1.963.549 3.344 1.456 4.144.907.8 2.325 1.2 4.256 1.2.661 0 1.355-.053 2.08-.16a22.493 22.493 0 0 0 2.272-.496v2.624c-.864.235-1.685.405-2.464.512-.779.107-1.552.16-2.32.16Zm-1.328-15.712c-1.205 0-2.16.416-2.864 1.248-.693.821-1.061 2.277-1.104 4.368h7.808c-.032-2.08-.379-3.536-1.04-4.368-.661-.832-1.595-1.248-2.8-1.248Zm16.475 15.712c-1.856 0-3.541-.24-5.056-.72v-2.576a17.62 17.62 0 0 0 5.04.736c1.397 0 2.4-.224 3.008-.672.619-.448.928-1.077.928-1.888 0-.683-.181-1.2-.544-1.552-.352-.363-.949-.635-1.792-.816l-2.496-.496c-1.611-.32-2.768-.88-3.472-1.68-.693-.8-1.04-1.845-1.04-3.136 0-1.525.597-2.773 1.792-3.744 1.195-.97 3.035-1.456 5.52-1.456a16.7 16.7 0 0 1 2.224.144 14.54 14.54 0 0 1 2.048.384v2.576a16.14 16.14 0 0 0-4.192-.544c-1.6 0-2.704.25-3.312.752-.608.49-.912 1.093-.912 1.808 0 .597.165 1.088.496 1.472.341.373.933.656 1.776.848l2.496.48c1.589.33 2.747.875 3.472 1.632.736.757 1.104 1.819 1.104 3.184 0 1.632-.608 2.917-1.824 3.856-1.205.939-2.96 1.408-5.264 1.408Zm11.933-5.68v-2.72l10.224-4.096-10.224-4.064v-2.72l12.88 5.264v3.072l-12.88 5.264Z"/>
  </mask>
  <path fill="#fff" d="m65.232 22.64-12.88-5.264v-3.072l12.88-5.264v2.72l-10.208 4.064 10.208 4.096v2.72Zm13.841 5.68c-2.891 0-5.056-.704-6.496-2.112-1.44-1.419-2.16-3.723-2.16-6.912 0-3.008.656-5.253 1.968-6.736 1.312-1.493 3.109-2.24 5.392-2.24 2.24 0 3.962.747 5.168 2.24 1.205 1.493 1.808 3.765 1.808 6.816v.96h-10.96c.064 1.963.549 3.344 1.456 4.144.906.8 2.325 1.2 4.256 1.2.66 0 1.354-.053 2.08-.16a22.493 22.493 0 0 0 2.272-.496v2.624c-.864.235-1.686.405-2.464.512-.78.107-1.552.16-2.32.16Zm-1.328-15.712c-1.206 0-2.16.416-2.864 1.248-.694.821-1.062 2.277-1.104 4.368h7.808c-.032-2.08-.38-3.536-1.04-4.368-.662-.832-1.595-1.248-2.8-1.248ZM94.22 28.32c-1.856 0-3.542-.24-5.056-.72v-2.576c1.653.49 3.333.736 5.04.736 1.397 0 2.4-.224 3.008-.672.618-.448.928-1.077.928-1.888 0-.683-.182-1.2-.544-1.552-.352-.363-.95-.635-1.792-.816l-2.496-.496c-1.611-.32-2.768-.88-3.472-1.68-.694-.8-1.04-1.845-1.04-3.136 0-1.525.597-2.773 1.792-3.744 1.194-.97 3.034-1.456 5.52-1.456a16.7 16.7 0 0 1 2.224.144c.725.085 1.408.213 2.048.384v2.576a16.143 16.143 0 0 0-4.192-.544c-1.6 0-2.704.25-3.312.752-.608.49-.912 1.093-.912 1.808 0 .597.165 1.088.496 1.472.34.373.933.656 1.776.848l2.496.48c1.589.33 2.746.875 3.472 1.632.736.757 1.104 1.819 1.104 3.184 0 1.632-.608 2.917-1.824 3.856-1.206.939-2.96 1.408-5.264 1.408Zm11.964-.32V2.144h3.344V28h-3.344Zm9.412-7.632v-2.784h9.312v2.784h-9.312ZM5.819 68V53.296H2.683v-2.704h3.136V48.4c0-2.123.57-3.75 1.712-4.88 1.152-1.13 2.843-1.696 5.072-1.696.821 0 1.627.064 2.416.192v2.72a12.48 12.48 0 0 0-2.016-.176c-1.323 0-2.299.288-2.928.864-.63.565-.944 1.504-.944 2.816v2.352h5.2v2.704h-5.2V68H5.819Zm18.904.32c-2.357 0-4.24-.72-5.648-2.16-1.397-1.45-2.096-3.728-2.096-6.832 0-3.115.693-5.392 2.08-6.832 1.387-1.45 3.275-2.176 5.664-2.176 2.39 0 4.277.725 5.664 2.176 1.387 1.44 2.08 3.712 2.08 6.816 0 3.093-.704 5.37-2.112 6.832-1.397 1.45-3.275 2.176-5.632 2.176Zm0-2.64c.896 0 1.67-.192 2.32-.576.65-.395 1.152-1.05 1.504-1.968.352-.928.528-2.192.528-3.792 0-1.621-.176-2.896-.528-3.824-.352-.928-.853-1.584-1.504-1.968-.65-.395-1.424-.592-2.32-.592-.896 0-1.67.197-2.32.592-.65.384-1.152 1.035-1.504 1.952-.352.917-.528 2.176-.528 3.776 0 1.621.176 2.896.528 3.824.352.928.853 1.59 1.504 1.984.65.395 1.424.592 2.32.592Zm20.007 2.64c-2.358 0-4.24-.72-5.649-2.16-1.397-1.45-2.096-3.728-2.096-6.832 0-3.115.694-5.392 2.08-6.832 1.387-1.45 3.275-2.176 5.664-2.176 2.39 0 4.278.725 5.664 2.176 1.387 1.44 2.08 3.712 2.08 6.816 0 3.093-.704 5.37-2.112 6.832-1.397 1.45-3.274 2.176-5.632 2.176Zm0-2.64c.895 0 1.669-.192 2.32-.576.65-.395 1.151-1.05 1.503-1.968.352-.928.528-2.192.528-3.792 0-1.621-.176-2.896-.528-3.824-.352-.928-.853-1.584-1.504-1.968-.65-.395-1.424-.592-2.32-.592-.896 0-1.669.197-2.32.592-.65.384-1.152 1.035-1.504 1.952-.352.917-.528 2.176-.528 3.776 0 1.621.176 2.896.528 3.824.352.928.854 1.59 1.504 1.984.651.395 1.424.592 2.32.592Zm19.509 2.624c-1.878 0-3.334-.475-4.368-1.424-1.024-.95-1.536-2.47-1.536-4.56v-9.024h-3.136v-2.704h3.136l.576-6.272h2.768v6.272h5.184v2.704h-5.184v8.48c0 1.387.272 2.352.816 2.896.554.544 1.402.816 2.544.816.576 0 1.253-.085 2.032-.256v2.752c-.939.213-1.883.32-2.832.32ZM71.284 68V50.592h2.784l.24 1.904h.192c1.419-1.45 3.2-2.176 5.344-2.176 1.11 0 2.09.208 2.944.624.864.416 1.541 1.093 2.032 2.032.49.928.736 2.17.736 3.728V68h-3.344V56.88c0-1.355-.293-2.299-.88-2.832-.587-.533-1.387-.8-2.4-.8-.715 0-1.472.16-2.272.48-.79.31-1.467.832-2.032 1.568V68h-3.344Zm27.058.32c-2.358 0-4.24-.72-5.648-2.16-1.398-1.45-2.096-3.728-2.096-6.832 0-3.115.693-5.392 2.08-6.832 1.386-1.45 3.275-2.176 5.664-2.176s4.277.725 5.664 2.176c1.387 1.44 2.08 3.712 2.08 6.816 0 3.093-.704 5.37-2.112 6.832-1.397 1.45-3.275 2.176-5.632 2.176Zm0-2.64c.896 0 1.669-.192 2.32-.576.651-.395 1.152-1.05 1.504-1.968.352-.928.528-2.192.528-3.792 0-1.621-.176-2.896-.528-3.824-.352-.928-.853-1.584-1.504-1.968-.651-.395-1.424-.592-2.32-.592-.896 0-1.67.197-2.32.592-.65.384-1.152 1.035-1.504 1.952-.352.917-.528 2.176-.528 3.776 0 1.621.176 2.896.528 3.824.352.928.853 1.59 1.504 1.984.65.395 1.424.592 2.32.592Zm19.509 2.624c-1.877 0-3.333-.475-4.368-1.424-1.024-.95-1.536-2.47-1.536-4.56v-9.024h-3.136v-2.704h3.136l.576-6.272h2.768v6.272h5.184v2.704h-5.184v8.48c0 1.387.272 2.352.816 2.896.555.544 1.403.816 2.544.816.576 0 1.253-.085 2.032-.256v2.752c-.939.213-1.883.32-2.832.32Zm14.634.016c-2.891 0-5.056-.704-6.496-2.112-1.44-1.419-2.16-3.723-2.16-6.912 0-3.008.656-5.253 1.968-6.736 1.312-1.493 3.109-2.24 5.392-2.24 2.24 0 3.963.747 5.168 2.24 1.205 1.493 1.808 3.765 1.808 6.816v.96h-10.96c.064 1.963.549 3.344 1.456 4.144.907.8 2.325 1.2 4.256 1.2.661 0 1.355-.053 2.08-.16a22.493 22.493 0 0 0 2.272-.496v2.624c-.864.235-1.685.405-2.464.512-.779.107-1.552.16-2.32.16Zm-1.328-15.712c-1.205 0-2.16.416-2.864 1.248-.693.821-1.061 2.277-1.104 4.368h7.808c-.032-2.08-.379-3.536-1.04-4.368-.661-.832-1.595-1.248-2.8-1.248Zm16.475 15.712c-1.856 0-3.541-.24-5.056-.72v-2.576a17.62 17.62 0 0 0 5.04.736c1.397 0 2.4-.224 3.008-.672.619-.448.928-1.077.928-1.888 0-.683-.181-1.2-.544-1.552-.352-.363-.949-.635-1.792-.816l-2.496-.496c-1.611-.32-2.768-.88-3.472-1.68-.693-.8-1.04-1.845-1.04-3.136 0-1.525.597-2.773 1.792-3.744 1.195-.97 3.035-1.456 5.52-1.456a16.7 16.7 0 0 1 2.224.144 14.54 14.54 0 0 1 2.048.384v2.576a16.14 16.14 0 0 0-4.192-.544c-1.6 0-2.704.25-3.312.752-.608.49-.912 1.093-.912 1.808 0 .597.165 1.088.496 1.472.341.373.933.656 1.776.848l2.496.48c1.589.33 2.747.875 3.472 1.632.736.757 1.104 1.819 1.104 3.184 0 1.632-.608 2.917-1.824 3.856-1.205.939-2.96 1.408-5.264 1.408Zm11.933-5.68v-2.72l10.224-4.096-10.224-4.064v-2.72l12.88 5.264v3.072l-12.88 5.264Z"/>
  <path stroke="#40BFEF" stroke-width="4" d="m65.232 22.64-12.88-5.264v-3.072l12.88-5.264v2.72l-10.208 4.064 10.208 4.096v2.72Zm13.841 5.68c-2.891 0-5.056-.704-6.496-2.112-1.44-1.419-2.16-3.723-2.16-6.912 0-3.008.656-5.253 1.968-6.736 1.312-1.493 3.109-2.24 5.392-2.24 2.24 0 3.962.747 5.168 2.24 1.205 1.493 1.808 3.765 1.808 6.816v.96h-10.96c.064 1.963.549 3.344 1.456 4.144.906.8 2.325 1.2 4.256 1.2.66 0 1.354-.053 2.08-.16a22.493 22.493 0 0 0 2.272-.496v2.624c-.864.235-1.686.405-2.464.512-.78.107-1.552.16-2.32.16Zm-1.328-15.712c-1.206 0-2.16.416-2.864 1.248-.694.821-1.062 2.277-1.104 4.368h7.808c-.032-2.08-.38-3.536-1.04-4.368-.662-.832-1.595-1.248-2.8-1.248ZM94.22 28.32c-1.856 0-3.542-.24-5.056-.72v-2.576c1.653.49 3.333.736 5.04.736 1.397 0 2.4-.224 3.008-.672.618-.448.928-1.077.928-1.888 0-.683-.182-1.2-.544-1.552-.352-.363-.95-.635-1.792-.816l-2.496-.496c-1.611-.32-2.768-.88-3.472-1.68-.694-.8-1.04-1.845-1.04-3.136 0-1.525.597-2.773 1.792-3.744 1.194-.97 3.034-1.456 5.52-1.456a16.7 16.7 0 0 1 2.224.144c.725.085 1.408.213 2.048.384v2.576a16.143 16.143 0 0 0-4.192-.544c-1.6 0-2.704.25-3.312.752-.608.49-.912 1.093-.912 1.808 0 .597.165 1.088.496 1.472.34.373.933.656 1.776.848l2.496.48c1.589.33 2.746.875 3.472 1.632.736.757 1.104 1.819 1.104 3.184 0 1.632-.608 2.917-1.824 3.856-1.206.939-2.96 1.408-5.264 1.408Zm11.964-.32V2.144h3.344V28h-3.344Zm9.412-7.632v-2.784h9.312v2.784h-9.312ZM5.819 68V53.296H2.683v-2.704h3.136V48.4c0-2.123.57-3.75 1.712-4.88 1.152-1.13 2.843-1.696 5.072-1.696.821 0 1.627.064 2.416.192v2.72a12.48 12.48 0 0 0-2.016-.176c-1.323 0-2.299.288-2.928.864-.63.565-.944 1.504-.944 2.816v2.352h5.2v2.704h-5.2V68H5.819Zm18.904.32c-2.357 0-4.24-.72-5.648-2.16-1.397-1.45-2.096-3.728-2.096-6.832 0-3.115.693-5.392 2.08-6.832 1.387-1.45 3.275-2.176 5.664-2.176 2.39 0 4.277.725 5.664 2.176 1.387 1.44 2.08 3.712 2.08 6.816 0 3.093-.704 5.37-2.112 6.832-1.397 1.45-3.275 2.176-5.632 2.176Zm0-2.64c.896 0 1.67-.192 2.32-.576.65-.395 1.152-1.05 1.504-1.968.352-.928.528-2.192.528-3.792 0-1.621-.176-2.896-.528-3.824-.352-.928-.853-1.584-1.504-1.968-.65-.395-1.424-.592-2.32-.592-.896 0-1.67.197-2.32.592-.65.384-1.152 1.035-1.504 1.952-.352.917-.528 2.176-.528 3.776 0 1.621.176 2.896.528 3.824.352.928.853 1.59 1.504 1.984.65.395 1.424.592 2.32.592Zm20.007 2.64c-2.358 0-4.24-.72-5.649-2.16-1.397-1.45-2.096-3.728-2.096-6.832 0-3.115.694-5.392 2.08-6.832 1.387-1.45 3.275-2.176 5.664-2.176 2.39 0 4.278.725 5.664 2.176 1.387 1.44 2.08 3.712 2.08 6.816 0 3.093-.704 5.37-2.112 6.832-1.397 1.45-3.274 2.176-5.632 2.176Zm0-2.64c.895 0 1.669-.192 2.32-.576.65-.395 1.151-1.05 1.503-1.968.352-.928.528-2.192.528-3.792 0-1.621-.176-2.896-.528-3.824-.352-.928-.853-1.584-1.504-1.968-.65-.395-1.424-.592-2.32-.592-.896 0-1.669.197-2.32.592-.65.384-1.152 1.035-1.504 1.952-.352.917-.528 2.176-.528 3.776 0 1.621.176 2.896.528 3.824.352.928.854 1.59 1.504 1.984.651.395 1.424.592 2.32.592Zm19.509 2.624c-1.878 0-3.334-.475-4.368-1.424-1.024-.95-1.536-2.47-1.536-4.56v-9.024h-3.136v-2.704h3.136l.576-6.272h2.768v6.272h5.184v2.704h-5.184v8.48c0 1.387.272 2.352.816 2.896.554.544 1.402.816 2.544.816.576 0 1.253-.085 2.032-.256v2.752c-.939.213-1.883.32-2.832.32ZM71.284 68V50.592h2.784l.24 1.904h.192c1.419-1.45 3.2-2.176 5.344-2.176 1.11 0 2.09.208 2.944.624.864.416 1.541 1.093 2.032 2.032.49.928.736 2.17.736 3.728V68h-3.344V56.88c0-1.355-.293-2.299-.88-2.832-.587-.533-1.387-.8-2.4-.8-.715 0-1.472.16-2.272.48-.79.31-1.467.832-2.032 1.568V68h-3.344Zm27.058.32c-2.358 0-4.24-.72-5.648-2.16-1.398-1.45-2.096-3.728-2.096-6.832 0-3.115.693-5.392 2.08-6.832 1.386-1.45 3.275-2.176 5.664-2.176s4.277.725 5.664 2.176c1.387 1.44 2.08 3.712 2.08 6.816 0 3.093-.704 5.37-2.112 6.832-1.397 1.45-3.275 2.176-5.632 2.176Zm0-2.64c.896 0 1.669-.192 2.32-.576.651-.395 1.152-1.05 1.504-1.968.352-.928.528-2.192.528-3.792 0-1.621-.176-2.896-.528-3.824-.352-.928-.853-1.584-1.504-1.968-.651-.395-1.424-.592-2.32-.592-.896 0-1.67.197-2.32.592-.65.384-1.152 1.035-1.504 1.952-.352.917-.528 2.176-.528 3.776 0 1.621.176 2.896.528 3.824.352.928.853 1.59 1.504 1.984.65.395 1.424.592 2.32.592Zm19.509 2.624c-1.877 0-3.333-.475-4.368-1.424-1.024-.95-1.536-2.47-1.536-4.56v-9.024h-3.136v-2.704h3.136l.576-6.272h2.768v6.272h5.184v2.704h-5.184v8.48c0 1.387.272 2.352.816 2.896.555.544 1.403.816 2.544.816.576 0 1.253-.085 2.032-.256v2.752c-.939.213-1.883.32-2.832.32Zm14.634.016c-2.891 0-5.056-.704-6.496-2.112-1.44-1.419-2.16-3.723-2.16-6.912 0-3.008.656-5.253 1.968-6.736 1.312-1.493 3.109-2.24 5.392-2.24 2.24 0 3.963.747 5.168 2.24 1.205 1.493 1.808 3.765 1.808 6.816v.96h-10.96c.064 1.963.549 3.344 1.456 4.144.907.8 2.325 1.2 4.256 1.2.661 0 1.355-.053 2.08-.16a22.493 22.493 0 0 0 2.272-.496v2.624c-.864.235-1.685.405-2.464.512-.779.107-1.552.16-2.32.16Zm-1.328-15.712c-1.205 0-2.16.416-2.864 1.248-.693.821-1.061 2.277-1.104 4.368h7.808c-.032-2.08-.379-3.536-1.04-4.368-.661-.832-1.595-1.248-2.8-1.248Zm16.475 15.712c-1.856 0-3.541-.24-5.056-.72v-2.576a17.62 17.62 0 0 0 5.04.736c1.397 0 2.4-.224 3.008-.672.619-.448.928-1.077.928-1.888 0-.683-.181-1.2-.544-1.552-.352-.363-.949-.635-1.792-.816l-2.496-.496c-1.611-.32-2.768-.88-3.472-1.68-.693-.8-1.04-1.845-1.04-3.136 0-1.525.597-2.773 1.792-3.744 1.195-.97 3.035-1.456 5.52-1.456a16.7 16.7 0 0 1 2.224.144 14.54 14.54 0 0 1 2.048.384v2.576a16.14 16.14 0 0 0-4.192-.544c-1.6 0-2.704.25-3.312.752-.608.49-.912 1.093-.912 1.808 0 .597.165 1.088.496 1.472.341.373.933.656 1.776.848l2.496.48c1.589.33 2.747.875 3.472 1.632.736.757 1.104 1.819 1.104 3.184 0 1.632-.608 2.917-1.824 3.856-1.205.939-2.96 1.408-5.264 1.408Zm11.933-5.68v-2.72l10.224-4.096-10.224-4.064v-2.72l12.88 5.264v3.072l-12.88 5.264Z" mask="url(#path-1-outside-1_42:123)"/>
</svg>
