<svg xmlns="http://www.w3.org/2000/svg" version="1.0" viewBox="0 0 463.568 303.849">
  <g fill-rule="evenodd">
    <path fill="#000"
          d="M46.454 298.95c2.088 4.29 7.272 6.12 11.556 4.03 4.32-2.08 6.12-7.27 4.032-11.59-2.088-4.28-7.236-6.12-11.556-4.03s-6.12 7.27-4.032 11.59z"/>
    <path stroke="#000" stroke-miterlimit="10" stroke-width=".036"
          d="M110.68 99.225l-6.7-.468c-1.01 3.023-2.77 5.363-5.83 7.163-2.988 1.69-4.824 1.76-12.168 3.56-7.596 1.66-22.104 3.57-32.4 6.99-10.368 3.38-20.844 7.31-28.944 13.57-8.208 6.23-15.264 13.93-19.368 23.94C1.202 163.95.266 179.4.086 189.62c-.396 10.12.972 17.53 3.132 24.73 2.088 7.09 5.112 12.67 9.216 17.32-1.296 2.41-1.44 4.89-.288 7.45 1.116 2.48 3.384 5.04 6.948 7.67 1.836 6.41 6.336 13.17 13.5 20.59 7.236 7.34 18.792 18 29.376 23.36 10.332 5.26 21.78 8.28 32.688 8.25 10.942-.25 22.682-4.32 32.292-9.15 9.43-4.89 17.5-13.75 24.19-19.47 6.41-5.69 10.05-11.38 14.94-14.44 4.97-3.17 9.61-4.54 14.47-4.25l3.39-5.22c-2.56-.94-4.36-2.59-5.55-4.97-1.29-2.52-2.55-5.58-1.54-9.61.93-4.07 3.09-9.47 7.59-14.4 4.47-5.14 13.43-11.81 18.97-15.55 5.44-3.74 9.69-5.62 13.43-6.59 3.64-1.11 5.51-1.65 8.53.33 2.99 2.01 5.91 5.68 9.15 11.41l7.31.36c1.22-2.85 3.02-5.15 5.4-7.31 2.3-2.13 3.74-3.64 8.75-5.37 5.04-1.72 13.6-2.7 20.98-5.29 7.27-2.81 16.2-6.51 22.32-11.12 5.98-4.65 10.33-9.9 13.61-16.6 3.27-6.91 5.58-15.3 5.65-24.19-.11-9.07-2.12-18.43-6.05-29.05l102.03-55.296c3.34-2.232 6.84-4.392 10.76-6.624 3.85-2.304 7.96-4.536 12.46-6.84.57.72 1.51.9 2.95.396 1.4-.576 3.06-1.584 5.25-3.42.51 2.556 1.62 3.852 3.35 4.284 1.73.216 5.58-.9 6.84-2.232 1.19-1.404 1.12-3.132.07-5.616 2.2-1.044 3.57-2.124 4.11-3.24.47-1.188.11-2.268-1.08-3.528 2.66.072 4.1-.828 4.32-2.844.03-2.16-1.37-7.776-3.1-9.216-1.65-1.404-3.89-1.044-6.69 1.08-.8-1.729-1.59-2.736-2.92-3.024-1.3-.36-2.81.144-4.68 1.224-.79-2.232-1.8-3.78-3.31-4.248-1.55-.468-4.18-.108-5.51.936-1.44.792-2.3 2.844-2.45 4.212-.14 1.368.33 2.556 1.55 3.852-2.02.288-3.49.864-4.57 1.872-1.12.972-1.59 2.232-1.69 3.924.18-.684-2.52.18-8.1 2.592-5.76 2.376-14.08 6.192-25.64 11.592l-97.45 44.568c-1.44-4.536-4.64-9.216-9.47-14.04-5-4.968-12.24-11.736-19.62-15.048-7.52-3.312-16.59-5.004-24.44-4.644-7.88.18-14.94 2.628-22.28 6.228-7.49 3.672-16.56 11.556-21.96 15.48-5.48 3.744-6.63 5.796-10.41 7.128-3.85 1.188-7.67 1.368-12.02.396l-4.03 6.156c3.13 2.52 4.82 5.328 4.93 8.424 0 3.096-.61 6.48-4.36 10.006-3.92 3.35-11.34 7.71-18.21 10.3-6.88 2.59-15.66 4.93-22.47 5.07-6.91-.03-14.4-1.72-18.43-4.93-4.03-3.24-5.83-7.88-5.54-14.215z"/>
    <path stroke="#000" stroke-miterlimit="10" stroke-width=".036"
          d="M395.73 39.645l-5.51-11.052c-.76-.216-1.26-.324-1.37-.72-.14-.396-.03-.864.47-1.404-.22-.864-.68-1.44-1.26-1.584-.65-.216-1.48.612-2.48.54-1.08-.144-2.78-.396-3.71-1.296-1.12-1.044-2.2-2.556-2.13-4.68.04-2.232 1.26-6.228 2.56-8.1 1.22-1.872 2.95-2.808 5.04-2.952 2.05-.18 5.08.324 6.98 1.656 1.84 1.188 3.57 3.456 3.78 5.436.04 1.908-2.84 4.86-3.24 6.084-.46 1.224-.25 1.548.65 1.116.32.036.61.216.72.684.11.396.04.972-.07 1.728l5.36 10.836c-1.91 1.224-3.85 2.448-5.79 3.708zM412.65 30.825l-6.2-12.78c.33-.864.26-1.476-.21-1.836s-1.41-.54-2.67-.396c.33-1.764.18-3.672-.43-5.724-.75-2.196-3.02-5.256-3.31-6.804-.29-1.584.9-2.16 1.76-2.556.8-.576 2.16-1.152 3.14-.216.79.936.86 3.852 2.16 5.832 1.22 1.908 3.02 3.528 5.39 5.256-.43.504-.61 1.116-.54 1.548 0 .432.33.828.83 1.188l6.37 13.176-5.4 3.276-.89.036zM412.57 51.777l6.16 12.816c.83.252 1.26.684 1.3 1.296.03.54-.54 1.368-1.34 2.34 1.55.864 2.96 2.124 4.22 3.924 1.29 1.8 2.12 5.544 3.31 6.804 1.01 1.08 2.12.54 3.06.18.86-.468 2.27-1.008 2.12-2.304-.28-1.296-2.52-3.24-3.2-5.292-.72-2.196-.94-4.608-.79-7.524-.76-.036-1.23-.216-1.55-.54s-.5-.828-.4-1.368l-6.4-13.212-5.91 2.232-.58.648zM425.75 43.245l5.29 11.16c-.39.684-.54 1.26-.29 1.584.19.36.65.468 1.41.468.5.756.65 1.368.43 1.98-.4.576-1.37.648-1.94 1.584-.69.864-1.44 2.304-1.3 3.744 0 1.404.69 3.204 2.34 4.572 1.69 1.188 5.58 2.844 7.92 3.024 2.23.072 4-.684 5.44-2.124 1.37-1.476 2.84-4.428 3.06-6.516.11-2.232-.43-5.04-1.91-6.336-1.48-1.224-5.69-.936-6.8-1.224-1.26-.36-1.41-.9-.44-1.224.15-.36.11-.684-.1-.972-.29-.288-.76-.756-1.41-1.008l-5.15-10.944c-2.16.72-4.35 1.476-6.55 2.232z"/>
  </g>
</svg>
