<svg width="24" height="24" fill="none" xmlns="http://www.w3.org/2000/svg"><g clip-path="url(#a)"><path d="M22.06 4.673h-8.656L11.68 2.631a.298.298 0 0 0-.23-.106H4.474a1.94 1.94 0 0 0-1.941 1.941v.567h-.591A1.94 1.94 0 0 0 0 6.97v12.562a1.94 1.94 0 0 0 1.94 1.94h17.587a1.94 1.94 0 0 0 1.941-1.94v-.567h.591A1.94 1.94 0 0 0 24 17.026V6.613a1.94 1.94 0 0 0-1.94-1.94Zm-1.193 13.71v1.162a1.345 1.345 0 0 1-1.342 1.342H1.94a1.345 1.345 0 0 1-1.342-1.342V6.984A1.345 1.345 0 0 1 1.94 5.64h6.857l1.724 2.042c.057.068.14.106.23.106h8.792c.73.012 1.316.603 1.323 1.332v9.261Zm2.532-1.343a1.345 1.345 0 0 1-1.342 1.343h-.591V9.12a1.94 1.94 0 0 0-1.941-1.94h-8.653L9.148 5.139a.298.298 0 0 0-.23-.106H3.134v-.567a1.345 1.345 0 0 1 1.342-1.342h6.848l1.724 2.042c.057.067.14.106.229.106h8.793c.74.001 1.341.601 1.342 1.342L23.4 17.04Z" fill="#fff"/></g><defs><clipPath id="a"><path fill="#fff" d="M0 0h24v24H0z"/></clipPath></defs></svg>
