<svg xmlns="http://www.w3.org/2000/svg"  viewBox="0 0 24 24">
  <path
    d="M21.61 5.04h-8.48L11.442 3.1a.291.291 0 0 0-.226-.1H4.383a1.93 1.93 0 0 0-1.345.54 1.84 1.84 0 0 0-.412.598 1.795 1.795 0 0 0-.145.706v.539h-.579c-.503 0-.987.193-1.344.538A1.815 1.815 0 0 0 0 7.223v11.934c0 .489.2.958.557 1.303.356.346.84.54 1.343.54h17.228a1.913 1.913 0 0 0 1.345-.54 1.81 1.81 0 0 0 .557-1.303v-.539h.579a1.943 1.943 0 0 0 1.344-.539 1.81 1.81 0 0 0 .557-1.303V6.884c0-.242-.049-.482-.145-.706a1.84 1.84 0 0 0-.411-.598 1.906 1.906 0 0 0-.617-.4 1.952 1.952 0 0 0-.727-.14Zm-1.17 13.026v1.104c0 .338-.14.662-.386.901s-.58.373-.928.374H1.9c-.348 0-.682-.135-.928-.374a1.259 1.259 0 0 1-.386-.9V7.235c0-.338.139-.662.385-.902s.58-.374.93-.375h6.716l1.69 1.94a.29.29 0 0 0 .225.101h8.612c.715.011 1.29.573 1.296 1.265v8.799l.001.001Zm2.48-1.276c0 .339-.139.663-.385.902-.247.239-.58.374-.93.374h-.578v-8.8c0-.242-.05-.481-.145-.705a1.842 1.842 0 0 0-.412-.598 1.906 1.906 0 0 0-.617-.4 1.952 1.952 0 0 0-.727-.14H10.65l-1.689-1.94a.291.291 0 0 0-.225-.1H3.07v-.539c0-.338.14-.662.386-.9.246-.24.58-.374.929-.375h6.708l1.689 1.94c.056.064.137.1.224.1h8.614c.724.002 1.313.572 1.314 1.276l-.012 9.905Z"/>
  <path
    d="M21.96 5.04h-8.48L11.792 3.1a.291.291 0 0 0-.226-.1H4.733a1.93 1.93 0 0 0-1.345.54 1.84 1.84 0 0 0-.412.598 1.795 1.795 0 0 0-.145.706v.539h-.579c-.503 0-.987.193-1.344.538A1.815 1.815 0 0 0 .35 7.223v11.934c0 .489.2.958.557 1.303.356.346.84.54 1.343.54h17.23a1.943 1.943 0 0 0 1.344-.54 1.81 1.81 0 0 0 .557-1.303v-.539h.579a1.939 1.939 0 0 0 1.344-.539 1.824 1.824 0 0 0 .557-1.303V6.884c0-.242-.049-.482-.145-.706a1.84 1.84 0 0 0-.411-.598 1.906 1.906 0 0 0-.617-.4 1.952 1.952 0 0 0-.727-.14Zm-1.17 13.026v1.104c0 .338-.14.662-.386.901s-.58.373-.928.374H2.25c-.348 0-.682-.135-.928-.374a1.259 1.259 0 0 1-.386-.9V7.235c0-.338.139-.662.385-.902s.58-.374.93-.375h6.716l1.69 1.94a.29.29 0 0 0 .225.101h8.612c.715.011 1.29.573 1.296 1.265v8.799l.001.001Zm2.48-1.276c0 .339-.139.663-.385.902s-.58.374-.93.374h-.578v-8.8c0-.242-.05-.481-.145-.705a1.842 1.842 0 0 0-.412-.598 1.906 1.906 0 0 0-.617-.4 1.952 1.952 0 0 0-.727-.14H11l-1.689-1.94a.291.291 0 0 0-.225-.1H3.42v-.539c0-.338.14-.662.386-.9.246-.24.58-.374.929-.375h6.708l1.689 1.94c.056.064.137.1.224.1h8.614c.725.002 1.313.572 1.314 1.276l-.012 9.905Z"/>
  <path
    d="M21.61 5.39h-8.48l-1.688-1.94a.291.291 0 0 0-.226-.1H4.383a1.93 1.93 0 0 0-1.345.54 1.84 1.84 0 0 0-.412.598 1.795 1.795 0 0 0-.145.706v.539h-.579a1.93 1.93 0 0 0-1.344.538A1.815 1.815 0 0 0 0 7.573v11.934c0 .489.2.958.557 1.303.356.346.84.54 1.343.54h17.228a1.913 1.913 0 0 0 1.345-.54 1.81 1.81 0 0 0 .557-1.303v-.539h.579a1.943 1.943 0 0 0 1.344-.539 1.81 1.81 0 0 0 .557-1.303V7.234c0-.242-.049-.482-.145-.706a1.84 1.84 0 0 0-.411-.598 1.906 1.906 0 0 0-.617-.399 1.952 1.952 0 0 0-.727-.14Zm-1.17 13.026v1.104c0 .338-.14.662-.386.901s-.58.373-.928.374H1.9c-.348 0-.682-.135-.928-.374a1.259 1.259 0 0 1-.386-.9V7.585c0-.338.139-.662.385-.902s.58-.374.93-.375h6.716l1.69 1.94a.29.29 0 0 0 .225.101h8.612c.715.011 1.29.573 1.296 1.265v8.798l.001.002Zm2.48-1.275c0 .338-.139.662-.385.9-.247.24-.58.375-.93.375h-.578v-8.8c0-.242-.05-.481-.145-.705a1.842 1.842 0 0 0-.412-.598 1.906 1.906 0 0 0-.617-.4 1.952 1.952 0 0 0-.727-.14H10.65l-1.689-1.94a.291.291 0 0 0-.225-.1H3.07v-.539c0-.338.14-.662.386-.9.246-.24.58-.374.929-.375h6.708l1.689 1.94c.056.064.137.1.224.1h8.614c.724.002 1.313.572 1.314 1.276l-.012 9.905Z"/>
</svg>
