<svg xmlns="http://www.w3.org/2000/svg" xml:space="preserve" viewBox="0 0 512 512"><path d="M426 155C417 74 352 9 272 1l-16-1-16 1a176 176 0 0 0-101 300c21 21 35 45 40 68v100c0 5 4 9 9 9h13l15 20c7 9 16 14 27 14h26c11 0 21-5 27-14l15-20h13c5 0 9-4 9-9V369c4-23 19-47 40-68 39-38 59-91 53-146zM316 393h-26c-5 0-8 3-8 8s3 9 8 9h26v17h-51c-6 0-9 3-9 8s3 9 9 9h51v17H196v-17h26c5 0 8-4 8-9s-3-8-8-8h-26v-17h51c6 0 9-4 9-9s-3-8-9-8h-51v-18h120v18zm-34 95c-3 4-8 7-13 7h-26c-5 0-10-3-13-7l-8-10h68l-8 10zm79-200c-21 22-37 46-44 70H195c-7-24-23-48-44-70a157 157 0 0 1 91-270l14-1 14 1a157 157 0 0 1 91 271z"/></svg>
