<svg xmlns="http://www.w3.org/2000/svg" fill="none" viewBox="0 0 955 777"><g stroke-miterlimit="10" stroke-width="3" opacity=".8"><path stroke="url(#a)" d="M465.785 512.298c-4.104 3.809-8.967 3.49-11.835 1.335-2.983-2.017-4.934-5.274-8.467-6.35-4.84-1.466-12.202 1.496-16.286-1.438-6.241-4.264-.673-18.511-4.598-25.276-1.354-2.293-3.649-3.737-4.636-6.191-.873-2.592.341-7.409 3.735-9.246 1.215-.619 2.477-.735 3.486-.827 4.725.205 8.74 2.382 10.737 6.143 4.568 8.233 15.418 8.641 20.858 16.667 3.511 5.022 18.86 14.305 7.006 25.183Z"/><path stroke="url(#b)" d="M423.147 518.99c-2.867-.755-5.276-2.062-6.791-4.722-3.191-5.687-1.153-15.414-.514-22.341.479-5.895 1.302-12.203-.558-17.249-.344-.986-.803-1.835-1.4-2.798-1.951-3.256-5.324-5.365-6.335-9.471-1.309-4.587 1.692-13.51 7.7-17.366.115-.138.115-.138.367-.161 2.179-1.217 4.174-1.654 6.078-1.7 6.835-.37 13.029 1.99 16.702 7.379.436.596.849.94 1.514 1.261 3.648 2.338 9.589 1.923 13.008 4.536 7.113 5.456 11.199 13.988 18.014 20.361 3.603 3.233 7.045 7.498 11.13 11.832 2.386 2.453 9.015 2.611 10.943 5.615 4.155 6.49.604 16.354-3.82 23.627-1.559 2.432-3.508 4.773-5.847 7.022-7.016 6.746-16.167 8.218-22.615 3.083-4.52-3.531-7.825-7.681-13.032-8.986-2.226-.688-4.772-.71-7.547-.456-6.193.438-12.179 1.748-16.997.534Z"/><path stroke="url(#c)" d="M416.958 532.023c-4.244-.503-8.305-1.786-10.944-5.616-5.692-8.003-1.844-22.983-.564-32.64 1.029-8.235 2.585-17.663.471-25.484-.39-1.491-1.033-2.958-1.653-4.174-2.755-5.091-7.596-7.956-9.043-14.057-1.746-6.582 3.042-19.613 11.688-25.236.114-.138.229-.276.367-.161 3.256-1.951 6.123-2.594 8.898-2.848 9.221-.715 18.122 2.034 23.401 9.693.573.711 1.376 1.146 2.294 1.444 5.254 1.81 15.047-.992 18.925 2.47 9.27 8.185 12.006 22.818 21.872 30.567 6.172 4.906 10.969 11.464 17.027 17.907 3.373 3.508 15.346 2.287 18.009 6.369 6.105 9.746-1.733 25.6-8.151 36.108-2.315 3.9-5.548 7.503-8.918 10.991-9.928 9.683-23.116 12.923-33.533 4.716-6.035-4.792-10.602-10.226-17.621-11.875-2.983-.618-6.309-.823-9.956-.363-7.936.852-15.757 2.966-22.569 2.189Z"/><path stroke="url(#d)" d="M410.77 545.052c-5.62-.25-11.469-1.624-15.072-6.256-7.941-10.342-2.536-30.552-.867-42.916 1.441-10.69 4.12-23.146 1.386-33.582-.437-1.995-1.241-3.83-2.044-5.664-3.421-6.811-9.982-10.41-11.752-18.644-1.93-8.601 4.531-25.6 15.653-33.358.114-.138.367-.161.481-.298 4.197-2.8 8.188-3.674 11.72-3.996 11.858-1.083 23.214 2.078 29.961 11.892.597.963 1.905 1.353 3.212 1.742 6.997 1.396 20.253-3.885 24.842.403 11.29 10.799 13.042 31.373 25.868 40.887 8.742 6.58 14.778 15.569 22.948 24.236 4.36 4.562 21.539 1.849 24.959 7.261 8.171 12.864-4.069 34.844-12.367 48.449-3.209 5.254-7.335 10.211-12.013 14.708-12.84 12.621-30.522 18.179-44.198 6.326-7.458-6.442-13.493-12.633-22.187-14.51-3.762-.801-7.845-.937-12.616-.247-9.45.99-19.105 3.907-27.914 3.567Z"/><path stroke="url(#e)" d="M404.584 558.083c-6.996.003-14.497-1.347-19.225-7.148-10.304-12.543-3.112-38.259-.916-53.215 1.99-13.03 5.401-28.606 2.437-41.565-.483-2.5-1.333-4.839-2.435-7.155-3.971-8.669-12.254-13.001-14.46-23.23-2.367-10.596 5.767-31.565 19.755-41.365.115-.138.367-.161.597-.436 5.274-3.535 10.136-4.615 14.425-5.006 14.359-1.566 28.306 2.121 36.661 14.206.872 1.192 2.179 1.582 3.992 1.925 8.625 1.12 25.71-6.8 30.896-1.549 13.447 13.527 13.963 40.066 29.863 51.207 11.564 8.23 18.725 19.788 28.845 30.312 5.347 5.617 27.733 1.411 32.025 8.015 10.237 15.983-6.542 43.974-16.697 60.929-3.965 6.723-9.261 12.804-14.97 18.54-15.867 15.696-37.953 23.183-55.117 7.959-8.994-7.955-16.383-15.04-26.637-17.284-4.542-.984-9.382-1.051-15.162-.269-11.583 1.313-23.074 5.033-33.877 5.129Z"/><path stroke="url(#f)" d="M398.395 571.114c-8.624.279-17.662-1.185-23.354-7.789-12.69-14.996-3.803-45.828-.966-63.514 2.402-15.484 6.936-34.088 3.466-49.799-.644-2.867-1.539-5.711-2.802-8.394-4.638-10.389-14.641-15.454-17.307-27.931-2.666-12.477 7.118-37.667 23.858-49.372.115-.138.482-.299.596-.436 6.352-4.269 12.086-5.556 17.247-6.155 16.744-1.911 33.536 2.28 43.359 16.52 1.01 1.307 2.593 1.926 4.887 1.971 10.23.592 31.03-9.83 36.813-3.616 15.49 16.394 14.999 48.622 33.607 61.551 14.248 9.765 22.649 23.754 34.765 36.64 6.334 6.672 33.926.972 39.09 8.769 12.188 19.24-8.878 53.219-21.05 73.157-4.859 8.076-11.187 15.396-18.066 22.257-18.778 18.633-45.129 28.163-65.781 9.569-10.532-9.469-19.275-17.447-31.341-20.034-5.185-1.053-10.919-1.166-17.571-.177-13.44 1.864-26.651 6.25-39.45 6.783Z"/><path stroke="url(#g)" d="M392.208 584.146c-10.001.532-20.805-.771-27.621-8.544-15.054-17.197-4.495-53.397-1.131-73.676 3.066-17.961 8.218-39.548 4.38-57.896-.69-3.372-1.769-6.835-3.192-9.885-5.442-12.224-17.051-18.16-20.016-32.518-3.102-14.472 8.469-43.768 27.823-57.493.229-.275.482-.298.711-.574 7.43-5.003 14.035-6.497 20.068-7.302 19.381-2.279 38.628 2.323 49.92 18.719 1.033 1.56 3.12 2.132 5.666 2.154 11.974.179 36.374-12.608 42.845-5.821 17.51 19.008 15.92 57.315 37.602 71.871 16.933 11.302 26.597 27.974 40.663 42.717 7.321 7.727 40.233.396 46.041 9.66 14.253 22.359-11.329 62.602-25.38 85.637-5.754 9.43-13.228 18.127-21.023 26.089-21.691 21.571-52.308 33.144-76.562 11.317-12.07-10.982-22.051-19.992-35.792-22.808-5.965-1.236-12.594-1.394-20.117-.198-15.183 2.277-30.205 7.719-44.885 8.551Z"/><path stroke="url(#h)" d="M386.02 597.177c-11.377.785-23.971-.609-31.636-9.322-17.555-19.513-5.048-60.852-1.181-83.975 3.478-20.416 9.501-45.008 5.294-65.994-.735-3.876-1.975-7.706-3.583-11.376-6.107-13.943-19.436-20.613-22.723-37.104-3.539-16.467 9.82-49.87 31.925-65.5.367-.161.596-.436.963-.597 8.255-5.715 15.985-7.438 22.774-8.313 21.767-2.623 43.72 2.368 56.619 21.034 1.308 1.788 3.533 2.476 6.446 2.337 13.74.017 41.695-15.638 48.9-7.773 19.667 21.737 16.956 65.87 41.597 82.191 19.617 12.838 30.406 32.078 46.584 49.045 8.307 8.782 46.564.073 52.968 10.3 16.204 25.615-13.802 71.732-29.596 97.979-6.509 10.899-15.015 20.834-24.232 29.944-24.602 24.508-59.737 38.147-87.365 12.812-13.722-12.357-24.942-22.399-40.358-25.444-6.744-1.419-14.13-1.508-22.662-.22-17.203 2.462-34.059 8.708-50.734 9.976Z"/><path stroke="url(#i)" d="M379.945 610.071c-12.867 1.175-26.998-.333-35.901-10.078-19.805-21.852-5.74-68.421-1.232-94.274 4.028-22.755 11.035-50.49 6.461-74.114-.92-4.495-2.068-8.715-3.836-12.752-6.773-15.663-21.709-23.204-25.547-41.552-3.724-18.487 11.056-55.835 35.89-73.622.367-.161.596-.436.963-.597 9.333-6.449 17.934-8.38 25.595-9.461 24.267-3.107 48.812 2.411 63.318 23.347 1.331 2.041 3.923 2.568 7.226 2.521 15.483-.397 47.152-18.554 54.817-9.84 21.572 24.488 17.877 74.563 45.455 92.397 22.301 14.373 34.467 36.159 52.481 55.121 9.294 9.836 52.757-.366 60.033 11.054 18.27 28.733-16.138 80.977-33.925 110.459-7.404 12.252-16.942 23.426-27.328 33.661-27.514 27.445-66.915 43.128-98.145 14.56-15.121-13.756-27.833-24.807-44.946-28.333-7.387-1.488-15.668-1.622-25.186.011-19.06 3.012-37.637 9.924-56.193 11.492Z"/><path stroke="url(#j)" d="M373.758 623.102c-14.243 1.428-30.163-.171-39.916-10.856-22.305-24.167-6.431-75.99-1.396-104.435 4.439-25.21 12.317-55.95 7.375-82.212-.966-5-2.413-9.701-4.227-14.242-7.439-17.384-24.095-25.658-28.255-46.139-4.16-20.482 12.407-61.937 39.878-81.492.367-.16.711-.573 1.078-.734 10.411-7.184 19.998-9.459 28.415-10.609 26.905-3.475 54.043 2.57 69.879 25.547 1.469 2.155 4.337 2.911 8.007 2.703 17.225-.81 52.358-21.445 60.734-11.907 23.729 27.218 18.912 83.119 49.45 102.718 25.123 16.023 38.277 40.263 58.402 61.449 10.28 10.891 58.95-.804 66.983 11.946 20.336 31.852-18.611 90.107-38.278 122.687-8.298 13.605-18.868 26.019-30.286 37.492-30.54 30.52-74.092 48.108-109.062 16.193-16.659-15.269-30.725-27.214-49.512-30.968-8.167-1.671-17.204-1.736-27.732-.011-20.574 3.15-40.985 10.866-61.537 12.87Z"/><path stroke="url(#k)" d="M367.571 636.133c-15.734 1.819-33.19.105-44.182-11.611-24.669-26.369-7.008-83.697-1.585-114.849 4.99-27.55 13.853-61.433 8.29-90.309-1.012-5.505-2.505-10.711-4.732-15.596-8.105-19.104-26.367-28.248-30.964-50.725-4.597-22.477 13.758-68.039 43.843-89.613.482-.298.711-.574 1.193-.872 11.488-7.918 21.947-10.4 31.121-11.62 29.29-3.819 59.135 2.614 76.578 27.861 1.744 2.385 4.864 3.118 9.038 2.864 18.855-1.086 57.816-24.361 66.789-13.859 25.886 29.946 19.834 91.811 53.446 113.038 27.808 17.558 42.224 44.481 64.437 67.639 11.267 11.946 65.143-1.242 74.048 12.7 22.287 35.109-20.947 99.352-42.494 135.029-9.168 15.212-20.907 28.75-33.38 41.21-33.452 33.457-81.522 53.112-119.728 17.803-18.196-16.782-33.501-29.759-54.077-33.604-8.809-1.74-18.741-1.85-30.278-.033-22.707 3.473-44.816 12.106-67.363 14.547Z"/><path stroke="url(#l)" d="M361.383 649.162c-17.111 2.071-36.471.405-48.312-12.252-26.918-28.707-7.699-91.266-1.635-125.147 5.401-30.005 15.135-66.893 9.318-98.545-1.172-5.871-2.711-11.582-5.122-17.086-8.908-20.939-28.753-30.702-33.672-55.312-4.896-24.358 15.108-74.141 47.945-97.62.482-.298.963-.597 1.307-1.01 12.566-8.652 23.897-11.341 33.943-12.767 31.79-4.303 64.226 2.657 83.276 30.175 1.767 2.637 5.277 3.461 9.819 3.046 20.597-1.499 63.136-27.39 72.82-16.063 27.791 32.698 20.869 100.367 57.304 123.243 30.492 19.095 46.148 48.449 70.22 73.854 12.368 12.863 71.335-1.681 81.113 13.454 24.353 38.227-23.283 108.597-46.824 147.509-10.063 16.565-22.695 31.457-36.338 45.042-36.364 36.394-88.699 58.092-130.645 19.436-19.849-18.159-36.255-32.052-58.667-36.493-9.588-1.923-20.277-1.964-32.686.06-24.679 4.161-48.622 13.599-73.164 16.476Z"/><path stroke="url(#m)" d="M355.196 662.195c-18.487 2.324-39.499.681-52.464-13.145-29.419-31.022-8.39-98.835-1.799-135.309 5.95-32.344 16.669-72.375 10.232-106.642-1.218-6.376-2.918-12.454-5.375-18.462-9.574-22.659-31.163-33.408-36.381-59.899-5.218-26.49 16.344-80.105 51.91-105.741.482-.298.964-.597 1.307-1.01 13.53-9.249 25.846-12.282 36.901-13.8 34.313-4.533 69.319 2.701 89.976 32.488 2.042 2.867 5.667 3.553 10.598 3.23 22.341-1.913 68.48-30.168 78.738-18.13 29.948 35.426 21.79 109.06 61.299 133.564 33.176 20.63 50.095 52.667 76.255 80.044 13.355 13.918 77.666-2.005 88.064 14.346 26.303 41.483-25.757 117.727-51.04 159.851-10.819 18.033-24.621 34.049-39.547 48.896-39.276 39.332-95.991 63.21-141.311 21.047-21.386-19.672-39.146-34.46-63.232-39.129-10.484-1.968-21.815-2.078-35.233.037-26.697 4.347-52.361 14.45-78.898 17.764Z"/><path stroke="url(#n)" d="M349.008 675.226c-19.977 2.715-42.664.844-56.593-13.785-31.668-33.361-9.081-106.404-1.849-145.608 6.362-34.799 17.951-77.835 11.399-114.762-1.265-6.881-3.149-13.578-5.766-19.953-10.24-24.379-33.55-35.861-39.09-64.485-5.516-28.372 17.696-86.207 56.013-113.748.482-.299 1.078-.735 1.56-1.033 14.469-10.099 27.657-13.338 39.722-14.949 36.813-5.016 74.549 2.859 96.536 34.688 2.18 2.981 6.08 3.897 11.379 3.413 23.969-2.189 73.799-33.199 84.792-20.083 31.853 38.179 22.826 117.616 65.294 143.885 35.999 22.28 53.904 56.771 82.038 86.258 14.342 14.972 83.859-2.443 95.129 15.099 28.369 44.603-28.092 126.972-55.507 172.217-11.713 19.387-26.547 36.642-42.505 52.728-42.188 42.269-103.306 68.076-152.091 22.794-22.923-21.185-41.922-37.004-67.683-41.902-11.126-2.037-23.489-2.307-37.893.153-28.854 4.416-56.352 15.323-84.885 19.073Z"/><path stroke="url(#o)" d="M342.819 688.258c-21.354 2.968-45.691 1.12-60.745-14.678-34.169-35.677-9.773-113.974-1.899-155.907 6.912-37.139 19.371-83.18 12.312-122.86-1.31-7.385-3.354-14.449-6.156-21.444-10.791-26.236-35.821-38.452-41.798-69.071-5.953-30.367 19.184-92.195 60.116-121.756.596-.436 1.078-.734 1.674-1.17 15.547-10.833 29.606-14.28 42.428-15.959 39.313-5.499 79.641 2.903 103.235 37.002 2.203 3.233 6.608 4.103 12.158 3.596 25.712-2.603 79.144-35.976 90.71-22.149 33.896 41.044 23.861 126.17 69.152 154.09 38.683 23.816 57.966 60.852 88.073 92.448 15.329 16.027 90.167-3.019 102.194 15.854 30.435 47.721-30.428 136.217-59.722 184.559-12.608 20.741-28.588 39.373-45.6 56.445-45.215 45.344-110.484 73.057-162.894 24.29-24.323-22.584-44.814-39.412-72.387-44.653-11.906-2.22-25.026-2.421-40.439.131-30.689 5.22-59.884 17.045-90.412 21.232Z"/><path stroke="url(#p)" d="M336.631 701.288c-22.982 3.244-48.856 1.282-64.874-15.318-36.418-38.016-10.464-121.543-2.064-166.069 7.324-39.593 20.768-88.777 13.227-130.957-1.356-7.89-3.447-15.458-6.523-22.682-11.596-28.071-38.209-40.905-44.507-73.658-6.39-32.362 20.534-98.296 64.08-129.877.596-.436 1.193-.872 1.674-1.17 16.625-11.568 31.556-15.221 45.249-17.108 41.836-5.728 84.733 2.948 109.934 39.316 2.479 3.463 7.021 4.447 13.053 3.642 27.593-2.902 84.464-39.006 96.627-24.216 36.053 43.773 24.782 134.863 73.147 164.41 41.367 25.352 61.775 64.957 93.856 98.663 16.316 17.081 96.36-3.458 109.007 16.63 32.386 50.978-32.901 145.347-64.053 197.039-13.363 22.209-30.375 42.08-48.557 60.277-48.126 48.281-117.661 78.037-173.674 26.037-25.86-24.096-47.704-41.818-76.838-47.426-12.685-2.403-26.563-2.535-42.847.224-32.363 4.991-63.393 17.62-95.917 22.243Z"/><path stroke="url(#q)" d="M743.437 712.474c-51.176 51.104-125.091 83.041-184.592 27.67-39.353-36.73-69.778-59.265-126.797-49.86-34.336 5.68-67.2 19.112-101.604 24.035-24.359 3.497-51.885 1.558-69.027-16.211-38.781-40.217-11.04-129.25-2.114-176.368 9.315-49.824 27.754-113.966 7.342-163.365-12.261-29.791-40.48-43.497-47.215-78.244-6.735-34.748 22.481-106.234 69.857-139.055 17.702-12.302 33.619-16.299 48.069-18.255 44.337-6.212 89.826 2.991 116.61 41.377 14.184 20.203 100.909-41.398 116.514-22.343 38.073 46.387 25.819 143.419 77.143 174.731 44.052 26.887 65.837 69.038 99.891 104.853 17.303 18.136 102.691-3.781 116.072 17.385 34.452 54.095-35.352 154.729-68.268 209.38-14.372 23.701-32.53 44.949-51.881 64.27Z"/></g><defs><linearGradient id="a" x1="451.588" x2="429.829" y1="480.271" y2="506.404" gradientUnits="userSpaceOnUse"><stop stop-color="#131A2E"/><stop offset=".5" stop-color="#0097E7"/><stop offset=".74" stop-color="#24C3C9"/><stop offset=".979" stop-color="#0198E8"/></linearGradient><linearGradient id="b" x1="464.688" x2="420.859" y1="466.129" y2="518.768" gradientUnits="userSpaceOnUse"><stop stop-color="#131A2E"/><stop offset=".5" stop-color="#0097E7"/><stop offset=".74" stop-color="#24C3C9"/><stop offset=".979" stop-color="#0198E8"/></linearGradient><linearGradient id="c" x1="478.86" x2="411.404" y1="450.449" y2="531.464" gradientUnits="userSpaceOnUse"><stop stop-color="#131A2E"/><stop offset=".5" stop-color="#0097E7"/><stop offset=".74" stop-color="#24C3C9"/><stop offset=".979" stop-color="#0198E8"/></linearGradient><linearGradient id="d" x1="492.86" x2="401.752" y1="434.823" y2="544.245" gradientUnits="userSpaceOnUse"><stop stop-color="#131A2E"/><stop offset=".5" stop-color="#0097E7"/><stop offset=".74" stop-color="#24C3C9"/><stop offset=".979" stop-color="#0198E8"/></linearGradient><linearGradient id="e" x1="507.195" x2="392.351" y1="419.231" y2="557.16" gradientUnits="userSpaceOnUse"><stop stop-color="#131A2E"/><stop offset=".5" stop-color="#0097E7"/><stop offset=".74" stop-color="#24C3C9"/><stop offset=".979" stop-color="#0198E8"/></linearGradient><linearGradient id="f" x1="521.365" x2="382.697" y1="403.499" y2="570.04" gradientUnits="userSpaceOnUse"><stop stop-color="#131A2E"/><stop offset=".5" stop-color="#0097E7"/><stop offset=".74" stop-color="#24C3C9"/><stop offset=".979" stop-color="#0198E8"/></linearGradient><linearGradient id="g" x1="535.284" x2="372.773" y1="387.589" y2="582.766" gradientUnits="userSpaceOnUse"><stop stop-color="#131A2E"/><stop offset=".5" stop-color="#0097E7"/><stop offset=".74" stop-color="#24C3C9"/><stop offset=".979" stop-color="#0198E8"/></linearGradient><linearGradient id="h" x1="549.704" x2="363.444" y1="372.066" y2="595.766" gradientUnits="userSpaceOnUse"><stop stop-color="#131A2E"/><stop offset=".5" stop-color="#0097E7"/><stop offset=".74" stop-color="#24C3C9"/><stop offset=".979" stop-color="#0198E8"/></linearGradient><linearGradient id="i" x1="563.91" x2="353.926" y1="356.363" y2="608.555" gradientUnits="userSpaceOnUse"><stop stop-color="#131A2E"/><stop offset=".5" stop-color="#0097E7"/><stop offset=".74" stop-color="#24C3C9"/><stop offset=".979" stop-color="#0198E8"/></linearGradient><linearGradient id="j" x1="577.962" x2="344.349" y1="340.781" y2="621.351" gradientUnits="userSpaceOnUse"><stop stop-color="#131A2E"/><stop offset=".5" stop-color="#0097E7"/><stop offset=".74" stop-color="#24C3C9"/><stop offset=".979" stop-color="#0198E8"/></linearGradient><linearGradient id="k" x1="591.934" x2="334.595" y1="325.115" y2="634.181" gradientUnits="userSpaceOnUse"><stop stop-color="#131A2E"/><stop offset=".5" stop-color="#0097E7"/><stop offset=".74" stop-color="#24C3C9"/><stop offset=".979" stop-color="#0198E8"/></linearGradient><linearGradient id="l" x1="606.362" x2="324.937" y1="309.146" y2="647.14" gradientUnits="userSpaceOnUse"><stop stop-color="#131A2E"/><stop offset=".5" stop-color="#0097E7"/><stop offset=".74" stop-color="#24C3C9"/><stop offset=".979" stop-color="#0198E8"/></linearGradient><linearGradient id="m" x1="620.533" x2="315.477" y1="293.663" y2="660.037" gradientUnits="userSpaceOnUse"><stop stop-color="#131A2E"/><stop offset=".5" stop-color="#0097E7"/><stop offset=".74" stop-color="#24C3C9"/><stop offset=".979" stop-color="#0198E8"/></linearGradient><linearGradient id="n" x1="635.036" x2="306.021" y1="277.974" y2="673.122" gradientUnits="userSpaceOnUse"><stop stop-color="#131A2E"/><stop offset=".5" stop-color="#0097E7"/><stop offset=".74" stop-color="#24C3C9"/><stop offset=".979" stop-color="#0198E8"/></linearGradient><linearGradient id="o" x1="649.148" x2="296.389" y1="262.211" y2="685.877" gradientUnits="userSpaceOnUse"><stop stop-color="#131A2E"/><stop offset=".5" stop-color="#0097E7"/><stop offset=".74" stop-color="#24C3C9"/><stop offset=".979" stop-color="#0198E8"/></linearGradient><linearGradient id="p" x1="663.18" x2="286.805" y1="246.827" y2="698.857" gradientUnits="userSpaceOnUse"><stop stop-color="#131A2E"/><stop offset=".5" stop-color="#0097E7"/><stop offset=".74" stop-color="#24C3C9"/><stop offset=".979" stop-color="#0198E8"/></linearGradient><linearGradient id="q" x1="677.55" x2="277.198" y1="230.805" y2="711.63" gradientUnits="userSpaceOnUse"><stop stop-color="#131A2E"/><stop offset=".5" stop-color="#0097E7"/><stop offset=".74" stop-color="#24C3C9"/><stop offset=".979" stop-color="#0198E8"/></linearGradient></defs></svg>
