<svg xmlns="http://www.w3.org/2000/svg" xml:space="preserve" baseProfile="tiny" version="1.2" viewBox="0 0 571.9 519.8"><linearGradient id="a" x1="310.215" x2="327.813" y1="244.593" y2="223.458" gradientTransform="scale(1 -1) rotate(-24.999 -893.334 -41.989)" gradientUnits="userSpaceOnUse"><stop offset="0" stop-color="#131a2e"/><stop offset=".5" stop-color="#0097e7"/><stop offset=".74" stop-color="#24c3c9"/><stop offset=".979" stop-color="#0198e8"/></linearGradient><path fill="none" stroke="url(#a)" stroke-miterlimit="10" stroke-width="3" d="M297.2 309.5c1.7 4.2 5.4 5.6 8.2 5 2.9-.5 5.4-2.2 8.4-1.8 4 .6 8.4 5.3 12.4 4.5 6-1 6.8-13.3 12-17 1.8-1.2 4-1.5 5.5-3 1.5-1.6 2.3-5.5.4-8.1-.7-.9-1.6-1.4-2.3-1.8-3.5-1.5-7.2-1.2-10 .8-6.2 4.5-14.3 1.1-21 5.1-4.1 2.7-18.6 4.3-13.6 16.3z"/><linearGradient id="b" x1="299.622" x2="335.068" y1="256.031" y2="213.459" gradientTransform="scale(1 -1) rotate(-24.999 -893.334 -41.989)" gradientUnits="userSpaceOnUse"><stop offset="0" stop-color="#131a2e"/><stop offset=".5" stop-color="#0097e7"/><stop offset=".74" stop-color="#24c3c9"/><stop offset=".979" stop-color="#0198e8"/></linearGradient><path fill="none" stroke="url(#b)" stroke-miterlimit="10" stroke-width="3" d="M326.2 329c2.4.4 4.6.3 6.6-1.1 4.3-3.1 6.1-10.9 8-16.2 1.7-4.5 3.2-9.4 6.3-12.5.6-.6 1.2-1.1 2-1.6 2.5-1.7 5.7-2.1 7.9-4.8 2.5-2.9 3.4-10.5.3-15.4 0-.1 0-.1-.2-.2-1.2-1.6-2.5-2.6-3.9-3.3-4.9-2.6-10.2-3-14.8-.3-.5.3-.9.4-1.5.4-3.5.5-7.7-1.9-11.1-1.1-7.1 1.6-13 6.4-20.2 8.8-3.7 1.1-7.7 3.1-12.2 4.9-2.6 1-7.5-1.2-9.9.4-5.3 3.3-6 11.8-5.3 18.6.3 2.3.9 4.7 1.9 7.1 2.8 7.3 9 11.6 15.5 10 4.5-1 8.4-3 12.6-2.1 1.9.3 3.7 1.1 5.7 2.2 4.4 2.4 8.3 5.4 12.3 6.2z"/><linearGradient id="c" x1="288.159" x2="342.714" y1="268.712" y2="203.191" gradientTransform="scale(1 -1) rotate(-24.999 -893.334 -41.989)" gradientUnits="userSpaceOnUse"><stop offset="0" stop-color="#131a2e"/><stop offset=".5" stop-color="#0097e7"/><stop offset=".74" stop-color="#24c3c9"/><stop offset=".979" stop-color="#0198e8"/></linearGradient><path fill="none" stroke="url(#c)" stroke-miterlimit="10" stroke-width="3" d="M326.3 340.7c3.3 1.1 6.7 1.5 9.9-.4 6.9-3.9 9.2-16.2 11.6-23.7 2.1-6.4 4.1-13.8 8.4-18.8.8-1 1.8-1.8 2.6-2.5 3.8-2.8 8.3-3.2 11.4-7.2 3.5-4.2 4.5-15.4.1-22.5 0-.1-.1-.3-.2-.2-1.7-2.5-3.6-4-5.5-5.1-6.5-3.7-14-4.7-20.5-.9-.7.3-1.4.4-2.2.3-4.5-.5-10.7-5.9-14.7-4.7-9.6 2.8-16.6 12.6-26.5 14.9-6.2 1.5-12 4.7-18.6 7.3-3.7 1.4-12-3.6-15.4-1.5-7.8 5.1-7.5 19.4-6.4 29.3.4 3.6 1.5 7.4 2.8 11.1 4 10.5 12.5 17.4 23 14.9 6.1-1.5 11.3-3.9 17-2.7 2.4.6 4.9 1.6 7.4 3.1 5.5 3.3 10.5 7.5 15.8 9.3z"/><linearGradient id="d" x1="276.837" x2="350.521" y1="281.349" y2="192.854" gradientTransform="scale(1 -1) rotate(-24.999 -893.334 -41.989)" gradientUnits="userSpaceOnUse"><stop offset="0" stop-color="#131a2e"/><stop offset=".5" stop-color="#0097e7"/><stop offset=".74" stop-color="#24c3c9"/><stop offset=".979" stop-color="#0198e8"/></linearGradient><path fill="none" stroke="url(#d)" stroke-miterlimit="10" stroke-width="3" d="M326.3 352.3c4.2 1.7 9 2.7 13.2.6 9.4-4.9 12.3-21.5 15.3-31.2 2.6-8.3 4.9-18.4 10.5-25.1 1-1.3 2.2-2.4 3.4-3.5 4.8-3.8 10.9-4.2 15-9.6 4.4-5.6 5.4-20.3-.1-29.8 0-.1-.2-.2-.3-.4-2.1-3.5-4.7-5.5-7.2-6.9-8.3-4.8-17.7-6.4-26-1.5-.8.5-1.9.3-3 .2-5.6-1.4-13.5-9.8-18.3-8.2-12 4.1-20.3 18.5-32.9 21.1-8.7 1.8-16.2 6.4-25.1 9.9-4.8 1.9-16.4-6-20.8-3.2-10.4 6.6-8.9 26.9-7.5 39.7.6 4.9 1.9 10 3.8 14.9 5.1 13.6 16.2 23.8 30.2 19.7 7.7-2.2 14.2-4.6 21.2-3.1 3 .7 6.1 2 9.3 4.1 6.7 4.1 12.8 9.6 19.3 12.3z"/><linearGradient id="e" x1="265.244" x2="358.124" y1="293.959" y2="182.409" gradientTransform="scale(1 -1) rotate(-24.999 -893.334 -41.989)" gradientUnits="userSpaceOnUse"><stop offset="0" stop-color="#131a2e"/><stop offset=".5" stop-color="#0097e7"/><stop offset=".74" stop-color="#24c3c9"/><stop offset=".979" stop-color="#0198e8"/></linearGradient><path fill="none" stroke="url(#e)" stroke-miterlimit="10" stroke-width="3" d="M326.4 364c5.1 2.4 11.1 4 16.5 1.3 11.8-5.7 15.4-27 18.9-38.7 3-10.2 5.8-22.8 12.4-31.3 1.2-1.7 2.6-3.1 4.2-4.4 5.9-5 13.4-5.3 18.5-12.1 5.4-7 6.6-25.1-.3-37.1 0-.1-.2-.2-.3-.5-2.7-4.4-5.9-6.8-8.9-8.6-10-6.1-21.5-8.1-31.7-2.1-1 .6-2.1.4-3.6 0-6.7-2.1-16.5-13.8-22.1-11.7-14.5 5.3-23.9 24.6-39.4 27.3-11.3 2.1-20.5 8.1-31.5 12.4-5.8 2.3-20.8-8.4-26.2-5.1-13 8.2-10.2 34.5-8.6 50.4.6 6.3 2.4 12.5 4.6 18.7 6.3 16.9 19.9 30 37.7 24.7 9.3-2.8 17.1-5.4 25.4-3.6 3.7.8 7.2 2.4 11.2 5 8.2 5 15.3 11.6 23.2 15.4z"/><linearGradient id="f" x1="253.784" x2="365.932" y1="306.682" y2="171.991" gradientTransform="scale(1 -1) rotate(-24.999 -893.334 -41.989)" gradientUnits="userSpaceOnUse"><stop offset="0" stop-color="#131a2e"/><stop offset=".5" stop-color="#0097e7"/><stop offset=".74" stop-color="#24c3c9"/><stop offset=".979" stop-color="#0198e8"/></linearGradient><path fill="none" stroke="url(#f)" stroke-miterlimit="10" stroke-width="3" d="M326.5 375.7c6.2 3.2 13.4 5.2 19.8 2.3 14.4-6.7 18.5-32.3 22.4-46.2 3.5-12.2 6.6-27.4 14.5-37.7 1.5-1.9 3.1-3.7 4.9-5.2 7-6 16-6.3 22.2-14.6 6.2-8.2 7.7-30-.6-44.3 0-.1-.3-.4-.3-.5-3.2-5.3-7-8.2-10.5-10.4-11.6-7.1-25.4-9.8-37.4-2.7-1.2.6-2.6.5-4.3-.2-7.7-3.1-19.4-17.8-25.7-15.2-17 6.7-27.6 30.5-45.7 33.6-13.8 2.3-24.7 9.7-38 15-6.9 2.7-25.2-10.9-31.6-6.9-15.5 9.9-11.7 42-9.6 60.8.8 7.6 2.9 15.1 5.6 22.5 7.4 20.1 23.5 36.1 44.9 29.5 11-3.3 20.1-6.2 29.8-4 4.2 1 8.4 2.9 12.9 5.9 9.3 5.8 17.5 13.5 26.7 18.3z"/><linearGradient id="g" x1="242.526" x2="373.958" y1="319.55" y2="161.7" gradientTransform="scale(1 -1) rotate(-24.999 -893.334 -41.989)" gradientUnits="userSpaceOnUse"><stop offset="0" stop-color="#131a2e"/><stop offset=".5" stop-color="#0097e7"/><stop offset=".74" stop-color="#24c3c9"/><stop offset=".979" stop-color="#0198e8"/></linearGradient><path fill="none" stroke="url(#g)" stroke-miterlimit="10" stroke-width="3" d="M326.6 387.3c7.1 3.8 15.5 6.5 23.2 3.2 16.9-7.5 21.5-37.6 26-53.6 3.9-14.2 7.5-31.8 16.6-43.9 1.7-2.2 3.6-4.4 5.7-6.2 8.2-7.1 18.7-7.5 25.8-17 7.2-9.5 8.8-35-.7-51.7-.1-.3-.3-.4-.3-.7-3.7-6.2-8.1-9.6-12.2-12.2-13.4-8.3-29.1-11.5-43-3.3-1.3.8-3 .5-4.9-.4-8.8-4-22.4-21.7-29.4-18.9-19.3 7.9-31.3 36.6-52.1 39.8-16.3 2.5-29.1 11.4-44.4 17.4-8 3.2-29.6-13.5-37-8.7-18.1 11.5-13.1 49.8-10.7 71.4 1 8.9 3.5 17.8 6.5 26.3 8.5 23.2 27 42.2 52.2 34.5 12.6-3.9 23-7.1 34-4.5 4.8 1.1 9.7 3.3 14.8 6.7 10.3 7.1 19.4 16.2 29.9 21.8z"/><linearGradient id="h" x1="230.864" x2="381.502" y1="332.104" y2="151.186" gradientTransform="scale(1 -1) rotate(-24.999 -893.334 -41.989)" gradientUnits="userSpaceOnUse"><stop offset="0" stop-color="#131a2e"/><stop offset=".5" stop-color="#0097e7"/><stop offset=".74" stop-color="#24c3c9"/><stop offset=".979" stop-color="#0198e8"/></linearGradient><path fill="none" stroke="url(#h)" stroke-miterlimit="10" stroke-width="3" d="M326.7 399c8.1 4.5 17.8 7.7 26.4 4 19.5-8.3 24.5-42.9 29.6-61.1 4.4-16.2 8.4-36.2 18.7-50.2 1.9-2.6 4.1-5 6.5-7.1 9.2-8.1 21.3-8.5 29.3-19.4 8.2-10.9 9.8-39.9-1-58.9-.2-.2-.3-.5-.5-.8-4.1-7-9.2-10.9-13.9-13.9-15.1-9.4-32.9-13.2-48.7-3.9-1.6.9-3.4.6-5.5-.5-10.1-4.7-25.2-25.7-33.2-22.4-21.8 9.2-34.9 42.5-58.6 46-18.8 2.7-33.3 13.1-50.9 20-9.1 3.6-34.2-15.9-42.3-10.6-20.6 13.2-14.4 57.3-11.8 81.9 1 10.2 3.9 20.4 7.5 30.2 9.7 26.4 30.7 48.4 59.7 39.3 14.3-4.4 25.9-7.9 38.3-4.9 5.4 1.3 10.9 3.7 16.7 7.6 11.7 7.7 21.9 18.1 33.7 24.7z"/><linearGradient id="i" x1="219.375" x2="389.2" y1="344.803" y2="140.843" gradientTransform="scale(1 -1) rotate(-24.999 -893.334 -41.989)" gradientUnits="userSpaceOnUse"><stop offset="0" stop-color="#131a2e"/><stop offset=".5" stop-color="#0097e7"/><stop offset=".74" stop-color="#24c3c9"/><stop offset=".979" stop-color="#0198e8"/></linearGradient><path fill="none" stroke="url(#i)" stroke-miterlimit="10" stroke-width="3" d="M326.7 410.5c9 5.3 19.9 9 29.8 4.9 22-9.2 27.6-48.2 33.1-68.7 4.8-18.1 9.2-40.8 20.6-56.5 2.2-3 4.5-5.7 7.2-8 10.3-9.2 23.8-9.6 32.9-21.7 9-12.3 11-44.7-1.1-66.2-.2-.2-.3-.5-.5-.8-4.6-7.9-10.3-12.3-15.5-15.7-16.7-10.6-36.6-14.9-54.4-4.5-1.7 1-3.8.5-6.2-.6-11.2-5.6-28.2-29.7-36.8-25.9-24.2 10.6-38.6 48.5-64.9 52.2-21.3 2.9-37.6 14.7-57.3 22.5-10.2 4-38.5-18.3-47.8-12.4-23.2 14.8-15.8 64.9-12.9 92.6 1.2 11.5 4.4 23 8.5 34 10.8 29.5 34.3 54.5 67 44.2 15.8-4.9 28.9-8.7 42.6-5.4 5.9 1.4 12 4.2 18.5 8.6 12.9 8.5 24.2 19.9 37.2 27.4z"/><linearGradient id="j" x1="208.011" x2="396.945" y1="357.406" y2="130.494" gradientTransform="scale(1 -1) rotate(-24.999 -893.334 -41.989)" gradientUnits="userSpaceOnUse"><stop offset="0" stop-color="#131a2e"/><stop offset=".5" stop-color="#0097e7"/><stop offset=".74" stop-color="#24c3c9"/><stop offset=".979" stop-color="#0198e8"/></linearGradient><path fill="none" stroke="url(#j)" stroke-miterlimit="10" stroke-width="3" d="M326.8 422.2c10 5.9 22.2 10.2 33 5.7 24.6-10.1 30.7-53.5 36.7-76.1 5.4-20 10.1-45.2 22.7-62.8 2.4-3.3 5.1-6.3 8-9 11.4-10.2 26.4-10.6 36.5-24.2 10-13.6 12.1-49.6-1.4-73.4-.2-.2-.3-.7-.5-.9-5.2-8.8-11.4-13.8-17.2-17.5-18.5-11.7-40.5-16.6-60-5.2-1.8 1.1-4.2.7-6.8-.8-12.3-6.5-31-33.6-40.4-29.5-26.7 11.8-42.3 54.5-71.4 58.4-23.9 3.2-41.8 16.4-63.8 25.1-11.3 4.5-42.9-20.7-53.2-14.1-25.8 16.4-17.2 72.4-13.9 103 1.4 12.8 4.9 25.5 9.4 37.8 12 32.8 37.9 60.6 74.4 49.1 17.4-5.5 31.8-9.4 46.9-5.8 6.6 1.6 13.2 4.6 20.3 9.5 14 9.6 26.3 22.2 40.7 30.7z"/><linearGradient id="k" x1="196.711" x2="404.835" y1="370.075" y2="120.118" gradientTransform="scale(1 -1) rotate(-24.999 -893.334 -41.989)" gradientUnits="userSpaceOnUse"><stop offset="0" stop-color="#131a2e"/><stop offset=".5" stop-color="#0097e7"/><stop offset=".74" stop-color="#24c3c9"/><stop offset=".979" stop-color="#0198e8"/></linearGradient><path fill="none" stroke="url(#k)" stroke-miterlimit="10" stroke-width="3" d="M326.9 433.8c10.9 6.7 24.3 11.4 36.4 6.6 27.1-10.9 33.7-59 40.4-83.6 5.8-21.9 10.8-49.8 24.8-69 2.6-3.7 5.5-7 8.8-9.8 12.5-11.2 29-11.7 40-26.6 11.1-14.9 13.2-54.6-1.5-80.7-.3-.4-.3-.7-.6-1-5.7-9.7-12.5-15.1-18.8-19.2-20.2-12.8-44.2-18.3-65.7-5.8-2.1 1.2-4.6.6-7.6-1-13.4-7.2-34.1-37.6-44.2-33-29.2 13.1-45.9 60.5-77.8 64.6-26.4 3.4-46.2 18.2-70.4 27.6-12.3 4.9-47.3-23.2-58.6-16-28.3 18.1-18.6 80-15 113.5 1.5 14.3 5.5 28.2 10.4 41.6 13.1 36 41.6 66.8 81.7 54 19.1-6.1 34.7-10.4 51.1-6.1 7.1 1.7 14.4 5 22.2 10.3 15.4 10.3 28.7 24.1 44.4 33.6z"/><linearGradient id="l" x1="185.042" x2="412.645" y1="382.989" y2="109.636" gradientTransform="scale(1 -1) rotate(-24.999 -893.334 -41.989)" gradientUnits="userSpaceOnUse"><stop offset="0" stop-color="#131a2e"/><stop offset=".5" stop-color="#0097e7"/><stop offset=".74" stop-color="#24c3c9"/><stop offset=".979" stop-color="#0198e8"/></linearGradient><path fill="none" stroke="url(#l)" stroke-miterlimit="10" stroke-width="3" d="M327 445.5c11.8 7.4 26.6 12.8 39.6 7.5 29.5-11.8 36.8-64.3 44-91.2 6.3-23.8 11.8-54.2 26.9-75.4 2.9-3.9 5.9-7.6 9.6-10.8 13.7-12.3 31.6-12.7 43.6-29 11.9-16.2 14.3-59.5-1.8-87.9-.3-.4-.5-.8-.6-1.2-6.3-10.6-13.6-16.5-20.5-21-21.8-14-48-20-71.4-6.3-2.2 1.3-5.1.7-8.2-1.1-14.6-8.1-36.9-41.7-47.9-36.7-31.5 14.5-49.6 66.4-84.1 70.7-28.9 3.6-50.4 19.7-76.7 30.1-13.5 5.2-51.7-25.6-64.1-17.9-31 19.8-20.2 87.7-16.2 124.3 1.7 15.6 5.9 30.8 11.2 45.4 14.2 39.1 45.2 72.9 89.1 58.9 20.8-6.5 37.5-11.1 55.5-6.7 7.7 1.9 15.5 5.5 23.9 11.2 16.7 11.5 31.1 26.6 48.1 37.1z"/><linearGradient id="m" x1="173.582" x2="420.296" y1="395.511" y2="99.206" gradientTransform="scale(1 -1) rotate(-24.999 -893.334 -41.989)" gradientUnits="userSpaceOnUse"><stop offset="0" stop-color="#131a2e"/><stop offset=".5" stop-color="#0097e7"/><stop offset=".74" stop-color="#24c3c9"/><stop offset=".979" stop-color="#0198e8"/></linearGradient><path fill="none" stroke="url(#m)" stroke-miterlimit="10" stroke-width="3" d="M327 457.2c12.8 8 28.7 14 42.9 8.3 32.2-12.7 39.9-69.6 47.6-98.6 6.7-25.7 12.5-58.7 28.9-81.7 3.1-4.3 6.4-8.1 10.3-11.7 14.8-13.3 34.3-13.8 47.1-31.5 12.9-17.6 15.4-64.3-1.9-95.2-.3-.4-.5-.8-.6-1.2-6.8-11.4-14.7-17.8-22.3-22.7-23.6-15.1-51.7-21.7-77.1-6.9-2.5 1.4-5.4.7-8.9-1.3-15.7-9-39.9-45.5-51.5-40.2-34.1 15.7-53.2 72.5-90.6 76.9-31.4 3.8-54.7 21.5-83.3 32.6-14.5 5.6-56.2-28-69.5-19.6-33.2 21.5-21.1 95.2-17 134.7 1.8 16.9 6.4 33.4 12.3 49.4 15.3 42.3 48.8 79.1 96.4 63.7 22.4-7.1 40.5-11.9 59.7-7.1 8.4 2.1 16.7 5.9 25.8 12.1 18.1 12.3 33.4 28.5 51.7 40z"/><linearGradient id="n" x1="161.853" x2="427.944" y1="408.201" y2="88.624" gradientTransform="scale(1 -1) rotate(-24.999 -893.334 -41.989)" gradientUnits="userSpaceOnUse"><stop offset="0" stop-color="#131a2e"/><stop offset=".5" stop-color="#0097e7"/><stop offset=".74" stop-color="#24c3c9"/><stop offset=".979" stop-color="#0198e8"/></linearGradient><path fill="none" stroke="url(#n)" stroke-miterlimit="10" stroke-width="3" d="M327.1 468.8c13.7 8.8 31 15.2 46.2 9.2 34.6-13.6 43-74.9 51.1-106.1 7.2-27.7 13.4-63.2 30.9-88 3.3-4.6 6.9-8.9 11-12.7 15.8-14.4 36.8-14.8 50.7-33.9 13.7-18.9 16.5-69.2-2.2-102.5-.3-.4-.5-.9-.8-1.3-7.2-12.3-15.7-19.2-24-24.5-25.3-16.3-55.6-23.4-82.6-7.6-2.6 1.4-5.8.8-9.5-1.4-16.8-9.8-42.7-49.6-55.3-43.7-36.4 17.1-56.9 78.4-97 83.1-34 4-58.9 23.2-89.6 35.2-15.6 6.1-60.6-30.5-74.9-21.4-36 23-22.8 102.7-18.2 145.2 2 18.2 6.9 35.9 13.1 53.2 16.5 45.4 52.5 85.2 103.7 68.7 24-7.7 43.4-12.8 63.9-7.6 8.9 2.3 18 6.3 27.7 13.1 19.8 13.1 36.2 30.5 55.8 43z"/><linearGradient id="o" x1="150.438" x2="435.733" y1="420.95" y2="78.309" gradientTransform="scale(1 -1) rotate(-24.999 -893.334 -41.989)" gradientUnits="userSpaceOnUse"><stop offset="0" stop-color="#131a2e"/><stop offset=".5" stop-color="#0097e7"/><stop offset=".74" stop-color="#24c3c9"/><stop offset=".979" stop-color="#0198e8"/></linearGradient><path fill="none" stroke="url(#o)" stroke-miterlimit="10" stroke-width="3" d="M327.2 480.5c14.6 9.5 33.1 16.4 49.5 10 37.2-14.5 46.1-80.2 54.7-113.6 7.6-29.6 14.2-67.6 33-94.3 3.5-5 7.4-9.4 11.8-13.6 16.9-15.5 39.4-15.9 54.2-36.3 14.7-20.2 17.5-74.1-2.4-109.8-.3-.5-.5-.9-.8-1.4-7.7-13.3-16.8-20.6-25.6-26.2-26.9-17.5-59.4-25.1-88.3-8.2-2.7 1.6-6.2.7-10.1-1.5-18-10.7-45.7-53.4-58.9-47.2-38.9 18.5-60.6 84.3-103.4 89.3-36.5 4.2-63.3 24.8-96.2 37.7-16.7 6.5-65.1-33-80.3-23.3-38.6 24.6-24.3 110.2-19.3 155.7 2.2 19.5 7.5 38.6 14.1 57 17.6 48.7 56 91.3 111.1 73.5 25.5-8.2 46.3-13.6 68.3-8 9.5 2.4 19.2 6.8 29.6 13.9 20.7 14.2 38.1 32.8 59 46.3z"/><linearGradient id="p" x1="139.09" x2="443.484" y1="433.391" y2="67.812" gradientTransform="scale(1 -1) rotate(-24.999 -893.334 -41.989)" gradientUnits="userSpaceOnUse"><stop offset="0" stop-color="#131a2e"/><stop offset=".5" stop-color="#0097e7"/><stop offset=".74" stop-color="#24c3c9"/><stop offset=".979" stop-color="#0198e8"/></linearGradient><path fill="none" stroke="url(#p)" stroke-miterlimit="10" stroke-width="3" d="M327.3 492.2c15.7 10.2 35.4 17.6 52.8 10.9 39.7-15.4 49.2-85.5 58.3-121 8.2-31.5 15.1-72.2 35.1-100.5 3.7-5.3 7.8-10.2 12.5-14.4 18.1-16.6 42-16.9 57.8-38.8 15.7-21.5 18.5-79.1-2.6-117.1-.3-.5-.6-1-.8-1.4-8.2-14.2-17.9-21.9-27.3-28-28.7-18.5-63.1-26.8-94-8.8-3 1.7-6.7.9-10.8-1.8-19.2-11.6-48.6-57.5-62.5-50.8-41.4 19.8-64.3 90.4-109.8 95.5-39 4.4-67.5 26.5-102.5 40.2-17.8 6.9-69.4-35.5-85.6-25.1C6.6 157.5 22.2 249 27.3 297.6c2.2 20.8 7.9 41.2 15 60.8 18.8 51.8 59.6 97.4 118.4 78.4 27.2-8.8 49.3-14.3 72.5-8.5 10.1 2.6 20.3 7.2 31.3 14.8 22.1 14.7 40.5 34.6 62.8 49.1z"/><linearGradient id="q" x1="127.469" x2="451.254" y1="446.348" y2="57.48" gradientTransform="scale(1 -1) rotate(-24.999 -893.334 -41.989)" gradientUnits="userSpaceOnUse"><stop offset="0" stop-color="#131a2e"/><stop offset=".5" stop-color="#0097e7"/><stop offset=".74" stop-color="#24c3c9"/><stop offset=".979" stop-color="#0198e8"/></linearGradient><path fill="none" stroke="url(#q)" stroke-miterlimit="10" stroke-width="3" d="M25.3 361.3c20 54.9 63.3 103.6 125.8 83.4 41.4-13.5 71.4-19.6 110 6.8 23.2 15.9 42.7 37 66.3 52.3 16.7 10.9 37.5 18.9 56.1 11.7 42.2-16.2 52.3-91 61.8-128.6 10.2-39.7 18.6-93 50.5-122.3 19.2-17.6 44.5-18 61.4-41.2 16.8-23 19.8-85.4-3.7-125.7-8.8-15.1-19.1-23.4-29-29.8-30.4-19.7-66.9-28.5-99.6-9.5-17.3 10-59.8-64.8-77.8-56.2-43.8 21-67.9 96.3-116.3 101.7-41.5 4.7-71.9 28.1-109.1 42.7-18.9 7.4-74-37.9-91-26.9C-13 147.6 3.8 245.2 9.2 296.5c2.5 22.3 8.5 44.1 16.1 64.8z"/></svg>
