<svg xmlns="http://www.w3.org/2000/svg" xml:space="preserve" id="Слой_1" x="0" y="0" baseProfile="tiny" version="1.2" viewBox="0 0 565.8 514.2"><linearGradient id="SVGID_1_" x1="256.28" x2="370.67" y1="434.19" y2="103.07" gradientTransform="matrix(1 0 0 -1 0 554.68)" gradientUnits="userSpaceOnUse"><stop offset="0" stop-color="#131a2e"/><stop offset=".5" stop-color="#0097e7"/><stop offset=".74" stop-color="#24c3c9"/><stop offset=".98" stop-color="#0198e8"/></linearGradient><path fill="none" stroke="url(#SVGID_1_)" stroke-miterlimit="10" stroke-width="3" d="M344 443.2c-19.9-10.8-36.6-26.9-57.3-36.4-23-10.6-43.4-6.6-66.4 1.7-23.1 8.4-44.6 10.6-65.4-4.7-18.2-13.4-30-34-38.5-54.5-16.1-38.9-28.5-93.4-17-135.2 5.9-21.3 21.6-26.8 41.4-18.5 9.2 3.9 18 9.6 28.2 10.3 12 .8 22.6-5.8 32.3-12.1 9.8-6.3 18.9-12.9 29.9-17.2 12.2-4.8 25.4-7.4 36.6-14.5 21.6-13.6 30.4-39.6 48.2-57 18.9-18.4 31-4.2 47.5 8.8 6.8 5.4 14.5 11.3 23.6 10.5 8.5-.8 16.5-5.7 25-7 46.3-7.4 80.8 31.1 85.9 73.9 2.2 18-.6 37.6-14.7 50.2-17.1 15.2-36.8 21.2-47.2 43.3-17.2 36.5-15.5 79.2-26.2 117.7-9.1 33-29.8 59.6-65.9 40.7z"/><linearGradient id="SVGID_2_" x1="323.34" x2="331.88" y1="263.7" y2="238.98" gradientTransform="matrix(1 0 0 -1 0 554.68)" gradientUnits="userSpaceOnUse"><stop offset="0" stop-color="#131a2e"/><stop offset=".5" stop-color="#0097e7"/><stop offset=".74" stop-color="#24c3c9"/><stop offset=".98" stop-color="#0198e8"/></linearGradient><path fill="none" stroke="url(#SVGID_2_)" stroke-miterlimit="10" stroke-width="3" d="M304.8 310.5c-5.7-9.6 10-14.7 16.3-16.7 4.8-1.5 27.5-13 27.5-2.1 0 3.6-7.6 8-9.5 11.4-2.1 3.7-2.1 8.3-6.2 10.5-3.8 2.2-26.2.6-28.1-3.1z"/><linearGradient id="SVGID_3_" x1="318.08" x2="335.36" y1="277.16" y2="227.13" gradientTransform="matrix(1 0 0 -1 0 554.68)" gradientUnits="userSpaceOnUse"><stop offset="0" stop-color="#131a2e"/><stop offset=".5" stop-color="#0097e7"/><stop offset=".74" stop-color="#24c3c9"/><stop offset=".98" stop-color="#0198e8"/></linearGradient><path fill="none" stroke="url(#SVGID_3_)" stroke-miterlimit="10" stroke-width="3" d="M345.7 309.6c-1.9 7.9-3.6 17-13.5 16.4-5-.3-8.7-4.2-13.3-5.5-5.5-1.5-8.1 1.1-13.2 1.7-8.1.9-14.1-.8-18.2-8.3-3.7-6.6-4.5-18.1 2.6-22.7 2.9-1.9 7.7-1.5 10.9-2.6 5.4-1.8 9.9-5 14.7-7.8 9-5.4 16-5.5 26-7.4 8.1-1.5 23.8-2.2 20.6 11.6-1.3 5.5-5.4 5.6-8.7 9-4.5 4.7-6.3 9.8-7.9 15.6z"/><linearGradient id="SVGID_4_" x1="311.38" x2="339.07" y1="293.68" y2="213.52" gradientTransform="matrix(1 0 0 -1 0 554.68)" gradientUnits="userSpaceOnUse"><stop offset="0" stop-color="#131a2e"/><stop offset=".5" stop-color="#0097e7"/><stop offset=".74" stop-color="#24c3c9"/><stop offset=".98" stop-color="#0198e8"/></linearGradient><path fill="none" stroke="url(#SVGID_4_)" stroke-miterlimit="10" stroke-width="3" d="M343.8 337.7c-11.7 6.9-23.7-9.6-35.2-9.8-7.6-.1-14.1 5.6-21.8 4.7-7.4-.9-12.4-7-15.5-13.3-4.2-8.6-8.4-24-3.7-33 3.7-7.2 7.4-5 14.2-5 8.1 0 14.4-3.2 21.5-7.1 6.5-3.6 11.4-7.9 17.1-12.6 7.6-6.3 10.7-5.4 19.8-3.5 7.7 1.6 14.4-2.8 21.9-1.3 8 1.6 13.6 9.7 13.6 17.6 0 12.3-15.1 16.3-19.1 27.8-3.9 10.9-1.7 28-12.8 35.5z"/><linearGradient id="SVGID_5_" x1="305.63" x2="342.51" y1="309.62" y2="202.86" gradientTransform="matrix(1 0 0 -1 0 554.68)" gradientUnits="userSpaceOnUse"><stop offset="0" stop-color="#131a2e"/><stop offset=".5" stop-color="#0097e7"/><stop offset=".74" stop-color="#24c3c9"/><stop offset=".98" stop-color="#0198e8"/></linearGradient><path fill="none" stroke="url(#SVGID_5_)" stroke-miterlimit="10" stroke-width="3" d="M360.4 318.7c-4.6 21.5-9.1 40.2-33.9 26.8-9.4-5.1-17.7-11-29-9.1-9.1 1.6-16.6 7.6-26.3 4.6-15-4.7-20.7-23.7-22.6-37.5-1-6.9-1.9-15.2-.1-22.1 2.5-10 8.4-9.9 17.6-9.6 18.2.7 37.8-10.6 50.4-23.6 5.5-5.7 11.3-12.2 19.9-9.4 9.8 3.2 10.7 6.4 22.1 3.8 15.8-3.7 34.2 7.6 31.4 26.1-1.6 10.5-11 13.1-17.5 19.9-7.6 8-9.6 19.6-12 30.1z"/><linearGradient id="SVGID_6_" x1="224.5" x2="389.41" y1="516.12" y2="38.76" gradientTransform="matrix(1 0 0 -1 0 554.68)" gradientUnits="userSpaceOnUse"><stop offset="0" stop-color="#131a2e"/><stop offset=".5" stop-color="#0097e7"/><stop offset=".74" stop-color="#24c3c9"/><stop offset=".98" stop-color="#0198e8"/></linearGradient><path fill="none" stroke="url(#SVGID_6_)" stroke-miterlimit="10" stroke-width="3" d="m37.6 382.5-1.4.6 1.4-.6C22 348 14.7 310.4 8.1 273.3 2.5 241.7-2.7 207.7 5 176c5.5-22.8 18.9-40.1 44-31.6 27.9 9.5 51.1 28.8 80.8 13.2 14.7-7.7 28.1-17.9 42.7-25.9 16.7-9.2 33-14.2 51.2-19.5 34.7-10.2 51.3-43.8 70.7-71.5 13.3-18.9 31.4-51.3 56.7-31.4 17.1 13.4 39.6 51.5 64.8 41.8 15.9-6.2 26.4-12.6 44.5-11.9 17.1.7 34.5 6 49.5 14.2 28.4 15.5 44.8 42.9 51.3 74.1 5.4 25.9 6.6 57.5-8.2 80.6-14.6 22.8-42.4 32.3-60.3 52.1-22.2 24.7-27.8 59.3-32.9 90.9-3.6 22.5-6.6 45.2-10.3 67.7-5.3 32.3-14.6 84.9-53.4 92.8-31 6.4-60.4-17.1-83.5-34.4-28.9-21.8-59.9-41.3-97.7-36.5-37.2 4.7-71.1 30.9-109.4 15.8-32.4-12.5-54.2-43.6-67.9-74z"/><linearGradient id="SVGID_7_" x1="299.58" x2="346.63" y1="324.99" y2="188.81" gradientTransform="matrix(1 0 0 -1 0 554.68)" gradientUnits="userSpaceOnUse"><stop offset="0" stop-color="#131a2e"/><stop offset=".5" stop-color="#0097e7"/><stop offset=".74" stop-color="#24c3c9"/><stop offset=".98" stop-color="#0198e8"/></linearGradient><path fill="none" stroke="url(#SVGID_7_)" stroke-miterlimit="10" stroke-width="3" d="M352.5 362.1c-16.9 8.6-36.3-16.1-53.1-17.7-22-2.1-38.5 16.5-56.1-6.2-8.3-10.8-30.1-76.9-2.5-77.8 8.6-.3 13.8 6 22.9 3.3 9.7-2.8 19.5-10 28.9-14 10-4.3 15.6-10 22.8-17.9 5.3-5.8 11.4-13 20-10.5 5.9 1.7 9.6 7.9 16.1 8.7 10.3 1.3 17.6-6.7 28.7-3.7 16.8 4.5 27.3 25 21.3 41.5-3.7 10.2-14.4 12-21.1 19.7-6.2 7.1-8.9 16.7-10.6 25.9-2.7 15-1.9 39.8-17.3 48.7zM396.4 237z"/><linearGradient id="SVGID_8_" x1="227.43" x2="384.1" y1="505.16" y2="51.65" gradientTransform="matrix(1 0 0 -1 0 554.68)" gradientUnits="userSpaceOnUse"><stop offset="0" stop-color="#131a2e"/><stop offset=".5" stop-color="#0097e7"/><stop offset=".74" stop-color="#24c3c9"/><stop offset=".98" stop-color="#0198e8"/></linearGradient><path fill="none" stroke="url(#SVGID_8_)" stroke-miterlimit="10" stroke-width="3" d="m49.8 376.2-1.3.6 1.3-.6c-14-31-20.7-64.4-26.9-97.6-5.9-31.6-11.8-65.7-4.3-97.5 5.5-23.7 19.5-39.1 44.7-30.1 12.6 4.5 24.3 11.5 37.2 15.1 15.9 4.5 27.3 1 41.5-6.6 27.7-15 51.7-31.2 82.4-39.7 32.7-9 48.4-37.8 66.4-64.1 12.2-17.8 31.2-53 55.7-34.6 18.6 14 39.3 51.2 65.7 38.3 27.9-13.7 58.1-10.8 85.3 3.8 27 14.5 42.7 40 49.2 69.5 5.6 25.1 6.9 57-7.3 79.7-13.6 21.8-39.3 29.9-56.6 47.9-22.3 23.1-27.3 56.8-32.3 87.3-3.5 21.6-6.3 43.3-9.9 64.9-5.2 30.5-14.5 80.2-51.5 86.8-29.4 5.3-57.3-17.2-79.1-33.6-26.4-19.8-54.6-37.7-89.1-34.3-35.2 3.5-67.6 29.1-103.8 16.5-32.2-11.4-53.8-41.9-67.3-71.7z"/><linearGradient id="SVGID_9_" x1="292.89" x2="349.89" y1="341.28" y2="176.28" gradientTransform="matrix(1 0 0 -1 0 554.68)" gradientUnits="userSpaceOnUse"><stop offset="0" stop-color="#131a2e"/><stop offset=".5" stop-color="#0097e7"/><stop offset=".74" stop-color="#24c3c9"/><stop offset=".98" stop-color="#0198e8"/></linearGradient><path fill="none" stroke="url(#SVGID_9_)" stroke-miterlimit="10" stroke-width="3" d="M375 327.6c-2.9 14.6-2.5 38.2-17.7 46.4-17.7 9.4-35.7-11-50.1-18.2-22.2-11-41.8 11.7-63.5 2.2-19.1-8.4-26.8-32.5-30.8-51.1-2.8-13.1-10.6-60.9 15-55.5 12.4 2.6 17.9 7.4 30.4.9 10.9-5.7 23.1-10 33.7-16.1 13-7.5 27.8-38.4 44.3-33.7 9.1 2.6 12.8 12.9 23.6 11.9 5.1-.4 9.7-4.1 14.9-4.7 5.4-.7 11 .1 16.2 1.9 22.4 7.7 33.6 37.6 18.3 57-7.1 9.1-17.8 13.2-23.8 23.6-6.2 10.8-8 23.5-10.5 35.4z"/><linearGradient id="SVGID_10_" x1="242.57" x2="378.06" y1="469.3" y2="77.12" gradientTransform="matrix(1 0 0 -1 0 554.68)" gradientUnits="userSpaceOnUse"><stop offset="0" stop-color="#131a2e"/><stop offset=".5" stop-color="#0097e7"/><stop offset=".74" stop-color="#24c3c9"/><stop offset=".98" stop-color="#0198e8"/></linearGradient><path fill="none" stroke="url(#SVGID_10_)" stroke-miterlimit="10" stroke-width="3" d="M345.9 466.5c-24.9-13.6-45.7-35.3-72.5-45.3-31.5-11.8-57.9 1.8-87.9 9.9-60.6 16.5-96.7-46.8-110.6-96-8.5-30.1-14.4-62.6-16.3-93.9-1.1-18.2-1.6-39.8 7.1-56.4 11.1-21.2 32.4-13.3 49.7-4.8 9 4.5 18.7 9.9 29.1 10 14.3.1 26.2-10.5 37.9-17.5s23.5-14.3 36.3-19.1c13.8-5.2 28.6-6.4 40.8-15.4 21.5-15.7 34-42.2 49.9-62.9 5.7-7.4 14-18.8 24.5-18.7 10.1.1 19 10.9 25.7 17.3 8 7.6 16.1 17.9 26.7 22.1 12 4.8 20.3-4.7 31.3-7.8 50.1-14.1 94.3 25.9 104.4 72.1 4.4 20.1 4.7 43.5-6.2 61.7-13.1 21.7-41 29.1-56.4 48.9-8.9 11.4-11.1 27.8-14.6 41.5a655.2 655.2 0 0 0-11.8 55.3c-3 17.8-5.6 35.8-10.5 53.3-4.5 16.2-10.9 34.4-24.1 45.7-15.8 13.1-35.8 9-52.5 0z"/><linearGradient id="SVGID_11_" x1="287.6" x2="354.43" y1="357.31" y2="163.88" gradientTransform="matrix(1 0 0 -1 0 554.68)" gradientUnits="userSpaceOnUse"><stop offset="0" stop-color="#131a2e"/><stop offset=".5" stop-color="#0097e7"/><stop offset=".74" stop-color="#24c3c9"/><stop offset=".98" stop-color="#0198e8"/></linearGradient><path fill="none" stroke="url(#SVGID_11_)" stroke-miterlimit="10" stroke-width="3" d="M425.8 259.7c21.3-33-16.9-72.6-51.1-63.2-10.7 2.9-16.7 3.8-25.5-3.3-7.3-5.8-13.5-12-23.3-7.3-6.7 3.3-11 10.7-15.5 16.4-6.2 7.9-12.6 14.2-21.3 19.3-8.9 5.2-18.6 8.8-27.5 14.1-7.9 4.7-15.8 11.5-25.5 12.1-12.6.8-28.1-13.4-39.2-1.9-14.3 14.8-3.7 48.9-.4 66.3m229.3-52.5c-6.7 10.6-19.6 14.6-27.6 23.9-9.8 11.4-12.4 27.9-14.5 42.2-3 19.8-1.8 49.8-22.4 60.8M361.2 386.6c-6.7 3.6-14.7 1.7-22-1.5M339.2 385.2c-14.8-6.6-26.3-19.8-42.2-23.9-17.7-4.5-32.1 7.1-49.2 8.3-30.7 2.1-46.4-32.1-51.2-57.4"/><linearGradient id="SVGID_12_" x1="280.7" x2="357.43" y1="373.35" y2="151.24" gradientTransform="matrix(1 0 0 -1 0 554.68)" gradientUnits="userSpaceOnUse"><stop offset="0" stop-color="#131a2e"/><stop offset=".5" stop-color="#0097e7"/><stop offset=".74" stop-color="#24c3c9"/><stop offset=".98" stop-color="#0198e8"/></linearGradient><path fill="none" stroke="url(#SVGID_12_)" stroke-miterlimit="10" stroke-width="3" d="M365.4 398.8c17.5-9.3 19.6-32.5 22-50 2.9-20.4 3.6-43.4 15.5-61.2 11.2-16.7 32.8-24.6 38.9-45 6-20.1-3.5-44.9-21.3-56.1-18.1-11.4-34.8-.6-53.5-3.2-14.3-2-23.8-20.3-39.1-16.6-17.9 4.3-24.3 29.4-37 40.3-9.4 8.1-21.7 9.9-32.7 14.7-11.2 4.9-21.1 12.3-32.1 17.6m139.3 159.5c-20.2 10.5-44.5-15.1-60.7-24m-78.6-135.5c-17.5.9-39.7-17.8-51 3.9-11.7 22.6-2.1 52.2 4.3 74.9 6 21.6 15 47.2 37.4 56.8 23.9 10.3 46.2-10.7 70.3-6.7M287.1 368.3s-.1 0 0 0l-.2 1.5m.2-1.5-.2 1.5m.2-1.5c5.7.9 11.5 3 17.7 6.5M182.5 230.6zm122.2 144.2c.1 0 .1 0 0 0"/><linearGradient id="SVGID_13_" x1="274.94" x2="360.56" y1="388.23" y2="140.42" gradientTransform="matrix(1 0 0 -1 0 554.68)" gradientUnits="userSpaceOnUse"><stop offset="0" stop-color="#131a2e"/><stop offset=".5" stop-color="#0097e7"/><stop offset=".74" stop-color="#24c3c9"/><stop offset=".98" stop-color="#0198e8"/></linearGradient><path fill="none" stroke="url(#SVGID_13_)" stroke-miterlimit="10" stroke-width="3" d="M341.1 408.3c43 20.7 53.3-41.7 57.4-70.3 4-28.1 7.9-53.2 31.9-71.1 19.5-14.6 32-29.8 26.3-55.5-5.3-24.1-23.6-44.8-48.9-47.9-11.8-1.5-20.5 4.9-31.6 6.6-12.8 1.9-19.3-6.9-28-14.5-20.1-17.8-32.3 2.9-44.1 18.7-17.3 23.1-39.3 30.4-64.3 42.6-12.8 6.3-24.4 15-39.5 13.2-11.9-1.4-24.9-10.4-37.1-4.6-12.7 6.1-9.6 25.6-9.1 37.2.7 17.1 3.2 34 6.3 50.8m180.7 94.8c-14.6-7-26.5-18.5-40.9-25.8-16.7-8.5-33.5-6.7-50.8-1.3-15.8 4.9-31.2 9.9-47 1.9-14.5-7.3-24.4-22.1-31-36.5M171.4 346.5c-4.9-10.6-8.9-21.7-10.9-32.9l10.9 32.9z"/><linearGradient id="SVGID_14_" x1="249.52" x2="374.23" y1="452.76" y2="91.77" gradientTransform="matrix(1 0 0 -1 0 554.68)" gradientUnits="userSpaceOnUse"><stop offset="0" stop-color="#131a2e"/><stop offset=".5" stop-color="#0097e7"/><stop offset=".74" stop-color="#24c3c9"/><stop offset=".98" stop-color="#0198e8"/></linearGradient><path fill="none" stroke="url(#SVGID_14_)" stroke-miterlimit="10" stroke-width="3" d="M345 454.8c49.8 26.1 70.8-32.1 77.2-70.8 8-48.7 8.9-102 53.5-132.7 19.9-13.7 34.8-26.4 36.3-52.3 1.4-24.4-6.5-52.8-23-71.2-15.6-17.6-42.9-30.4-66.7-25.6-11.9 2.4-23.7 11.8-36.2 9-11.2-2.5-19.9-13.4-27.7-21.1-7.9-7.8-17.6-18-29.8-13.7-12.2 4.2-20.1 18.8-27 28.8-14.4 20.6-28.4 47.7-55.5 53M345 454.8c-21-11.1-38-28.4-59.5-38.7-21.9-10.4-43.8-8.3-66.2-1-21.4 7-42.1 14.9-64.2 5.6-19.1-8-33.6-25-43.8-42.5-18.6-31.6-24.6-69.3-31-104.9-5.1-28.3-11.7-70.8 15-90.8M246.4 157.9c-14.6 2.8-28.3 9.3-41.1 16.7-12.2 7.1-23.4 17.7-37.2 21.7-14.2 4.2-27.1-2.1-40-7.7-8.7-3.8-23.7-13.1-32.9-6.2M103.1 365.2"/><linearGradient id="SVGID_15_" x1="237.1" x2="381.95" y1="484.06" y2="64.8" gradientTransform="matrix(1 0 0 -1 0 554.68)" gradientUnits="userSpaceOnUse"><stop offset="0" stop-color="#131a2e"/><stop offset=".5" stop-color="#0097e7"/><stop offset=".74" stop-color="#24c3c9"/><stop offset=".98" stop-color="#0198e8"/></linearGradient><path fill="none" stroke="url(#SVGID_15_)" stroke-miterlimit="10" stroke-width="3" d="M346.9 478.1c19.2 10.4 43.6 13.5 60.8-2.4 16.4-15.2 21.4-39 25.4-60 9.2-48.3 8.6-100.6 34.5-144M346.9 478.1c-23.8-13-43.1-33-67.7-44.8-26.5-12.7-54.8-9.2-82-.6-25.4 8-52.1 14.5-76.9.8-23.2-12.8-38.9-36.6-49.5-60.2M467 272.8c15.7-26.3 50.3-34 64.4-61.6 16.6-32.4 4.9-75.1-13.8-103.9m0 0c-23.4-34.2-79-49.6-114.1-25.4M330.8 38.5c.1 0 .1 0 0 0m.1 0c-35.4 20.2-43.7 66-77.2 88.2-19.6 13.1-44.3 14.7-64.7 26.3-17.7 10-33.6 27.8-55.3 28.3-29.5.7-67.4-40.8-87.5-1.4-21.7 42.6-1.7 94.5 6.4 137.9M330.9 38.5c25.6-14.4 46.7 61.5 72.6 43.4m-350.9 236c3.6 19.1 10.3 37.7 18.2 55.4M403.5 81.9"/><linearGradient id="SVGID_16_" x1="265.38" x2="369.06" y1="415.51" y2="115.38" gradientTransform="matrix(1 0 0 -1 0 554.68)" gradientUnits="userSpaceOnUse"><stop offset="0" stop-color="#131a2e"/><stop offset=".5" stop-color="#0097e7"/><stop offset=".74" stop-color="#24c3c9"/><stop offset=".98" stop-color="#0198e8"/></linearGradient><path fill="none" stroke="url(#SVGID_16_)" stroke-miterlimit="10" stroke-width="3" d="M345.7 432.8c39.6 19.5 56.4-23.8 62.8-55.1 4.4-21.4 4.9-43.3 8.9-64.8 5.5-29.5 22-42.3 43.6-60.5 35.2-29.6 29.1-80.6-8.8-105.8-21.1-14-38.1-8.8-61-4.3-12.9 2.5-21.5-2.4-30.9-10.8-8.5-7.7-17.7-17.2-30.2-13.1-25.9 8.6-31.7 44-52.9 58.9-11.6 8.1-26.1 10.3-39 15.7-15.8 6.6-29.5 17.1-44.9 24.6m152.4 215.2c-19.4-9.6-34.8-26.1-55.1-34-22-8.6-45.2-2.9-66.3 5.5M193.5 217.4c-13 4.5-25.6-8-37.8-10.4-14.5-2.9-26.5 1.7-32.8 15.3-14.1 30.1-.1 65.1 5.5 95.5m0 0c2.6 13.6 7.7 27.4 13.5 40.4M141.7 357.9c14.5 32.2 45.2 61.4 82.6 46.5"/><linearGradient id="SVGID_17_" x1="267.59" x2="362.8" y1="403.67" y2="128.07" gradientTransform="matrix(1 0 0 -1 0 554.68)" gradientUnits="userSpaceOnUse"><stop offset="0" stop-color="#131a2e"/><stop offset=".5" stop-color="#0097e7"/><stop offset=".74" stop-color="#24c3c9"/><stop offset=".98" stop-color="#0198e8"/></linearGradient><path fill="none" stroke="url(#SVGID_17_)" stroke-miterlimit="10" stroke-width="3" d="M341.5 420.2c36.4 18.9 51.8-22.6 57.9-50.9 4.2-19.4 5.5-39.3 10.1-58.6 6.2-25.6 19.4-37.7 39.4-53 34.4-26.3 23.5-78.7-10.6-100.7-7.7-4.9-16.6-8.3-25.7-9.1-12.4-1.1-21.7 6.4-33.5 7.6-21.8 2.2-31.5-31.5-54-22.8-23.2 8.9-28.2 41.7-49.2 54.6-12.9 7.9-28.5 9.9-41.9 16.8-10.2 5.3-19.7 11.5-30.2 16.4m138 199.5c-17.5-8.6-31.3-23.5-49.5-30.8-20.5-8.2-42.1-3.2-61.9 4.7M203.7 220.6c-20.1 8.9-47.8-18-63.9-.4-22.2 24.3-3.7 67.6 1.3 94.8m0 0c2.4 12.5 7.9 23.9 13.3 35.8M154.4 350.8c13.4 29.6 41.5 56.8 76.1 43.1m-.1 0"/></svg>
