<svg viewBox="0 0 24 24" fill="none" xmlns="http://www.w3.org/2000/svg"><path d="M11.998.25C5.373.25 0 5.644 0 12.298c0 5.322 3.438 9.837 8.208 11.431.6.111.819-.26.819-.58 0-.287-.01-1.044-.016-2.05-3.338.728-4.043-1.615-4.043-1.615-.545-1.392-1.332-1.762-1.332-1.762-1.09-.747.081-.732.081-.732 1.204.085 1.837 1.242 1.837 1.242 1.071 1.84 2.81 1.31 3.494 1 .108-.778.418-1.31.762-1.61-2.664-.305-5.466-1.339-5.466-5.954 0-1.316.468-2.391 1.236-3.234-.125-.305-.535-1.53.117-3.188 0 0 1.008-.324 3.3 1.235.957-.267 1.983-.4 3.005-.405 1.018.006 2.045.138 3.004.406 2.29-1.558 3.297-1.234 3.297-1.234.654 1.659.243 2.883.12 3.187.77.843 1.233 1.919 1.233 3.234 0 4.628-2.805 5.646-5.478 5.945.43.372.814 1.107.814 2.23 0 1.611-.015 2.91-.015 3.305 0 .322.216.697.825.579A12.048 12.048 0 0 0 24 12.298C24 5.644 18.627.25 11.998.25Z" fill="#fff"/></svg>
