<svg  viewBox="0 0 60 60" fill="none" xmlns="http://www.w3.org/2000/svg"><path d="M41.248 8.043A17.246 17.246 0 0 0 28.888 3c-4.508.032-8.775 1.798-12.017 4.973-3.242 3.175-5.095 7.405-5.218 11.91a17.249 17.249 0 0 0 4.842 12.519c2.559 2.66 3.968 6.2 3.968 9.965v7.244a3.169 3.169 0 0 0 2.42 3.074v.966A3.352 3.352 0 0 0 26.232 57h5.537a3.352 3.352 0 0 0 3.349-3.349v-.96a3.169 3.169 0 0 0 2.443-3.08v-7.244c0-3.716 1.448-7.296 4.078-10.08a17.295 17.295 0 0 0 4.74-11.921c0-4.662-1.823-9.038-5.13-12.323Zm-8.24 45.608a1.24 1.24 0 0 1-1.239 1.24h-5.537a1.24 1.24 0 0 1-1.24-1.24v-.876h8.016v.876Zm2.444-4.04c0 .581-.473 1.054-1.054 1.054H23.628a1.056 1.056 0 0 1-1.055-1.054v-5.999h12.879v5.999Zm-8.096-8.108v-13.34h3.285v13.34h-3.285Zm12.75-10.664c-2.797 2.961-4.423 6.72-4.631 10.664H32.75v-13.34h.948a3.061 3.061 0 0 0 3.057-3.058v-.163a3.061 3.061 0 0 0-3.057-3.058 3.06 3.06 0 0 0-3.058 3.058v1.111h-3.285v-1.111a3.06 3.06 0 0 0-3.058-3.058h-.207a3.06 3.06 0 0 0-3.058 3.058v.163a3.06 3.06 0 0 0 3.057 3.058h1.156v13.34h-2.695c-.201-3.99-1.794-7.713-4.536-10.564a15.154 15.154 0 0 1-4.253-11c.22-8.12 7.012-14.772 15.14-14.83a15.147 15.147 0 0 1 10.86 4.43 15.151 15.151 0 0 1 4.507 10.827c0 3.911-1.479 7.63-4.163 10.473Zm-7.355-4.786v-1.111a.949.949 0 0 1 1.896 0v.163a.95.95 0 0 1-.948.948h-.948Zm-7.505-1.111v1.111H24.09a.949.949 0 0 1-.948-.948v-.163c0-.523.426-.948.948-.948h.208a.95.95 0 0 1 .948.948Z" fill="#0097E7"/><path d="M40.317 15.801a12.208 12.208 0 0 0-4.456-5.535 12.162 12.162 0 0 0-6.974-2.123 1.055 1.055 0 0 0 .007 2.11H28.975c4.153 0 7.832 2.48 9.386 6.337a1.055 1.055 0 1 0 1.956-.789ZM40.89 19.62a1.063 1.063 0 0 0-.745-.31 1.058 1.058 0 0 0-.746 1.8 1.056 1.056 0 0 0 1.8-.745c0-.277-.112-.55-.308-.745ZM50.983 8.254a1.055 1.055 0 0 0-1.492 0l-1.965 1.965a1.055 1.055 0 1 0 1.492 1.492l1.965-1.965a1.055 1.055 0 0 0 0-1.492ZM50.983 30.987l-1.965-1.965a1.055 1.055 0 0 0-1.492 1.491l1.965 1.965a1.05 1.05 0 0 0 1.492 0 1.055 1.055 0 0 0 0-1.491ZM54.946 19.311h-2.78a1.055 1.055 0 0 0 0 2.11h2.78a1.055 1.055 0 0 0 0-2.11ZM10.473 10.22 8.51 8.253a1.055 1.055 0 0 0-1.492 1.492l1.965 1.965a1.051 1.051 0 0 0 1.491 0 1.055 1.055 0 0 0 0-1.492ZM10.473 29.022a1.054 1.054 0 0 0-1.491 0l-1.965 1.965a1.055 1.055 0 1 0 1.491 1.491l1.965-1.965a1.055 1.055 0 0 0 0-1.491ZM5.834 19.311h-2.78a1.055 1.055 0 0 0 0 2.11h2.78a1.055 1.055 0 0 0 0-2.11Z" fill="#0097E7"/></svg>
