<svg width="325" height="63" fill="none" xmlns="http://www.w3.org/2000/svg"><rect x="28" y="1" width="84" height="61" rx="4" fill="#0082CA"/><path d="M76.058 23.875H61.01c-1.187 0-2.15.759-2.15 1.694v11.862c0 .935.963 1.694 2.15 1.694h15.047c1.187 0 2.15-.759 2.15-1.694V25.569c0-.935-.963-1.694-2.15-1.694Z" stroke="#fff" stroke-width=".959" stroke-linecap="round" stroke-linejoin="round"/><path d="M64.77 29.805c.891 0 1.613-.569 1.613-1.27 0-.702-.722-1.271-1.612-1.271-.89 0-1.612.569-1.612 1.27 0 .702.721 1.271 1.612 1.271ZM78.208 34.04l-5.374-4.235-11.823 9.32" stroke="#fff" stroke-width=".959" stroke-linecap="round" stroke-linejoin="round"/><rect x="212.247" y="1" width="84.753" height="61" rx="4" fill="#0082CA"/><path d="M262.147 23.875H247.1c-1.187 0-2.15.759-2.15 1.694v11.862c0 .935.963 1.694 2.15 1.694h15.047c1.187 0 2.149-.759 2.149-1.694V25.569c0-.935-.962-1.694-2.149-1.694Z" stroke="#fff" stroke-width=".959" stroke-linecap="round" stroke-linejoin="round"/><path d="M250.86 29.805c.89 0 1.612-.569 1.612-1.27 0-.702-.722-1.271-1.612-1.271-.891 0-1.612.569-1.612 1.27 0 .702.721 1.271 1.612 1.271ZM264.296 34.04l-5.373-4.235-11.823 9.32" stroke="#fff" stroke-width=".959" stroke-linecap="round" stroke-linejoin="round"/><rect x="119.202" y="1" width="84.753" height="61" rx="4" fill="#0082CA"/><path d="M169.102 23.875h-15.047c-1.187 0-2.149.759-2.149 1.694v11.862c0 .935.962 1.694 2.149 1.694h15.047c1.187 0 2.15-.759 2.15-1.694V25.569c0-.935-.963-1.694-2.15-1.694Z" stroke="#fff" stroke-width=".959" stroke-linecap="round" stroke-linejoin="round"/><path d="M157.815 29.805c.891 0 1.612-.569 1.612-1.27 0-.702-.721-1.271-1.612-1.271-.89 0-1.612.569-1.612 1.27 0 .702.722 1.271 1.612 1.271ZM171.252 34.04l-5.374-4.235-11.822 9.32" stroke="#fff" stroke-width=".959" stroke-linecap="round" stroke-linejoin="round"/><path d="m305.627 54.083 11.311-22.574-11.134-22.662c-1.12-2.278-2.247-3.405-1.11-5.674 1.137-2.27 5.236-2.277 6.355.001l12.037 24.278c1.119 2.278 1.105 5.95-.032 8.22l-11.978 24.206c-1.137 2.269-5.236 2.275-6.355-.003-1.09-2.278-.231-3.523.906-5.792Z" fill="#DAE3FE"/><path d="m305.627 54.083 11.311-22.574-11.134-22.662c-1.12-2.278-2.247-3.405-1.11-5.674 1.137-2.27 5.236-2.277 6.355.001l12.037 24.278c1.119 2.278 1.105 5.95-.032 8.22l-11.978 24.206c-1.137 2.269-5.236 2.275-6.355-.003-1.09-2.278-.231-3.523.906-5.792Z" fill="#DAE3FE"/><path d="m305.627 54.083 11.311-22.574-11.134-22.662c-1.12-2.278-2.247-3.405-1.11-5.674 1.137-2.27 5.236-2.277 6.355.001l12.037 24.278c1.119 2.278 1.105 5.95-.032 8.22l-11.978 24.206c-1.137 2.269-5.236 2.275-6.355-.003-1.09-2.278-.231-3.523.906-5.792Z" stroke="#0082CA"/><path d="M19.245 8.414 8.157 30.844 19.515 53.14c1.142 2.24 2.28 3.344 1.165 5.599-1.114 2.254-5.213 2.302-6.354.061L2.05 34.916C.908 32.676.886 29.044 2 26.79L13.74 2.74c1.114-2.255 5.212-2.302 6.354-.06 1.113 2.24.266 3.48-.849 5.734Z" fill="#DAE3FE"/><path d="M19.245 8.414 8.157 30.844 19.515 53.14c1.142 2.24 2.28 3.344 1.165 5.599-1.114 2.254-5.213 2.302-6.354.061L2.05 34.916C.908 32.676.886 29.044 2 26.79L13.74 2.74c1.114-2.255 5.212-2.302 6.354-.06 1.113 2.24.266 3.48-.849 5.734Z" fill="#DAE3FE"/><path d="M19.245 8.414 8.157 30.844 19.515 53.14c1.142 2.24 2.28 3.344 1.165 5.599-1.114 2.254-5.213 2.302-6.354.061L2.05 34.916C.908 32.676.886 29.044 2 26.79L13.74 2.74c1.114-2.255 5.212-2.302 6.354-.06 1.113 2.24.266 3.48-.849 5.734Z" stroke="#0082CA"/></svg>
