<svg viewBox="0 0 24 24"  xmlns="http://www.w3.org/2000/svg">
  <path
    d="M23.6 4H14a.4.4 0 0 0-.4.4V8a.4.4 0 0 0 .526.38l.503-.168a1.04 1.04 0 1 1 0 1.976l-.503-.167a.4.4 0 0 0-.526.379v3.2h-3.2a.4.4 0 0 0-.38.526l.168.503a1.04 1.04 0 1 1-1.976 0l.167-.503A.4.4 0 0 0 8 13.6H4.4a.4.4 0 0 0-.4.4v9.6c0 .22.18.4.4.4h19.2a.4.4 0 0 0 .4-.4V4.4a.4.4 0 0 0-.4-.4Zm-9.98 15.874a.4.4 0 0 0-.02.126v3.2H4.8v-8.8h2.645a1.84 1.84 0 1 0 3.51 0H13.6v3.2a.4.4 0 0 0 .526.38l.503-.169a1.04 1.04 0 1 1 0 1.977l-.503-.167a.4.4 0 0 0-.505.253ZM23.2 23.2h-8.8v-2.645a1.84 1.84 0 1 0 0-3.51V14.4h3.2a.4.4 0 0 0 .38-.526l-.169-.503a1.04 1.04 0 1 1 1.977 0l-.167.503A.4.4 0 0 0 20 14.4h3.2v8.8Zm0-9.6h-2.645a1.84 1.84 0 1 0-3.51 0H14.4v-2.645c.556.18 1.164.083 1.636-.261A1.84 1.84 0 0 0 14.4 7.445V4.8h8.8v8.8Z"
  />
  <path
    d="M11.507 3.445a1.84 1.84 0 0 0-1.107 0V.4A.4.4 0 0 0 10 0H.4a.4.4 0 0 0-.4.4V10c0 .22.18.4.4.4h3.045a1.84 1.84 0 1 0 3.51 0H10a.4.4 0 0 0 .4-.4V6.955a1.84 1.84 0 0 0 1.107-3.51Zm-.23 2.743a1.04 1.04 0 0 1-.648 0l-.503-.167A.4.4 0 0 0 9.6 6.4v3.2H6.4a.4.4 0 0 0-.38.526l.168.503a1.04 1.04 0 1 1-1.976 0l.167-.503A.4.4 0 0 0 4 9.6H.8V.8h8.8V4a.4.4 0 0 0 .526.38l.503-.168a1.04 1.04 0 1 1 .647 1.976Z"
  />
</svg>
