<svg xmlns="http://www.w3.org/2000/svg" viewBox="0 0 37 17" fill="#4e4e4e"><path fill="#4e4e4e" d="M0.716797 0.545898H5.89453C7.06901 0.545898 8.06087 0.724935 8.87012 1.08301C9.68652 1.44108 10.306 1.97103 10.7285 2.67285C11.1582 3.36751 11.373 4.22331 11.373 5.24023C11.373 5.95638 11.2262 6.61165 10.9326 7.20605C10.6462 7.79329 10.2308 8.2946 9.68652 8.70996C9.14941 9.11816 8.50488 9.42253 7.75293 9.62305L7.17285 9.84863H2.30664L2.28516 8.16211H5.95898C6.70378 8.16211 7.32324 8.0332 7.81738 7.77539C8.31152 7.51042 8.68392 7.15592 8.93457 6.71191C9.18522 6.2679 9.31055 5.77734 9.31055 5.24023C9.31055 4.63867 9.19238 4.1123 8.95605 3.66113C8.71973 3.20996 8.34733 2.86263 7.83887 2.61914C7.33757 2.36849 6.68945 2.24316 5.89453 2.24316H2.79004V16.1865H0.716797V0.545898ZM9.8584 16.1865L6.05566 9.09668L8.21484 9.08594L12.0713 16.0576V16.1865H9.8584ZM19.1934 0.545898V16.1865H17.1523V0.545898H19.1934ZM24.2207 0.545898V2.24316H12.1357V0.545898H24.2207ZM36.0264 14.5V16.1865H28.2061V14.5H36.0264ZM28.6143 0.545898V16.1865H26.541V0.545898H28.6143Z"></path></svg>
