<svg xmlns="http://www.w3.org/2000/svg" width="143" height="69" fill="none">
  <mask id="path-1-outside-1_42:130" width="143" height="69" x=".112" y=".016" fill="#000" maskUnits="userSpaceOnUse">
    <path fill="#fff" d="M.112.016h143v69h-143z"/>
    <path d="M2.112 26V2.32h15.264v2.8H5.472v7.344h10.32v2.8H5.472V23.2h12.064V26H2.112Zm25.766.304c-1.013 0-2.048-.085-3.104-.256-1.056-.16-2.048-.4-2.976-.72V22.48c.992.341 2.022.597 3.088.768 1.067.16 2.07.24 3.008.24 1.846 0 3.195-.33 4.048-.992.853-.661 1.28-1.616 1.28-2.864 0-1.067-.325-1.883-.976-2.448-.64-.565-1.75-1.056-3.328-1.472l-1.44-.368c-2.037-.523-3.568-1.312-4.592-2.368-1.013-1.056-1.52-2.459-1.52-4.208 0-2.101.742-3.75 2.224-4.944 1.483-1.205 3.696-1.808 6.64-1.808 1.984 0 3.755.235 5.312.704v2.848c-1.59-.49-3.312-.736-5.168-.736-1.984 0-3.413.336-4.288 1.008-.874.661-1.312 1.579-1.312 2.752 0 1.024.288 1.819.864 2.384.587.565 1.616 1.04 3.088 1.424l1.44.368c2.219.555 3.85 1.365 4.896 2.432 1.046 1.056 1.568 2.459 1.568 4.208 0 2.176-.768 3.872-2.304 5.088-1.525 1.205-3.675 1.808-6.448 1.808ZM41.844 26V2.32h3.392v20.784H56.66V26H41.844Zm34.702.224c-.96 0-1.963-.037-3.008-.112a48.09 48.09 0 0 1-3.088-.288V2.752a31.067 31.067 0 0 1 3.248-.496 32.453 32.453 0 0 1 3.584-.192c3.296 0 5.685.528 7.168 1.584 1.493 1.056 2.24 2.656 2.24 4.8 0 1.27-.33 2.39-.992 3.36-.65.96-1.675 1.616-3.072 1.968 1.547.299 2.72.944 3.52 1.936.81.981 1.216 2.245 1.216 3.792 0 1.45-.357 2.677-1.072 3.68-.715.992-1.861 1.75-3.44 2.272-1.579.512-3.68.768-6.304.768ZM77.65 4.656c-.79 0-1.493.027-2.112.08-.619.053-1.205.133-1.76.24v7.568h4.256c1.973 0 3.37-.325 4.192-.976.832-.661 1.248-1.648 1.248-2.96 0-1.397-.443-2.405-1.328-3.024-.885-.619-2.384-.928-4.496-.928Zm-.32 18.976c1.728 0 3.088-.155 4.08-.464.992-.31 1.701-.779 2.128-1.408.427-.63.64-1.424.64-2.384 0-1.43-.453-2.485-1.36-3.168-.907-.683-2.347-1.024-4.32-1.024h-4.72v8.256c.597.075 1.179.128 1.744.16a48.99 48.99 0 0 0 1.808.032Zm19.412 2.656c-1.685 0-3.008-.432-3.968-1.296-.95-.864-1.424-2.043-1.424-3.536 0-1.547.517-2.757 1.552-3.632 1.045-.875 2.725-1.413 5.04-1.616l3.632-.368v-1.104c0-1.461-.352-2.453-1.056-2.976-.704-.533-1.797-.8-3.28-.8-.661 0-1.408.059-2.24.176a14.27 14.27 0 0 0-2.464.576V9.088a14.544 14.544 0 0 1 2.576-.576 19.599 19.599 0 0 1 2.64-.192c1.59 0 2.907.208 3.952.624 1.056.405 1.84 1.088 2.352 2.048.523.96.784 2.272.784 3.936V26h-2.768l-.24-1.872h-.192a5.18 5.18 0 0 1-2.128 1.616 7.002 7.002 0 0 1-2.768.544Zm-2.048-5.136c0 1.792.997 2.688 2.992 2.688.683 0 1.36-.139 2.032-.416.683-.277 1.301-.741 1.856-1.392V17.92l-3.344.336c-1.259.128-2.165.432-2.72.912-.544.48-.816 1.141-.816 1.984Zm20.538 5.168c-1.856 0-3.541-.24-5.056-.72v-2.576c1.654.49 3.334.736 5.04.736 1.398 0 2.4-.224 3.008-.672.619-.448.928-1.077.928-1.888 0-.683-.181-1.2-.544-1.552-.352-.363-.949-.635-1.792-.816l-2.496-.496c-1.61-.32-2.768-.88-3.472-1.68-.693-.8-1.04-1.845-1.04-3.136 0-1.525.598-2.773 1.792-3.744 1.195-.97 3.035-1.456 5.52-1.456.768 0 1.51.048 2.224.144.726.085 1.408.213 2.048.384v2.576a16.134 16.134 0 0 0-4.192-.544c-1.6 0-2.704.25-3.312.752-.608.49-.912 1.093-.912 1.808 0 .597.166 1.088.496 1.472.342.373.934.656 1.776.848l2.496.48c1.59.33 2.747.875 3.472 1.632.736.757 1.104 1.819 1.104 3.184 0 1.632-.608 2.917-1.824 3.856-1.205.939-2.96 1.408-5.264 1.408Zm19.741 0c-2.891 0-5.056-.704-6.496-2.112-1.44-1.419-2.16-3.723-2.16-6.912 0-3.008.656-5.253 1.968-6.736 1.312-1.493 3.109-2.24 5.392-2.24 2.24 0 3.962.747 5.168 2.24 1.205 1.493 1.808 3.765 1.808 6.816v.96h-10.96c.064 1.963.549 3.344 1.456 4.144.906.8 2.325 1.2 4.256 1.2.661 0 1.354-.053 2.08-.16a22.552 22.552 0 0 0 2.272-.496v2.624c-.864.235-1.686.405-2.464.512-.779.107-1.552.16-2.32.16Zm-1.328-15.712c-1.206 0-2.16.416-2.864 1.248-.694.821-1.062 2.277-1.104 4.368h7.808c-.032-2.08-.379-3.536-1.04-4.368-.662-.832-1.595-1.248-2.8-1.248ZM9.54 66V42.32h15.265v2.8H12.9v7.344h10.32v2.8H12.9V63.2h12.064V66H9.54Zm20.422 0V40.144h3.344V66h-3.344Zm17.22.32c-2.89 0-5.056-.704-6.496-2.112-1.44-1.419-2.16-3.723-2.16-6.912 0-3.008.656-5.253 1.968-6.736 1.312-1.493 3.11-2.24 5.392-2.24 2.24 0 3.963.747 5.168 2.24 1.205 1.493 1.808 3.765 1.808 6.816v.96h-10.96c.064 1.963.55 3.344 1.456 4.144.907.8 2.325 1.2 4.256 1.2.661 0 1.355-.053 2.08-.16a22.487 22.487 0 0 0 2.272-.496v2.624c-.864.235-1.685.405-2.464.512a17.07 17.07 0 0 1-2.32.16Zm-1.328-15.712c-1.205 0-2.16.416-2.864 1.248-.693.821-1.061 2.277-1.104 4.368h7.808c-.032-2.08-.379-3.536-1.04-4.368-.661-.832-1.595-1.248-2.8-1.248ZM57.881 66V48.592h2.784l.24 1.92h.192c1.301-1.461 2.96-2.192 4.976-2.192.96 0 1.819.192 2.576.576.768.373 1.37.987 1.808 1.84.8-.875 1.664-1.493 2.592-1.856.939-.373 1.85-.56 2.736-.56 1.045 0 1.973.208 2.784.624.81.416 1.45 1.093 1.92 2.032.47.928.704 2.17.704 3.728V66h-3.328V54.864c0-1.365-.283-2.31-.848-2.832-.555-.523-1.264-.784-2.128-.784-.608 0-1.253.144-1.936.432-.683.277-1.28.768-1.792 1.472.053.448.08.933.08 1.456V66h-3.28V54.864c0-1.365-.267-2.31-.8-2.832-.533-.523-1.232-.784-2.096-.784-.661 0-1.344.165-2.048.496-.704.33-1.301.87-1.792 1.616V66h-3.344Zm37.032.32c-2.89 0-5.056-.704-6.496-2.112-1.44-1.419-2.16-3.723-2.16-6.912 0-3.008.656-5.253 1.968-6.736 1.312-1.493 3.11-2.24 5.392-2.24 2.24 0 3.963.747 5.168 2.24 1.206 1.493 1.808 3.765 1.808 6.816v.96h-10.96c.064 1.963.55 3.344 1.456 4.144.907.8 2.326 1.2 4.256 1.2.662 0 1.355-.053 2.08-.16a22.493 22.493 0 0 0 2.272-.496v2.624c-.864.235-1.685.405-2.464.512-.778.107-1.552.16-2.32.16Zm-1.328-15.712c-1.205 0-2.16.416-2.864 1.248-.693.821-1.061 2.277-1.104 4.368h7.808c-.032-2.08-.378-3.536-1.04-4.368-.661-.832-1.594-1.248-2.8-1.248ZM105.612 66V48.592h2.784l.24 1.904h.192c1.419-1.45 3.2-2.176 5.344-2.176 1.11 0 2.091.208 2.944.624.864.416 1.542 1.093 2.032 2.032.491.928.736 2.17.736 3.728V66h-3.344V54.88c0-1.355-.293-2.299-.88-2.832-.586-.533-1.386-.8-2.4-.8-.714 0-1.472.16-2.272.48-.789.31-1.466.832-2.032 1.568V66h-3.344Zm27.186.304c-1.877 0-3.333-.475-4.368-1.424-1.024-.95-1.536-2.47-1.536-4.56v-9.024h-3.136v-2.704h3.136l.576-6.272h2.768v6.272h5.184v2.704h-5.184v8.48c0 1.387.272 2.352.816 2.896.555.544 1.403.816 2.544.816.576 0 1.253-.085 2.032-.256v2.752c-.939.213-1.883.32-2.832.32Z"/>
  </mask>
  <path fill="#fff" d="M2.112 26V2.32h15.264v2.8H5.472v7.344h10.32v2.8H5.472V23.2h12.064V26H2.112Zm25.766.304c-1.013 0-2.048-.085-3.104-.256-1.056-.16-2.048-.4-2.976-.72V22.48c.992.341 2.022.597 3.088.768 1.067.16 2.07.24 3.008.24 1.846 0 3.195-.33 4.048-.992.853-.661 1.28-1.616 1.28-2.864 0-1.067-.325-1.883-.976-2.448-.64-.565-1.75-1.056-3.328-1.472l-1.44-.368c-2.037-.523-3.568-1.312-4.592-2.368-1.013-1.056-1.52-2.459-1.52-4.208 0-2.101.742-3.75 2.224-4.944 1.483-1.205 3.696-1.808 6.64-1.808 1.984 0 3.755.235 5.312.704v2.848c-1.59-.49-3.312-.736-5.168-.736-1.984 0-3.413.336-4.288 1.008-.874.661-1.312 1.579-1.312 2.752 0 1.024.288 1.819.864 2.384.587.565 1.616 1.04 3.088 1.424l1.44.368c2.219.555 3.85 1.365 4.896 2.432 1.046 1.056 1.568 2.459 1.568 4.208 0 2.176-.768 3.872-2.304 5.088-1.525 1.205-3.675 1.808-6.448 1.808ZM41.844 26V2.32h3.392v20.784H56.66V26H41.844Zm34.702.224c-.96 0-1.963-.037-3.008-.112a48.09 48.09 0 0 1-3.088-.288V2.752a31.067 31.067 0 0 1 3.248-.496 32.453 32.453 0 0 1 3.584-.192c3.296 0 5.685.528 7.168 1.584 1.493 1.056 2.24 2.656 2.24 4.8 0 1.27-.33 2.39-.992 3.36-.65.96-1.675 1.616-3.072 1.968 1.547.299 2.72.944 3.52 1.936.81.981 1.216 2.245 1.216 3.792 0 1.45-.357 2.677-1.072 3.68-.715.992-1.861 1.75-3.44 2.272-1.579.512-3.68.768-6.304.768ZM77.65 4.656c-.79 0-1.493.027-2.112.08-.619.053-1.205.133-1.76.24v7.568h4.256c1.973 0 3.37-.325 4.192-.976.832-.661 1.248-1.648 1.248-2.96 0-1.397-.443-2.405-1.328-3.024-.885-.619-2.384-.928-4.496-.928Zm-.32 18.976c1.728 0 3.088-.155 4.08-.464.992-.31 1.701-.779 2.128-1.408.427-.63.64-1.424.64-2.384 0-1.43-.453-2.485-1.36-3.168-.907-.683-2.347-1.024-4.32-1.024h-4.72v8.256c.597.075 1.179.128 1.744.16a48.99 48.99 0 0 0 1.808.032Zm19.412 2.656c-1.685 0-3.008-.432-3.968-1.296-.95-.864-1.424-2.043-1.424-3.536 0-1.547.517-2.757 1.552-3.632 1.045-.875 2.725-1.413 5.04-1.616l3.632-.368v-1.104c0-1.461-.352-2.453-1.056-2.976-.704-.533-1.797-.8-3.28-.8-.661 0-1.408.059-2.24.176a14.27 14.27 0 0 0-2.464.576V9.088a14.544 14.544 0 0 1 2.576-.576 19.599 19.599 0 0 1 2.64-.192c1.59 0 2.907.208 3.952.624 1.056.405 1.84 1.088 2.352 2.048.523.96.784 2.272.784 3.936V26h-2.768l-.24-1.872h-.192a5.18 5.18 0 0 1-2.128 1.616 7.002 7.002 0 0 1-2.768.544Zm-2.048-5.136c0 1.792.997 2.688 2.992 2.688.683 0 1.36-.139 2.032-.416.683-.277 1.301-.741 1.856-1.392V17.92l-3.344.336c-1.259.128-2.165.432-2.72.912-.544.48-.816 1.141-.816 1.984Zm20.538 5.168c-1.856 0-3.541-.24-5.056-.72v-2.576c1.654.49 3.334.736 5.04.736 1.398 0 2.4-.224 3.008-.672.619-.448.928-1.077.928-1.888 0-.683-.181-1.2-.544-1.552-.352-.363-.949-.635-1.792-.816l-2.496-.496c-1.61-.32-2.768-.88-3.472-1.68-.693-.8-1.04-1.845-1.04-3.136 0-1.525.598-2.773 1.792-3.744 1.195-.97 3.035-1.456 5.52-1.456.768 0 1.51.048 2.224.144.726.085 1.408.213 2.048.384v2.576a16.134 16.134 0 0 0-4.192-.544c-1.6 0-2.704.25-3.312.752-.608.49-.912 1.093-.912 1.808 0 .597.166 1.088.496 1.472.342.373.934.656 1.776.848l2.496.48c1.59.33 2.747.875 3.472 1.632.736.757 1.104 1.819 1.104 3.184 0 1.632-.608 2.917-1.824 3.856-1.205.939-2.96 1.408-5.264 1.408Zm19.741 0c-2.891 0-5.056-.704-6.496-2.112-1.44-1.419-2.16-3.723-2.16-6.912 0-3.008.656-5.253 1.968-6.736 1.312-1.493 3.109-2.24 5.392-2.24 2.24 0 3.962.747 5.168 2.24 1.205 1.493 1.808 3.765 1.808 6.816v.96h-10.96c.064 1.963.549 3.344 1.456 4.144.906.8 2.325 1.2 4.256 1.2.661 0 1.354-.053 2.08-.16a22.552 22.552 0 0 0 2.272-.496v2.624c-.864.235-1.686.405-2.464.512-.779.107-1.552.16-2.32.16Zm-1.328-15.712c-1.206 0-2.16.416-2.864 1.248-.694.821-1.062 2.277-1.104 4.368h7.808c-.032-2.08-.379-3.536-1.04-4.368-.662-.832-1.595-1.248-2.8-1.248ZM9.54 66V42.32h15.265v2.8H12.9v7.344h10.32v2.8H12.9V63.2h12.064V66H9.54Zm20.422 0V40.144h3.344V66h-3.344Zm17.22.32c-2.89 0-5.056-.704-6.496-2.112-1.44-1.419-2.16-3.723-2.16-6.912 0-3.008.656-5.253 1.968-6.736 1.312-1.493 3.11-2.24 5.392-2.24 2.24 0 3.963.747 5.168 2.24 1.205 1.493 1.808 3.765 1.808 6.816v.96h-10.96c.064 1.963.55 3.344 1.456 4.144.907.8 2.325 1.2 4.256 1.2.661 0 1.355-.053 2.08-.16a22.487 22.487 0 0 0 2.272-.496v2.624c-.864.235-1.685.405-2.464.512a17.07 17.07 0 0 1-2.32.16Zm-1.328-15.712c-1.205 0-2.16.416-2.864 1.248-.693.821-1.061 2.277-1.104 4.368h7.808c-.032-2.08-.379-3.536-1.04-4.368-.661-.832-1.595-1.248-2.8-1.248ZM57.881 66V48.592h2.784l.24 1.92h.192c1.301-1.461 2.96-2.192 4.976-2.192.96 0 1.819.192 2.576.576.768.373 1.37.987 1.808 1.84.8-.875 1.664-1.493 2.592-1.856.939-.373 1.85-.56 2.736-.56 1.045 0 1.973.208 2.784.624.81.416 1.45 1.093 1.92 2.032.47.928.704 2.17.704 3.728V66h-3.328V54.864c0-1.365-.283-2.31-.848-2.832-.555-.523-1.264-.784-2.128-.784-.608 0-1.253.144-1.936.432-.683.277-1.28.768-1.792 1.472.053.448.08.933.08 1.456V66h-3.28V54.864c0-1.365-.267-2.31-.8-2.832-.533-.523-1.232-.784-2.096-.784-.661 0-1.344.165-2.048.496-.704.33-1.301.87-1.792 1.616V66h-3.344Zm37.032.32c-2.89 0-5.056-.704-6.496-2.112-1.44-1.419-2.16-3.723-2.16-6.912 0-3.008.656-5.253 1.968-6.736 1.312-1.493 3.11-2.24 5.392-2.24 2.24 0 3.963.747 5.168 2.24 1.206 1.493 1.808 3.765 1.808 6.816v.96h-10.96c.064 1.963.55 3.344 1.456 4.144.907.8 2.326 1.2 4.256 1.2.662 0 1.355-.053 2.08-.16a22.493 22.493 0 0 0 2.272-.496v2.624c-.864.235-1.685.405-2.464.512-.778.107-1.552.16-2.32.16Zm-1.328-15.712c-1.205 0-2.16.416-2.864 1.248-.693.821-1.061 2.277-1.104 4.368h7.808c-.032-2.08-.378-3.536-1.04-4.368-.661-.832-1.594-1.248-2.8-1.248ZM105.612 66V48.592h2.784l.24 1.904h.192c1.419-1.45 3.2-2.176 5.344-2.176 1.11 0 2.091.208 2.944.624.864.416 1.542 1.093 2.032 2.032.491.928.736 2.17.736 3.728V66h-3.344V54.88c0-1.355-.293-2.299-.88-2.832-.586-.533-1.386-.8-2.4-.8-.714 0-1.472.16-2.272.48-.789.31-1.466.832-2.032 1.568V66h-3.344Zm27.186.304c-1.877 0-3.333-.475-4.368-1.424-1.024-.95-1.536-2.47-1.536-4.56v-9.024h-3.136v-2.704h3.136l.576-6.272h2.768v6.272h5.184v2.704h-5.184v8.48c0 1.387.272 2.352.816 2.896.555.544 1.403.816 2.544.816.576 0 1.253-.085 2.032-.256v2.752c-.939.213-1.883.32-2.832.32Z"/>
  <path stroke="#0097E7" stroke-width="4" d="M2.112 26V2.32h15.264v2.8H5.472v7.344h10.32v2.8H5.472V23.2h12.064V26H2.112Zm25.766.304c-1.013 0-2.048-.085-3.104-.256-1.056-.16-2.048-.4-2.976-.72V22.48c.992.341 2.022.597 3.088.768 1.067.16 2.07.24 3.008.24 1.846 0 3.195-.33 4.048-.992.853-.661 1.28-1.616 1.28-2.864 0-1.067-.325-1.883-.976-2.448-.64-.565-1.75-1.056-3.328-1.472l-1.44-.368c-2.037-.523-3.568-1.312-4.592-2.368-1.013-1.056-1.52-2.459-1.52-4.208 0-2.101.742-3.75 2.224-4.944 1.483-1.205 3.696-1.808 6.64-1.808 1.984 0 3.755.235 5.312.704v2.848c-1.59-.49-3.312-.736-5.168-.736-1.984 0-3.413.336-4.288 1.008-.874.661-1.312 1.579-1.312 2.752 0 1.024.288 1.819.864 2.384.587.565 1.616 1.04 3.088 1.424l1.44.368c2.219.555 3.85 1.365 4.896 2.432 1.046 1.056 1.568 2.459 1.568 4.208 0 2.176-.768 3.872-2.304 5.088-1.525 1.205-3.675 1.808-6.448 1.808ZM41.844 26V2.32h3.392v20.784H56.66V26H41.844Zm34.702.224c-.96 0-1.963-.037-3.008-.112a48.09 48.09 0 0 1-3.088-.288V2.752a31.067 31.067 0 0 1 3.248-.496 32.453 32.453 0 0 1 3.584-.192c3.296 0 5.685.528 7.168 1.584 1.493 1.056 2.24 2.656 2.24 4.8 0 1.27-.33 2.39-.992 3.36-.65.96-1.675 1.616-3.072 1.968 1.547.299 2.72.944 3.52 1.936.81.981 1.216 2.245 1.216 3.792 0 1.45-.357 2.677-1.072 3.68-.715.992-1.861 1.75-3.44 2.272-1.579.512-3.68.768-6.304.768ZM77.65 4.656c-.79 0-1.493.027-2.112.08-.619.053-1.205.133-1.76.24v7.568h4.256c1.973 0 3.37-.325 4.192-.976.832-.661 1.248-1.648 1.248-2.96 0-1.397-.443-2.405-1.328-3.024-.885-.619-2.384-.928-4.496-.928Zm-.32 18.976c1.728 0 3.088-.155 4.08-.464.992-.31 1.701-.779 2.128-1.408.427-.63.64-1.424.64-2.384 0-1.43-.453-2.485-1.36-3.168-.907-.683-2.347-1.024-4.32-1.024h-4.72v8.256c.597.075 1.179.128 1.744.16a48.99 48.99 0 0 0 1.808.032Zm19.412 2.656c-1.685 0-3.008-.432-3.968-1.296-.95-.864-1.424-2.043-1.424-3.536 0-1.547.517-2.757 1.552-3.632 1.045-.875 2.725-1.413 5.04-1.616l3.632-.368v-1.104c0-1.461-.352-2.453-1.056-2.976-.704-.533-1.797-.8-3.28-.8-.661 0-1.408.059-2.24.176a14.27 14.27 0 0 0-2.464.576V9.088a14.544 14.544 0 0 1 2.576-.576 19.599 19.599 0 0 1 2.64-.192c1.59 0 2.907.208 3.952.624 1.056.405 1.84 1.088 2.352 2.048.523.96.784 2.272.784 3.936V26h-2.768l-.24-1.872h-.192a5.18 5.18 0 0 1-2.128 1.616 7.002 7.002 0 0 1-2.768.544Zm-2.048-5.136c0 1.792.997 2.688 2.992 2.688.683 0 1.36-.139 2.032-.416.683-.277 1.301-.741 1.856-1.392V17.92l-3.344.336c-1.259.128-2.165.432-2.72.912-.544.48-.816 1.141-.816 1.984Zm20.538 5.168c-1.856 0-3.541-.24-5.056-.72v-2.576c1.654.49 3.334.736 5.04.736 1.398 0 2.4-.224 3.008-.672.619-.448.928-1.077.928-1.888 0-.683-.181-1.2-.544-1.552-.352-.363-.949-.635-1.792-.816l-2.496-.496c-1.61-.32-2.768-.88-3.472-1.68-.693-.8-1.04-1.845-1.04-3.136 0-1.525.598-2.773 1.792-3.744 1.195-.97 3.035-1.456 5.52-1.456.768 0 1.51.048 2.224.144.726.085 1.408.213 2.048.384v2.576a16.134 16.134 0 0 0-4.192-.544c-1.6 0-2.704.25-3.312.752-.608.49-.912 1.093-.912 1.808 0 .597.166 1.088.496 1.472.342.373.934.656 1.776.848l2.496.48c1.59.33 2.747.875 3.472 1.632.736.757 1.104 1.819 1.104 3.184 0 1.632-.608 2.917-1.824 3.856-1.205.939-2.96 1.408-5.264 1.408Zm19.741 0c-2.891 0-5.056-.704-6.496-2.112-1.44-1.419-2.16-3.723-2.16-6.912 0-3.008.656-5.253 1.968-6.736 1.312-1.493 3.109-2.24 5.392-2.24 2.24 0 3.962.747 5.168 2.24 1.205 1.493 1.808 3.765 1.808 6.816v.96h-10.96c.064 1.963.549 3.344 1.456 4.144.906.8 2.325 1.2 4.256 1.2.661 0 1.354-.053 2.08-.16a22.552 22.552 0 0 0 2.272-.496v2.624c-.864.235-1.686.405-2.464.512-.779.107-1.552.16-2.32.16Zm-1.328-15.712c-1.206 0-2.16.416-2.864 1.248-.694.821-1.062 2.277-1.104 4.368h7.808c-.032-2.08-.379-3.536-1.04-4.368-.662-.832-1.595-1.248-2.8-1.248ZM9.54 66V42.32h15.265v2.8H12.9v7.344h10.32v2.8H12.9V63.2h12.064V66H9.54Zm20.422 0V40.144h3.344V66h-3.344Zm17.22.32c-2.89 0-5.056-.704-6.496-2.112-1.44-1.419-2.16-3.723-2.16-6.912 0-3.008.656-5.253 1.968-6.736 1.312-1.493 3.11-2.24 5.392-2.24 2.24 0 3.963.747 5.168 2.24 1.205 1.493 1.808 3.765 1.808 6.816v.96h-10.96c.064 1.963.55 3.344 1.456 4.144.907.8 2.325 1.2 4.256 1.2.661 0 1.355-.053 2.08-.16a22.487 22.487 0 0 0 2.272-.496v2.624c-.864.235-1.685.405-2.464.512a17.07 17.07 0 0 1-2.32.16Zm-1.328-15.712c-1.205 0-2.16.416-2.864 1.248-.693.821-1.061 2.277-1.104 4.368h7.808c-.032-2.08-.379-3.536-1.04-4.368-.661-.832-1.595-1.248-2.8-1.248ZM57.881 66V48.592h2.784l.24 1.92h.192c1.301-1.461 2.96-2.192 4.976-2.192.96 0 1.819.192 2.576.576.768.373 1.37.987 1.808 1.84.8-.875 1.664-1.493 2.592-1.856.939-.373 1.85-.56 2.736-.56 1.045 0 1.973.208 2.784.624.81.416 1.45 1.093 1.92 2.032.47.928.704 2.17.704 3.728V66h-3.328V54.864c0-1.365-.283-2.31-.848-2.832-.555-.523-1.264-.784-2.128-.784-.608 0-1.253.144-1.936.432-.683.277-1.28.768-1.792 1.472.053.448.08.933.08 1.456V66h-3.28V54.864c0-1.365-.267-2.31-.8-2.832-.533-.523-1.232-.784-2.096-.784-.661 0-1.344.165-2.048.496-.704.33-1.301.87-1.792 1.616V66h-3.344Zm37.032.32c-2.89 0-5.056-.704-6.496-2.112-1.44-1.419-2.16-3.723-2.16-6.912 0-3.008.656-5.253 1.968-6.736 1.312-1.493 3.11-2.24 5.392-2.24 2.24 0 3.963.747 5.168 2.24 1.206 1.493 1.808 3.765 1.808 6.816v.96h-10.96c.064 1.963.55 3.344 1.456 4.144.907.8 2.326 1.2 4.256 1.2.662 0 1.355-.053 2.08-.16a22.493 22.493 0 0 0 2.272-.496v2.624c-.864.235-1.685.405-2.464.512-.778.107-1.552.16-2.32.16Zm-1.328-15.712c-1.205 0-2.16.416-2.864 1.248-.693.821-1.061 2.277-1.104 4.368h7.808c-.032-2.08-.378-3.536-1.04-4.368-.661-.832-1.594-1.248-2.8-1.248ZM105.612 66V48.592h2.784l.24 1.904h.192c1.419-1.45 3.2-2.176 5.344-2.176 1.11 0 2.091.208 2.944.624.864.416 1.542 1.093 2.032 2.032.491.928.736 2.17.736 3.728V66h-3.344V54.88c0-1.355-.293-2.299-.88-2.832-.586-.533-1.386-.8-2.4-.8-.714 0-1.472.16-2.272.48-.789.31-1.466.832-2.032 1.568V66h-3.344Zm27.186.304c-1.877 0-3.333-.475-4.368-1.424-1.024-.95-1.536-2.47-1.536-4.56v-9.024h-3.136v-2.704h3.136l.576-6.272h2.768v6.272h5.184v2.704h-5.184v8.48c0 1.387.272 2.352.816 2.896.555.544 1.403.816 2.544.816.576 0 1.253-.085 2.032-.256v2.752c-.939.213-1.883.32-2.832.32Z" mask="url(#path-1-outside-1_42:130)"/>
</svg>
