<?xml version="1.0" encoding="utf-8"?>
<!-- Generator: Adobe Illustrator 21.1.0, SVG Export Plug-In . SVG Version: 6.00 Build 0)  -->
<svg version="1.1" id="ESL_Icon" xmlns="http://www.w3.org/2000/svg" xmlns:xlink="http://www.w3.org/1999/xlink" x="0px" y="0px"
	 viewBox="0 0 400 400" enable-background="new 0 0 400 400" xml:space="preserve">
<rect id="Background" x="0" display="none" fill="#131A2E" stroke="#000000" stroke-miterlimit="10" width="400" height="400"/>
<g id="Shild">
	<g id="Shield_Original">
		<path id="Shield_main" fill="none" stroke="#C6361A" stroke-miterlimit="10" d="M200,292c-0.3,0-0.6,0-0.9-0.1
			c-0.7-0.2-73.1-17-73.1-96.9v-56.3c0-1.8,1.1-3.5,2.8-4.1l69.6-26.3c1-0.4,2.1-0.4,3.1,0l69.6,26.3c1.7,0.6,2.8,2.3,2.8,4.1V195
			c0,79.9-72.3,96.8-73.1,96.9C200.6,292,200.3,292,200,292L200,292z"/>
		<path id="Shield-right" fill="none" stroke="#FF5D24" stroke-miterlimit="10" d="M200,108v184c0.3,0,0.6,0,0.9-0.1
			c0.7-0.2,73.1-17,73.1-96.9v-56.3c0-1.8-1.1-3.5-2.8-4.1l-69.6-26.3C201,108.1,200.5,108,200,108L200,108z"/>
	</g>
	<g id="Shield_Skeleton">
		<polyline fill="none" stroke="#C6361A" stroke-miterlimit="10" points="126,136 200,152.4 126,188.6 200,198.2 131.1,229.2 
			199.9,252.8 160.7,272.1 		"/>
		<polyline fill="none" stroke="#FF5D24" stroke-miterlimit="10" points="273,136 200,152.4 274,188.7 200,198.2 268.7,229.3 
			199.9,252.8 238.8,272.3 		"/>
	</g>
	<g id="Shield_Stars">
		<polygon fill="#FF5D24" points="126.7,133.6 127.1,135.1 128.3,134.2 127.8,135.6 129.3,135.6 128.1,136.4 129.3,137.3 
			127.8,137.3 128.3,138.7 127.1,137.8 126.7,139.3 126.2,137.8 125,138.7 125.5,137.3 124,137.3 125.3,136.4 124,135.6 
			125.5,135.6 125,134.2 126.2,135.1 		"/>
		<polygon fill="#FF5D24" points="125.9,185.7 126.3,187.1 127.5,186.2 127,187.7 128.6,187.6 127.3,188.5 128.6,189.4 127,189.3 
			127.5,190.8 126.3,189.8 125.9,191.3 125.4,189.8 124.2,190.8 124.7,189.3 123.2,189.4 124.5,188.5 123.2,187.6 124.7,187.7 
			124.2,186.2 125.4,187.1 		"/>
		<polygon fill="#FF5D24" points="200,289.7 200.4,291.2 201.7,290.2 201.1,291.7 202.7,291.6 201.4,292.5 202.7,293.4 201.1,293.3 
			201.7,294.8 200.4,293.9 200,295.3 199.6,293.9 198.3,294.8 198.9,293.3 197.3,293.4 198.6,292.5 197.3,291.6 198.9,291.7 
			198.3,290.2 199.6,291.2 		"/>
		<polygon fill="#FF5D24" points="131.6,226.5 132,228 133.2,227 132.7,228.5 134.3,228.4 133,229.3 134.3,230.2 132.7,230.1 
			133.2,231.6 132,230.7 131.6,232.1 131.1,230.7 129.9,231.6 130.4,230.1 128.9,230.2 130.2,229.3 128.9,228.4 130.4,228.5 
			129.9,227 131.1,228 		"/>
		<polygon fill="#FF5D24" points="268.6,226.5 269.1,228 270.3,227.1 269.8,228.5 271.3,228.5 270,229.3 271.3,230.2 269.8,230.2 
			270.3,231.6 269.1,230.7 268.6,232.2 268.2,230.7 267,231.6 267.5,230.2 265.9,230.2 267.2,229.3 265.9,228.5 267.5,228.5 
			267,227.1 268.2,228 		"/>
		<polygon fill="#FF5D24" points="274,185.7 274.4,187.1 275.7,186.2 275.1,187.7 276.7,187.6 275.4,188.5 276.7,189.4 275.1,189.3 
			275.7,190.8 274.4,189.8 274,191.3 273.6,189.8 272.3,190.8 272.9,189.3 271.3,189.4 272.6,188.5 271.3,187.6 272.9,187.7 
			272.3,186.2 273.6,187.1 		"/>
		<polygon fill="#FF5D24" points="273.9,133.6 274.3,135.1 275.6,134.2 275,135.6 276.6,135.6 275.3,136.4 276.6,137.3 275,137.3 
			275.6,138.7 274.3,137.8 273.9,139.3 273.5,137.8 272.2,138.7 272.8,137.3 271.2,137.3 272.5,136.4 271.2,135.6 272.8,135.6 
			272.2,134.2 273.5,135.1 		"/>
		<polygon fill="#FF5D24" points="200,149.5 200.4,151 201.7,150.1 201.1,151.5 202.7,151.5 201.4,152.3 202.7,153.2 201.1,153.2 
			201.7,154.6 200.4,153.7 200,155.2 199.6,153.7 198.3,154.6 198.9,153.2 197.3,153.2 198.6,152.3 197.3,151.5 198.9,151.5 
			198.3,150.1 199.6,151 		"/>
		<polygon fill="#FF5D24" points="199.8,105.1 200.3,106.6 201.5,105.7 201,107.1 202.5,107.1 201.2,107.9 202.5,108.8 201,108.8 
			201.5,110.2 200.3,109.3 199.8,110.8 199.4,109.3 198.2,110.2 198.7,108.8 197.2,108.8 198.4,107.9 197.2,107.1 198.7,107.1 
			198.2,105.7 199.4,106.6 		"/>
		<polygon fill="#FF5D24" points="200,195.4 200.4,196.8 201.7,195.9 201.1,197.3 202.7,197.3 201.4,198.2 202.7,199 201.1,199 
			201.7,200.5 200.4,199.5 200,201 199.6,199.5 198.3,200.5 198.9,199 197.3,199 198.6,198.2 197.3,197.3 198.9,197.3 198.3,195.9 
			199.6,196.8 		"/>
		<polygon fill="#FF5D24" points="200,250 200.4,251.5 201.7,250.6 201.1,252 202.7,252 201.4,252.8 202.7,253.7 201.1,253.7 
			201.7,255.1 200.4,254.2 200,255.7 199.6,254.2 198.3,255.1 198.9,253.7 197.3,253.7 198.6,252.8 197.3,252 198.9,252 
			198.3,250.6 199.6,251.5 		"/>
		<polygon fill="#FF5D24" points="238.8,269.5 239.2,270.9 240.5,270 240,271.5 241.5,271.4 240.2,272.3 241.5,273.2 240,273.1 
			240.5,274.6 239.2,273.6 238.8,275.1 238.4,273.6 237.2,274.6 237.7,273.1 236.1,273.2 237.4,272.3 236.1,271.4 237.7,271.5 
			237.2,270 238.4,270.9 		"/>
		<polygon fill="#FF5D24" points="160.7,269.5 161.1,270.9 162.3,270 161.8,271.5 163.4,271.4 162.1,272.3 163.4,273.2 161.8,273.1 
			162.3,274.6 161.1,273.6 160.7,275.1 160.2,273.6 159,274.6 159.5,273.1 158,273.2 159.3,272.3 158,271.4 159.5,271.5 159,270 
			160.2,270.9 		"/>
	</g>
</g>
<g id="Wrenches">
	<g id="Wrench_Left">
		<path id="Wrench_Original_Left" fill="none" stroke="#FFFFFF" stroke-miterlimit="10" d="M207.7,207.3l-15.8,15.8l-23.2-6.2
			l-6.2-23.2l15.8-15.8c-9-0.7-18.2,2.4-25.1,9.3c-9.5,9.5-11.8,23.5-6.8,35.1L108.6,260c-4.7,4.7-4.7,12.3,0,17s12.3,4.7,17,0
			l37.7-37.7c11.6,4.9,25.6,2.7,35.1-6.8C205.3,225.6,208.4,216.3,207.7,207.3z"/>
		<g id="Wrench_Skeleton_Left" display="none">
			<polyline display="inline" fill="none" stroke="#FFFFFF" stroke-miterlimit="10" points="109.1,277.5 146.4,222.3 163.3,239.3 
				109.1,277.5 			"/>
			<polyline display="inline" fill="none" stroke="#FFFFFF" stroke-miterlimit="10" points="149,191.5 146.1,221.7 163,193.6 
				146.1,221.7 168.7,216.9 163.3,239.3 191.9,223.1 163.3,239.3 191.9,237.7 			"/>
		</g>
		<g id="Wrench_Stars_Left">
			<polygon fill="#FFFFFF" points="162.6,190.8 163,192.2 164.2,191.3 163.7,192.8 165.3,192.7 164,193.6 165.3,194.5 163.7,194.4 
				164.2,195.9 163,194.9 162.6,196.4 162.2,194.9 160.9,195.9 161.5,194.4 159.9,194.5 161.2,193.6 159.9,192.7 161.5,192.8 
				160.9,191.3 162.2,192.2 			"/>
			<polygon fill="#FFFFFF" points="178.6,174.9 179,176.4 180.2,175.4 179.7,176.9 181.3,176.8 180,177.7 181.3,178.6 179.7,178.5 
				180.2,180 179,179 178.6,180.5 178.2,179 176.9,180 177.5,178.5 175.9,178.6 177.2,177.7 175.9,176.8 177.5,176.9 176.9,175.4 
				178.2,176.4 			"/>
			<polygon fill="#FFFFFF" points="168.7,213.9 169.2,215.4 170.4,214.4 169.9,215.9 171.4,215.8 170.1,216.7 171.4,217.6 
				169.9,217.5 170.4,219 169.2,218 168.7,219.5 168.3,218 167.1,219 167.6,217.5 166,217.6 167.3,216.7 166,215.8 167.6,215.9 
				167.1,214.4 168.3,215.4 			"/>
			<polygon fill="#FFFFFF" points="192.2,220.1 192.7,221.6 193.9,220.7 193.4,222.1 194.9,222.1 193.6,223 194.9,223.8 
				193.4,223.8 193.9,225.2 192.7,224.3 192.2,225.8 191.8,224.3 190.6,225.2 191.1,223.8 189.5,223.8 190.8,223 189.5,222.1 
				191.1,222.1 190.6,220.7 191.8,221.6 			"/>
			<polygon fill="#FFFFFF" points="207.8,204.3 208.2,205.7 209.5,204.8 208.9,206.3 210.5,206.2 209.2,207.1 210.5,208 
				208.9,207.9 209.5,209.4 208.2,208.4 207.8,209.9 207.4,208.4 206.1,209.4 206.7,207.9 205.1,208 206.4,207.1 205.1,206.2 
				206.7,206.3 206.1,204.8 207.4,205.7 			"/>
			<polygon display="none" fill="#FFFFFF" points="123.3,276.1 123.8,277.6 125,276.7 124.5,278.1 126,278.1 124.7,279 126,279.8 
				124.5,279.8 125,281.2 123.8,280.3 123.3,281.8 122.9,280.3 121.7,281.2 122.2,279.8 120.6,279.8 121.9,279 120.6,278.1 
				122.2,278.1 121.7,276.7 122.9,277.6 			"/>
			<polygon fill="#FFFFFF" points="146.3,218.9 146.8,220.4 148,219.4 147.5,220.9 149,220.8 147.8,221.7 149,222.6 147.5,222.5 
				148,224 146.8,223 146.3,224.5 145.9,223 144.7,224 145.2,222.5 143.7,222.6 144.9,221.7 143.7,220.8 145.2,220.9 144.7,219.4 
				145.9,220.4 			"/>
			<polygon fill="#FFFFFF" points="163.4,236.1 163.8,237.6 165,236.7 164.5,238.1 166,238.1 164.8,239 166,239.8 164.5,239.8 
				165,241.2 163.8,240.3 163.4,241.8 162.9,240.3 161.7,241.2 162.2,239.8 160.7,239.8 161.9,239 160.7,238.1 162.2,238.1 
				161.7,236.7 162.9,237.6 			"/>
			<polygon fill="#FFFFFF" points="149,188.6 149.5,190.1 150.7,189.2 150.2,190.6 151.7,190.6 150.4,191.5 151.7,192.3 
				150.2,192.3 150.7,193.7 149.5,192.8 149,194.3 148.6,192.8 147.4,193.7 147.9,192.3 146.3,192.3 147.6,191.5 146.3,190.6 
				147.9,190.6 147.4,189.2 148.6,190.1 			"/>
			<polygon fill="#FFFFFF" points="192.2,234.9 192.7,236.4 193.9,235.4 193.4,236.9 194.9,236.8 193.6,237.7 194.9,238.6 
				193.4,238.5 193.9,240 192.7,239 192.2,240.5 191.8,239 190.6,240 191.1,238.5 189.5,238.6 190.8,237.7 189.5,236.8 191.1,236.9 
				190.6,235.4 191.8,236.4 			"/>
			<polygon display="none" fill="#FFFFFF" points="106.7,258.6 107.1,260.1 108.4,259.2 107.8,260.6 109.4,260.6 108.1,261.5 
				109.4,262.3 107.8,262.3 108.4,263.7 107.1,262.8 106.7,264.3 106.3,262.8 105,263.7 105.6,262.3 104,262.3 105.3,261.5 
				104,260.6 105.6,260.6 105,259.2 106.3,260.1 			"/>
			<polygon fill="#FFFFFF" points="109.3,274.5 109.8,276 111,275.1 110.5,276.5 112,276.5 110.7,277.3 112,278.2 110.5,278.2 
				111,279.6 109.8,278.7 109.3,280.2 108.9,278.7 107.7,279.6 108.2,278.2 106.6,278.2 107.9,277.3 106.6,276.5 108.2,276.5 
				107.7,275.1 108.9,276 			"/>
		</g>
	</g>
	<g id="Wrench_Right">
		<path id="Wrenche_Original_Right_2_" fill="none" stroke="#FFFFFF" stroke-miterlimit="10" d="M290.4,120.5
			c-4.7-4.7-12.3-4.7-17,0l-37.7,37.7c-11.6-4.9-25.6-2.7-35.1,6.8c-6.9,6.9-10,16.1-9.3,25.1l15.8-15.8l23.2,6.2l6.2,23.2
			l-15.8,15.8c9,0.7,18.2-2.4,25.1-9.3c9.5-9.5,11.8-23.5,6.8-35.1l37.7-37.7C295.1,132.8,295.1,125.2,290.4,120.5L290.4,120.5z"/>
		<g id="Wrench_Skeleton_Right" display="none">
			<polygon display="inline" fill="none" stroke="#FFFFFF" stroke-miterlimit="10" points="254.1,177 291.5,122.2 237.2,160.1 			
				"/>
			<polyline display="inline" fill="none" stroke="#FFFFFF" stroke-miterlimit="10" points="205.1,164.5 237.3,160.3 208.7,176.4 
				237.3,160.3 232.3,182 254.2,177.7 238.6,205.9 254.2,177.7 250.5,208.7 			"/>
		</g>
		<g id="Wrench_Stars_Right">
			<polygon fill="#FFFFFF" points="191.2,186.6 191.6,188.1 192.9,187.1 192.3,188.6 193.9,188.6 192.6,189.4 193.9,190.3 
				192.3,190.3 192.9,191.7 191.6,190.8 191.2,192.2 190.8,190.8 189.5,191.7 190.1,190.3 188.5,190.3 189.8,189.4 188.5,188.6 
				190.1,188.6 189.5,187.1 190.8,188.1 			"/>
			<polygon fill="#FFFFFF" points="237,201 237.4,202.4 238.6,201.5 238.1,202.9 239.7,202.9 238.4,203.8 239.7,204.6 238.1,204.6 
				238.6,206.1 237.4,205.1 237,206.6 236.6,205.1 235.3,206.1 235.9,204.6 234.3,204.6 235.6,203.8 234.3,202.9 235.9,202.9 
				235.3,201.5 236.6,202.4 			"/>
			<polygon fill="#FFFFFF" points="236.1,154.9 236.5,156.4 237.8,155.5 237.2,156.9 238.8,156.9 237.5,157.7 238.8,158.6 
				237.2,158.6 237.8,160 236.5,159.1 236.1,160.6 235.7,159.1 234.4,160 235,158.6 233.4,158.6 234.7,157.7 233.4,156.9 235,156.9 
				234.4,155.5 235.7,156.4 			"/>
			<polygon fill="#FFFFFF" points="207.1,171.4 207.5,172.9 208.8,172 208.2,173.4 209.8,173.4 208.5,174.2 209.8,175.1 
				208.2,175.1 208.8,176.5 207.5,175.6 207.1,177.1 206.7,175.6 205.4,176.5 206,175.1 204.4,175.1 205.7,174.2 204.4,173.4 
				206,173.4 205.4,172 206.7,172.9 			"/>
			<polygon fill="#FFFFFF" points="203.5,159 204,160.5 205.2,159.6 204.7,161 206.2,161 204.9,161.9 206.2,162.7 204.7,162.7 
				205.2,164.2 204,163.2 203.5,164.7 203.1,163.2 201.9,164.2 202.4,162.7 200.8,162.7 202.1,161.9 200.8,161 202.4,161 
				201.9,159.6 203.1,160.5 			"/>
			<polygon fill="#FFFFFF" points="249,203.8 249.4,205.3 250.6,204.3 250.1,205.8 251.7,205.7 250.4,206.6 251.7,207.5 
				250.1,207.4 250.6,208.9 249.4,207.9 249,209.4 248.6,207.9 247.3,208.9 247.9,207.4 246.3,207.5 247.6,206.6 246.3,205.7 
				247.9,205.8 247.3,204.3 248.6,205.3 			"/>
			<polygon fill="#FFFFFF" points="230.7,177.1 231.2,178.5 232.4,177.6 231.9,179 233.4,179 232.1,179.9 233.4,180.7 231.9,180.7 
				232.4,182.2 231.2,181.2 230.7,182.7 230.3,181.2 229.1,182.2 229.6,180.7 228,180.7 229.3,179.9 228,179 229.6,179 229.1,177.6 
				230.3,178.5 			"/>
			<polygon fill="#FFFFFF" points="219.5,216.8 219.9,218.3 221.1,217.3 220.6,218.8 222.2,218.7 220.9,219.6 222.2,220.5 
				220.6,220.4 221.1,221.9 219.9,220.9 219.5,222.4 219.1,220.9 217.8,221.9 218.4,220.4 216.8,220.5 218.1,219.6 216.8,218.7 
				218.4,218.8 217.8,217.3 219.1,218.3 			"/>
			<polygon fill="#FFFFFF" points="252.6,172.8 253,174.3 254.3,173.3 253.7,174.8 255.3,174.7 254,175.6 255.3,176.5 253.7,176.4 
				254.3,177.9 253,176.9 252.6,178.4 252.2,176.9 250.9,177.9 251.5,176.4 249.9,176.5 251.2,175.6 249.9,174.7 251.5,174.8 
				250.9,173.3 252.2,174.3 			"/>
			<polygon display="none" fill="#FFFFFF" points="293.4,131 293.8,132.5 295,131.5 294.5,133 296,132.9 294.8,133.8 296,134.7 
				294.5,134.6 295,136.1 293.8,135.2 293.4,136.6 292.9,135.2 291.7,136.1 292.2,134.6 290.7,134.7 292,133.8 290.7,132.9 
				292.2,133 291.7,131.5 292.9,132.5 			"/>
			<polygon display="none" fill="#FFFFFF" points="275,116.1 275.4,117.6 276.6,116.7 276.1,118.1 277.7,118.1 276.4,118.9 
				277.7,119.8 276.1,119.8 276.6,121.2 275.4,120.3 275,121.8 274.5,120.3 273.3,121.2 273.8,119.8 272.3,119.8 273.6,118.9 
				272.3,118.1 273.8,118.1 273.3,116.7 274.5,117.6 			"/>
			<polygon fill="#FFFFFF" points="290.3,116.9 290.7,118.4 291.9,117.4 291.4,118.9 293,118.8 291.7,119.7 293,120.6 291.4,120.5 
				291.9,122 290.7,121 290.3,122.5 289.8,121 288.6,122 289.1,120.5 287.6,120.6 288.9,119.7 287.6,118.8 289.1,118.9 288.6,117.4 
				289.8,118.4 			"/>
		</g>
	</g>
</g>
<g id="Border">
	<path id="Border_Original" display="none" fill="none" stroke="#98C6FF" stroke-miterlimit="10" d="M199.5,39.5
		c-88.4,0-160,71.6-160,160s71.6,160,160,160s160-71.6,160-160S287.9,39.5,199.5,39.5z M199.5,347.5c-81.7,0-148-66.3-148-148
		s66.3-148,148-148s148,66.3,148,148S281.2,347.5,199.5,347.5z"/>
	<g id="Border_Stars_Outer">
		<polygon fill="#98C6FF" points="59.5,274.3 59.9,275.7 61.1,274.8 60.6,276.2 62.2,276.2 60.9,277.1 62.2,277.9 60.6,277.9 
			61.1,279.4 59.9,278.4 59.5,279.9 59,278.4 57.8,279.4 58.3,277.9 56.8,277.9 58.1,277.1 56.8,276.2 58.3,276.2 57.8,274.8 
			59,275.7 		"/>
		<polygon fill="#98C6FF" points="200,356.6 200.4,358.1 201.6,357.3 201.1,358.6 202.7,358.6 201.4,359.4 202.7,360.4 201.1,360.4 
			201.6,361.8 200.4,360.9 200,362.4 199.5,360.9 198.3,361.8 198.8,360.4 197.3,360.4 198.6,359.4 197.3,358.6 198.8,358.6 
			198.3,357.3 199.5,358.1 		"/>
		<polygon fill="#98C6FF" points="121.3,56.9 121.8,58.4 123,57.4 122.5,58.9 124,58.8 122.7,59.7 124,60.6 122.5,60.5 123,62 
			121.8,61.1 121.3,62.5 120.9,61.1 119.7,62 120.2,60.5 118.7,60.6 119.9,59.7 118.7,58.8 120.2,58.9 119.7,57.4 120.9,58.4 		"/>
		<polygon fill="#98C6FF" points="62.5,113.8 62.9,115.3 64.1,114.3 63.6,115.8 65.2,115.7 63.9,116.6 65.2,117.5 63.6,117.4 
			64.1,118.9 62.9,118 62.5,119.4 62.1,118 60.8,118.9 61.4,117.4 59.8,117.5 61.1,116.6 59.8,115.7 61.4,115.8 60.8,114.3 
			62.1,115.3 		"/>
		<polygon fill="#98C6FF" points="200,36.7 200.4,38.2 201.6,37.3 201.1,38.7 202.7,38.7 201.4,39.6 202.7,40.3 201.1,40.3 
			201.6,41.8 200.4,40.8 200,42.3 199.5,40.8 198.3,41.8 198.8,40.3 197.3,40.3 198.6,39.6 197.3,38.7 198.8,38.7 198.3,37.3 
			199.5,38.2 		"/>
		<polygon fill="#98C6FF" points="278.4,57.4 278.8,58.9 280,58 279.5,59.4 281,59.4 279.8,60.3 281,61.1 279.5,61.1 280,62.5 
			278.8,61.6 278.4,63.1 277.9,61.6 276.7,62.5 277.2,61.1 275.7,61.1 277,60.3 275.7,59.4 277.2,59.4 276.7,58 277.9,58.9 		"/>
		<polygon fill="#98C6FF" points="39.5,193.2 40,194.7 41.2,193.7 40.7,195.2 42.2,195.2 40.9,196 42.2,196.9 40.7,196.9 
			41.2,198.3 40,197.4 39.5,198.8 39.1,197.4 37.9,198.3 38.4,196.9 36.8,196.9 38.1,196 36.8,195.2 38.4,195.2 37.9,193.7 
			39.1,194.7 		"/>
		<polygon fill="#98C6FF" points="359.5,193.2 360,194.7 361.1,193.7 360.6,195.2 362.1,195.1 361,196 362.1,196.9 360.6,196.8 
			361.1,198.3 360,197.4 359.5,198.8 359,197.4 357.9,198.3 358.4,196.8 356.9,196.9 358,196 356.9,195.1 358.4,195.2 357.9,193.7 
			359,194.7 		"/>
		<polygon fill="#98C6FF" points="281.4,334.3 281.9,335.8 283.1,334.8 282.6,336.3 284.1,336.2 282.9,337.1 284.1,338 282.6,337.9 
			283.1,339.4 281.9,338.5 281.4,339.9 281,338.5 279.8,339.4 280.3,337.9 278.8,338 280,337.1 278.8,336.2 280.3,336.3 
			279.8,334.8 281,335.8 		"/>
		<polygon fill="#98C6FF" points="336.8,114.2 337.2,115.7 338.5,114.7 337.9,116.2 339.5,116.1 338.2,117 339.5,117.9 337.9,117.8 
			338.5,119.3 337.2,118.4 336.8,119.8 336.4,118.4 335.2,119.3 335.7,117.8 334.1,117.9 335.4,117 334.1,116.1 335.7,116.2 
			335.2,114.7 336.4,115.7 		"/>
		<polygon fill="#98C6FF" points="118.4,334.6 118.8,336.1 120.1,335.1 119.5,336.6 121.1,336.5 119.8,337.4 121.1,338.3 
			119.5,338.2 120.1,339.7 118.8,338.8 118.4,340.2 118,338.8 116.8,339.7 117.3,338.2 115.7,338.3 117,337.4 115.7,336.5 
			117.3,336.6 116.8,335.1 118,336.1 		"/>
		<polygon fill="#98C6FF" points="339.7,273.8 340.1,275.3 341.4,274.3 340.8,275.8 342.4,275.7 341.1,276.6 342.4,277.5 
			340.8,277.4 341.4,278.9 340.1,278 339.7,279.4 339.3,278 338.1,278.9 338.6,277.4 337,277.5 338.3,276.6 337,275.7 338.6,275.8 
			338.1,274.3 339.3,275.3 		"/>
	</g>
	<g id="Border_Stars_Inner">
		<polygon fill="#98C6FF" points="159.5,339.3 160.3,340.7 161.3,339.4 161.1,341 162.6,340.5 161.6,341.7 163.1,342.2 161.5,342.5 
			162.5,343.8 161,343.3 161,344.7 160.2,343.5 159.3,344.7 159.4,343.1 157.9,343.6 158.9,342.4 157.4,341.9 159,341.5 
			158.1,340.2 159.5,340.9 		"/>
		<polygon fill="#98C6FF" points="92.2,299.4 93.1,300.7 94,299.4 93.9,301 95.3,300.5 94.4,301.7 95.8,302.3 94.3,302.5 
			95.2,303.9 93.8,303.3 93.7,304.8 92.9,303.5 92,304.7 92.1,303.1 90.7,303.6 91.6,302.4 90.2,301.9 91.7,301.6 90.8,300.3 
			92.2,300.9 		"/>
		<polygon fill="#98C6FF" points="55,231.7 55.7,233 56.8,231.8 56.5,233.3 58.1,232.9 57,234 58.5,234.5 57,234.9 57.9,236.1 
			56.4,235.6 56.4,237.2 55.7,235.8 54.7,237 54.9,235.5 53.3,235.9 54.3,234.7 52.9,234.3 54.4,233.9 53.6,232.6 55,233.2 		"/>
		<polygon fill="#98C6FF" points="301.6,90.1 302.4,91.4 303.4,90.1 303.2,91.7 304.7,91.2 303.7,92.4 305.2,92.9 303.6,93.3 
			304.5,94.6 303.1,94 303,95.5 302.3,94.2 301.4,95.4 301.5,93.8 299.9,94.3 301,93.1 299.5,92.6 301,92.3 300.2,91 301.6,91.6 		
			"/>
		<polygon fill="#98C6FF" points="340.8,155.1 341.5,156.5 342.4,155.2 342.3,156.8 343.9,156.3 342.8,157.5 344.3,158 342.8,158.3 
			343.6,159.6 342.2,159 342.2,160.5 341.4,159.2 340.4,160.5 340.6,158.9 339.1,159.4 340.1,158.2 338.6,157.7 340.2,157.3 
			339.2,156 340.8,156.7 		"/>
		<polygon fill="#98C6FF" points="56.7,155.3 57.5,156.7 58.5,155.4 58.3,157 59.8,156.4 58.8,157.7 60.3,158.2 58.7,158.5 
			59.7,159.8 58.2,159.3 58.2,160.7 57.4,159.5 56.5,160.6 56.6,159.1 55.1,159.6 56.1,158.4 54.6,157.8 56.2,157.5 55.3,156.2 
			56.7,156.9 		"/>
		<polygon fill="#98C6FF" points="95.6,90.5 96.4,91.8 97.4,90.6 97.2,92.1 98.7,91.7 97.7,92.9 99.1,93.4 97.7,93.7 98.5,95 
			97.1,94.4 97,96 96.3,94.6 95.3,95.8 95.5,94.3 94,94.7 95,93.6 93.6,93.1 95,92.7 94.2,91.5 95.6,92 		"/>
		<polygon fill="#98C6FF" points="237.5,339.4 238.3,340.7 239.3,339.4 239.1,341 240.6,340.5 239.6,341.7 241.1,342.2 239.5,342.6 
			240.5,343.9 239,343.2 239,344.8 238.2,343.4 237.2,344.7 237.4,343.1 235.9,343.6 236.9,342.4 235.4,341.9 237,341.6 236,340.3 
			237.5,340.9 		"/>
		<polygon fill="#98C6FF" points="305,299.9 305.8,301.2 306.7,299.9 306.6,301.5 308.1,301 307.1,302.2 308.6,302.8 307,303.1 
			307.9,304.4 306.5,303.8 306.4,305.3 305.7,304 304.7,305.2 304.9,303.6 303.3,304.1 304.4,302.9 302.9,302.4 304.4,302.1 
			303.5,300.8 305,301.4 		"/>
		<polygon fill="#98C6FF" points="235.9,53.3 236.7,54.6 237.7,53.3 237.5,54.9 239,54.4 238,55.6 239.5,56.2 237.9,56.5 
			238.9,57.8 237.4,57.3 237.3,58.7 236.6,57.5 235.7,58.6 235.8,57.1 234.2,57.6 235.3,56.4 233.8,55.8 235.3,55.5 234.5,54.2 
			235.9,54.9 		"/>
		<polygon fill="#98C6FF" points="161,53.7 161.8,55 162.8,53.7 162.6,55.3 164.1,54.8 163.1,56 164.5,56.6 163,56.9 163.9,58.2 
			162.5,57.6 162.4,59.1 161.7,57.9 160.8,59 160.9,57.5 159.3,58 160.4,56.8 158.9,56.2 160.4,55.9 159.6,54.6 161,55.2 		"/>
		<polygon fill="#98C6FF" points="342.7,231.9 343.5,233.3 344.5,232 344.3,233.6 345.8,233.1 344.8,234.3 346.3,234.8 344.7,235.1 
			345.7,236.4 344.2,235.9 344.2,237.4 343.4,236.1 342.5,237.3 342.6,235.7 341.1,236.2 342.1,235 340.6,234.5 342.2,234.2 
			341.3,232.8 342.7,233.5 		"/>
	</g>
	<g id="Border_Stars_Ad">
	</g>
	<polygon display="none" fill="none" stroke="#98C6FF" stroke-miterlimit="10" points="62.5,116.7 121.6,59.7 200,39.5 278.4,60.3 
		336.7,117 359.5,196 339.7,276.7 281.5,337.1 200,359.6 118.4,337.4 59.5,277.1 39.5,196 	"/>
	<polygon fill="none" stroke="#98C6FF" stroke-miterlimit="10" points="200,39.5 236.6,56 278.4,60.2 302.3,92.8 336.8,117 
		341.5,157.7 359.5,196 343.4,234.7 339.7,276.6 305.7,302.6 281.5,337.1 238.3,342.1 200,359.5 160.3,342 118.4,337.4 93,302.1 
		59.5,277.1 55.7,234.4 39.5,196 57.4,158 62.5,116.6 96.4,93.2 121.3,59.7 161.7,56.4 	"/>
</g>
</svg>
