<?xml version="1.0" encoding="utf-8"?>
<!-- Generator: Adobe Illustrator 21.1.0, SVG Export Plug-In . SVG Version: 6.00 Build 0)  -->
<svg version="1.1" id="ESL_Icon" xmlns="http://www.w3.org/2000/svg" xmlns:xlink="http://www.w3.org/1999/xlink" x="0px" y="0px"
	 viewBox="0 0 400 400" enable-background="new 0 0 400 400" xml:space="preserve">
<rect id="Background" x="0" display="none" fill="#131A2E" stroke="#000000" stroke-miterlimit="10" width="400" height="400"/>
<g id="Shild">
	<g id="Shield_Original">
		<path id="Shield_main" fill="none" stroke="#C6361A" stroke-miterlimit="10" d="M200,292c-0.3,0-0.6,0-0.9-0.1
			c-0.7-0.2-73.1-17-73.1-96.9v-56.3c0-1.8,1.1-3.5,2.8-4.1l69.6-26.3c1-0.4,2.1-0.4,3.1,0l69.6,26.3c1.7,0.6,2.8,2.3,2.8,4.1V195
			c0,79.9-72.3,96.8-73.1,96.9C200.6,292,200.3,292,200,292L200,292z"/>
		<path id="Shield-right" fill="none" stroke="#FF5D24" stroke-miterlimit="10" d="M200,108v184c0.3,0,0.6,0,0.9-0.1
			c0.7-0.2,73.1-17,73.1-96.9v-56.3c0-1.8-1.1-3.5-2.8-4.1l-69.6-26.3C201,108.1,200.5,108,200,108L200,108z"/>
	</g>
	<g id="Shield_Skeleton">
		<polyline fill="none" stroke="#C6361A" stroke-miterlimit="10" points="126,136 200,152.4 126,188.6 200,198.2 131.1,229.2 
			199.9,252.8 160.7,272.1 		"/>
		<polyline fill="none" stroke="#FF5D24" stroke-miterlimit="10" points="273,136 200,152.4 274,188.7 200,198.2 268.7,229.3 
			199.9,252.8 238.8,272.3 		"/>
	</g>
	<g id="Shield_Stars">
		<polygon fill="#FF5D24" points="126.7,133.6 127.1,135.1 128.3,134.2 127.8,135.6 129.3,135.6 128.1,136.4 129.3,137.3 
			127.8,137.3 128.3,138.7 127.1,137.8 126.7,139.3 126.2,137.8 125,138.7 125.5,137.3 124,137.3 125.3,136.4 124,135.6 
			125.5,135.6 125,134.2 126.2,135.1 		"/>
		<polygon fill="#FF5D24" points="125.9,185.7 126.3,187.1 127.5,186.2 127,187.7 128.6,187.6 127.3,188.5 128.6,189.4 127,189.3 
			127.5,190.8 126.3,189.8 125.9,191.3 125.4,189.8 124.2,190.8 124.7,189.3 123.2,189.4 124.5,188.5 123.2,187.6 124.7,187.7 
			124.2,186.2 125.4,187.1 		"/>
		<polygon fill="#FF5D24" points="200,289.7 200.4,291.2 201.7,290.2 201.1,291.7 202.7,291.6 201.4,292.5 202.7,293.4 201.1,293.3 
			201.7,294.8 200.4,293.9 200,295.3 199.6,293.9 198.3,294.8 198.9,293.3 197.3,293.4 198.6,292.5 197.3,291.6 198.9,291.7 
			198.3,290.2 199.6,291.2 		"/>
		<polygon fill="#FF5D24" points="131.6,226.5 132,228 133.2,227 132.7,228.5 134.3,228.4 133,229.3 134.3,230.2 132.7,230.1 
			133.2,231.6 132,230.7 131.6,232.1 131.1,230.7 129.9,231.6 130.4,230.1 128.9,230.2 130.2,229.3 128.9,228.4 130.4,228.5 
			129.9,227 131.1,228 		"/>
		<polygon fill="#FF5D24" points="268.6,226.5 269.1,228 270.3,227.1 269.8,228.5 271.3,228.5 270,229.3 271.3,230.2 269.8,230.2 
			270.3,231.6 269.1,230.7 268.6,232.2 268.2,230.7 267,231.6 267.5,230.2 265.9,230.2 267.2,229.3 265.9,228.5 267.5,228.5 
			267,227.1 268.2,228 		"/>
		<polygon fill="#FF5D24" points="274,185.7 274.4,187.1 275.7,186.2 275.1,187.7 276.7,187.6 275.4,188.5 276.7,189.4 275.1,189.3 
			275.7,190.8 274.4,189.8 274,191.3 273.6,189.8 272.3,190.8 272.9,189.3 271.3,189.4 272.6,188.5 271.3,187.6 272.9,187.7 
			272.3,186.2 273.6,187.1 		"/>
		<polygon fill="#FF5D24" points="273.9,133.6 274.3,135.1 275.6,134.2 275,135.6 276.6,135.6 275.3,136.4 276.6,137.3 275,137.3 
			275.6,138.7 274.3,137.8 273.9,139.3 273.5,137.8 272.2,138.7 272.8,137.3 271.2,137.3 272.5,136.4 271.2,135.6 272.8,135.6 
			272.2,134.2 273.5,135.1 		"/>
		<polygon fill="#FF5D24" points="200,149.5 200.4,151 201.7,150.1 201.1,151.5 202.7,151.5 201.4,152.3 202.7,153.2 201.1,153.2 
			201.7,154.6 200.4,153.7 200,155.2 199.6,153.7 198.3,154.6 198.9,153.2 197.3,153.2 198.6,152.3 197.3,151.5 198.9,151.5 
			198.3,150.1 199.6,151 		"/>
		<polygon fill="#FF5D24" points="199.8,105.1 200.3,106.6 201.5,105.7 201,107.1 202.5,107.1 201.2,107.9 202.5,108.8 201,108.8 
			201.5,110.2 200.3,109.3 199.8,110.8 199.4,109.3 198.2,110.2 198.7,108.8 197.2,108.8 198.4,107.9 197.2,107.1 198.7,107.1 
			198.2,105.7 199.4,106.6 		"/>
		<polygon fill="#FF5D24" points="200,195.4 200.4,196.8 201.7,195.9 201.1,197.3 202.7,197.3 201.4,198.2 202.7,199 201.1,199 
			201.7,200.5 200.4,199.5 200,201 199.6,199.5 198.3,200.5 198.9,199 197.3,199 198.6,198.2 197.3,197.3 198.9,197.3 198.3,195.9 
			199.6,196.8 		"/>
		<polygon fill="#FF5D24" points="200,250 200.4,251.5 201.7,250.6 201.1,252 202.7,252 201.4,252.8 202.7,253.7 201.1,253.7 
			201.7,255.1 200.4,254.2 200,255.7 199.6,254.2 198.3,255.1 198.9,253.7 197.3,253.7 198.6,252.8 197.3,252 198.9,252 
			198.3,250.6 199.6,251.5 		"/>
		<polygon fill="#FF5D24" points="238.8,269.5 239.2,270.9 240.5,270 240,271.5 241.5,271.4 240.2,272.3 241.5,273.2 240,273.1 
			240.5,274.6 239.2,273.6 238.8,275.1 238.4,273.6 237.2,274.6 237.7,273.1 236.1,273.2 237.4,272.3 236.1,271.4 237.7,271.5 
			237.2,270 238.4,270.9 		"/>
		<polygon fill="#FF5D24" points="160.7,269.5 161.1,270.9 162.3,270 161.8,271.5 163.4,271.4 162.1,272.3 163.4,273.2 161.8,273.1 
			162.3,274.6 161.1,273.6 160.7,275.1 160.2,273.6 159,274.6 159.5,273.1 158,273.2 159.3,272.3 158,271.4 159.5,271.5 159,270 
			160.2,270.9 		"/>
	</g>
</g>
<g id="Wrenches">
	<g id="Wrench_Left">
		<path id="Wrench_Original_Left" fill="none" stroke="#FFFFFF" stroke-miterlimit="10" d="M207.7,207.3l-15.8,15.8l-23.2-6.2
			l-6.2-23.2l15.8-15.8c-9-0.7-18.2,2.4-25.1,9.3c-9.5,9.5-11.8,23.5-6.8,35.1L108.6,260c-4.7,4.7-4.7,12.3,0,17s12.3,4.7,17,0
			l37.7-37.7c11.6,4.9,25.6,2.7,35.1-6.8C205.3,225.6,208.4,216.3,207.7,207.3z"/>
		<g id="Wrench_Skeleton_Left" display="none">
			<polyline display="inline" fill="none" stroke="#FFFFFF" stroke-miterlimit="10" points="109.1,277.5 146.4,222.3 163.3,239.3 
				109.1,277.5 			"/>
			<polyline display="inline" fill="none" stroke="#FFFFFF" stroke-miterlimit="10" points="149,191.5 146.1,221.7 163,193.6 
				146.1,221.7 168.7,216.9 163.3,239.3 191.9,223.1 163.3,239.3 191.9,237.7 			"/>
		</g>
		<g id="Wrench_Stars_Left">
			<polygon fill="#FFFFFF" points="162.6,190.8 163,192.2 164.2,191.3 163.7,192.8 165.3,192.7 164,193.6 165.3,194.5 163.7,194.4 
				164.2,195.9 163,194.9 162.6,196.4 162.2,194.9 160.9,195.9 161.5,194.4 159.9,194.5 161.2,193.6 159.9,192.7 161.5,192.8 
				160.9,191.3 162.2,192.2 			"/>
			<polygon fill="#FFFFFF" points="178.6,174.9 179,176.4 180.2,175.4 179.7,176.9 181.3,176.8 180,177.7 181.3,178.6 179.7,178.5 
				180.2,180 179,179 178.6,180.5 178.2,179 176.9,180 177.5,178.5 175.9,178.6 177.2,177.7 175.9,176.8 177.5,176.9 176.9,175.4 
				178.2,176.4 			"/>
			<polygon fill="#FFFFFF" points="168.7,213.9 169.2,215.4 170.4,214.4 169.9,215.9 171.4,215.8 170.1,216.7 171.4,217.6 
				169.9,217.5 170.4,219 169.2,218 168.7,219.5 168.3,218 167.1,219 167.6,217.5 166,217.6 167.3,216.7 166,215.8 167.6,215.9 
				167.1,214.4 168.3,215.4 			"/>
			<polygon fill="#FFFFFF" points="192.2,220.1 192.7,221.6 193.9,220.7 193.4,222.1 194.9,222.1 193.6,223 194.9,223.8 
				193.4,223.8 193.9,225.2 192.7,224.3 192.2,225.8 191.8,224.3 190.6,225.2 191.1,223.8 189.5,223.8 190.8,223 189.5,222.1 
				191.1,222.1 190.6,220.7 191.8,221.6 			"/>
			<polygon fill="#FFFFFF" points="207.8,204.3 208.2,205.7 209.5,204.8 208.9,206.3 210.5,206.2 209.2,207.1 210.5,208 
				208.9,207.9 209.5,209.4 208.2,208.4 207.8,209.9 207.4,208.4 206.1,209.4 206.7,207.9 205.1,208 206.4,207.1 205.1,206.2 
				206.7,206.3 206.1,204.8 207.4,205.7 			"/>
			<polygon display="none" fill="#FFFFFF" points="123.3,276.1 123.8,277.6 125,276.7 124.5,278.1 126,278.1 124.7,279 126,279.8 
				124.5,279.8 125,281.2 123.8,280.3 123.3,281.8 122.9,280.3 121.7,281.2 122.2,279.8 120.6,279.8 121.9,279 120.6,278.1 
				122.2,278.1 121.7,276.7 122.9,277.6 			"/>
			<polygon fill="#FFFFFF" points="146.3,218.9 146.8,220.4 148,219.4 147.5,220.9 149,220.8 147.8,221.7 149,222.6 147.5,222.5 
				148,224 146.8,223 146.3,224.5 145.9,223 144.7,224 145.2,222.5 143.7,222.6 144.9,221.7 143.7,220.8 145.2,220.9 144.7,219.4 
				145.9,220.4 			"/>
			<polygon fill="#FFFFFF" points="163.4,236.1 163.8,237.6 165,236.7 164.5,238.1 166,238.1 164.8,239 166,239.8 164.5,239.8 
				165,241.2 163.8,240.3 163.4,241.8 162.9,240.3 161.7,241.2 162.2,239.8 160.7,239.8 161.9,239 160.7,238.1 162.2,238.1 
				161.7,236.7 162.9,237.6 			"/>
			<polygon fill="#FFFFFF" points="149,188.6 149.5,190.1 150.7,189.2 150.2,190.6 151.7,190.6 150.4,191.5 151.7,192.3 
				150.2,192.3 150.7,193.7 149.5,192.8 149,194.3 148.6,192.8 147.4,193.7 147.9,192.3 146.3,192.3 147.6,191.5 146.3,190.6 
				147.9,190.6 147.4,189.2 148.6,190.1 			"/>
			<polygon fill="#FFFFFF" points="192.2,234.9 192.7,236.4 193.9,235.4 193.4,236.9 194.9,236.8 193.6,237.7 194.9,238.6 
				193.4,238.5 193.9,240 192.7,239 192.2,240.5 191.8,239 190.6,240 191.1,238.5 189.5,238.6 190.8,237.7 189.5,236.8 191.1,236.9 
				190.6,235.4 191.8,236.4 			"/>
			<polygon display="none" fill="#FFFFFF" points="106.7,258.6 107.1,260.1 108.4,259.2 107.8,260.6 109.4,260.6 108.1,261.5 
				109.4,262.3 107.8,262.3 108.4,263.7 107.1,262.8 106.7,264.3 106.3,262.8 105,263.7 105.6,262.3 104,262.3 105.3,261.5 
				104,260.6 105.6,260.6 105,259.2 106.3,260.1 			"/>
			<polygon fill="#FFFFFF" points="109.3,274.5 109.8,276 111,275.1 110.5,276.5 112,276.5 110.7,277.3 112,278.2 110.5,278.2 
				111,279.6 109.8,278.7 109.3,280.2 108.9,278.7 107.7,279.6 108.2,278.2 106.6,278.2 107.9,277.3 106.6,276.5 108.2,276.5 
				107.7,275.1 108.9,276 			"/>
		</g>
	</g>
	<g id="Wrench_Right">
		<path id="Wrenche_Original_Right_2_" fill="none" stroke="#FFFFFF" stroke-miterlimit="10" d="M290.4,120.5
			c-4.7-4.7-12.3-4.7-17,0l-37.7,37.7c-11.6-4.9-25.6-2.7-35.1,6.8c-6.9,6.9-10,16.1-9.3,25.1l15.8-15.8l23.2,6.2l6.2,23.2
			l-15.8,15.8c9,0.7,18.2-2.4,25.1-9.3c9.5-9.5,11.8-23.5,6.8-35.1l37.7-37.7C295.1,132.8,295.1,125.2,290.4,120.5L290.4,120.5z"/>
		<g id="Wrench_Skeleton_Right" display="none">
			<polygon display="inline" fill="none" stroke="#FFFFFF" stroke-miterlimit="10" points="254.1,177 291.5,122.2 237.2,160.1 			
				"/>
			<polyline display="inline" fill="none" stroke="#FFFFFF" stroke-miterlimit="10" points="205.1,164.5 237.3,160.3 208.7,176.4 
				237.3,160.3 232.3,182 254.2,177.7 238.6,205.9 254.2,177.7 250.5,208.7 			"/>
		</g>
		<g id="Wrench_Stars_Right">
			<polygon fill="#FFFFFF" points="191.2,186.6 191.6,188.1 192.9,187.1 192.3,188.6 193.9,188.6 192.6,189.4 193.9,190.3 
				192.3,190.3 192.9,191.7 191.6,190.8 191.2,192.2 190.8,190.8 189.5,191.7 190.1,190.3 188.5,190.3 189.8,189.4 188.5,188.6 
				190.1,188.6 189.5,187.1 190.8,188.1 			"/>
			<polygon fill="#FFFFFF" points="237,201 237.4,202.4 238.6,201.5 238.1,202.9 239.7,202.9 238.4,203.8 239.7,204.6 238.1,204.6 
				238.6,206.1 237.4,205.1 237,206.6 236.6,205.1 235.3,206.1 235.9,204.6 234.3,204.6 235.6,203.8 234.3,202.9 235.9,202.9 
				235.3,201.5 236.6,202.4 			"/>
			<polygon fill="#FFFFFF" points="236.1,154.9 236.5,156.4 237.8,155.5 237.2,156.9 238.8,156.9 237.5,157.7 238.8,158.6 
				237.2,158.6 237.8,160 236.5,159.1 236.1,160.6 235.7,159.1 234.4,160 235,158.6 233.4,158.6 234.7,157.7 233.4,156.9 235,156.9 
				234.4,155.5 235.7,156.4 			"/>
			<polygon fill="#FFFFFF" points="207.1,171.4 207.5,172.9 208.8,172 208.2,173.4 209.8,173.4 208.5,174.2 209.8,175.1 
				208.2,175.1 208.8,176.5 207.5,175.6 207.1,177.1 206.7,175.6 205.4,176.5 206,175.1 204.4,175.1 205.7,174.2 204.4,173.4 
				206,173.4 205.4,172 206.7,172.9 			"/>
			<polygon fill="#FFFFFF" points="203.5,159 204,160.5 205.2,159.6 204.7,161 206.2,161 204.9,161.9 206.2,162.7 204.7,162.7 
				205.2,164.2 204,163.2 203.5,164.7 203.1,163.2 201.9,164.2 202.4,162.7 200.8,162.7 202.1,161.9 200.8,161 202.4,161 
				201.9,159.6 203.1,160.5 			"/>
			<polygon fill="#FFFFFF" points="249,203.8 249.4,205.3 250.6,204.3 250.1,205.8 251.7,205.7 250.4,206.6 251.7,207.5 
				250.1,207.4 250.6,208.9 249.4,207.9 249,209.4 248.6,207.9 247.3,208.9 247.9,207.4 246.3,207.5 247.6,206.6 246.3,205.7 
				247.9,205.8 247.3,204.3 248.6,205.3 			"/>
			<polygon fill="#FFFFFF" points="230.7,177.1 231.2,178.5 232.4,177.6 231.9,179 233.4,179 232.1,179.9 233.4,180.7 231.9,180.7 
				232.4,182.2 231.2,181.2 230.7,182.7 230.3,181.2 229.1,182.2 229.6,180.7 228,180.7 229.3,179.9 228,179 229.6,179 229.1,177.6 
				230.3,178.5 			"/>
			<polygon fill="#FFFFFF" points="219.5,216.8 219.9,218.3 221.1,217.3 220.6,218.8 222.2,218.7 220.9,219.6 222.2,220.5 
				220.6,220.4 221.1,221.9 219.9,220.9 219.5,222.4 219.1,220.9 217.8,221.9 218.4,220.4 216.8,220.5 218.1,219.6 216.8,218.7 
				218.4,218.8 217.8,217.3 219.1,218.3 			"/>
			<polygon fill="#FFFFFF" points="252.6,172.8 253,174.3 254.3,173.3 253.7,174.8 255.3,174.7 254,175.6 255.3,176.5 253.7,176.4 
				254.3,177.9 253,176.9 252.6,178.4 252.2,176.9 250.9,177.9 251.5,176.4 249.9,176.5 251.2,175.6 249.9,174.7 251.5,174.8 
				250.9,173.3 252.2,174.3 			"/>
			<polygon display="none" fill="#FFFFFF" points="293.4,131 293.8,132.5 295,131.5 294.5,133 296,132.9 294.8,133.8 296,134.7 
				294.5,134.6 295,136.1 293.8,135.2 293.4,136.6 292.9,135.2 291.7,136.1 292.2,134.6 290.7,134.7 292,133.8 290.7,132.9 
				292.2,133 291.7,131.5 292.9,132.5 			"/>
			<polygon display="none" fill="#FFFFFF" points="275,116.1 275.4,117.6 276.6,116.7 276.1,118.1 277.7,118.1 276.4,118.9 
				277.7,119.8 276.1,119.8 276.6,121.2 275.4,120.3 275,121.8 274.5,120.3 273.3,121.2 273.8,119.8 272.3,119.8 273.6,118.9 
				272.3,118.1 273.8,118.1 273.3,116.7 274.5,117.6 			"/>
			<polygon fill="#FFFFFF" points="290.3,116.9 290.7,118.4 291.9,117.4 291.4,118.9 293,118.8 291.7,119.7 293,120.6 291.4,120.5 
				291.9,122 290.7,121 290.3,122.5 289.8,121 288.6,122 289.1,120.5 287.6,120.6 288.9,119.7 287.6,118.8 289.1,118.9 288.6,117.4 
				289.8,118.4 			"/>
		</g>
	</g>
</g>
<g id="Border">
	<path id="Border_Original" fill="none" stroke="#98C6FF" stroke-miterlimit="10" d="M199.5,39.5c-88.4,0-160,71.6-160,160
		s71.6,160,160,160s160-71.6,160-160S287.9,39.5,199.5,39.5z M199.5,347.5c-81.7,0-148-66.3-148-148s66.3-148,148-148
		s148,66.3,148,148S281.2,347.5,199.5,347.5z"/>
	<g id="Border_Stars">
		<polygon fill="#98C6FF" points="47.5,247.2 48,248.7 49.2,247.7 48.7,249.2 50.2,249.1 49,250 50.2,250.9 48.7,250.8 49.2,252.3 
			48,251.4 47.5,252.8 47.1,251.4 45.9,252.3 46.4,250.8 44.9,250.9 46.1,250 44.9,249.1 46.4,249.2 45.9,247.7 47.1,248.7 		"/>
		<polygon fill="#98C6FF" points="128.7,340.9 129.1,342.3 130.3,341.4 129.8,342.8 131.4,342.8 130.1,343.7 131.4,344.5 
			129.8,344.5 130.3,346 129.1,345 128.7,346.5 128.2,345 127,346 127.5,344.5 126,344.5 127.3,343.7 126,342.8 127.5,342.8 
			127,341.4 128.2,342.3 		"/>
		<polygon fill="#98C6FF" points="199.6,344.5 200,346 201.2,345.1 200.7,346.5 202.3,346.5 201,347.3 202.3,348.2 200.7,348.2 
			201.2,349.6 200,348.7 199.6,350.2 199.1,348.7 197.9,349.6 198.4,348.2 196.9,348.2 198.2,347.3 196.9,346.5 198.4,346.5 
			197.9,345.1 199.1,346 		"/>
		<polygon fill="#98C6FF" points="51.7,191.5 52.1,193 53.4,192.1 52.8,193.5 54.4,193.5 53.1,194.3 54.4,195.2 52.8,195.2 
			53.4,196.6 52.1,195.7 51.7,197.2 51.3,195.7 50.1,196.6 50.6,195.2 49,195.2 50.3,194.3 49,193.5 50.6,193.5 50.1,192.1 
			51.3,193 		"/>
		<polygon fill="#98C6FF" points="347.9,193.6 348.3,195.1 349.5,194.1 349,195.6 350.6,195.5 349.3,196.4 350.6,197.3 349,197.2 
			349.5,198.7 348.3,197.7 347.9,199.2 347.5,197.7 346.2,198.7 346.8,197.2 345.2,197.3 346.5,196.4 345.2,195.5 346.8,195.6 
			346.2,194.1 347.5,195.1 		"/>
		<polygon fill="#98C6FF" points="199.8,48.2 200.3,49.7 201.5,48.7 201,50.2 202.5,50.1 201.2,51 202.5,51.9 201,51.8 201.5,53.3 
			200.3,52.4 199.8,53.8 199.4,52.4 198.2,53.3 198.7,51.8 197.2,51.9 198.4,51 197.2,50.1 198.7,50.2 198.2,48.7 199.4,49.7 		"/>
		<polygon fill="#98C6FF" points="314.4,289.7 314.8,291.2 316,290.2 315.5,291.7 317.1,291.6 315.8,292.5 317.1,293.4 315.5,293.3 
			316,294.8 314.8,293.9 314.4,295.3 314,293.9 312.7,294.8 313.3,293.3 311.7,293.4 313,292.5 311.7,291.6 313.3,291.7 
			312.7,290.2 314,291.2 		"/>
		<polygon fill="#98C6FF" points="84.9,289.7 85.3,291.2 86.5,290.2 86,291.7 87.6,291.6 86.3,292.5 87.6,293.4 86,293.3 
			86.5,294.8 85.3,293.9 84.9,295.3 84.5,293.9 83.2,294.8 83.8,293.3 82.2,293.4 83.5,292.5 82.2,291.6 83.8,291.7 83.2,290.2 
			84.5,291.2 		"/>
		<polygon fill="#98C6FF" points="276.6,55.8 277,57.3 278.2,56.4 277.7,57.8 279.3,57.8 278,58.7 279.3,59.5 277.7,59.5 
			278.2,60.9 277,60 276.6,61.5 276.1,60 274.9,60.9 275.4,59.5 273.9,59.5 275.2,58.7 273.9,57.8 275.4,57.8 274.9,56.4 
			276.1,57.3 		"/>
		<polygon fill="#98C6FF" points="322.1,113.4 322.5,114.9 323.7,114 323.2,115.4 324.7,115.4 323.5,116.3 324.7,117.1 323.2,117.1 
			323.7,118.5 322.5,117.6 322.1,119.1 321.6,117.6 320.4,118.5 320.9,117.1 319.4,117.1 320.7,116.3 319.4,115.4 320.9,115.4 
			320.4,114 321.6,114.9 		"/>
		<polygon fill="#98C6FF" points="85.2,102.3 85.6,103.8 86.9,102.8 86.3,104.3 87.9,104.2 86.6,105.1 87.9,106 86.3,105.9 
			86.9,107.4 85.6,106.5 85.2,107.9 84.8,106.5 83.6,107.4 84.1,105.9 82.5,106 83.8,105.1 82.5,104.2 84.1,104.3 83.6,102.8 
			84.8,103.8 		"/>
		<polygon fill="#98C6FF" points="49,142 49.5,143.5 50.7,142.5 50.2,144 51.7,144 50.4,144.8 51.7,145.7 50.2,145.7 50.7,147.1 
			49.5,146.2 49,147.6 48.6,146.2 47.4,147.1 47.9,145.7 46.3,145.7 47.6,144.8 46.3,144 47.9,144 47.4,142.5 48.6,143.5 		"/>
		<polygon fill="#98C6FF" points="127.7,53.5 128.2,55 129.4,54.1 128.9,55.5 130.4,55.5 129.1,56.4 130.4,57.2 128.9,57.2 
			129.4,58.6 128.2,57.7 127.7,59.2 127.3,57.7 126.1,58.6 126.6,57.2 125.1,57.2 126.3,56.4 125.1,55.5 126.6,55.5 126.1,54.1 
			127.3,55 		"/>
		<polygon fill="#98C6FF" points="352.3,149 352.7,150.5 353.9,149.5 353.4,151 354.9,150.9 353.7,151.8 354.9,152.7 353.4,152.6 
			353.9,154.1 352.7,153.2 352.3,154.6 351.8,153.2 350.6,154.1 351.1,152.6 349.6,152.7 350.8,151.8 349.6,150.9 351.1,151 
			350.6,149.5 351.8,150.5 		"/>
		<polygon fill="#98C6FF" points="351.5,247.2 352,248.7 353.2,247.7 352.7,249.2 354.2,249.1 353,250 354.2,250.9 352.7,250.8 
			353.2,252.3 352,251.4 351.5,252.8 351.1,251.4 349.9,252.3 350.4,250.8 348.9,250.9 350.1,250 348.9,249.1 350.4,249.2 
			349.9,247.7 351.1,248.7 		"/>
		<polygon fill="#98C6FF" points="269,340.7 269.4,342.2 270.7,341.2 270.1,342.7 271.7,342.6 270.4,343.5 271.7,344.4 270.1,344.3 
			270.7,345.8 269.4,344.8 269,346.3 268.6,344.8 267.3,345.8 267.9,344.3 266.3,344.4 267.6,343.5 266.3,342.6 267.9,342.7 
			267.3,341.2 268.6,342.2 		"/>
	</g>
</g>
</svg>
