<?xml version="1.0" encoding="utf-8"?>
<!-- Generator: Adobe Illustrator 21.1.0, SVG Export Plug-In . SVG Version: 6.00 Build 0)  -->
<svg version="1.1" xmlns="http://www.w3.org/2000/svg" xmlns:xlink="http://www.w3.org/1999/xlink" x="0px" y="0px"
	 viewBox="0 0 400 400" style="enable-background:new 0 0 400 400;" xml:space="preserve">
<g id="Слой_2" style="display:none;">
	<rect style="display:inline;stroke:#000000;stroke-miterlimit:10;" width="400" height="400"/>
</g>
<g id="Слой_1">
	<g>
		<path style="fill:none;stroke:#C6361A;stroke-width:2;stroke-miterlimit:10;" d="M200,292c-0.3,0-0.6,0-0.9-0.1
			c-0.7-0.2-73.1-17-73.1-96.9v-56.3c0-1.8,1.1-3.5,2.8-4.1l69.6-26.3c1-0.4,2.1-0.4,3.1,0l69.6,26.3c1.7,0.6,2.8,2.3,2.8,4.1V195
			c0,79.9-72.3,96.8-73.1,96.9C200.6,292,200.3,292,200,292L200,292z"/>
		<path style="fill:none;stroke:#FF5D24;stroke-width:2;stroke-miterlimit:10;" d="M200,108v184c0.3,0,0.6,0,0.9-0.1
			c0.7-0.2,73.1-17,73.1-96.9v-56.3c0-1.8-1.1-3.5-2.8-4.1l-69.6-26.3C201,108.1,200.5,108,200,108L200,108z"/>
	</g>
	<g>
		<path style="fill:none;stroke:#FFFFFF;stroke-width:2;stroke-miterlimit:10;" d="M207.7,207.3l-15.8,15.8l-23.2-6.2l-6.2-23.2
			l15.8-15.8c-9-0.7-18.2,2.4-25.1,9.3c-9.5,9.5-11.8,23.5-6.8,35.1L108.6,260c-4.7,4.7-4.7,12.3,0,17s12.3,4.7,17,0l37.7-37.7
			c11.6,4.9,25.6,2.7,35.1-6.8C205.3,225.6,208.4,216.3,207.7,207.3z"/>
		<path style="fill:none;stroke:#FFFFFF;stroke-width:2;stroke-miterlimit:10;" d="M292,122.6c-4.7-4.7-12.3-4.7-17,0l-37.7,37.7
			c-11.6-4.9-25.6-2.7-35.1,6.8c-6.9,6.9-10,16.1-9.3,25.1l15.8-15.8l23.2,6.2l6.2,23.2l-15.8,15.8c9,0.7,18.2-2.4,25.1-9.3
			c9.5-9.5,11.8-23.5,6.8-35.1l37.7-37.7C296.7,134.9,296.7,127.3,292,122.6L292,122.6z"/>
	</g>
	<path style="fill:none;stroke:#98C6FF;stroke-width:2;stroke-miterlimit:10;" d="M199.5,39.5c-88.4,0-160,71.6-160,160
		s71.6,160,160,160s160-71.6,160-160S287.9,39.5,199.5,39.5z M199.5,347.5c-81.7,0-148-66.3-148-148s66.3-148,148-148
		s148,66.3,148,148S281.2,347.5,199.5,347.5z"/>
</g>
</svg>
