<svg id="ei7c3BszmJU1" xmlns="http://www.w3.org/2000/svg" xmlns:xlink="http://www.w3.org/1999/xlink" viewBox="0 0 700 400" shape-rendering="geometricPrecision" text-rendering="geometricPrecision">
<style><![CDATA[
#ei7c3BszmJU33_to {animation: ei7c3BszmJU33_to__to 12000ms linear infinite normal forwards}@keyframes ei7c3BszmJU33_to__to { 0% {transform: translate(595.29538px,697.381287px)} 16.666667% {transform: translate(595.29538px,697.381287px);animation-timing-function: cubic-bezier(0.445,0.05,0.55,0.95)} 33.333333% {transform: translate(908.782246px,516.800875px);animation-timing-function: cubic-bezier(0.445,0.05,0.55,0.95)} 66.666667% {transform: translate(908.782246px,516.800875px);animation-timing-function: cubic-bezier(0.445,0.05,0.55,0.95)} 83.333333% {transform: translate(595.29538px,697.381287px)} 100% {transform: translate(595.29538px,697.381287px)}} #ei7c3BszmJU35_to {animation: ei7c3BszmJU35_to__to 12000ms linear infinite normal forwards}@keyframes ei7c3BszmJU35_to__to { 0% {transform: translate(366.234986px,795.616272px)} 16.666667% {transform: translate(366.234986px,795.616272px);animation-timing-function: cubic-bezier(0.445,0.05,0.55,0.95)} 33.333333% {transform: translate(366.234986px,856.88369px);animation-timing-function: cubic-bezier(0.445,0.05,0.55,0.95)} 66.666667% {transform: translate(366.234986px,856.88369px);animation-timing-function: cubic-bezier(0.445,0.05,0.55,0.95)} 83.333333% {transform: translate(366.234986px,795.616272px)} 100% {transform: translate(366.234986px,795.616272px)}} #ei7c3BszmJU39_to {animation: ei7c3BszmJU39_to__to 12000ms linear infinite normal forwards}@keyframes ei7c3BszmJU39_to__to { 0% {transform: translate(595.29538px,697.381287px)} 16.666667% {transform: translate(595.29538px,697.381287px);animation-timing-function: cubic-bezier(0.445,0.05,0.55,0.95)} 33.333333% {transform: translate(908.782246px,516.800875px);animation-timing-function: cubic-bezier(0.445,0.05,0.55,0.95)} 41.666667% {transform: translate(908.782246px,516.800875px);animation-timing-function: cubic-bezier(0.445,0.05,0.55,0.95)} 50% {transform: translate(908.782246px,572.800875px);animation-timing-function: cubic-bezier(0.445,0.05,0.55,0.95)} 58.333333% {transform: translate(908.782246px,516.800875px);animation-timing-function: cubic-bezier(0.445,0.05,0.55,0.95)} 66.666667% {transform: translate(908.782246px,516.800875px);animation-timing-function: cubic-bezier(0.445,0.05,0.55,0.95)} 83.333333% {transform: translate(595.29538px,697.381287px)} 100% {transform: translate(595.29538px,697.381287px)}} #ei7c3BszmJU40_to {animation: ei7c3BszmJU40_to__to 12000ms linear infinite normal forwards}@keyframes ei7c3BszmJU40_to__to { 0% {transform: translate(595.304993px,678.671875px)} 8.333333% {transform: translate(595.304993px,678.671875px);animation-timing-function: cubic-bezier(0.42,0,1,1)} 16.666667% {transform: translate(595.304993px,575.562168px);animation-timing-function: cubic-bezier(0.42,0,0.58,1)} 83.333333% {transform: translate(595.304993px,575.562168px);animation-timing-function: cubic-bezier(0,0,0.58,1)} 91.666667% {transform: translate(595.304993px,678.671875px)} 100% {transform: translate(595.304993px,678.671875px)}} #ei7c3BszmJU41_to {animation: ei7c3BszmJU41_to__to 12000ms linear infinite normal forwards}@keyframes ei7c3BszmJU41_to__to { 0% {transform: translate(595.263123px,640.794373px)} 8.333333% {transform: translate(595.263123px,640.794373px);animation-timing-function: cubic-bezier(0.42,0,1,1)} 16.666667% {transform: translate(595.263123px,537.684665px);animation-timing-function: cubic-bezier(0.42,0,0.58,1)} 83.333333% {transform: translate(595.263123px,537.684665px);animation-timing-function: cubic-bezier(0,0,0.58,1)} 91.666667% {transform: translate(595.263123px,640.794373px)} 100% {transform: translate(595.263123px,640.794373px)}} #ei7c3BszmJU42_to {animation: ei7c3BszmJU42_to__to 12000ms linear infinite normal forwards}@keyframes ei7c3BszmJU42_to__to { 0% {transform: translate(366.234986px,795.616272px)} 16.666667% {transform: translate(366.234986px,795.616272px);animation-timing-function: cubic-bezier(0.445,0.05,0.55,0.95)} 33.333333% {transform: translate(366.234986px,856.88369px);animation-timing-function: cubic-bezier(0.445,0.05,0.55,0.95)} 66.666667% {transform: translate(366.234986px,856.88369px);animation-timing-function: cubic-bezier(0.445,0.05,0.55,0.95)} 83.333333% {transform: translate(366.234986px,795.616272px)} 100% {transform: translate(366.234986px,795.616272px)}} #ei7c3BszmJU45_to {animation: ei7c3BszmJU45_to__to 12000ms linear infinite normal forwards}@keyframes ei7c3BszmJU45_to__to { 0% {offset-distance: 0%;animation-timing-function: cubic-bezier(0.42,0,1,1)} 14% {offset-distance: 14.107885%} 16.333333% {offset-distance: 16.370157%} 21.833333% {offset-distance: 21.829181%} 23.833333% {offset-distance: 23.828749%} 27.666667% {offset-distance: 27.690624%} 29.583333% {offset-distance: 29.549665%} 38.333333% {offset-distance: 38.26417%} 41.75% {offset-distance: 41.660949%} 47.166667% {offset-distance: 47.068187%} 51% {offset-distance: 50.846209%} 57.833333% {offset-distance: 57.681259%} 60% {offset-distance: 59.800367%} 69.75% {offset-distance: 69.510334%} 72% {offset-distance: 71.756854%} 75.916667% {offset-distance: 75.706575%} 78.166667% {offset-distance: 77.883615%} 84.666667% {offset-distance: 84.362248%} 86.833333% {offset-distance: 86.511546%} 97% {offset-distance: 96.683124%} 98.833333% {offset-distance: 98.489102%} 100% {offset-distance: 100%}} #ei7c3BszmJU50_ts {animation: ei7c3BszmJU50_ts__ts 12000ms linear infinite normal forwards}@keyframes ei7c3BszmJU50_ts__ts { 0% {transform: translate(1027.349976px,934.350006px) scale(1,1)} 20% {transform: translate(1027.349976px,934.350006px) scale(1,1)} 24.166667% {transform: translate(1027.349976px,934.350006px) scale(0.898707,0.898707)} 25% {transform: translate(1027.349976px,934.350006px) scale(0.898707,0.898707)} 29.166667% {transform: translate(1027.349976px,934.350006px) scale(1,1)} 70.833333% {transform: translate(1027.349976px,934.350006px) scale(1,1)} 75% {transform: translate(1027.349976px,934.350006px) scale(0.898707,0.898707)} 75.833333% {transform: translate(1027.349976px,934.350006px) scale(0.898707,0.898707)} 80% {transform: translate(1027.349976px,934.350006px) scale(1,1)} 100% {transform: translate(1027.349976px,934.350006px) scale(1,1)}} #ei7c3BszmJU50 {animation: ei7c3BszmJU50_c_o 12000ms linear infinite normal forwards}@keyframes ei7c3BszmJU50_c_o { 0% {opacity: 0} 16.666667% {opacity: 0;animation-timing-function: cubic-bezier(0.42,0,1,1)} 20.833333% {opacity: 0.5;animation-timing-function: cubic-bezier(0,0,0.58,1)} 28.333333% {opacity: 0.5;animation-timing-function: cubic-bezier(0.42,0,1,1)} 32.5% {opacity: 0;animation-timing-function: cubic-bezier(0,0,0.58,1)} 67.5% {opacity: 0;animation-timing-function: cubic-bezier(0.42,0,1,1)} 71.666667% {opacity: 0.5;animation-timing-function: cubic-bezier(0,0,0.58,1)} 79.166667% {opacity: 0.5;animation-timing-function: cubic-bezier(0.42,0,1,1)} 83.333333% {opacity: 0} 100% {opacity: 0}} #ei7c3BszmJU51_to {animation: ei7c3BszmJU51_to__to 12000ms linear infinite normal forwards}@keyframes ei7c3BszmJU51_to__to { 0% {transform: translate(1027.350006px,970.541345px);animation-timing-function: cubic-bezier(0.42,0,0.58,1)} 25% {transform: translate(1027.350006px,772.757609px);animation-timing-function: cubic-bezier(0.42,0,0.58,1)} 50% {transform: translate(1027.350006px,970.541345px);animation-timing-function: cubic-bezier(0.42,0,0.58,1)} 75% {transform: translate(1027.350006px,772.757609px);animation-timing-function: cubic-bezier(0.42,0,0.58,1)} 100% {transform: translate(1027.350006px,970.541345px)}} #ei7c3BszmJU61_to {animation: ei7c3BszmJU61_to__to 12000ms linear infinite normal forwards}@keyframes ei7c3BszmJU61_to__to { 0% {transform: translate(1166.002489px,-67.990439px)} 19.166667% {transform: translate(1166.002489px,-67.990439px);animation-timing-function: cubic-bezier(0.895,0.03,0.685,0.22)} 22.5% {transform: translate(1166.200948px,489.990421px)} 100% {transform: translate(1166.200948px,489.990421px)}} #ei7c3BszmJU61 {animation: ei7c3BszmJU61_c_o 12000ms linear infinite normal forwards}@keyframes ei7c3BszmJU61_c_o { 0% {opacity: 1} 22.5% {opacity: 1;animation-timing-function: step-end} 23.333333% {opacity: 0} 100% {opacity: 0}} #ei7c3BszmJU63_to {animation: ei7c3BszmJU63_to__to 12000ms linear infinite normal forwards}@keyframes ei7c3BszmJU63_to__to { 0% {transform: translate(1166.367065px,287.327729px)} 62.5% {transform: translate(1166.367065px,287.327729px);animation-timing-function: cubic-bezier(0.95,0.05,0.795,0.035)} 87.5% {transform: translate(1166.367066px,694.120147px)} 100% {transform: translate(1166.367066px,694.120147px)}} #ei7c3BszmJU66_ts {animation: ei7c3BszmJU66_ts__ts 12000ms linear infinite normal forwards}@keyframes ei7c3BszmJU66_ts__ts { 0% {transform: translate(1028.078631px,1115.461471px) scale(1,1)} 30% {transform: translate(1028.078631px,1115.461471px) scale(1,1)} 30.833333% {transform: translate(1028.078631px,1115.461471px) scale(0.898707,0.898707)} 31.666667% {transform: translate(1028.078631px,1115.461471px) scale(0.898707,0.898707)} 34.166667% {transform: translate(1028.078631px,1115.461471px) scale(1,1)} 100% {transform: translate(1028.078631px,1115.461471px) scale(1,1)}} #ei7c3BszmJU66 {animation: ei7c3BszmJU66_c_o 12000ms linear infinite normal forwards}@keyframes ei7c3BszmJU66_c_o { 0% {opacity: 0} 26.666667% {opacity: 0;animation-timing-function: cubic-bezier(0.42,0,1,1)} 30.833333% {opacity: 0.5} 100% {opacity: 0.5}} #ei7c3BszmJU67_to {animation: ei7c3BszmJU67_to__to 12000ms linear infinite normal forwards}@keyframes ei7c3BszmJU67_to__to { 0% {offset-distance: 0%} 22.5% {offset-distance: 0%;animation-timing-function: cubic-bezier(0.77,0,0.175,1)} 30.833333% {offset-distance: 68.490187%;animation-timing-function: cubic-bezier(0.77,0,0.175,1)} 31.666667% {offset-distance: 68.554346%;animation-timing-function: cubic-bezier(0.77,0,0.175,1)} 40% {offset-distance: 100%} 100% {offset-distance: 100%}} #ei7c3BszmJU68 {animation: ei7c3BszmJU68_c_o 12000ms linear infinite normal forwards}@keyframes ei7c3BszmJU68_c_o { 0% {opacity: 0} 22.5% {opacity: 0;animation-timing-function: step-end} 23.333333% {opacity: 1} 100% {opacity: 1}} #ei7c3BszmJU69 {animation: ei7c3BszmJU69_c_o 12000ms linear infinite normal forwards}@keyframes ei7c3BszmJU69_c_o { 0% {opacity: 0} 22.5% {opacity: 0;animation-timing-function: step-end} 23.333333% {opacity: 1} 100% {opacity: 1}} #ei7c3BszmJU70 {animation: ei7c3BszmJU70_c_o 12000ms linear infinite normal forwards}@keyframes ei7c3BszmJU70_c_o { 0% {opacity: 0} 22.5% {opacity: 0;animation-timing-function: cubic-bezier(0.42,0,0.58,1)} 23.333333% {opacity: 1} 40% {opacity: 1} 100% {opacity: 1}} #ei7c3BszmJU77_to {animation: ei7c3BszmJU77_to__to 12000ms linear infinite normal forwards}@keyframes ei7c3BszmJU77_to__to { 0% {transform: translate(1642.87498px,41.782837px)} 54.166667% {transform: translate(1642.87498px,41.782837px);animation-timing-function: cubic-bezier(0.895,0.03,0.685,0.22)} 57.5% {transform: translate(1642.87498px,465.990421px)} 100% {transform: translate(1642.87498px,465.990421px)}} #ei7c3BszmJU82_to {animation: ei7c3BszmJU82_to__to 12000ms linear infinite normal forwards}@keyframes ei7c3BszmJU82_to__to { 0% {transform: translate(1642.87498px,41.557345px)} 58.333333% {transform: translate(1642.87498px,41.557345px);animation-timing-function: cubic-bezier(0.895,0.03,0.685,0.22)} 61.666667% {transform: translate(1642.87498px,329.990421px)} 100% {transform: translate(1642.87498px,329.990421px)}} #ei7c3BszmJU83 {animation: ei7c3BszmJU83_c_o 12000ms linear infinite normal forwards}@keyframes ei7c3BszmJU83_c_o { 0% {opacity: 1} 87.5% {opacity: 1;animation-timing-function: step-start} 88.333333% {opacity: 0} 100% {opacity: 0}} #ei7c3BszmJU84 {animation: ei7c3BszmJU84_c_o 12000ms linear infinite normal forwards}@keyframes ei7c3BszmJU84_c_o { 0% {opacity: 1} 87.5% {opacity: 1;animation-timing-function: step-start} 88.333333% {opacity: 0} 100% {opacity: 0}} #ei7c3BszmJU85 {animation: ei7c3BszmJU85_c_o 12000ms linear infinite normal forwards}@keyframes ei7c3BszmJU85_c_o { 0% {opacity: 1} 87.5% {opacity: 1} 88.333333% {opacity: 0} 100% {opacity: 0}} #ei7c3BszmJU90_to {animation: ei7c3BszmJU90_to__to 12000ms linear infinite normal forwards}@keyframes ei7c3BszmJU90_to__to { 0% {transform: translate(1552.91095px,929.650025px);animation-timing-function: cubic-bezier(0.42,0,0.58,1)} 16.666667% {transform: translate(1552.91095px,865.492842px);animation-timing-function: cubic-bezier(0.42,0,0.58,1)} 33.333333% {transform: translate(1552.91095px,929.650025px);animation-timing-function: cubic-bezier(0.42,0,0.58,1)} 50% {transform: translate(1552.91095px,865.492842px);animation-timing-function: cubic-bezier(0.42,0,0.58,1)} 66.666667% {transform: translate(1552.91095px,929.650025px);animation-timing-function: cubic-bezier(0.42,0,0.58,1)} 83.333333% {transform: translate(1552.91095px,865.492842px);animation-timing-function: cubic-bezier(0.42,0,0.58,1)} 100% {transform: translate(1552.91095px,929.650025px)}} #ei7c3BszmJU94_to {animation: ei7c3BszmJU94_to__to 12000ms linear infinite normal forwards}@keyframes ei7c3BszmJU94_to__to { 0% {transform: translate(2123.659254px,358.108233px);animation-timing-function: cubic-bezier(0.42,0,0.58,1)} 50% {transform: translate(1797.405px,546.363005px);animation-timing-function: cubic-bezier(0.42,0,0.58,1)} 100% {transform: translate(2123.659254px,358.108233px)}}
]]></style>
<defs><linearGradient id="ei7c3BszmJU26-fill" x1="992.67" y1="394.54" x2="826.66" y2="394.54" spreadMethod="pad" gradientUnits="userSpaceOnUse" gradientTransform="translate(0 0)"><stop id="ei7c3BszmJU26-fill-0" offset="0%" stop-color="#36b1ff"/><stop id="ei7c3BszmJU26-fill-1" offset="100%" stop-color="#338fe2"/></linearGradient><linearGradient id="ei7c3BszmJU27-fill" x1="975.23" y1="394.48" x2="844.09" y2="318.76" spreadMethod="pad" gradientUnits="userSpaceOnUse" gradientTransform="translate(0 0)"><stop id="ei7c3BszmJU27-fill-0" offset="0%" stop-color="#36cdff"/><stop id="ei7c3BszmJU27-fill-1" offset="100%" stop-color="#40e6f9"/></linearGradient><linearGradient id="ei7c3BszmJU28-fill" x1="180" y1="-180" x2="1620" y2="1260" spreadMethod="pad" gradientUnits="userSpaceOnUse" gradientTransform="translate(0 0)"><stop id="ei7c3BszmJU28-fill-0" offset="0%" stop-color="#452d4a"/><stop id="ei7c3BszmJU28-fill-1" offset="100%" stop-color="#28254f"/></linearGradient><linearGradient id="ei7c3BszmJU36-fill" x1="58.32" y1="944.09" x2="690.75" y2="578.95" spreadMethod="pad" gradientUnits="userSpaceOnUse" gradientTransform="translate(0 0)"><stop id="ei7c3BszmJU36-fill-0" offset="0%" stop-color="#00abb7"/><stop id="ei7c3BszmJU36-fill-1" offset="100%" stop-color="#338fe2"/></linearGradient><linearGradient id="ei7c3BszmJU37-fill" x1="27.21" y1="1010.47" x2="718.11" y2="611.58" spreadMethod="pad" gradientUnits="userSpaceOnUse" gradientTransform="translate(0 0)"><stop id="ei7c3BszmJU37-fill-0" offset="0%" stop-color="#00abb7"/><stop id="ei7c3BszmJU37-fill-1" offset="100%" stop-color="#00c997"/></linearGradient><linearGradient id="ei7c3BszmJU38-fill" x1="28.48" y1="968.6" x2="703.99" y2="578.59" spreadMethod="pad" gradientUnits="userSpaceOnUse" gradientTransform="translate(0 0)"><stop id="ei7c3BszmJU38-fill-0" offset="0%" stop-color="#8ffe0c"/><stop id="ei7c3BszmJU38-fill-1" offset="100%" stop-color="#0ef269"/></linearGradient><linearGradient id="ei7c3BszmJU40-fill" x1="678.28" y1="678.7" x2="512.27" y2="678.7" spreadMethod="pad" gradientUnits="userSpaceOnUse" gradientTransform="translate(0 0)"><stop id="ei7c3BszmJU40-fill-0" offset="0%" stop-color="#36b1ff"/><stop id="ei7c3BszmJU40-fill-1" offset="100%" stop-color="#338fe2"/></linearGradient><linearGradient id="ei7c3BszmJU41-fill" x1="660.84" y1="678.64" x2="529.7" y2="602.93" spreadMethod="pad" gradientUnits="userSpaceOnUse" gradientTransform="translate(0 0)"><stop id="ei7c3BszmJU41-fill-0" offset="0%" stop-color="#36cdff"/><stop id="ei7c3BszmJU41-fill-1" offset="100%" stop-color="#40e6f9"/></linearGradient><linearGradient id="ei7c3BszmJU43-fill" x1="27.21" y1="1010.47" x2="718.11" y2="611.58" spreadMethod="pad" gradientUnits="userSpaceOnUse" gradientTransform="translate(0 0)"><stop id="ei7c3BszmJU43-fill-0" offset="0%" stop-color="#00abb7"/><stop id="ei7c3BszmJU43-fill-1" offset="100%" stop-color="#00c997"/></linearGradient><linearGradient id="ei7c3BszmJU44-fill" x1="28.48" y1="968.6" x2="703.99" y2="578.59" spreadMethod="pad" gradientUnits="userSpaceOnUse" gradientTransform="translate(0 0)"><stop id="ei7c3BszmJU44-fill-0" offset="0%" stop-color="#8ffe0c"/><stop id="ei7c3BszmJU44-fill-1" offset="100%" stop-color="#0ef269"/></linearGradient><linearGradient id="ei7c3BszmJU47-fill" x1="0" y1="25.12" x2="0" y2="-25.12" spreadMethod="pad" gradientUnits="userSpaceOnUse" gradientTransform="translate(0 0)"><stop id="ei7c3BszmJU47-fill-0" offset="0%" stop-color="#dffe0a"/><stop id="ei7c3BszmJU47-fill-1" offset="0%" stop-color="#dffe0b"/><stop id="ei7c3BszmJU47-fill-2" offset="12%" stop-color="#cbfe43"/><stop id="ei7c3BszmJU47-fill-3" offset="24%" stop-color="#bbfe74"/><stop id="ei7c3BszmJU47-fill-4" offset="36%" stop-color="#acff9e"/><stop id="ei7c3BszmJU47-fill-5" offset="48%" stop-color="#a1ffc1"/><stop id="ei7c3BszmJU47-fill-6" offset="60%" stop-color="#98ffdb"/><stop id="ei7c3BszmJU47-fill-7" offset="73%" stop-color="#91ffee"/><stop id="ei7c3BszmJU47-fill-8" offset="86%" stop-color="#8dfff9"/><stop id="ei7c3BszmJU47-fill-9" offset="100%" stop-color="#8cfffd"/></linearGradient><linearGradient id="ei7c3BszmJU91-fill" x1="1645.93" y1="941.13" x2="1459.19" y2="941.13" spreadMethod="pad" gradientUnits="userSpaceOnUse" gradientTransform="translate(0 0)"><stop id="ei7c3BszmJU91-fill-0" offset="0%" stop-color="#00abb7"/><stop id="ei7c3BszmJU91-fill-1" offset="100%" stop-color="#36cdff"/></linearGradient><linearGradient id="ei7c3BszmJU92-fill" x1="1703.69" y1="1008.1" x2="1402.09" y2="1008.1" spreadMethod="pad" gradientUnits="userSpaceOnUse" gradientTransform="translate(0 0)"><stop id="ei7c3BszmJU92-fill-0" offset="0%" stop-color="#36cdff"/><stop id="ei7c3BszmJU92-fill-1" offset="90%" stop-color="#00abb7"/><stop id="ei7c3BszmJU92-fill-2" offset="93%" stop-color="#03adbb"/><stop id="ei7c3BszmJU92-fill-3" offset="95%" stop-color="#0cb2c7"/><stop id="ei7c3BszmJU92-fill-4" offset="97%" stop-color="#1bbcdb"/><stop id="ei7c3BszmJU92-fill-5" offset="99%" stop-color="#2fc9f6"/><stop id="ei7c3BszmJU92-fill-6" offset="100%" stop-color="#36cdff"/></linearGradient><linearGradient id="ei7c3BszmJU93-fill" x1="1703.58" y1="939.21" x2="1402.09" y2="939.21" spreadMethod="pad" gradientUnits="userSpaceOnUse" gradientTransform="translate(0 0)"><stop id="ei7c3BszmJU93-fill-0" offset="0%" stop-color="#36cdff"/><stop id="ei7c3BszmJU93-fill-1" offset="100%" stop-color="#40f9f6"/></linearGradient><linearGradient id="ei7c3BszmJU98-fill" x1="2455.83" y1="785.27" x2="2079.57" y2="568.04" spreadMethod="pad" gradientUnits="userSpaceOnUse" gradientTransform="translate(0 0)"><stop id="ei7c3BszmJU98-fill-0" offset="0%" stop-color="#36cdff"/><stop id="ei7c3BszmJU98-fill-1" offset="100%" stop-color="#40e6f9"/></linearGradient></defs><g transform="matrix(.385842 0 0 0.385842 2.211687-4.372199)"><rect width="2183.444442" height="1085.471309" rx="0" ry="0" transform="matrix(.83612 0 0 1.020362-11.987277-14.061266)" fill="url(#ei7c3BszmJU28-fill)"/><path d="M1280.66056,1085.73206l612.85-353.83-232.74-135.25-730,421.46l116.38,67.62c64.16,37.29,168.9,37.29,233.49,0h.02Zm614.26003-354.65579l188.76997-108.99421c64.59-37.25,64.94-97.96.77-135.25s-168.92-37.29-233.5,0l-188.78,109l232.74003,135.24421ZM737.95056,1127.76206l190-109.67-715.55-415.83-189.95,109.68c-64.58,37.25-64.93,97.96-.76,135.25l482.82,280.58c64.16,37.29,168.91,37.29,233.49,0l-.05-.01Zm921.42-531.93l-178.71-103.85-237.47,137.1c-65.32,37.74-171.38,37.74-236.32,0l-419.06-243.53-374,215.9l715.59,415.81l729.97-421.43Zm-417.62,32.43l237.47-137.1-419.06-243.54c-64.17-37.29-168.91-37.29-233.5,0l-237.47,137.11l419.09,243.53c64.17,37.29,168.92,37.29,233.5,0h-.03Zm-655.35-243.54l-312.36-181.46-256.83,148.25c-64.59,37.25-64.92,97.96-.76,135.25l195.95,113.87l374-215.91Zm238.85-137.92c65.33-37.74,171.39-37.74,236.33,0l419.07,243.54l260.99-150.66c64.59-37.26,64.93-97.97.76-135.26l-616.5-358.23c-64.17-37.28-168.92-37.28-233.5,0l-616.94,356.22l312.32,181.5l237.47-137.11Zm-915.4-256.87l364.22,211.66l617-356.21c65.33-37.75,171.33-37.75,236.33,0l616.43,358.22c64.95,37.75,64.6,99.15-.77,136.89l-261,150.67l178.71,103.85l188.78-109c65.37-37.74,171.38-37.74,236.32,0s64.6,99.15-.77,136.89l-188.78,109l226.94,131.88-1.42.83-226.94-131.89-612.85,353.83c-65.32,37.74-171.38,37.74-236.32,0l-116.37-67.63-190,109.67c-65.32,37.74-171.38,37.74-236.32,0l-482.82-280.59c-64.94-37.74-64.6-99.14.76-136.88l190-109.67-195.94-113.87c-64.95-37.75-64.61-99.15.76-136.89l256.83-148.3-364.2-211.66l1.42-.82v.02Z" fill="#0b0d29"/><path d="M571.82,14.23h-2v10h2v-10m0,24h-2v10h2v-10m0,24h-2v10h2v-10m0,24h-2v10h2v-10m0,24h-2v10h2v-10m0,24h-2v10h2v-10m0,24h-2v10h2v-10m0,24h-2v10h2v-10m0,24h-2v10h2v-10m0,24h-2v10h2v-10m0,24h-2v10h2v-10m0,24h-2v10h2v-10m0,24h-2v10h2v-10m0,24h-2v10h2v-10m0,24h-2v10h2v-10m0,24h-2v10h2v-10m0,24h-2v10h2v-10m0,24h-2v10h2v-10m0,24h-2v10h2v-10m0,24h-2v10h2v-10m0,24h-2v10h2v-10m0,24h-2v10h2v-10m0,24h-2v10h2v-10m0,24h-2v10h2v-10m0,24h-2v10h2v-10m0,24h-2v10h2v-10m0,24h-2v10h2v-10m0,24h-2v10h2v-10m0,24h-2v10h2v-10m0,24h-2v10h2v-10m0,24h-2v10h2v-10m0,24h-2v10h2v-10m0,24h-2v10h2v-10m0,24h-2v10h2v-10m392.71,10.14h-10v2h10v-2m-24,0h-10v2h10v-2m-24,0h-10v2h10v-2m-24,0h-10v2h10v-2m-24,0h-10v2h10v-2m-24,0h-10v2h10v-2m-24,0h-10v2h10v-2m-24,0h-10v2h10v-2m-24,0h-10v2h10v-2m-24,0h-10v2h10v-2m-24,0h-10v2h10v-2m-24,0h-10v2h10v-2m-24,0h-10v2h10v-2m-24,0h-10v2h10v-2m-24,0h-10v2h10v-2m-24,0h-10v2h10v-2m-24,0h-10v2h10v-2m-24,0h-10v2h10v-2m-24,0h-10v2h10v-2m-24,0h-10v2h10v-2m-24,0h-10v2h10v-2m-24,0h-10v2h10v-2m-24,0h-10v2h10v-2m-24.08.33c-3.355398.277839-6.693511.73516-10,1.37l.38,2c3.236865-.62462,6.504887-1.075267,9.79-1.35l-.17-2m566.13.11l-.14,2c3.32.23,6.63.54,9.9,1l.25-2c-3.32-.41-6.64-.72-10-1m23.89,3.2l-.39,2c3.26.66,6.5,1.39,9.69,2.21l.5-1.93q-4.86-1.25-9.8-2.24m-613.65,1.78c-3.17938,1.119746-6.294169,2.415071-9.33,3.88l.87,1.81c2.96818-1.435509,6.012738-2.707412,9.12-3.81l-.66-1.88m636.93,4.48l-.64,1.89q4.71,1.61,9.31,3.46l.75-1.86q-4.65-1.86-9.42-3.49m-453.93,4h-2v10h2v-10m-204.57,2.51c-2.776002,1.892964-5.446639,3.936002-8,6.12l1.29,1.53c2.508155-2.142418,5.132109-4.145436,7.86-6l-1.12-1.65M1048,835.5l-.88,1.79c3,1.46,5.91,3,8.79,4.62l1-1.74c-2.92-1.63-5.88-3.2-8.89-4.67m20.88,12l-1.11,1.67q4.14,2.75,8.13,5.72l1.19-1.6q-4-3-8.21-5.79m-719.74,1.3c-2.213525,2.554649-4.289784,5.225078-6.22,8l1.63,1.15c1.891664-2.70455,3.92796-5.305001,6.1-7.79l-1.51-1.31m222.66,5.43h-2v10h2v-10m516.23,7.89l-1.32,1.51q3.75,3.27,7.33,6.72l1.38-1.44q-3.6-3.49-7.39-6.79M335.72,868.9c-1.498189,3.016226-2.833442,6.110675-4,9.27l1.87.69c1.148449-3.089285,2.456885-6.116712,3.92-9.07l-1.79-.89m236.1,9.33h-2v10h2v-10m533.36.84l-1.49,1.33q3.3,3.72,6.41,7.61l1.56-1.25c-2.1-2.62-4.25-5.18-6.48-7.69M327.84,891.76c-.679956,3.303846-1.180687,6.642057-1.5,10l2,.18c.310401-3.281168.801143-6.542766,1.47-9.77l-2-.4v0M1120,898.08l-1.64,1.13q2.79,4.11,5.37,8.37l1.71-1q-2.61-4.31-5.44-8.46m-548.19,4.14h-2v10h2v-10M328,915.77l-2,.11c.170918,3.350153.524779,6.688463,1.06,10l2-.31c-.506373-3.256749-.840172-6.537997-1-9.83m804.26,3.08l-1.78.91c1.49,3,2.92,6,4.26,9l1.82-.81q-2-4.61-4.3-9.1M571.86,926.2h-2v10h2v-10m-239.6,12.86l-1.91.6c1.033865,3.209464,2.232114,6.36363,3.59,9.45l1.83-.81c-1.335534-3.014547-2.507241-6.099041-3.51-9.24m809.51,2l-1.89.66q1.65,4.68,3,9.46l1.91-.55q-1.41-4.85-3.07-9.57m-569.95,9.18h-2v10h2v-10M342.3,960.5l-1.69,1.08c1.810621,2.838197,3.770022,5.578688,5.87,8.21l1.57-1.24c-2.058528-2.561786-3.97796-5.2323-5.75-8m806,3.76l-2,.41c.68,3.23,1.29,6.49,1.8,9.78l2-.31c-.51-3.32-1.12-6.61-1.81-9.88m-576.46,10h-2v10h2v-10M357.45,978.7l-1.36,1.46c2.465774,2.293705,5.052825,4.453476,7.75,6.47L365,985c-2.64135-1.972786-5.174989-4.085821-7.59-6.33m794.28,9.41l-2,.16q.39,4.93.52,9.93l2-.06c-.09-3.36-.26-6.71-.53-10m-775,4.36l-.95,1.76c2.966621,1.59468,6.017796,3.026795,9.14,4.29l.75-1.85c-3.053736-1.237353-6.038119-2.639412-8.94-4.2m195.12,5.76h-2v5.21h-3.46v2h3.46v2.79h2v-2.79h4.55v-2h-4.55v-5.21m-173,2.67l-.46,1.94c3.27457.78618,6.589462,1.393743,9.93,1.82l.26-2c-3.272388-.421755-6.520238-1.015915-9.73-1.78m825.56,2.54h-10v2h10v-2m-24,0h-10v2h10v-2m-24,0h-10v2h10v-2m-24,0h-10v2h10v-2m-24,0h-10v2h10v-2m-24,0h-10v2h10v-2m-24,0h-10v2h10v-2m-24,0h-10v2h10v-2m-24,0h-10v2h10v-2m-24,0h-10v2h10v-2m-24,0h-10v2h10v-2m-24,0h-10v2h10v-2m-24,0h-10v2h10v-2m-24,0h-10v2h10v-2m-24,0h-10v2h10v-2m-24,0h-10v2h10v-2m-24,0h-10v2h10v-2m-24,0h-10v2h10v-2m-24,0h-10v2h10v-2m-24,0h-10v2h10v-2m-24,0h-10v2h10v-2m-24,0h-10v2h10v-2m-24,0h-10v2h10v-2m-24,0h-10v2h10v-2m-24,0h-10v2h10v-2m-24,0h-10v2h10v-2m-24,0h-10v2h10v-2m-48,0h-10v2h10v-2m-24,0h-10v2h10v-2m-24,0h-10v2h10v-2m-24,0h-10v2h10v-2m-24,0h-10v2h10v-2m-24,0h-10v2h10v-2m806,0v2v0c3.297604.068735,6.589077.315762,9.86.74l.25-2c-3.3-.42-6.67-.67-10.07-.76m23.91,3.61l-.55,1.92c3.174618.911356,6.298958,1.98952,9.36,3.23l.74-1.85c-3.121541-1.271289-6.309526-2.372896-9.55-3.3m-110,5.12h-2v10h2v-10m132.2,4.47l-1,1.72c2.832276,1.69152,5.575883,3.527267,8.22,5.5l1.19-1.61c-2.697649-2.014003-5.498088-3.886526-8.39-5.61m-712.7,5.58h-2v10h2v-10m731.74,9.33l-1.42,1.41c2.314868,2.342982,4.504575,4.806402,6.56,7.38l1.56-1.24c-2.096306-2.635011-4.332872-5.155321-6.7-7.55m-151.24,4.61h-2v10h2v-10m-580.5,10h-2v10h2v-10m746.4,4.57l-1.74,1c1.655699,2.854668,3.151342,5.799216,4.48,8.82l1.83-.81c-1.356611-3.081784-2.882265-6.086353-4.57-9m-165.9,9.38h-2v10h2v-10m-580.5,10.06h-2v10h2v-10m755.69,2.88l-1.93.53c.867641,3.179985,1.561997,6.404731,2.08,9.66l2-.31c-.525509-3.329614-1.233239-6.627901-2.12-9.88m-175.19,11.07h-2v10h2v-10m-580.5,10h-2v10h2v-10m759,2.83h-2v10h2v-10m-178.49,11.11h-2v10h2v-10m-580.5,10h-2v10h2v-10m759,2.86h-2v10h2v-10m-178.49,11.09h-2v10h2v-10m-580.5,10.06h-2v5.12h-2.58v2h2.53v2.88h2v-2.88h5.48v-2h-5.48v-5.12m759,2.85h-2v10h2v-10m-570.95,2.27h-.57v2h.57c3.15,0,6.26.16,9.32.46l.19-2c-3.12-.31-6.3-.46-9.51-.46m-14.56,0h-10v2h10v-2m-24,0h-10v2h10v-2m-24,0h-10v2h10v-2m-24,0h-10v2h10v-2m-24,0h-10v2h10v-2m-24,0h-10v2h10v-2m-24,0h-10v2h10v-2m-48,0h-10v2h10v-2m-24,0h-10v2h10v-2m-24,0h-10v2h10v-2m-24,0h-10v2h10v-2m-24,0h-10v2h10v-2m-24,0h-10v2h10v-2m-24,0h-10v2h10v-2m-24,0h-10v2h10v-2m-24,0h-10v2h10v-2m-24,0h-10v2h10v-2m-24,0h-10v2h10v-2m-24,0h-10v2h10v-2m-24,0h-10v2h10v-2m-24,0h-10v2h10v-2m-24,0h-10v2h10v-2m-24,0h-10v2h10v-2m-24,0h-10v2h10v-2m-24,0h-10v2h10v-2m-24,0h-10v2h10v-2m-24,0h-2.79q-3.69,0-7.3.27l.15,2q3.54-.27,7.15-.27h2.77v-2m-24,2.39c-3.281989.764338-6.522864,1.695548-9.71,2.79l.66,1.89c3.116255-1.077061,6.287362-1.988337,9.5-2.73l-.45-2m710,.53l-.5,1.94c3.194346.831939,6.342135,1.833356,9.43,3l.71-1.87c-3.15862-1.168009-6.376381-2.169387-9.64-3m369,5.91h-2v10h2v-10m-1101.74,2c-2.984651,1.565181-5.882238,3.291048-8.68,5.17L43,1165c2.740311-1.841289,5.577749-3.533737,8.5-5.07l-.93-1.77m755.17,1l-1,1.74c2.879617,1.610136,5.673402,3.369187,8.37,5.27l1.15-1.64c-2.755325-1.936492-5.609151-3.728895-8.55-5.37m-233.93,7h-2v10h2v-10m759,2.84h-2v10h2v-10m-1300,3c-2.490048,2.268322-4.856774,4.668429-7.09,7.19l1.5,1.33c2.186075-2.452844,4.49925-4.789384,6.93-7l-1.34-1.48m794.42,1.49l-1.39,1.45c2.38725,2.280417,4.650499,4.687206,6.78,7.21l1.52-1.29c-2.170131-2.578246-4.476767-5.038435-6.91-7.37m327.11,6.61h-2v10h2v-10m-580.5,10h-2v10h2v-10m-556.66.29c-1.81902,2.830366-3.48799,5.7544-5,8.76l1.79.9c1.484979-2.94291,3.127357-5.803718,4.92-8.57l-1.67-1.09m825.25,1.87l-1.7,1c1.731079,2.806478,3.310025,5.703992,4.73,8.68l1.8-.86c-1.445469-3.043336-3.057925-6.004512-4.83-8.87m490.4.7h-2v10h2v-10m-178.49,11.09h-2v10h2v-10M4.71,1212.33c-1.056653,3.196187-1.937965,6.447695-2.64,9.74l2,.42c.677821-3.206127,1.525686-6.373935,2.54-9.49l-1.9-.62m567.11,1.9h-2v10h2v-10m278.53.21l-1.91.58c.949916,3.156909,1.734318,6.361273,2.35,9.6l2-.37c-.622855-3.310812-1.424021-6.585579-2.4-9.81m480.46,2.64h-2v10h2v-10m-178.49,11.1h-2v10h2v-10M0.17,1236.08c-.12,1.91-.17,3.85-.17,5.79v4.26h2v-4.26c0-1.9,0-3.79.17-5.68l-2-.11m571.65,2.15h-2v10h2v-10m282.5.06l-2,.07q.06,1.76.06,3.51v6.46h2v-6.46c0-1.19,0-2.39-.07-3.58m476.49,2.78h-2v10h2v-10m-178.49,11.1h-2v10h2v-10M2,1260.13h-2v10h2v-10m569.82,2.09h-2v10h2v-10m282.57.11h-2v10h2v-10m476.42,2.75h-2v10h2v-10m-178.49,11.09h-2v10h2v-10M2,1284.14h-2v10h2v-10m569.82,2.09h-2v10h2v-10m282.57.09h-2v10h2v-10m476.42,2.76h-2v10h2v-10m-178.49,11.1h-2v10h2v-10M2,1308.13h-2v10h2v-10m569.82,2.1h-2v10h2v-10m282.57.1h-2v10h2v-10m476.42,2.74h-2v10h2v-10m-178.49,11.1h-2v10h2v-10M2,1332.13h-2v10h2v-10m569.82,2.09h-2v10h2v-10m282.57.11h-2v10h2v-10m476.42,2.75h-2v10h2v-10m-178.49,11.09h-2v10h2v-10M2,1356.14h-2v10h2v-10m569.82,2.09h-2v10h2v-10m282.57.09h-2v10h2v-10m476.42,2.76h-2v10h2v-10m-178.49,11.1h-2v10h2v-10M2,1380.13h-2v10h2v-10m569.82,2.1h-2v10h2v-10m282.57.1h-2v10h2v-10m476.42,2.74h-2v10h2v-10m-178.49,11.1h-2v10h2v-10M2,1404.13h-2v10h2v-10m569.82,2.09h-2v10h2v-10m282.57.11h-2v10h2v-10m476.42,2.75h-2v10h2v-10m-178.49,11.09h-2v10h2v-10M2,1428.14h-2v10h2v-10m569.82,2.09h-2v10h2v-10m282.57.09h-2v10h2v-10m476.42,2.76h-2v10h2v-10m-178.49,11.1h-2v10h2v-10M2,1452.13h-2v10h2v-10m569.82,2.1h-2v10h2v-10m282.57.1h-2v10h2v-10m476.42,2.74h-2v10h2v-10m-178.49,11.1h-2v10h2v-10M2,1476.13h-2v10h2v-10m569.82,2.09h-2v5.49c0,1.53,0,3,.1,4.57l2-.1c-.07-1.48-.11-3-.11-4.47v-5.49m282.57.11h-2v10h2v-10m476.42,2.75h-2v2.63c0,2.45-.09,4.88-.28,7.27l2,.17q.29-3.69.29-7.44v-2.63m-178.49,11.09h-2v10h2v-10M2,1500.14h-2v10h2v-10m571.61,1.77l-2,.39c.659696,3.302876,1.497587,6.567647,2.51,9.78l1.9-.59c-.984179-3.148137-1.801976-6.345894-2.45-9.58m280.78.41h-2v10h2v-10m472.05,2.34c-.754362,3.211412-1.672224,6.382208-2.75,9.5l1.88.66c1.117434-3.181596,2.055574-6.423352,2.81-9.71l-1.94-.45m-174.12,11.52h-2v10h2v-10M2,1524.13h-2v10h2v-10m579.19.2l-1.8.88c1.48357,3.026495,3.129294,5.970771,4.93,8.82L586,1533v0c-1.764033-2.785907-3.373141-5.666945-4.82-8.63m273.2,2h-2v10h2v-10m463.78.52c-1.543541,2.916978-3.23921,5.750881-5.08,8.49l1.66,1.11c1.881408-2.791246,3.610596-5.682128,5.18-8.66l-1.76-.94m-165.85,13.32h-2v10h2v-10m-558.09,3.91l-1.52,1.31c2.198827,2.55567,4.535643,4.989297,7,7.29l1.36-1.46c-2.400264-2.258617-4.68008-4.641908-6.83-7.14m710.29,2.13c-2.208288,2.429819-4.544959,4.739786-7,6.92l1.32,1.5c2.527827-2.22626,4.934607-4.586307,7.21-7.07l-1.48-1.35M2,1548.13h-2v10h2v-10m852.39,2.2h-2v10h2v-10m-242.55,9.58l-1.14,1.64c2.775835,1.915262,5.649744,3.684335,8.61,5.3l1-1.77c-2.898827-1.568531-5.709692-3.294442-8.42-5.17m674.61,1.57c-2.770707,1.791027-5.634756,3.433349-8.58,4.92l.9,1.79c3.006829-1.509718,5.930983-3.178756,8.76-5l-1.08-1.68m-134.13,2.69h-2v10h2v-10m-519.43,6.59l-.68,1.88c3.167604,1.149154,6.395772,2.123947,9.67,2.92l.47-2c-3.203672-.774105-6.36187-1.72557-9.46-2.85m632.19.92c-3.132055,1.022906-6.316609,1.877462-9.54,2.56l.41,2c3.297075-.701376,6.554921-1.575921,9.76-2.62l-.63-1.9M2,1572.13h-2v10h2v-10m852.39,2.19h-2v1.93h-4.5v2h4.5v6.07h2v-6.07h3.51v-2h-3.51v-1.93M656,1575.87l-.18,2c2.81.24,5.65.38,8.53.38h1.54v-2h-1.54c-2.81,0-5.6-.13-8.35-.38m585.83.21c-1.84.11-3.68.16-5.55.17h-4.39v2h4.39c1.9,0,3.79-.06,5.67-.17l-.12-2m-23.93.17h-10v2h10v-2m-24,0h-10v2h10v-2m-24,0h-10v2h10v-2m-24,0h-10v2h10v-2m-24,0h-10v2h10v-2m-24,0h-10v2h10v-2m-24,0h-10v2h10v-2m-24,0h-10v2h10v-2m-24,0h-10v2h10v-2m-24,0h-10v2h10v-2m-24,0h-10v2h10v-2m-24,0h-10v2h10v-2m-24,0h-10v2h10v-2m-24,0h-10v2h10v-2m-24,0h-10v2h10v-2m-48,0h-10v2h10v-2m-24,0h-10v2h10v-2m-24,0h-10v2h10v-2m-24,0h-10v2h10v-2m-24,0h-10v2h10v-2m-24,0h-10v2h10v-2m-24,0h-10v2h10v-2m462.42,11.93h-2v10h2v-10M2,1596.13h-2v10h2v-10m852.39,2.2h-2v10h2v-10m297.93,13.84h-2v10h2v-10M2,1620.13h-2v10h2v-10m852.39,2.2h-2v10h2v-10m297.93,13.84h-2v10h2v-10M2,1644.13h-2v10h2v-10m852.39,2.19h-2v10h2v-10m297.93,13.86h-2v10h2v-10M2,1668.13h-2v8.41c0,.54,0,1.08,0,1.61h2c0-.52,0-1,0-1.57v-8.41m852.39,2.2h-2v10h2v-10M1150,1684.08c-.265445,3.287813-.706071,6.559126-1.32,9.8l2,.37c.62849-3.306795,1.079138-6.644925,1.35-10l-2-.16M3.27,1691.89l-2,.33c.545607,3.324098,1.273369,6.615722,2.18,9.86l1.93-.54c-.88389-3.176458-1.598232-6.397673-2.14-9.65m851.12,2.44h-2v10h2v-10m290.72,12.91c-1.086511,3.110843-2.345119,6.158879-3.77,9.13l1.8.87c1.454904-3.044525,2.743467-6.165784,3.86-9.35l-1.89-.65m-1135,7.31l-1.81.82c1.381884,3.08213,2.930851,6.086593,4.64,9l1.72-1c-1.670612-2.844285-3.189406-5.775057-4.55-8.78m844.26,3.77h-2v10h2v-10m280.08,10c-1.859852,2.72728-3.862649,5.354282-6,7.87l1.53,1.3c2.176223-2.575475,4.212491-5.266019,6.1-8.06l-1.65-1.11M22.56,1734.7L21,1736c2.117471,2.62237,4.374044,5.129302,6.76,7.51l1.41-1.42c-2.338953-2.327537-4.548917-4.781198-6.62-7.35m831.83,7.63h-2v10h2v-10m264.41,3.79c-2.482973,2.172333-5.076423,4.215051-7.77,6.12l1.15,1.63c2.758638-1.937011,5.409264-4.023461,7.94-6.25l-1.32-1.5m-1079.13,5l-1.19,1.61c2.712266,1.999303,5.529632,3.851954,8.44,5.55l1-1.73c-2.849544-1.659229-5.606933-3.471895-8.26-5.43m1059.49,8.27c-2.951883,1.472049-5.97943,2.787213-9.07,3.94l.7,1.88c3.154208-1.171192,6.245085-2.506344,9.26-4l-.89-1.79m-1038.79,3.1l-.73,1.85c3.126773,1.255634,6.321842,2.334011,9.57,3.23l.53-1.93c-3.177528-.88132-6.305375-1.932838-9.37-3.15m794,3.77h-2v2.75h-1.25v2h1.25v5.26h2v-5.26h6.75v-2h-6.75v-2.75m222.4.79c-3.227568.673976-6.488901,1.174693-9.77,1.5l.2,2c3.357814-.334625,6.695743-.845328,10-1.53l-.41-2M83.3,1768.4l-.25,2c3.341883.408777,6.703499.635778,10.07.68v-2c-3.292578-.05599-6.580168-.279613-9.85-.67m969.84.68h-10v2h10v-2m-24,0h-10v2h10v-2m-24,0h-10v2h10v-2m-24,0h-10v2h10v-2m-24,0h-10v2h10v-2m-24,0h-10v2h10v-2m-24,0h-10v2h10v-2m-24,0h-10v2h10v-2m-48,0h-10v2h10v-2m-24,0h-10v2h10v-2m-24,0h-10v2h10v-2m-24,0h-10v2h10v-2m-24,0h-10v2h10v-2m-24,0h-10v2h10v-2m-24,0h-10v2h10v-2m-24,0h-10v2h10v-2m-24,0h-10v2h10v-2m-24,0h-10v2h10v-2m-24,0h-10v2h10v-2m-24,0h-10v2h10v-2m-24,0h-10v2h10v-2m-24,0h-10v2h10v-2m-24,0h-10v2h10v-2m-24,0h-10v2h10v-2m-24,0h-10v2h10v-2m-24,0h-10v2h10v-2m-24,0h-10v2h10v-2m-24,0h-10v2h10v-2m-24,0h-10v2h10v-2m-24,0h-10v2h10v-2m-24,0h-10v2h10v-2m-24,0h-10v2h10v-2m-24,0h-10v2h10v-2m-24,0h-10v2h10v-2m-24,0h-10v2h10v-2m-24,0h-10v2h10v-2m-24,0h-10v2h10v-2m-24,0h-10v2h10v-2m-24,0h-10v2h10v-2m737.25,21.24h-2v10h2v-10m0,24h-2v10h2v-10m0,24h-2v10h2v-10m0,24h-2v10h2v-10m0,24h-2v10h2v-10m0,24h-2v10h2v-10m0,24h-2v10h2v-10m0,24h-2v10h2v-10m0,24h-2v10h2v-10m0,24h-2v10h2v-10m0,24h-2v10h2v-10m0,24h-2v10h2v-10m0,24h-2v10h2v-10m0,24h-2v10h2v-10m0,24h-2v10h2v-10m0,24h-2v10h2v-10m0,24h-2v10h2v-10m0,24h-2v2.95q0,3.6.26,7.12l2-.15q-.25-3.45-.26-7v-2.95m2.31,23.6l-1.94.45c.740286,3.285074,1.661694,6.526691,2.76,9.71l1.89-.65c-1.069139-3.12039-1.973718-6.294758-2.71-9.51m8.19,22.21l-1.77.93c1.55909,2.983972,3.278262,5.881528,5.15,8.68l1.66-1.11v0c-1.840496-2.736962-3.526463-5.574727-5.05-8.5m13.56,19.4l-1.47,1.34c2.264813,2.493199,4.661582,4.863263,7.18,7.1l1.33-1.5c-2.453103-2.189316-4.789648-4.505834-7-6.94m18,15.34l-1.1,1.68c2.827114,1.818715,5.747804,3.48768,8.75,5l.91-1.78c-2.940306-1.513098-5.797708-3.182142-8.56-5m21.33,10.27l-.62,1.9c3.199773,1.058715,6.45454,1.943344,9.75,2.65l.41-2v0c-3.228821-.689989-6.41702-1.55798-9.55-2.6m23.25,4.49l-.13,2q3,.2,6,.19h4.11v-2h-4.08c-2,0-3.92-.06-5.85-.18m849.93.18h-10v2h10v-2m-24,0h-10v2h10v-2m-24,0h-10v2h10v-2m-24,0h-10v2h10v-2m-24,0h-10v2h10v-2m-24,0h-10v2h10v-2m-24,0h-10v2h10v-2m-24,0h-10v2h10v-2m-24,0h-10v2h10v-2m-24,0h-10v2h10v-2m-24,0h-10v2h10v-2m-24,0h-10v2h10v-2m-24,0h-10v2h10v-2m-24,0h-10v2h10v-2m-24,0h-10v2h10v-2m-24,0h-10v2h10v-2m-24,0h-10v2h10v-2m-24,0h-10v2h10v-2m-24,0h-10v2h10v-2m-24,0h-10v2h10v-2m-24,0h-10v2h10v-2m-24,0h-10v2h10v-2m-24,0h-10v2h10v-2m-24,0h-10v2h10v-2m-24,0h-10v2h10v-2m-24,0h-10v2h10v-2m-24,0h-10v2h10v-2m-24,0h-10v2h10v-2m-24,0h-10v2h10v-2m-24,0h-10v2h10v-2m-24,0h-10v2h10v-2m-24,0h-10v2h10v-2m-24,0h-10v2h10v-2m-24,0h-10v2h10v-2m-24,0h-10v2h10v-2M571.82,0h-2v.23h2v-.23" transform="matrix(.710141-.41 0.71 0.409919-555.096993 292.263367)" fill="#fff"/><g transform="translate(-476.655461-179.115638)"><path d="M691.89,698.09v0C638,667,550.67,667,497.17,698.08L268.55,830.94L39.93,963.8c-53.49,31.1-53.2,81.69.65,112.78v0c53.85,31.09,141.21,31.09,194.71,0L463.91,943.73L692.54,810.87c53.46-31.1,53.2-81.69-.65-112.78Zm-37.78,90.6L196.88,1054.4c-32.46,18.87-85.45,18.87-118.13,0s-32.85-49.56-.39-68.4L535.59,720.26c32.46-18.86,85.45-18.86,118.13,0s32.85,49.57.39,68.43Z" opacity="0.5" fill="#0b0d29"/><g id="ei7c3BszmJU33_to" transform="translate(595.29538,697.381287)"><g transform="translate(-595.29538,-697.381287)"><path d="M653.23,721.32c31.78,18.47,31.62,48.41-.38,66.89s-83.69,18.46-115.47,0-31.62-48.41.37-66.89s83.69-18.48,115.48,0Z" opacity="0.5" fill="#0b0d29"/></g></g><g id="ei7c3BszmJU35_to" transform="translate(366.234986,795.616272)"><g transform="translate(-366.234985,-795.616272)"><path d="M78.36,916.32L535.59,650.61c32.46-18.87,85.45-18.87,118.13,0c10,5.79,17,12.69,20.87,20l33.26-62L561.8,571.06L23.14,883.15l34.67,53c3.84-7.25,10.68-14.09,20.55-19.83Z" fill="url(#ei7c3BszmJU36-fill)"/><path d="M732.47,636.46l-587.75,345L0,909.58L0.26,955c1.93,18.89,15.37,37.48,40.32,51.89v0c53.85,31.09,141.21,31.09,194.71,0L692.54,741.21C717,727,730.19,708.69,732.17,690Z" fill="url(#ei7c3BszmJU37-fill)"/><path d="M691.89,584.35v0c-53.86-31.1-141.22-31.1-194.72,0L268.55,717.2L39.93,850.07c-53.49,31.09-53.2,81.68.65,112.78v0c53.85,31.09,141.21,31.09,194.71,0L463.91,830L692.54,697.13c53.46-31.13,53.2-81.69-.65-112.78ZM654.11,675L196.88,940.67c-32.46,18.86-85.45,18.86-118.13,0s-32.85-49.57-.39-68.43L535.59,606.53c32.46-18.87,85.45-18.87,118.13,0s32.85,49.56.39,68.47Z" fill="url(#ei7c3BszmJU38-fill)"/></g></g><g id="ei7c3BszmJU39_to" transform="translate(595.29538,697.381287)"><g transform="translate(-595.29538,-697.381287)"><g id="ei7c3BszmJU40_to" transform="translate(595.304993,678.671875)"><path d="M512.3,641l.06,28c0,12.22,8.06,24.42,24.11,33.75c32.3,18.76,84.83,18.77,117.34,0c16.36-9.45,24.53-21.85,24.5-34.23l-.06-28Z" transform="translate(-595.304993,-678.671875)" fill="url(#ei7c3BszmJU40-fill)"/></g><g id="ei7c3BszmJU41_to" transform="translate(595.263123,640.794373)"><path d="M654.14,606.8c32.29,18.77,32.12,49.2-.39,68s-85,18.77-117.34,0-32.13-49.2.38-68s85.05-18.8,117.35,0Z" transform="translate(-595.263123,-640.794373)" fill="url(#ei7c3BszmJU41-fill)"/></g></g></g><g id="ei7c3BszmJU42_to" transform="translate(366.234986,795.616272)"><g transform="translate(-366.234985,-795.616272)"><path d="M732.47,636.46l-587.75,345L0,909.58L0.26,955c1.93,18.89,15.37,37.48,40.32,51.89v0c53.85,31.09,141.21,31.09,194.71,0L692.54,741.21C717,727,730.19,708.69,732.17,690Z" fill="url(#ei7c3BszmJU43-fill)"/><path d="M678.454273,638.948809c0,18.79-10.148253,27.150002-36.958253,43.36C641.49602,681.77,196.879999,940.67,196.879999,940.67L196.88,985.366962L692.54,697.13c53.46-31.13,53.2-81.69-.65-112.78.33602-1.671191-13.435727,23.938809-13.435727,54.598809" fill="url(#ei7c3BszmJU44-fill)"/></g></g></g><g id="ei7c3BszmJU45_to" style="offset-path:path('M-40.722868,122.548367L887.980559,660.013171C934.730559,688.403171,989.980559,696.523171,1050.490559,659.193171C1111.000559,621.863171,1327.800559,498.863171,1409.600559,450.803171C1491.400559,402.743171,1479.220559,379.333171,1423.300559,346.763171C1367.380559,314.193171,1216.556802,225.221313,1169.710559,198.553171C1122.864317,171.885028,1062.540559,183.543171,1033.910559,200.453171C1005.280559,217.363171,542.360559,484.893171,460.070559,532.143171C377.780559,579.393171,221.162099,514.923171,344.140559,445.403171C467.119019,375.883171,607.241934,294.007292,700.550559,240.203171C793.859184,186.39905,902.500559,192.093171,975.510559,233.753171C1048.520559,275.413171,1350.380559,451.543171,1425.100559,494.753171C1499.820559,537.963171,1487.325176,563.343171,1416.34,604.540447C1399.782344,614.149923,826.443271,945.763236,776.980559,974.173171C712.470559,1011.225828,660.810559,995.913171,615.380559,969.323171C569.950559,942.733171,412.120559,851.183171,355.020559,819.473171C297.920559,787.763171,266.360559,761.313171,358.38,706.880447C450.399441,652.447723,733.950559,490.873171,785.490559,461.163171C837.030559,431.453171,886.700559,426.753171,940.390559,457.983171C994.080559,489.213171,1574.47642,826.633171,1609.220559,846.783171C1643.964698,866.933171,1704.450559,867.203171,1741.420559,845.613171C1778.390559,824.023171,1841.346048,788.866678,1841.346048,788.866678');offset-rotate:0deg"><g transform="translate(-1337.22,-616.59)"><ellipse rx="25.12" ry="10.48" transform="translate(1337.22 616.59)" opacity="0.5" fill="#0b0d29"/><circle r="25.12" transform="translate(1337.22 572.24)" fill="url(#ei7c3BszmJU47-fill)"/></g></g><g mask="url(#ei7c3BszmJU55)"><g transform="translate(-476.482376-178.276995)"><g id="ei7c3BszmJU50_ts" transform="translate(1027.349976,934.350006) scale(1,1)"><polygon id="ei7c3BszmJU50" points="1231.98,934.34 1028.02,1052.88 822.72,934.35 1026.68,815.82 1231.98,934.34" transform="translate(-1027.349976,-934.350006)" opacity="0" fill="#0b0d29"/></g><g id="ei7c3BszmJU51_to" transform="translate(1027.350006,970.541345)"><g style="isolation:isolate" transform="translate(-1027.350006,-824.565002)"><polygon points="1232.04,724.64 1231.92,924.49 1027.96,1043.02 1003.76,829.13 1232.04,724.64" fill="#0ef269"/><polygon points="1028.07,806.97 1027.96,1043.02 822.66,924.49 822.77,724.64 1028.07,806.97" fill="#00c997"/><polygon points="1232.04,724.64 1028.07,843.17 822.77,724.64 1026.74,606.11 1232.04,724.64" fill="#8ffe32"/></g></g></g><mask id="ei7c3BszmJU55" mask-type="luminance" x="-150%" y="-150%" height="400%" width="400%"><g style="isolation:isolate" transform="translate(-476.762382-235.958396)"><polygon points="1232.04,724.64 1231.92,992.39509 1027.96,1110.92509 1003.76,829.13 1232.04,724.64" transform="translate(0-.603497)" fill="#fff"/><polygon points="1028.07,806.97 1027.96,1110.561427 822.66,992.031427 822.77,724.64 1028.07,806.97" fill="#fff"/><polygon points="1232.04,724.64 1028.07,843.17 822.77,724.64 1026.74,606.11 1232.04,724.64" fill="#fff"/></g></mask></g><g transform="translate(0 0.000001)"><g id="ei7c3BszmJU61_to" transform="translate(1166.002489,-67.990439)"><polygon id="ei7c3BszmJU61" points="1232.04,724.64 1028.07,843.17 822.77,724.64 1026.74,606.11 1232.04,724.64" transform="scale(0.562697,0.565177) translate(-1027.405029,-724.639984)" fill="#338fe2"/></g><g mask="url(#ei7c3BszmJU86)"><g id="ei7c3BszmJU63_to" transform="translate(1166.367065,287.327729)"><g transform="translate(-1166.367065,-287.327728)"><g transform="matrix(.562697 0 0 0.562697 856.198424-38.00962)" mask="url(#ei7c3BszmJU71)"><g transform="translate(-476.482376-178.276995)"><g id="ei7c3BszmJU66_ts" transform="translate(1028.078631,1115.461471) scale(1,1)"><polygon id="ei7c3BszmJU66" points="1231.98,934.34 1028.02,1052.88 822.72,934.35 1026.68,815.82 1231.98,934.34" transform="translate(-1027.349976,-934.350006)" opacity="0" fill="#0b0d29"/></g><g id="ei7c3BszmJU67_to" style="offset-path:path('M1027.343889,1216.017739L1027.350006,772.757609L1026.997313,772.976757C1027.121788,865.229085,1027.213315,933.06264,1027.27191,976.489003');offset-rotate:0deg"><g style="isolation:isolate" transform="translate(-1027.350006,-824.565002)"><polygon id="ei7c3BszmJU68" points="1232.04,724.64 1231.915639,967.01648 1028.34249,1084.573527 1003.76,829.13 1232.04,724.64" opacity="0" fill="#00c997"/><polygon id="ei7c3BszmJU69" points="1028.07,806.97 1028.306947,1084.573527 822.77,967.01648 822.77,724.64 1028.07,806.97" opacity="0" fill="#00abb7"/><polygon id="ei7c3BszmJU70" points="1232.04,724.64 1028.07,843.17 822.77,724.64 1026.74,606.11 1232.04,724.64" opacity="0" fill="#338fe2"/></g></g></g><mask id="ei7c3BszmJU71" mask-type="luminance" x="-150%" y="-150%" height="400%" width="400%"><g style="isolation:isolate" transform="translate(-476.762382-235.958396)"><polygon points="1232.04,724.64 1231.92,1175.92413 1027.96,1294.45413 1003.76,829.13 1232.04,724.64" transform="translate(0-.603497)" fill="#fff"/><polygon points="1028.07,806.97 1027.997313,1293.850638 822.66,1175.320643 822.77,724.64 1028.07,806.97" fill="#fff"/><polygon points="1232.04,724.64 1028.07,843.17 822.77,724.64 1026.74,606.11 1232.04,724.64" fill="#fff"/></g></mask></g><g transform="translate(-476.850005-178.167831)"><g id="ei7c3BszmJU77_to" transform="translate(1642.87498,41.782837)"><g style="isolation:isolate" transform="translate(-1643.025024,-310.555008)"><polygon points="1758,242.51 1757.93,378.59 1643.36,445.17 1627.98,300.17 1758,242.51" fill="#0ef269"/><polygon points="1643.43,287.66 1643.36,445.17 1528.05,378.59 1528.11,242.51 1643.43,287.66" fill="#00c997"/><polygon points="1758,242.51 1643.43,309.09 1528.11,242.51 1642.68,175.94 1758,242.51" fill="#00abb7"/></g></g></g><g transform="translate(-476.850005-178.167831)"><g id="ei7c3BszmJU82_to" transform="translate(1642.87498,41.557345)"><g style="isolation:isolate" transform="translate(-1643.054993,-134.615005)"><polygon id="ei7c3BszmJU83" points="1758.03,66.58 1757.96,202.65 1643.4,269.23 1627.98,124.22 1758.03,66.58" fill="#8ffe0c"/><polygon id="ei7c3BszmJU84" points="1643.46,114.47 1643.4,269.23 1528.08,202.66 1528.14,66.58 1643.46,114.47" fill="#0ef269"/><polygon id="ei7c3BszmJU85" points="1758.03,66.58 1643.46,133.16 1528.14,66.58 1642.71,0 1758.03,66.58" fill="#dffe0a"/></g></g></g></g></g><mask id="ei7c3BszmJU86" mask-type="luminance" x="-150%" y="-150%" height="400%" width="400%"><path d="M1051.134171,-17.378609l-.000001,507.923102l115.295812,66.658879l114.804528-66.466978.000001-508.115004-115.554529-66.593588-114.545811,66.593589Z" transform="translate(0 0.000002)" fill="#fff" stroke-width="3.6"/></mask></g></g><g transform="translate(-477.429474-178.928993)"><path d="M1658.1,939.11c57.74,33.55,57.43,88-.69,121.52s-152,33.55-209.78,0-57.45-88,.67-121.51s152.05-33.57,209.8-.01Zm-56.32,85.42c27.2-15.71,27.34-41.17.32-56.87s-71-15.7-98.16,0-27.34,41.15-.32,56.85s71,15.71,98.16,0" opacity="0.5" fill="#0b0d29"/><g id="ei7c3BszmJU90_to" transform="translate(1552.91095,929.650025)"><g transform="translate(-1552.910949,-964.650024)"><path d="M1459.22,892l23.22,98.32c0-10.52,6.91-21.06,20.82-29.09c27.64-16,72.3-16,99.75,0c13.64,7.93,20.47,18.3,20.5,28.69L1646,892Z" fill="url(#ei7c3BszmJU91-fill)"/><path d="M1402.12,939.64l.11,50.88c.06,22.2,14.65,44.37,43.81,61.31c58.67,34.1,154.11,34.1,213.17,0c29.72-17.15,44.57-39.68,44.5-62.17l-.11-50.88c-80.2,77.49-221.27,77.76-301.48.86Z" fill="url(#ei7c3BszmJU92-fill)"/><path d="M1659.8,877.47c58.68,34.1,58.36,89.39-.7,123.48s-154.5,34.1-213.18,0-58.37-89.38.69-123.48s154.51-34.1,213.19,0Zm-57.23,90.63c27.64-16,27.78-41.82.33-57.78s-72.11-16-99.75,0-27.78,41.82-.33,57.78s72.12,16,99.75,0" fill="url(#ei7c3BszmJU93-fill)"/></g></g></g><g id="ei7c3BszmJU94_to" transform="translate(2123.659254,358.108233)"><g transform="translate(-2267.695007,-729.654999)"><polygon points="2443.56,602.8 1957.67,885.17 2091.83,962.51 2577.72,680.14 2443.56,602.8" opacity="0.5" fill="#0b0d29"/><polygon points="1957.67,779.17 1957.67,807.34 2091.83,884.68 2123.23,838.25 1957.67,779.17" fill="#338fe2"/><polygon points="2091.83,823.95 2091.83,884.68 2577.72,602.31 2577.72,574.13 2091.83,823.95" fill="#36b1ff"/><polygon points="2443.56,496.8 1957.67,779.17 2091.83,856.5 2577.72,574.13 2443.56,496.8" fill="url(#ei7c3BszmJU98-fill)"/></g></g></g></svg>
