<svg id="eSfF1urTRx01" xmlns="http://www.w3.org/2000/svg" xmlns:xlink="http://www.w3.org/1999/xlink" viewBox="0 0 700 400" shape-rendering="geometricPrecision" text-rendering="geometricPrecision" style="background-color:#fff">
<style><![CDATA[
#eSfF1urTRx010_tr {animation: eSfF1urTRx010_tr__tr 3000ms linear infinite normal forwards}@keyframes eSfF1urTRx010_tr__tr { 0% {transform: translate(603.21px,786.54px) rotate(-1.294744deg);animation-timing-function: cubic-bezier(0.276354,0.533525,0.59058,0.93481)} 16.666667% {transform: translate(603.21px,786.54px) rotate(0deg);animation-timing-function: cubic-bezier(0.445,0.05,0.55,0.95)} 66.666667% {transform: translate(603.21px,786.54px) rotate(-5.566192deg);animation-timing-function: cubic-bezier(0.465064,0.045396,0.68256,0.628476)} 100% {transform: translate(603.21px,786.54px) rotate(-1.294744deg)}} #eSfF1urTRx011_tr {animation: eSfF1urTRx011_tr__tr 3000ms linear infinite normal forwards}@keyframes eSfF1urTRx011_tr__tr { 0% {transform: translate(611.411825px,786.54px) rotate(4.406352deg);animation-timing-function: cubic-bezier(0.445,0.05,0.55,0.95)} 50% {transform: translate(611.411825px,786.54px) rotate(-5.566192deg);animation-timing-function: cubic-bezier(0.445,0.05,0.55,0.95)} 100% {transform: translate(611.411825px,786.54px) rotate(4.406352deg)}} #eSfF1urTRx012_tr {animation: eSfF1urTRx012_tr__tr 3000ms linear infinite normal forwards}@keyframes eSfF1urTRx012_tr__tr { 0% {transform: translate(426.765001px,723.07px) rotate(2.909731deg);animation-timing-function: cubic-bezier(0.288922,0.57899,0.606405,1)} 16.666667% {transform: translate(426.765001px,723.07px) rotate(8.19951deg);animation-timing-function: cubic-bezier(0.42,0,0.58,1)} 66.666667% {transform: translate(426.765001px,723.07px) rotate(-14.623516deg);animation-timing-function: cubic-bezier(0.433203,0,0.682004,0.615475)} 100% {transform: translate(426.765001px,723.07px) rotate(2.909731deg)}} #eSfF1urTRx013_tr {animation: eSfF1urTRx013_tr__tr 3000ms linear infinite normal forwards}@keyframes eSfF1urTRx013_tr__tr { 0% {transform: translate(399.860001px,721.48px) rotate(-3.547416deg);animation-timing-function: cubic-bezier(0.445,0.05,0.55,0.95)} 50% {transform: translate(399.860001px,721.48px) rotate(-31.210253deg);animation-timing-function: cubic-bezier(0.445,0.05,0.55,0.95)} 100% {transform: translate(399.860001px,721.48px) rotate(-3.547416deg)}} #eSfF1urTRx014_tr {animation: eSfF1urTRx014_tr__tr 3000ms linear infinite normal forwards}@keyframes eSfF1urTRx014_tr__tr { 0% {transform: translate(453.670001px,782.2px) rotate(0deg);animation-timing-function: cubic-bezier(0.445,0.05,0.55,0.95)} 50% {transform: translate(453.670001px,782.2px) rotate(-8.467818deg);animation-timing-function: cubic-bezier(0.445,0.05,0.55,0.95)} 100% {transform: translate(453.670001px,782.2px) rotate(0deg)}} #eSfF1urTRx016_tr {animation: eSfF1urTRx016_tr__tr 3000ms linear infinite normal forwards}@keyframes eSfF1urTRx016_tr__tr { 0% {transform: translate(421.57px,605.5px) rotate(-13.084234deg);animation-timing-function: cubic-bezier(0.25,1,0.25,1)} 50% {transform: translate(421.57px,605.5px) rotate(0deg);animation-timing-function: cubic-bezier(0.25,1,0.25,1)} 100% {transform: translate(421.57px,605.5px) rotate(-13.084234deg)}} #eSfF1urTRx017_tr {animation: eSfF1urTRx017_tr__tr 3000ms linear infinite normal forwards}@keyframes eSfF1urTRx017_tr__tr { 0% {transform: translate(406.45px,563.57px) rotate(-2.839713deg);animation-timing-function: cubic-bezier(0.25,1,0.25,1)} 50% {transform: translate(406.45px,563.57px) rotate(0deg);animation-timing-function: cubic-bezier(0.25,1,0.25,1)} 100% {transform: translate(406.45px,563.57px) rotate(-2.839713deg)}} #eSfF1urTRx018_tr {animation: eSfF1urTRx018_tr__tr 3000ms linear infinite normal forwards}@keyframes eSfF1urTRx018_tr__tr { 0% {transform: translate(698.42px,738.500001px) rotate(15.92348deg);animation-timing-function: cubic-bezier(0.445,0.05,0.55,0.95)} 50% {transform: translate(698.42px,738.500001px) rotate(-15.356544deg);animation-timing-function: cubic-bezier(0.445,0.05,0.55,0.95)} 100% {transform: translate(698.42px,738.500001px) rotate(15.92348deg)}} #eSfF1urTRx020_tr {animation: eSfF1urTRx020_tr__tr 3000ms linear infinite normal forwards}@keyframes eSfF1urTRx020_tr__tr { 0% {transform: translate(709.030001px,660.81px) rotate(0deg);animation-timing-function: cubic-bezier(0.25,1,0.25,1)} 50% {transform: translate(709.030001px,660.81px) rotate(13.126461deg);animation-timing-function: cubic-bezier(0.25,1,0.25,1)} 100% {transform: translate(709.030001px,660.81px) rotate(0deg)}} #eSfF1urTRx021_tr {animation: eSfF1urTRx021_tr__tr 3000ms linear infinite normal forwards}@keyframes eSfF1urTRx021_tr__tr { 0% {transform: translate(720.933098px,614.84px) rotate(0deg);animation-timing-function: cubic-bezier(0.25,1,0.25,1)} 50% {transform: translate(720.933098px,614.84px) rotate(-3.910539deg);animation-timing-function: cubic-bezier(0.25,1,0.25,1)} 100% {transform: translate(720.933098px,614.84px) rotate(0deg)}} #eSfF1urTRx022_tr {animation: eSfF1urTRx022_tr__tr 3000ms linear infinite normal forwards}@keyframes eSfF1urTRx022_tr__tr { 0% {transform: translate(499.620001px,740px) rotate(-9.698528deg);animation-timing-function: cubic-bezier(0.312841,0.373858,0.532077,0.954577)} 33.333333% {transform: translate(499.620001px,740px) rotate(0deg);animation-timing-function: cubic-bezier(0.42,0,0.58,1)} 83.333333% {transform: translate(499.620001px,740px) rotate(-12.709829deg);animation-timing-function: cubic-bezier(0.409552,0.064742,0.723108,0.467131)} 100% {transform: translate(499.620001px,740px) rotate(-9.698528deg)}} #eSfF1urTRx043_tr {animation: eSfF1urTRx043_tr__tr 3000ms linear infinite normal forwards}@keyframes eSfF1urTRx043_tr__tr { 0% {transform: translate(649.24px,682.19px) rotate(7.617458deg);animation-timing-function: cubic-bezier(0.445,0.05,0.55,0.95)} 50% {transform: translate(649.24px,682.19px) rotate(0deg);animation-timing-function: cubic-bezier(0.445,0.05,0.55,0.95)} 100% {transform: translate(649.24px,682.19px) rotate(7.617458deg)}} #eSfF1urTRx044_tr {animation: eSfF1urTRx044_tr__tr 3000ms linear infinite normal forwards}@keyframes eSfF1urTRx044_tr__tr { 0% {transform: translate(459px,637.130001px) rotate(4.741566deg);animation-timing-function: cubic-bezier(0.288922,0.57899,0.606405,1)} 16.666667% {transform: translate(459px,637.130001px) rotate(9.280442deg);animation-timing-function: cubic-bezier(0.42,0,0.58,1)} 66.666667% {transform: translate(459px,637.130001px) rotate(-10.302774deg);animation-timing-function: cubic-bezier(0.433203,0,0.682004,0.615475)} 100% {transform: translate(459px,637.130001px) rotate(4.741566deg)}} #eSfF1urTRx051 {animation: eSfF1urTRx051__m 3000ms linear infinite normal forwards}@keyframes eSfF1urTRx051__m { 0% {d: path('M22.895273,424.465194C177.154143,424.465194,243.003126,327.845194,332.775273,327.845194C428.008661,327.845194,443.512757,402.003217,423.845273,393.395194C395.14889,380.835422,501.718385,327.012594,654.175273,424.465194C806.632161,521.917794,948.774938,521.339531,1059.875273,446.035194C1170.975608,370.730857,1059.875273,446.035194,1059.875273,446.035194')} 100% {d: path('M16.144726,419.578639C16.144726,419.578639,-122.220084,424.465194,22.895273,424.465194C168.01063,424.465194,248.235637,327.845194,332.775273,327.845194C426.760007,327.845196,443.223256,401.771351,423.845273,393.395194C396.464484,381.559814,500.145981,325.69812,654.175273,424.465194C841.87918,544.825194,985.346523,497.467435,1059.875273,446.035194')}} #eSfF1urTRx053_to {animation: eSfF1urTRx053_to__to 3000ms linear infinite normal forwards}@keyframes eSfF1urTRx053_to__to { 0% {offset-distance: 0%} 50% {offset-distance: 50.113804%} 100% {offset-distance: 100%}} #eSfF1urTRx053 {animation: eSfF1urTRx053_c_o 3000ms linear infinite normal forwards}@keyframes eSfF1urTRx053_c_o { 0% {opacity: 0} 6.666667% {opacity: 0;animation-timing-function: cubic-bezier(0.42,0,1,1)} 13.333333% {opacity: 1} 86.666667% {opacity: 1;animation-timing-function: cubic-bezier(0,0,0.58,1)} 93.333333% {opacity: 0} 100% {opacity: 0}} #eSfF1urTRx057_tr {animation: eSfF1urTRx057_tr__tr 3000ms linear infinite normal forwards}@keyframes eSfF1urTRx057_tr__tr { 0% {transform: translate(162.38287px,496.76343px) rotate(15deg);animation-timing-function: cubic-bezier(0.42,0,0.58,1)} 3.333333% {transform: translate(162.38287px,496.76343px) rotate(-15deg);animation-timing-function: cubic-bezier(0.42,0,0.58,1)} 6.666667% {transform: translate(162.38287px,496.76343px) rotate(15deg);animation-timing-function: cubic-bezier(0.42,0,0.58,1)} 10% {transform: translate(162.38287px,496.76343px) rotate(-15deg);animation-timing-function: cubic-bezier(0.42,0,0.58,1)} 13.333333% {transform: translate(162.38287px,496.76343px) rotate(15deg);animation-timing-function: cubic-bezier(0.42,0,0.58,1)} 16.666667% {transform: translate(162.38287px,496.76343px) rotate(-15deg);animation-timing-function: cubic-bezier(0.42,0,0.58,1)} 20% {transform: translate(162.38287px,496.76343px) rotate(15deg);animation-timing-function: cubic-bezier(0.42,0,0.58,1)} 23.333333% {transform: translate(162.38287px,496.76343px) rotate(-15deg);animation-timing-function: cubic-bezier(0.42,0,0.58,1)} 26.666667% {transform: translate(162.38287px,496.76343px) rotate(15deg);animation-timing-function: cubic-bezier(0.42,0,0.58,1)} 30% {transform: translate(162.38287px,496.76343px) rotate(-15deg);animation-timing-function: cubic-bezier(0.42,0,0.58,1)} 33.333333% {transform: translate(162.38287px,496.76343px) rotate(15deg);animation-timing-function: cubic-bezier(0.42,0,0.58,1)} 36.666667% {transform: translate(162.38287px,496.76343px) rotate(-15deg);animation-timing-function: cubic-bezier(0.42,0,0.58,1)} 40% {transform: translate(162.38287px,496.76343px) rotate(15deg);animation-timing-function: cubic-bezier(0.42,0,0.58,1)} 43.333333% {transform: translate(162.38287px,496.76343px) rotate(-15deg);animation-timing-function: cubic-bezier(0.42,0,0.58,1)} 46.666667% {transform: translate(162.38287px,496.76343px) rotate(15deg);animation-timing-function: cubic-bezier(0.42,0,0.58,1)} 50% {transform: translate(162.38287px,496.76343px) rotate(-15deg);animation-timing-function: cubic-bezier(0.42,0,0.58,1)} 53.333333% {transform: translate(162.38287px,496.76343px) rotate(15deg);animation-timing-function: cubic-bezier(0.42,0,0.58,1)} 56.666667% {transform: translate(162.38287px,496.76343px) rotate(-15deg);animation-timing-function: cubic-bezier(0.42,0,0.58,1)} 60% {transform: translate(162.38287px,496.76343px) rotate(15deg);animation-timing-function: cubic-bezier(0.42,0,0.58,1)} 63.333333% {transform: translate(162.38287px,496.76343px) rotate(-15deg);animation-timing-function: cubic-bezier(0.42,0,0.58,1)} 66.666667% {transform: translate(162.38287px,496.76343px) rotate(15deg);animation-timing-function: cubic-bezier(0.42,0,0.58,1)} 70% {transform: translate(162.38287px,496.76343px) rotate(-15deg);animation-timing-function: cubic-bezier(0.42,0,0.58,1)} 73.333333% {transform: translate(162.38287px,496.76343px) rotate(15deg);animation-timing-function: cubic-bezier(0.42,0,0.58,1)} 76.666667% {transform: translate(162.38287px,496.76343px) rotate(-15deg);animation-timing-function: cubic-bezier(0.42,0,0.58,1)} 80% {transform: translate(162.38287px,496.76343px) rotate(15deg);animation-timing-function: cubic-bezier(0.42,0,0.58,1)} 83.333333% {transform: translate(162.38287px,496.76343px) rotate(-15deg);animation-timing-function: cubic-bezier(0.42,0,0.58,1)} 86.666667% {transform: translate(162.38287px,496.76343px) rotate(15deg);animation-timing-function: cubic-bezier(0.42,0,0.58,1)} 90% {transform: translate(162.38287px,496.76343px) rotate(-15deg);animation-timing-function: cubic-bezier(0.42,0,0.58,1)} 93.333333% {transform: translate(162.38287px,496.76343px) rotate(15deg);animation-timing-function: cubic-bezier(0.42,0,0.58,1)} 96.666667% {transform: translate(162.38287px,496.76343px) rotate(-15deg);animation-timing-function: cubic-bezier(0.42,0,0.58,1)} 100% {transform: translate(162.38287px,496.76343px) rotate(15deg)}} #eSfF1urTRx058_tr {animation: eSfF1urTRx058_tr__tr 3000ms linear infinite normal forwards}@keyframes eSfF1urTRx058_tr__tr { 0% {transform: translate(154.36px,496.76343px) rotate(-15deg);animation-timing-function: cubic-bezier(0.42,0,0.58,1)} 3.333333% {transform: translate(154.36px,496.76343px) rotate(15deg);animation-timing-function: cubic-bezier(0.42,0,0.58,1)} 6.666667% {transform: translate(154.36px,496.76343px) rotate(-15deg);animation-timing-function: cubic-bezier(0.42,0,0.58,1)} 10% {transform: translate(154.36px,496.76343px) rotate(15deg);animation-timing-function: cubic-bezier(0.42,0,0.58,1)} 13.333333% {transform: translate(154.36px,496.76343px) rotate(-15deg);animation-timing-function: cubic-bezier(0.42,0,0.58,1)} 16.666667% {transform: translate(154.36px,496.76343px) rotate(15deg);animation-timing-function: cubic-bezier(0.42,0,0.58,1)} 20% {transform: translate(154.36px,496.76343px) rotate(-15deg);animation-timing-function: cubic-bezier(0.42,0,0.58,1)} 23.333333% {transform: translate(154.36px,496.76343px) rotate(15deg);animation-timing-function: cubic-bezier(0.42,0,0.58,1)} 26.666667% {transform: translate(154.36px,496.76343px) rotate(-15deg);animation-timing-function: cubic-bezier(0.42,0,0.58,1)} 30% {transform: translate(154.36px,496.76343px) rotate(15deg);animation-timing-function: cubic-bezier(0.42,0,0.58,1)} 33.333333% {transform: translate(154.36px,496.76343px) rotate(-15deg);animation-timing-function: cubic-bezier(0.42,0,0.58,1)} 36.666667% {transform: translate(154.36px,496.76343px) rotate(15deg);animation-timing-function: cubic-bezier(0.42,0,0.58,1)} 40% {transform: translate(154.36px,496.76343px) rotate(-15deg);animation-timing-function: cubic-bezier(0.42,0,0.58,1)} 43.333333% {transform: translate(154.36px,496.76343px) rotate(15deg);animation-timing-function: cubic-bezier(0.42,0,0.58,1)} 46.666667% {transform: translate(154.36px,496.76343px) rotate(-15deg);animation-timing-function: cubic-bezier(0.42,0,0.58,1)} 50% {transform: translate(154.36px,496.76343px) rotate(15deg);animation-timing-function: cubic-bezier(0.42,0,0.58,1)} 53.333333% {transform: translate(154.36px,496.76343px) rotate(-15deg);animation-timing-function: cubic-bezier(0.42,0,0.58,1)} 56.666667% {transform: translate(154.36px,496.76343px) rotate(15deg);animation-timing-function: cubic-bezier(0.42,0,0.58,1)} 60% {transform: translate(154.36px,496.76343px) rotate(-15deg);animation-timing-function: cubic-bezier(0.42,0,0.58,1)} 63.333333% {transform: translate(154.36px,496.76343px) rotate(15deg);animation-timing-function: cubic-bezier(0.42,0,0.58,1)} 66.666667% {transform: translate(154.36px,496.76343px) rotate(-15deg);animation-timing-function: cubic-bezier(0.42,0,0.58,1)} 70% {transform: translate(154.36px,496.76343px) rotate(15deg);animation-timing-function: cubic-bezier(0.42,0,0.58,1)} 73.333333% {transform: translate(154.36px,496.76343px) rotate(-15deg);animation-timing-function: cubic-bezier(0.42,0,0.58,1)} 76.666667% {transform: translate(154.36px,496.76343px) rotate(15deg);animation-timing-function: cubic-bezier(0.42,0,0.58,1)} 80% {transform: translate(154.36px,496.76343px) rotate(-15deg);animation-timing-function: cubic-bezier(0.42,0,0.58,1)} 83.333333% {transform: translate(154.36px,496.76343px) rotate(15deg);animation-timing-function: cubic-bezier(0.42,0,0.58,1)} 86.666667% {transform: translate(154.36px,496.76343px) rotate(-15deg);animation-timing-function: cubic-bezier(0.42,0,0.58,1)} 90% {transform: translate(154.36px,496.76343px) rotate(15deg);animation-timing-function: cubic-bezier(0.42,0,0.58,1)} 93.333333% {transform: translate(154.36px,496.76343px) rotate(-15deg);animation-timing-function: cubic-bezier(0.42,0,0.58,1)} 96.666667% {transform: translate(154.36px,496.76343px) rotate(15deg);animation-timing-function: cubic-bezier(0.42,0,0.58,1)} 100% {transform: translate(154.36px,496.76343px) rotate(-15deg)}} #eSfF1urTRx064_tr {animation: eSfF1urTRx064_tr__tr 3000ms linear infinite normal forwards}@keyframes eSfF1urTRx064_tr__tr { 0% {transform: translate(508.065001px,637.130001px) rotate(1.648815deg);animation-timing-function: cubic-bezier(0.317996,0.384525,0.566797,1)} 33.333333% {transform: translate(508.065001px,637.130001px) rotate(-7.739768deg);animation-timing-function: cubic-bezier(0.42,0,0.58,1)} 83.333333% {transform: translate(508.065001px,637.130001px) rotate(4.48135deg);animation-timing-function: cubic-bezier(0.393595,0,0.711078,0.42101)} 100% {transform: translate(508.065001px,637.130001px) rotate(1.648815deg)}} #eSfF1urTRx069_tr {animation: eSfF1urTRx069_tr__tr 3000ms linear infinite normal forwards}@keyframes eSfF1urTRx069_tr__tr { 0% {transform: translate(630.567323px,753.568542px) rotate(4.84349deg);animation-timing-function: cubic-bezier(0.42,0,0.58,1)} 50% {transform: translate(630.567323px,753.568542px) rotate(-10.601668deg);animation-timing-function: cubic-bezier(0.42,0,0.58,1)} 100% {transform: translate(630.567323px,753.568542px) rotate(4.84349deg)}} #eSfF1urTRx073 {animation: eSfF1urTRx073__m 3000ms linear infinite normal forwards}@keyframes eSfF1urTRx073__m { 0% {d: path('M26.795273,638.255195C330.853581,683.458283,402.794017,398.629487,646.485273,503.395195C948.800988,633.36424,1078.295273,496.138764,1078.295273,170.47596C1078.295273,-155.186841,1078.295273,170.471156,1078.295273,170.471156')} 100% {d: path('M20.044726,633.434808C20.044726,633.434808,-265.047694,584.247177,26.799999,637.029704C318.647692,689.812231,408.622403,395.249657,649.240007,505.171989C993.810626,662.583605,1078.295273,392.392584,1078.295273,170.475195')}} #eSfF1urTRx074_tr {animation: eSfF1urTRx074_tr__tr 3000ms linear infinite normal forwards}@keyframes eSfF1urTRx074_tr__tr { 0% {transform: translate(534.728932px,678px) rotate(0.473115deg);animation-timing-function: cubic-bezier(0.288922,0.57899,0.606405,1)} 16.666667% {transform: translate(534.728932px,678px) rotate(7.113929deg);animation-timing-function: cubic-bezier(0.42,0,0.58,1)} 66.666667% {transform: translate(534.728932px,678px) rotate(-21.538205deg);animation-timing-function: cubic-bezier(0.433203,0,0.682004,0.615475)} 100% {transform: translate(534.728932px,678px) rotate(0.473115deg)}} #eSfF1urTRx076_tr {animation: eSfF1urTRx076_tr__tr 3000ms linear infinite normal forwards}@keyframes eSfF1urTRx076_tr__tr { 0% {transform: translate(533.184227px,644.69328px) rotate(13.027323deg);animation-timing-function: cubic-bezier(0.317996,0.384525,0.566797,1)} 33.333333% {transform: translate(533.184227px,644.69328px) rotate(0deg);animation-timing-function: cubic-bezier(0.42,0,0.58,1)} 83.333333% {transform: translate(533.184227px,644.69328px) rotate(16.957665deg);animation-timing-function: cubic-bezier(0.393595,0,0.711078,0.42101)} 100% {transform: translate(533.184227px,644.69328px) rotate(13.027323deg)}} #eSfF1urTRx077_tr {animation: eSfF1urTRx077_tr__tr 3000ms linear infinite normal forwards}@keyframes eSfF1urTRx077_tr__tr { 0% {transform: translate(532.515394px,602.401853px) rotate(3.689124deg);animation-timing-function: cubic-bezier(0.317996,0.384525,0.566797,1)} 33.333333% {transform: translate(532.515394px,602.401853px) rotate(0deg);animation-timing-function: cubic-bezier(0.42,0,0.58,1)} 83.333333% {transform: translate(532.515394px,602.401853px) rotate(4.802132deg);animation-timing-function: cubic-bezier(0.393595,0,0.711078,0.42101)} 100% {transform: translate(532.515394px,602.401853px) rotate(3.689124deg)}} #eSfF1urTRx078_tr {animation: eSfF1urTRx078_tr__tr 3000ms linear infinite normal forwards}@keyframes eSfF1urTRx078_tr__tr { 0% {transform: translate(533.22px,629.17px) rotate(2.801574deg);animation-timing-function: cubic-bezier(0.288922,0.57899,0.606405,1)} 16.666667% {transform: translate(533.22px,629.17px) rotate(0deg);animation-timing-function: cubic-bezier(0.42,0,0.58,1)} 66.666667% {transform: translate(533.22px,629.17px) rotate(12.087534deg);animation-timing-function: cubic-bezier(0.433203,0,0.682004,0.615475)} 100% {transform: translate(533.22px,629.17px) rotate(2.801574deg)}} #eSfF1urTRx0107_tr {animation: eSfF1urTRx0107_tr__tr 3000ms linear infinite normal forwards}@keyframes eSfF1urTRx0107_tr__tr { 0% {transform: translate(162.38287px,496.76343px) rotate(15deg);animation-timing-function: cubic-bezier(0.42,0,0.58,1)} 3.333333% {transform: translate(162.38287px,496.76343px) rotate(-15deg);animation-timing-function: cubic-bezier(0.42,0,0.58,1)} 6.666667% {transform: translate(162.38287px,496.76343px) rotate(15deg);animation-timing-function: cubic-bezier(0.42,0,0.58,1)} 10% {transform: translate(162.38287px,496.76343px) rotate(-15deg);animation-timing-function: cubic-bezier(0.42,0,0.58,1)} 13.333333% {transform: translate(162.38287px,496.76343px) rotate(15deg);animation-timing-function: cubic-bezier(0.42,0,0.58,1)} 16.666667% {transform: translate(162.38287px,496.76343px) rotate(-15deg);animation-timing-function: cubic-bezier(0.42,0,0.58,1)} 20% {transform: translate(162.38287px,496.76343px) rotate(15deg);animation-timing-function: cubic-bezier(0.42,0,0.58,1)} 23.333333% {transform: translate(162.38287px,496.76343px) rotate(-15deg);animation-timing-function: cubic-bezier(0.42,0,0.58,1)} 26.666667% {transform: translate(162.38287px,496.76343px) rotate(15deg);animation-timing-function: cubic-bezier(0.42,0,0.58,1)} 30% {transform: translate(162.38287px,496.76343px) rotate(-15deg);animation-timing-function: cubic-bezier(0.42,0,0.58,1)} 33.333333% {transform: translate(162.38287px,496.76343px) rotate(15deg);animation-timing-function: cubic-bezier(0.42,0,0.58,1)} 36.666667% {transform: translate(162.38287px,496.76343px) rotate(-15deg);animation-timing-function: cubic-bezier(0.42,0,0.58,1)} 40% {transform: translate(162.38287px,496.76343px) rotate(15deg);animation-timing-function: cubic-bezier(0.42,0,0.58,1)} 43.333333% {transform: translate(162.38287px,496.76343px) rotate(-15deg);animation-timing-function: cubic-bezier(0.42,0,0.58,1)} 46.666667% {transform: translate(162.38287px,496.76343px) rotate(15deg);animation-timing-function: cubic-bezier(0.42,0,0.58,1)} 50% {transform: translate(162.38287px,496.76343px) rotate(-15deg);animation-timing-function: cubic-bezier(0.42,0,0.58,1)} 53.333333% {transform: translate(162.38287px,496.76343px) rotate(15deg);animation-timing-function: cubic-bezier(0.42,0,0.58,1)} 56.666667% {transform: translate(162.38287px,496.76343px) rotate(-15deg);animation-timing-function: cubic-bezier(0.42,0,0.58,1)} 60% {transform: translate(162.38287px,496.76343px) rotate(15deg);animation-timing-function: cubic-bezier(0.42,0,0.58,1)} 63.333333% {transform: translate(162.38287px,496.76343px) rotate(-15deg);animation-timing-function: cubic-bezier(0.42,0,0.58,1)} 66.666667% {transform: translate(162.38287px,496.76343px) rotate(15deg);animation-timing-function: cubic-bezier(0.42,0,0.58,1)} 70% {transform: translate(162.38287px,496.76343px) rotate(-15deg);animation-timing-function: cubic-bezier(0.42,0,0.58,1)} 73.333333% {transform: translate(162.38287px,496.76343px) rotate(15deg);animation-timing-function: cubic-bezier(0.42,0,0.58,1)} 76.666667% {transform: translate(162.38287px,496.76343px) rotate(-15deg);animation-timing-function: cubic-bezier(0.42,0,0.58,1)} 80% {transform: translate(162.38287px,496.76343px) rotate(15deg);animation-timing-function: cubic-bezier(0.42,0,0.58,1)} 83.333333% {transform: translate(162.38287px,496.76343px) rotate(-15deg);animation-timing-function: cubic-bezier(0.42,0,0.58,1)} 86.666667% {transform: translate(162.38287px,496.76343px) rotate(15deg);animation-timing-function: cubic-bezier(0.42,0,0.58,1)} 90% {transform: translate(162.38287px,496.76343px) rotate(-15deg);animation-timing-function: cubic-bezier(0.42,0,0.58,1)} 93.333333% {transform: translate(162.38287px,496.76343px) rotate(15deg);animation-timing-function: cubic-bezier(0.42,0,0.58,1)} 96.666667% {transform: translate(162.38287px,496.76343px) rotate(-15deg);animation-timing-function: cubic-bezier(0.42,0,0.58,1)} 100% {transform: translate(162.38287px,496.76343px) rotate(15deg)}} #eSfF1urTRx0108_tr {animation: eSfF1urTRx0108_tr__tr 3000ms linear infinite normal forwards}@keyframes eSfF1urTRx0108_tr__tr { 0% {transform: translate(154.36px,496.76343px) rotate(-15deg);animation-timing-function: cubic-bezier(0.42,0,0.58,1)} 3.333333% {transform: translate(154.36px,496.76343px) rotate(15deg);animation-timing-function: cubic-bezier(0.42,0,0.58,1)} 6.666667% {transform: translate(154.36px,496.76343px) rotate(-15deg);animation-timing-function: cubic-bezier(0.42,0,0.58,1)} 10% {transform: translate(154.36px,496.76343px) rotate(15deg);animation-timing-function: cubic-bezier(0.42,0,0.58,1)} 13.333333% {transform: translate(154.36px,496.76343px) rotate(-15deg);animation-timing-function: cubic-bezier(0.42,0,0.58,1)} 16.666667% {transform: translate(154.36px,496.76343px) rotate(15deg);animation-timing-function: cubic-bezier(0.42,0,0.58,1)} 20% {transform: translate(154.36px,496.76343px) rotate(-15deg);animation-timing-function: cubic-bezier(0.42,0,0.58,1)} 23.333333% {transform: translate(154.36px,496.76343px) rotate(15deg);animation-timing-function: cubic-bezier(0.42,0,0.58,1)} 26.666667% {transform: translate(154.36px,496.76343px) rotate(-15deg);animation-timing-function: cubic-bezier(0.42,0,0.58,1)} 30% {transform: translate(154.36px,496.76343px) rotate(15deg);animation-timing-function: cubic-bezier(0.42,0,0.58,1)} 33.333333% {transform: translate(154.36px,496.76343px) rotate(-15deg);animation-timing-function: cubic-bezier(0.42,0,0.58,1)} 36.666667% {transform: translate(154.36px,496.76343px) rotate(15deg);animation-timing-function: cubic-bezier(0.42,0,0.58,1)} 40% {transform: translate(154.36px,496.76343px) rotate(-15deg);animation-timing-function: cubic-bezier(0.42,0,0.58,1)} 43.333333% {transform: translate(154.36px,496.76343px) rotate(15deg);animation-timing-function: cubic-bezier(0.42,0,0.58,1)} 46.666667% {transform: translate(154.36px,496.76343px) rotate(-15deg);animation-timing-function: cubic-bezier(0.42,0,0.58,1)} 50% {transform: translate(154.36px,496.76343px) rotate(15deg);animation-timing-function: cubic-bezier(0.42,0,0.58,1)} 53.333333% {transform: translate(154.36px,496.76343px) rotate(-15deg);animation-timing-function: cubic-bezier(0.42,0,0.58,1)} 56.666667% {transform: translate(154.36px,496.76343px) rotate(15deg);animation-timing-function: cubic-bezier(0.42,0,0.58,1)} 60% {transform: translate(154.36px,496.76343px) rotate(-15deg);animation-timing-function: cubic-bezier(0.42,0,0.58,1)} 63.333333% {transform: translate(154.36px,496.76343px) rotate(15deg);animation-timing-function: cubic-bezier(0.42,0,0.58,1)} 66.666667% {transform: translate(154.36px,496.76343px) rotate(-15deg);animation-timing-function: cubic-bezier(0.42,0,0.58,1)} 70% {transform: translate(154.36px,496.76343px) rotate(15deg);animation-timing-function: cubic-bezier(0.42,0,0.58,1)} 73.333333% {transform: translate(154.36px,496.76343px) rotate(-15deg);animation-timing-function: cubic-bezier(0.42,0,0.58,1)} 76.666667% {transform: translate(154.36px,496.76343px) rotate(15deg);animation-timing-function: cubic-bezier(0.42,0,0.58,1)} 80% {transform: translate(154.36px,496.76343px) rotate(-15deg);animation-timing-function: cubic-bezier(0.42,0,0.58,1)} 83.333333% {transform: translate(154.36px,496.76343px) rotate(15deg);animation-timing-function: cubic-bezier(0.42,0,0.58,1)} 86.666667% {transform: translate(154.36px,496.76343px) rotate(-15deg);animation-timing-function: cubic-bezier(0.42,0,0.58,1)} 90% {transform: translate(154.36px,496.76343px) rotate(15deg);animation-timing-function: cubic-bezier(0.42,0,0.58,1)} 93.333333% {transform: translate(154.36px,496.76343px) rotate(-15deg);animation-timing-function: cubic-bezier(0.42,0,0.58,1)} 96.666667% {transform: translate(154.36px,496.76343px) rotate(15deg);animation-timing-function: cubic-bezier(0.42,0,0.58,1)} 100% {transform: translate(154.36px,496.76343px) rotate(-15deg)}}
]]></style>
<g transform="matrix(.370371 0 0 0.370371 152.126897-.00034)"><g transform="translate(.164994 0)"><path d="M521.81,1010.66v10.93h-1.11v-8.74l-4.29,7.35h-.55l-4.29-7.31v8.7h-1.11v-10.93h1l4.75,8.1l4.69-8.1Z" fill="#3f3f3f"/><path d="M544.48,1018.67h-6.08l-1.31,2.92h-1.21l5-10.93h1.12l5,10.93h-1.2Zm-.42-.94l-2.62-5.87-2.62,5.87Z" fill="#3f3f3f"/><path d="M564.84,1017.81v3.78h-1.14v-3.78l-4.37-7.15h1.23l3.75,6.13l3.74-6.13h1.16Z" fill="#3f3f3f"/></g><g mask="url(#eSfF1urTRx040)"><g><rect width="1080" height="1080" rx="0" ry="0" transform="matrix(1.779616 0 0 1-426.263708 0)" fill="#ffe6e3"/><g id="eSfF1urTRx010_tr" transform="translate(603.21,786.54) rotate(-1.294744)"><path d="M603.14,786.54c9.93-238.75,21-409.13,74.67-635.64c0,0,12.41,125.38,9.6,254.53L644.12,630.08Z" transform="translate(-603.21,-786.54)" fill="#abd85d"/></g><g id="eSfF1urTRx011_tr" transform="translate(611.411825,786.54) rotate(4.406352)"><path d="M603.21,785l36.35-271.22c0,0,30.11-264.2,98.54-383.93L711.93,446.33L620.91,789Z" transform="translate(-611.411825,-786.54)" fill="#7ea04d"/></g><g id="eSfF1urTRx012_tr" transform="translate(426.765001,723.07) rotate(2.909731)"><path d="M304.58,451.3c-1.59-83,103.57,131.4,122.18,271.77c0,0-120.61-189.57-122.18-271.77Z" transform="translate(-426.764999,-723.07)" fill="#bfe85f"/></g><g id="eSfF1urTRx013_tr" transform="translate(399.860001,721.48) rotate(-3.547416)"><path d="M296.07,555.94c-8.49-53.75,79.08,76,103.79,165.54c0,0-95.38-112.29-103.79-165.54Z" transform="translate(-399.86,-721.479998)" fill="#bfe85f"/></g><g id="eSfF1urTRx014_tr" transform="translate(453.670001,782.2) rotate(0)"><g transform="translate(-453.669999,-782.2)"><path d="M453.67,782.2c0-113.4-53.81-234-53.81-234" fill="none" stroke="#3f3f3f" stroke-width="4" stroke-miterlimit="10"/><g id="eSfF1urTRx016_tr" transform="translate(421.57,605.5) rotate(-13.084234)"><path d="M226.23,414c0,0,97.67,57.68,195.34,191.5v0c-42.577198-17.984442-79.344893-47.404136-106.23-85-26.979095-37.693297-56.767188-73.294598-89.11-106.5Z" transform="translate(-421.569997,-605.5)" fill="#3f3f3f"/></g><g id="eSfF1urTRx017_tr" transform="translate(406.45,563.57) rotate(-2.839713)"><path d="M406.45,563.57C363,364.62,234.27,294.4,234.27,294.4s49.16,98.77,93.63,175.78Z" transform="translate(-406.449998,-563.569994)" fill="#3f3f3f"/></g></g></g><g id="eSfF1urTRx018_tr" transform="translate(698.42,738.500001) rotate(15.92348)"><g transform="translate(-698.42,-738.5)"><path d="M698.42,738.5c0-54.21,26.65-135.82,33.24-149.35" fill="none" stroke="#3f3f3f" stroke-width="4" stroke-miterlimit="10"/><g id="eSfF1urTRx020_tr" transform="translate(709.030001,660.81) rotate(0)"><path d="M820.33,522.09c43.78-23.33-41.94,90.78-111.68,138.72c0,0,68.35-115.61,111.68-138.72Z" transform="translate(-709.030001,-660.809999)" fill="#3f3f3f"/></g><g id="eSfF1urTRx021_tr" transform="translate(720.933098,614.84) rotate(0)"><path d="M720.53,614.84C753.07,463,799.42,398.34,807.62,406c10.74,10.09-28.31,124.22-87.09,208.8" transform="translate(-720.933097,-614.84)" fill="#3f3f3f"/></g></g></g><g id="eSfF1urTRx022_tr" transform="translate(499.620001,740) rotate(-9.698528)"><g transform="translate(-499.62,-740)"><path d="M637.16,175.26c-215.53,184.28-277,354.94-137.78,565.17v0C803.54,534.29,637.16,175.26,637.16,175.26Z" fill="#3f3f3f"/><path d="M499.62,740q8-21.65,15.69-43.4c5.09-14.52,10-29.09,14.93-43.66s9.62-29.22,14.23-43.89s9.11-29.37,13.58-44.09v.17c.45-2.33,1-4.69,1.6-7c.64992-2.336393,1.42436-4.636346,2.32-6.89l-.06.19c8.44-30.88,16.66-61.81,24.24-92.9s14.73-62.28,21.22-93.61s12.34-62.8,17.27-94.42l3.56-23.74L631.49,223l3-23.83l2.69-23.87-1.94,24-2.39,23.91L630.08,247l-3.18,23.82c-4.52,31.73-9.79,63.36-16.06,94.79s-13.26,62.71-20.84,93.84-15.87,62.1-24.63,92.92v.1.09c-.861249,2.125469-1.60897,4.295194-2.24,6.5-.63,2.2-1.13,4.46-1.6,6.75v.09.08q-6.82,22.07-14.13,44t-14.9,43.71c-5.08,14.54-10.4,29-15.86,43.37s-11.17,28.7-17.02,42.94Z" fill="#7ea04d"/><path d="M518.65,294.4c3.07,7.09,6.05,14.22,9,21.35s6,14.25,8.9,21.41s5.86,14.3,8.76,21.46s5.8,14.33,8.65,21.51c5.76,14.34,11.39,28.73,17,43.11l8.38,21.61q4.2,10.8,8.31,21.64l-3-.65l24.18-23l24.27-22.92l12.17-11.43L657.6,397.1c8.15-7.58,16.29-15.18,24.51-22.68-7.8,7.95-15.67,15.81-23.53,23.69l-11.8,11.81-11.85,11.75-23.77,23.45-23.86,23.35-1.94,1.9-1-2.55q-4.32-10.77-8.53-21.56l-8.47-21.57c-5.57-14.42-11.18-28.82-16.65-43.27q-4.14-10.82-8.2-21.68t-8.12-21.74c-2.69-7.24-5.32-14.51-7.94-21.78s-5.27-14.52-7.8-21.82Z" fill="#7ea04d"/><path d="M560.92,559.81c9.1-7.77,18.44-15.22,27.86-22.57c4.69-3.7,9.46-7.28,14.19-10.92l14.33-10.75L631.75,505c4.86-3.46,9.68-7,14.59-10.39c9.77-6.87,19.62-13.63,29.71-20.07-9.1,7.78-18.43,15.24-27.85,22.58-4.69,3.7-9.47,7.28-14.2,10.93l-14.32,10.74-14.46,10.57c-4.86,3.47-9.68,7-14.59,10.39-9.77,6.86-19.63,13.62-29.71,20.06Z" fill="#7ea04d"/></g></g><path d="M479.43,1008.48c163.7,1.94,567,36.69,275.51-205.39s-391.3-.09-427.24,80.56-7.93,122.94,151.73,124.83Z" fill="#ad9993"/><g transform="translate(.000001 0.000001)"><polygon points="709.03,789.72 616.86,802.72 616.86,767.86 709.03,789.72" fill="#3f3f3f"/><path d="M747.87,730.7c35.77,55.34-42.66,68.47-109.06,57-80.76-13.93,11.44-208.05,109.06-57Z" fill="#bab5ac"/><path d="M662,695.16c-1.544765-.76115-3.364598-.716308-4.87.12-4.49,2.41-2.42,8.22,2.59,9.17c6.28,1.18,6.94-7.21,2.28-9.29Z" fill="#d4d2cd"/><path d="M692.93,695.14c-5.68-6-7.3,8.34-2.29,9.29c6.24,1.18,5.79-5.59,2.29-9.29Z" fill="#d4d2cd"/><path d="M671.2,686.49c-6.33-.47-7.48,2-3.59,5.3c6.32,5.32,8.68-4.92,3.59-5.3Z" fill="#d4d2cd"/></g><g transform="translate(0 0.000001)"><polygon points="308.97,857.92 553.69,833.93 349.85,796.23 308.97,857.92" fill="#3f3f3f"/><path d="M439.78,832.55C539.93,833.73,786.66,855,608.34,706.89s-239.4-.06-261.38,49.28-4.86,75.22,92.82,76.38Z" fill="#d4d2cd"/><path d="M454.13,706.74c-8.63,5.77.18,16.35,8,13.46c2.672366-.887081,4.743926-3.022094,5.55-5.72c2.46-7.97-6.61-12.38-13.55-7.74Z" fill="#e0ded9"/><path d="M445.8,669.29c-8.62,5.77-.33,13.16,8,13.46c13.49.49-1.06-18.1-8-13.46Z" fill="#e0ded9"/><path d="M484.57,705.16c7.93-6.7,6.41-10.93-1.89-10.3-13.47,1.03-4.48,15.69,1.89,10.3Z" fill="#e0ded9"/></g></g><mask id="eSfF1urTRx040" mask-type="luminance" x="-150%" y="-150%" height="400%" width="400%"><path d="M853.81,480.61C853.81,743.75,540,957.5,540,957.5s-313.81-213.75-313.81-476.89C226.19,307.3,366.69,166.8,540,166.8s313.81,140.5,313.81,313.81Z" fill="#fff"/></mask></g><g><g id="eSfF1urTRx043_tr" transform="translate(649.24,682.19) rotate(7.617458)"><path d="M678,678.92l-28.76,3.27l30.3-206.7L798,219.38c0,0-16.7,170.37-95.89,395.07Z" transform="translate(-649.239989,-682.189975)" fill="#abd85d"/></g><g id="eSfF1urTRx044_tr" transform="translate(459,637.130001) rotate(4.741566)"><g transform="translate(-459,-637.13)"><path d="M384.35,160.43c-141.14,297.41,17.78,376.89,73.4,427.81v0c180.3-226.45-73.4-427.81-73.4-427.81Z" fill="#7ea04d"/><path d="M458.91,637.13L458.36,622l-.48-15.13-.47-15.13-.12-3.78-.24-3.77-.48-7.56-1.75-30.2c-.16-2.52-.24-5-.48-7.55l-.66-7.53-1.32-15.07L451,501.21c-.24-2.51-.4-5-.67-7.53l-.84-7.52-3.34-30.05c-.51-5-1.25-10-1.91-15l-2-15-2-15c-.73-5-1.57-10-2.35-14.94-6-39.88-13.63-79.5-22.35-118.87l-1.61-7.39-1.74-7.36-3.48-14.72c-1.12-4.92-2.43-9.79-3.66-14.67l-3.76-14.66c-5.17-19.49-10.56-38.95-16.94-58.1.46,1.18.94,2.34,1.38,3.53l1.29,3.56l1.29,3.56l1.23,3.58l2.42,7.18c.81,2.39,1.55,4.8,2.32,7.2c3.15,9.6,6,19.3,8.9,29c1.38,4.86,2.69,9.73,4,14.6s2.73,9.73,3.94,14.63l3.76,14.68l1.87,7.34l1.75,7.38l3.5,14.75l1.71,7.38c.57,2.46,1,4.94,1.58,7.41c2.05,9.9,4.19,19.77,6.16,29.68L437,365.67c1,5,1.67,10,2.5,14.95l2.39,15c.76,5,1.6,10,2.31,15l2,15l2,15c.64,5,1.38,10,1.83,15.05L453,485.82l.77,7.54c.25,2.51.4,5,.58,7.56L455.41,516l1,15.11.53,7.56c.19,2.52.22,5,.34,7.57l1.19,30.28.26,7.56.12,3.79v3.79v15.15L459,622Z" fill="#3f3f3f"/><path d="M330.82,324.6c5.2,6.31,10.32,12.69,15.44,19.06s10.26,12.73,15.32,19.14s10.16,12.82,15.2,19.25s10.1,12.85,15.11,19.31c10.07,12.88,20,25.84,30,38.79l14.88,19.49q7.46,9.74,14.82,19.53h-2.88L466.57,457l18-22.11l9-11l9.08-11c6.06-7.31,12.1-14.64,18.24-21.89-5.65,7.63-11.4,15.19-17.14,22.76l-8.6,11.36-8.67,11.31-17.4,22.55-17.51,22.47-1.43,1.84-1.45-1.86q-7.55-9.66-15-19.38l-14.95-19.44c-9.91-13-19.84-26-29.66-39q-7.4-9.78-14.72-19.61t-14.63-19.68q-7.32-9.84-14.51-19.77c-4.83-6.69-9.66-13.28-14.4-19.95Z" fill="#3f3f3f"/><path d="M351,474.57c9,3.88,17.84,8.11,26.61,12.46c4.4,2.14,8.73,4.41,13.09,6.62l13,6.83l12.89,7c4.26,2.4,8.55,4.74,12.78,7.21c8.48,4.87,16.9,9.86,25.14,15.21-9-3.88-17.85-8.11-26.61-12.46-4.4-2.14-8.73-4.42-13.1-6.62l-13-6.83L389,497c-4.26-2.41-8.55-4.75-12.78-7.22-8.53-4.88-16.96-9.87-25.22-15.21Z" fill="#3f3f3f"/><path d="M446.28,446.33c4.28-10.06,8.92-19.94,13.68-29.76c2.35-4.92,4.82-9.78,7.23-14.67l7.44-14.57l7.62-14.47c2.61-4.79,5.15-9.61,7.83-14.36c5.28-9.55,10.69-19,16.45-28.32-4.28,10.06-8.92,19.94-13.68,29.75-2.34,4.93-4.82,9.79-7.24,14.68l-7.43,14.56-7.63,14.47c-2.61,4.79-5.16,9.61-7.83,14.37-5.28,9.54-10.72,18.99-16.44,28.32Z" fill="#3f3f3f"/></g></g><path id="eSfF1urTRx051" d="M22.895273,424.465194c154.25887,0,220.107853-96.62,309.88-96.62c95.233388,0,110.737484,74.158023,91.07,65.55-28.696383-12.559772,77.873112-66.3826,230.33,31.07s294.599665,96.874337,405.7,21.57s0,0,0,0" transform="translate(.000001 0.000002)" fill="none" stroke="#fff" stroke-width="1.5"/><circle r="109.52" transform="translate(540.63 495.98)" fill="#fff"/><g id="eSfF1urTRx053_to" style="offset-path:path('M-410.741924,578.279501C-83.451058,262.976027,388.990776,429.150274,540.082317,549.365228C691.173858,669.580182,1172.597452,810.984316,1479.254863,476.791826');offset-rotate:auto"><g id="eSfF1urTRx053" transform="translate(-159.300003,-499.184677)" opacity="0"><path d="M156,525.27c0,0,5.89-2.92,4.51-8h6.86c.550146,3.16406-.749714,6.365207-3.35,8.25" fill="none" stroke="#3f3f3f" stroke-width="2" stroke-linecap="round" stroke-linejoin="round"/><path d="M154.36,517.3c-.798548,3.456558-3.529081,6.136381-7,6.87" fill="none" stroke="#3f3f3f" stroke-width="2" stroke-linecap="round" stroke-linejoin="round"/><g transform="translate(.000001 0)"><g id="eSfF1urTRx057_tr" transform="translate(162.38287,496.76343) rotate(15)"><path d="M159.89,496.52c-3.54-23.43,5.13-25.52,8.55-22.15c4.2,4.13-1.29,17.2-5.05,22.94Z" transform="translate(-162.382868,-496.763425)" fill="#f5f5f5"/></g><g id="eSfF1urTRx058_tr" transform="translate(154.36,496.76343) rotate(-15)"><path d="M152.77,497.31c-13.09-20.53-3.82-26.1.07-24.07c5.19,2.7,4.74,16.72,3.47,23.46Z" transform="translate(-154.36,-496.763422)" fill="#f5f5f5"/></g></g><ellipse rx="27.94" ry="13.64" transform="translate(159.3 505.74)" fill="#3f3f3f"/><path d="M161.38,492.13L163,519.31c2-.09,3.84-.15,5.7-.41l4.3-25.49c-3.812253-.865982-7.710657-1.29541-11.62-1.28Z" fill="#e0ded9"/><path d="M137.06,497.49c.83,5.48,1.81,12,2.73,18c4.050845,1.858466,8.377608,3.044019,12.81,3.51v-26.5c-6.27.62-11.81,2.5-15.54,4.99Z" fill="#e0ded9"/><circle r="4.8" transform="translate(178.7 506.54)" fill="#fff"/><circle r="2.97" transform="translate(176.87 507.99)" fill="#3f3f3f"/></g></g><g id="eSfF1urTRx064_tr" transform="translate(508.065001,637.130001) rotate(1.648815)"><g transform="translate(-508.065,-637.13)"><path d="M523.11,70.11c136.26,198,27.23,312.1-33.07,366.41v0C338,234.45,523.11,70.11,523.11,70.11Z" fill="#abd85d"/><path d="M523.12,70.11L520,87.68l-3,17.58-2.81,17.6-2.64,17.63q-5.24,35.25-9.1,70.69c-2.51,23.62-4.74,47.27-6.38,71s-2.94,47.42-3.64,71.14q-.81,35.6-.54,71.25c.14,23.75.83,47.49,1.87,71.22s2.73,47.43,5.05,71.07l1.79,17.73l2.06,17.71l2.33,17.67l2.54,17.65L504.45,620l-2.78-17.62-2.51-17.66L496.92,567c-2.72-23.64-4.72-47.36-6.18-71.12s-2.2-47.55-2.57-71.34-.15-47.59.32-71.4q2.31-71.4,11-142.34q4.39-35.43,10.21-70.64l3.08-17.58L516,105.07l3.43-17.5Z" fill="#3f3f3f"/><path d="M583.11,199.46c-6.92,10.52-14.15,20.81-21.5,31-3.64,5.13-7.4,10.17-11.1,15.25l-11.28,15.1-11.45,15c-3.88,4.94-7.69,9.93-11.63,14.83-7.81,9.85-15.74,19.62-24,29.14c6.91-10.53,14.14-20.81,21.49-31c3.64-5.12,7.4-10.16,11.1-15.24L536,258.41l11.46-15c3.87-4.95,7.7-9.94,11.63-14.84c7.85-9.82,15.78-19.57,24.02-29.11Z" fill="#3f3f3f"/><path d="M586,281.55c-7.65,7.05-15.42,13.95-23.2,20.85l-11.7,10.29-11.77,10.22q-11.8,10.18-23.67,20.29c-8,6.7-15.84,13.46-23.83,20.1l-1.68,1.39-1.15-1.78c-5-7.3-10.06-14.58-15-21.93l-7.46-11-7.39-11.05c-4.94-7.35-9.8-14.76-14.66-22.17s-9.65-14.87-14.36-22.38c5.37,7.06,10.63,14.19,15.88,21.33s10.45,14.31,15.59,21.53L469.3,328l7.7,10.9c5.13,7.22,10.17,14.5,15.24,21.77l-2.89-.39c7.91-6.74,15.93-13.35,23.89-20s16-13.25,24-19.83l12.1-9.83l12.15-9.77c8.15-6.5,16.28-12.98,24.51-19.3Z" fill="#3f3f3f"/></g></g><g id="eSfF1urTRx069_tr" transform="translate(630.567323,753.568542) rotate(4.84349)"><g transform="translate(-630.567322,-753.568485)"><path d="M631.89,753.27c-6.29-98.52,8.257436-240.35761,8.257436-240.35761" fill="none" stroke="#bfe85f" stroke-width="4" stroke-miterlimit="10"/><path d="M639.53,526.43c6.6-186.54,111.2-270.95,111.2-270.95s-28.15,97.13-55.65,173.87Z" transform="matrix(.987342-.158603 0.158603 0.987342-75.99407 108.145078)" fill="#bfe85f"/></g></g><path id="eSfF1urTRx073" d="M26.795273,638.255195c304.058308,45.203088,375.998744-239.625708,619.69-134.86c302.315715,129.969045,431.81-7.256431,431.81-332.919235s0-.004804,0-.004804" transform="translate(.000001 0.000001)" fill="none" stroke="#fff" stroke-width="1.5"/><g id="eSfF1urTRx074_tr" transform="translate(534.728932,678) rotate(0.473115)"><g transform="translate(-534.728932,-677.999997)"><path d="M536.46,678c-2.86-27-4.83-72.85-2.3-99.71" fill="none" stroke="#bfe85f" stroke-width="4" stroke-miterlimit="10"/><g id="eSfF1urTRx076_tr" transform="translate(533.184227,644.69328) rotate(13.027323)"><path d="M592.17,499c-30.83,30.56-59.28,145.73-59.28,145.73c46.83-58.25,90.4-176.57,59.28-145.73Z" transform="translate(-533.184227,-644.69328)" fill="#bfe85f"/></g><g id="eSfF1urTRx077_tr" transform="translate(532.515394,602.401853) rotate(3.689124)"><path d="M552,404.05c-8.9-4.44-31.7,62-20.68,198.79c28.21-86.5,32.28-192.99,20.68-198.79Z" transform="translate(-532.515394,-602.401853)" fill="#bfe85f"/></g><g id="eSfF1urTRx078_tr" transform="translate(533.22,629.17) rotate(2.801574)"><path d="M475,483c-1,43.4,58.22,146.17,58.22,146.17C526.58,554.71,476,439.2,475,483Z" transform="translate(-533.22,-629.17)" fill="#bfe85f"/></g></g></g><g><g transform="translate(.000001 0)"><path d="M616.49,784.52c19.91-83.7,39-41.22,62.35,17.27c13.59,34.02-79.33,54.15-62.35-17.27Z" fill="#fff"/><path d="M672.52,786.21l-58.11,10.94c.783117-7.405271,2.259593-14.72069,4.41-21.85Z" fill="#3f3f3f"/><path d="M620.18,788.21c42,.5,115.9,1.88,70.64-52.66-50.31-60.64-100.33,0-109.55,20.65s-2.03,31.53,38.91,32.01Z" fill="#ff6e59"/><path d="M640.77,736.16c-6.11,4.08.12,11.58,5.66,9.53c1.893257-.626445,3.360765-2.138763,3.93-4.05c1.76-5.64-4.67-8.77-9.59-5.48Z" fill="#fff"/><path d="M600.17,741.56c-6.11,4.09-.24,9.32,5.66,9.54c9.56.34-.74-12.83-5.66-9.54Z" fill="#fff"/><path d="M636.14,759.72c-9.54.73-3.18,11.12,1.34,7.3c5.62-4.75,4.52-7.75-1.34-7.3Z" fill="#fff"/><path d="M658.61,723.25c-3.26-.65-3.67,3.75-1.24,4.87.802975.414597,1.757025.414597,2.56,0c2.37-1.29,1.31-4.35-1.32-4.87Z" fill="#fff"/><path d="M615.45,756.56c-1.76-.35-2,2-.67,2.61.430391.219083.939609.219083,1.37,0c1.27-.69.71-2.33-.7-2.61Z" fill="#fff"/><path d="M629.25,720.7c-1.76-.34-2,2-.67,2.61.427873.229338.942127.229338,1.37,0c1.27-.68.71-2.31-.7-2.61Z" fill="#fff"/><path d="M669.27,747.47c-3.86-.77-4.34,4.44-1.47,5.76.94946.468498,2.066679.449877,3-.05c2.84-1.47,1.58-5.1-1.53-5.71Z" fill="#fff"/><path d="M622.48,734.89c-5-1-4.68,4.43-1.9,7.42c4.5,4.84,5.9-6.63,1.9-7.42Z" fill="#fff"/><path d="M649.72,715.88c-7.27-6.23-10.11,5.62-4.22,6.11c7.33.61,8.69-2.27,4.22-6.11Z" fill="#fff"/><path d="M685.09,740.43c-.6-9.55-11.08-3.32-7.32,1.24c4.67,5.68,7.69,4.65,7.32-1.24Z" fill="#fff"/></g><g><path d="M605,818.59c-18.39-55-29.92-31.65-47.86,13.26C546.66,858,623,872.52,605,818.59Z" fill="#fff"/><path d="M556.33,839l34.1-.25L560,825c0,0-5.25,8.59-3.67,14Z" fill="#3f3f3f"/><path d="M563.92,833.34c-35.75-17.43-26.87-65.92,18.57-69.36c75.51-5.72,62.65,108.96-18.57,69.36Z" fill="#ff8675"/><path d="M591.13,787.66c-6.5,4.82-12-4.42-7.78-9.4c1.356483-1.72611,3.467663-2.68472,5.66-2.57c6.5.31,7.35,8.1,2.12,11.97Z" fill="#fff"/><path d="M584.94,800.87c-.64,4.29-6.21,2.86-6.52-.61-.142012-1.168555.294639-2.33296,1.17-3.12c2.57-2.37,5.86.28,5.35,3.73Z" fill="#fff"/><path d="M610,805.1c-1.41,9.52-13.76,6.33-14.44-1.35-.314919-2.592792.655672-5.176059,2.6-6.92c5.64-5.23,12.93.62,11.84,8.27Z" fill="#fff"/></g><path d="M639.8,684.37c0,0,22.52-20.08,54.67-5.76Z" fill="#bab5ac"/><path d="M493.15,644.75C511.51,793.32,596,697,596,697s-51.42-43.12-102.85-52.25Z" fill="#d4d2cd"/></g></g></g></svg>
