<svg viewBox="0 0 261 157" fill="none" xmlns="http://www.w3.org/2000/svg"><rect width="261" height="37" rx="4" fill="#0082CA"/><path d="m231.058 16.267 3.385 3.535 3.385-3.535a.843.843 0 0 1 1.23 0 .935.935 0 0 1 0 1.284l-4.004 4.183a.843.843 0 0 1-1.23 0l-4.005-4.183a.937.937 0 0 1 0-1.284.861.861 0 0 1 1.239 0Z" fill="#fff"/><path d="M17.5 55.5h225A3.5 3.5 0 0 1 246 59v2a3.5 3.5 0 0 1-3.5 3.5h-225A3.5 3.5 0 0 1 14 61v-2a3.5 3.5 0 0 1 3.5-3.5Z" fill="#DAE3FE" stroke="#DAE3FE"/><rect x="14.5" y="71.5" width="232" height="8" rx="3.5" fill="#DAE3FE" stroke="#DAE3FE"/><rect x="14.5" y="87.5" width="232" height="9" rx="3.5" fill="#DAE3FE" stroke="#DAE3FE"/><rect x="14.5" y="104.5" width="232" height="9" rx="3.5" fill="#DAE3FE" stroke="#DAE3FE"/><rect x="14.5" y="121.5" width="232" height="8" rx="3.5" fill="#DAE3FE" stroke="#DAE3FE"/><rect x="14.5" y="137.5" width="232" height="9" rx="3.5" fill="#DAE3FE" stroke="#DAE3FE"/><rect x=".5" y="43.5" width="260" height="113" rx="3.5" stroke="#DAE3FE"/></svg>
