<svg xmlns="http://www.w3.org/2000/svg" xml:space="preserve" baseProfile="tiny" version="1.2" viewBox="0 0 282 158"><path fill="#0082CA" stroke="#DAE3FE" d="M8 .5h266c4.1 0 7.5 3.4 7.5 7.5v142c0 4.1-3.4 7.5-7.5 7.5H8c-4.1 0-7.5-3.4-7.5-7.5V8C.5 3.9 3.9.5 8 .5z"/>
  <g fill="#FFF">
  <path d="m30 138-12 6.9V131l12 7z"/>
    <path fill-opacity=".36" d="M112 136h151c1.1 0 2 .9 2 2s-.9 2-2 2H112c-1.1 0-2-.9-2-2s.9-2 2-2z"/>
    <path
      d="M112 136h62c1.1 0 2 .9 2 2s-.9 2-2 2h-62c-1.1 0-2-.9-2-2s.9-2 2-2zM42.8 142h4.6v-.8H44v-.1l1.6-1.7c1.3-1.3 1.6-2 1.6-2.8 0-1.1-.9-2-2.2-2-1.3 0-2.2.9-2.2 2.1h.8c0-.8.5-1.4 1.4-1.4.8 0 1.4.5 1.4 1.3 0 .7-.4 1.2-1.2 2.1l-2.4 2.6v.7zm7.1-.9c.4 0 .6-.3.6-.6 0-.4-.3-.6-.6-.6-.4 0-.6.3-.6.6s.3.6.6.6zm0-3.7c.4 0 .6-.3.6-.6 0-.4-.3-.6-.6-.6-.4 0-.6.3-.6.6s.3.6.6.6zm5.2-2.7h-.9l-1.8 1.2v.9l1.8-1.2v6.3h.9v-7.2zm5 7.4c1.6 0 2.5-1.4 2.5-3.7 0-2.4-.9-3.7-2.5-3.7s-2.5 1.4-2.5 3.7c0 2.3.9 3.7 2.5 3.7zm0-.8c-1.1 0-1.7-1.1-1.7-3s.6-3 1.7-3 1.7 1.1 1.7 3c0 2-.7 3-1.7 3zm10.3-6.9h-.8l-2.3 8.7h.7l2.4-8.7zm4.6 6.1h3.4v1.5h.8v-1.5h1v-.8h-1v-5h-1.1l-3.2 5.1.1.7zm3.4-.8h-2.5v-.1l2.4-3.8h.1v3.9zm4.3 1.4c.4 0 .6-.3.6-.6 0-.4-.3-.6-.6-.6-.4 0-.6.3-.6.6s.2.6.6.6zm0-3.7c.4 0 .6-.3.6-.6 0-.4-.3-.6-.6-.6-.4 0-.6.3-.6.6s.2.6.6.6zm5 4.7c1.6 0 2.5-1.4 2.5-3.7 0-2.4-.9-3.7-2.5-3.7s-2.5 1.4-2.5 3.7c0 2.3.9 3.7 2.5 3.7zm0-.8c-1.1 0-1.7-1.1-1.7-3s.6-3 1.7-3 1.7 1.1 1.7 3c0 2-.6 3-1.7 3zm6.7.8c1.6 0 2.5-1.4 2.5-3.7 0-2.4-.9-3.7-2.5-3.7s-2.5 1.4-2.5 3.7c0 2.3.9 3.7 2.5 3.7zm0-.8c-1.1 0-1.7-1.1-1.7-3s.6-3 1.7-3 1.7 1.1 1.7 3c0 2-.6 3-1.7 3zM152 66.1l-18 10.4V55.7l18 10.4z"/>
 </g>
  <circle cx="141" cy="66.3" r="17.8" fill="none" stroke="#DAE3FE"/>
</svg>
