<svg xmlns="http://www.w3.org/2000/svg" fill="none" viewBox="0 0 257 174">
  <g fill="#add1fa">
    <rect width="165" height="15" x="0" y="32" rx="7.299"/>
    <rect width="69" height="15" x="188" y="32" rx="7.299"/>
    <rect width="257" height="15" x="0" y="57" rx="7.299"/>
    <rect width="257" height="15" x="0" y="83" rx="7.299"/>
    <rect width="257" height="15" x="0" y="108" rx="7.299"/>
  </g>
  <rect width="88" height="6" x="11" y="153" fill="#0082CA" rx="3"/>
  <rect width="62" height="6" x="142" y="7" fill="#0082CA" rx="3"/>
  <path fill="#000" d="M3.64 148h-.968l-2 1.328v.984l1.953-1.296h.047V156h.969v-8Z"/>
  <rect width="88" height="6" x="11" y="168" fill="#0082CA" rx="3"/>
  <path fill="#000" d="M.828 171h5.047v-.859H2.156v-.063l1.797-1.922c1.375-1.472 1.781-2.16 1.781-3.047 0-1.234-1-2.218-2.406-2.218-1.402 0-2.469.953-2.469 2.359h.922c0-.91.59-1.516 1.516-1.516.867 0 1.531.532 1.531 1.375 0 .739-.433 1.286-1.36 2.297l-2.64 2.891V171Z"/>
  <rect width="79" height="19" x="133.5" y=".5" stroke="#0082CA" rx="3.5"/>
  <path fill="#000" d="M164.297 33h2.312v-.766h-1.437v-8.468h1.437V23h-2.312v10Zm9.423-9h-.969l-2 1.328v.985l1.953-1.297h.047V32h.969v-8Zm7.254-1h-2.313v.766h1.438v8.468h-1.438V33h2.313V23Z"/>
</svg>
