<svg xmlns="http://www.w3.org/2000/svg" xml:space="preserve" baseProfile="tiny" version="1.2" viewBox="0 0 245 161"><path fill="#0082CA" d="M4 0h237c2.2 0 4 1.8 4 4v153c0 2.2-1.8 4-4 4H4c-2.2 0-4-1.8-4-4V4c0-2.2 1.8-4 4-4z"/>
  <g fill="none" stroke="#FFF" stroke-linecap="round" stroke-linejoin="round">
    <path
      d="M137.1 61.8h-29.2c-2.3 0-4.2 1.9-4.2 4.2 0 0 0 0 0 0v29.2c0 2.3 1.9 4.2 4.2 4.2 0 0 0 0 0 0h29.2c2.3 0 4.2-1.9 4.2-4.2V65.9c-.1-2.3-1.9-4.1-4.2-4.1z"/>
    <path
      d="M115.2 76.3c1.7 0 3.1-1.4 3.1-3.1s-1.4-3.1-3.1-3.1c-1.7 0-3.1 1.4-3.1 3.1s1.4 3.1 3.1 3.1zm26.1 10.4-10.4-10.4L108 99.2"/>
  </g>
</svg>
