<svg xmlns="http://www.w3.org/2000/svg" fill="none" viewBox="0 0 282 40">
  <rect width="281" height="39" x=".5" y=".5" fill="#0082CA" stroke="#DAE3FE" rx="7.5"/>
  <g fill="#fff" font-size="12">
    <path
      d="m249.471 18.267 3.333 3.535 3.333-3.535a.822.822 0 0 1 1.212 0 .947.947 0 0 1 0 1.284l-3.943 4.183a.822.822 0 0 1-1.212 0l-3.943-4.183a.947.947 0 0 1 0-1.284.839.839 0 0 1 1.22 0Z"
      style="mix-blend-mode:lighten"/>
    <path
      d="m71.471 18.267 3.333 3.535 3.333-3.535a.822.822 0 0 1 1.212 0 .947.947 0 0 1 0 1.284l-3.943 4.183a.822.822 0 0 1-1.212 0l-3.943-4.183a.947.947 0 0 1 0-1.284.839.839 0 0 1 1.22 0Z"
      style="mix-blend-mode:lighten"/>
    <path
      d="m160.471 18.267 3.333 3.535 3.333-3.535a.822.822 0 0 1 1.212 0 .947.947 0 0 1 0 1.284l-3.943 4.183a.822.822 0 0 1-1.212 0l-3.943-4.183a.947.947 0 0 1 0-1.284.839.839 0 0 1 1.22 0Z"
      style="mix-blend-mode:lighten"/>
    <text x="20" y="24">MENU 1</text>
    <text x="108" y="24">MENU 2</text>
    <text x="197" y="24">MENU 3</text>
  </g>
</svg>
