<svg xmlns="http://www.w3.org/2000/svg" fill="none" viewBox="0 0 246 192">
  <path stroke="#0082CA" d="M155.5 162H4.5a3.5 3.5 0 0 0-3.5 3.5v22a3.5 3.5 0 0 0 3.5 3.5h151a3.5 3.5 0 0 0 3.5-3.5v-22a3.5 3.5 0 0 0-3.5-3.5Z"/>
  <path fill="#DAE3FE" d="M148.239 179H11.761c-.973 0-1.761 1.119-1.761 2.5s.788 2.5 1.761 2.5h136.478c.973 0 1.761-1.119 1.761-2.5s-.788-2.5-1.761-2.5Zm-.144-9H11.905c-1.052 0-1.905 1.119-1.905 2.5s.853 2.5 1.905 2.5h136.19c1.052 0 1.905-1.119 1.905-2.5s-.853-2.5-1.905-2.5Z"/>
  <rect width="65" height="27" x="1" y="129" fill="#0082CA" rx="4"/>
  <path fill="#fff" d="M10.88 146h2.628c1.72 0 2.43-.838 2.43-1.932 0-1.15-.796-1.775-1.464-1.818v-.071c.625-.17 1.18-.582 1.18-1.52 0-1.065-.71-1.932-2.23-1.932H10.88V146Zm.881-.781v-2.529h1.79c.952 0 1.548.64 1.548 1.378 0 .639-.44 1.151-1.59 1.151H11.76Zm0-3.296v-2.414h1.662c.966 0 1.392.511 1.392 1.15 0 .767-.625 1.264-1.42 1.264H11.76Zm10.896-3.196v4.745c0 1.065-.731 1.832-1.946 1.832-1.214 0-1.946-.767-1.946-1.832v-4.745h-.88v4.816c0 1.491 1.115 2.585 2.826 2.585 1.712 0 2.827-1.094 2.827-2.585v-4.816h-.88Zm2.742.782h2.287V146h.88v-6.491h2.288v-.782h-5.455v.782Zm6.916 0h2.287V146h.88v-6.491h2.288v-.782h-5.455v.782Zm13.147 2.855c0-2.302-1.35-3.736-3.21-3.736-1.86 0-3.21 1.434-3.21 3.736 0 2.301 1.35 3.735 3.21 3.735 1.86 0 3.21-1.434 3.21-3.735Zm-.852 0c0 1.889-1.037 2.912-2.358 2.912-1.32 0-2.358-1.023-2.358-2.912 0-1.89 1.037-2.912 2.358-2.912 1.321 0 2.358 1.022 2.358 2.912Zm8.6-3.637h-.866v5.725h-.071l-3.978-5.725h-.852V146h.88v-5.71h.072l3.963 5.71h.852v-7.273Z"/>
  <rect width="48" height="27" x="1" y="36" fill="#0082CA" rx="4"/>
  <path stroke="#0082CA" d="M170 .5H5A3.5 3.5 0 0 0 1.5 4v23A3.5 3.5 0 0 0 5 30.5h165a3.5 3.5 0 0 0 3.5-3.5V4A3.5 3.5 0 0 0 170 .5Z"/>
  <path fill="#DAE3FE" d="M163.05 8H11.95C10.873 8 10 9.12 10 10.5s.873 2.5 1.95 2.5h151.1c1.077 0 1.95-1.12 1.95-2.5s-.873-2.5-1.95-2.5Zm-.012 10H11.962C10.878 18 10 19.12 10 20.5s.878 2.5 1.962 2.5h151.076c1.084 0 1.962-1.12 1.962-2.5s-.878-2.5-1.962-2.5Z"/>
  <path fill="#fff" d="M14.483 47.508h2.287V54h.88v-6.492h2.288v-.78h-5.455v.78Zm13.147 2.856c0-2.301-1.35-3.736-3.21-3.736-1.86 0-3.21 1.434-3.21 3.736 0 2.3 1.35 3.735 3.21 3.735 1.86 0 3.21-1.434 3.21-3.735Zm-.852 0c0 1.889-1.037 2.912-2.358 2.912-1.32 0-2.358-1.023-2.358-2.912 0-1.89 1.037-2.912 2.358-2.912 1.321 0 2.358 1.022 2.358 2.912ZM29.611 54h.88v-2.656h1.592c1.694 0 2.457-1.03 2.457-2.316 0-1.285-.763-2.3-2.471-2.3H29.61V54Zm.88-3.438V47.51h1.55c1.182 0 1.633.646 1.633 1.52 0 .873-.451 1.533-1.62 1.533h-1.562Z"/>
  <path stroke="#0082CA" d="M120.916 55h63.783c1.039 0 2.035.369 2.769 1.025.735.657 1.147 1.547 1.147 2.475v72c0 .928-.412 1.818-1.147 2.475-.734.656-1.73 1.025-2.769 1.025h-63.783c-1.038 0-2.034-.369-2.769-1.025-.734-.657-1.147-1.547-1.147-2.475v-72c0-.928.413-1.819 1.147-2.475.735-.656 1.731-1.025 2.769-1.025Z"/>
  <path fill="#DAE3FE" d="M180.541 65h-55.082c-1.358 0-2.459 1.12-2.459 2.5s1.101 2.5 2.459 2.5h55.082c1.358 0 2.459-1.12 2.459-2.5s-1.101-2.5-2.459-2.5Zm0 11h-55.082c-1.358 0-2.459 1.12-2.459 2.5s1.101 2.5 2.459 2.5h55.082c1.358 0 2.459-1.12 2.459-2.5s-1.101-2.5-2.459-2.5Zm0 11h-55.082c-1.358 0-2.459 1.12-2.459 2.5s1.101 2.5 2.459 2.5h55.082c1.358 0 2.459-1.12 2.459-2.5s-1.101-2.5-2.459-2.5Zm0 11h-55.082c-1.358 0-2.459 1.12-2.459 2.5 0 1.381 1.101 2.5 2.459 2.5h55.082c1.358 0 2.459-1.119 2.459-2.5 0-1.38-1.101-2.5-2.459-2.5Zm0 11h-55.082c-1.358 0-2.459 1.119-2.459 2.5s1.101 2.5 2.459 2.5h55.082c1.358 0 2.459-1.119 2.459-2.5s-1.101-2.5-2.459-2.5Zm0 11h-55.082c-1.358 0-2.459 1.119-2.459 2.5s1.101 2.5 2.459 2.5h55.082c1.358 0 2.459-1.119 2.459-2.5s-1.101-2.5-2.459-2.5Z"/>
  <rect width="51.154" height="27" x="194.846" y="77" fill="#0082CA" rx="4"/>
  <path fill="#fff" d="M208.004 95h4.261v-.781h-3.381v-6.492h-.88V95Zm6.125 0h4.446v-.781h-3.566v-2.472h3.282v-.781h-3.282v-2.457h3.509v-.782h-4.389V95Zm6.476 0h.881v-3.253h3.153v-.781h-3.153v-2.457h3.48v-.782h-4.361V95Zm5.972-6.492h2.287V95h.88v-6.492h2.287v-.78h-5.454v.78Z"/>
</svg>
