<svg viewBox="0 0 263 211" fill="none" xmlns="http://www.w3.org/2000/svg"><rect x=".5" y=".5" width="172" height="30" rx="3.5" stroke="#0082CA"/><rect x="7" y="9" width="159" height="4" rx="2" fill="#DAE3FE"/><rect x="7" y="18" width="158" height="4" rx="2" fill="#DAE3FE"/><rect x="132.5" y="61.5" width="64" height="79" rx="3.5" stroke="#0082CA"/><rect x="134" y="69" width="61" height="5" rx="2.5" fill="#DAE3FE"/><rect x="134" y="80" width="60" height="5" rx="2.5" fill="#DAE3FE"/><rect x="134" y="69" width="61" height="5" rx="2.5" fill="#DAE3FE"/><rect x="134" y="80" width="60" height="5" rx="2.5" fill="#DAE3FE"/><path d="M136 61.5h57a3.5 3.5 0 0 1 3.5 3.5v72a3.5 3.5 0 0 1-3.5 3.5h-57a3.5 3.5 0 0 1-3.5-3.5V65a3.5 3.5 0 0 1 3.5-3.5Z" stroke="#0082CA"/><rect x="134" y="69" width="61" height="5" rx="2.5" fill="#DAE3FE"/><rect x="134" y="80" width="60" height="5" rx="2.5" fill="#DAE3FE"/><rect x="134" y="69" width="61" height="5" rx="2.5" fill="#DAE3FE"/><rect x="134" y="80" width="60" height="5" rx="2.5" fill="#DAE3FE"/><rect x="134" y="91" width="60" height="5" rx="2.5" fill="#DAE3FE"/><rect x="134" y="102" width="60" height="5" rx="2.5" fill="#DAE3FE"/><rect x="134" y="112" width="60" height="5" rx="2.5" fill="#DAE3FE"/><rect x="135" y="122" width="60" height="5" rx="2.5" fill="#DAE3FE"/><rect x="135" y="132" width="60" height="5" rx="2.5" fill="#DAE3FE"/><rect x=".5" y="181.5" width="158" height="29" rx="3.5" stroke="#0082CA"/><rect x="6" y="190" width="147" height="4" rx="2" fill="#DAE3FE"/><rect x="6" y="199" width="146" height="3" rx="1.5" fill="#DAE3FE"/><path d="M8 36.5h45a7.5 7.5 0 0 1 7.5 7.5v24a7.5 7.5 0 0 1-7.5 7.5H8A7.5 7.5 0 0 1 .5 68V44A7.5 7.5 0 0 1 8 36.5Z" fill="#0082CA" stroke="#DAE3FE"/><path d="M20.483 53.508h2.287V60h.88v-6.492h2.288v-.78h-5.455v.78Zm13.147 2.856c0-2.301-1.35-3.736-3.21-3.736-1.86 0-3.21 1.434-3.21 3.736 0 2.3 1.35 3.735 3.21 3.735 1.86 0 3.21-1.434 3.21-3.735Zm-.852 0c0 1.889-1.037 2.912-2.358 2.912-1.32 0-2.358-1.023-2.358-2.912 0-1.89 1.037-2.912 2.358-2.912 1.321 0 2.358 1.022 2.358 2.912ZM35.611 60h.88v-2.656h1.592c1.694 0 2.457-1.03 2.457-2.316 0-1.285-.763-2.3-2.471-2.3H35.61V60Zm.88-3.438V53.51h1.55c1.182 0 1.633.646 1.633 1.52 0 .873-.451 1.533-1.62 1.533h-1.562Z" fill="#fff"/><path d="M20.483 53.508h2.287V60h.88v-6.492h2.288v-.78h-5.455v.78Zm13.147 2.856c0-2.301-1.35-3.736-3.21-3.736-1.86 0-3.21 1.434-3.21 3.736 0 2.3 1.35 3.735 3.21 3.735 1.86 0 3.21-1.434 3.21-3.735Zm-.852 0c0 1.889-1.037 2.912-2.358 2.912-1.32 0-2.358-1.023-2.358-2.912 0-1.89 1.037-2.912 2.358-2.912 1.321 0 2.358 1.022 2.358 2.912ZM35.611 60h.88v-2.656h1.592c1.694 0 2.457-1.03 2.457-2.316 0-1.285-.763-2.3-2.471-2.3H35.61V60Zm.88-3.438V53.51h1.55c1.182 0 1.633.646 1.633 1.52 0 .873-.451 1.533-1.62 1.533h-1.562Z" fill="#fff"/><path d="M210 77.5h45a7.5 7.5 0 0 1 7.5 7.5v24a7.5 7.5 0 0 1-7.5 7.5h-45a7.5 7.5 0 0 1-7.5-7.5V85a7.5 7.5 0 0 1 7.5-7.5ZM8 134.5h45a7.5 7.5 0 0 1 7.5 7.5v24a7.5 7.5 0 0 1-7.5 7.5H8A7.5 7.5 0 0 1 .5 166v-24a7.5 7.5 0 0 1 7.5-7.5Z" fill="#0082CA" stroke="#DAE3FE"/><path d="M9.88 159h2.628c1.72 0 2.43-.838 2.43-1.932 0-1.15-.796-1.775-1.464-1.818v-.071c.625-.17 1.18-.582 1.18-1.52 0-1.065-.71-1.932-2.23-1.932H9.88V159Zm.881-.781v-2.529h1.79c.952 0 1.548.64 1.548 1.378 0 .639-.44 1.151-1.59 1.151H10.76Zm0-3.296v-2.414h1.662c.966 0 1.392.511 1.392 1.15 0 .767-.625 1.264-1.42 1.264H10.76Zm12.26.441c0-2.302-1.35-3.736-3.21-3.736-1.861 0-3.21 1.434-3.21 3.736 0 2.301 1.349 3.735 3.21 3.735 1.86 0 3.21-1.434 3.21-3.735Zm-.852 0c0 1.889-1.037 2.912-2.358 2.912-1.321 0-2.358-1.023-2.358-2.912 0-1.89 1.037-2.912 2.358-2.912 1.32 0 2.358 1.022 2.358 2.912Zm2.132-2.855h2.287V159h.88v-6.491h2.288v-.782H24.3v.782Zm6.916 0h2.287V159h.88v-6.491h2.288v-.782h-5.455v.782Zm13.148 2.855c0-2.302-1.35-3.736-3.21-3.736-1.861 0-3.21 1.434-3.21 3.736 0 2.301 1.349 3.735 3.21 3.735 1.86 0 3.21-1.434 3.21-3.735Zm-.853 0c0 1.889-1.037 2.912-2.358 2.912-1.32 0-2.358-1.023-2.358-2.912 0-1.89 1.038-2.912 2.358-2.912 1.321 0 2.358 1.022 2.358 2.912Zm8.6-3.637h-.866v5.725h-.07l-3.978-5.725h-.852V159h.88v-5.71h.071L51.26 159h.853v-7.273ZM220.881 102h4.261v-.781h-3.381v-6.492h-.88V102Zm6.125 0h4.446v-.781h-3.566v-2.472h3.282v-.781h-3.282v-2.457h3.509v-.782h-4.389V102Zm6.476 0h.881v-3.253h3.153v-.781h-3.153v-2.457h3.48v-.782h-4.361V102Zm5.972-6.492h2.287V102h.88v-6.492h2.287v-.78h-5.454v.78Z" fill="#fff"/></svg>
