<svg viewBox="0 0 248 155" fill="none" xmlns="http://www.w3.org/2000/svg"><rect width="248" height="36.204" rx="3.62" fill="#0082CA"/><rect x=".453" y="43.453" width="247.095" height="111.095" rx="3.168" stroke="#DAE3FE" stroke-width=".905"/><rect x="47.971" y="60.643" width="189.168" height="14.482" rx="7.241" fill="#DAE3FE"/><rect x="47.971" y="88.701" width="158.394" height="14.482" rx="7.241" fill="#DAE3FE"/><rect x="47.971" y="116.76" width="137.577" height="14.482" rx="7.241" fill="#DAE3FE"/><g clip-path="url(#a)"><rect x="16.292" y="63.358" width="12.671" height="12.671" rx=".905" stroke="#C8D0DF" stroke-width="1.81"/></g><g clip-path="url(#b)"><rect x="16.292" y="89.606" width="12.671" height="12.671" rx=".905" stroke="#C8D0DF" stroke-width="1.81"/></g><g clip-path="url(#c)"><rect x="16.292" y="115.854" width="12.671" height="12.671" rx=".905" stroke="#C8D0DF" stroke-width="1.81"/></g><path d="m220.546 17.076 3.017 3.2 3.017-3.2a.743.743 0 0 1 1.096 0 .857.857 0 0 1 0 1.163l-3.569 3.785a.743.743 0 0 1-1.096 0l-3.569-3.785a.855.855 0 0 1 0-1.163.759.759 0 0 1 1.104 0Z" fill="#fff"/><defs><clipPath id="a"><path fill="#fff" transform="translate(15.387 62.453)" d="M0 0h14.482v14.482H0z"/></clipPath><clipPath id="b"><path fill="#fff" transform="translate(15.387 88.701)" d="M0 0h14.482v14.482H0z"/></clipPath><clipPath id="c"><path fill="#fff" transform="translate(15.387 114.949)" d="M0 0h14.482v14.482H0z"/></clipPath></defs></svg>
