<svg xmlns="http://www.w3.org/2000/svg" height="75px" viewBox="0 0 242 242">
  <path d="M 237,121 A 116,116 0 1,1 5,121 A 116,116 0 1,1 237,121 M 225,121 A 96,96 0 1,0 17,121 A 96,96 0 1,0 225,121 Z"/>
  <path d="M77.308 93.97 50.53 120.75l26.95 26.949a8 8 0 0 1-11.315 11.314l-32.508-32.509a8 8 0 0 1 0-11.313c.418-.418.87-.78 1.348-1.086a8.028 8.028 0 0 1 1.37-1.827l29.62-29.62A8 8 0 0 1 77.308 93.97ZM143.992 97.124l-13.856-8-30 51.962 13.856 8 30-51.962ZM99.136 142.818l13.856 8-14.928 9.856 1.073-17.856ZM144.064 81a8 8 0 0 0-10.928 2.928l-2 3.464 13.856 8 2-3.464A7.998 7.998 0 0 0 144.064 81ZM207.124 127.564a8 8 0 0 0 1.348-12.398l-32.509-32.51a8 8 0 0 0-11.314 11.315l26.95 26.949-26.778 26.778a8 8 0 0 0 11.313 11.314l29.621-29.62a8.007 8.007 0 0 0 1.369-1.828Z"/>
</svg>
