<svg viewBox="0 0 24 24"  xmlns="http://www.w3.org/2000/svg">
  <path
    d="M23.401 3.95a1.055 1.055 0 0 0-.764-.658 1.083 1.083 0 0 0-.989.305l-2.476 2.475-1.208-1.209 2.633-2.633c.274-.274.391-.655.314-1.02a1.088 1.088 0 0 0-.678-.788 6.223 6.223 0 0 0-8.385 4.75c-.046.218-.09.448-.138.692-.277 1.423-.621 3.194-1.632 4.204l-9.044 9.044a2.868 2.868 0 0 0 0 4.05A2.856 2.856 0 0 0 3.06 24c.733 0 1.467-.28 2.025-.837l9.044-9.045c1.01-1.01 2.781-1.354 4.204-1.631.244-.047.474-.092.69-.139a6.176 6.176 0 0 0 3.352-1.733c.27-.27.35-.638.237-.965a5.906 5.906 0 0 0 .79-5.7Zm-1.09.31c.041-.042.09-.06.134-.051.037.008.065.035.082.08A4.97 4.97 0 0 1 22 8.899l-2.164-2.164 2.476-2.476Zm-.599 5.693a5.245 5.245 0 0 1-2.874 1.477c-.212.045-.441.09-.684.137-1.548.301-3.475.676-4.688 1.889L4.422 22.5a1.929 1.929 0 0 1-2.725 0 1.929 1.929 0 0 1 0-2.725l9.044-9.045c1.213-1.212 1.588-3.139 1.89-4.687.046-.243.091-.473.136-.684a5.244 5.244 0 0 1 1.477-2.875 5.283 5.283 0 0 1 5.65-1.188c.056.022.09.058.1.106.012.055-.01.115-.06.165l-2.965 2.965a.469.469 0 0 0 0 .663l4.746 4.745a.059.059 0 0 1 .004.005.082.082 0 0 1-.007.008Z"
  />
  <path
    d="M16.306 5.858a.47.47 0 0 0-.662 0l-1.326 1.326a.469.469 0 0 0 0 .663l1.872 1.871a.469.469 0 0 0 .662 0l1.326-1.325a.469.469 0 0 0 0-.663l-1.872-1.872Zm.215 2.866-1.209-1.209.663-.663 1.209 1.21-.663.662ZM3.391 20.805a.469.469 0 1 0-.663.662.469.469 0 0 0 .663-.662ZM11.773 11.762 4.22 19.315a.469.469 0 0 0 .663.663l7.553-7.553a.469.469 0 0 0-.663-.663Z"
  />
</svg>
