<svg xmlns="http://www.w3.org/2000/svg" xmlns:xlink="http://www.w3.org/1999/xlink" fill="none" viewBox="0 0 627 369">
  <defs>
    <path id="reuse-0" fill="#DB4437" d="m436.17 34.123 22.746 101.932 37.186-8.298 20.048-63.922L599.205 45.3 589.096-.002 436.17 34.123Z"/>
    <path id="reuse-1" fill="#FFCD40" d="m516.15 63.836 45.34 49.331-22.374 72.368 87.048-19.425-26.958-120.808-83.056 18.534Z"/>
  </defs>
  <path stroke="url(#paint0_linear_345:13366)" stroke-width="1.679" d="M78 188.502c20.667-61 82.7-172.9 165.5-132.5 103.5 50.5-88.5 269.5 101 252.5 151.6-13.6 194.5-157.667 197-228"/>
  <g clip-path="url(#clip0_345:13366)">
    <use xlink:href="#reuse-0"/>
    <path fill="url(#paint1_linear_345:13366)" d="m436.17 34.123 22.746 101.932 37.186-8.298 20.048-63.922L599.205 45.3 589.096-.002 436.17 34.123Z"/>
    <path fill="#3E2723" fill-opacity=".15" d="m496.896 127.184-51.968-56.076-.337 1.066 51.598 55.663.707-.653Z"/>
    <path fill="#0F9D58" d="m460.053 203.178 79.063-17.643 28.507-44.884-6.133-27.484-65.406 14.595-69.628-75.142 33.597 150.558Z"/>
    <path fill="url(#paint2_linear_345:13366)" d="m460.053 203.178 79.063-17.643 28.507-44.884-6.133-27.484-65.406 14.595-69.628-75.142 33.597 150.558Z"/>
    <path fill="#263238" fill-opacity=".15" d="m560.961 114.572-.885-.278-22.1 71.464 1.086-.242 21.924-70.92-.025-.024Z"/>
    <use xlink:href="#reuse-1"/>
    <path fill="url(#paint3_linear_345:13366)" d="m516.15 63.836 45.34 49.331-22.374 72.368 87.048-19.425-26.958-120.808-83.056 18.534Z"/>
    <use xlink:href="#reuse-1"/>
    <path fill="url(#paint4_linear_345:13366)" d="m516.15 63.836 45.34 49.331-22.374 72.368 87.048-19.425-26.958-120.808-83.056 18.534Z"/>
    <use xlink:href="#reuse-0"/>
    <path fill="url(#paint5_linear_345:13366)" d="m436.17 34.123 22.746 101.932 37.186-8.298 20.048-63.922L599.205 45.3 589.096-.002 436.17 34.123Z"/>
    <path fill="url(#paint6_radial_345:13366)" d="m516.15 63.838 4.412 19.773 69.583-36.285-73.995 16.512Z"/>
    <path fill="#0F9D58" d="m460.053 203.179 79.063-17.643 28.507-44.884-6.133-27.484-65.406 14.596-69.628-75.142 33.597 150.557Z"/>
    <path fill="url(#paint7_linear_345:13366)" d="m460.053 203.179 79.063-17.643 28.507-44.884-6.133-27.484-65.406 14.596-69.628-75.142 33.597 150.557Z"/>
    <path fill="url(#paint8_radial_345:13366)" d="m444.69 72.303 66.089 41.966-14.685 13.492-51.404-55.458Z"/>
    <path fill="url(#paint9_radial_345:13366)" d="m539.152 185.43 3.312-78.221 19.026 5.96-22.338 72.261Z"/>
    <path fill="#F1F1F1" d="M532.999 139.343c20.851-4.653 33.981-25.327 29.328-46.177-4.652-20.85-25.326-33.98-46.177-29.328-20.85 4.652-33.98 25.327-29.328 46.177 4.653 20.85 25.327 33.981 46.177 29.328Z"/>
    <path fill="#4285F4" d="M531.314 131.791c16.681-3.722 27.185-20.261 23.463-36.941-3.722-16.68-20.262-27.185-36.942-23.463-16.68 3.723-27.184 20.262-23.462 36.942 3.722 16.68 20.261 27.185 36.941 23.462Z"/>
    <path fill="#3E2723" fill-opacity=".2" d="M515.94 62.893c-20.859 4.654-33.983 25.319-29.329 46.177l.211.944c-4.654-20.858 8.47-41.523 29.328-46.177l83.056-18.534-.211-.944-83.055 18.534Z"/>
    <path fill="#fff" fill-opacity=".1" d="M561.443 113.179c-4.017 12.726-14.476 23.046-28.444 26.163-13.968 3.117-27.841-1.773-36.868-11.589l-.038.008-69.637-75.14.211.945 69.674 75.131c9.046 9.812 22.9 14.706 36.869 11.589 13.968-3.117 24.429-13.427 28.443-26.163l.048-.011-.211-.944-.057.013.01-.002Z"/>
    <path fill="#3E2723" d="M517.094 63.627c-.16.036-.307.088-.466.133 20.689-4.349 41.083 8.717 45.699 29.406 4.617 20.688-8.287 41.184-28.862 46.043.16-.036.317-.041.478-.077 20.858-4.655 33.982-25.319 29.328-46.177-4.655-20.858-25.319-33.983-46.177-29.328Z" opacity=".1"/>
    <path fill="#fff" fill-opacity=".2" d="M562.094 114.321c1.971-6.266 2.398-13.099.865-19.97a38.571 38.571 0 0 0-4.311-11.017c1.616 3.028 2.89 6.291 3.675 9.811 1.533 6.872 1.106 13.704-.864 19.97l.027.034-22.374 72.367 1.095-.244 21.887-70.951Z"/>
    <path fill="#fff" fill-opacity=".2" d="M506.252 19.477c45.708-10.2 91.032 18.457 101.484 64.05-.036-.16-.06-.313-.096-.474-10.236-45.869-55.72-74.757-101.59-64.521-45.869 10.235-74.767 55.722-64.531 101.591.036.16.079.309.115.47-9.933-45.71 18.909-90.916 64.618-101.116Z"/>
    <path fill="#3E2723" fill-opacity=".15" d="M542.898 183.702c45.709-10.2 74.55-55.406 64.627-101.118.036.16.079.31.115.47 10.236 45.87-18.652 91.354-64.522 101.59-45.869 10.235-91.363-18.651-101.599-64.52-.035-.161-.06-.314-.095-.474 10.442 45.595 55.765 74.252 101.484 64.05l-.01.002Z"/>
  </g>
  <g filter="url(#filter0_f_345:13366)" opacity=".53">
    <path fill="#000" d="M215.103 165.354a89.755 89.755 0 0 1 .574 36.23c-2.273 12.034-6.969 23.555-13.821 33.907-6.852 10.351-15.725 19.329-26.113 26.422a99.512 99.512 0 0 1-34.43 14.915 99.535 99.535 0 0 1-37.503 1.137c-12.418-2.004-24.266-6.358-34.869-12.815-10.603-6.456-19.752-14.888-26.925-24.814a89.749 89.749 0 0 1-14.883-33.037c-5.356-24.002-.59-49.231 13.248-70.137 13.838-20.905 35.616-35.775 60.542-41.337a99.523 99.523 0 0 1 37.504-1.137c12.417 2.004 24.266 6.358 34.868 12.814 10.603 6.457 19.752 14.889 26.926 24.815a89.754 89.754 0 0 1 14.882 33.037Z"/>
  </g>
  <path fill="url(#paint10_linear_345:13366)" stroke="#CDCDCD" stroke-linecap="round" stroke-linejoin="round" stroke-width=".297" d="M216.899 156.565a99.961 99.961 0 0 1-75.792 119.336 99.964 99.964 0 1 1 75.792-119.336Z"/>
  <path fill="url(#paint11_radial_345:13366)" d="M209.254 158.273a92.128 92.128 0 0 1-69.853 109.984 92.13 92.13 0 1 1 69.853-109.984Z"/>
  <path fill="#F4F2F3" d="M100.316 93.108a1.34 1.34 0 0 0-1.018 1.603l3.374 15.122a1.342 1.342 0 0 0 1.604 1.019 1.341 1.341 0 0 0 1.018-1.604l-3.374-15.122a1.34 1.34 0 0 0-1.604-1.018Zm-8.455 2.456a1.34 1.34 0 0 0-1.113 1.761l2.073 6.179a1.34 1.34 0 0 0 1.7.846 1.34 1.34 0 0 0 .847-1.7l-2.072-6.18a1.34 1.34 0 0 0-1.435-.906Zm17.214-3.835a1.341 1.341 0 0 0-.914 1.43l.746 6.475c.086.739.75 1.265 1.489 1.18a1.339 1.339 0 0 0 1.18-1.488l-.746-6.475a1.34 1.34 0 0 0-1.755-1.122Zm-25.74 7.078a1.34 1.34 0 0 0-.923 1.867l6.434 14.095a1.34 1.34 0 0 0 1.78.664 1.34 1.34 0 0 0 .664-1.779l-6.433-14.095a1.34 1.34 0 0 0-1.521-.753v.001Zm34.836-7.76a1.338 1.338 0 0 0-1.058 1.327l.158 15.493a1.34 1.34 0 0 0 1.357 1.329 1.341 1.341 0 0 0 1.33-1.357l-.159-15.493a1.34 1.34 0 0 0-1.628-1.298v-.001Zm-42.714 12.007a1.31 1.31 0 0 0-.504.176 1.34 1.34 0 0 0-.474 1.84l3.316 5.611c.379.64 1.2.851 1.84.473a1.34 1.34 0 0 0 .473-1.84l-3.316-5.611a1.34 1.34 0 0 0-1.335-.649Zm51.602-11.511c-.5.157-.88.599-.933 1.155l-.617 6.488a1.34 1.34 0 0 0 1.21 1.464 1.34 1.34 0 0 0 1.464-1.21l.617-6.489a1.34 1.34 0 0 0-1.21-1.464 1.35 1.35 0 0 0-.532.056h.001Zm-59.238 16.409c-.17.041-.333.117-.483.228a1.34 1.34 0 0 0-.279 1.879l9.225 12.447a1.34 1.34 0 0 0 1.879.28 1.34 1.34 0 0 0 .28-1.879l-9.226-12.448a1.34 1.34 0 0 0-1.396-.507Zm68.335-15.2a1.341 1.341 0 0 0-1.049 1.051l-3.079 15.184a1.34 1.34 0 0 0 1.049 1.584 1.34 1.34 0 0 0 1.583-1.05l3.079-15.184a1.34 1.34 0 0 0-1.049-1.583 1.349 1.349 0 0 0-.534-.002Zm-75.141 21.006a1.324 1.324 0 0 0-.708.34 1.34 1.34 0 0 0-.08 1.898l4.41 4.799a1.34 1.34 0 0 0 1.897.08 1.34 1.34 0 0 0 .08-1.898l-4.41-4.799a1.342 1.342 0 0 0-1.189-.42Zm83.653-18.667a1.336 1.336 0 0 0-.897.886l-1.952 6.219c-.223.71.17 1.46.88 1.683a1.34 1.34 0 0 0 1.684-.879l1.951-6.219a1.34 1.34 0 0 0-.88-1.683 1.341 1.341 0 0 0-.786-.007Zm-90.104 25.013c-.25.066-.485.203-.67.412a1.34 1.34 0 0 0 .118 1.896l11.61 10.259c.558.493 1.404.44 1.897-.117a1.34 1.34 0 0 0-.118-1.896l-11.61-10.259a1.34 1.34 0 0 0-1.227-.295Zm98.75-21.966c-.424.078-.8.36-.986.787l-6.167 14.213a1.34 1.34 0 0 0 .698 1.767 1.34 1.34 0 0 0 1.767-.697l6.167-14.213a1.341 1.341 0 0 0-.698-1.767 1.342 1.342 0 0 0-.781-.09ZM49.119 127.217a1.335 1.335 0 0 0-.871.547 1.34 1.34 0 0 0 .316 1.873l5.31 3.778a1.34 1.34 0 0 0 1.874-.316 1.34 1.34 0 0 0-.316-1.873l-5.31-3.778a1.335 1.335 0 0 0-1.003-.231Zm112.05-24.994c-.33.093-.626.311-.809.635l-3.201 5.677a1.34 1.34 0 0 0 .51 1.83 1.34 1.34 0 0 0 1.83-.51l3.201-5.677a1.34 1.34 0 0 0-.51-1.83 1.339 1.339 0 0 0-1.021-.125ZM44.075 134.816a1.35 1.35 0 0 0-.809.636 1.34 1.34 0 0 0 .51 1.829l13.497 7.61a1.34 1.34 0 0 0 1.83-.511 1.339 1.339 0 0 0-.51-1.829l-13.497-7.609a1.335 1.335 0 0 0-1.021-.125v-.001Zm124.929-27.831a1.338 1.338 0 0 0-.871.547l-8.99 12.618a1.34 1.34 0 0 0 .314 1.874 1.341 1.341 0 0 0 1.874-.315l8.99-12.619a1.34 1.34 0 0 0-.314-1.873 1.34 1.34 0 0 0-1.003-.232ZM40.268 142.873a1.34 1.34 0 0 0-.986.788 1.34 1.34 0 0 0 .7 1.766l5.98 2.59a1.34 1.34 0 0 0 1.766-.698 1.34 1.34 0 0 0-.698-1.767l-5.98-2.59a1.335 1.335 0 0 0-.782-.089Zm135.603-30.21c-.25.066-.485.203-.67.412l-4.314 4.884a1.34 1.34 0 0 0 .117 1.897 1.34 1.34 0 0 0 1.896-.118l4.315-4.884a1.34 1.34 0 0 0-.118-1.896 1.339 1.339 0 0 0-1.226-.295ZM36.913 151.309a1.336 1.336 0 0 0-.898.886 1.34 1.34 0 0 0 .88 1.684l14.782 4.639c.71.222 1.461-.17 1.684-.88a1.34 1.34 0 0 0-.88-1.684L37.7 151.316a1.335 1.335 0 0 0-.786-.007Zm145.535-32.476a1.323 1.323 0 0 0-.709.341l-11.408 10.483a1.339 1.339 0 0 0-.08 1.897 1.34 1.34 0 0 0 1.898.081l11.409-10.484a1.34 1.34 0 0 0 .08-1.897 1.34 1.34 0 0 0-1.19-.421ZM34.882 159.956a1.337 1.337 0 0 0-1.049 1.05 1.34 1.34 0 0 0 1.05 1.584l6.387 1.295a1.341 1.341 0 0 0 1.584-1.05 1.34 1.34 0 0 0-1.05-1.583l-6.388-1.295a1.335 1.335 0 0 0-.534-.001ZM188 125.845c-.17.041-.335.117-.484.228l-5.234 3.883a1.34 1.34 0 0 0-.278 1.879 1.34 1.34 0 0 0 1.879.279l5.234-3.884a1.341 1.341 0 0 0 .278-1.879 1.337 1.337 0 0 0-1.395-.506ZM33.34 168.864c-.499.156-.88.598-.933 1.154a1.34 1.34 0 0 0 1.21 1.465l15.422 1.477a1.34 1.34 0 0 0 1.466-1.209 1.34 1.34 0 0 0-1.21-1.465l-15.422-1.477a1.345 1.345 0 0 0-.532.055Zm159.836-35.608c-.173.022-.344.08-.504.176l-13.338 7.884a1.34 1.34 0 0 0-.473 1.84c.379.64 1.2.851 1.84.472l13.338-7.883c.64-.379.851-1.2.473-1.84a1.34 1.34 0 0 0-1.336-.649ZM33.157 177.895a1.34 1.34 0 0 0-1.059 1.327 1.34 1.34 0 0 0 1.357 1.33l6.517-.066a1.34 1.34 0 0 0 1.33-1.357 1.341 1.341 0 0 0-1.357-1.33l-6.517.066a1.342 1.342 0 0 0-.27.031l-.001-.001Zm163.999-36.583c-.087.02-.173.052-.258.087l-5.927 2.71a1.34 1.34 0 0 0-.664 1.78 1.34 1.34 0 0 0 1.781.663l5.926-2.71a1.34 1.34 0 0 0 .664-1.78 1.34 1.34 0 0 0-1.523-.751l.001.001ZM33.494 186.863a1.34 1.34 0 0 0-.915 1.429 1.34 1.34 0 0 0 1.487 1.182l15.393-1.766a1.341 1.341 0 0 0 1.182-1.488 1.34 1.34 0 0 0-1.488-1.181l-15.393 1.765a1.365 1.365 0 0 0-.266.059Zm167.203-37.193c-.089.01-.178.03-.266.061l-14.69 4.925a1.34 1.34 0 0 0-.846 1.701 1.339 1.339 0 0 0 1.7.846l14.69-4.925a1.34 1.34 0 0 0 .846-1.701 1.34 1.34 0 0 0-1.434-.907Zm-165.49 46.067a1.34 1.34 0 0 0-1.019 1.603 1.34 1.34 0 0 0 1.604 1.019l6.36-1.42a1.34 1.34 0 0 0 1.02-1.603 1.34 1.34 0 0 0-1.604-1.018l-6.361 1.419Zm161.312-35.997a1.34 1.34 0 0 0-1.018 1.604 1.34 1.34 0 0 0 1.603 1.018l6.361-1.419a1.34 1.34 0 0 0 1.018-1.604 1.34 1.34 0 0 0-1.603-1.018l-6.361 1.419ZM52.342 199.416a1.2 1.2 0 0 0-.265.06l-14.69 4.926a1.34 1.34 0 0 0-.847 1.7 1.34 1.34 0 0 0 1.7.847l14.69-4.926a1.34 1.34 0 0 0 .847-1.7 1.34 1.34 0 0 0-1.435-.907Zm136.604-30.386a1.339 1.339 0 0 0-.914 1.43 1.34 1.34 0 0 0 1.487 1.181l15.393-1.766a1.34 1.34 0 0 0 1.181-1.487 1.34 1.34 0 0 0-1.488-1.182l-15.392 1.766a1.456 1.456 0 0 0-.267.058ZM46.843 210.038a1.39 1.39 0 0 0-.259.087l-5.927 2.71a1.34 1.34 0 0 0-.663 1.78 1.34 1.34 0 0 0 1.78.663l5.928-2.709a1.34 1.34 0 0 0 .663-1.78 1.34 1.34 0 0 0-1.523-.752v.001Zm151.586-33.813a1.338 1.338 0 0 0-1.059 1.326 1.34 1.34 0 0 0 1.357 1.33l6.517-.066a1.34 1.34 0 0 0 1.33-1.356 1.341 1.341 0 0 0-1.358-1.33l-6.516.066a1.272 1.272 0 0 0-.271.031v-.001ZM58.475 212.876c-.173.022-.344.08-.504.176l-13.338 7.884a1.34 1.34 0 0 0-.473 1.84c.38.64 1.2.851 1.84.472l13.338-7.883c.64-.379.852-1.2.473-1.841a1.34 1.34 0 0 0-1.336-.648Zm130.626-29.1c-.499.156-.88.598-.933 1.154a1.34 1.34 0 0 0 1.209 1.465l15.423 1.476a1.34 1.34 0 0 0 1.465-1.209 1.34 1.34 0 0 0-1.209-1.465l-15.423-1.477a1.366 1.366 0 0 0-.532.056ZM55.272 224.339c-.17.041-.334.117-.483.227l-5.234 3.885a1.34 1.34 0 0 0-.278 1.879 1.341 1.341 0 0 0 1.879.278l5.234-3.884a1.34 1.34 0 0 0 .278-1.879 1.341 1.341 0 0 0-1.396-.506Zm141.596-31.544a1.337 1.337 0 0 0-1.05 1.05 1.34 1.34 0 0 0 1.05 1.583l6.387 1.296a1.342 1.342 0 0 0 1.584-1.05 1.34 1.34 0 0 0-1.05-1.583l-6.387-1.295a1.316 1.316 0 0 0-.534-.001Zm-129.636 31.91a1.334 1.334 0 0 0-.709.341l-11.408 10.483a1.34 1.34 0 0 0-.08 1.898 1.34 1.34 0 0 0 1.897.08l11.409-10.483a1.34 1.34 0 0 0 .08-1.898 1.342 1.342 0 0 0-1.19-.421Zm118.977-26.549a1.333 1.333 0 0 0-.898.886 1.34 1.34 0 0 0 .879 1.684l14.783 4.638a1.34 1.34 0 0 0 1.684-.879 1.34 1.34 0 0 0-.879-1.684l-14.784-4.638a1.33 1.33 0 0 0-.785-.007ZM66.441 236.53a1.34 1.34 0 0 0-.67.412l-4.314 4.884a1.34 1.34 0 0 0 .117 1.896 1.34 1.34 0 0 0 1.896-.117l4.315-4.884a1.34 1.34 0 0 0-.117-1.896 1.342 1.342 0 0 0-1.227-.296v.001Zm125.488-27.956c-.424.078-.8.361-.985.787a1.34 1.34 0 0 0 .699 1.767l5.98 2.591a1.34 1.34 0 0 0 1.766-.699 1.34 1.34 0 0 0-.698-1.767l-5.98-2.59a1.347 1.347 0 0 0-.782-.09v.001Zm-113.717 25.85a1.336 1.336 0 0 0-.87.547L68.35 247.59a1.34 1.34 0 0 0 .315 1.873 1.34 1.34 0 0 0 1.873-.315l8.99-12.618a1.341 1.341 0 0 0-.315-1.874 1.343 1.343 0 0 0-1.002-.232Zm102.166-22.76a1.35 1.35 0 0 0-.809.636 1.339 1.339 0 0 0 .51 1.829l13.497 7.61a1.342 1.342 0 0 0 1.83-.511 1.34 1.34 0 0 0-.511-1.829l-13.496-7.61a1.344 1.344 0 0 0-1.021-.125Zm-89.346 30.02c-.423.078-.801.36-.986.787l-6.167 14.213a1.34 1.34 0 0 0 .697 1.767 1.341 1.341 0 0 0 1.767-.697l6.167-14.214a1.34 1.34 0 0 0-1.478-1.856Zm80.791-17.971a1.342 1.342 0 0 0-.553 2.308l11.611 10.259a1.34 1.34 0 0 0 1.896-.117 1.34 1.34 0 0 0-.117-1.896l-11.611-10.259a1.339 1.339 0 0 0-1.226-.295Zm-91.84 22.477a1.344 1.344 0 0 0-.81.635l-3.201 5.677a1.34 1.34 0 0 0 .51 1.83 1.34 1.34 0 0 0 1.83-.51l3.201-5.677a1.34 1.34 0 0 0-.51-1.83 1.333 1.333 0 0 0-1.02-.125Zm103.811-23.159a1.335 1.335 0 0 0-.87.547 1.34 1.34 0 0 0 .315 1.873l5.311 3.778a1.339 1.339 0 0 0 1.873-.316 1.34 1.34 0 0 0-.316-1.873l-5.31-3.778a1.34 1.34 0 0 0-1.003-.231Zm-78.734 23.074a1.338 1.338 0 0 0-1.049 1.051l-3.079 15.184a1.34 1.34 0 0 0 1.049 1.583 1.34 1.34 0 0 0 1.584-1.049l3.079-15.185a1.34 1.34 0 0 0-1.05-1.583 1.352 1.352 0 0 0-.534-.001Zm55.932-12.441a1.34 1.34 0 0 0-.763 2.106l9.225 12.448a1.341 1.341 0 0 0 1.879.279 1.34 1.34 0 0 0 .28-1.879l-9.226-12.447a1.338 1.338 0 0 0-1.395-.507Zm-65.806 19.127a1.336 1.336 0 0 0-.897.886l-1.951 6.219a1.34 1.34 0 0 0 .88 1.683 1.34 1.34 0 0 0 1.683-.879l1.951-6.219a1.34 1.34 0 0 0-.88-1.683 1.335 1.335 0 0 0-.786-.007Zm77.659-17.33a1.338 1.338 0 0 0-.708.341 1.34 1.34 0 0 0-.08 1.898l4.41 4.799a1.34 1.34 0 0 0 1.898.08 1.34 1.34 0 0 0 .08-1.898l-4.41-4.799a1.344 1.344 0 0 0-1.19-.421Zm-53.073 12.051a1.338 1.338 0 0 0-1.058 1.327l.158 15.493a1.34 1.34 0 0 0 1.357 1.329 1.341 1.341 0 0 0 1.33-1.357l-.159-15.493a1.34 1.34 0 0 0-1.627-1.298l-.001-.001Zm28.531-6.357a1.34 1.34 0 0 0-.922 1.866l6.433 14.096a1.34 1.34 0 0 0 1.78.664 1.34 1.34 0 0 0 .664-1.78l-6.433-14.094a1.341 1.341 0 0 0-1.522-.752Zm-13.908 4.67a1.34 1.34 0 0 0-1.018 1.604l3.374 15.121a1.34 1.34 0 0 0 1.603 1.019 1.34 1.34 0 0 0 1.019-1.604l-3.374-15.122a1.341 1.341 0 0 0-1.604-1.018Zm-22.974 10.256c-.5.157-.881.6-.934 1.155l-.616 6.489a1.34 1.34 0 0 0 1.21 1.464 1.34 1.34 0 0 0 1.464-1.211l.617-6.487a1.342 1.342 0 0 0-1.741-1.41Zm48.12-10.734a1.342 1.342 0 0 0-.978 2.015l3.316 5.611a1.34 1.34 0 0 0 1.84.473 1.34 1.34 0 0 0 .473-1.84l-3.316-5.61a1.338 1.338 0 0 0-1.335-.649Zm-31.532 10.573a1.34 1.34 0 0 0-.915 1.43l.747 6.475a1.34 1.34 0 0 0 1.488 1.18 1.34 1.34 0 0 0 1.181-1.488l-.747-6.474a1.34 1.34 0 0 0-1.754-1.123Zm16.407-3.655a1.34 1.34 0 0 0-1.113 1.762l2.073 6.179a1.34 1.34 0 0 0 1.7.846 1.341 1.341 0 0 0 .847-1.701l-2.072-6.179a1.342 1.342 0 0 0-1.435-.907Z"/>
  <g filter="url(#filter1_f_345:13366)" opacity=".409">
    <path fill="#000" d="m169.08 112.187-62.427 57.679-29.419 81.514 55.379-63.945 36.467-75.248Z"/>
  </g>
  <path fill="#FF5150" d="m132.017 186.812-25.363-16.943 61.983-65.335-36.62 82.278Z"/>
  <path fill="#F1F1F1" d="m132.018 186.812-25.364-16.943-36.62 82.278 61.984-65.335Z"/>
  <path fill="#000" d="m70.034 252.147 61.983-65.335 36.62-82.277-98.603 147.612Z" opacity=".243"/>
  <path fill="url(#paint12_radial_345:13366)" d="M391.562 179.54c-3.151 5.907-2.644 17.505 4.196 27.851 6.84 10.345 12.908 6.413 19.606 17.025 8.839 14.002 10.866 35.008 10.866 35.008s10.774 17.491 10.842-3.657c1.656-40.064-43.432-66.916-45.51-76.227Z"/>
  <path fill="url(#paint13_radial_345:13366)" d="M374.646 348.112c43.595-9.728 70.987-53.115 61.217-96.897-9.769-43.781-53.008-71.407-96.56-61.689-43.553 9.719-70.945 53.106-61.175 96.888 9.695 43.842 52.966 71.417 96.518 61.698Z"/>
  <path fill="url(#paint14_linear_345:13366)" d="M426.989 304.52a45.072 45.072 0 0 1-4.634 4.427 128.154 128.154 0 0 0 4.311-12.712c1.266-2.236 2.403-4.389 3.222-6.626a53.249 53.249 0 0 0 1.243-3.976c2.649-8.97 4.652-22.977 1.829-36.276l-.007-.032a49.2 49.2 0 0 0-.216-.981 46.886 46.886 0 0 0-3.227-9.683c.092.246.18.493.269.741-.083-.187-.16-.378-.246-.564.146.347.276.685.411 1.025 2.62 7.48 3.647 15.118 1.654 21.362-.033.092-.068.18-.102.27-.201-8.77-1.71-18.166-5.643-27.032 0 0-1.751-4.346-10.352-16.807-4.95-7.173-12.06-12.372-18.118-15.964-5.601-4.45-10.4-7.205-13.114-9.028-5.669-3.809-8.401-7.003-9.718-9.19-.762-.191-11.422-6.747-12.19-6.916-2.501 6.783-10.389 28.011-.801 44.062 4.344 7.273 12.719 13.96 20.601 17.001.379.277 5.077 3.54 8.943 12.403 3.992 9.157 4.683 16.843 3.325 28.74-2.333 10.693-11.711 22.841-22.275 26.227-22.585 7.238-34.074-4.547-34.074-4.547 8.972 1.455 17.926-1.266 22.702-5.916 4.811-4.699 7.617-8.012 10.582-7.614 2.927.402 4.427-2.995 1.822-5.589a14.297 14.297 0 0 0-15.486-2.996c-5.385 2.155-9.516 7.724-17.794 5.071a15.803 15.803 0 0 1-1.575-.594c-.553-.209 1.677.133 1.118-.121-1.598-.456-4.496-1.58-5.284-2.034-.131-.075 1.192.141 1.061.065-8.104-4.109-8.099-8.108-8.416-10.545-.255-1.949.442-4.675 2.316-6.136 1.135.327 1.86.608 1.86.608s-.628-.786-.965-1.199c.073-.053.154-.061.227-.114.919.215 2.984.846 4.091 1.264 1.455.606 2.032 1.308 2.032 1.308s.29-.256-.127-.975c-.16-.297-.766-1.22-2.238-1.959l.079-.009c.84.259 1.656.591 2.437.994.066-1.354.4-2.828-.271-5.182-.459-1.657-.516-2.1-.956-2.681-.389-.497-.025-.806.564-.332a6.001 6.001 0 0 0-.686-1.227l-.006-.045c.127-2.125 10.527-9.9 11.233-10.695a12.265 12.265 0 0 0 2.576-4.456c.414-1.168.577-2.713.208-4.919-.288-1.587-1.253-2.471-13.213-1.086-3.267.398-5.659-1.499-7.202-3.399-.297-.417-.588-.79-.88-1.162a10.62 10.62 0 0 1-.789-1.398c.686-5.914 2.861-11.271 6.8-15.831.205-.291-1.015.29-.81-.002.239-.34 2.022-1.566 2.352-1.827.404-.314-2.208-.795-4.26-.078-2.091.721-2.49 1.078-3.526 1.819.369-.579 1.742-1.536 1.389-1.453-2.234.871-4.808 2.857-6.925 4.928a1.955 1.955 0 0 1-.024-.806c-1.037.741-3.41 3.334-3.858 5.179a8.193 8.193 0 0 0-.167-.97 15.353 15.353 0 0 0-1.797 2.98l-.035.048c-7.238-1.193-13.12-.062-17.798 2.241-1.324-.845-1.676.067-5.344-4.792-.24-.289.2.293 0 0-.639-.959.559 1.344 0 0-3.41 4.189-8.031 9.106-10.062 12.302-.009.111 2.856-1.552 0 0-1 .543-.786 1.161.33 6.924.058.443.201.922.253 1.321-1.495 3.126-2.414 5.697-2.692 6.985-1.662 5.256-3.017 13.175-3.34 25.295a60.95 60.95 0 0 1 2.584-9.983c-1.038 6.627-1.221 16.71 1.602 31.544a88.111 88.111 0 0 1 .219-9.503 86.153 86.153 0 0 0 14.151 34.364c2.564 3.687 6.681 9.231 12.856 14.935 18.116 12.163 40.954 17.155 63.87 12.041 23.922-5.338 43.068-20.598 54.121-40.512Z"/>
  <path fill="url(#paint15_radial_345:13366)" d="M411.79 319.682c28.205-9.813 34.363-42.509 17.774-39.423-14.974 2.842-31.135 44.066-17.774 39.423Z"/>
  <path fill="url(#paint16_radial_345:13366)" d="M430.288 273.699c17.332-16.038 6.551-39.92 6.551-39.92s-5.695 10.646-7.741 26.047c-2.013 15.248-9.224 23.547 1.19 13.873Z"/>
  <path fill="url(#paint17_radial_345:13366)" d="M379.254 342.498c29.749 2.664 48.736-24.54 32.393-28.563-14.848-3.604-46.51 27.314-32.393 28.563Z"/>
  <path fill="url(#paint18_radial_345:13366)" d="M434.73 283.869c.462-1.104.695-4.361 1.197-5.905 3.137-9.009 1.764-15.327 1.732-15.472-.34-15.454-1.957-21.435-6.271-32.2-3.474-8.667-12.762-20.123-19.702-25.089-7.15-5.116-2.653-3.933-9.237-7.366-6.06-4.301-11.96-8.583-15.003-10.155-21.995-11.361-22.311-14.746-22.079-15.387l-.197.351c-.415-.826-.734-1.528-.734-1.528s-7.871 12.394-6.236 29.758c1.068 11.336 7.76 21.908 15.375 27.921a69.46 69.46 0 0 0 12.789 7.97l-.001-.005c5.962 5.477 10.233 12.924 12.153 21.531 4.81 21.553-8.773 42.926-30.338 47.738a40.123 40.123 0 0 1-8.953.968c-10.607.332-17.628-3.49-21.336-6.32-2.125-1.623-3.164-2.919-3.164-2.919 9.845 1.232 19.772-1.701 25.147-6.454 5.413-4.804 8.584-8.176 11.84-7.852 3.213.329 4.948-3.095 2.143-5.617-2.76-2.528-9.162-5.601-16.981-2.609-5.984 2.281-10.669 7.935-19.721 5.491a17.385 17.385 0 0 1-1.72-.553c-.604-.195 1.844.092 1.234-.148-1.748-.415-4.913-1.465-5.769-1.899-.143-.072 1.309.112 1.165.039-8.824-3.9-8.72-7.887-9.011-10.309-.232-1.938.602-4.673 2.702-6.176 1.242.298 2.033.561 2.033.561s-.673-.768-1.034-1.172c.083-.054.171-.065.253-.119 1.006.192 3.265.769 4.474 1.16 1.588.569 2.206 1.254 2.206 1.254s.326-.262-.116-.968c-.169-.293-.814-1.198-2.417-1.899l.088-.011c.911.235 1.801.547 2.659.932.106-1.352.51-2.83-.171-5.16-.465-1.642-.518-2.082-.988-2.651-.416-.486-.007-.803.629-.344a5.491 5.491 0 0 0-.726-1.208l-.005-.044c.193-2.123 11.836-10.129 12.633-10.939a12.8 12.8 0 0 0 2.945-4.508c.485-1.174.702-2.719.35-4.91-.173-.984-.645-1.688-4.198-1.67-2.132.012-5.374.283-10.328.91-3.607.478-6.195-1.356-7.848-3.212a29.275 29.275 0 0 0-.941-1.138 9.716 9.716 0 0 1-.835-1.374 28.864 28.864 0 0 1 7.877-15.952c.232-.296-1.125.313-.892.017.271-.345 2.264-1.611 2.635-1.879.453-.322-2.413-.738-4.69.027-2.32.769-2.768 1.135-3.928 1.9.421-.587 1.956-1.575 1.565-1.483-2.481.923-5.365 2.966-7.748 5.083a1.757 1.757 0 0 1-.007-.803c-1.16.764-3.837 3.408-4.375 5.259a7.14 7.14 0 0 0-.161-.963 16.17 16.17 0 0 0-2.051 3.014l-.039.05c-7.942-1.013-14.449.258-19.657 2.669-1.438-.81-3.726-2.01-7.648-6.766-.257-.281-.135.731-.349.444-1.606-2.219-3.143-6.099-3.657-8.896 0 0-1.967 1.486-2.849 6.059-.17.824-.293 1.285-.417 1.747-.072.142-.08-1.419-.114-1.327-.196.604-.845 1.531-.988 2.576-.086.769-.342 1.247-.363 2.187l-.034.094c-.076-.259-.176-1.096-.199-.915a43.075 43.075 0 0 0-1.004 5.793c-.26 3.426-.421 8.046.666 13.767.053.44.199.914.247 1.31-1.722 3.155-2.798 5.74-3.135 7.031-1.958 5.284-3.645 13.213-4.296 25.307a58.099 58.099 0 0 1 3.09-10.019c-1.306 6.633-1.754 16.692.993 31.416a79.645 79.645 0 0 1 .473-9.481c1.715 9.843 5.545 21.668 14.744 33.92 5.445 7.199 17.495 21.597 40.896 29.709l-.001.001s8.159 3.648 21.057 4.867c.961.124 1.932.241 2.92.344a17.44 17.44 0 0 1-.92-.178 88.336 88.336 0 0 0 25.483-1.879c31.147-6.923 37.541-21.478 37.541-21.478l-.076.087c.347-.511.674-1.036.982-1.573-3.878 5.736-15.022 8.546-19.29 9.147 6.682-3.696 10.991-6.522 19.361-12.068a51.374 51.374 0 0 0 2.982-2.092c.109-.08.219-.165.328-.248.199-.153.397-.299.597-.458a63.623 63.623 0 0 0 10.745-10.607c7.552-9.392 7.955-16.995 7.947-21.946-.044.484-.263 1.64-.43 2.394-1.237 5.591-5.793 9.869-10.898 13.806a125.548 125.548 0 0 0 5.058-12.78c1.449-2.261 1.385-5.278 2.342-7.528Z"/>
  <path fill="url(#paint19_radial_345:13366)" d="M427.461 303.919c2.825-4.967 5.136-10.444 6.489-16.371 3.482-15.255 8.507-40.45-4.825-62.617-10.537-17.52-21.515-25.936-34.776-33.592-21.537-12.431-28.165-18.647-29.138-23.006 0 0-15.503 27.61-1.199 49.606 14.304 21.996 32.438 17.026 50.152 39.358 20.845 26.28 2.204 64.193-17.137 77.956 1.243-.582 45.063-21.324 41.598-48.264.053.498.643 8.031-11.164 16.93Z"/>
  <path fill="url(#paint20_linear_345:13366)" d="M348.568 231.648c-.278-1.575-1.32-2.442-14.483-.774-5.413.694-8.539-3.755-9.618-5.681-.793 5.321-.424 10.637 1.382 16.763 1.196 4.011 4.909 7.773 6.791 10.049 0 0 .206-.443.309-.613 1.892-3.115 11.343-9.327 12.189-10.099.919-.914 4.324-4.795 3.43-9.645Z"/>
  <path fill="url(#paint21_linear_345:13366)" d="M285.35 215.356c-.257-.282-.136.73-.349.443-1.607-2.219-3.139-6.055-3.614-8.902 0 0-1.967 1.487-2.849 6.059-.169.825-.293 1.286-.416 1.748-.073.142-.081-1.419-.115-1.327-.195.604-.844 1.531-.992 2.531-.126.819-.337 1.291-.353 2.276-.013.269-.182-1.14-.205-.958-2.397 9.086-.453 21.583-.125 20.963 6.835-11.584 16.611-16.151 16.611-16.151-1.274-.562-4.17-2.358-7.593-6.683v.001Z"/>
  <path fill="url(#paint22_linear_345:13366)" d="M341.755 307.951c-13.575-2.526-29.332-6.845-32.584-23.92-4.258-22.492 16.827-22.564 16.827-22.564-.718.354-2.423 2.251-2.799 3.95-.33 2.094-.746 6.75 4.469 10.368 8.188 5.673-9.763 19.974 25.456 31.562.879.252-7.344 1.372-11.368.604h-.001Z"/>
  <path fill="url(#paint23_linear_345:13366)" d="M334.869 297.806c9.471 1.098 19.59-1.724 24.965-6.477 3.594-3.201 8.042-8.034 11.483-7.854-3.052-.483-5.292-.527-7.876-.083-.435.097-.958.204-1.443.262-.936.206-1.86.466-2.767.779-1.549.498-3.081 1.888-4.711 2.083-.088.011 1.397-1.016 1.271-.956-.805.365-1.715.608-2.658.944-.601.206-1.113.402-1.72.564-17.96 5.637-35.992-2.384-35.992-2.384-.327 4.729 8.843 11.892 19.448 13.122Z"/>
  <path fill="url(#paint24_linear_345:13366)" d="M427.454 304.045c14.46-22.312 18.897-46.502 9.405-70.405 0 0 4.418 12.358 1.32 26.696.05-13.334-3.134-29.181-14.436-43.804-15.084-19.519-34.453-27.239-41.938-30.592-11.341-5.082-17.018-11.565-17.431-13.072-1.577 6.599-5.812 28.954 8.854 44.119 13.74 14.208 30.691 15.552 45.163 28.168 26.662 23.241 9.063 58.89 9.063 58.89Z"/>
  <path fill="url(#paint25_linear_345:13366)" d="M414.246 257.334c-9.454-11.924-18.832-15.952-27.882-20.567 1.166 1.046 1.484 1.437 2.155 2.132 8.324 5.666 22.14 20.935 19.839 44.486-4.333 44.333-62.877 36.976-69.779 32.78 7.634 23.394 50.202 25.905 72.797 4.587 11.693-17.342 18.363-43.877 2.87-63.418Z"/>
  <defs>
    <linearGradient id="paint0_linear_345:13366" x1="91.878" x2="532.364" y1="89.561" y2="108.739" gradientUnits="userSpaceOnUse">
      <stop offset=".01" stop-color="#131A2E"/>
      <stop offset=".286" stop-color="#0097E7"/>
      <stop offset=".693" stop-color="#E9EFFD"/>
      <stop offset=".995" stop-color="#131A2E"/>
    </linearGradient>
    <linearGradient id="paint1_linear_345:13366" x1="457.241" x2="500.332" y1="95.826" y2="55.822" gradientUnits="userSpaceOnUse">
      <stop stop-color="#A52714" stop-opacity=".6"/>
      <stop offset=".66" stop-color="#A52714" stop-opacity="0"/>
    </linearGradient>
    <linearGradient id="paint2_linear_345:13366" x1="553.064" x2="490.78" y1="163.101" y2="143.114" gradientUnits="userSpaceOnUse">
      <stop stop-color="#055524" stop-opacity=".4"/>
      <stop offset=".33" stop-color="#055524" stop-opacity="0"/>
    </linearGradient>
    <linearGradient id="paint3_linear_345:13366" x1="539.289" x2="566.705" y1="52.529" y2="110.12" gradientUnits="userSpaceOnUse">
      <stop stop-color="#EA6100" stop-opacity=".3"/>
      <stop offset=".66" stop-color="#EA6100" stop-opacity="0"/>
    </linearGradient>
    <linearGradient id="paint4_linear_345:13366" x1="539.289" x2="566.705" y1="52.529" y2="110.12" gradientUnits="userSpaceOnUse">
      <stop stop-color="#EA6100" stop-opacity=".3"/>
      <stop offset=".66" stop-color="#EA6100" stop-opacity="0"/>
    </linearGradient>
    <linearGradient id="paint5_linear_345:13366" x1="457.241" x2="500.332" y1="95.826" y2="55.822" gradientUnits="userSpaceOnUse">
      <stop stop-color="#A52714" stop-opacity=".6"/>
      <stop offset=".66" stop-color="#A52714" stop-opacity="0"/>
    </linearGradient>
    <linearGradient id="paint7_linear_345:13366" x1="553.064" x2="490.78" y1="163.103" y2="143.116" gradientUnits="userSpaceOnUse">
      <stop stop-color="#055524" stop-opacity=".4"/>
      <stop offset=".33" stop-color="#055524" stop-opacity="0"/>
    </linearGradient>
    <linearGradient id="paint10_linear_345:13366" x1="141.107" x2="97.564" y1="275.901" y2="80.773" gradientUnits="userSpaceOnUse">
      <stop stop-color="#BDBDBD"/>
      <stop offset="1" stop-color="#fff"/>
    </linearGradient>
    <linearGradient id="paint14_linear_345:13366" x1="376.038" x2="317.165" y1="301.996" y2="198.268" gradientUnits="userSpaceOnUse">
      <stop stop-color="#000F43" stop-opacity=".4"/>
      <stop offset=".485" stop-color="#001962" stop-opacity=".173"/>
      <stop offset="1" stop-color="#002079" stop-opacity="0"/>
    </linearGradient>
    <linearGradient id="paint20_linear_345:13366" x1="296.914" x2="358.002" y1="249.798" y2="226.205" gradientUnits="userSpaceOnUse">
      <stop stop-color="#C42482" stop-opacity=".5"/>
      <stop offset=".474" stop-color="#FF272D" stop-opacity=".5"/>
      <stop offset=".486" stop-color="#FF2C2C" stop-opacity=".513"/>
      <stop offset=".675" stop-color="#FF7A1A" stop-opacity=".72"/>
      <stop offset=".829" stop-color="#FFB20D" stop-opacity=".871"/>
      <stop offset=".942" stop-color="#FFD605" stop-opacity=".964"/>
      <stop offset="1" stop-color="#FFE302"/>
    </linearGradient>
    <linearGradient id="paint21_linear_345:13366" x1="286.84" x2="273.938" y1="234.32" y2="210.213" gradientUnits="userSpaceOnUse">
      <stop stop-color="#891551" stop-opacity=".6"/>
      <stop offset="1" stop-color="#C42482" stop-opacity="0"/>
    </linearGradient>
    <linearGradient id="paint22_linear_345:13366" x1="308.798" x2="328.135" y1="268.44" y2="285.728" gradientUnits="userSpaceOnUse">
      <stop offset=".005" stop-color="#891551" stop-opacity=".5"/>
      <stop offset=".484" stop-color="#FF272D" stop-opacity=".5"/>
      <stop offset="1" stop-color="#FF272D" stop-opacity="0"/>
    </linearGradient>
    <linearGradient id="paint23_linear_345:13366" x1="345.03" x2="343.42" y1="298.176" y2="284.651" gradientUnits="userSpaceOnUse">
      <stop stop-color="#C42482"/>
      <stop offset=".083" stop-color="#C42482" stop-opacity=".81"/>
      <stop offset=".206" stop-color="#C42482" stop-opacity=".565"/>
      <stop offset=".328" stop-color="#C42482" stop-opacity=".362"/>
      <stop offset=".447" stop-color="#C42482" stop-opacity=".204"/>
      <stop offset=".562" stop-color="#C42482" stop-opacity=".091"/>
      <stop offset=".673" stop-color="#C42482" stop-opacity=".023"/>
      <stop offset=".773" stop-color="#C42482" stop-opacity="0"/>
    </linearGradient>
    <linearGradient id="paint24_linear_345:13366" x1="362.742" x2="444.19" y1="175.625" y2="285.002" gradientUnits="userSpaceOnUse">
      <stop stop-color="#FFF14F"/>
      <stop offset=".268" stop-color="#FFEE4C"/>
      <stop offset=".452" stop-color="#FFE643"/>
      <stop offset=".612" stop-color="#FFD834"/>
      <stop offset=".757" stop-color="#FFC41E"/>
      <stop offset=".892" stop-color="#FFAB02"/>
      <stop offset=".902" stop-color="#FFA900"/>
      <stop offset=".949" stop-color="#FFA000"/>
      <stop offset="1" stop-color="#FF9100"/>
    </linearGradient>
    <linearGradient id="paint25_linear_345:13366" x1="389.064" x2="378.747" y1="243.108" y2="317.958" gradientUnits="userSpaceOnUse">
      <stop stop-color="#FF8E00"/>
      <stop offset=".04" stop-color="#FF8E00" stop-opacity=".858"/>
      <stop offset=".084" stop-color="#FF8E00" stop-opacity=".729"/>
      <stop offset=".13" stop-color="#FF8E00" stop-opacity=".628"/>
      <stop offset=".178" stop-color="#FF8E00" stop-opacity=".557"/>
      <stop offset=".227" stop-color="#FF8E00" stop-opacity=".514"/>
      <stop offset=".282" stop-color="#FF8E00" stop-opacity=".5"/>
      <stop offset=".389" stop-color="#FF8E00" stop-opacity=".478"/>
      <stop offset=".524" stop-color="#FF8E00" stop-opacity=".416"/>
      <stop offset=".676" stop-color="#FF8E00" stop-opacity=".314"/>
      <stop offset=".838" stop-color="#FF8E00" stop-opacity=".172"/>
      <stop offset="1" stop-color="#FF8E00" stop-opacity="0"/>
    </linearGradient>
    <radialGradient id="paint6_radial_345:13366" cx="0" cy="0" r="1" gradientTransform="rotate(-12.579 549.288 -2292.86) scale(81.3076)" gradientUnits="userSpaceOnUse">
      <stop stop-color="#3E2723" stop-opacity=".2"/>
      <stop offset="1" stop-color="#3E2723" stop-opacity="0"/>
    </radialGradient>
    <radialGradient id="paint8_radial_345:13366" cx="0" cy="0" r="1" gradientTransform="rotate(-12.579 550.681 -1980.878) scale(75.4668)" gradientUnits="userSpaceOnUse">
      <stop stop-color="#3E2723" stop-opacity=".2"/>
      <stop offset="1" stop-color="#3E2723" stop-opacity="0"/>
    </radialGradient>
    <radialGradient id="paint9_radial_345:13366" cx="0" cy="0" r="1" gradientTransform="rotate(-12.579 723.852 -2328.09) scale(84.9726)" gradientUnits="userSpaceOnUse">
      <stop stop-color="#263238" stop-opacity=".2"/>
      <stop offset="1" stop-color="#263238" stop-opacity="0"/>
    </radialGradient>
    <radialGradient id="paint11_radial_345:13366" cx="0" cy="0" r="1" gradientTransform="rotate(-12.579 807.54 -447.372) scale(99.9641)" gradientUnits="userSpaceOnUse">
      <stop stop-color="#06C2E7"/>
      <stop offset=".25" stop-color="#0DB8EC"/>
      <stop offset=".5" stop-color="#12AEF1"/>
      <stop offset=".75" stop-color="#1F86F9"/>
      <stop offset="1" stop-color="#107DDD"/>
    </radialGradient>
    <radialGradient id="paint12_radial_345:13366" cx="0" cy="0" r="1" gradientTransform="matrix(61.6824 -10.90358 16.02628 90.66192 422.211 201.559)" gradientUnits="userSpaceOnUse">
      <stop offset=".045" stop-color="#FFEA00"/>
      <stop offset=".12" stop-color="#FFDE00"/>
      <stop offset=".254" stop-color="#FFBF00"/>
      <stop offset=".429" stop-color="#FF8E00"/>
      <stop offset=".769" stop-color="#FF272D"/>
      <stop offset=".872" stop-color="#E0255A"/>
      <stop offset=".953" stop-color="#CC2477"/>
      <stop offset="1" stop-color="#C42482"/>
    </radialGradient>
    <radialGradient id="paint13_radial_345:13366" cx="0" cy="0" r="1" gradientTransform="rotate(-12.579 1103.933 -1607.225) scale(176.538)" gradientUnits="userSpaceOnUse">
      <stop stop-color="#00CCDA"/>
      <stop offset=".22" stop-color="#0083FF"/>
      <stop offset=".261" stop-color="#007AF9"/>
      <stop offset=".33" stop-color="#0060E8"/>
      <stop offset=".333" stop-color="#005FE7"/>
      <stop offset=".438" stop-color="#2639AD"/>
      <stop offset=".522" stop-color="#401E84"/>
      <stop offset=".566" stop-color="#4A1475"/>
    </radialGradient>
    <radialGradient id="paint15_radial_345:13366" cx="0" cy="0" r="1" gradientTransform="rotate(-6.818 2470.96 -3666.16) scale(59.5565)" gradientUnits="userSpaceOnUse">
      <stop offset=".003" stop-color="#FFEA00"/>
      <stop offset=".497" stop-color="#FF272D"/>
      <stop offset="1" stop-color="#C42482"/>
    </radialGradient>
    <radialGradient id="paint16_radial_345:13366" cx="0" cy="0" r="1" gradientTransform="rotate(-6.818 1994.283 -3592.37) scale(99.4545)" gradientUnits="userSpaceOnUse">
      <stop offset=".003" stop-color="#FFE900"/>
      <stop offset=".157" stop-color="#FFAF0E"/>
      <stop offset=".316" stop-color="#FF7A1B"/>
      <stop offset=".472" stop-color="#FF4E26"/>
      <stop offset=".621" stop-color="#FF2C2E"/>
      <stop offset=".762" stop-color="#FF1434"/>
      <stop offset=".892" stop-color="#FF0538"/>
      <stop offset="1" stop-color="#FF0039"/>
    </radialGradient>
    <radialGradient id="paint17_radial_345:13366" cx="0" cy="0" r="1" gradientTransform="rotate(-6.818 2761.132 -3756.542) scale(91.2602)" gradientUnits="userSpaceOnUse">
      <stop offset=".003" stop-color="#FF272D"/>
      <stop offset=".497" stop-color="#C42482"/>
      <stop offset=".986" stop-color="#620700"/>
    </radialGradient>
    <radialGradient id="paint18_radial_345:13366" cx="0" cy="0" r="1" gradientTransform="rotate(-12.579 1265.192 -1668.544) scale(142.464)" gradientUnits="userSpaceOnUse">
      <stop offset=".156" stop-color="#FFEA00"/>
      <stop offset=".231" stop-color="#FFDE00"/>
      <stop offset=".365" stop-color="#FFBF00"/>
      <stop offset=".541" stop-color="#FF8E00"/>
      <stop offset=".763" stop-color="#FF272D"/>
      <stop offset=".796" stop-color="#F92433"/>
      <stop offset=".841" stop-color="#E91C45"/>
      <stop offset=".893" stop-color="#CF0E62"/>
      <stop offset=".935" stop-color="#B5007F"/>
    </radialGradient>
    <radialGradient id="paint19_radial_345:13366" cx="0" cy="0" r="1" gradientTransform="rotate(-12.579 946.04 -1584.153) scale(168.225)" gradientUnits="userSpaceOnUse">
      <stop offset=".279" stop-color="#FFEA00"/>
      <stop offset=".402" stop-color="#FD0"/>
      <stop offset=".63" stop-color="#FFBA00"/>
      <stop offset=".856" stop-color="#FF9100"/>
      <stop offset=".933" stop-color="#FF6711"/>
      <stop offset=".994" stop-color="#FF4A1D"/>
    </radialGradient>
    <filter id="filter0_f_345:13366" width="207.38" height="200.919" x="17.428" y="85.867" color-interpolation-filters="sRGB" filterUnits="userSpaceOnUse">
      <feFlood flood-opacity="0" result="BackgroundImageFix"/>
      <feBlend in="SourceGraphic" in2="BackgroundImageFix" result="shape"/>
      <feGaussianBlur result="effect1_foregroundBlur_345:13366" stdDeviation="3.78"/>
    </filter>
    <filter id="filter1_f_345:13366" width="96.144" height="143.491" x="75.086" y="110.038" color-interpolation-filters="sRGB" filterUnits="userSpaceOnUse">
      <feFlood flood-opacity="0" result="BackgroundImageFix"/>
      <feBlend in="SourceGraphic" in2="BackgroundImageFix" result="shape"/>
      <feGaussianBlur result="effect1_foregroundBlur_345:13366" stdDeviation="1.074"/>
    </filter>
    <clipPath id="clip0_345:13366">
      <rect width="170.197" height="170.197" x="422.985" y="37.067" fill="#fff" rx="85.098" transform="rotate(-12.58 422.985 37.067)"/>
    </clipPath>
  </defs>
</svg>
