<svg xmlns="http://www.w3.org/2000/svg" fill="none" viewBox="0 0 24 24"><g clip-path="url(#clip0_102_99)"><path fill="#fff" d="M8.953 14.442c1.526 0 2.818-.538 3.874-1.614 1.057-1.077 1.595-2.378 1.614-3.904.02-1.526-.518-2.818-1.614-3.874-1.096-1.057-2.387-1.595-3.874-1.614-1.487-.02-2.788.518-3.904 1.614-1.115 1.096-1.653 2.387-1.614 3.874.04 1.487.577 2.788 1.614 3.904 1.037 1.115 2.339 1.653 3.904 1.614Zm8.251.39L24 21.63 21.676 24l-6.797-6.83.003-1.283-.166-.183c-1.624 1.405-3.544 2.107-5.761 2.107-2.502 0-4.62-.856-6.354-2.568C.867 13.531 0 11.424 0 8.923 0 6.42.866 4.312 2.6 2.6 4.335.89 6.453.022 8.955.001c2.502-.023 4.598.844 6.288 2.6 1.69 1.756 2.546 3.863 2.568 6.321 0 2.239-.703 4.17-2.107 5.794l.182.167 1.318-.05Z"/></g><defs><clipPath id="clip0_102_99"><path fill="#fff" d="M0 0h24v24H0z"/></clipPath></defs></svg>
