<svg viewBox="0 0 296 288" fill="none" xmlns="http://www.w3.org/2000/svg">
<path d="M287.865 87.2819L287.864 87.2943V87.3068V135.457H159.367H30.369H9.46907C9.10232 127.713 8.60021 116.079 8.25728 105.737C8.08225 100.459 7.94877 95.519 7.89585 91.6055C7.84269 87.6739 7.87196 84.8206 8.01413 83.6833L8.02277 83.6142L8.01217 83.5453C7.73257 81.7278 8.03244 80.2852 8.67747 79.1343C9.3262 77.9767 10.3452 77.0772 11.5602 76.3904C14.0025 75.01 17.1514 74.5385 19.3121 74.5385L19.3136 74.5385C99.922 74.2927 263.884 73.9491 275.07 74.5378L275.109 74.5399L275.148 74.5357C280.576 73.9644 283.772 75.9778 285.611 78.6696C287.478 81.4025 287.984 84.8956 287.865 87.2819Z" stroke="url(#paint0_linear_2:1079)"/>
<path d="M252.35 54.7872V137.578L32.9477 135.376V52.5758V52.5602L32.9467 52.5446C32.8317 50.7052 33.4547 47.8992 35.7362 45.5531C38.0088 43.2162 41.9814 41.2817 48.6645 41.2817H48.7671L48.8615 41.2413C48.9206 41.216 49.1039 41.1699 49.4684 41.1192C49.8133 41.0713 50.2735 41.025 50.8471 40.9806C51.9933 40.892 53.5685 40.813 55.5312 40.7433C59.4553 40.6038 64.9086 40.502 71.5347 40.4317C84.7857 40.2912 102.714 40.2774 122.45 40.3419C161.905 40.4708 208.578 40.9128 239.537 41.2813C241.68 41.6452 244.891 42.7585 247.56 44.9119C250.231 47.0664 252.35 50.2496 252.35 54.7872Z" fill="#131A2E" stroke="url(#paint1_linear_2:1079)"/>
<path d="M33.0944 135.151L68.2971 10.4754L68.3006 10.4629L68.3034 10.4503C68.8988 7.83085 70.6134 4.31461 73.7836 2.24429C76.9163 0.198464 81.5778 -0.504035 88.2398 2.68214L88.2777 2.70029L88.3181 2.71184C96.5711 5.06982 216.99 39.5454 276.227 56.5054C277.869 57.458 280.079 59.403 281.39 62.1538C282.7 64.9023 283.126 68.4786 281.149 72.7429C281.122 72.7849 281.105 72.8205 281.098 72.8353C281.083 72.8676 281.067 72.9032 281.052 72.9401C281.046 72.9559 281.039 72.972 281.033 72.9882C280.991 73.0975 280.941 73.2421 280.885 73.4157C280.772 73.7646 280.625 74.2563 280.448 74.8727C280.094 76.1068 279.616 77.8576 279.043 80.003C277.898 84.2946 276.372 90.1751 274.704 96.6806C271.409 109.534 267.556 124.833 264.976 135.151H33.0944Z" fill="#131A2E" stroke="url(#paint2_linear_2:1079)"/>
<path d="M15.5826 134.976L15.6293 134.984L15.6766 134.983C36.437 134.492 68.7939 133.902 98.392 133.73C128.009 133.558 154.814 133.805 164.505 134.979C174.339 136.171 179.782 133.576 182.501 129.664C185.155 125.844 185.096 120.925 184.248 117.535C185.105 114.522 186.88 112.89 188.745 112.051C190.658 111.191 192.691 111.156 193.961 111.387L194.009 111.396L194.058 111.395C210.036 111.149 243.831 110.806 251.494 111.392C254.185 111.753 256.072 112.556 257.401 113.593C258.729 114.629 259.531 115.925 260.012 117.323C260.793 119.596 260.72 122.081 260.659 124.158C260.645 124.659 260.631 125.135 260.63 125.58C260.26 127.184 260.267 128.569 260.612 129.755C260.963 130.96 261.653 131.927 262.586 132.693C264.431 134.206 267.227 134.932 270.291 135.257C273.371 135.583 276.812 135.513 280.019 135.363C281.094 135.312 282.14 135.253 283.137 135.197C285.134 135.085 286.939 134.983 288.403 134.983C290.066 134.983 291.295 135.471 292.207 136.237C293.128 137.009 293.762 138.094 294.176 139.34C295.006 141.844 294.905 144.885 294.545 146.927L294.538 146.966L294.537 147.005C294.169 167.644 293.542 198.713 292.861 224.842C292.52 237.907 292.165 249.735 291.822 258.407C291.65 262.743 291.482 266.287 291.32 268.8C291.238 270.058 291.159 271.051 291.082 271.756C291.044 272.109 291.007 272.381 290.972 272.574C290.954 272.672 290.939 272.741 290.926 272.787C290.923 272.798 290.92 272.806 290.918 272.812L290.837 272.934L290.854 273.111C291.428 279.14 289.283 282.577 286.448 284.479C283.569 286.41 279.9 286.81 277.394 286.571L277.369 286.569L277.345 286.569C235.329 286.692 171.973 286.839 118.458 286.882C91.7001 286.904 67.4031 286.899 49.4641 286.852C40.4945 286.829 33.1152 286.795 27.8129 286.748C22.4882 286.701 19.2995 286.642 18.6692 286.572L18.6303 286.568L18.5912 286.569C12.2023 286.86 8.69216 285.103 6.85254 282.914C4.99983 280.709 4.75173 277.961 5.09993 276.104L5.10989 276.051L5.10827 275.997C4.49388 255.48 3.53542 224.409 2.65684 197.878C2.21756 184.613 1.79822 172.481 1.45183 163.371C1.10618 154.28 0.832113 148.16 0.68118 146.952L0.681257 146.952L0.680016 146.944C0.248494 143.923 0.6234 141.637 1.47617 139.916C2.32792 138.196 3.67823 136.996 5.27696 136.182C8.49816 134.542 12.6887 134.494 15.5826 134.976Z" fill="#131A2E" stroke="url(#paint3_linear_2:1079)"/>
<path d="M86.8358 69.296L145.362 85.1999C148.111 85.9468 149.641 88.8766 148.683 91.5589C147.805 94.0153 145.153 95.3496 142.658 94.5902L84.637 76.9316C82.3401 76.2326 81.1832 73.6719 82.1767 71.4862C82.9828 69.7127 84.9559 68.7852 86.8358 69.296Z" fill="#131A2E" stroke="url(#paint4_linear_2:1079)"/>
<path d="M95.4647 40.2804L209.261 74.1483C211.702 74.8749 212.976 77.5566 211.996 79.9077C211.159 81.9158 208.951 82.9792 206.86 82.3816L92.6987 49.7642C89.9547 48.9802 88.4441 46.0409 89.4039 43.3534C90.2868 40.8814 92.9488 39.5317 95.4647 40.2804Z" fill="#131A2E" stroke="url(#paint5_linear_2:1079)"/>
<path d="M191.804 190.485L182.921 187.524L187.104 179.158C187.528 178.282 187.67 177.297 187.51 176.337C187.35 175.377 186.896 174.491 186.211 173.8L176.2 163.789C175.506 163.094 174.611 162.634 173.641 162.474C172.672 162.313 171.676 162.461 170.795 162.896L162.429 167.079L159.468 158.196C159.155 157.27 158.562 156.465 157.77 155.892C156.978 155.319 156.027 155.007 155.05 155L140.95 155C139.965 154.997 139.003 155.305 138.202 155.878C137.401 156.452 136.8 157.262 136.485 158.196L133.524 167.079L125.158 162.896C124.282 162.472 123.297 162.33 122.337 162.49C121.377 162.65 120.491 163.104 119.8 163.789L109.789 173.8C109.094 174.495 108.634 175.389 108.474 176.359C108.313 177.328 108.461 178.324 108.896 179.205L113.079 187.571L104.196 190.532C103.27 190.845 102.465 191.438 101.892 192.23C101.319 193.022 101.007 193.973 101 194.95L101 209.05C100.997 210.035 101.305 210.997 101.878 211.798C102.452 212.599 103.262 213.2 104.196 213.515L113.079 216.476L108.896 224.842C108.472 225.718 108.33 226.703 108.49 227.663C108.65 228.623 109.104 229.509 109.789 230.2L119.8 240.211C120.495 240.906 121.389 241.366 122.359 241.526C123.328 241.687 124.324 241.539 125.205 241.104L133.571 236.921L136.532 245.804C136.847 246.738 137.448 247.548 138.249 248.122C139.05 248.695 140.012 249.003 140.997 249L155.097 249C156.082 249.003 157.044 248.695 157.845 248.122C158.646 247.548 159.247 246.738 159.562 245.804L162.523 236.921L170.889 241.104C171.759 241.517 172.735 241.653 173.685 241.494C174.635 241.334 175.513 240.886 176.2 240.211L186.211 230.2C186.906 229.506 187.366 228.611 187.526 227.641C187.687 226.672 187.539 225.676 187.104 224.795L182.921 216.429L191.804 213.468C192.73 213.155 193.535 212.562 194.108 211.77C194.681 210.978 194.993 210.027 195 209.05L195 194.95C195.003 193.965 194.695 193.003 194.122 192.202C193.548 191.401 192.738 190.8 191.804 190.485ZM185.6 205.666L179.96 207.546C178.663 207.967 177.473 208.664 176.473 209.591C175.473 210.517 174.686 211.65 174.167 212.911C173.648 214.172 173.41 215.531 173.469 216.893C173.528 218.255 173.882 219.589 174.508 220.8L177.187 226.158L172.017 231.328L166.8 228.508C165.595 227.908 164.274 227.573 162.929 227.527C161.583 227.481 160.243 227.725 158.999 228.242C157.756 228.759 156.638 229.537 155.722 230.524C154.805 231.51 154.111 232.682 153.687 233.96L151.807 239.6L144.334 239.6L142.454 233.96C142.033 232.663 141.336 231.473 140.409 230.473C139.483 229.473 138.35 228.686 137.089 228.167C135.828 227.648 134.469 227.41 133.107 227.469C131.745 227.528 130.412 227.882 129.2 228.508L123.842 231.187L118.672 226.017L121.492 220.8C122.118 219.589 122.472 218.255 122.531 216.893C122.59 215.531 122.352 214.172 121.833 212.911C121.314 211.65 120.527 210.517 119.527 209.591C118.527 208.664 117.337 207.967 116.04 207.546L110.4 205.666L110.4 198.334L116.04 196.454C117.337 196.033 118.527 195.336 119.527 194.409C120.527 193.483 121.314 192.35 121.833 191.089C122.352 189.828 122.59 188.469 122.531 187.107C122.472 185.745 122.118 184.412 121.492 183.2L118.813 177.983L123.983 172.813L129.2 175.492C130.412 176.118 131.745 176.472 133.107 176.531C134.469 176.59 135.828 176.352 137.089 175.833C138.35 175.314 139.483 174.527 140.409 173.527C141.336 172.527 142.033 171.337 142.454 170.04L144.334 164.4L151.666 164.4L153.546 170.04C153.967 171.337 154.664 172.527 155.591 173.527C156.517 174.527 157.65 175.314 158.911 175.833C160.172 176.352 161.531 176.59 162.893 176.531C164.255 176.472 165.589 176.118 166.8 175.492L172.158 172.813L177.328 177.983L174.508 183.2C173.908 184.405 173.573 185.726 173.527 187.071C173.481 188.417 173.725 189.757 174.242 191.001C174.759 192.244 175.537 193.362 176.524 194.278C177.51 195.195 178.682 195.889 179.96 196.313L185.6 198.193L185.6 205.666ZM148 183.2C144.282 183.2 140.647 184.303 137.555 186.368C134.464 188.434 132.054 191.37 130.631 194.806C129.208 198.241 128.836 202.021 129.561 205.668C130.287 209.315 132.077 212.664 134.706 215.294C137.336 217.923 140.685 219.713 144.332 220.439C147.979 221.164 151.759 220.792 155.194 219.369C158.63 217.946 161.566 215.536 163.632 212.445C165.697 209.353 166.8 205.718 166.8 202C166.8 197.014 164.819 192.232 161.294 188.706C157.768 185.181 152.986 183.2 148 183.2V183.2ZM148 211.4C146.141 211.4 144.323 210.849 142.778 209.816C141.232 208.783 140.027 207.315 139.316 205.597C138.604 203.88 138.418 201.99 138.781 200.166C139.143 198.343 140.039 196.668 141.353 195.353C142.668 194.039 144.343 193.143 146.166 192.781C147.99 192.418 149.88 192.604 151.597 193.316C153.315 194.027 154.783 195.232 155.816 196.778C156.849 198.323 157.4 200.141 157.4 202C157.4 204.493 156.41 206.884 154.647 208.647C152.884 210.41 150.493 211.4 148 211.4Z" fill="url(#paint6_linear_2:1079)"/>
<defs>
<linearGradient id="paint0_linear_2:1079" x1="147.876" y1="73.7129" x2="147.876" y2="135.957" gradientUnits="userSpaceOnUse">
<stop offset="0.0885417" stop-color="#E9EFFD"/>
<stop offset="0.380208" stop-color="#0097E7"/>
<stop offset="0.697917" stop-color="#2E89BA"/>
<stop offset="0.989583" stop-color="#296889"/>
</linearGradient>
<linearGradient id="paint1_linear_2:1079" x1="142.642" y1="39.8049" x2="142.642" y2="138.083" gradientUnits="userSpaceOnUse">
<stop offset="0.0885417" stop-color="#E9EFFD"/>
<stop offset="0.380208" stop-color="#0097E7"/>
<stop offset="0.697917" stop-color="#2E89BA"/>
<stop offset="0.989583" stop-color="#296889"/>
</linearGradient>
<linearGradient id="paint2_linear_2:1079" x1="157.718" y1="0" x2="157.718" y2="135.651" gradientUnits="userSpaceOnUse">
<stop offset="0.0885417" stop-color="#E9EFFD"/>
<stop offset="0.380208" stop-color="#0097E7"/>
<stop offset="0.697917" stop-color="#2E89BA"/>
<stop offset="0.989583" stop-color="#296889"/>
</linearGradient>
<linearGradient id="paint3_linear_2:1079" x1="147.656" y1="110.569" x2="147.656" y2="287.394" gradientUnits="userSpaceOnUse">
<stop offset="0.0885417" stop-color="#E9EFFD"/>
<stop offset="0.380208" stop-color="#0097E7"/>
<stop offset="0.697917" stop-color="#2E89BA"/>
<stop offset="0.989583" stop-color="#296889"/>
</linearGradient>
<linearGradient id="paint4_linear_2:1079" x1="115.361" y1="67.8159" x2="115.361" y2="96.564" gradientUnits="userSpaceOnUse">
<stop offset="0.0885417" stop-color="#E9EFFD"/>
<stop offset="0.380208" stop-color="#0097E7"/>
<stop offset="0.697917" stop-color="#2E89BA"/>
<stop offset="0.989583" stop-color="#296889"/>
</linearGradient>
<linearGradient id="paint5_linear_2:1079" x1="150.743" y1="38.3308" x2="150.743" y2="84.0328" gradientUnits="userSpaceOnUse">
<stop offset="0.0885417" stop-color="#E9EFFD"/>
<stop offset="0.380208" stop-color="#0097E7"/>
<stop offset="0.697917" stop-color="#2E89BA"/>
<stop offset="0.989583" stop-color="#296889"/>
</linearGradient>
<linearGradient id="paint6_linear_2:1079" x1="148" y1="155" x2="148" y2="249" gradientUnits="userSpaceOnUse">
<stop stop-color="#64DAFF"/>
<stop offset="0.635417" stop-color="#3F83A0" stop-opacity="0.546875"/>
<stop offset="0.802083" stop-color="#4086A3" stop-opacity="0.561732"/>
<stop offset="1" stop-color="#131A2E" stop-opacity="0"/>
</linearGradient>
</defs>
</svg>
