<svg version="1.1" xmlns="http://www.w3.org/2000/svg" viewBox="0 0 26.1 11.7" fill="white" xml:space="preserve">
  <path d="M2.8 5.9 6.7 2a1 1 0 0 0 0-1.6C6.2-.1 5.5-.1 5 .4L.7 4.6l-.2.3-.2.2a1 1 0 0 0 0 1.6L5 11.4c.5.4 1.2.4 1.6 0a1 1 0 0 0 0-1.6L2.8 5.9zM14.4 1.3l2 1.2L12 9.9l-2-1.1zM11.9 10.2 9.9 9l-.2 2.6zM14.8.6c.3-.5 1-.7 1.6-.4.6.3.7 1 .4 1.6l-.3.5-2-1.1.3-.6zM25.7 6.7l-.2.2-.2.3-4.3 4.2c-.5.4-1.2.4-1.6 0a1 1 0 0 1 0-1.6L23.3 6l-3.9-4a1 1 0 0 1 0-1.6c.5-.4 1.2-.4 1.6 0l4.7 4.7c.5.4.5 1.1 0 1.6z"/>
</svg>
