<svg xmlns="http://www.w3.org/2000/svg" fill="#fff" stroke="#fff" stroke-width="10" aria-hidden="true" viewBox="0 0 247.1 247.1">
  <path d="M75.4 175.5h97v6.5h-97zm0 19.4h97v6.5h-97z"/>
  <circle cx="178.9" cy="117.3" r="6.5" stroke-miterlimit="10" stroke-width="2"/>
  <path d="M198.3 84.9h-12.9V39.6c0-7.1-5.8-12.9-12.9-12.9h-97c-7.1 0-12.9 5.8-12.9 12.9v45.3H49.5c-11 0-19.4 8.4-19.4 19.4v58.2c0 11 8.4 19.4 19.4 19.4h12.9v25.9c0 7.1 5.8 12.9 12.9 12.9h97c7.1 0 12.9-5.8 12.9-12.9v-25.9h12.9c11 0 19.4-8.4 19.4-19.4v-58.2c.2-11-8.2-19.4-19.2-19.4zM68.9 39.6c0-3.2 2.6-6.5 6.5-6.5h97c3.2 0 6.5 2.6 6.5 6.5v45.3h-110V39.6zm110 168.2c0 3.2-2.6 6.5-6.5 6.5h-97c-3.2 0-6.5-2.6-6.5-6.5v-45.3h110v45.3zm32.3-45.3c0 7.1-5.8 12.9-12.9 12.9h-12.9V156h-123v19.4H49.5c-7.1 0-12.9-5.8-12.9-12.9v-58.2c0-7.1 5.8-12.9 12.9-12.9h148.8c7.1 0 12.9 5.8 12.9 12.9v58.2z"/>
</svg>
