<svg enable-background="new 0 0 512 512" viewBox="0 0 512 512" xmlns="http://www.w3.org/2000/svg" fill="#fff">
  <path d="m469.074 266.841h42.926v-114.256h-84.256v-12.926c0-28.256-22.988-51.244-51.244-51.244s-51.244 22.988-51.244 51.244v12.926h-138.512v-12.926c0-28.256-22.988-51.244-51.244-51.244s-51.244 22.988-51.244 51.244v12.926h-84.256v271h114.256v-42.926c0-11.714 9.53-21.244 21.244-21.244s21.244 9.53 21.244 21.244v42.926h355.256v-114.256h-42.926c-11.714 0-21.244-9.53-21.244-21.244s9.53-21.244 21.244-21.244zm-228.074 126.744h-54.256v-12.926c0-28.256-22.988-51.244-51.244-51.244s-51.244 22.988-51.244 51.244v12.926h-54.256v-211h84.256v-42.926c0-11.714 9.53-21.244 21.244-21.244s21.244 9.53 21.244 21.244v42.926h84.256v84.256h42.926c11.714 0 21.244 9.53 21.244 21.244s-9.53 21.244-21.244 21.244h-42.926zm228.074-54.256h12.926v54.256h-211v-54.256h12.926c28.256 0 51.244-22.988 51.244-51.244s-22.988-51.244-51.244-51.244h-12.926v-54.256h84.256v-42.926c0-11.714 9.53-21.244 21.244-21.244s21.244 9.53 21.244 21.244v42.926h84.256v54.256h-12.926c-28.256 0-51.244 22.988-51.244 51.244s22.988 51.244 51.244 51.244z"/>
</svg>
