<svg xmlns="http://www.w3.org/2000/svg" fill="#fff" viewBox="0 0 512 512">
  <path d="M469.074 266.841H512V152.585h-84.256v-12.926c0-28.256-22.988-51.244-51.244-51.244s-51.244 22.988-51.244 51.244v12.926H186.744v-12.926c0-28.256-22.988-51.244-51.244-51.244s-51.244 22.988-51.244 51.244v12.926H0v271h114.256v-42.926c0-11.714 9.53-21.244 21.244-21.244s21.244 9.53 21.244 21.244v42.926H512V309.329h-42.926c-11.714 0-21.244-9.53-21.244-21.244s9.53-21.244 21.244-21.244zM241 393.585h-54.256v-12.926c0-28.256-22.988-51.244-51.244-51.244s-51.244 22.988-51.244 51.244v12.926H30v-211h84.256v-42.926c0-11.714 9.53-21.244 21.244-21.244s21.244 9.53 21.244 21.244v42.926H241v84.256h42.926c11.714 0 21.244 9.53 21.244 21.244s-9.53 21.244-21.244 21.244H241zm228.074-54.256H482v54.256H271v-54.256h12.926c28.256 0 51.244-22.988 51.244-51.244s-22.988-51.244-51.244-51.244H271v-54.256h84.256v-42.926c0-11.714 9.53-21.244 21.244-21.244s21.244 9.53 21.244 21.244v42.926H482v54.256h-12.926c-28.256 0-51.244 22.988-51.244 51.244s22.988 51.244 51.244 51.244z"/>
</svg>
