<svg xmlns="http://www.w3.org/2000/svg" xml:space="preserve" id="esl-logo" x="0" y="0" baseProfile="tiny" version="1.2" viewBox="0 0 400 400"><g id="esl-logo-shield"><path id="esl-logo-shield-main_1_" fill="none" stroke="#C6361A" stroke-miterlimit="10" d="M200 292c-.3 0-.6 0-.9-.1-.7-.2-73.1-17-73.1-96.9v-56.3c0-1.8 1.1-3.5 2.8-4.1l69.6-26.3c1-.4 2.1-.4 3.1 0l69.6 26.3c1.7.6 2.8 2.3 2.8 4.1V195c0 79.9-72.3 96.8-73.1 96.9-.2.1-.5.1-.8.1z"/><path id="esl-logo-shield-main-right" fill="none" stroke="#FF5D24" stroke-miterlimit="10" d="M200 108v184c.3 0 .6 0 .9-.1.7-.2 73.1-17 73.1-96.9v-56.3c0-1.8-1.1-3.5-2.8-4.1l-69.6-26.3c-.6-.2-1.1-.3-1.6-.3z"/><path id="esl-logo-shield-inner" fill="none" stroke="#C6361A" stroke-miterlimit="10" d="M200 280.3c-.3 0-.5 0-.8-.1-.6-.2-63.8-14.8-63.8-84.6v-49.1c0-1.6 1-3.1 2.4-3.6l60.8-23c.9-.3 1.8-.3 2.7 0l60.8 23c1.5.5 2.4 2 2.4 3.6v49.1c0 69.8-63.1 84.5-63.8 84.6-.2.1-.4.1-.7.1z"/><path id="esl-logo-shield-inner-right" fill="none" stroke="#FF5D24" stroke-miterlimit="10" d="M200 119.7V280.4c.3 0 .5 0 .8-.1.6-.2 63.8-14.8 63.8-84.6v-49.1c0-1.6-1-3.1-2.4-3.6l-60.8-23c-.5-.2-1-.3-1.4-.3z"/><g id="esl-logo-shield-stars" fill="#FF5D24"><path d="m126.1 133.3.4 1.5 1.2-.9-.5 1.4h1.5l-1.2.8 1.2.9h-1.5l.5 1.4-1.2-.9-.4 1.5-.5-1.5-1.2.9.5-1.4h-1.5l1.3-.9-1.3-.8h1.5l-.5-1.4 1.2.9z"/><path d="m125.9 185.7.4 1.4 1.2-.9-.5 1.5 1.6-.1-1.3.9 1.3.9-1.6-.1.5 1.5-1.2-1-.4 1.5-.5-1.5-1.2 1 .5-1.5-1.5.1 1.3-.9-1.3-.9 1.5.1-.5-1.5 1.2.9z"/><path d="m200 289.7.4 1.5 1.3-1-.6 1.5 1.6-.1-1.3.9 1.3.9-1.6-.1.6 1.5-1.3-.9-.4 1.4-.4-1.4-1.3.9.6-1.5-1.6.1 1.3-.9-1.3-.9 1.6.1-.6-1.5 1.3 1z"/><path d="m131.6 226.5.4 1.5 1.2-1-.5 1.5 1.6-.1-1.3.9 1.3.9-1.6-.1.5 1.5-1.2-.9-.4 1.4-.5-1.4-1.2.9.5-1.5-1.5.1 1.3-.9-1.3-.9 1.5.1-.5-1.5 1.2 1z"/><path d="m268.6 226.5.5 1.5 1.2-.9-.5 1.4h1.5l-1.3.8 1.3.9h-1.5l.5 1.4-1.2-.9-.5 1.5-.4-1.5-1.2.9.5-1.4h-1.6l1.3-.9-1.3-.8h1.6l-.5-1.4 1.2.9z"/><path d="m274 185.7.4 1.4 1.3-.9-.6 1.5 1.6-.1-1.3.9 1.3.9-1.6-.1.6 1.5-1.3-1-.4 1.5-.4-1.5-1.3 1 .6-1.5-1.6.1 1.3-.9-1.3-.9 1.6.1-.6-1.5 1.3.9z"/><path d="m273.9 133.6.4 1.5 1.3-.9-.6 1.4h1.6l-1.3.8 1.3.9H275l.6 1.4-1.3-.9-.4 1.5-.4-1.5-1.3.9.6-1.4h-1.6l1.3-.9-1.3-.8h1.6l-.6-1.4 1.3.9z"/><path d="m200 116.8.4 1.5 1.3-.9-.6 1.4h1.6l-1.3.8 1.3.9h-1.6l.6 1.4-1.3-.9-.4 1.5-.4-1.5-1.3.9.6-1.4h-1.6l1.3-.9-1.3-.8h1.6l-.6-1.4 1.3.9z"/><path d="m199.8 105.1.5 1.5 1.2-.9-.5 1.4h1.5l-1.3.8 1.3.9H201l.5 1.4-1.2-.9-.5 1.5-.4-1.5-1.2.9.5-1.4h-1.5l1.2-.9-1.2-.8h1.5l-.5-1.4 1.2.9z"/><path d="m200 195.4.4 1.4 1.3-.9-.6 1.4h1.6l-1.3.9 1.3.8h-1.6l.6 1.5-1.3-1-.4 1.5-.4-1.5-1.3 1 .6-1.5h-1.6l1.3-.8-1.3-.9h1.6l-.6-1.4 1.3.9z"/><path d="m200 277.6.4 1.5 1.3-.9-.6 1.4h1.6l-1.3.8 1.3.9h-1.6l.6 1.4-1.3-.9-.4 1.5-.4-1.5-1.3.9.6-1.4h-1.6l1.3-.9-1.3-.8h1.6l-.6-1.4 1.3.9z"/><path d="m238.8 269.5.4 1.4 1.3-.9-.5 1.5 1.5-.1-1.3.9 1.3.9-1.5-.1.5 1.5-1.3-1-.4 1.5-.4-1.5-1.2 1 .5-1.5-1.6.1 1.3-.9-1.3-.9 1.6.1-.5-1.5 1.2.9z"/><path d="m160.7 269.5.4 1.4 1.2-.9-.5 1.5 1.6-.1-1.3.9 1.3.9-1.6-.1.5 1.5-1.2-1-.4 1.5-.5-1.5-1.2 1 .5-1.5-1.5.1 1.3-.9-1.3-.9 1.5.1-.5-1.5 1.2.9z"/><path d="m263.8 141.3.4 1.5 1.2-.9-.5 1.4h1.5l-1.2.8 1.2.9h-1.5l.5 1.4-1.2-.9-.4 1.5-.5-1.5-1.2.9.5-1.4h-1.5l1.3-.9-1.3-.8h1.5l-.5-1.4 1.2.9z"/><path d="m136 141.3.4 1.5 1.2-.9-.5 1.4h1.5l-1.2.8 1.2.9h-1.5l.5 1.4-1.2-.9-.4 1.5-.5-1.5-1.2.9.5-1.4h-1.5l1.3-.9-1.3-.8h1.5l-.5-1.4 1.2.9z"/></g></g><g id="esl-logo-wrenches"><g id="esl-logo-wrench-left"><path id="esl-logo-wrench-left-main" fill="none" stroke="#FFF" stroke-miterlimit="10" d="m207.7 207.3-15.8 15.8-23.2-6.2-6.2-23.2 15.8-15.8c-9-.7-18.2 2.4-25.1 9.3-9.5 9.5-11.8 23.5-6.8 35.1L108.6 260c-4.7 4.7-4.7 12.3 0 17s12.3 4.7 17 0l37.7-37.7c11.6 4.9 25.6 2.7 35.1-6.8 6.9-6.9 10-16.2 9.3-25.2z"/><g id="esl-logo-wrench-left-stars" fill="#FFF"><path d="m162.6 190.8.4 1.4 1.2-.9-.5 1.5 1.6-.1-1.3.9 1.3.9-1.6-.1.5 1.5-1.2-1-.4 1.5-.4-1.5-1.3 1 .6-1.5-1.6.1 1.3-.9-1.3-.9 1.6.1-.6-1.5 1.3.9z"/><path d="m178.6 174.9.4 1.5 1.2-1-.5 1.5 1.6-.1-1.3.9 1.3.9-1.6-.1.5 1.5-1.2-1-.4 1.5-.4-1.5-1.3 1 .6-1.5-1.6.1 1.3-.9-1.3-.9 1.6.1-.6-1.5 1.3 1z"/><path d="m168.7 213.9.5 1.5 1.2-1-.5 1.5 1.5-.1-1.3.9 1.3.9-1.5-.1.5 1.5-1.2-1-.5 1.5-.4-1.5-1.2 1 .5-1.5-1.6.1 1.3-.9-1.3-.9 1.6.1-.5-1.5 1.2 1z"/><path d="m192.2 220.1.5 1.5 1.2-.9-.5 1.4h1.5l-1.3.9 1.3.8h-1.5l.5 1.4-1.2-.9-.5 1.5-.4-1.5-1.2.9.5-1.4h-1.6l1.3-.8-1.3-.9h1.6l-.5-1.4 1.2.9z"/><path d="m207.8 204.3.4 1.4 1.3-.9-.6 1.5 1.6-.1-1.3.9 1.3.9-1.6-.1.6 1.5-1.3-1-.4 1.5-.4-1.5-1.3 1 .6-1.5-1.6.1 1.3-.9-1.3-.9 1.6.1-.6-1.5 1.3.9z"/><path d="m146.3 218.9.5 1.5 1.2-1-.5 1.5 1.5-.1-1.2.9 1.2.9-1.5-.1.5 1.5-1.2-1-.5 1.5-.4-1.5-1.2 1 .5-1.5-1.5.1 1.2-.9-1.2-.9 1.5.1-.5-1.5 1.2 1z"/><path d="m163.4 236.1.4 1.5 1.2-.9-.5 1.4h1.5l-1.2.9 1.2.8h-1.5l.5 1.4-1.2-.9-.4 1.5-.5-1.5-1.2.9.5-1.4h-1.5l1.2-.8-1.2-.9h1.5l-.5-1.4 1.2.9z"/><path d="m149 188.6.5 1.5 1.2-.9-.5 1.4h1.5l-1.3.9 1.3.8h-1.5l.5 1.4-1.2-.9-.5 1.5-.4-1.5-1.2.9.5-1.4h-1.6l1.3-.8-1.3-.9h1.6l-.5-1.4 1.2.9z"/><path d="m192.2 234.9.5 1.5 1.2-1-.5 1.5 1.5-.1-1.3.9 1.3.9-1.5-.1.5 1.5-1.2-1-.5 1.5-.4-1.5-1.2 1 .5-1.5-1.6.1 1.3-.9-1.3-.9 1.6.1-.5-1.5 1.2 1z"/><path d="m109.3 274.5.5 1.5 1.2-.9-.5 1.4h1.5l-1.3.8 1.3.9h-1.5l.5 1.4-1.2-.9-.5 1.5-.4-1.5-1.2.9.5-1.4h-1.6l1.3-.9-1.3-.8h1.6l-.5-1.4 1.2.9z"/></g></g><g id="esl-logo-wrench-right"><path id="esl-logo-wrench-right-main" fill="none" stroke="#FFF" stroke-miterlimit="10" d="M290.4 120.5c-4.7-4.7-12.3-4.7-17 0l-37.7 37.7c-11.6-4.9-25.6-2.7-35.1 6.8-6.9 6.9-10 16.1-9.3 25.1l15.8-15.8 23.2 6.2 6.2 23.2-15.8 15.8c9 .7 18.2-2.4 25.1-9.3 9.5-9.5 11.8-23.5 6.8-35.1l37.7-37.7c4.8-4.6 4.8-12.2.1-16.9z"/><g id="esl-logo-wrench-right-stars" fill="#FFF"><path d="m191.2 186.6.4 1.5 1.3-1-.6 1.5h1.6l-1.3.8 1.3.9h-1.6l.6 1.4-1.3-.9-.4 1.4-.4-1.4-1.3.9.6-1.4h-1.6l1.3-.9-1.3-.8h1.6l-.6-1.5 1.3 1z"/><path d="m237 201 .4 1.4 1.2-.9-.5 1.4h1.6l-1.3.9 1.3.8h-1.6l.5 1.5-1.2-1-.4 1.5-.4-1.5-1.3 1 .6-1.5h-1.6l1.3-.8-1.3-.9h1.6l-.6-1.4 1.3.9z"/><path d="m236.1 154.9.4 1.5 1.3-.9-.6 1.4h1.6l-1.3.8 1.3.9h-1.6l.6 1.4-1.3-.9-.4 1.5-.4-1.5-1.3.9.6-1.4h-1.6l1.3-.9-1.3-.8h1.6l-.6-1.4 1.3.9z"/><path d="m207.1 171.4.4 1.5 1.3-.9-.6 1.4h1.6l-1.3.8 1.3.9h-1.6l.6 1.4-1.3-.9-.4 1.5-.4-1.5-1.3.9.6-1.4h-1.6l1.3-.9-1.3-.8h1.6l-.6-1.4 1.3.9z"/><path d="m203.5 159 .5 1.5 1.2-.9-.5 1.4h1.5l-1.3.9 1.3.8h-1.5l.5 1.5-1.2-1-.5 1.5-.4-1.5-1.2 1 .5-1.5h-1.6l1.3-.8-1.3-.9h1.6l-.5-1.4 1.2.9z"/><path d="m249 203.8.4 1.5 1.2-1-.5 1.5 1.6-.1-1.3.9 1.3.9-1.6-.1.5 1.5-1.2-1-.4 1.5-.4-1.5-1.3 1 .6-1.5-1.6.1 1.3-.9-1.3-.9 1.6.1-.6-1.5 1.3 1z"/><path d="m230.7 177.1.5 1.4 1.2-.9-.5 1.4h1.5l-1.3.9 1.3.8h-1.5l.5 1.5-1.2-1-.5 1.5-.4-1.5-1.2 1 .5-1.5H228l1.3-.8-1.3-.9h1.6l-.5-1.4 1.2.9z"/><path d="m219.5 216.8.4 1.5 1.2-1-.5 1.5 1.6-.1-1.3.9 1.3.9-1.6-.1.5 1.5-1.2-1-.4 1.5-.4-1.5-1.3 1 .6-1.5-1.6.1 1.3-.9-1.3-.9 1.6.1-.6-1.5 1.3 1z"/><path d="m252.6 172.8.4 1.5 1.3-1-.6 1.5 1.6-.1-1.3.9 1.3.9-1.6-.1.6 1.5-1.3-1-.4 1.5-.4-1.5-1.3 1 .6-1.5-1.6.1 1.3-.9-1.3-.9 1.6.1-.6-1.5 1.3 1z"/><path d="m290.3 116.9.4 1.5 1.2-1-.5 1.5 1.6-.1-1.3.9 1.3.9-1.6-.1.5 1.5-1.2-1-.4 1.5-.5-1.5-1.2 1 .5-1.5-1.5.1 1.3-.9-1.3-.9 1.5.1-.5-1.5 1.2 1z"/></g></g></g><g id="esl-logo-border"><path id="esl-logo-border-outer" fill="none" stroke="#7bd0d3" stroke-miterlimit="10" d="m28.9 150.1 46.9-78 78.3-44.3 90-.2 78.8 44.1 47.2 78.1L372 242l-45 81.5-80.9 47.5-93.9-.3-80.5-47.8L27 241.7z"/><path id="esl-logo-border-inner" fill="none" stroke="#98C6FF" stroke-miterlimit="10" d="m62.5 116.7 59.1-57L200 39.5l78.4 20.8 58.3 56.7 22.8 79-19.8 80.7-58.2 60.4-81.5 22.5-81.6-22.2-58.9-60.3-20-81.1z"/><g id="esl-logo-border-outer-stars" fill="#98C6FF"><path d="m70.9 319.9.9 1.4 1-1.3-.1 1.7 1.7-.5-1.2 1.3 1.7.5-1.7.5.9 1.5-1.6-.8v1.8l-.9-1.5-1 1.4.1-1.7-1.6.4 1.1-1.2-1.6-.6 1.6-.5-.9-1.3 1.5.6z"/><path d="m245.2 367.9.9 1.5 1-1.3-.1 1.6 1.7-.5-1.2 1.3 1.7.6-1.7.4.9 1.4-1.6-.6v1.7l-.9-1.5-1 1.3.1-1.6-1.6.4 1.1-1.3-1.6-.5 1.6-.4-.9-1.4 1.5.6z"/><path d="m74.7 69.1 1 1.5 1-1.4-.2 1.7 1.6-.5-1.1 1.3 1.6.6-1.6.4 1 1.4-1.6-.6-.1 1.6-.8-1.3-1.1 1.3.1-1.8-1.5.5 1-1.3-1.6-.6 1.7-.3-1-1.5 1.6.8z"/><path d="m28.1 147 .8 1.5 1-1.4-.1 1.8 1.7-.6-1.1 1.3 1.6.6-1.7.4.9 1.4-1.5-.6v1.6l-.9-1.3-1.1 1.3.2-1.8-1.7.6 1.2-1.4-1.7-.6 1.8-.3-1.1-1.4 1.7.7z"/><path d="m153.3 24.8.8 1.5 1.1-1.3-.2 1.6 1.7-.4-1.1 1.3 1.6.5-1.7.4 1 1.4-1.6-.6v1.7l-1-1.5-1 1.3.2-1.6-1.7.4 1.2-1.2-1.6-.6 1.6-.4-1-1.4 1.6.6z"/><path d="m243.3 24.5.9 1.5 1-1.4-.1 1.7 1.6-.4-1 1.3 1.5.5-1.6.4.9 1.4-1.5-.6v1.7l-1-1.5-1 1.3.1-1.6-1.6.4 1.2-1.2-1.7-.6 1.6-.4-.9-1.4 1.5.6z"/><path d="m26.2 238.7.9 1.5 1-1.4-.1 1.7 1.6-.4-1.1 1.2 1.6.6-1.6.5 1 1.3-1.6-.6-.1 1.6-.9-1.3-1 1.3.2-1.7-1.8.5 1.2-1.4-1.7-.4 1.8-.5-1-1.5 1.6.8z"/><path d="m369.3 146.8.9 1.5 1-1.4-.1 1.7 1.6-.5-1.1 1.3 1.6.6-1.7.3 1 1.5-1.5-.6-.1 1.6-.9-1.4-1 1.4.1-1.8-1.6.5 1-1.3-1.5-.6 1.6-.3-1-1.5 1.6.7z"/><path d="m326.1 320.5 1 1.5 1-1.4-.1 1.7 1.5-.5-1 1.3 1.6.6-1.7.4 1 1.4-1.6-.6-.1 1.6-.8-1.3-1.1 1.3.1-1.8-1.5.6 1-1.4-1.5-.6 1.6-.3-1-1.5 1.6.8z"/><path d="m322.2 68.7.9 1.5 1.1-1.5-.2 1.8 1.6-.6-1.1 1.4 1.7.6-1.8.3 1.1 1.5-1.7-.6v1.6l-.8-1.4-1 1.3.1-1.7-1.7.5 1.1-1.3-1.6-.6 1.7-.4-1-1.4 1.6.7z"/><path d="m151.3 367.7.9 1.5 1.1-1.5-.2 1.8 1.7-.5-1.2 1.3 1.7.6-1.7.3 1 1.5-1.6-.6v1.6l-.9-1.4-1 1.3.1-1.7-1.7.5 1.1-1.3-1.6-.6 1.7-.3-.9-1.5 1.5.7z"/><path d="m371.2 239 .8 1.5 1.2-1.5-.3 1.8 1.7-.6-1.1 1.4 1.6.6-1.7.3 1.1 1.5-1.7-.6v1.6l-.8-1.4-1.1 1.3.1-1.8-1.6.6 1.1-1.3-1.7-.6 1.8-.4-1-1.4 1.6.7z"/></g><g id="esl-logo-border-inner-stars" fill="#98C6FF"><path d="m59.5 274.3.4 1.4 1.2-.9-.5 1.4h1.6l-1.3.9 1.3.8h-1.6l.5 1.5-1.2-1-.4 1.5-.5-1.5-1.2 1 .5-1.5h-1.5l1.3-.8-1.3-.9h1.5l-.5-1.4 1.2.9z"/><path d="m200 356.6.4 1.5 1.2-.8-.5 1.3h1.6l-1.3.8 1.3 1h-1.6l.5 1.4-1.2-.9-.4 1.5-.5-1.5-1.2.9.5-1.4h-1.5l1.3-1-1.3-.8h1.5l-.5-1.3 1.2.8z"/><path d="m121.3 56.9.5 1.5 1.2-1-.5 1.5 1.5-.1-1.3.9 1.3.9-1.5-.1.5 1.5-1.2-.9-.5 1.4-.4-1.4-1.2.9.5-1.5-1.5.1 1.2-.9-1.2-.9 1.5.1-.5-1.5 1.2 1z"/><path d="m62.5 113.8.4 1.5 1.2-1-.5 1.5 1.6-.1-1.3.9 1.3.9-1.6-.1.5 1.5-1.2-.9-.4 1.4-.4-1.4-1.3.9.6-1.5-1.6.1 1.3-.9-1.3-.9 1.6.1-.6-1.5 1.3 1z"/><path d="m200 36.7.4 1.5 1.2-.9-.5 1.4h1.6l-1.3.9 1.3.7h-1.6l.5 1.5-1.2-1-.4 1.5-.5-1.5-1.2 1 .5-1.5h-1.5l1.3-.7-1.3-.9h1.5l-.5-1.4 1.2.9z"/><path d="m278.4 57.4.4 1.5 1.2-.9-.5 1.4h1.5l-1.2.9 1.2.8h-1.5l.5 1.4-1.2-.9-.4 1.5-.5-1.5-1.2.9.5-1.4h-1.5l1.3-.8-1.3-.9h1.5l-.5-1.4 1.2.9z"/><path d="m39.5 193.2.5 1.5 1.2-1-.5 1.5h1.5l-1.3.8 1.3.9h-1.5l.5 1.4-1.2-.9-.5 1.4-.4-1.4-1.2.9.5-1.4h-1.6l1.3-.9-1.3-.8h1.6l-.5-1.5 1.2 1z"/><path d="m359.5 193.2.5 1.5 1.1-1-.5 1.5 1.5-.1-1.1.9 1.1.9-1.5-.1.5 1.5-1.1-.9-.5 1.4-.5-1.4-1.1.9.5-1.5-1.5.1 1.1-.9-1.1-.9 1.5.1-.5-1.5 1.1 1z"/><path d="m281.4 334.3.5 1.5 1.2-1-.5 1.5 1.5-.1-1.2.9 1.2.9-1.5-.1.5 1.5-1.2-.9-.5 1.4-.4-1.4-1.2.9.5-1.5-1.5.1 1.2-.9-1.2-.9 1.5.1-.5-1.5 1.2 1z"/><path d="m336.8 114.2.4 1.5 1.3-1-.6 1.5 1.6-.1-1.3.9 1.3.9-1.6-.1.6 1.5-1.3-.9-.4 1.4-.4-1.4-1.2.9.5-1.5-1.6.1 1.3-.9-1.3-.9 1.6.1-.5-1.5 1.2 1z"/><path d="m118.4 334.6.4 1.5 1.3-1-.6 1.5 1.6-.1-1.3.9 1.3.9-1.6-.1.6 1.5-1.3-.9-.4 1.4-.4-1.4-1.2.9.5-1.5-1.6.1 1.3-.9-1.3-.9 1.6.1-.5-1.5 1.2 1z"/><path d="m339.7 273.8.4 1.5 1.3-1-.6 1.5 1.6-.1-1.3.9 1.3.9-1.6-.1.6 1.5-1.3-.9-.4 1.4-.4-1.4-1.2.9.5-1.5-1.6.1 1.3-.9-1.3-.9 1.6.1-.5-1.5 1.2 1z"/></g></g></svg>
