<svg xmlns="http://www.w3.org/2000/svg" xml:space="preserve" viewBox="0 0 490 490" fill="#ffb398">
  <path d="m412.2 381.8-92.8-173.7V58.07h22.48a29.04 29.04 0 0 0 0-58.07h-194.5v.02a29.03 29.03 0 0 0 0 58.03v.02h23.21V208.1L77.8 381.8a73.92 73.92 0 0 0 1.8 72.47A73.92 73.92 0 0 0 142.67 490h204.64a73.92 73.92 0 0 0 63.08-35.73 73.92 73.92 0 0 0 1.8-72.48zm-18.95 62.19A53.82 53.82 0 0 1 347.33 470H142.68c-18.71 0-36.31-9.97-45.93-26.02a53.82 53.82 0 0 1-1.3-52.76l95.14-178.11V58.07h108.82v155.04l95.14 178.1a53.81 53.81 0 0 1-1.3 52.78z"/>
  <path d="M248.87 241.65A23.42 23.42 0 1 0 236 196.6a23.42 23.42 0 0 0 12.88 45.04zM280.07 131.18a19.6 19.6 0 1 0-10.78-37.7 19.6 19.6 0 0 0 10.78 37.7zM308.2 273.83H181.8l-68.72 128.65a33.55 33.55 0 0 0 29.6 49.36h204.64a33.55 33.55 0 0 0 29.6-49.36l-68.73-128.65zm-4.4 111.38a37.51 37.51 0 1 1-20.64-72.13 37.51 37.51 0 0 1 20.64 72.13z"/>
</svg>
