<svg viewBox="0 0 57 57" fill="none" xmlns="http://www.w3.org/2000/svg"><path d="M21.597 17.154h-8.35a1.566 1.566 0 0 0 0 3.132h8.35a1.566 1.566 0 0 0 0-3.132ZM21.597 25.505h-8.35a1.566 1.566 0 0 0 0 3.131h8.35a1.566 1.566 0 0 0 0-3.131ZM21.597 33.856h-8.35a1.566 1.566 0 0 0 0 3.131h8.35a1.566 1.566 0 0 0 0-3.131Z" fill="#0097E7"/><path d="M44.04 30.716V16.421c0-2.063-.796-4.01-2.24-5.483l-6.354-6.57-.01-.01a7.88 7.88 0 0 0-5.583-2.34H9.697C7.107 2.018 4.5 2.5 5 6.716V47.32c0 2.59 1 5.01 4.697 4.697h24.2a12.378 12.378 0 0 0 8.577 3.445C49.381 55.463 55 49.891 55 43.041c0-6.323-4.79-11.558-10.96-12.325ZM8.132 47.321V6.716c0-.864.702-1.566 1.565-1.566h20.156c1.25 0 2.47.51 3.347 1.4l6.352 6.57a4.67 4.67 0 0 1 1.356 3.302v14.296c-6.113.772-10.856 6.004-10.856 12.323 0 2.112.53 4.103 1.465 5.846H9.697a1.568 1.568 0 0 1-1.565-1.566Zm34.342 5.01c-5.123 0-9.29-4.167-9.29-9.29 0-5.122 4.167-9.29 9.29-9.29 5.18 0 9.395 4.168 9.395 9.29 0 5.123-4.215 9.29-9.395 9.29Z" fill="#0097E7"/><path d="M46.086 39.333a1.566 1.566 0 0 0-2.205.2l-2.643 3.172-.6-1.2a1.566 1.566 0 1 0-2.8 1.401l1.67 3.34a1.566 1.566 0 0 0 2.603.303l4.175-5.01a1.566 1.566 0 0 0-.2-2.206ZM29.948 20.286h1.67a1.566 1.566 0 1 0 0-3.132h-1.67a1.566 1.566 0 0 0 0 3.132ZM33.184 27.07c0-.864-.701-1.565-1.566-1.565h-1.67a1.566 1.566 0 0 0 0 3.131h1.67c.865 0 1.566-.7 1.566-1.565Z" fill="#0097E7"/></svg>
