<svg viewBox="0 0 60 60" fill="none" xmlns="http://www.w3.org/2000/svg"><path d="m54.556 16.52-8.75 7.344c-.265.222-.738.325-1.17.175-.424-.147-.511-.412-.511-.516V20.437h-7.563a3.25 3.25 0 0 0-3.25 3.25v17.461c0 4.175-4.132 7.93-9.687 7.93h-11.75V52.164c0 .104-.087.368-.51.515-.432.15-.905.048-1.17-.174l-8.75-7.344c-.165-.138-.195-.265-.195-.34 0-.076.03-.204.194-.341l8.75-7.344c.265-.222.738-.325 1.17-.175.424.147.511.412.511.516V40.563h7.563a3.25 3.25 0 0 0 3.25-3.25V19.852c0-4.175 4.132-7.93 9.687-7.93h11.75V8.836c0-.104.087-.368.51-.516.432-.15.906-.047 1.17.175l8.75 7.344c.165.138.195.265.195.34 0 .076-.03.204-.194.341Z" stroke="#0097E7" stroke-width="2.5"/></svg>
