<svg xmlns="http://www.w3.org/2000/svg" xml:space="preserve" baseProfile="tiny" version="1.2" viewBox="0 0 261 157"><path fill="#0082CA" d="M4 0h253c2.2 0 4 1.8 4 4v29c0 2.2-1.8 4-4 4H4c-2.2 0-4-1.8-4-4V4c0-2.2 1.8-4 4-4z"/>
  <path fill="#FFF"
        d="m231.1 16.3 3.4 3.5 3.4-3.5c.3-.3.9-.4 1.2 0 .3.4.3.9 0 1.3l-4 4.2c-.3.3-.9.4-1.2 0l-4-4.2c-.3-.4-.3-.9 0-1.3.2-.4.8-.4 1.2 0-.1 0 0 0 0 0z"/>
  <path fill="#add1fa"
        d="M17.5 55.5h225c1.9 0 3.5 1.6 3.5 3.5v2c0 1.9-1.6 3.5-3.5 3.5h-225c-1.9 0-3.5-1.6-3.5-3.5v-2c0-1.9 1.6-3.5 3.5-3.5zM18 71.5h225c1.9 0 3.5 1.6 3.5 3.5v1c0 1.9-1.6 3.5-3.5 3.5H18c-1.9 0-3.5-1.6-3.5-3.5v-1c0-1.9 1.6-3.5 3.5-3.5zM18 87.5h225c1.9 0 3.5 1.6 3.5 3.5v2c0 1.9-1.6 3.5-3.5 3.5H18c-1.9 0-3.5-1.6-3.5-3.5v-2c0-1.9 1.6-3.5 3.5-3.5zM18 104.5h225c1.9 0 3.5 1.6 3.5 3.5v2c0 1.9-1.6 3.5-3.5 3.5H18c-1.9 0-3.5-1.6-3.5-3.5v-2c0-1.9 1.6-3.5 3.5-3.5zM18 121.5h225c1.9 0 3.5 1.6 3.5 3.5v1c0 1.9-1.6 3.5-3.5 3.5H18c-1.9 0-3.5-1.6-3.5-3.5v-1c0-1.9 1.6-3.5 3.5-3.5zM18 137.5h225c1.9 0 3.5 1.6 3.5 3.5v2c0 1.9-1.6 3.5-3.5 3.5H18c-1.9 0-3.5-1.6-3.5-3.5v-2c0-1.9 1.6-3.5 3.5-3.5z"/>
  <path fill="none" stroke="#0082CA"
        d="M4 43.5h253c1.9 0 3.5 1.6 3.5 3.5v106c0 1.9-1.6 3.5-3.5 3.5H4c-1.9 0-3.5-1.6-3.5-3.5V47c0-1.9 1.6-3.5 3.5-3.5z"/>
  <text x="16" y="24" fill="#FFF" font-size="15" letter-spacing="2">ACCORDION</text>
</svg>
