<svg xmlns="http://www.w3.org/2000/svg" xml:space="preserve" viewBox="0 0 511 511"><path fill="#add1fa" d="m498.96 102.75-.08-.54-.03-.19a7.1 7.1 0 0 0-.15-.62l-.03-.09-.21-.6-.03-.09a7.14 7.14 0 0 0-.27-.55l-.05-.11a7.43 7.43 0 0 0-.29-.49l-.09-.14-.32-.44-.12-.15a7.72 7.72 0 0 0-.49-.55l-96-96a7.28 7.28 0 0 0-.54-.49l-.15-.1a7.28 7.28 0 0 0-.44-.33l-.15-.09a7.9 7.9 0 0 0-.48-.3l-.11-.05-.56-.26-.08-.03-.6-.21-.1-.03c-.2-.06-.4-.11-.61-.15l-.2-.03A7.23 7.23 0 0 0 395.5 0h-224A39.55 39.55 0 0 0 132 39.5V80H43.5A31.54 31.54 0 0 0 12 111.5v80A31.54 31.54 0 0 0 43.5 223H132v248.5a39.55 39.55 0 0 0 39.5 39.5h288a39.55 39.55 0 0 0 39.5-39.5v-368c0-.25-.01-.5-.04-.75zM403 25.61 473.4 96h-45.9C414 96 403 85 403 71.5V25.6zM27 191.5v-80c0-9.1 7.4-16.5 16.5-16.5h304c9.1 0 16.5 7.4 16.5 16.5v80c0 9.1-7.4 16.5-16.5 16.5h-304c-9.1 0-16.5-7.4-16.5-16.5zM459.5 496h-288c-13.5 0-24.5-11-24.5-24.5V223h200.5a31.54 31.54 0 0 0 31.5-31.5v-80A31.54 31.54 0 0 0 347.5 80H147V39.5C147 26 158 15 171.5 15H388v56.5a39.55 39.55 0 0 0 39.5 39.5H484v360.5c0 13.5-11 24.5-24.5 24.5z"/><path fill="#0082ca" d="M115.5 112a7.5 7.5 0 0 0-7.5 7.5V152H67v-32.5a7.5 7.5 0 0 0-15 0v64a7.5 7.5 0 0 0 15 0V167h41v16.5a7.5 7.5 0 0 0 15 0v-64a7.5 7.5 0 0 0-7.5-7.5zM211.5 191a7.5 7.5 0 0 0 7.5-7.5v-36.92l10.07 16.78a7.5 7.5 0 0 0 6.43 3.64h8a7.5 7.5 0 0 0 6.43-3.64L260 146.58v36.92a7.5 7.5 0 0 0 15 0v-64a7.5 7.5 0 0 0-13.93-3.86L239.5 151.6l-21.57-35.95A7.5 7.5 0 0 0 204 119.5v64a7.5 7.5 0 0 0 7.5 7.5zM139.5 127H156v56.5a7.5 7.5 0 0 0 15 0V127h16.5a7.5 7.5 0 0 0 0-15h-48a7.5 7.5 0 0 0 0 15zM299.5 191h40a7.5 7.5 0 0 0 0-15H307v-56.5a7.5 7.5 0 0 0-15 0v64a7.5 7.5 0 0 0 7.5 7.5zM341.87 280.38a7.5 7.5 0 0 0-9.48 4.75l-48 144a7.5 7.5 0 0 0 14.23 4.74l48-144a7.5 7.5 0 0 0-4.75-9.49zM272.8 298.2a7.5 7.5 0 0 0-10.6 0l-56 56a7.5 7.5 0 0 0 0 10.6l56 56a7.48 7.48 0 0 0 10.6 0 7.5 7.5 0 0 0 0-10.6l-50.7-50.7 50.7-50.7a7.5 7.5 0 0 0 0-10.6zM368.8 298.2a7.5 7.5 0 1 0-10.6 10.6l50.7 50.7-50.7 50.7a7.5 7.5 0 1 0 10.6 10.6l56-56a7.5 7.5 0 0 0 0-10.6l-56-56z"/></svg>