<svg xmlns="http://www.w3.org/2000/svg" fill="none" viewBox="0 0 255 192" >
  <path stroke="#0082CA"
        d="M155.5 162H4.5a3.5 3.5 0 0 0-3.5 3.5v22a3.5 3.5 0 0 0 3.5 3.5h151a3.5 3.5 0 0 0 3.5-3.5v-22a3.5 3.5 0 0 0-3.5-3.5Z"/>
  <path fill="#add1fa"
        d="M148.239 179H11.761c-.973 0-1.761 1.119-1.761 2.5s.788 2.5 1.761 2.5h136.478c.973 0 1.761-1.119 1.761-2.5s-.788-2.5-1.761-2.5Zm-.144-9H11.905c-1.052 0-1.905 1.119-1.905 2.5s.853 2.5 1.905 2.5h136.19c1.052 0 1.905-1.119 1.905-2.5s-.853-2.5-1.905-2.5Z"/>
  <rect width="90" height="27" x="1" y="129" fill="#0082CA" rx="4"/>
  <text x="11" y="148" fill="#FFF" font-size="15" letter-spacing="2">BOTTOM</text>
  <rect width="48" height="27" x="1" y="36" fill="#0082CA" rx="4"/>

  <path stroke="#0082CA"
        d="M170 .5H5A3.5 3.5 0 0 0 1.5 4v23A3.5 3.5 0 0 0 5 30.5h165a3.5 3.5 0 0 0 3.5-3.5V4A3.5 3.5 0 0 0 170 .5Z"/>
  <path fill="#add1fa"
        d="M163.05 8H11.95C10.873 8 10 9.12 10 10.5s.873 2.5 1.95 2.5h151.1c1.077 0 1.95-1.12 1.95-2.5s-.873-2.5-1.95-2.5Zm-.012 10H11.962C10.878 18 10 19.12 10 20.5s.878 2.5 1.962 2.5h151.076c1.084 0 1.962-1.12 1.962-2.5s-.878-2.5-1.962-2.5Z"/><!--        d="M14.483 47.508h2.287V54h.88v-6.492h2.288v-.78h-5.455v.78Zm13.147 2.856c0-2.301-1.35-3.736-3.21-3.736-1.86 0-3.21 1.434-3.21 3.736 0 2.3 1.35 3.735 3.21 3.735 1.86 0 3.21-1.434 3.21-3.735Zm-.852 0c0 1.889-1.037 2.912-2.358 2.912-1.32 0-2.358-1.023-2.358-2.912 0-1.89 1.037-2.912 2.358-2.912 1.321 0 2.358 1.022 2.358 2.912ZM29.611 54h.88v-2.656h1.592c1.694 0 2.457-1.03 2.457-2.316 0-1.285-.763-2.3-2.471-2.3H29.61V54Zm.88-3.438V47.51h1.55c1.182 0 1.633.646 1.633 1.52 0 .873-.451 1.533-1.62 1.533h-1.562Z"/>-->
  <text x="9" y="55" fill="#FFF" font-size="15" letter-spacing="2">TOP</text>
  <path stroke="#0082CA"
        d="M120.916 55h63.783c1.039 0 2.035.369 2.769 1.025.735.657 1.147 1.547 1.147 2.475v72c0 .928-.412 1.818-1.147 2.475-.734.656-1.73 1.025-2.769 1.025h-63.783c-1.038 0-2.034-.369-2.769-1.025-.734-.657-1.147-1.547-1.147-2.475v-72c0-.928.413-1.819 1.147-2.475.735-.656 1.731-1.025 2.769-1.025Z"/>
  <path fill="#add1fa"
        d="M180.541 65h-55.082c-1.358 0-2.459 1.12-2.459 2.5s1.101 2.5 2.459 2.5h55.082c1.358 0 2.459-1.12 2.459-2.5s-1.101-2.5-2.459-2.5Zm0 11h-55.082c-1.358 0-2.459 1.12-2.459 2.5s1.101 2.5 2.459 2.5h55.082c1.358 0 2.459-1.12 2.459-2.5s-1.101-2.5-2.459-2.5Zm0 11h-55.082c-1.358 0-2.459 1.12-2.459 2.5s1.101 2.5 2.459 2.5h55.082c1.358 0 2.459-1.12 2.459-2.5s-1.101-2.5-2.459-2.5Zm0 11h-55.082c-1.358 0-2.459 1.12-2.459 2.5 0 1.381 1.101 2.5 2.459 2.5h55.082c1.358 0 2.459-1.119 2.459-2.5 0-1.38-1.101-2.5-2.459-2.5Zm0 11h-55.082c-1.358 0-2.459 1.119-2.459 2.5s1.101 2.5 2.459 2.5h55.082c1.358 0 2.459-1.119 2.459-2.5s-1.101-2.5-2.459-2.5Zm0 11h-55.082c-1.358 0-2.459 1.119-2.459 2.5s1.101 2.5 2.459 2.5h55.082c1.358 0 2.459-1.119 2.459-2.5s-1.101-2.5-2.459-2.5Z"/>
  <rect width="58.154" height="27" x="194.846" y="77" fill="#0082CA" rx="4"/>
  <text x="206" y="96" fill="#FFF" font-size="15" letter-spacing="2">LEFT</text>
</svg>
