<svg viewBox="0 0 248 155" fill="none" xmlns="http://www.w3.org/2000/svg">
  <rect width="248" height="36.204" rx="3.62" fill="#0082CA"/>
  <text x="16" y="24" font-size="15" letter-spacing="2" fill="#fff">SELECT</text>
  <rect x=".453" y="43.453" width="247.095" height="111.095" rx="3.168" stroke="#0082CA" stroke-width=".905"/>
  <g fill="#add1fa">
    <rect x="47.971" y="60.643" width="189.168" height="14.482" rx="7.241"/>
    <rect x="47.971" y="88.701" width="158.394" height="14.482" rx="7.241"/>
    <rect x="47.971" y="116.76" width="137.577" height="14.482" rx="7.241"/>
  </g>
  <g stroke="#0082CA" stroke-width="1.81">
    <rect x="16.292" y="63.358" width="12.671" height="12.671" rx=".905"/>
    <rect x="16.292" y="89.606" width="12.671" height="12.671" rx=".905"/>
    <rect x="16.292" y="115.854" width="12.671" height="12.671" rx=".905"/>
  </g>
  <path
    d="m220.546 17.076 3.017 3.2 3.017-3.2a.743.743 0 0 1 1.096 0 .857.857 0 0 1 0 1.163l-3.569 3.785a.743.743 0 0 1-1.096 0l-3.569-3.785a.855.855 0 0 1 0-1.163.759.759 0 0 1 1.104 0Z"
    fill="#fff"/>
</svg>
