<svg xmlns="http://www.w3.org/2000/svg" xml:space="preserve" baseProfile="tiny" version="1.2" viewBox="0 0 257 157">
  <path fill="#0082CA" d="M0 4c0-2.2 1.8-4 4-4h73c2.2 0 4 1.8 4 4v23H0"/>
  <path fill="none" stroke="#0082CA"
        d="M84.5 1h75c1.9 0 3.5 1.6 3.5 3.5V27H81V4.5C81 2.6 82.6 1 84.5 1zM166.5 1h73c1.9 0 3.5 1.6 3.5 3.5V27h-80V4.5c0-1.9 1.6-3.5 3.5-3.5z"/>
  <path fill="#add1fa" stroke="#DAE3FE"
        d="M12.8 38.5h231.5c1.8 0 3.3 1.6 3.3 3.5v2c0 1.9-1.5 3.5-3.3 3.5H12.8c-1.8 0-3.3-1.6-3.3-3.5v-2c0-1.9 1.5-3.5 3.3-3.5zM12.8 55.5h231.5c1.8 0 3.3 1.6 3.3 3.5v1c0 1.9-1.5 3.5-3.3 3.5H12.8c-1.8 0-3.3-1.6-3.3-3.5v-1c0-1.9 1.5-3.5 3.3-3.5zM12.8 71.5h231.5c1.8 0 3.3 1.6 3.3 3.5v2c0 1.9-1.5 3.5-3.3 3.5H12.8c-1.8 0-3.3-1.6-3.3-3.5v-2c0-1.9 1.5-3.5 3.3-3.5zM12.8 88.5h231.5c1.8 0 3.3 1.6 3.3 3.5v2c0 1.9-1.5 3.5-3.3 3.5H12.8c-1.8 0-3.3-1.6-3.3-3.5v-2c0-1.9 1.5-3.5 3.3-3.5zM12.8 105.5h231.5c1.8 0 3.3 1.6 3.3 3.5v1c0 1.9-1.5 3.5-3.3 3.5H12.8c-1.8 0-3.3-1.6-3.3-3.5v-1c0-1.9 1.5-3.5 3.3-3.5zM12.8 121.5h231.5c1.8 0 3.3 1.6 3.3 3.5v2c0 1.9-1.5 3.5-3.3 3.5H12.8c-1.8 0-3.3-1.6-3.3-3.5v-2c0-1.9 1.5-3.5 3.3-3.5z"/>
  <g font-size="12" letter-spacing="2">
  <text x="23" y="20" fill="#FFF" >TAB</text>
  <text x="105" y="20" fill="#0082CA">TAB</text>
  <text x="190" y="20" fill="#0082CA">TAB</text>
  </g>
  <path fill="none" stroke="#0082CA" d="M252.5 142H4.5c-.2 0-4-1.8-4-4V27h252c2.2 0 4 1.8 4 4v107c0 2.2-1.8 4-4 4z"/>
</svg>
