<svg xmlns="http://www.w3.org/2000/svg" xml:space="preserve" baseProfile="tiny" version="1.2" viewBox="0 0 257 138"><path fill="#0082CA" d="M0 4c0-2.2 1.8-4 4-4h73c2.2 0 4 1.8 4 4v23H0"/><path fill="none" stroke="#0082CA" d="M84.5 1h75c1.9 0 3.5 1.6 3.5 3.5V27H81V4.5C81 2.6 82.6 1 84.5 1zM166.5 1h73c1.9 0 3.5 1.6 3.5 3.5V27h-80V4.5c0-1.9 1.6-3.5 3.5-3.5z"/><path fill="#DAE3FE" stroke="#DAE3FE" d="M12.8 38.5h231.5c1.8 0 3.3 1.6 3.3 3.5v2c0 1.9-1.5 3.5-3.3 3.5H12.8c-1.8 0-3.3-1.6-3.3-3.5v-2c0-1.9 1.5-3.5 3.3-3.5zM12.8 55.5h231.5c1.8 0 3.3 1.6 3.3 3.5v1c0 1.9-1.5 3.5-3.3 3.5H12.8c-1.8 0-3.3-1.6-3.3-3.5v-1c0-1.9 1.5-3.5 3.3-3.5zM12.8 71.5h231.5c1.8 0 3.3 1.6 3.3 3.5v2c0 1.9-1.5 3.5-3.3 3.5H12.8c-1.8 0-3.3-1.6-3.3-3.5v-2c0-1.9 1.5-3.5 3.3-3.5zM12.8 88.5h231.5c1.8 0 3.3 1.6 3.3 3.5v2c0 1.9-1.5 3.5-3.3 3.5H12.8c-1.8 0-3.3-1.6-3.3-3.5v-2c0-1.9 1.5-3.5 3.3-3.5zM12.8 105.5h231.5c1.8 0 3.3 1.6 3.3 3.5v1c0 1.9-1.5 3.5-3.3 3.5H12.8c-1.8 0-3.3-1.6-3.3-3.5v-1c0-1.9 1.5-3.5 3.3-3.5zM12.8 121.5h231.5c1.8 0 3.3 1.6 3.3 3.5v2c0 1.9-1.5 3.5-3.3 3.5H12.8c-1.8 0-3.3-1.6-3.3-3.5v-2c0-1.9 1.5-3.5 3.3-3.5z"/><text fill="#FFF" font-family="'ArialMT'" font-size="12" transform="translate(44.558 17.25)"> </text><text fill="#0082CA" font-family="'ArialMT'" font-size="12" transform="translate(134.058 17.25)"> </text><text fill="#0082CA" font-family="'ArialMT'" font-size="12" transform="translate(222.308 17.25)"> </text><text fill="#FFF" font-family="'ArialMT'" font-size="11" transform="translate(30.25 18.25)">T</text><text fill="#FFF" font-family="'ArialMT'" font-size="11" transform="translate(36.978 18.25)">A</text><text fill="#FFF" font-family="'ArialMT'" font-size="11" transform="translate(45.14 18.25)">B</text><text fill="#0082CA" font-family="'ArialMT'" font-size="11" transform="translate(112.083 18.25)">T</text><text fill="#0082CA" font-family="'ArialMT'" font-size="11" transform="translate(118.811 18.25)">A</text><text fill="#0082CA" font-family="'ArialMT'" font-size="11" transform="translate(126.973 18.25)">B</text><text fill="#0082CA" font-family="'ArialMT'" font-size="11" transform="translate(191.833 18.25)">T</text><text fill="#0082CA" font-family="'ArialMT'" font-size="11" transform="translate(198.561 18.25)">A</text><text fill="#0082CA" font-family="'ArialMT'" font-size="11" transform="translate(206.723 18.25)">B</text><path fill="none" stroke="#0082CA" d="M252.5 138H4.5c-2.2 0-4-1.8-4-4V27h252c2.2 0 4 1.8 4 4v103c0 2.2-1.8 4-4 4z"/></svg>
