<svg xmlns="http://www.w3.org/2000/svg" xmlns:xlink="http://www.w3.org/1999/xlink" fill-rule="evenodd" clip-rule="evenodd" image-rendering="optimizeQuality" shape-rendering="geometricPrecision" text-rendering="geometricPrecision" viewBox="0 0 210 297" xml:space="preserve"><defs><linearGradient id="a" x1="128.38" x2="128.38" y1="93.187" y2="66.836" gradientUnits="userSpaceOnUse"><stop offset="0" stop-color="#1A1A1A"/><stop offset="1" stop-color="#666"/></linearGradient><linearGradient id="e" x1="91.913" x2="91.913" y1="221.94" y2="162.85" gradientUnits="userSpaceOnUse" xlink:href="#a"/><linearGradient id="c" x1="97.417" x2="97.417" y1="222.31" y2="33.984" gradientUnits="userSpaceOnUse" xlink:href="#a"/><linearGradient id="d" x1="140.92" x2="140.92" y1="200.59" y2="139.21" gradientUnits="userSpaceOnUse" xlink:href="#a"/><linearGradient id="f" x1="53.325" x2="53.325" y1="77.417" y2="45.608" gradientUnits="userSpaceOnUse" xlink:href="#a"/><radialGradient id="b" cx="68.124" cy="83.406" r="5.891" gradientUnits="userSpaceOnUse"><stop offset="0" stop-color="#0cf"/><stop offset="1" stop-color="#369"/></radialGradient><radialGradient id="g" cx="103.69" cy="90.342" r="5.373" gradientUnits="userSpaceOnUse" xlink:href="#b"/></defs><path d="M138.22 162.197c12.493-4.892 31.827-14.115 31.697-27.53-.086-8.905-7.256-18.127-7.87-24.986-.613-6.852 3.475-12.195 6.587-18.33 2.15-4.236-.787-6.624-3.331-3.588-4.94 5.89-13.068 10.803-13.84 18.454-1.042 10.298 11.134 21.62 4.87 29.86-8.994 11.827-25.663 5.975-38.19 13.968-3.532 2.253-3.353 10.942.512 12.56 5.603 2.342 13.91 1.805 19.565-.408z" class="fil0"/><g transform="translate(-21.752 -15.733) scale(1.2109)"><ellipse cx="105.25" cy="203.31" fill="#fff" class="fil1" rx="79.688" ry="38.344"/><path fill="#fefefe" d="M105.25 166.41c42.352 0 76.686 16.521 76.686 36.9s-34.334 36.9-76.686 36.9-76.686-16.521-76.686-36.9 34.334-36.9 76.686-36.9z"/><path fill="#fdfdfd" d="M105.25 167.85c40.694 0 73.684 15.874 73.684 35.455s-32.99 35.455-73.684 35.455-73.684-15.874-73.684-35.455c0-19.582 32.99-35.455 73.684-35.455z"/><path fill="#fbfbfb" d="M105.25 169.3c39.037 0 70.682 15.227 70.682 34.011s-31.646 34.011-70.682 34.011-70.682-15.227-70.682-34.011S66.214 169.3 105.25 169.3z"/><path fill="#fafafa" d="M105.25 170.74c37.379 0 67.68 14.58 67.68 32.566s-30.302 32.566-67.68 32.566c-37.379 0-67.68-14.581-67.68-32.566 0-17.986 30.302-32.566 67.68-32.566z"/><path fill="#f9f9f9" d="M105.25 172.19c35.721 0 64.678 13.934 64.678 31.122s-28.958 31.122-64.678 31.122c-35.721 0-64.678-13.934-64.678-31.122S69.53 172.19 105.25 172.19z"/><path fill="#f8f8f8" d="M105.25 173.63c34.063 0 61.676 13.287 61.676 29.678 0 16.39-27.614 29.678-61.676 29.678-34.063 0-61.676-13.287-61.676-29.678 0-16.39 27.614-29.678 61.676-29.678z"/><path fill="#f7f7f7" d="M105.25 175.08c32.405 0 58.675 12.64 58.675 28.233s-26.27 28.233-58.675 28.233-58.675-12.64-58.675-28.233 26.27-28.233 58.675-28.233z"/><path fill="#f5f5f5" d="M105.25 176.52c30.747 0 55.673 11.994 55.673 26.789s-24.926 26.789-55.673 26.789-55.673-11.994-55.673-26.789 24.926-26.789 55.673-26.789z"/><path fill="#f4f4f4" d="M105.25 177.96c29.089 0 52.671 11.347 52.671 25.344s-23.582 25.344-52.671 25.344-52.671-11.347-52.671-25.344 23.582-25.344 52.671-25.344z"/><path fill="#f3f3f3" d="M105.25 179.41c27.431 0 49.669 10.7 49.669 23.9s-22.238 23.9-49.669 23.9-49.669-10.7-49.669-23.9 22.238-23.9 49.669-23.9z"/><path fill="#f2f2f2" d="M105.25 180.85c25.774 0 46.667 10.054 46.667 22.455 0 12.402-20.894 22.455-46.667 22.455s-46.667-10.054-46.667-22.455c0-12.402 20.894-22.455 46.667-22.455z"/><path fill="#f1f1f1" d="M105.25 182.3c24.116 0 43.665 9.407 43.665 21.011s-19.55 21.011-43.665 21.011c-24.116 0-43.665-9.407-43.665-21.011S81.135 182.3 105.25 182.3z"/><path fill="#f0f0f0" d="M105.25 183.74c22.458 0 40.664 8.76 40.664 19.566s-18.206 19.566-40.664 19.566-40.663-8.76-40.663-19.566 18.206-19.566 40.663-19.566z"/><path fill="#eee" d="M105.25 185.19c20.8 0 37.662 8.114 37.662 18.122s-16.862 18.122-37.662 18.122-37.662-8.114-37.662-18.122c0-10.009 16.862-18.122 37.662-18.122z"/><path fill="#ededed" d="M105.25 186.63c19.142 0 34.66 7.467 34.66 16.678 0 9.21-15.518 16.678-34.66 16.678s-34.66-7.467-34.66-16.678c0-9.21 15.518-16.678 34.66-16.678z"/><path fill="#ececec" d="M105.25 188.08c17.484 0 31.658 6.82 31.658 15.233s-14.174 15.233-31.658 15.233-31.658-6.82-31.658-15.233 14.174-15.233 31.658-15.233z"/><path fill="#ebebeb" d="M105.25 189.52c15.826 0 28.656 6.173 28.656 13.789 0 7.615-12.83 13.789-28.656 13.789s-28.656-6.174-28.656-13.789c0-7.615 12.83-13.789 28.656-13.789z"/><path fill="#eaeaea" d="M105.25 190.96c14.168 0 25.654 5.527 25.654 12.344 0 6.817-11.486 12.344-25.654 12.344s-25.654-5.527-25.654-12.344c0-6.818 11.486-12.344 25.654-12.344z"/><path fill="#e8e8e8" d="M105.25 192.41c12.51 0 22.652 4.88 22.652 10.9 0 6.02-10.142 10.9-22.652 10.9s-22.652-4.88-22.652-10.9 10.142-10.9 22.652-10.9z"/><path fill="#e7e7e7" d="M105.25 193.85c10.853 0 19.65 4.233 19.65 9.455s-8.798 9.456-19.65 9.456-19.65-4.234-19.65-9.456c0-5.222 8.798-9.455 19.65-9.455z"/><ellipse cx="105.25" cy="203.31" fill="#e6e6e6" rx="16.649" ry="8.011"/><path fill="url(#c)" d="M65.814 203.16c.08-2.742.687-6.372-1.693-11.853-7.225-16.636-15.991-32.915-18.838-51.223-1.056-6.785-.247-13.944 1.693-20.532.9-3.055.422-5.458-1.27-9.207-3.148-6.976-6.353-21.434-4.868-32.068 1.9-13.608 2.896-28.114 5.291-42.545.331-1.993 3.827-3.668 5.504-2.54 6.83 4.596 11.173 12.113 17.145 17.78.984.934 2.34 2.413 3.598 1.905 13.403-2.49 25.723-2.743 38.1 8.466.895.81 2.456.816 3.598.424 8.017-2.756 15.182-8.075 23.495-9.737 1.909-.382 4.344 2.314 4.022 4.233-1.87 11.158-7.135 21.483-10.16 32.385-1.073 3.868-.898 8.03-2.117 11.853-.853 2.677-2.886 4.838-4.021 7.408-.228.517-.29 1.21 0 1.694 7.302 12.216 18.027 22.734 22.648 36.195 3.761 10.957-.072 23.264 1.693 34.713.737 4.78 5.847 8.5 5.715 13.335-.059 2.167-.897 8.893-7.66 9.79-5.274.701-10.624-1.99-14.142-5.98-2.244-2.546 2.592-12.932.635-10.16-1.255 1.779-2.06 4.856-9.736 6.561-3.687 7.368-4.623 16.228-4.869 24.343-.153 5.05-6.849 5.34-10.16 3.81-4.263 2.022-6.955 1.646-8.678-.212-3.798 1.827-5.94 1.63-6.562-.424-2.548-.09-3.943-.827-3.598-2.54-1.806-1.244-2.004-2-1.482-2.54 1.658-3.544 3.974-6.506 6.985-8.255 2.64-1.532-.97-3.591 2.74-12.607-5.52-.233-9.16-4.128-15.651-8.559.955 6.801 2.91 12.228 4.656 16.933.863 2.324 1.378 5.044.635 7.408-.91 2.895-2.978 5.445-5.291 7.409-1.66 1.408-4.114 1.604-5.292.211-2.102.607-4.168 1.418-6.562.424-2.148.253-3.849.1-4.445-1.059-5.84.179-7.143-3-5.926-8.043-.055-3.282 2.232-5.331 4.868-7.197z"/><path d="M67.825 203.48c.08-2.742.687-6.372-1.693-11.853-6.182-14.236-13.106-29.14-16.76-44.616a104.677 104.677 0 0 1-1.55-7.878c-1.054-6.785.283-12.357 2.223-18.944.9-3.054 1.044-5.538-1.376-10.9-2.42-5.363-6.564-19.74-5.08-30.375 1.9-13.608 1.52-27.162 3.916-41.592.33-1.992 2.663-3.138 4.34-2.01 6.83 4.596 8.103 14.653 14.075 20.32.984.934 4.695.217 8.15-1.059 12.32-1.993 22.32-2.3 35.612 8.573 4.588 3.752 8.225 1.821 9.367 1.429 8.017-2.756 10.102-9.61 18.415-11.271 1.908-.382 2.861 1.678 2.54 3.598-1.871 11.158-6.818 21.166-9.843 32.068-1.073 3.867-.58 7.182-1.8 11.007-.852 2.677-2.86 4.63-4.391 6.985-1.128 1.733-.607 3.325-.318 3.81 7.303 12.216 17.71 23.422 22.331 36.883 3.761 10.957-.442 21.729 1.323 33.179.737 4.78 6.152 8.22 6.139 12.488-.008 2.576-.817 7.906-5.333 7.886-5.319-.024-8.771-.298-12.289-4.288-2.244-2.545.159-8.678.37-12.065.022-.253-1-.039-1.058 0-3.262 2.192-7.162 7.013-11.389 7.529-3.686 7.367-5.086 16.212-5.332 24.327-.153 5.05-7.06 5.34-10.372 3.81-4.263 2.023-5.686 1.964-7.409.106-3.797 1.827-5.939 1.63-6.561-.424-2.549-.09-3.017-.086-2.673-1.799-.668-.146-1.554-1.049-1.032-1.587 1.658-3.544 3.974-6.507 6.986-8.255 2.64-1.533 3.381-16.596 7.09-25.612-6.305 4.978-17.833 5.468-24.209 2.262.956 6.801 5.16 13.776 6.906 18.481.862 2.323 1.378 5.044.635 7.408-.91 2.895-2.079 4.492-4.392 6.456-1.66 1.408-4.325 1.393-5.504 0-2.102.607-4.168 1.418-6.561.423-2.15.254-2.58.735-3.175-.423-5.84.178-7.144-3-5.927-8.043-.055-3.282 2.973-4.167 5.61-6.033z" class="fil0"/><path fill="url(#d)" d="M153.04 196.6c-.59 2.31-1.956 4.612-4.927 4.599-5.319-.024-8.771-.298-12.289-4.288-2.243-2.545.159-8.678.37-12.065.03-.25-1-.04-1.058 0-1.684 1.132-3.91 3.71-6.335 5.171 3.397-4.67 6.73-11.46 8.189-16.645.679-2.414 6.486-17.728-1.547-34.787 10.778 9.785 9.677 30.367 6.839 38.386-2.545 7.188-7.902 11.395-6.033 17.357 1.377 4.39 7.5 5.053 11.96 4.022 1.564-.362 3.39-.9 4.83-1.749z"/><path fill="url(#e)" d="M67.825 203.48c.08-2.742.687-6.372-1.693-11.853-4.127-9.503-8.584-19.303-12.178-29.373 11.343 19.15 17.754 39.552 16.2 42.446-.609 1.137 8.937 3.326 9.526-2.328.562-5.406-1.35-11.631-2.54-16.933-1.348-6.006-11.951-21.294-7.832-16.722 12.45 13.819 27.455 16.093 35.137 10.16 6.308-4.872.057 15.74-3.07 23.072-3.767 8.837 4.711 13.142 9.42 7.408 8.922-10.864 8.607-26.768 12.7-40.217 1.819-5.976 6.377-6.431 5.503-1.905-1.848 9.576-4.61 19.291-7.26 29.402-1.14 3.01-1.897 6.12-2.402 9.283-2.86 9.593-6.678 9.225-6.213 13.596.061.57.3 1.135.668 1.689-2.014.326-4.25.007-5.75-.687-4.263 2.023-5.685 1.964-7.408.106-3.798 1.827-5.94 1.63-6.562-.423-2.548-.09-3.017-.087-2.672-1.8-.669-.146-1.555-1.048-1.032-1.587 1.658-3.544 3.973-6.507 6.985-8.255 2.64-1.533.539-6.561 4.248-15.577-5.459 3.285-14.99-4.567-21.366-7.772.955 6.8 5.159 13.776 6.905 18.48.863 2.324 1.378 5.045.635 7.409-.91 2.895-2.079 4.492-4.392 6.456-1.659 1.408-4.325 1.393-5.503 0-2.103.607-4.168 1.417-6.562.423-2.149.254-2.58.735-3.175-.423-5.84.178-7.143-3-5.927-8.044-.055-3.282 2.974-4.166 5.61-6.032z"/><path fill="url(#a)" d="M119.9 76.399c-2.3-2.287.304 10.116 3.28 16.087.485.97 2.697.565 3.387-1.058 3.48-8.181 12.596-24.86 5.292-19.791-10.11 7.017-10.228 6.483-11.959 4.762z"/><path fill="url(#f)" d="M47.079 77.114c-2.173-.978 2.069-20.81.635-26.882-1.168-4.949 3.354 8.452 13.335 7.408.695-.072-3.65 3.134-6.942 8.144-3.336 5.078-5.632 11.957-7.028 11.33z"/><path fill="#333" d="M82.656 106.8c.463-.38.596-2.336.325-2.77-1.05-1.677-2.975-2.647-4.175-4.22-.292-.383-.603-1.308-.14-1.439.616-.172 1.024.802 1.624 1.021.571.208 1.504-.294 1.81.232.442.763-.51 1.843-.14 2.644.287.622 1.133.866 1.81.974.755.12 1.68.16 2.272-.325.68-.557.295-1.99 1.067-2.412.335-.183.574.397 1.158.278 1.212-.246 2.838-1.01 2.368-.37-1.52 2.066-4.645 2.351-6.495 4.128-.65.624-1.047 1.889-.556 2.644 3.299 5.073 9.602 8.554 15.238 4.732-4.636 4.686-12.343.773-16.346-1.691-8.336.277-10.4 1.672-14.362-1.927 4.51 2.625 10.263 2.018 14.542-1.499zM75.894 87.541c.315-.143.635-.755.635-1.085 0-.609-.284-1.14-.344-1.746-.211-2.143-1.03-5.259-3.651-6.906-2.406-1.511-6.078-1.717-8.52-.264-2.495 1.484-4.182 4.773-3.492 7.593.666 2.723 3.738 4.312 6.509 4.736 2.58.396 4.902-1.351 7.434-1.984.465-.116.993-.146 1.429-.344zM96.24 91.536c-.327-.178.345-1.258.357-1.63.061-1.822 2.862-5.285 6.416-5.567 3.14-.248 6.791 2.413 7.62 5.45 1.038 3.8-1.148 7.1-4.762 7.356-4.33.307-5.818-3.534-9.631-5.609z" class="fil28"/><ellipse class="fil0" rx="4.939" ry="5.724" transform="matrix(1.3445 0 -.04776 1 68.124 83.484)"/><path fill="url(#b)" d="M68.367 78.255c3.25 0 5.778 2.306 5.644 5.152-.134 2.845-2.878 5.151-6.129 5.151-3.25 0-5.777-2.306-5.644-5.152.134-2.845 2.878-5.151 6.129-5.151z"/><ellipse class="fil0" rx="1.918" ry="3.096" transform="matrix(1 0 -.07441 .95726 67.949 82.832)"/><ellipse cx="66.231" cy="81.127" fill="#fff" class="fil1" rx="1.406" ry="1.442"/><ellipse cx="71.329" cy="85.053" fill="#fff" class="fil1" rx=".746" ry=".686"/><ellipse class="fil0" rx="4.939" ry="5.724" transform="matrix(-1.2477 -.28352 -.0917 .92706 103.68 90.413)"/><path fill="url(#g)" d="M104.16 85.567c-3.017-.685-5.675.897-5.938 3.534-.263 2.637 1.97 5.33 4.986 6.016 3.017.685 5.675-.897 5.938-3.534.263-2.637-1.97-5.33-4.986-6.016z"/><ellipse class="fil0" stroke="#2b2a29" stroke-width=".2" rx="1.918" ry="3.096" transform="matrix(-1.0434 -.20862 -.06876 .88396 104.15 89.852)"/><ellipse cx="102.46" cy="87.893" fill="#fff" class="fil1" rx="1.406" ry="1.442"/><ellipse cx="106.15" cy="93.256" fill="#fff" class="fil1" rx=".746" ry=".686"/><path fill="gray" d="M70.02 106.95c-9.732.515-17.625 4.553-25.174 9.253 2.503-2.165 15.722-10.722 25.174-9.253zM68.139 105.16c-9.634-1.468-18.182.886-26.526 3.958 2.89-1.613 17.569-7.312 26.526-3.958zM69.835 102.46c-7.355-3.31-14.692-3.328-22.025-2.728 2.661-.645 15.627-1.937 22.026 2.723z" class="fil31"/><path fill="gray" d="M76.2 105.15c-4.7-2.112-9.39-2.123-14.076-1.74 1.7-.412 9.987-1.238 14.076 1.74zM77.035 104.03c-2.777-2.686-6.08-3.887-9.483-4.81 1.304.142 7.357 1.67 9.483 4.81zM74.718 107.06c-3.864.014-7.068 1.46-10.149 3.174 1.033-.809 6.435-3.94 10.149-3.174zM97.688 110.12c11.471 1.588 20.412 7.163 28.877 13.486-2.746-2.815-17.538-14.275-28.877-13.486zM100.1 108.18c11.555-.77 21.44 2.876 31.011 7.352-3.26-2.2-20.068-10.423-31.011-7.352zM98.358 104.81c9.041-3.175 17.73-2.458 26.353-1.01-3.086-1.032-18.309-3.864-26.353 1.01z" class="fil31"/><path fill="gray" d="M90.552 107.36c5.778-2.029 11.331-1.57 16.842-.646-1.972-.66-11.701-2.469-16.842.646zM89.676 105.95c3.558-2.901 7.59-3.992 11.712-4.742-1.558.037-8.88 1.237-11.712 4.742zM92.114 109.78c4.573.405 8.222 2.439 11.698 4.777-1.142-1.06-7.223-5.31-11.698-4.777zM78.741 78.126c-.01-3.864-1.45-7.07-3.16-10.153.808 1.034 3.93 6.44 3.16 10.153zM79.288 80.882c1.281-3.645.993-7.148.411-10.625.416 1.244 1.555 7.383-.411 10.625zM77.855 80.448c-.395-3.843-2.15-6.89-4.159-9.786.906.948 4.555 6.015 4.159 9.786zM94.588 80.786c1.41-3.597 3.916-6.063 6.627-8.316-1.127.671-5.999 4.576-6.627 8.316zM93.079 83.156c.128-3.861 1.667-7.022 3.47-10.051-.838 1.009-4.126 6.316-3.47 10.051zM94.571 83.271c1.762-3.438 4.502-5.64 7.425-7.611-1.188.555-6.426 3.953-7.425 7.611z" class="fil31"/></g></svg>
